<?xml version="1.0" encoding="utf-8"?>
<!-- Generator: Adobe Illustrator 24.2.0, SVG Export Plug-In . SVG Version: 6.00 Build 0)  -->
<svg version="1.1" id="Livello_1" xmlns="http://www.w3.org/2000/svg" xmlns:xlink="http://www.w3.org/1999/xlink" x="0px" y="0px"
	 viewBox="0 0 405.87 176.84" style="enable-background:new 0 0 405.87 176.84;" xml:space="preserve">
<style type="text/css">
	.st0{fill:#E1F2EC;}
	.st1{fill:#B3B3B3;}
	.st2{fill:#444482;}
	.st3{fill:#333338;}
	.st4{fill:#FFFFFF;}
</style>
<rect class="st0" width="405.87" height="176.84"/>
<g>
	<rect x="140.23" y="9.95" class="st1" width="33.24" height="13.59"/>
</g>
<g>
	<path d="M147.33,15.37h-0.42V12.8l-0.67,0.01V12.5l1.09-0.11V15.37z"/>
	<path d="M148.53,12.92c0-0.14,0.05-0.27,0.16-0.37c0.11-0.1,0.23-0.16,0.38-0.16c0.14,0,0.27,0.05,0.37,0.16
		c0.1,0.1,0.16,0.23,0.16,0.37c0,0.15-0.05,0.27-0.16,0.37c-0.1,0.1-0.23,0.15-0.38,0.15c-0.15,0-0.28-0.05-0.38-0.15
		C148.58,13.19,148.53,13.06,148.53,12.92z M148.81,12.92c0,0.07,0.03,0.14,0.08,0.18c0.05,0.05,0.11,0.07,0.19,0.07
		c0.07,0,0.13-0.02,0.18-0.07c0.05-0.05,0.08-0.11,0.08-0.18c0-0.07-0.03-0.14-0.08-0.19c-0.05-0.05-0.11-0.08-0.18-0.08
		c-0.07,0-0.14,0.03-0.19,0.08C148.83,12.78,148.81,12.84,148.81,12.92z"/>
	<path d="M151.72,15.06h1.5v0.31h-1.91v-2.94h0.42V15.06z"/>
	<path d="M155.35,14.01h-1.26v1.05h1.48v0.31h-1.89v-2.94h1.87v0.31h-1.45v0.95h1.26V14.01z"/>
	<path d="M156.37,15.06h1.72v0.31h-2.18v-0.29l1.64-2.33h-1.62v-0.31h2.09v0.28L156.37,15.06z"/>
	<path d="M159.1,15.37h-0.42v-2.94h0.42V15.37z"/>
	<path d="M162.2,14.17c0,0.36-0.12,0.66-0.35,0.89c-0.23,0.24-0.53,0.36-0.91,0.36c-0.36,0-0.65-0.12-0.87-0.36
		c-0.22-0.24-0.34-0.53-0.34-0.89v-0.52c0-0.36,0.11-0.66,0.34-0.89c0.22-0.24,0.52-0.36,0.87-0.36c0.37,0,0.67,0.12,0.91,0.36
		s0.35,0.54,0.35,0.9V14.17z M161.79,13.64c0-0.27-0.08-0.49-0.23-0.66c-0.15-0.17-0.36-0.26-0.61-0.26c-0.24,0-0.43,0.09-0.58,0.26
		c-0.14,0.17-0.22,0.39-0.22,0.66v0.53c0,0.27,0.07,0.49,0.22,0.67c0.14,0.17,0.34,0.26,0.58,0.26c0.26,0,0.46-0.09,0.61-0.26
		c0.15-0.17,0.23-0.39,0.23-0.67V13.64z"/>
	<path d="M165.12,15.37h-0.42l-1.48-2.25l-0.01,0v2.24h-0.41v-2.94h0.41l1.48,2.24l0.01,0v-2.24h0.42V15.37z"/>
	<path d="M167.52,14.01h-1.26v1.05h1.48v0.31h-1.89v-2.94h1.87v0.31h-1.45v0.95h1.26V14.01z"/>
	<path d="M149.45,19.94c-0.07,0.11-0.2,0.21-0.38,0.3c-0.18,0.09-0.41,0.14-0.7,0.14c-0.35,0-0.65-0.11-0.88-0.34
		c-0.23-0.22-0.35-0.52-0.35-0.87v-0.61c0-0.36,0.11-0.65,0.33-0.87c0.22-0.22,0.51-0.34,0.86-0.34c0.34,0,0.61,0.09,0.81,0.26
		c0.2,0.17,0.29,0.4,0.29,0.67l0,0.01h-0.4c0-0.18-0.06-0.33-0.18-0.45c-0.12-0.12-0.29-0.18-0.51-0.18c-0.23,0-0.42,0.08-0.57,0.25
		c-0.14,0.17-0.21,0.38-0.21,0.64v0.61c0,0.26,0.08,0.48,0.23,0.65c0.15,0.17,0.35,0.25,0.58,0.25c0.18,0,0.32-0.02,0.43-0.07
		c0.11-0.05,0.19-0.1,0.24-0.16v-0.66h-0.7v-0.31h1.11V19.94z"/>
	<path d="M150.58,19.06v1.27h-0.42V17.4h1.05c0.34,0,0.59,0.07,0.77,0.21c0.18,0.14,0.27,0.35,0.27,0.62c0,0.15-0.04,0.28-0.12,0.39
		c-0.08,0.11-0.2,0.2-0.36,0.27c0.17,0.05,0.29,0.14,0.36,0.26s0.11,0.26,0.11,0.44v0.28c0,0.09,0.01,0.17,0.03,0.25
		c0.02,0.07,0.06,0.13,0.11,0.18v0.05h-0.43c-0.05-0.05-0.09-0.11-0.11-0.2c-0.02-0.09-0.02-0.18-0.02-0.27v-0.27
		c0-0.16-0.05-0.29-0.15-0.38c-0.1-0.1-0.23-0.15-0.39-0.15H150.58z M150.58,18.75h0.59c0.23,0,0.4-0.04,0.51-0.13
		c0.1-0.09,0.16-0.22,0.16-0.39c0-0.17-0.05-0.29-0.15-0.38c-0.1-0.09-0.26-0.14-0.47-0.14h-0.63V18.75z"/>
	<path d="M154.49,19.58h-1.16l-0.27,0.76h-0.42l1.11-2.94h0.36l1.08,2.94h-0.42L154.49,19.58z M153.46,19.25h0.92l-0.45-1.26h-0.01
		L153.46,19.25z"/>
	<path d="M157.51,17.71h-1.01v2.63h-0.41v-2.63h-1V17.4h2.43V17.71z"/>
	<path d="M160.21,17.4v1.95c0,0.32-0.11,0.58-0.33,0.76c-0.22,0.18-0.5,0.27-0.85,0.27c-0.33,0-0.61-0.09-0.82-0.27
		c-0.21-0.18-0.32-0.43-0.32-0.76V17.4h0.41v1.95c0,0.22,0.07,0.4,0.2,0.53c0.13,0.13,0.31,0.19,0.52,0.19
		c0.23,0,0.41-0.06,0.55-0.19c0.14-0.13,0.21-0.3,0.21-0.53V17.4H160.21z"/>
	<path d="M161.33,20.34h-0.42V17.4h0.42V20.34z"/>
	<path d="M164.17,17.71h-1.01v2.63h-0.41v-2.63h-1V17.4h2.43V17.71z"/>
	<path d="M166.03,19.58h-1.15l-0.27,0.76h-0.42l1.11-2.94h0.36l1.08,2.94h-0.42L166.03,19.58z M164.99,19.25h0.92l-0.45-1.26h-0.01
		L164.99,19.25z"/>
</g>
<g>
	<rect x="205.82" y="79.86" class="st1" width="36.96" height="13.59"/>
</g>
<g>
	<path d="M214.63,87.06v1.18h-0.46V85.3h1.31c0.36,0,0.65,0.08,0.85,0.24c0.2,0.16,0.3,0.37,0.3,0.64c0,0.27-0.1,0.48-0.3,0.64
		c-0.2,0.16-0.49,0.24-0.85,0.24H214.63z M214.63,86.75h0.84c0.23,0,0.4-0.05,0.52-0.16c0.11-0.11,0.17-0.24,0.17-0.41
		s-0.06-0.3-0.17-0.41c-0.11-0.11-0.29-0.16-0.52-0.16h-0.84V86.75z"/>
	<path d="M217.69,86.97v1.27h-0.46V85.3h1.17c0.37,0,0.66,0.07,0.86,0.21c0.2,0.14,0.29,0.35,0.29,0.62c0,0.15-0.05,0.28-0.14,0.39
		c-0.09,0.11-0.22,0.2-0.4,0.27c0.19,0.05,0.32,0.14,0.4,0.26c0.08,0.12,0.12,0.26,0.12,0.44v0.28c0,0.09,0.01,0.17,0.04,0.25
		c0.02,0.07,0.06,0.13,0.12,0.18v0.05h-0.48c-0.06-0.05-0.1-0.11-0.12-0.2c-0.02-0.09-0.03-0.18-0.03-0.27v-0.27
		c0-0.16-0.05-0.29-0.16-0.38c-0.11-0.1-0.25-0.15-0.43-0.15H217.69z M217.69,86.65h0.66c0.26,0,0.45-0.04,0.56-0.13
		c0.11-0.09,0.17-0.22,0.17-0.39c0-0.17-0.06-0.29-0.17-0.38c-0.11-0.09-0.29-0.14-0.52-0.14h-0.71V86.65z"/>
	<path d="M222.14,86.88h-1.4v1.05h1.64v0.31h-2.1V85.3h2.08v0.31h-1.61v0.95h1.4V86.88z"/>
	<path d="M225.51,88.24h-0.46l-1.64-2.25l-0.01,0v2.24h-0.46V85.3h0.46l1.64,2.24l0.01,0V85.3h0.46V88.24z"/>
	<path d="M228.91,87.03c0,0.36-0.13,0.66-0.39,0.9c-0.26,0.24-0.59,0.36-1.01,0.36c-0.4,0-0.72-0.12-0.97-0.36
		c-0.25-0.24-0.37-0.54-0.37-0.9v-0.52c0-0.36,0.12-0.66,0.37-0.89c0.25-0.24,0.57-0.36,0.97-0.36c0.41,0,0.75,0.12,1.01,0.36
		s0.39,0.54,0.39,0.9V87.03z M228.45,86.51c0-0.27-0.08-0.49-0.25-0.66c-0.17-0.17-0.4-0.26-0.68-0.26c-0.27,0-0.48,0.09-0.64,0.26
		c-0.16,0.17-0.24,0.39-0.24,0.66v0.53c0,0.27,0.08,0.49,0.24,0.67s0.37,0.26,0.64,0.26c0.29,0,0.51-0.09,0.68-0.26
		c0.17-0.17,0.25-0.39,0.25-0.67V86.51z"/>
	<path d="M231.9,85.61h-1.12v2.63h-0.46v-2.63h-1.11V85.3h2.7V85.61z"/>
	<path d="M233.96,87.48h-1.28l-0.3,0.76h-0.47l1.23-2.94h0.4l1.2,2.94h-0.47L233.96,87.48z M232.81,87.15h1.02l-0.5-1.26h-0.01
		L232.81,87.15z"/>
</g>
<g>
	<g>
		<rect x="336.15" y="111.29" class="st1" width="38" height="13.59"/>
	</g>
	<g>
		<path d="M344.83,118.73l0,0.01c0.01,0.28-0.11,0.51-0.34,0.69c-0.23,0.19-0.54,0.28-0.92,0.28c-0.39,0-0.7-0.12-0.94-0.35
			c-0.24-0.24-0.36-0.53-0.36-0.9v-0.52c0-0.36,0.12-0.66,0.36-0.9c0.24-0.24,0.56-0.36,0.94-0.36c0.39,0,0.69,0.09,0.92,0.27
			c0.23,0.18,0.34,0.41,0.33,0.7l0,0.01h-0.44c0-0.21-0.07-0.37-0.21-0.49c-0.14-0.12-0.34-0.18-0.59-0.18
			c-0.26,0-0.46,0.09-0.62,0.27c-0.15,0.18-0.23,0.4-0.23,0.67v0.53c0,0.27,0.08,0.49,0.23,0.67s0.36,0.27,0.62,0.27
			c0.26,0,0.45-0.06,0.59-0.18c0.14-0.12,0.21-0.28,0.21-0.49H344.83z"/>
		<path d="M348.04,118.46c0,0.36-0.13,0.66-0.39,0.89c-0.26,0.24-0.59,0.36-1.01,0.36c-0.4,0-0.72-0.12-0.97-0.36
			c-0.25-0.24-0.37-0.54-0.37-0.89v-0.52c0-0.36,0.12-0.66,0.37-0.89c0.25-0.24,0.57-0.36,0.97-0.36c0.41,0,0.75,0.12,1.01,0.36
			c0.26,0.24,0.39,0.54,0.39,0.9V118.46z M347.57,117.93c0-0.27-0.08-0.49-0.25-0.66c-0.17-0.17-0.4-0.26-0.68-0.26
			c-0.27,0-0.48,0.09-0.64,0.26c-0.16,0.17-0.24,0.39-0.24,0.66v0.53c0,0.27,0.08,0.49,0.24,0.67c0.16,0.17,0.37,0.26,0.64,0.26
			c0.29,0,0.51-0.09,0.68-0.26c0.17-0.17,0.25-0.39,0.25-0.67V117.93z"/>
		<path d="M351.28,119.67h-0.46l-1.64-2.25l-0.01,0v2.24h-0.46v-2.94h0.46l1.64,2.24l0.01,0v-2.24h0.46V119.67z"/>
		<path d="M353.98,118.37h-1.44v1.3h-0.46v-2.94h2.14v0.31h-1.68v1.01h1.44V118.37z"/>
		<path d="M356.59,118.3h-1.4v1.05h1.64v0.31h-2.1v-2.94h2.08v0.31h-1.61v0.95h1.4V118.3z"/>
		<path d="M357.84,118.39v1.27h-0.46v-2.94h1.17c0.37,0,0.66,0.07,0.86,0.21c0.2,0.14,0.29,0.35,0.29,0.62
			c0,0.15-0.05,0.28-0.14,0.39c-0.09,0.11-0.22,0.2-0.4,0.27c0.19,0.05,0.32,0.14,0.4,0.26c0.08,0.12,0.12,0.26,0.12,0.44v0.28
			c0,0.09,0.01,0.17,0.04,0.25c0.02,0.07,0.06,0.13,0.12,0.18v0.05h-0.48c-0.06-0.05-0.1-0.11-0.12-0.2
			c-0.02-0.09-0.03-0.18-0.03-0.27v-0.27c0-0.16-0.05-0.29-0.16-0.38c-0.11-0.1-0.25-0.15-0.43-0.15H357.84z M357.84,118.08h0.66
			c0.26,0,0.45-0.04,0.56-0.13c0.11-0.09,0.17-0.22,0.17-0.39c0-0.17-0.06-0.29-0.17-0.38c-0.11-0.09-0.29-0.14-0.52-0.14h-0.71
			V118.08z"/>
		<path d="M362.12,119.12h0.01l1.09-2.39h0.57v2.94h-0.46v-2.2l-0.01,0l-1.03,2.21h-0.32l-1.06-2.28l-0.01,0v2.28h-0.46v-2.94h0.61
			L362.12,119.12z"/>
		<path d="M366.4,118.91h-1.28l-0.3,0.76h-0.47l1.23-2.94h0.4l1.2,2.94h-0.47L366.4,118.91z M365.25,118.58h1.02l-0.5-1.26h-0.01
			L365.25,118.58z"/>
	</g>
</g>
<g>
	<rect x="205.98" y="46.51" class="st1" width="36.8" height="13.59"/>
</g>
<g>
	<path d="M215.25,54.13h-1.28l-0.3,0.76h-0.47l1.22-2.94h0.39l1.2,2.94h-0.47L215.25,54.13z M214.11,53.8h1.01l-0.49-1.26h-0.01
		L214.11,53.8z"/>
	<path d="M218.92,53.95l0,0.01c0.01,0.28-0.11,0.51-0.34,0.69c-0.23,0.19-0.53,0.28-0.91,0.28c-0.38,0-0.7-0.12-0.94-0.35
		c-0.24-0.24-0.36-0.53-0.36-0.9v-0.52c0-0.36,0.12-0.66,0.36-0.9c0.24-0.24,0.55-0.35,0.94-0.35s0.69,0.09,0.92,0.27
		c0.23,0.18,0.34,0.41,0.33,0.7l0,0.01h-0.44c0-0.21-0.07-0.37-0.21-0.49c-0.14-0.12-0.34-0.18-0.59-0.18
		c-0.26,0-0.46,0.09-0.61,0.27c-0.15,0.18-0.23,0.4-0.23,0.67v0.53c0,0.27,0.08,0.49,0.23,0.67c0.15,0.18,0.36,0.27,0.61,0.27
		c0.26,0,0.45-0.06,0.59-0.18c0.14-0.12,0.21-0.28,0.21-0.49H218.92z"/>
	<path d="M222.12,53.68c0,0.15-0.03,0.3-0.08,0.44c-0.05,0.14-0.13,0.26-0.22,0.37l0.51,0.43l-0.32,0.26l-0.52-0.43
		c-0.11,0.06-0.23,0.11-0.35,0.14s-0.26,0.05-0.41,0.05c-0.4,0-0.72-0.12-0.97-0.36c-0.25-0.24-0.37-0.54-0.37-0.9v-0.52
		c0-0.36,0.12-0.66,0.37-0.89c0.25-0.24,0.57-0.36,0.97-0.36c0.41,0,0.74,0.12,1,0.36c0.26,0.24,0.39,0.54,0.39,0.9V53.68z
		 M221.66,53.15c0-0.27-0.08-0.49-0.25-0.66c-0.17-0.17-0.39-0.26-0.68-0.26c-0.27,0-0.48,0.09-0.64,0.26
		c-0.16,0.17-0.24,0.39-0.24,0.66v0.53c0,0.27,0.08,0.49,0.24,0.67c0.16,0.17,0.37,0.26,0.64,0.26c0.28,0,0.51-0.09,0.68-0.26
		c0.17-0.17,0.25-0.39,0.25-0.67V53.15z"/>
	<path d="M225.36,51.95v1.95c0,0.32-0.12,0.58-0.36,0.76c-0.24,0.18-0.56,0.27-0.94,0.27c-0.37,0-0.67-0.09-0.91-0.27
		c-0.23-0.18-0.35-0.43-0.35-0.76v-1.95h0.46v1.95c0,0.23,0.07,0.4,0.22,0.53c0.15,0.13,0.34,0.19,0.58,0.19
		c0.25,0,0.45-0.06,0.61-0.19c0.16-0.13,0.23-0.3,0.23-0.53v-1.95H225.36z"/>
	<path d="M226.59,54.89h-0.46v-2.94h0.46V54.89z"/>
	<path d="M229.25,54.15c0-0.13-0.06-0.25-0.17-0.34c-0.11-0.09-0.31-0.17-0.58-0.23c-0.35-0.07-0.61-0.18-0.81-0.33
		c-0.19-0.14-0.29-0.32-0.29-0.54c0-0.23,0.1-0.42,0.31-0.58c0.21-0.15,0.48-0.23,0.81-0.23c0.36,0,0.64,0.09,0.86,0.26
		c0.21,0.18,0.32,0.38,0.31,0.62l-0.01,0.01h-0.44c0-0.17-0.07-0.3-0.2-0.41c-0.13-0.11-0.31-0.16-0.52-0.16
		c-0.21,0-0.38,0.05-0.49,0.14c-0.11,0.09-0.17,0.21-0.17,0.35c0,0.13,0.06,0.23,0.19,0.32c0.13,0.09,0.33,0.16,0.61,0.23
		c0.34,0.08,0.6,0.19,0.78,0.34c0.18,0.15,0.27,0.33,0.27,0.55c0,0.24-0.11,0.43-0.32,0.57c-0.22,0.14-0.5,0.22-0.84,0.22
		c-0.33,0-0.62-0.08-0.87-0.24c-0.25-0.16-0.37-0.37-0.37-0.64l0-0.01h0.44c0,0.18,0.08,0.33,0.24,0.43
		c0.16,0.1,0.34,0.15,0.55,0.15c0.22,0,0.39-0.04,0.52-0.13C229.18,54.41,229.25,54.29,229.25,54.15z"/>
	<path d="M232.73,52.26h-1.12v2.63h-0.46v-2.63h-1.11v-0.31h2.69V52.26z"/>
	<path d="M234.79,54.13h-1.28l-0.3,0.76h-0.47l1.22-2.94h0.39l1.2,2.94h-0.47L234.79,54.13z M233.64,53.8h1.01l-0.49-1.26h-0.01
		L233.64,53.8z"/>
</g>
<g>
	<rect x="205.98" y="144.85" class="st1" width="36.8" height="13.59"/>
</g>
<g>
	<path d="M220.06,151.92h-1.43v1.3h-0.46v-2.94h2.13v0.31h-1.67v1.01h1.43V151.92z"/>
	<path d="M221.31,153.22h-0.46v-2.94h0.46V153.22z"/>
	<path d="M222.61,152.91h1.66v0.31h-2.12v-2.94h0.46V152.91z"/>
	<path d="M226.51,150.59h-1.12v2.63h-0.46v-2.63h-1.11v-0.31h2.69V150.59z"/>
	<path d="M227.46,151.95v1.27H227v-2.94h1.16c0.37,0,0.66,0.07,0.85,0.21c0.2,0.14,0.29,0.35,0.29,0.62c0,0.15-0.05,0.28-0.14,0.39
		c-0.09,0.11-0.22,0.2-0.4,0.27c0.19,0.05,0.32,0.14,0.4,0.26c0.08,0.12,0.12,0.26,0.12,0.44v0.28c0,0.09,0.01,0.17,0.03,0.25
		c0.02,0.07,0.06,0.13,0.12,0.18v0.05h-0.47c-0.06-0.05-0.1-0.11-0.12-0.2c-0.02-0.09-0.03-0.18-0.03-0.27v-0.27
		c0-0.16-0.05-0.29-0.16-0.38c-0.11-0.1-0.25-0.15-0.43-0.15H227.46z M227.46,151.63h0.66c0.26,0,0.45-0.04,0.56-0.13
		c0.11-0.09,0.17-0.22,0.17-0.39c0-0.17-0.06-0.29-0.17-0.38c-0.11-0.09-0.28-0.14-0.52-0.14h-0.7V151.63z"/>
	<path d="M230.54,153.22h-0.46v-2.94h0.46V153.22z"/>
</g>
<g>
	<path class="st1" d="M372.08,42.85h-1.81v1.5h1.81V42.85L372.08,42.85z M369.66,42.85h-1.81v1.5h1.81V42.85L369.66,42.85z
		 M367.25,42.85h-1.81v1.5h1.81V42.85L367.25,42.85z M364.83,42.85h-1.81v1.5h1.81V42.85L364.83,42.85z M362.42,42.85h-1.81v1.5
		h1.81V42.85L362.42,42.85z M360,42.85h-1.81v1.5H360V42.85L360,42.85z M357.59,42.85h-1.81v1.5h1.81V42.85L357.59,42.85z
		 M355.17,42.85h-1.81v1.5h1.81V42.85L355.17,42.85z M352.76,42.85h-1.81v1.5h1.81V42.85L352.76,42.85z M350.34,42.85h-1.81v1.5
		h1.81V42.85L350.34,42.85z M347.93,42.85h-1.81v1.5h1.81V42.85L347.93,42.85z M345.51,42.85h-1.81v1.5h1.81V42.85L345.51,42.85z
		 M343.1,42.85h-1.81v1.5h1.81V42.85L343.1,42.85z M340.68,42.85h-1.81v1.5h1.81V42.85L340.68,42.85z M338.27,42.85h-1.81v0.21
		h-0.39v1.81h1.5v-0.52h0.7V42.85L338.27,42.85z M337.56,45.47h-1.5v1.81h1.5V45.47L337.56,45.47z M337.56,47.89h-1.5v1.81h1.5
		V47.89L337.56,47.89z M337.56,50.3h-1.5v1.81h1.5V50.3L337.56,50.3z M337.56,52.72h-1.5v1.81h1.5V52.72L337.56,52.72z
		 M337.56,55.13h-1.5v1.81h1.5V55.13L337.56,55.13z M337.56,57.55h-1.5v1.81h1.5V57.55L337.56,57.55z M337.56,59.96h-1.5v1.81h0.59
		v0.01h1.81v-1.5h-0.9V59.96L337.56,59.96z M340.88,60.29h-1.81v1.5h1.81V60.29L340.88,60.29z M343.29,60.29h-1.81v1.5h1.81V60.29
		L343.29,60.29z M345.71,60.29h-1.81v1.5h1.81V60.29L345.71,60.29z M348.12,60.29h-1.81v1.5h1.81V60.29L348.12,60.29z M350.54,60.29
		h-1.81v1.5h1.81V60.29L350.54,60.29z M352.95,60.29h-1.81v1.5h1.81V60.29L352.95,60.29z M355.37,60.29h-1.81v1.5h1.81V60.29
		L355.37,60.29z M357.78,60.29h-1.81v1.5h1.81V60.29L357.78,60.29z M360.2,60.29h-1.81v1.5h1.81V60.29L360.2,60.29z M362.61,60.29
		h-1.81v1.5h1.81V60.29L362.61,60.29z M365.03,60.29h-1.81v1.5h1.81V60.29L365.03,60.29z M367.44,60.29h-1.81v1.5h1.81V60.29
		L367.44,60.29z M369.86,60.29h-1.81v1.5h1.81V60.29L369.86,60.29z M372.27,60.29h-1.81v1.5h1.81V60.29L372.27,60.29z M374.49,59.18
		h-1.5v1.11h-0.12v1.5h1.62V59.18L374.49,59.18z M374.49,56.76h-1.5v1.81h1.5V56.76L374.49,56.76z M374.49,54.35h-1.5v1.81h1.5
		V54.35L374.49,54.35z M374.49,51.93h-1.5v1.81h1.5V51.93L374.49,51.93z M374.49,49.52h-1.5v1.81h1.5V49.52L374.49,49.52z
		 M374.49,47.1h-1.5v1.81h1.5V47.1L374.49,47.1z M374.49,44.69h-1.5v1.81h1.5V44.69L374.49,44.69z M374.49,42.85h-1.81v1.5h1.81
		V42.85L374.49,42.85z"/>
	<g>
		<path d="M339.27,50.04v1.27h-0.41v-2.94h1.05c0.34,0,0.59,0.07,0.77,0.21c0.18,0.14,0.27,0.35,0.27,0.62
			c0,0.15-0.04,0.28-0.12,0.39c-0.08,0.11-0.2,0.2-0.36,0.27c0.17,0.05,0.29,0.14,0.36,0.26c0.07,0.12,0.11,0.26,0.11,0.44v0.28
			c0,0.09,0.01,0.17,0.03,0.25c0.02,0.07,0.06,0.13,0.11,0.18v0.05h-0.43c-0.05-0.05-0.09-0.11-0.11-0.2
			c-0.02-0.09-0.02-0.18-0.02-0.27v-0.27c0-0.16-0.05-0.29-0.15-0.38c-0.1-0.1-0.23-0.15-0.39-0.15H339.27z M339.27,49.72h0.59
			c0.23,0,0.4-0.04,0.51-0.13c0.1-0.09,0.15-0.22,0.15-0.39c0-0.17-0.05-0.29-0.15-0.38c-0.1-0.09-0.26-0.14-0.47-0.14h-0.63V49.72z
			"/>
		<path d="M343.27,49.95h-1.26V51h1.48v0.31h-1.89v-2.94h1.87v0.31h-1.45v0.95h1.26V49.95z"/>
		<path d="M346.18,50.92c-0.07,0.11-0.2,0.21-0.38,0.3c-0.18,0.09-0.41,0.14-0.7,0.14c-0.35,0-0.65-0.11-0.88-0.34
			c-0.23-0.23-0.35-0.52-0.35-0.87v-0.61c0-0.36,0.11-0.65,0.33-0.87c0.22-0.23,0.51-0.34,0.86-0.34c0.34,0,0.61,0.09,0.81,0.26
			c0.2,0.17,0.29,0.4,0.29,0.67l0,0.01h-0.4c0-0.18-0.06-0.33-0.18-0.45c-0.12-0.12-0.29-0.18-0.51-0.18
			c-0.23,0-0.42,0.08-0.57,0.25c-0.14,0.17-0.21,0.38-0.21,0.64v0.61c0,0.26,0.08,0.48,0.23,0.65c0.15,0.17,0.35,0.25,0.58,0.25
			c0.18,0,0.32-0.02,0.43-0.07c0.11-0.05,0.19-0.1,0.24-0.16v-0.66h-0.7v-0.31h1.11V50.92z"/>
		<path d="M347.36,51.31h-0.42v-2.94h0.42V51.31z"/>
		<path d="M349.76,50.57c0-0.13-0.05-0.24-0.15-0.34c-0.1-0.09-0.28-0.17-0.53-0.23c-0.31-0.07-0.56-0.18-0.73-0.33
			c-0.17-0.14-0.26-0.32-0.26-0.54c0-0.23,0.09-0.42,0.28-0.58c0.19-0.15,0.43-0.23,0.73-0.23c0.32,0,0.58,0.09,0.77,0.26
			c0.19,0.18,0.29,0.38,0.28,0.62l-0.01,0.01h-0.4c0-0.17-0.06-0.31-0.18-0.41c-0.12-0.11-0.28-0.16-0.47-0.16
			c-0.19,0-0.34,0.05-0.45,0.14c-0.1,0.09-0.15,0.21-0.15,0.35c0,0.13,0.06,0.23,0.17,0.32s0.3,0.16,0.55,0.23
			c0.31,0.08,0.54,0.19,0.71,0.34c0.16,0.15,0.24,0.33,0.24,0.55c0,0.24-0.1,0.43-0.29,0.57c-0.19,0.14-0.45,0.22-0.76,0.22
			c-0.3,0-0.56-0.08-0.78-0.24c-0.23-0.16-0.34-0.37-0.33-0.64l0-0.01h0.4c0,0.18,0.07,0.33,0.22,0.43c0.15,0.1,0.31,0.15,0.5,0.15
			c0.2,0,0.35-0.04,0.47-0.13C349.7,50.83,349.76,50.72,349.76,50.57z"/>
		<path d="M352.91,48.68h-1.01v2.63h-0.41v-2.63h-1v-0.31h2.43V48.68z"/>
		<path d="M353.76,50.04v1.27h-0.42v-2.94h1.05c0.34,0,0.59,0.07,0.77,0.21c0.18,0.14,0.27,0.35,0.27,0.62
			c0,0.15-0.04,0.28-0.12,0.39c-0.08,0.11-0.2,0.2-0.36,0.27c0.17,0.05,0.29,0.14,0.36,0.26c0.07,0.12,0.11,0.26,0.11,0.44v0.28
			c0,0.09,0.01,0.17,0.03,0.25c0.02,0.07,0.06,0.13,0.11,0.18v0.05h-0.43c-0.05-0.05-0.09-0.11-0.11-0.2
			c-0.02-0.09-0.02-0.18-0.02-0.27v-0.27c0-0.16-0.05-0.29-0.15-0.38c-0.1-0.1-0.23-0.15-0.39-0.15H353.76z M353.76,49.72h0.59
			c0.23,0,0.4-0.04,0.51-0.13c0.1-0.09,0.16-0.22,0.16-0.39c0-0.17-0.05-0.29-0.15-0.38c-0.1-0.09-0.26-0.14-0.47-0.14h-0.63V49.72z
			"/>
		<path d="M357.67,50.55h-1.16l-0.27,0.76h-0.42l1.11-2.94h0.36l1.08,2.94h-0.42L357.67,50.55z M356.64,50.22h0.92l-0.45-1.26h-0.01
			L356.64,50.22z"/>
		<path d="M359.13,51h1.72v0.31h-2.18v-0.29l1.64-2.33h-1.62v-0.31h2.09v0.28L359.13,51z"/>
		<path d="M361.86,51.31h-0.42v-2.94h0.42V51.31z"/>
		<path d="M364.96,50.1c0,0.36-0.12,0.66-0.35,0.89c-0.23,0.24-0.53,0.36-0.91,0.36c-0.36,0-0.65-0.12-0.87-0.36
			c-0.22-0.24-0.34-0.53-0.34-0.89v-0.52c0-0.36,0.11-0.66,0.34-0.89c0.22-0.24,0.52-0.36,0.87-0.36c0.37,0,0.67,0.12,0.91,0.36
			c0.23,0.24,0.35,0.54,0.35,0.9V50.1z M364.55,49.58c0-0.27-0.08-0.49-0.23-0.66c-0.15-0.17-0.36-0.26-0.61-0.26
			c-0.24,0-0.43,0.09-0.58,0.26c-0.14,0.17-0.22,0.39-0.22,0.66v0.53c0,0.27,0.07,0.49,0.22,0.67c0.14,0.17,0.34,0.26,0.58,0.26
			c0.26,0,0.46-0.09,0.61-0.26c0.15-0.17,0.23-0.39,0.23-0.67V49.58z"/>
		<path d="M367.88,51.31h-0.42l-1.48-2.25l-0.01,0v2.24h-0.41v-2.94h0.41l1.48,2.24l0.01,0v-2.24h0.42V51.31z"/>
		<path d="M370.28,49.95h-1.26V51h1.48v0.31h-1.89v-2.94h1.87v0.31h-1.45v0.95h1.26V49.95z"/>
		<path d="M347.33,56.53h-0.35l1.28-3.19h0.35L347.33,56.53z"/>
		<path d="M350.58,55.96h1.5v0.31h-1.91v-2.94h0.42V55.96z"/>
		<path d="M354.75,55.07c0,0.36-0.12,0.66-0.35,0.9c-0.23,0.24-0.53,0.36-0.91,0.36c-0.36,0-0.65-0.12-0.87-0.36
			c-0.22-0.24-0.34-0.54-0.34-0.9v-0.52c0-0.36,0.11-0.66,0.34-0.9c0.22-0.24,0.52-0.36,0.87-0.36c0.37,0,0.67,0.12,0.91,0.36
			c0.23,0.24,0.35,0.54,0.35,0.9V55.07z M354.33,54.54c0-0.27-0.08-0.49-0.23-0.66c-0.15-0.17-0.36-0.26-0.61-0.26
			c-0.24,0-0.43,0.09-0.58,0.26c-0.14,0.17-0.22,0.39-0.22,0.66v0.53c0,0.27,0.07,0.49,0.22,0.67c0.14,0.17,0.34,0.26,0.58,0.26
			c0.26,0,0.46-0.09,0.61-0.26c0.15-0.17,0.23-0.39,0.23-0.67V54.54z"/>
		<path d="M357.55,55.88c-0.07,0.11-0.2,0.21-0.38,0.3c-0.18,0.09-0.41,0.14-0.7,0.14c-0.35,0-0.65-0.11-0.88-0.34
			c-0.23-0.22-0.35-0.52-0.35-0.87V54.5c0-0.36,0.11-0.65,0.33-0.87c0.22-0.22,0.51-0.34,0.86-0.34c0.34,0,0.61,0.09,0.81,0.26
			s0.29,0.4,0.29,0.67l0,0.01h-0.4c0-0.18-0.06-0.33-0.18-0.45c-0.12-0.12-0.29-0.18-0.51-0.18c-0.23,0-0.42,0.08-0.57,0.25
			c-0.14,0.17-0.21,0.38-0.21,0.64v0.61c0,0.26,0.08,0.48,0.23,0.65c0.15,0.17,0.35,0.25,0.58,0.25c0.18,0,0.32-0.02,0.43-0.07
			c0.11-0.05,0.19-0.1,0.24-0.16v-0.66h-0.7v-0.31h1.11V55.88z"/>
		<path d="M358.73,56.28h-0.42v-2.94h0.42V56.28z"/>
		<path d="M361.81,56.28h-0.42l-1.48-2.25l-0.01,0v2.24h-0.41v-2.94h0.41l1.48,2.24l0.01,0v-2.24h0.42V56.28z"/>
	</g>
</g>
<g>
	<path class="st1" d="M312.83,78.35v16h-33.88v-16H312.83 M314.3,76.88h-36.81v18.94h36.81V76.88L314.3,76.88z"/>
	<g>
		<path d="M285.64,86.77l0,0.01c0.01,0.28-0.1,0.51-0.3,0.69c-0.21,0.19-0.48,0.28-0.82,0.28c-0.35,0-0.63-0.12-0.85-0.35
			c-0.22-0.24-0.33-0.53-0.33-0.9v-0.52c0-0.36,0.11-0.66,0.33-0.9c0.22-0.24,0.5-0.35,0.85-0.35c0.35,0,0.62,0.09,0.83,0.27
			c0.2,0.18,0.3,0.41,0.3,0.7l0,0.01h-0.4c0-0.21-0.06-0.37-0.19-0.49c-0.13-0.12-0.3-0.18-0.53-0.18c-0.23,0-0.42,0.09-0.55,0.27
			c-0.14,0.18-0.21,0.4-0.21,0.67v0.53c0,0.27,0.07,0.49,0.21,0.67c0.14,0.18,0.32,0.27,0.55,0.27c0.23,0,0.41-0.06,0.53-0.18
			c0.13-0.12,0.19-0.28,0.19-0.49H285.64z"/>
		<path d="M287.77,86.95h-1.15l-0.27,0.76h-0.42l1.11-2.94h0.36l1.08,2.94h-0.42L287.77,86.95z M286.74,86.62h0.92l-0.45-1.26h-0.01
			L286.74,86.62z"/>
		<path d="M289.33,87.4h1.5v0.31h-1.91v-2.94h0.42V87.4z"/>
		<path d="M292.97,86.34h-1.26v1.05h1.48v0.31h-1.89v-2.94h1.87v0.31h-1.45v0.95h1.26V86.34z"/>
		<path d="M295.99,87.71h-0.42l-1.48-2.25l-0.01,0v2.24h-0.41v-2.94h0.41l1.48,2.24l0.01,0v-2.24h0.42V87.71z"/>
		<path d="M296.71,87.71v-2.94h0.97c0.4,0,0.72,0.12,0.97,0.35c0.24,0.24,0.37,0.54,0.37,0.92v0.4c0,0.38-0.12,0.68-0.37,0.92
			c-0.24,0.23-0.57,0.35-0.97,0.35H296.71z M297.13,85.08v2.32h0.55c0.28,0,0.51-0.09,0.67-0.27c0.16-0.18,0.25-0.41,0.25-0.69
			v-0.41c0-0.28-0.08-0.51-0.25-0.68c-0.16-0.18-0.39-0.27-0.67-0.27H297.13z"/>
		<path d="M301.18,86.95h-1.16l-0.27,0.76h-0.42l1.11-2.94h0.36l1.08,2.94h-0.42L301.18,86.95z M300.14,86.62h0.92l-0.45-1.26h-0.01
			L300.14,86.62z"/>
		<path d="M302.73,86.43v1.27h-0.41v-2.94h1.05c0.34,0,0.59,0.07,0.77,0.21c0.18,0.14,0.27,0.35,0.27,0.62
			c0,0.15-0.04,0.28-0.12,0.39c-0.08,0.11-0.2,0.2-0.36,0.27c0.17,0.05,0.29,0.14,0.36,0.26c0.07,0.12,0.11,0.26,0.11,0.44v0.28
			c0,0.09,0.01,0.17,0.03,0.25c0.02,0.07,0.06,0.13,0.11,0.18v0.05h-0.43c-0.05-0.05-0.09-0.11-0.11-0.2
			c-0.02-0.09-0.02-0.18-0.02-0.27v-0.27c0-0.16-0.05-0.29-0.15-0.38c-0.1-0.1-0.23-0.15-0.39-0.15H302.73z M302.73,86.12h0.59
			c0.23,0,0.4-0.04,0.51-0.13c0.1-0.09,0.15-0.22,0.15-0.39c0-0.17-0.05-0.29-0.15-0.38c-0.1-0.09-0.26-0.14-0.47-0.14h-0.63V86.12z
			"/>
		<path d="M305.53,87.71h-0.42v-2.94h0.42V87.71z"/>
		<path d="M308.63,86.5c0,0.36-0.12,0.66-0.35,0.89c-0.23,0.24-0.53,0.36-0.91,0.36c-0.36,0-0.65-0.12-0.87-0.36
			c-0.22-0.24-0.34-0.53-0.34-0.89v-0.52c0-0.36,0.11-0.66,0.34-0.89c0.22-0.24,0.52-0.36,0.87-0.36c0.37,0,0.67,0.12,0.91,0.36
			c0.23,0.24,0.35,0.54,0.35,0.9V86.5z M308.21,85.97c0-0.27-0.08-0.49-0.23-0.66c-0.15-0.17-0.36-0.26-0.61-0.26
			c-0.24,0-0.43,0.09-0.58,0.26c-0.14,0.17-0.22,0.39-0.22,0.66v0.53c0,0.27,0.07,0.49,0.22,0.67c0.14,0.17,0.34,0.26,0.58,0.26
			c0.26,0,0.46-0.09,0.61-0.26c0.15-0.17,0.23-0.39,0.23-0.67V85.97z"/>
	</g>
</g>
<g>
	<path class="st1" d="M172.07,61.41v16.14H141.3V61.41H172.07 M173.47,60H139.9v18.94h33.57V60L173.47,60z"/>
</g>
<g>
	<path d="M149.7,70.52h1.5v0.31h-1.91v-2.94h0.41V70.52z"/>
	<path d="M153.34,69.47h-1.26v1.05h1.48v0.31h-1.89v-2.94h1.87v0.31h-1.45v0.95h1.26V69.47z"/>
	<path d="M154.36,70.52h1.72v0.31h-2.18v-0.29l1.64-2.33h-1.62v-0.31H156v0.28L154.36,70.52z"/>
	<path d="M157.08,70.83h-0.42v-2.94h0.42V70.83z"/>
	<path d="M160.19,69.62c0,0.36-0.12,0.66-0.35,0.89c-0.23,0.24-0.53,0.36-0.9,0.36c-0.36,0-0.65-0.12-0.87-0.36
		c-0.22-0.24-0.34-0.53-0.34-0.89V69.1c0-0.36,0.11-0.66,0.34-0.89c0.22-0.24,0.52-0.36,0.87-0.36c0.37,0,0.67,0.12,0.9,0.36
		s0.35,0.54,0.35,0.9V69.62z M159.77,69.09c0-0.27-0.08-0.49-0.23-0.66c-0.15-0.17-0.36-0.26-0.61-0.26c-0.24,0-0.43,0.09-0.58,0.26
		c-0.14,0.17-0.22,0.39-0.22,0.66v0.53c0,0.27,0.07,0.49,0.22,0.67c0.14,0.17,0.34,0.26,0.58,0.26c0.26,0,0.46-0.09,0.61-0.26
		c0.15-0.17,0.23-0.39,0.23-0.67V69.09z"/>
	<path d="M163.11,70.83h-0.41l-1.48-2.25l-0.01,0v2.24h-0.42v-2.94h0.42l1.48,2.24l0.01,0v-2.24h0.41V70.83z"/>
	<path d="M164.29,70.83h-0.42v-2.94h0.42V70.83z"/>
</g>
<g>
	<path class="st1" d="M172.07,143.72v16.14H141.3v-16.14H172.07 M173.47,142.32H139.9v18.94h33.57V142.32L173.47,142.32z"/>
</g>
<g>
	<path d="M146.47,149.84l0,0.01c0.01,0.28-0.1,0.51-0.3,0.69s-0.48,0.28-0.82,0.28c-0.35,0-0.63-0.12-0.85-0.35
		c-0.22-0.24-0.33-0.53-0.33-0.9v-0.52c0-0.36,0.11-0.66,0.33-0.9c0.22-0.24,0.5-0.35,0.85-0.35c0.35,0,0.62,0.09,0.83,0.27
		c0.21,0.18,0.31,0.41,0.3,0.7l0,0.01h-0.4c0-0.21-0.06-0.37-0.19-0.49c-0.13-0.12-0.31-0.18-0.54-0.18c-0.23,0-0.42,0.09-0.55,0.27
		c-0.14,0.18-0.21,0.4-0.21,0.67v0.53c0,0.27,0.07,0.49,0.21,0.67c0.14,0.18,0.32,0.27,0.55,0.27c0.23,0,0.41-0.06,0.54-0.18
		c0.13-0.12,0.19-0.28,0.19-0.49H146.47z"/>
	<path d="M148.6,150.02h-1.16l-0.27,0.76h-0.42l1.11-2.94h0.36l1.08,2.94h-0.42L148.6,150.02z M147.56,149.69h0.92l-0.45-1.26h-0.01
		L147.56,149.69z"/>
	<path d="M150.16,150.47h1.5v0.31h-1.91v-2.94h0.41V150.47z"/>
	<path d="M153.79,149.42h-1.26v1.05h1.48v0.31h-1.89v-2.94h1.87v0.31h-1.45v0.95h1.26V149.42z"/>
	<path d="M156.82,150.78h-0.41l-1.48-2.25l-0.01,0v2.24h-0.42v-2.94h0.42l1.48,2.24l0.01,0v-2.24h0.41V150.78z"/>
	<path d="M157.54,150.78v-2.94h0.96c0.4,0,0.72,0.12,0.97,0.35c0.24,0.24,0.37,0.54,0.37,0.92v0.4c0,0.38-0.12,0.68-0.37,0.92
		c-0.24,0.23-0.57,0.35-0.97,0.35H157.54z M157.95,148.15v2.32h0.55c0.28,0,0.51-0.09,0.67-0.27c0.16-0.18,0.25-0.41,0.25-0.69
		v-0.41c0-0.28-0.08-0.51-0.25-0.68c-0.16-0.18-0.39-0.27-0.67-0.27H157.95z"/>
	<path d="M162,150.02h-1.15l-0.27,0.76h-0.42l1.11-2.94h0.36l1.08,2.94h-0.42L162,150.02z M160.97,149.69h0.92l-0.45-1.26h-0.01
		L160.97,149.69z"/>
	<path d="M163.56,149.51v1.27h-0.42v-2.94h1.05c0.34,0,0.59,0.07,0.77,0.21c0.18,0.14,0.27,0.35,0.27,0.62
		c0,0.15-0.04,0.28-0.12,0.39c-0.08,0.11-0.2,0.2-0.36,0.27c0.17,0.05,0.29,0.14,0.36,0.26c0.07,0.12,0.11,0.26,0.11,0.44v0.28
		c0,0.09,0.01,0.17,0.03,0.25c0.02,0.07,0.06,0.13,0.11,0.18v0.05h-0.43c-0.05-0.05-0.09-0.11-0.11-0.2s-0.02-0.18-0.02-0.27v-0.27
		c0-0.16-0.05-0.29-0.15-0.38c-0.1-0.1-0.23-0.15-0.39-0.15H163.56z M163.56,149.19h0.59c0.23,0,0.4-0.04,0.51-0.13
		c0.1-0.09,0.16-0.22,0.16-0.39c0-0.17-0.05-0.29-0.15-0.38c-0.1-0.09-0.26-0.14-0.47-0.14h-0.63V149.19z"/>
	<path d="M166.35,150.78h-0.42v-2.94h0.42V150.78z"/>
	<path d="M169.46,149.57c0,0.36-0.12,0.66-0.35,0.89c-0.23,0.24-0.53,0.36-0.9,0.36c-0.36,0-0.65-0.12-0.87-0.36
		c-0.22-0.24-0.34-0.53-0.34-0.89v-0.52c0-0.36,0.11-0.66,0.34-0.89c0.22-0.24,0.52-0.36,0.87-0.36c0.37,0,0.67,0.12,0.9,0.36
		c0.23,0.24,0.35,0.54,0.35,0.9V149.57z M169.04,149.05c0-0.27-0.08-0.49-0.23-0.66c-0.15-0.17-0.36-0.26-0.61-0.26
		c-0.24,0-0.43,0.09-0.58,0.26c-0.14,0.17-0.22,0.39-0.22,0.66v0.53c0,0.27,0.07,0.49,0.22,0.67c0.14,0.17,0.34,0.26,0.58,0.26
		c0.26,0,0.46-0.09,0.61-0.26c0.15-0.17,0.23-0.39,0.23-0.67V149.05z"/>
	<path d="M150.73,155.35c-0.07,0.11-0.2,0.21-0.38,0.3c-0.18,0.09-0.41,0.14-0.7,0.14c-0.35,0-0.65-0.11-0.88-0.34
		c-0.23-0.22-0.35-0.52-0.35-0.87v-0.61c0-0.36,0.11-0.65,0.33-0.87c0.22-0.22,0.51-0.34,0.86-0.34c0.34,0,0.61,0.09,0.81,0.26
		c0.2,0.17,0.29,0.4,0.29,0.67l0,0.01h-0.4c0-0.18-0.06-0.33-0.18-0.45c-0.12-0.12-0.29-0.18-0.51-0.18c-0.23,0-0.42,0.08-0.57,0.25
		c-0.14,0.17-0.21,0.38-0.21,0.64v0.61c0,0.26,0.08,0.48,0.23,0.65c0.15,0.17,0.35,0.25,0.58,0.25c0.18,0,0.32-0.02,0.43-0.07
		c0.11-0.05,0.19-0.1,0.24-0.16v-0.66h-0.7v-0.31h1.11V155.35z"/>
	<path d="M153.66,155.35c-0.07,0.11-0.2,0.21-0.38,0.3c-0.18,0.09-0.41,0.14-0.7,0.14c-0.35,0-0.65-0.11-0.88-0.34
		c-0.23-0.22-0.35-0.52-0.35-0.87v-0.61c0-0.36,0.11-0.65,0.34-0.87c0.22-0.22,0.51-0.34,0.86-0.34c0.34,0,0.61,0.09,0.81,0.26
		c0.2,0.17,0.29,0.4,0.29,0.67l0,0.01h-0.4c0-0.18-0.06-0.33-0.18-0.45c-0.12-0.12-0.29-0.18-0.51-0.18c-0.23,0-0.42,0.08-0.57,0.25
		c-0.14,0.17-0.22,0.38-0.22,0.64v0.61c0,0.26,0.08,0.48,0.23,0.65c0.15,0.17,0.35,0.25,0.58,0.25c0.18,0,0.32-0.02,0.43-0.07
		c0.11-0.05,0.18-0.1,0.24-0.16v-0.66h-0.7v-0.31h1.11V155.35z"/>
	<path d="M155.48,156h-0.35l1.28-3.19h0.35L155.48,156z"/>
	<path d="M159.83,155.19h0.01l0.98-2.39h0.52v2.94h-0.42v-2.2l-0.01,0l-0.93,2.21h-0.29l-0.96-2.28l-0.01,0v2.28h-0.42v-2.94h0.55
		L159.83,155.19z"/>
	<path d="M163.58,155.19h0.01l0.98-2.39h0.52v2.94h-0.42v-2.2l-0.01,0l-0.93,2.21h-0.29l-0.96-2.28l-0.01,0v2.28h-0.42v-2.94h0.55
		L163.58,155.19z"/>
</g>
<path class="st1" d="M372.09,76.68h-1.8v1.49h1.8V76.68L372.09,76.68z M369.69,76.68h-1.8v1.49h1.8V76.68L369.69,76.68z
	 M367.28,76.68h-1.8v1.49h1.8V76.68L367.28,76.68z M364.88,76.68h-1.8v1.49h1.8V76.68L364.88,76.68z M362.48,76.68h-1.8v1.49h1.8
	V76.68L362.48,76.68z M360.07,76.68h-1.8v1.49h1.8V76.68L360.07,76.68z M357.67,76.68h-1.8v1.49h1.8V76.68L357.67,76.68z
	 M355.27,76.68h-1.8v1.49h1.8V76.68L355.27,76.68z M352.86,76.68h-1.8v1.49h1.8V76.68L352.86,76.68z M350.46,76.68h-1.8v1.49h1.8
	V76.68L350.46,76.68z M348.05,76.68h-1.8v1.49h1.8V76.68L348.05,76.68z M345.65,76.68h-1.8v1.49h1.8V76.68L345.65,76.68z
	 M343.25,76.68h-1.8v1.49h1.8V76.68L343.25,76.68z M340.84,76.68h-1.8v1.49h1.8V76.68L340.84,76.68z M338.44,76.68h-1.8v0.39h-0.21
	v1.8h1.49v-0.7h0.52V76.68L338.44,76.68z M337.92,79.48h-1.49v1.8h1.49V79.48L337.92,79.48z M337.92,81.88h-1.49v1.8h1.49V81.88
	L337.92,81.88z M337.92,84.28h-1.49v1.8h1.49V84.28L337.92,84.28z M337.92,86.69h-1.49v1.8h1.49V86.69L337.92,86.69z M337.92,89.09
	h-1.49v1.8h1.49V89.09L337.92,89.09z M337.92,91.49h-1.49v1.8h1.49V91.49L337.92,91.49z M337.92,93.9h-1.49v1.72h1.49l0,0l0,0l0,0
	l0,0c0.48,0,0.99,0,0.99,0v-1.49h-0.99V93.9L337.92,93.9z M341.32,94.13h-1.8v1.49h1.8V94.13L341.32,94.13z M343.72,94.13h-1.8v1.49
	h1.8V94.13L343.72,94.13z M346.12,94.13h-1.8v1.49h1.8V94.13L346.12,94.13z M348.53,94.13h-1.8v1.49h1.8V94.13L348.53,94.13z
	 M350.93,94.13h-1.8v1.49h1.8V94.13L350.93,94.13z M353.33,94.13h-1.8v1.49h1.8V94.13L353.33,94.13z M355.74,94.13h-1.8v1.49h1.8
	V94.13L355.74,94.13z M358.14,94.13h-1.8v1.49h1.8V94.13L358.14,94.13z M360.54,94.13h-1.8v1.49h1.8V94.13L360.54,94.13z
	 M362.95,94.13h-1.8v1.49h1.8V94.13L362.95,94.13z M365.35,94.13h-1.8v1.49h1.8V94.13L365.35,94.13z M367.75,94.13h-1.8v1.49h1.8
	V94.13L367.75,94.13z M370.16,94.13h-1.8v1.49h1.8V94.13L370.16,94.13z M372.56,94.13h-1.8v1.49h1.8V94.13L372.56,94.13z
	 M374.49,92.75H373v1.8h0.16v0.6H373v0.47h0.16l0,0H373h0.16l0,0h1.33V92.75L374.49,92.75z M374.49,90.34H373v1.8h1.49V90.34
	L374.49,90.34z M374.49,87.94H373v1.8h1.49V87.94L374.49,87.94z M374.49,85.54H373v1.8h1.49V85.54L374.49,85.54z M374.49,83.13H373
	v1.8h1.49V83.13L374.49,83.13z M374.49,80.73H373v1.8h1.49V80.73L374.49,80.73z M374.49,78.33H373v1.8h1.49V78.33L374.49,78.33z
	 M374.49,76.68h-1.8v1.49h1.8V76.68L374.49,76.68z"/>
<g>
	<path d="M347.72,86.57l0,0.01c0.01,0.28-0.1,0.51-0.3,0.69c-0.21,0.19-0.48,0.28-0.82,0.28c-0.35,0-0.63-0.12-0.85-0.35
		c-0.22-0.24-0.33-0.53-0.33-0.9v-0.52c0-0.36,0.11-0.66,0.33-0.9c0.22-0.24,0.5-0.35,0.85-0.35c0.35,0,0.62,0.09,0.83,0.27
		c0.2,0.18,0.3,0.41,0.3,0.7l0,0.01h-0.4c0-0.21-0.06-0.37-0.19-0.49c-0.13-0.12-0.3-0.18-0.53-0.18c-0.23,0-0.42,0.09-0.55,0.27
		c-0.14,0.18-0.21,0.4-0.21,0.67v0.53c0,0.27,0.07,0.49,0.21,0.67c0.14,0.18,0.32,0.27,0.55,0.27c0.23,0,0.41-0.06,0.53-0.18
		c0.13-0.12,0.19-0.28,0.19-0.49H347.72z"/>
	<path d="M350.58,87.51h-0.42v-1.3h-1.49v1.3h-0.41v-2.94h0.41v1.33h1.49v-1.33h0.42V87.51z"/>
	<path d="M352.98,86.14h-1.26v1.05h1.48v0.31h-1.89v-2.94h1.87v0.31h-1.45v0.95h1.26V86.14z"/>
	<path d="M355.87,86.57l0,0.01c0.01,0.28-0.1,0.51-0.3,0.69c-0.21,0.19-0.48,0.28-0.82,0.28c-0.35,0-0.63-0.12-0.85-0.35
		c-0.22-0.24-0.33-0.53-0.33-0.9v-0.52c0-0.36,0.11-0.66,0.33-0.9c0.22-0.24,0.5-0.35,0.85-0.35c0.35,0,0.62,0.09,0.83,0.27
		c0.2,0.18,0.3,0.41,0.3,0.7l0,0.01h-0.4c0-0.21-0.06-0.37-0.19-0.49c-0.13-0.12-0.3-0.18-0.53-0.18c-0.23,0-0.42,0.09-0.55,0.27
		c-0.14,0.18-0.21,0.4-0.21,0.67v0.53c0,0.27,0.07,0.49,0.21,0.67c0.14,0.18,0.32,0.27,0.55,0.27c0.23,0,0.41-0.06,0.53-0.18
		c0.13-0.12,0.19-0.28,0.19-0.49H355.87z"/>
	<path d="M357.1,86.18h-0.27v1.33h-0.41v-2.94h0.41v1.3h0.23l1.14-1.3h0.47l0,0.01l-1.24,1.39l1.33,1.53l0,0.01h-0.5L357.1,86.18z"
		/>
	<path d="M361.44,86.3c0,0.36-0.12,0.66-0.35,0.9c-0.23,0.24-0.53,0.36-0.9,0.36c-0.36,0-0.65-0.12-0.87-0.36
		c-0.22-0.24-0.34-0.54-0.34-0.9v-0.52c0-0.36,0.11-0.66,0.34-0.9s0.52-0.36,0.87-0.36c0.37,0,0.67,0.12,0.9,0.36
		c0.23,0.24,0.35,0.54,0.35,0.9V86.3z M361.02,85.77c0-0.27-0.08-0.49-0.23-0.66c-0.15-0.17-0.36-0.26-0.61-0.26
		c-0.24,0-0.43,0.09-0.58,0.26c-0.14,0.17-0.22,0.39-0.22,0.66v0.53c0,0.27,0.07,0.49,0.22,0.67c0.14,0.17,0.34,0.26,0.58,0.26
		c0.26,0,0.46-0.09,0.61-0.26c0.15-0.17,0.23-0.39,0.23-0.67V85.77z"/>
	<path d="M364.3,84.57v1.95c0,0.32-0.11,0.58-0.33,0.76c-0.22,0.18-0.5,0.27-0.85,0.27c-0.33,0-0.61-0.09-0.82-0.27
		c-0.21-0.18-0.32-0.43-0.32-0.76v-1.95h0.42v1.95c0,0.22,0.07,0.4,0.2,0.53c0.13,0.13,0.31,0.19,0.52,0.19
		c0.22,0,0.41-0.06,0.55-0.19c0.14-0.13,0.21-0.3,0.21-0.53v-1.95H364.3z"/>
	<path d="M367.1,84.88h-1.01v2.63h-0.41v-2.63h-1v-0.31h2.43V84.88z"/>
</g>
<path class="st1" d="M312.46,45.55v16h-33.88v-16H312.46 M313.93,44.08h-36.81v18.94h36.81V44.08L313.93,44.08z"/>
<g>
	<path d="M282.62,51.78h-1.16l-0.27,0.76h-0.42l1.11-2.94h0.36l1.08,2.94h-0.42L282.62,51.78z M281.58,51.45h0.92l-0.45-1.26h-0.01
		L281.58,51.45z"/>
	<path d="M283.76,52.54V49.6h1c0.32,0,0.57,0.07,0.75,0.2s0.27,0.33,0.27,0.6c0,0.13-0.04,0.24-0.12,0.34
		c-0.08,0.1-0.19,0.18-0.32,0.23c0.2,0.03,0.36,0.11,0.48,0.25c0.12,0.14,0.18,0.31,0.18,0.5c0,0.27-0.09,0.47-0.27,0.62
		c-0.18,0.14-0.43,0.21-0.74,0.21H283.76z M284.17,50.85h0.67c0.15,0,0.28-0.04,0.38-0.12s0.15-0.2,0.15-0.34
		c0-0.16-0.05-0.28-0.16-0.36c-0.11-0.08-0.26-0.12-0.45-0.12h-0.59V50.85z M284.17,51.16v1.07h0.8c0.19,0,0.34-0.04,0.44-0.13
		c0.1-0.09,0.16-0.22,0.16-0.38c0-0.16-0.05-0.29-0.16-0.39c-0.11-0.1-0.25-0.15-0.43-0.16h-0.03H284.17z"/>
	<path d="M286.5,52.54V49.6h1c0.32,0,0.57,0.07,0.75,0.2c0.18,0.13,0.27,0.33,0.27,0.6c0,0.13-0.04,0.24-0.12,0.34
		c-0.08,0.1-0.19,0.18-0.32,0.23c0.2,0.03,0.36,0.11,0.48,0.25c0.12,0.14,0.18,0.31,0.18,0.5c0,0.27-0.09,0.47-0.27,0.62
		c-0.18,0.14-0.43,0.21-0.74,0.21H286.5z M286.92,50.85h0.67c0.15,0,0.28-0.04,0.38-0.12s0.15-0.2,0.15-0.34
		c0-0.16-0.05-0.28-0.16-0.36c-0.11-0.08-0.26-0.12-0.45-0.12h-0.59V50.85z M286.92,51.16v1.07h0.8c0.19,0,0.34-0.04,0.44-0.13
		c0.1-0.09,0.16-0.22,0.16-0.38c0-0.16-0.05-0.29-0.16-0.39c-0.11-0.1-0.25-0.15-0.43-0.16h-0.03H286.92z"/>
	<path d="M291.59,51.33c0,0.36-0.12,0.66-0.35,0.9c-0.23,0.24-0.53,0.36-0.9,0.36c-0.36,0-0.65-0.12-0.87-0.36
		c-0.22-0.24-0.34-0.54-0.34-0.9v-0.52c0-0.36,0.11-0.66,0.34-0.9c0.22-0.24,0.52-0.36,0.87-0.36c0.37,0,0.67,0.12,0.9,0.36
		c0.23,0.24,0.35,0.54,0.35,0.9V51.33z M291.18,50.81c0-0.27-0.08-0.49-0.23-0.66c-0.15-0.17-0.36-0.26-0.61-0.26
		c-0.24,0-0.43,0.09-0.58,0.26c-0.14,0.17-0.22,0.39-0.22,0.66v0.53c0,0.27,0.07,0.49,0.22,0.67c0.14,0.17,0.34,0.26,0.58,0.26
		c0.26,0,0.46-0.09,0.61-0.26c0.15-0.17,0.23-0.39,0.23-0.67V50.81z"/>
	<path d="M294.51,52.54h-0.41l-1.48-2.25l-0.01,0v2.24h-0.42V49.6h0.42l1.48,2.24l0.01,0V49.6h0.41V52.54z"/>
	<path d="M296.85,51.78h-1.16l-0.27,0.76H295l1.11-2.94h0.36l1.08,2.94h-0.42L296.85,51.78z M295.82,51.45h0.92l-0.45-1.26h-0.01
		L295.82,51.45z"/>
	<path d="M299.52,51.99h0.01l0.98-2.39h0.52v2.94h-0.41v-2.2l-0.01,0l-0.93,2.21h-0.29l-0.96-2.28l-0.01,0v2.28H298V49.6h0.55
		L299.52,51.99z"/>
	<path d="M303.42,51.18h-1.26v1.05h1.48v0.31h-1.89V49.6h1.87v0.31h-1.45v0.95h1.26V51.18z"/>
	<path d="M306.45,52.54h-0.42l-1.48-2.25l-0.01,0v2.24h-0.41V49.6h0.41l1.48,2.24l0.01,0V49.6h0.42V52.54z"/>
	<path d="M309.25,49.91h-1.01v2.63h-0.41v-2.63h-1V49.6h2.43V49.91z"/>
	<path d="M310.15,52.54h-0.42V49.6h0.42V52.54z"/>
	<path d="M285.69,57.76h-0.35l1.28-3.19h0.35L285.69,57.76z"/>
	<path d="M290.67,54.88h-1.01v2.63h-0.41v-2.63h-1v-0.31h2.43V54.88z"/>
	<path d="M292.78,56.14h-1.26v1.05H293v0.31h-1.89v-2.94h1.87v0.31h-1.45v0.95h1.26V56.14z"/>
	<path d="M295.12,56.76c0-0.13-0.05-0.24-0.15-0.34c-0.1-0.09-0.28-0.17-0.53-0.23c-0.31-0.07-0.56-0.18-0.73-0.33
		c-0.17-0.14-0.26-0.32-0.26-0.54c0-0.23,0.09-0.42,0.28-0.58c0.19-0.15,0.43-0.23,0.73-0.23c0.32,0,0.58,0.09,0.77,0.26
		c0.19,0.18,0.28,0.38,0.28,0.62l-0.01,0.01h-0.4c0-0.17-0.06-0.31-0.18-0.41c-0.12-0.11-0.28-0.16-0.47-0.16
		c-0.19,0-0.34,0.05-0.45,0.14c-0.1,0.09-0.16,0.21-0.16,0.35c0,0.13,0.06,0.23,0.17,0.32s0.3,0.16,0.55,0.23
		c0.31,0.08,0.54,0.19,0.71,0.34s0.24,0.33,0.24,0.55c0,0.24-0.1,0.43-0.29,0.57c-0.19,0.14-0.45,0.22-0.76,0.22
		c-0.3,0-0.56-0.08-0.79-0.24c-0.23-0.16-0.34-0.37-0.33-0.64l0-0.01h0.4c0,0.18,0.07,0.33,0.22,0.43c0.15,0.1,0.31,0.15,0.5,0.15
		c0.2,0,0.35-0.04,0.47-0.13C295.07,57.02,295.12,56.91,295.12,56.76z"/>
	<path d="M297.76,56.76c0-0.13-0.05-0.24-0.15-0.34c-0.1-0.09-0.28-0.17-0.53-0.23c-0.31-0.07-0.56-0.18-0.73-0.33
		c-0.17-0.14-0.26-0.32-0.26-0.54c0-0.23,0.09-0.42,0.28-0.58c0.19-0.15,0.43-0.23,0.73-0.23c0.32,0,0.58,0.09,0.77,0.26
		c0.19,0.18,0.29,0.38,0.28,0.62l-0.01,0.01h-0.4c0-0.17-0.06-0.31-0.18-0.41c-0.12-0.11-0.28-0.16-0.47-0.16
		c-0.19,0-0.34,0.05-0.45,0.14c-0.1,0.09-0.15,0.21-0.15,0.35c0,0.13,0.06,0.23,0.17,0.32s0.3,0.16,0.55,0.23
		c0.31,0.08,0.54,0.19,0.71,0.34c0.16,0.15,0.24,0.33,0.24,0.55c0,0.24-0.1,0.43-0.29,0.57c-0.19,0.14-0.45,0.22-0.76,0.22
		c-0.3,0-0.56-0.08-0.78-0.24c-0.23-0.16-0.34-0.37-0.33-0.64l0-0.01h0.4c0,0.18,0.07,0.33,0.22,0.43c0.15,0.1,0.31,0.15,0.5,0.15
		c0.2,0,0.35-0.04,0.47-0.13C297.71,57.02,297.76,56.91,297.76,56.76z"/>
	<path d="M300.44,56.14h-1.26v1.05h1.48v0.31h-1.89v-2.94h1.87v0.31h-1.45v0.95h1.26V56.14z"/>
	<path d="M301.56,56.23v1.27h-0.42v-2.94h1.05c0.34,0,0.59,0.07,0.77,0.21c0.18,0.14,0.27,0.35,0.27,0.62
		c0,0.15-0.04,0.28-0.12,0.39c-0.08,0.11-0.2,0.2-0.36,0.27c0.17,0.05,0.29,0.14,0.36,0.26c0.07,0.12,0.11,0.26,0.11,0.44v0.28
		c0,0.09,0.01,0.17,0.03,0.25c0.02,0.07,0.06,0.13,0.11,0.18v0.05h-0.43c-0.05-0.05-0.09-0.11-0.11-0.2
		c-0.02-0.09-0.02-0.18-0.02-0.27v-0.27c0-0.16-0.05-0.29-0.15-0.38c-0.1-0.1-0.23-0.15-0.39-0.15H301.56z M301.56,55.92h0.59
		c0.23,0,0.4-0.04,0.51-0.13c0.1-0.09,0.16-0.22,0.16-0.39c0-0.17-0.05-0.29-0.15-0.38c-0.1-0.09-0.26-0.14-0.47-0.14h-0.63V55.92z"
		/>
	<path d="M305.57,56.14h-1.26v1.05h1.48v0.31h-1.89v-2.94h1.87v0.31h-1.45v0.95h1.26V56.14z"/>
</g>
<g>
	<g>
		<path class="st2" d="M11.36,46.5v-3.36h1.17c0.41,0,0.75,0.13,1.02,0.39c0.27,0.26,0.4,0.6,0.4,1.01v0.56
			c0,0.41-0.13,0.75-0.4,1.01c-0.27,0.26-0.6,0.39-1.02,0.39H11.36z M12.03,43.66v2.32h0.5c0.22,0,0.4-0.08,0.54-0.25
			c0.14-0.17,0.2-0.38,0.2-0.64v-0.56c0-0.26-0.07-0.47-0.2-0.63c-0.14-0.16-0.31-0.25-0.54-0.25H12.03z"/>
		<path class="st2" d="M16.41,45.02h-1.25v0.96h1.48v0.52h-2.16v-3.36h2.15v0.52h-1.48v0.84h1.25V45.02z"/>
		<path class="st2" d="M18.87,45.62c0-0.13-0.05-0.23-0.14-0.31c-0.09-0.08-0.25-0.15-0.47-0.22c-0.39-0.12-0.68-0.25-0.88-0.41
			c-0.2-0.16-0.3-0.37-0.3-0.65c0-0.28,0.11-0.5,0.34-0.68s0.51-0.26,0.87-0.26c0.37,0,0.67,0.09,0.9,0.28
			c0.23,0.19,0.34,0.43,0.33,0.74l0,0.01h-0.65c0-0.17-0.05-0.3-0.15-0.39c-0.1-0.09-0.24-0.14-0.43-0.14
			c-0.17,0-0.29,0.04-0.39,0.12c-0.09,0.08-0.14,0.18-0.14,0.31c0,0.11,0.05,0.21,0.15,0.28c0.1,0.07,0.27,0.15,0.51,0.23
			c0.37,0.1,0.65,0.24,0.84,0.41c0.19,0.17,0.29,0.39,0.29,0.67c0,0.29-0.11,0.51-0.34,0.68c-0.22,0.17-0.52,0.25-0.89,0.25
			c-0.36,0-0.67-0.09-0.93-0.27C17.12,46.1,17,45.83,17,45.47l0-0.01h0.65c0,0.2,0.06,0.34,0.18,0.44c0.12,0.09,0.28,0.14,0.48,0.14
			c0.18,0,0.32-0.04,0.41-0.11C18.82,45.85,18.87,45.75,18.87,45.62z"/>
		<path class="st2" d="M20.96,45.1h-0.25v1.4h-0.67v-3.36h0.67v1.37h0.19l0.92-1.37h0.83l-1.16,1.56l1.25,1.8h-0.86L20.96,45.1z"/>
		<path class="st2" d="M25.39,43.66h-0.96v2.84h-0.67v-2.84h-0.95v-0.52h2.58V43.66z"/>
		<path class="st2" d="M28.42,45.12c0,0.41-0.13,0.76-0.39,1.02c-0.26,0.27-0.6,0.4-1.02,0.4c-0.42,0-0.75-0.13-1.01-0.4
			s-0.39-0.61-0.39-1.02v-0.6c0-0.41,0.13-0.75,0.39-1.02c0.26-0.27,0.59-0.41,1.01-0.41c0.42,0,0.76,0.14,1.02,0.41
			c0.26,0.27,0.39,0.61,0.39,1.02V45.12z M27.74,44.51c0-0.26-0.07-0.48-0.2-0.64c-0.13-0.17-0.31-0.25-0.54-0.25
			c-0.23,0-0.41,0.08-0.53,0.25c-0.13,0.17-0.19,0.38-0.19,0.64v0.61c0,0.27,0.06,0.48,0.19,0.65c0.13,0.17,0.31,0.25,0.54,0.25
			c0.23,0,0.41-0.08,0.54-0.25c0.13-0.17,0.19-0.38,0.19-0.65V44.51z"/>
		<path class="st2" d="M29.62,45.28v1.22h-0.67v-3.36h1.29c0.39,0,0.69,0.1,0.91,0.3c0.22,0.2,0.33,0.46,0.33,0.78
			s-0.11,0.58-0.33,0.78c-0.22,0.2-0.53,0.29-0.91,0.29H29.62z M29.62,44.76h0.61c0.19,0,0.33-0.05,0.43-0.15
			c0.1-0.1,0.15-0.23,0.15-0.39c0-0.16-0.05-0.29-0.14-0.4c-0.1-0.11-0.24-0.16-0.43-0.16h-0.61V44.76z"/>
		<path class="st2" d="M35.06,45.02h-1.25v0.96h1.48v0.52h-2.16v-3.36h2.15v0.52h-1.48v0.84h1.25V45.02z"/>
		<path class="st2" d="M38.68,45.62h0.01l0.86-2.48h0.88v3.36h-0.67v-2.29l-0.01,0l-0.83,2.3h-0.46l-0.83-2.3l-0.01,0v2.3h-0.67
			v-3.36h0.88L38.68,45.62z"/>
		<path class="st2" d="M43.78,45.12c0,0.41-0.13,0.76-0.39,1.02c-0.26,0.27-0.6,0.4-1.02,0.4c-0.42,0-0.75-0.13-1.01-0.4
			c-0.26-0.27-0.39-0.61-0.39-1.02v-0.6c0-0.41,0.13-0.75,0.39-1.02c0.26-0.27,0.59-0.41,1.01-0.41c0.42,0,0.76,0.14,1.02,0.41
			c0.26,0.27,0.39,0.61,0.39,1.02V45.12z M43.11,44.51c0-0.26-0.07-0.48-0.2-0.64c-0.13-0.17-0.31-0.25-0.54-0.25
			c-0.23,0-0.41,0.08-0.53,0.25c-0.13,0.17-0.19,0.38-0.19,0.64v0.61c0,0.27,0.06,0.48,0.19,0.65c0.13,0.17,0.31,0.25,0.54,0.25
			c0.23,0,0.41-0.08,0.54-0.25c0.13-0.17,0.19-0.38,0.19-0.65V44.51z"/>
		<path class="st2" d="M44.31,46.5v-3.36h1.1c0.4,0,0.7,0.08,0.93,0.23c0.22,0.15,0.33,0.38,0.33,0.69c0,0.15-0.04,0.29-0.12,0.41
			c-0.08,0.12-0.2,0.21-0.35,0.27c0.21,0.04,0.37,0.13,0.47,0.27s0.16,0.31,0.16,0.5c0,0.32-0.11,0.56-0.32,0.73
			c-0.21,0.17-0.51,0.25-0.9,0.25H44.31z M44.99,44.55h0.45c0.18,0,0.32-0.04,0.42-0.11c0.1-0.07,0.15-0.18,0.15-0.32
			c0-0.16-0.05-0.27-0.15-0.34c-0.1-0.07-0.24-0.11-0.44-0.11h-0.43V44.55z M44.99,45.01v0.97h0.63c0.18,0,0.32-0.04,0.41-0.12
			c0.09-0.08,0.14-0.19,0.14-0.35c0-0.16-0.05-0.29-0.14-0.38c-0.09-0.09-0.23-0.13-0.42-0.13H44.99z"/>
		<path class="st2" d="M48.04,46.5h-0.67v-3.36h0.67V46.5z"/>
		<path class="st2" d="M49.38,45.98h1.51v0.52h-2.18v-3.36h0.67V45.98z"/>
		<path class="st2" d="M53.26,45.02h-1.25v0.96h1.48v0.52h-2.16v-3.36h2.15v0.52h-1.48v0.84h1.25V45.02z"/>
	</g>
</g>
<g>
	<g>
		<path class="st2" d="M46.96,151.53h-1.09l-0.23,0.72h-0.7l1.13-3.36h0.69l1.13,3.36h-0.7L46.96,151.53z M46.03,151h0.76
			l-0.37-1.18h-0.01L46.03,151z"/>
		<path class="st2" d="M48.89,151.04v1.22h-0.67v-3.36h1.29c0.39,0,0.69,0.1,0.91,0.3c0.22,0.2,0.33,0.46,0.33,0.78
			c0,0.32-0.11,0.58-0.33,0.78c-0.22,0.2-0.53,0.29-0.91,0.29H48.89z M48.89,150.52h0.61c0.19,0,0.33-0.05,0.43-0.15
			c0.1-0.1,0.15-0.23,0.15-0.39c0-0.16-0.05-0.29-0.14-0.4c-0.1-0.11-0.24-0.16-0.43-0.16h-0.61V150.52z"/>
		<path class="st2" d="M51.9,151.04v1.22h-0.67v-3.36h1.29c0.39,0,0.69,0.1,0.91,0.3c0.22,0.2,0.33,0.46,0.33,0.78
			c0,0.32-0.11,0.58-0.33,0.78c-0.22,0.2-0.53,0.29-0.91,0.29H51.9z M51.9,150.52h0.61c0.19,0,0.33-0.05,0.43-0.15
			c0.1-0.1,0.15-0.23,0.15-0.39c0-0.16-0.05-0.29-0.14-0.4c-0.1-0.11-0.24-0.16-0.43-0.16H51.9V150.52z"/>
	</g>
</g>
<g>
	<polygon class="st1" points="121.33,45.62 100.42,45.62 100.42,45.03 120.74,45.03 120.74,16.25 136.36,16.25 136.36,16.84 
		121.33,16.84 	"/>
	<g>
		<path class="st1" d="M139.92,16.54c-1.68,0.62-3.76,1.69-5.05,2.81l1.02-2.81l-1.02-2.81C136.16,14.86,138.25,15.92,139.92,16.54z
			"/>
	</g>
</g>
<g>
	<polygon class="st1" points="136.35,69.11 120.74,69.11 120.74,38.42 121.33,38.42 121.33,68.52 136.35,68.52 	"/>
	<g>
		<path class="st1" d="M139.92,68.82c-1.68,0.62-3.76,1.69-5.06,2.81l1.02-2.81L134.87,66C136.16,67.13,138.24,68.19,139.92,68.82z"
			/>
	</g>
</g>
<g>
	<polygon class="st1" points="187.75,69.77 173.82,69.77 173.82,69.18 187.16,69.18 187.16,52.74 201.22,52.74 201.22,53.33 
		187.75,53.33 	"/>
	<g>
		<path class="st1" d="M204.78,53.04c-1.68,0.62-3.76,1.69-5.05,2.81l1.02-2.81l-1.02-2.81C201.02,51.35,203.11,52.42,204.78,53.04z
			"/>
	</g>
</g>
<g>
	<polygon class="st1" points="201.22,86.86 187.16,86.86 187.16,63.86 187.75,63.86 187.75,86.27 201.22,86.27 	"/>
	<g>
		<path class="st1" d="M204.78,86.57c-1.68,0.62-3.76,1.69-5.05,2.81l1.02-2.81l-1.02-2.81C201.02,84.88,203.11,85.94,204.78,86.57z
			"/>
	</g>
</g>
<g>
	<g>
		<circle class="st3" cx="355.23" cy="151.56" r="11.31"/>
	</g>
	<g>
		<path class="st4" d="M353.36,151.75h-1.13v1.22h-0.59v-2.94h1.93v0.45h-1.34v0.81h1.13V151.75z"/>
		<path class="st4" d="M354.57,152.98h-0.59v-2.94h0.59V152.98z"/>
		<path class="st4" d="M357.53,152.98h-0.59l-1.19-1.98l-0.01,0v1.98h-0.59v-2.94h0.59l1.19,1.98l0.01,0v-1.98h0.59V152.98z"/>
		<path class="st4" d="M359.75,151.68h-1.09v0.84h1.3v0.45h-1.89v-2.94h1.88v0.45h-1.29v0.74h1.09V151.68z"/>
	</g>
</g>
<g>
	<rect x="51.73" y="89.69" class="st1" width="19.11" height="12.27"/>
</g>
<path class="st1" d="M97.54,91.16v9.33H81.37v-9.33H97.54 M99.01,89.69H79.9v12.27h19.11V89.69L99.01,89.69z"/>
<g>
	<path class="st3" d="M50.8,84.39v1.35h-0.45v-3.36h1.29c0.36,0,0.64,0.09,0.84,0.28c0.2,0.18,0.3,0.43,0.3,0.73
		c0,0.3-0.1,0.55-0.3,0.73c-0.2,0.18-0.48,0.27-0.84,0.27H50.8z M50.8,84.03h0.83c0.23,0,0.4-0.06,0.51-0.18
		c0.11-0.12,0.17-0.28,0.17-0.46s-0.06-0.34-0.17-0.47c-0.11-0.12-0.28-0.19-0.51-0.19H50.8V84.03z"/>
	<path class="st3" d="M55.83,82.38v2.23c0,0.37-0.12,0.66-0.36,0.87c-0.24,0.21-0.55,0.31-0.93,0.31c-0.36,0-0.66-0.1-0.9-0.31
		c-0.23-0.21-0.35-0.5-0.35-0.86v-2.23h0.45v2.23c0,0.26,0.07,0.46,0.22,0.6c0.15,0.15,0.34,0.22,0.57,0.22
		c0.25,0,0.45-0.07,0.6-0.22c0.15-0.15,0.23-0.35,0.23-0.6v-2.23H55.83z"/>
	<path class="st3" d="M57,85.38h1.64v0.36h-2.09v-3.36H57V85.38z"/>
	<path class="st3" d="M60.94,84.89c0-0.15-0.05-0.28-0.16-0.38c-0.11-0.1-0.3-0.19-0.58-0.26c-0.34-0.08-0.61-0.21-0.8-0.37
		c-0.19-0.16-0.29-0.37-0.29-0.62c0-0.26,0.1-0.48,0.31-0.66c0.21-0.18,0.47-0.26,0.8-0.26c0.35,0,0.64,0.1,0.85,0.3
		c0.21,0.2,0.31,0.44,0.31,0.7l-0.01,0.01h-0.43c0-0.19-0.07-0.35-0.2-0.47c-0.13-0.12-0.3-0.19-0.51-0.19
		c-0.21,0-0.38,0.05-0.49,0.15c-0.11,0.1-0.17,0.24-0.17,0.4c0,0.15,0.06,0.27,0.19,0.37c0.12,0.1,0.32,0.18,0.6,0.26
		c0.34,0.09,0.6,0.22,0.77,0.39c0.18,0.17,0.27,0.38,0.27,0.63c0,0.27-0.11,0.49-0.32,0.65c-0.21,0.16-0.49,0.25-0.83,0.25
		c-0.32,0-0.61-0.09-0.86-0.27c-0.25-0.18-0.37-0.42-0.36-0.73l0-0.01h0.43c0,0.21,0.08,0.37,0.24,0.49
		c0.16,0.11,0.34,0.17,0.54,0.17c0.22,0,0.39-0.05,0.51-0.15C60.87,85.19,60.94,85.06,60.94,84.89z"/>
	<path class="st3" d="M63.77,84.87h-1.26l-0.3,0.87h-0.46l1.21-3.36h0.39l1.19,3.36h-0.46L63.77,84.87z M62.64,84.49h1l-0.49-1.44
		h-0.01L62.64,84.49z"/>
	<path class="st3" d="M67.57,85.74h-0.45l-1.62-2.57l-0.01,0v2.56h-0.45v-3.36h0.45l1.62,2.56l0.01,0v-2.56h0.45V85.74z"/>
	<path class="st3" d="M70.64,82.73h-1.11v3h-0.45v-3h-1.09v-0.36h2.66V82.73z"/>
	<path class="st3" d="M72.95,84.18h-1.38v1.2h1.62v0.36h-2.07v-3.36h2.05v0.36h-1.59v1.09h1.38V84.18z"/>
</g>
<g>
	<path class="st3" d="M82.21,84.39v1.35h-0.45v-3.36h1.29c0.36,0,0.64,0.09,0.84,0.28c0.2,0.18,0.3,0.43,0.3,0.73
		c0,0.3-0.1,0.55-0.3,0.73c-0.2,0.18-0.48,0.27-0.84,0.27H82.21z M82.21,84.03h0.83c0.23,0,0.4-0.06,0.51-0.18
		c0.11-0.12,0.17-0.28,0.17-0.46s-0.06-0.34-0.17-0.47c-0.11-0.12-0.28-0.19-0.51-0.19h-0.83V84.03z"/>
	<path class="st3" d="M86.18,84.87h-1.26l-0.3,0.87h-0.46l1.21-3.36h0.39l1.19,3.36h-0.46L86.18,84.87z M85.04,84.49h1l-0.49-1.44
		h-0.01L85.04,84.49z"/>
	<path class="st3" d="M89.82,85.29c-0.08,0.12-0.22,0.24-0.42,0.34c-0.2,0.1-0.45,0.16-0.77,0.16c-0.39,0-0.71-0.13-0.96-0.39
		c-0.25-0.26-0.38-0.59-0.38-1v-0.69c0-0.41,0.12-0.74,0.37-1c0.24-0.26,0.56-0.39,0.95-0.39c0.37,0,0.67,0.1,0.89,0.3
		c0.22,0.2,0.32,0.45,0.32,0.76l0,0.01h-0.44c0-0.2-0.07-0.38-0.2-0.51c-0.13-0.14-0.32-0.2-0.56-0.2c-0.26,0-0.46,0.1-0.62,0.29
		c-0.16,0.19-0.24,0.44-0.24,0.73v0.7c0,0.3,0.08,0.54,0.25,0.74s0.38,0.29,0.64,0.29c0.2,0,0.36-0.03,0.47-0.08
		c0.12-0.05,0.2-0.11,0.26-0.18v-0.76h-0.76v-0.36h1.22V85.29z"/>
	<path class="st3" d="M91.11,85.74h-0.46v-3.36h0.46V85.74z"/>
	<path class="st3" d="M94.48,85.74h-0.45l-1.62-2.57l-0.01,0v2.56h-0.45v-3.36h0.45l1.62,2.56l0.01,0v-2.56h0.45V85.74z"/>
	<path class="st3" d="M97.05,84.87h-1.26l-0.3,0.87h-0.46l1.21-3.36h0.39l1.19,3.36h-0.46L97.05,84.87z M95.92,84.49h1l-0.49-1.44
		h-0.01L95.92,84.49z"/>
</g>
<path class="st1" d="M80.81,45.81l-0.03-0.59h0.03V45.81z M80.2,45.81h-1.77v-0.59h1.77V45.81z M77.83,45.81h-1.77v-0.59h1.77V45.81
	z M75.47,45.81H73.7v-0.59h1.77V45.81z M73.11,45.81h-1.77v-0.59h1.77V45.81z M70.74,45.81h-1.77v-0.59h1.77V45.81z M68.38,45.81
	h-1.77v-0.59h1.77V45.81z M66.02,45.81h-1.77v-0.59h1.77V45.81z M63.65,45.81h-1.77v-0.59h1.77V45.81z M61.29,45.81h-1.77v-0.59
	h1.77V45.81z M58.92,45.81h-1.77v-0.59h1.77V45.81z"/>
<path class="st1" d="M80.81,151.26l-0.03-0.59h0.03V151.26z M80.2,151.26h-1.77v-0.59h1.77V151.26z M77.83,151.26h-1.77v-0.59h1.77
	V151.26z M75.47,151.26H73.7v-0.59h1.77V151.26z M73.11,151.26h-1.77v-0.59h1.77V151.26z M70.74,151.26h-1.77v-0.59h1.77V151.26z
	 M68.38,151.26h-1.77v-0.59h1.77V151.26z M66.02,151.26h-1.77v-0.59h1.77V151.26z M63.65,151.26h-1.77v-0.59h1.77V151.26z
	 M61.29,151.26h-1.77v-0.59h1.77V151.26z M58.92,151.26h-1.77v-0.59h1.77V151.26z"/>
<g>
	<polygon class="st1" points="355.33,38.7 354.74,38.7 354.74,17.29 173.02,17.29 173.02,16.7 355.33,16.7 	"/>
	<g>
		<path class="st1" d="M355.04,42.27c-0.62-1.68-1.69-3.76-2.81-5.05l2.81,1.02l2.81-1.02C356.72,38.51,355.66,40.59,355.04,42.27z"
			/>
	</g>
</g>
<g>
	<rect x="242.57" y="52.62" class="st1" width="30.45" height="0.59"/>
	<g>
		<path class="st1" d="M276.59,52.92c-1.68-0.62-3.76-1.69-5.05-2.81l1.02,2.81l-1.02,2.81C272.83,54.6,274.91,53.54,276.59,52.92z"
			/>
	</g>
</g>
<g>
	<rect x="242.57" y="85.85" class="st1" width="30.45" height="0.59"/>
	<g>
		<path class="st1" d="M276.59,86.15c-1.68-0.62-3.76-1.69-5.05-2.81l1.02,2.81l-1.02,2.81C272.83,87.83,274.91,86.77,276.59,86.15z
			"/>
	</g>
</g>
<g>
	<rect x="171.91" y="151.35" class="st1" width="30.45" height="0.59"/>
	<g>
		<path class="st1" d="M205.93,151.64c-1.68-0.62-3.76-1.69-5.05-2.81l1.02,2.81l-1.02,2.81
			C202.17,153.33,204.26,152.26,205.93,151.64z"/>
	</g>
</g>
<g>
	<rect x="242.78" y="151.35" class="st1" width="97.52" height="0.59"/>
	<g>
		<path class="st1" d="M343.86,151.64c-1.68-0.62-3.76-1.69-5.05-2.81l1.02,2.81l-1.02,2.81
			C340.1,153.33,342.18,152.26,343.86,151.64z"/>
	</g>
</g>
<g>
	<rect x="102.21" y="151.35" class="st1" width="34.59" height="0.59"/>
	<g>
		<path class="st1" d="M140.37,151.64c-1.68-0.62-3.76-1.69-5.05-2.81l1.02,2.81l-1.02,2.81
			C136.61,153.33,138.69,152.26,140.37,151.64z"/>
	</g>
</g>
<g>
	<rect x="313.42" y="52.62" class="st1" width="18.63" height="0.59"/>
	<g>
		<path class="st1" d="M335.62,52.92c-1.68-0.62-3.76-1.69-5.05-2.81l1.02,2.81l-1.02,2.81C331.86,54.6,333.94,53.54,335.62,52.92z"
			/>
	</g>
</g>
<g>
	<rect x="354.74" y="61.84" class="st1" width="0.59" height="11.69"/>
	<g>
		<path class="st1" d="M355.04,77.09c-0.62-1.68-1.69-3.76-2.81-5.05l2.81,1.02l2.81-1.02C356.72,73.33,355.66,75.41,355.04,77.09z"
			/>
	</g>
</g>
<g>
	<rect x="354.74" y="95.19" class="st1" width="0.59" height="12.28"/>
	<g>
		<path class="st1" d="M355.04,111.03c-0.62-1.68-1.69-3.76-2.81-5.05l2.81,1.02l2.81-1.02
			C356.72,107.27,355.66,109.35,355.04,111.03z"/>
	</g>
</g>
<g>
	<rect x="354.74" y="124.44" class="st1" width="0.59" height="12.28"/>
	<g>
		<path class="st1" d="M355.04,140.29c-0.62-1.68-1.69-3.76-2.81-5.05l2.81,1.02l2.81-1.02
			C356.72,136.53,355.66,138.61,355.04,140.29z"/>
	</g>
</g>
<g>
	<circle class="st3" cx="90.93" cy="45.4" r="11.31"/>
	<g>
		<path class="st4" d="M87.98,46.68h-0.59v-1.22h-1.2v1.22h-0.59v-2.94h0.59V45h1.2v-1.26h0.59V46.68z"/>
		<path class="st4" d="M90.91,45.47c0,0.36-0.11,0.66-0.34,0.9c-0.23,0.23-0.52,0.35-0.89,0.35c-0.36,0-0.66-0.12-0.88-0.35
			c-0.23-0.24-0.34-0.53-0.34-0.9v-0.53c0-0.36,0.11-0.66,0.34-0.89c0.23-0.24,0.52-0.35,0.88-0.35c0.37,0,0.66,0.12,0.89,0.35
			c0.23,0.24,0.34,0.53,0.34,0.89V45.47z M90.32,44.94c0-0.23-0.06-0.42-0.17-0.56c-0.11-0.15-0.27-0.22-0.47-0.22
			c-0.2,0-0.35,0.07-0.47,0.22c-0.11,0.15-0.17,0.33-0.17,0.56v0.53c0,0.23,0.06,0.42,0.17,0.57c0.11,0.15,0.27,0.22,0.47,0.22
			c0.2,0,0.36-0.07,0.47-0.22c0.11-0.15,0.17-0.34,0.17-0.57V44.94z"/>
		<path class="st4" d="M92.89,45.9h0.01l0.76-2.17h0.77v2.94h-0.59v-2.01l-0.01,0l-0.73,2.01h-0.4l-0.73-2.01l-0.01,0v2.01h-0.59
			v-2.94h0.77L92.89,45.9z"/>
		<path class="st4" d="M96.65,45.39h-1.09v0.84h1.3v0.45h-1.89v-2.94h1.88v0.45h-1.29v0.74h1.09V45.39z"/>
	</g>
</g>
<g>
	<circle class="st3" cx="90.93" cy="150.84" r="11.31"/>
	<g>
		<path class="st4" d="M87.98,152.12h-0.59v-1.22h-1.2v1.22h-0.59v-2.94h0.59v1.26h1.2v-1.26h0.59V152.12z"/>
		<path class="st4" d="M90.91,150.92c0,0.36-0.11,0.66-0.34,0.9c-0.23,0.23-0.52,0.35-0.89,0.35c-0.36,0-0.66-0.12-0.88-0.35
			c-0.23-0.24-0.34-0.53-0.34-0.89v-0.53c0-0.36,0.11-0.66,0.34-0.89c0.23-0.24,0.52-0.35,0.88-0.35c0.37,0,0.66,0.12,0.89,0.35
			c0.23,0.24,0.34,0.53,0.34,0.89V150.92z M90.32,150.39c0-0.23-0.06-0.42-0.17-0.56c-0.11-0.15-0.27-0.22-0.47-0.22
			c-0.2,0-0.35,0.07-0.47,0.22c-0.11,0.15-0.17,0.33-0.17,0.56v0.53c0,0.23,0.06,0.42,0.17,0.57c0.11,0.15,0.27,0.22,0.47,0.22
			c0.2,0,0.36-0.07,0.47-0.22c0.11-0.15,0.17-0.34,0.17-0.57V150.39z"/>
		<path class="st4" d="M92.89,151.35h0.01l0.76-2.17h0.77v2.94h-0.59v-2.01l-0.01,0l-0.73,2.01h-0.4l-0.73-2.01l-0.01,0v2.01h-0.59
			v-2.94h0.77L92.89,151.35z"/>
		<path class="st4" d="M96.65,150.83h-1.09v0.84h1.3v0.45h-1.89v-2.94h1.88v0.45h-1.29v0.74h1.09V150.83z"/>
	</g>
</g>
<polygon class="st1" points="326.6,86.65 313.93,86.65 313.93,86.06 326.01,86.06 326.01,58 374.49,58 374.49,58.6 326.6,58.6 "/>
<g>
	<polygon class="st1" points="386.26,152.08 370.71,152.08 370.71,151.49 385.67,151.49 385.67,58.28 374.49,58.28 374.49,57.69 
		386.26,57.69 	"/>
	<g>
		<path class="st1" d="M367.14,151.79c1.68-0.62,3.76-1.69,5.05-2.81l-1.02,2.81l1.02,2.81
			C370.9,153.47,368.82,152.41,367.14,151.79z"/>
	</g>
</g>
</svg>
