<?xml version="1.0" encoding="utf-8"?>
<!-- Generator: Adobe Illustrator 24.2.0, SVG Export Plug-In . SVG Version: 6.00 Build 0)  -->
<svg version="1.1" id="Livello_1" xmlns="http://www.w3.org/2000/svg" xmlns:xlink="http://www.w3.org/1999/xlink" x="0px" y="0px"
	 viewBox="0 0 2100 1377.4" style="enable-background:new 0 0 2100 1377.4;" xml:space="preserve">
<style type="text/css">
	.st0{opacity:0.47;fill:#6275B2;enable-background:new    ;}
	.st1{fill:#444482;}
	.st2{fill:none;stroke:#444482;stroke-width:1.6556;stroke-linecap:round;stroke-linejoin:round;stroke-miterlimit:10;}
	.st3{fill:#35AD6B;}
</style>
<image style="overflow:visible;enable-background:new    ;" width="2100" height="1500" xlink:href="30BA844D.png"  transform="matrix(1.0752 0 0 1.0752 -47 -150.5745)">
</image>
<g>
	<path class="st0" d="M1855.9,184.7c0,0,4.8-40.5,65-21.4C1920.9,163.2,1890.4,214,1855.9,184.7z"/>
	<path class="st0" d="M1852.6,184.9c0,0-4.9-40.8-67.3-21.6C1785.2,163.3,1816.8,214.4,1852.6,184.9z"/>
	<path class="st0" d="M1853.2,184.7c0,0,40-35.3-45.3-81.8C1807.9,102.9,1796.6,189.4,1853.2,184.7z"/>
	<path class="st0" d="M1853.2,184.7c0,0-40-35.3,45.3-81.8C1898.5,102.9,1909.8,189.4,1853.2,184.7z"/>
	<path class="st1" d="M1831.9,163.7c-0.4,0-0.7-0.2-0.8-0.6c-5.3-17.8,1.9-42.1,21.4-72.3c0.3-0.5,1.2-0.5,1.5,0
		c19.4,29.9,26.6,54.1,21.6,71.8c-0.1,0.4-0.6,0.7-1,0.6c-0.4-0.1-0.7-0.6-0.6-1c4.8-17.1-2.2-40.4-20.8-69.5
		c-18.8,29.3-25.7,52.9-20.6,70c0.1,0.4-0.1,0.9-0.6,1C1832.1,163.7,1832,163.7,1831.9,163.7z"/>
	<path class="st2" d="M1831.9,162.9"/>
	<path class="st1" d="M1853.4,185.4h-0.1c-0.5,0-0.8-0.4-0.8-0.8c0-0.5,0.4-0.8,0.8-0.8c0.5,0,0.9,0.4,0.9,0.8
		C1854.1,185.1,1853.8,185.4,1853.4,185.4z"/>
	<path class="st1" d="M1830.6,194.9c-1.5,0-3-0.1-4.6-0.3c-19.1-2.6-37.8-21-55.5-54.5c-0.1-0.2-0.1-0.5,0-0.8
		c0.1-0.2,0.5-0.5,0.7-0.5c37-2.4,62.2,3.5,74.7,17.7c0.3,0.3,0.3,0.9-0.1,1.2c-0.3,0.3-0.9,0.3-1.2-0.1
		c-12.1-13.6-36.4-19.4-72.2-17.2c17.4,32.4,35.4,50,53.8,52.6c15.7,2.2,25.8-8.2,25.9-8.3c0.2-0.4,0.7-0.5,1.1-0.3
		c0.4,0.2,0.5,0.8,0.3,1.2l-0.1,0.1C1853,186.2,1844.5,194.9,1830.6,194.9z"/>
	<path class="st1" d="M1876.1,194.5c-13.8,0-22.3-8.7-22.7-9.1c0-0.1-0.2-0.2-0.2-0.3c-0.2-0.4-0.1-0.9,0.3-1.1
		c0.4-0.2,0.9-0.1,1.1,0.3l0.1,0.1l0,0c0,0,10.2,10.3,25.8,8.1c18.3-2.5,36.4-20.2,53.7-52.6c-35.7-2.2-60,3.6-72.1,17.1
		c-0.3,0.3-0.8,0.4-1.2,0.1c-0.3-0.3-0.4-0.8-0.1-1.2c12.6-14.1,37.7-20,74.6-17.6c0.3,0,0.5,0.2,0.7,0.4c0.1,0.2,0.2,0.7,0.1,0.9
		c-17.8,33.5-36.5,51.8-55.5,54.5C1879.2,194.4,1877.6,194.5,1876.1,194.5z"/>
	<path class="st1" d="M1820.2,205.4c-17.2,0-38.2-10.5-62.6-31.3c-0.2-0.2-0.3-0.5-0.3-0.7c0-0.3,0.2-0.6,0.5-0.8
		c34.3-16.2,60.2-19.7,77.1-10.4c14.6,8.1,16.6,22.8,16.7,23.4c0,0.1,0,0.2,0,0.2c0,0.1,0,0.2-0.1,0.3c-0.2,0.6-6,14.3-22.2,18.2
		C1826.4,205,1823.4,205.4,1820.2,205.4z M1759.6,173.5c28,23.7,51.3,33.5,69.3,29.2c14.6-3.5,20.4-15.7,21.1-17.1
		c-0.2-1.6-2.7-14.8-15.8-22C1817.9,154.7,1792.9,158,1759.6,173.5z M1850.8,185.8L1850.8,185.8L1850.8,185.8z"/>
	<path class="st1" d="M1886.4,205.4c-3.2,0-6.2-0.4-9.1-1.1c-16.2-4-22-17.6-22.2-18.2c0-0.1,0-0.1-0.1-0.2l0-0.1
		c0.1-0.8,2-15.5,16.7-23.6c16.9-9.3,42.8-5.8,77.1,10.4c0.3,0.1,0.4,0.4,0.5,0.6c0,0.3-0.1,0.7-0.3,0.8
		C1924.6,194.9,1903.6,205.4,1886.4,205.4z M1856.7,185.6c0.7,1.5,6.5,13.6,21.1,17.1c17.9,4.4,41.3-5.5,69.3-29.2
		c-33.3-15.5-58.3-18.9-74.5-10C1859.4,170.8,1857,184,1856.7,185.6z"/>
	<circle class="st3" cx="1854.5" cy="64.9" r="9.4"/>
	<g>
		<g>
			<path class="st1" d="M1787.8,254.2c2.8,3.6,4.2,8.5,4.2,14.9c0,6.7-1.6,12.1-4.8,16.1c-3.2,4-7.8,6.1-13.8,6.1
				c-1.3,0-2.6-0.1-3.8-0.3c-1.2-0.2-2.7-0.5-4.5-0.8c-1.7-0.4-3.2-0.7-4.3-0.8s-2.4-0.3-3.8-0.3l-0.5-1c0.9-1.7,1.5-3.4,1.9-5.1
				c0.3-1.7,0.5-4.2,0.5-7.5v-39.8c0-1.9,0.6-2.8,1.9-2.8c0.3,0,0.7,0.1,1,0.3v24.2c1.5-2.7,3.5-4.8,5.9-6.3
				c2.4-1.5,5.2-2.2,8.3-2.2C1781.1,248.9,1785,250.6,1787.8,254.2z M1785.2,283.6c2.5-3.6,3.8-8.4,3.8-14.4
				c0-5.7-1.1-10.1-3.4-13.2c-2.2-3.2-5.4-4.7-9.5-4.7c-2.7,0-5.2,0.7-7.3,2.1c-2.2,1.4-3.8,3.4-5.1,5.8c-1.2,2.5-1.8,5.3-1.8,8.5
				v7.8c0,2.4-0.1,4.5-0.4,6.3c-0.3,1.8-0.7,3.5-1.4,4.9c1.3,0.1,2.6,0.2,4,0.6c1.4,0.3,2.2,0.5,2.6,0.6c1.7,0.4,3,0.7,4.2,0.8
				c1.1,0.2,2.3,0.3,3.5,0.3C1779.1,288.9,1782.7,287.1,1785.2,283.6z"/>
			<path class="st1" d="M1773.5,291.7c-1.3,0-2.6-0.1-3.8-0.3c-1.2-0.2-2.7-0.5-4.5-0.8c-1.7-0.4-3.1-0.7-4.3-0.8
				c-1.2-0.2-2.4-0.3-3.7-0.3h-0.2l-0.6-1.4l0.1-0.1c0.9-1.7,1.5-3.3,1.8-5c0.3-1.6,0.5-4.1,0.5-7.5v-39.8c0-2.6,1.2-3.1,2.2-3.1
				c0.4,0,0.8,0.1,1.2,0.4l0.2,0.1v23.2c1.5-2.2,3.3-4,5.4-5.4c2.4-1.5,5.3-2.3,8.4-2.3c5,0,9,1.8,11.9,5.5l0,0
				c2.9,3.6,4.3,8.7,4.3,15.1c0,6.8-1.7,12.3-4.9,16.4C1784.2,289.6,1779.5,291.7,1773.5,291.7z M1757.3,288.8
				c1.3,0,2.5,0.1,3.6,0.3c1.2,0.2,2.6,0.5,4.3,0.8c1.8,0.4,3.3,0.6,4.5,0.8c1.2,0.2,2.4,0.3,3.7,0.3c5.8,0,10.3-2,13.5-5.9
				c3.2-4,4.8-9.3,4.8-15.9c0-6.3-1.4-11.2-4.2-14.7l0,0c-2.8-3.5-6.6-5.2-11.4-5.2c-3,0-5.7,0.7-8.1,2.2c-2.4,1.5-4.3,3.5-5.8,6.1
				l-0.6,1.1v-25.2c-0.3-0.1-0.5-0.2-0.7-0.2c-0.7,0-1.6,0.3-1.6,2.5v39.8c0,3.4-0.2,5.9-0.5,7.6c-0.3,1.6-1,3.3-1.8,5L1757.3,288.8
				z M1774.4,289.3c-1.2,0-2.4-0.1-3.5-0.3c-1.1-0.2-2.5-0.5-4.2-0.8c-0.3,0-1.1-0.2-2.6-0.6c-1.4-0.3-2.7-0.5-3.9-0.5l-0.5,0
				l0.2-0.5c0.7-1.4,1.2-3,1.4-4.8c0.3-1.8,0.4-3.9,0.4-6.3v-7.8c0-3.2,0.6-6.1,1.8-8.6c1.2-2.5,3-4.5,5.2-6
				c2.2-1.4,4.7-2.2,7.5-2.2c4.2,0,7.4,1.6,9.7,4.9c2.3,3.2,3.4,7.7,3.4,13.4c0,6-1.3,10.9-3.9,14.5l0,0
				C1782.9,287.4,1779.2,289.3,1774.4,289.3z M1760.7,286.4c1.2,0.1,2.4,0.3,3.6,0.5c1.4,0.3,2.2,0.5,2.5,0.6
				c1.7,0.4,3.1,0.7,4.2,0.8c1.1,0.2,2.2,0.3,3.4,0.3c4.6,0,8.1-1.8,10.6-5.2l0,0c2.5-3.5,3.8-8.3,3.8-14.2c0-5.6-1.1-10-3.3-13
				c-2.2-3-5.3-4.6-9.2-4.6c-2.6,0-5.1,0.7-7.2,2.1c-2.1,1.4-3.8,3.3-4.9,5.7c-1.2,2.4-1.8,5.2-1.8,8.3v7.8c0,2.4-0.1,4.6-0.4,6.4
				C1761.7,283.5,1761.3,285,1760.7,286.4z"/>
		</g>
		<g>
			<path class="st1" d="M1821.8,288c-2.2-2.2-3.4-5.3-3.4-9.1c0-3.9,1.3-7,3.8-9.3c2.5-2.3,5.9-3.4,10.2-3.4c2.5,0,4.7,0.3,6.6,1
				c1.9,0.7,3.5,1.7,4.6,2.9v-6.1c0-3.9-1-7-3.1-9.3c-2.1-2.3-4.8-3.5-8.3-3.5c-4.1,0-7.7,1.7-11,5.1c-1.1,0-1.6-0.5-1.6-1.4
				c0-0.6,0.6-1.4,1.8-2.4c1.2-1,2.8-1.9,4.8-2.6c2-0.8,4.1-1.1,6.3-1.1c4.2,0,7.6,1.4,10.2,4.2c2.6,2.8,3.8,6.5,3.8,11.1v24
				c0,1.9-0.6,2.8-1.9,2.8c-0.3,0-0.7-0.1-1-0.3v-5.1c-1.5,1.8-3.4,3.3-5.6,4.3c-2.2,1.1-4.6,1.6-7.2,1.6
				C1827.1,291.3,1824,290.2,1821.8,288z M1836.8,287.6c2-0.9,3.7-2.1,5-3.7c1.3-1.6,1.9-3.5,1.9-5.5v-2.6c0-2.3-1.1-4.1-3.4-5.2
				c-2.3-1.2-5-1.8-8.2-1.8c-3.3,0-5.8,0.9-7.7,2.8c-1.9,1.9-2.8,4.4-2.8,7.5c0,3,0.8,5.5,2.4,7.3c1.6,1.8,3.8,2.7,6.6,2.7
				C1832.7,288.9,1834.8,288.5,1836.8,287.6z"/>
			<path class="st1" d="M1830.8,291.7c-3.9,0-7-1.2-9.3-3.5l0,0c-2.3-2.3-3.5-5.4-3.5-9.3c0-4,1.3-7.2,3.9-9.5
				c2.6-2.3,6.1-3.5,10.4-3.5c2.5,0,4.7,0.4,6.7,1.1c1.7,0.6,3.1,1.4,4.2,2.4v-5.3c0-3.8-1-6.9-3-9.1c-2-2.2-4.7-3.4-8.1-3.4
				c-3.9,0-7.6,1.7-10.7,5l-0.1,0.1h-0.1c-1.2,0-1.9-0.6-1.9-1.8c0-0.7,0.6-1.5,1.9-2.6c1.2-1,2.9-1.9,4.9-2.7
				c2-0.8,4.2-1.1,6.5-1.1c4.3,0,7.8,1.4,10.4,4.3c2.6,2.8,3.9,6.6,3.9,11.3v24c0,2.6-1.2,3.1-2.3,3.1c-0.4,0-0.8-0.1-1.2-0.4
				l-0.2-0.1v-4.5c-1.4,1.5-3.2,2.8-5.1,3.8C1835.9,291.1,1833.5,291.7,1830.8,291.7z M1822,287.7c2.2,2.2,5.1,3.3,8.8,3.3
				c2.5,0,4.9-0.5,7.1-1.6c2.2-1,4-2.5,5.5-4.2l0.6-0.7v5.8c0.3,0.1,0.5,0.2,0.7,0.2c0.7,0,1.6-0.3,1.6-2.5v-24
				c0-4.5-1.3-8.1-3.8-10.8c-2.5-2.7-5.8-4.1-9.9-4.1c-2.2,0-4.3,0.4-6.2,1.1c-1.9,0.7-3.5,1.6-4.7,2.5c-1.5,1.2-1.7,1.8-1.7,2.1
				c0,0.7,0.3,1.1,1.1,1.1c3.3-3.4,7-5.1,11.1-5.1c3.6,0,6.4,1.2,8.5,3.6c2.1,2.4,3.2,5.6,3.2,9.6v6.9l-0.6-0.6
				c-1.1-1.2-2.7-2.1-4.5-2.8c-1.9-0.7-4.1-1-6.5-1c-4.2,0-7.5,1.1-10,3.3c-2.5,2.2-3.7,5.2-3.7,9
				C1818.8,282.6,1819.8,285.6,1822,287.7L1822,287.7z M1830.5,289.3c-2.9,0-5.2-0.9-6.9-2.8c-1.7-1.8-2.5-4.4-2.5-7.5
				c0-3.2,1-5.8,2.9-7.8c2-1.9,4.6-2.9,8-2.9c3.2,0,6.1,0.6,8.4,1.8c2.4,1.3,3.6,3.1,3.6,5.5v2.6c0,2.2-0.7,4.1-2,5.7
				c-1.3,1.6-3,2.9-5.1,3.8l0,0C1834.8,288.8,1832.7,289.3,1830.5,289.3z M1832.1,269c-3.2,0-5.7,0.9-7.5,2.7
				c-1.8,1.8-2.8,4.3-2.8,7.3c0,2.9,0.8,5.3,2.4,7c1.6,1.7,3.7,2.6,6.4,2.6c2.1,0,4.1-0.4,6.1-1.3l0,0c2-0.9,3.6-2.1,4.8-3.6
				c1.2-1.5,1.8-3.3,1.8-5.3v-2.6c0-2.2-1.1-3.8-3.2-5C1837.9,269.6,1835.2,269,1832.1,269z"/>
		</g>
		<g>
			<path class="st1" d="M1913,288.9c0,0.5-0.2,0.9-0.6,1.2c-0.4,0.3-1,0.4-1.7,0.4h-28.1l-0.5-1c0.8-1.6,1.3-3.5,1.6-5.5
				c0.3-2.1,0.4-4.9,0.4-8.5v-38.6c0-1.9,0.7-2.8,2-2.8c0.3,0,0.7,0.1,1,0.3v41c0,5.8-0.5,10-1.4,12.5h27
				C1912.9,288.3,1913,288.6,1913,288.9z"/>
			<path class="st1" d="M1910.6,290.9h-28.3l-0.6-1.4l0.1-0.1c0.8-1.6,1.3-3.4,1.6-5.4c0.3-2.1,0.4-4.9,0.4-8.5v-38.6
				c0-2.6,1.3-3.1,2.3-3.1c0.4,0,0.8,0.1,1.2,0.4l0.2,0.1v41.2c0,5.5-0.4,9.6-1.3,12.2h26.8l0.1,0.2c0.2,0.4,0.3,0.7,0.3,1.1
				c0,0.6-0.3,1.2-0.8,1.5C1912.1,290.7,1911.5,290.9,1910.6,290.9z M1882.7,290.2h27.9c0.7,0,1.2-0.1,1.5-0.3
				c0.3-0.2,0.5-0.5,0.5-0.9c0-0.2,0-0.4-0.1-0.6h-27.3l0.2-0.4c0.9-2.5,1.4-6.6,1.4-12.4v-40.8c-0.3-0.1-0.5-0.2-0.7-0.2
				c-0.7,0-1.7,0.3-1.7,2.5v38.6c0,3.6-0.2,6.5-0.4,8.5c-0.3,2.1-0.8,3.9-1.6,5.5L1882.7,290.2z"/>
		</g>
		<g>
			<path class="st1" d="M1943.7,290.5v-38.4c0-1.9,0.6-2.8,1.9-2.8c0.3,0,0.7,0.1,1,0.3v38.4c0,1.9-0.6,2.8-1.9,2.8
				C1944.4,290.9,1944.1,290.7,1943.7,290.5z"/>
			<path class="st1" d="M1944.7,291.2c-0.4,0-0.8-0.1-1.2-0.4l-0.2-0.1v-38.6c0-2.6,1.2-3.1,2.2-3.1c0.4,0,0.8,0.1,1.2,0.4l0.2,0.1
				v38.6C1947,290.6,1945.7,291.2,1944.7,291.2z M1944,290.3c0.3,0.1,0.5,0.2,0.7,0.2c0.7,0,1.6-0.3,1.6-2.5v-38.2
				c-0.3-0.1-0.5-0.2-0.7-0.2c-0.7,0-1.6,0.3-1.6,2.5V290.3z"/>
		</g>
		<g>
			<path class="st1" d="M1755.8,377.7c-1.2-0.7-1.8-1.4-1.8-2.2c0-1,0.4-1.4,1.3-1.4c1.2,1.5,2.7,2.3,4.6,2.3c2.5,0,4.2-1.4,5.3-4.1
				l2.8-7.2l-13.9-36.6c-0.2-0.3-0.2-0.7-0.2-1c0-0.5,0.2-1,0.6-1.3c0.4-0.3,0.9-0.5,1.6-0.5l13.5,35.8l12.8-34
				c0.4-1.2,1.1-1.8,2.1-1.8c0.5,0,1,0.1,1.4,0.3l-17.8,46.7c-1.6,4.1-4.2,6.2-7.9,6.2C1758.4,378.7,1757,378.4,1755.8,377.7z"/>
			<path class="st1" d="M1760,379.1c-1.7,0-3.2-0.4-4.4-1.1c-1.3-0.8-1.9-1.6-1.9-2.5c0-1.1,0.6-1.8,1.6-1.8h0.2l0.1,0.1
				c1.1,1.5,2.5,2.2,4.3,2.2c2.3,0,4-1.3,5-3.9l2.8-7.1l-13.9-36.5c-0.2-0.3-0.3-0.7-0.3-1.2c0-0.6,0.2-1.2,0.7-1.6
				c0.5-0.4,1.1-0.6,1.8-0.6h0.2l0.1,0.2l13.2,35l12.5-33.2c0.5-1.4,1.3-2.1,2.4-2.1c0.6,0,1.1,0.1,1.6,0.4l0.3,0.1l-0.1,0.3
				l-17.8,46.7C1766.6,376.9,1763.8,379.1,1760,379.1z M1755.1,374.3c-0.4,0-0.8,0.2-0.8,1.1c0,0.7,0.5,1.3,1.6,2l0,0
				c1.1,0.7,2.5,1,4.1,1c3.6,0,6.1-1.9,7.6-6l17.7-46.4c-0.3-0.1-0.7-0.2-1-0.2c-0.8,0-1.4,0.5-1.8,1.6l-13.1,34.8l-13.7-36.4
				c-0.5,0-0.8,0.2-1.1,0.4c-0.3,0.3-0.5,0.6-0.5,1.1c0,0.3,0.1,0.6,0.2,0.9l14,36.8l-2.9,7.3c-1.1,2.8-3,4.3-5.6,4.3
				C1758,376.6,1756.4,375.9,1755.1,374.3z"/>
		</g>
		<g>
			<path class="st1" d="M1812.9,364.9c-2.6-1.7-4.6-4.2-6-7.4c-1.4-3.2-2.1-6.9-2.1-11.2s0.7-8,2.1-11.2c1.4-3.2,3.4-5.7,6-7.4
				c2.6-1.7,5.6-2.6,9.1-2.6c3.5,0,6.5,0.9,9.1,2.6c2.6,1.7,4.6,4.2,6,7.4c1.4,3.2,2.1,6.9,2.1,11.2s-0.7,8-2.1,11.2s-3.4,5.7-6,7.4
				c-2.6,1.7-5.6,2.6-9.1,2.6C1818.5,367.5,1815.5,366.6,1812.9,364.9z M1832.3,360c2.5-3.4,3.8-8,3.8-13.8s-1.3-10.4-3.8-13.8
				c-2.5-3.4-6-5.1-10.3-5.1c-4.3,0-7.8,1.7-10.3,5.1c-2.5,3.4-3.8,8-3.8,13.8s1.3,10.4,3.8,13.8c2.5,3.4,6,5.1,10.3,5.1
				C1826.3,365.1,1829.8,363.4,1832.3,360z"/>
			<path class="st1" d="M1822,367.8c-3.5,0-6.6-0.9-9.3-2.7c-2.6-1.8-4.7-4.3-6.1-7.6c-1.4-3.2-2.1-7.1-2.1-11.4s0.7-8.1,2.1-11.4
				c1.4-3.2,3.5-5.8,6.1-7.6c2.6-1.8,5.8-2.7,9.3-2.7c3.5,0,6.6,0.9,9.3,2.7c2.6,1.8,4.7,4.3,6.1,7.6c1.4,3.2,2.1,7.1,2.1,11.4
				s-0.7,8.1-2.1,11.4c-1.4,3.3-3.5,5.8-6.1,7.6C1828.6,366.9,1825.5,367.8,1822,367.8z M1822,325.3c-3.4,0-6.4,0.9-8.9,2.5
				c-2.5,1.7-4.5,4.1-5.9,7.3c-1.4,3.2-2.1,6.9-2.1,11.1s0.7,7.9,2.1,11.1c1.4,3.1,3.3,5.6,5.9,7.3l0,0c2.5,1.7,5.5,2.5,8.9,2.5
				c3.4,0,6.4-0.9,8.9-2.5c2.5-1.7,4.5-4.1,5.9-7.3c1.4-3.2,2.1-6.9,2.1-11.1c0-4.2-0.7-7.9-2.1-11.1c-1.4-3.1-3.3-5.6-5.9-7.3
				C1828.4,326.2,1825.4,325.3,1822,325.3z M1822,365.4c-4.4,0-8-1.8-10.6-5.2c-2.6-3.4-3.9-8.1-3.9-13.9c0-5.8,1.3-10.5,3.9-13.9
				c2.6-3.5,6.1-5.2,10.6-5.2c4.4,0,8,1.8,10.6,5.2c2.6,3.4,3.9,8.1,3.9,13.9c0,5.8-1.3,10.5-3.9,13.9l0,0
				C1830,363.7,1826.4,365.4,1822,365.4z M1822,327.7c-4.2,0-7.6,1.7-10,5c-2.5,3.3-3.7,7.9-3.7,13.5c0,5.7,1.3,10.2,3.7,13.5
				c2.5,3.3,5.8,5,10,5c4.2,0,7.6-1.7,10-5l0,0c2.5-3.3,3.7-7.9,3.7-13.5c0-5.7-1.3-10.2-3.7-13.5
				C1829.6,329.4,1826.2,327.7,1822,327.7z"/>
		</g>
		<g>
			<path class="st1" d="M1897,328.3c-0.9,1.7-1.5,3.4-1.9,5.1c-0.3,1.7-0.5,4.2-0.5,7.5v21.5c0,4.9-1.4,8.9-4.2,11.9
				c-2.8,3-6.7,4.5-11.5,4.5c-2.7,0-5.1-0.4-7.3-1.3c-2.2-0.9-4-1.8-5.2-3c-1.3-1.1-1.9-2-1.9-2.6c0-1,0.5-1.4,1.6-1.4
				c1.9,2,3.9,3.5,6,4.5c2.1,1,4.4,1.4,6.9,1.4c4.2,0,7.4-1.2,9.6-3.7c2.2-2.5,3.2-5.9,3.2-10.3v-6.6c-1.5,2.7-3.5,4.8-5.9,6.3
				c-2.4,1.5-5.2,2.2-8.3,2.2c-3.2,0-6-0.8-8.4-2.3c-2.4-1.5-4.2-3.7-5.5-6.5c-1.3-2.8-2-6.1-2-9.7c0-4,0.7-7.5,2.2-10.6
				c1.4-3.1,3.6-5.6,6.4-7.4c2.8-1.8,6.2-2.7,10.1-2.7c1.3,0,2.6,0.1,3.8,0.3c1.2,0.2,2.7,0.5,4.5,0.8c1.7,0.4,3.2,0.7,4.3,0.8
				c1.2,0.2,2.4,0.3,3.8,0.3L1897,328.3z M1891.6,340.9c0-2.4,0.1-4.5,0.4-6.3c0.3-1.8,0.7-3.5,1.4-4.9c-1.3-0.1-2.6-0.2-4-0.6
				c-1.4-0.3-2.2-0.5-2.6-0.6c-1.7-0.4-3-0.7-4.2-0.8c-1.1-0.2-2.3-0.3-3.5-0.3c-4.6,0-8.3,1.7-10.8,5.1c-2.6,3.4-3.8,7.8-3.8,13.1
				c0,4.9,1.1,8.8,3.4,11.7c2.3,3,5.4,4.5,9.4,4.5c2.7,0,5.2-0.7,7.3-2.1s3.8-3.4,5.1-5.8c1.2-2.5,1.8-5.3,1.8-8.5L1891.6,340.9
				L1891.6,340.9L1891.6,340.9z"/>
			<path class="st1" d="M1878.8,379.1c-2.7,0-5.2-0.4-7.5-1.3c-2.2-0.9-4-1.9-5.3-3c-1.4-1.2-2-2.1-2-2.9c0-1.1,0.7-1.8,1.9-1.8h0.1
				l0.1,0.1c1.9,2,3.9,3.5,5.9,4.4c2,0.9,4.3,1.4,6.8,1.4c4.1,0,7.2-1.2,9.3-3.6c2.1-2.4,3.2-5.8,3.2-10V357
				c-1.5,2.2-3.3,4.1-5.4,5.4c-2.5,1.5-5.3,2.3-8.4,2.3c-3.3,0-6.1-0.8-8.6-2.4c-2.4-1.6-4.3-3.8-5.7-6.7c-1.3-2.8-2-6.2-2-9.9
				c0-4,0.7-7.6,2.2-10.8c1.5-3.2,3.6-5.7,6.5-7.5c2.8-1.8,6.3-2.7,10.2-2.7c1.3,0,2.6,0.1,3.8,0.3c1.2,0.2,2.6,0.5,4.5,0.8
				c1.8,0.4,3.2,0.7,4.3,0.8c1.2,0.2,2.4,0.3,3.7,0.3h0.2l0.6,1.4l-0.1,0.1c-0.9,1.7-1.5,3.4-1.8,5c-0.3,1.6-0.5,4.1-0.5,7.5v21.5
				c0,5-1.5,9.1-4.3,12.1C1887.7,377.5,1883.8,379.1,1878.8,379.1z M1865.8,370.7c-0.8,0-1.1,0.4-1.1,1.1c0,0.4,0.3,1.1,1.8,2.4
				c1.2,1.1,3,2.1,5.2,2.9c2.2,0.8,4.6,1.3,7.2,1.3c4.7,0,8.5-1.5,11.3-4.4c2.8-2.9,4.2-6.8,4.2-11.6v-21.5c0-3.4,0.2-5.9,0.5-7.6
				c0.3-1.6,1-3.3,1.8-5l-0.3-0.7c-1.3,0-2.5-0.1-3.6-0.3c-1.2-0.2-2.6-0.5-4.3-0.8c-1.8-0.4-3.3-0.7-4.5-0.8
				c-1.2-0.2-2.4-0.3-3.7-0.3c-3.8,0-7.1,0.9-9.9,2.6c-2.7,1.8-4.8,4.2-6.2,7.2c-1.4,3.1-2.1,6.6-2.1,10.5c0,3.6,0.6,6.8,1.9,9.6
				c1.3,2.7,3.1,4.9,5.4,6.4c2.3,1.5,5.1,2.3,8.2,2.3c3,0,5.7-0.7,8.1-2.2c2.3-1.5,4.3-3.5,5.8-6.1l0.6-1.1v7.8
				c0,4.4-1.1,8-3.3,10.5c-2.2,2.5-5.5,3.8-9.8,3.8c-2.6,0-5-0.5-7.1-1.5C1869.7,374.2,1867.7,372.7,1865.8,370.7z M1877.5,362.2
				c-4.1,0-7.4-1.5-9.7-4.6c-2.3-3-3.5-7-3.5-11.9c0-5.4,1.3-9.9,3.9-13.3c2.6-3.5,6.3-5.3,11.1-5.3c1.2,0,2.4,0.1,3.5,0.3
				s2.5,0.5,4.2,0.8c0.3,0.1,1.2,0.2,2.6,0.6c1.4,0.3,2.7,0.5,3.9,0.5l0.5,0l-0.2,0.5c-0.7,1.4-1.2,3-1.4,4.8
				c-0.3,1.8-0.4,3.9-0.4,6.3v4.6c0,3.2-0.6,6.1-1.8,8.6c-1.2,2.5-3,4.5-5.2,6C1882.8,361.5,1880.2,362.2,1877.5,362.2z
				 M1879.3,327.7c-4.5,0-8.1,1.7-10.6,5c-2.5,3.3-3.8,7.7-3.8,12.9c0,4.8,1.1,8.7,3.3,11.5c2.2,2.9,5.3,4.3,9.2,4.3
				c2.6,0,5.1-0.7,7.2-2.1c2.1-1.4,3.8-3.3,4.9-5.7c1.2-2.4,1.8-5.2,1.8-8.3v-4.6c0-2.4,0.1-4.6,0.4-6.4c0.2-1.7,0.7-3.2,1.3-4.5
				c-1.2-0.1-2.4-0.3-3.6-0.5c-1.4-0.3-2.2-0.5-2.5-0.6c-1.6-0.4-3-0.7-4.2-0.8C1881.6,327.8,1880.5,327.7,1879.3,327.7z"/>
		</g>
		<g>
			<path class="st1" d="M1923.6,364.1c-2.2-2.2-3.4-5.3-3.4-9.1c0-3.9,1.3-7,3.8-9.3c2.5-2.3,5.9-3.4,10.2-3.4c2.5,0,4.7,0.3,6.6,1
				c1.9,0.7,3.5,1.7,4.6,2.9v-6.1c0-3.9-1-7-3.1-9.3c-2.1-2.3-4.8-3.5-8.3-3.5c-4.1,0-7.7,1.7-11,5.1c-1.1,0-1.6-0.5-1.6-1.4
				c0-0.6,0.6-1.4,1.8-2.4c1.2-1,2.8-1.9,4.8-2.6c2-0.8,4.1-1.1,6.3-1.1c4.2,0,7.6,1.4,10.2,4.2c2.6,2.8,3.8,6.5,3.8,11.1v24
				c0,1.9-0.6,2.8-1.9,2.8c-0.3,0-0.7-0.1-1-0.3v-5.1c-1.5,1.8-3.4,3.3-5.6,4.3c-2.2,1.1-4.6,1.6-7.2,1.6
				C1928.9,367.5,1925.9,366.4,1923.6,364.1z M1938.6,363.8c2-0.9,3.7-2.1,5-3.7c1.3-1.6,1.9-3.5,1.9-5.5v-2.6
				c0-2.3-1.1-4.1-3.4-5.2c-2.3-1.2-5-1.8-8.2-1.8c-3.3,0-5.8,0.9-7.7,2.8c-1.9,1.9-2.8,4.4-2.8,7.5c0,3,0.8,5.5,2.4,7.3
				c1.6,1.8,3.8,2.7,6.6,2.7C1934.5,365.1,1936.6,364.7,1938.6,363.8z"/>
			<path class="st1" d="M1932.7,367.8c-3.9,0-7-1.2-9.3-3.5l0,0c-2.3-2.3-3.5-5.4-3.5-9.3c0-4,1.3-7.2,3.9-9.5
				c2.6-2.3,6.1-3.5,10.4-3.5c2.5,0,4.7,0.4,6.7,1.1c1.7,0.6,3.1,1.4,4.2,2.4v-5.3c0-3.8-1-6.9-3-9.1c-2-2.2-4.7-3.4-8.1-3.4
				c-3.9,0-7.6,1.7-10.7,5l-0.1,0.1h-0.1c-1.2,0-1.9-0.6-1.9-1.8c0-0.7,0.6-1.5,1.9-2.6c1.2-1,2.9-1.9,4.9-2.7
				c2-0.8,4.2-1.1,6.5-1.1c4.3,0,7.8,1.4,10.4,4.3c2.6,2.8,3.9,6.6,3.9,11.3v24c0,2.6-1.2,3.1-2.2,3.1c-0.4,0-0.8-0.1-1.2-0.4
				l-0.2-0.1v-4.4c-1.4,1.5-3.2,2.8-5.2,3.8C1937.8,367.3,1935.3,367.8,1932.7,367.8z M1923.9,363.9c2.2,2.2,5.2,3.3,8.8,3.3
				c2.5,0,4.9-0.5,7.1-1.6c2.2-1,4-2.5,5.5-4.2l0.6-0.7v5.8c0.3,0.1,0.5,0.2,0.7,0.2c0.7,0,1.6-0.3,1.6-2.5v-24
				c0-4.5-1.3-8.1-3.8-10.8c-2.5-2.7-5.8-4.1-9.9-4.1c-2.2,0-4.3,0.4-6.2,1.1c-1.9,0.7-3.5,1.6-4.7,2.5c-1.5,1.2-1.7,1.8-1.7,2.1
				c0,0.7,0.3,1.1,1.1,1.1c3.3-3.4,7-5.1,11.1-5.1c3.6,0,6.4,1.2,8.5,3.6c2.1,2.4,3.2,5.6,3.2,9.6v6.9l-0.6-0.6
				c-1.1-1.2-2.7-2.1-4.5-2.8c-1.9-0.7-4.1-1-6.5-1c-4.2,0-7.5,1.1-10,3.3c-2.5,2.2-3.7,5.2-3.7,9
				C1920.6,358.8,1921.7,361.7,1923.9,363.9L1923.9,363.9z M1932.4,365.4c-2.9,0-5.2-0.9-6.9-2.8c-1.7-1.8-2.5-4.4-2.5-7.5
				c0-3.2,1-5.8,2.9-7.8c2-1.9,4.6-2.9,8-2.9c3.2,0,6.1,0.6,8.4,1.8c2.4,1.3,3.6,3.1,3.6,5.5v2.6c0,2.2-0.7,4.1-2,5.7
				c-1.3,1.6-3,2.9-5.1,3.8l0,0C1936.7,365,1934.5,365.4,1932.4,365.4z M1933.9,345.1c-3.2,0-5.7,0.9-7.5,2.7
				c-1.8,1.8-2.8,4.3-2.8,7.3c0,2.9,0.8,5.3,2.4,7c1.6,1.7,3.7,2.6,6.4,2.6c2.1,0,4.1-0.4,6.1-1.3l0.1,0.3l-0.1-0.3
				c2-0.9,3.6-2.1,4.8-3.6c1.2-1.5,1.8-3.3,1.8-5.3v-2.6c0-2.2-1.1-3.8-3.2-5C1939.8,345.7,1937,345.1,1933.9,345.1z"/>
		</g>
	</g>
	<path class="st3" d="M1853.5,138.7c0,0,17.9,20.7,0.1,45.9C1853.6,184.6,1835.1,164.3,1853.5,138.7z"/>
	<path class="st1" d="M1846.8,186.2c-5.5,0-13.7-1.3-21.4-7.7c-14.8-12.3-20.9-37.8-18.3-75.6c0-0.3,0.2-0.5,0.4-0.7
		c0.2-0.1,0.7-0.2,0.9-0.1c33.4,17.9,51.7,36.7,54.2,55.8c2.2,16.6-8.5,26.9-8.9,27.3c-0.1,0.1-0.1,0.1-0.2,0.1
		c-0.1,0-0.2,0.1-0.3,0.1C1853,185.5,1850.5,186.2,1846.8,186.2z M1853.1,184.7L1853.1,184.7L1853.1,184.7z M1808.7,104.1
		c-2.4,36.6,3.6,61.2,17.8,73c11.5,9.6,24.7,7.1,26.3,6.8c1.1-1.1,10.3-11,8.3-25.8C1858.5,139.8,1840.9,121.6,1808.7,104.1z"/>
	<path class="st1" d="M1859.6,186.2c-3.7,0-6.3-0.6-6.5-0.7c-0.1,0-0.1,0-0.2-0.1l-0.1-0.1c-0.6-0.5-11.3-10.9-9.1-27.4
		c2.5-19.1,20.8-37.8,54.2-55.8c0.2-0.1,0.5-0.1,0.8,0c0.2,0.1,0.5,0.5,0.5,0.7c2.6,37.8-3.5,63.3-18.3,75.6
		C1873.3,184.8,1865.1,186.2,1859.6,186.2z M1853.6,183.9c1.6,0.3,14.8,2.8,26.3-6.8c14.2-11.9,20.1-36.4,17.8-73
		c-32.3,17.5-49.9,35.6-52.3,54C1843.3,172.9,1852.5,182.8,1853.6,183.9z"/>
</g>
</svg>
