<svg id="Livello_1" data-name="Livello 1" xmlns="http://www.w3.org/2000/svg" xmlns:xlink="http://www.w3.org/1999/xlink" viewBox="0 0 505.4 201.13"><defs><style>.cls-1,.cls-6{fill:#fff;}.cls-1,.cls-11{fill-rule:evenodd;}.cls-2{fill:#f8f9fa;}.cls-3{fill:#444482;}.cls-4{fill:#e5e5e5;}.cls-5{fill:#c4c4c4;}.cls-7{fill:#9191aa;}.cls-8{fill:#3d3d52;}.cls-12,.cls-9{fill:none;stroke-miterlimit:10;}.cls-9{stroke:#444482;stroke-width:0.8px;}.cls-10,.cls-11{fill:#333338;}.cls-12{stroke:#333338;stroke-width:1.09px;}.cls-13{fill:#033338;}.cls-14{mask:url(#mask);}</style><mask id="mask" x="367.47" y="59.81" width="20.79" height="21.03" maskUnits="userSpaceOnUse"><g id="path-1-inside-1"><path class="cls-1" d="M377.88,79.79c3.07,0,6.26-2.72,7.45-6.61a2.74,2.74,0,0,0,1.6-1.53,2.22,2.22,0,0,0-.7-3,1.37,1.37,0,0,0-.51-.13c-.56-4.7-3.86-7.66-7.84-7.66s-7.28,3-7.84,7.68a1.5,1.5,0,0,0-.65.17,2.22,2.22,0,0,0-.52,3,2.75,2.75,0,0,0,1.56,1.39C371.6,77.05,374.81,79.79,377.88,79.79Z"/></g></mask></defs><rect class="cls-2" width="505.4" height="201.13"/><path class="cls-3" d="M8.87,18.74H62.4a0,0,0,0,1,0,0V36.47a4.94,4.94,0,0,1-4.94,4.94H3.93a0,0,0,0,1,0,0V23.67a4.94,4.94,0,0,1,4.94-4.94Z"/><path class="cls-3" d="M78.44,18.74H94.83a.26.26,0,0,1,.26.26v5.62a4.55,4.55,0,0,1-4.55,4.55H74.15a.26.26,0,0,1-.26-.26V23.28A4.55,4.55,0,0,1,78.44,18.74Z"/><path class="cls-4" d="M8.87,143.25H62.4a0,0,0,0,1,0,0V161a4.94,4.94,0,0,1-4.94,4.94H3.93a0,0,0,0,1,0,0V148.19A4.94,4.94,0,0,1,8.87,143.25Z"/><path class="cls-5" d="M8.87,112.91H62.4a0,0,0,0,1,0,0v17.73a4.94,4.94,0,0,1-4.94,4.94H3.93a0,0,0,0,1,0,0V117.85a4.94,4.94,0,0,1,4.94-4.94Z"/><path class="cls-6" d="M25.06,30.76h-.61l-.19,1H23.9l.19-1h-.56v-.34h.63l.16-.83h-.61v-.34h.68l.2-1H25l-.2,1h.61l.2-1h.36l-.2,1h.48v.34h-.54l-.16.83H26v.34h-.59l-.19,1h-.37Zm-.54-.34h.61l.16-.83h-.61Z"/><path class="cls-6" d="M28.55,30.56H29v.37h-.48v.81h-.47v-.81H26.59v-.26l1.46-2.42h.5Zm-1.46,0h1V28.93h0l-.05.12Z"/><path class="cls-6" d="M31.31,30.56h.48v.37h-.48v.81h-.47v-.81H29.35v-.26l1.46-2.42h.5Zm-1.46,0h1V28.93h0l0,.12Z"/><path class="cls-6" d="M34.07,30.56h.48v.37h-.48v.81H33.6v-.81H32.1v-.26l1.47-2.42h.5Zm-1.46,0h1V28.93h0l-.05.12Z"/><path class="cls-6" d="M36.83,30.56h.48v.37h-.48v.81h-.47v-.81h-1.5v-.26l1.47-2.42h.5Zm-1.46,0h1V28.93h0l-.05.12Z"/><path class="cls-6" d="M39.87,29.14a.75.75,0,0,1-.16.48.89.89,0,0,1-.4.31,1,1,0,0,1,.47.33.8.8,0,0,1,.18.52.9.9,0,0,1-.31.74,1.17,1.17,0,0,1-.79.27,1.26,1.26,0,0,1-.84-.27.88.88,0,0,1-.32-.74.8.8,0,0,1,.18-.52,1.07,1.07,0,0,1,.49-.33.89.89,0,0,1-.42-.31.81.81,0,0,1-.16-.48.87.87,0,0,1,.3-.7,1.15,1.15,0,0,1,.76-.24,1.09,1.09,0,0,1,.73.24A.89.89,0,0,1,39.87,29.14Zm-.38,1.63a.64.64,0,0,0-.18-.47.63.63,0,0,0-.46-.18.69.69,0,0,0-.49.18.61.61,0,0,0-.19.47.6.6,0,0,0,.19.47.7.7,0,0,0,.5.18.61.61,0,0,0,.45-.18A.64.64,0,0,0,39.49,30.77Zm-.09-1.62a.57.57,0,0,0-.16-.41.51.51,0,0,0-.39-.17.61.61,0,0,0-.42.16.54.54,0,0,0-.17.42.58.58,0,0,0,.17.43.6.6,0,0,0,.43.17.5.5,0,0,0,.38-.17A.57.57,0,0,0,39.4,29.15Z"/><path class="cls-6" d="M42.73,31.74H40.57v-.33l1.09-1.3a3.22,3.22,0,0,0,.4-.56.94.94,0,0,0,.1-.43.52.52,0,0,0-.14-.39.47.47,0,0,0-.39-.16.62.62,0,0,0-.47.19.71.71,0,0,0-.16.47h-.46a.94.94,0,0,1,.29-.72,1.06,1.06,0,0,1,.8-.3,1,1,0,0,1,.74.26.88.88,0,0,1,.26.67,1.1,1.1,0,0,1-.15.54,6.41,6.41,0,0,1-.46.66l-.88,1h1.59Z"/><path class="cls-7" d="M8.87,49.37H62.4a0,0,0,0,1,0,0V67.1A4.94,4.94,0,0,1,57.46,72H3.93a0,0,0,0,1,0,0V54.31A4.94,4.94,0,0,1,8.87,49.37Z"/><path class="cls-6" d="M24.53,61.39h-.61l-.19,1h-.36l.19-1H23v-.34h.63l.17-.83h-.62v-.34h.68l.2-1h.36l-.19,1h.61l.19-1h.36l-.19,1h.47v.34h-.54l-.16.83h.52v.34h-.59l-.19,1h-.36ZM24,61.05h.61l.16-.83h-.61Z"/><path class="cls-6" d="M28.3,59.77a.71.71,0,0,1-.16.48.82.82,0,0,1-.4.31,1.06,1.06,0,0,1,.47.33.82.82,0,0,1,.18.52.93.93,0,0,1-.31.75,1.22,1.22,0,0,1-.8.26,1.29,1.29,0,0,1-.83-.26.92.92,0,0,1-.33-.75.78.78,0,0,1,.19-.52,1,1,0,0,1,.49-.33.89.89,0,0,1-.42-.31.71.71,0,0,1-.16-.48.85.85,0,0,1,.29-.69,1.13,1.13,0,0,1,.77-.25,1.09,1.09,0,0,1,.73.25A.85.85,0,0,1,28.3,59.77Zm-.38,1.63a.66.66,0,0,0-.18-.47.65.65,0,0,0-.46-.18.69.69,0,0,0-.49.18.63.63,0,0,0-.2.47.59.59,0,0,0,.2.47.69.69,0,0,0,.49.18.62.62,0,0,0,.46-.18A.63.63,0,0,0,27.92,61.4Zm-.1-1.62a.58.58,0,0,0-.15-.41.54.54,0,0,0-.39-.17.61.61,0,0,0-.42.16.57.57,0,0,0-.17.42.58.58,0,0,0,.17.43.57.57,0,0,0,.42.17.51.51,0,0,0,.39-.17A.61.61,0,0,0,27.82,59.78Z"/><path class="cls-6" d="M29.05,62.37V58.88h1.13a1.37,1.37,0,0,1,.86.24.85.85,0,0,1,.31.71.65.65,0,0,1-.14.4.91.91,0,0,1-.37.27.78.78,0,0,1,.54.3.94.94,0,0,1,.2.59.89.89,0,0,1-.31.73,1.35,1.35,0,0,1-.84.25Zm.47-2h.76a.61.61,0,0,0,.43-.15.51.51,0,0,0,.16-.4.51.51,0,0,0-.17-.42.79.79,0,0,0-.52-.14h-.66Zm0,.36V62h.91a.72.72,0,0,0,.5-.16.57.57,0,0,0,.18-.45.61.61,0,0,0-.19-.47.75.75,0,0,0-.49-.19h-.91Z"/><path class="cls-6" d="M34.17,59.77a.76.76,0,0,1-.15.48.85.85,0,0,1-.41.31,1,1,0,0,1,.48.33.82.82,0,0,1,.18.52.94.94,0,0,1-.32.75,1.19,1.19,0,0,1-.79.26,1.34,1.34,0,0,1-.84-.26.94.94,0,0,1-.32-.75.82.82,0,0,1,.18-.52,1,1,0,0,1,.5-.33,1,1,0,0,1-.43-.31.76.76,0,0,1-.15-.48.83.83,0,0,1,.29-.69,1.11,1.11,0,0,1,.76-.25,1.14,1.14,0,0,1,.74.25A.85.85,0,0,1,34.17,59.77ZM33.8,61.4a.63.63,0,0,0-.19-.47.62.62,0,0,0-.46-.18.71.71,0,0,0-.49.18.63.63,0,0,0-.19.47.58.58,0,0,0,.19.47.71.71,0,0,0,.5.18.61.61,0,0,0,.45-.18A.6.6,0,0,0,33.8,61.4Zm-.1-1.62a.54.54,0,0,0-.16-.41.51.51,0,0,0-.39-.17.61.61,0,0,0-.42.16.57.57,0,0,0-.16.42.54.54,0,0,0,.17.43.57.57,0,0,0,.42.17.54.54,0,0,0,.39-.17A.61.61,0,0,0,33.7,59.78Z"/><path class="cls-6" d="M34.92,62.37V58.88h1.14a1.34,1.34,0,0,1,.85.24.83.83,0,0,1,.31.71.65.65,0,0,1-.14.4.8.8,0,0,1-.37.27.78.78,0,0,1,.54.3.88.88,0,0,1,.2.59.89.89,0,0,1-.31.73,1.31,1.31,0,0,1-.84.25Zm.47-2h.77a.6.6,0,0,0,.42-.15.51.51,0,0,0,.17-.4.49.49,0,0,0-.18-.42.77.77,0,0,0-.51-.14h-.67Zm0,.36V62h.91a.7.7,0,0,0,.5-.16.57.57,0,0,0,.18-.45.64.64,0,0,0-.18-.47.77.77,0,0,0-.49-.19h-.92Z"/><path class="cls-6" d="M38.83,62.05a.73.73,0,0,0,.55-.23,1,1,0,0,0,.21-.67v-.3a.79.79,0,0,1-.29.26.78.78,0,0,1-.37.09,1,1,0,0,1-.79-.31,1.22,1.22,0,0,1-.29-.86,1.2,1.2,0,0,1,.31-.86,1,1,0,0,1,.75-.34,1.08,1.08,0,0,1,.83.33,1.25,1.25,0,0,1,.32.93v1.06a1.22,1.22,0,0,1-.34.93,1.21,1.21,0,0,1-.89.34,1.69,1.69,0,0,1-.38,0,1.37,1.37,0,0,1-.36-.11l.07-.36a1.45,1.45,0,0,0,.31.11A1.86,1.86,0,0,0,38.83,62.05Zm.1-1.22a.76.76,0,0,0,.41-.11.7.7,0,0,0,.25-.29V60a.9.9,0,0,0-.18-.6.6.6,0,0,0-.49-.22.54.54,0,0,0-.43.23,1.14,1.14,0,0,0,0,1.18A.52.52,0,0,0,38.93,60.83Z"/><path class="cls-6" d="M40.8,62.37V58.88h1.13a1.37,1.37,0,0,1,.86.24.85.85,0,0,1,.31.71.65.65,0,0,1-.14.4.91.91,0,0,1-.37.27.78.78,0,0,1,.54.3.94.94,0,0,1,.2.59.89.89,0,0,1-.31.73,1.35,1.35,0,0,1-.84.25Zm.47-2H42a.61.61,0,0,0,.43-.15.51.51,0,0,0,.16-.4.51.51,0,0,0-.17-.42.79.79,0,0,0-.52-.14h-.66Zm0,.36V62h.91a.72.72,0,0,0,.5-.16.57.57,0,0,0,.18-.45.61.61,0,0,0-.19-.47.75.75,0,0,0-.49-.19h-.91Z"/><path class="cls-8" d="M8.87,82.1H62.4a0,0,0,0,1,0,0V99.83a4.94,4.94,0,0,1-4.94,4.94H3.93a0,0,0,0,1,0,0V87A4.94,4.94,0,0,1,8.87,82.1Z"/><path class="cls-6" d="M24.5,94.12h-.61l-.19,1h-.36l.19-1H23v-.34h.63l.16-.83h-.61v-.34h.68l.2-1h.36l-.2,1h.61l.2-1h.36l-.2,1h.48V93H25.1l-.16.83h.52v.34h-.59l-.19,1h-.37ZM24,93.78h.61l.16-.83h-.61Z"/><path class="cls-6" d="M27.24,93.12a.58.58,0,0,0,.45-.16.72.72,0,0,0,.13-.44.61.61,0,0,0-.15-.43.54.54,0,0,0-.42-.16.64.64,0,0,0-.45.17.56.56,0,0,0-.18.42h-.45a.85.85,0,0,1,.29-.67,1.12,1.12,0,0,1,.79-.28,1.06,1.06,0,0,1,.76.25.89.89,0,0,1,.28.72.76.76,0,0,1-.13.44.86.86,0,0,1-.36.32.76.76,0,0,1,.4.32.94.94,0,0,1,.14.52,1,1,0,0,1-.3.75,1.15,1.15,0,0,1-.79.27,1.24,1.24,0,0,1-.78-.26.81.81,0,0,1-.33-.7h.46a.58.58,0,0,0,.18.43.68.68,0,0,0,.47.17.58.58,0,0,0,.45-.18.66.66,0,0,0,.17-.47.72.72,0,0,0-.15-.49.66.66,0,0,0-.48-.16h-.39v-.36Z"/><path class="cls-6" d="M29,95.1V91.61h1.1a1.45,1.45,0,0,1,1.09.42,1.47,1.47,0,0,1,.42,1.09v.47a1.47,1.47,0,0,1-.42,1.09,1.45,1.45,0,0,1-1.09.42ZM29.49,92v2.75h.63a1,1,0,0,0,.76-.32,1.21,1.21,0,0,0,.28-.82v-.48a1.21,1.21,0,0,0-.28-.81,1,1,0,0,0-.76-.32Z"/><path class="cls-6" d="M33.32,93.12a.54.54,0,0,0,.44-.16.66.66,0,0,0,.13-.44.6.6,0,0,0-.14-.43.54.54,0,0,0-.42-.16.64.64,0,0,0-.45.17.56.56,0,0,0-.18.42h-.46a.86.86,0,0,1,.3-.67,1.12,1.12,0,0,1,.79-.28,1.07,1.07,0,0,1,.76.25.92.92,0,0,1,.28.72.84.84,0,0,1-.13.44.93.93,0,0,1-.36.32.76.76,0,0,1,.4.32.94.94,0,0,1,.14.52,1,1,0,0,1-.3.75,1.17,1.17,0,0,1-.79.27,1.24,1.24,0,0,1-.78-.26.81.81,0,0,1-.33-.7h.45a.59.59,0,0,0,.19.43.68.68,0,0,0,.47.17.58.58,0,0,0,.45-.18.66.66,0,0,0,.17-.47.72.72,0,0,0-.15-.49.68.68,0,0,0-.48-.16h-.39v-.36Z"/><path class="cls-6" d="M35.1,95.1V91.61h1.09a1.44,1.44,0,0,1,1.52,1.51v.47a1.44,1.44,0,0,1-1.52,1.51ZM35.57,92v2.75h.62a1,1,0,0,0,.77-.32,1.21,1.21,0,0,0,.28-.82v-.48A1.21,1.21,0,0,0,37,92.3a1,1,0,0,0-.77-.32Z"/><path class="cls-6" d="M38.43,93.55l.2-1.94h1.75V92H39l-.11,1a.92.92,0,0,1,.24-.13.83.83,0,0,1,.32-.06,1,1,0,0,1,.75.3,1.21,1.21,0,0,1,.28.85,1.25,1.25,0,0,1-.28.84,1,1,0,0,1-.82.32,1.13,1.13,0,0,1-.74-.24.84.84,0,0,1-.28-.72h.43a.57.57,0,0,0,.16.44.57.57,0,0,0,.43.16.55.55,0,0,0,.46-.21A.91.91,0,0,0,40,94a.85.85,0,0,0-.17-.54.58.58,0,0,0-.46-.2.84.84,0,0,0-.41.08.51.51,0,0,0-.18.26Z"/><path class="cls-6" d="M43.29,95.1H41.13v-.33l1.09-1.3a3.22,3.22,0,0,0,.4-.56.94.94,0,0,0,.1-.43.52.52,0,0,0-.14-.39.47.47,0,0,0-.39-.16.62.62,0,0,0-.47.19.71.71,0,0,0-.16.47H41.1a.94.94,0,0,1,.29-.72,1.06,1.06,0,0,1,.8-.3,1,1,0,0,1,.74.26.88.88,0,0,1,.26.67A1.1,1.1,0,0,1,43,93a6.41,6.41,0,0,1-.46.66l-.88,1h1.59Z"/><path d="M24.55,124.75h-.61l-.19,1h-.37l.2-1H23v-.34h.63l.17-.83h-.62v-.34h.68l.2-1h.36l-.2,1h.61l.2-1h.36l-.19,1h.47v.34h-.54l-.16.83h.52v.34h-.59l-.19,1h-.36Zm-.55-.34h.61l.17-.83h-.61Z"/><path d="M28.79,124.61v0a1.07,1.07,0,0,1-.35.82,1.33,1.33,0,0,1-.94.33,1.23,1.23,0,0,1-1-.42,1.52,1.52,0,0,1-.37-1.06v-.62a1.55,1.55,0,0,1,.37-1.07,1.23,1.23,0,0,1,1-.42,1.38,1.38,0,0,1,.95.32,1.07,1.07,0,0,1,.34.83v0h-.45a.75.75,0,0,0-.22-.58.79.79,0,0,0-.61-.22.73.73,0,0,0-.62.32,1.28,1.28,0,0,0-.24.79v.63a1.28,1.28,0,0,0,.24.79.73.73,0,0,0,.62.32.82.82,0,0,0,.61-.21.77.77,0,0,0,.22-.59Z"/><path d="M31.14,124.55h.48v.37h-.48v.81h-.47v-.81h-1.5v-.26l1.47-2.42h.5Zm-1.46,0h1v-1.63h0l0,.12Z"/><path d="M34.65,124.61v0a1.07,1.07,0,0,1-.35.82,1.29,1.29,0,0,1-.93.33,1.24,1.24,0,0,1-1-.42A1.57,1.57,0,0,1,32,124.3v-.62a1.6,1.6,0,0,1,.37-1.07,1.24,1.24,0,0,1,1-.42,1.35,1.35,0,0,1,.94.32,1.07,1.07,0,0,1,.34.83v0H34.2a.78.78,0,0,0-.21-.58.82.82,0,0,0-.61-.22.75.75,0,0,0-.63.32,1.28,1.28,0,0,0-.24.79v.63a1.28,1.28,0,0,0,.24.79.75.75,0,0,0,.63.32.85.85,0,0,0,.61-.21.8.8,0,0,0,.21-.59Z"/><path d="M37,124.55h.48v.37H37v.81h-.47v-.81H35v-.26l1.46-2.42H37Zm-1.46,0h1v-1.63h0l-.05.12Z"/><path d="M40.52,124.61v0a1.06,1.06,0,0,1-.34.82,1.33,1.33,0,0,1-.94.33,1.23,1.23,0,0,1-1-.42,1.52,1.52,0,0,1-.37-1.06v-.62a1.55,1.55,0,0,1,.37-1.07,1.23,1.23,0,0,1,1-.42,1.34,1.34,0,0,1,.94.32,1,1,0,0,1,.34.83v0h-.46a.78.78,0,0,0-.21-.58.8.8,0,0,0-.61-.22.76.76,0,0,0-.63.32,1.34,1.34,0,0,0-.23.79v.63a1.34,1.34,0,0,0,.23.79.76.76,0,0,0,.63.32.84.84,0,0,0,.61-.21.8.8,0,0,0,.21-.59Z"/><path d="M42.86,124.55h.49v.37h-.49v.81H42.4v-.81H40.9v-.26l1.47-2.42h.49Zm-1.46,0h1v-1.63h0l0,.12Z"/><path d="M25.15,156.18h-.61l-.19,1H24l.2-1h-.57v-.34h.63l.16-.83h-.61v-.34h.68l.2-1H25l-.2,1h.61l.2-1H26l-.2,1h.48V155h-.54l-.16.83h.52v.34h-.59l-.19,1H25Zm-.55-.34h.61l.17-.83h-.61Z"/><path d="M28.81,155.54H27.37v1.25h1.68v.37H26.9v-3.49H29V154H27.37v1.13h1.44Z"/><path d="M29.62,155.61l.2-1.94h1.75v.42H30.22l-.11,1a.72.72,0,0,1,.24-.14.83.83,0,0,1,.32-.06,1,1,0,0,1,.75.3,1.21,1.21,0,0,1,.28.85,1.25,1.25,0,0,1-.28.84,1.06,1.06,0,0,1-.82.32,1.13,1.13,0,0,1-.74-.24.82.82,0,0,1-.28-.71v0H30a.57.57,0,0,0,.16.44.57.57,0,0,0,.43.16.55.55,0,0,0,.46-.21.91.91,0,0,0,.17-.58.85.85,0,0,0-.17-.54.58.58,0,0,0-.46-.2.84.84,0,0,0-.41.08.51.51,0,0,0-.18.26Z"/><path d="M34.27,155.54H32.84v1.25h1.67v.37H32.37v-3.49h2.12V154H32.84v1.13h1.43Z"/><path d="M35.08,155.61l.2-1.94H37v.42H35.68l-.11,1a.77.77,0,0,1,.25-.14.75.75,0,0,1,.31-.06,1,1,0,0,1,.76.3,1.26,1.26,0,0,1,.27.85,1.2,1.2,0,0,1-.28.84,1,1,0,0,1-.82.32,1.13,1.13,0,0,1-.74-.24.85.85,0,0,1-.28-.71v0h.43a.61.61,0,0,0,.16.44.59.59,0,0,0,.43.16.55.55,0,0,0,.46-.21.91.91,0,0,0,.17-.58.85.85,0,0,0-.17-.54.57.57,0,0,0-.46-.2.77.77,0,0,0-.4.08.47.47,0,0,0-.19.26Z"/><path d="M39.73,155.54H38.3v1.25H40v.37H37.83v-3.49H40V154H38.3v1.13h1.43Z"/><path d="M40.55,155.61l.2-1.94h1.74v.42H41.14l-.11,1a.89.89,0,0,1,.25-.14.78.78,0,0,1,.31-.06,1,1,0,0,1,.76.3,1.26,1.26,0,0,1,.27.85,1.2,1.2,0,0,1-.28.84,1,1,0,0,1-.82.32,1.11,1.11,0,0,1-.73-.24.85.85,0,0,1-.29-.71v0h.42a.57.57,0,0,0,.17.44.63.63,0,0,0,.89-.05.91.91,0,0,0,.16-.58.85.85,0,0,0-.16-.54.59.59,0,0,0-.47-.2.8.8,0,0,0-.4.08.51.51,0,0,0-.18.26Z"/><path class="cls-6" d="M83.94,24.12v1.26h-.69V21.89h1.33a1.38,1.38,0,0,1,.94.31,1,1,0,0,1,.35.81,1,1,0,0,1-.35.8,1.38,1.38,0,0,1-.94.31Zm0-.54h.64a.61.61,0,0,0,.44-.16.58.58,0,0,0,.15-.41A.59.59,0,0,0,85,22.6a.57.57,0,0,0-.44-.17h-.64Z"/><path class="cls-9" d="M78.39,30.79H94.78A.26.26,0,0,1,95,31v5.62a4.55,4.55,0,0,1-4.55,4.55H74.1a.26.26,0,0,1-.26-.26V35.33a4.55,4.55,0,0,1,4.55-4.55Z"/><path class="cls-3" d="M85.06,36.52a.39.39,0,0,0-.14-.32,1.4,1.4,0,0,0-.49-.23,2.93,2.93,0,0,1-.92-.43.88.88,0,0,1,0-1.37,1.46,1.46,0,0,1,.9-.28,1.37,1.37,0,0,1,.93.3.89.89,0,0,1,.34.76v0H85a.48.48,0,0,0-.16-.4.6.6,0,0,0-.44-.14.62.62,0,0,0-.4.12.42.42,0,0,0-.14.32.35.35,0,0,0,.15.29,1.91,1.91,0,0,0,.53.24,2.33,2.33,0,0,1,.88.42.89.89,0,0,1,.3.7.84.84,0,0,1-.35.7,1.52,1.52,0,0,1-.92.26,1.63,1.63,0,0,1-1-.28.93.93,0,0,1-.39-.84h.68a.53.53,0,0,0,.18.45.78.78,0,0,0,.5.15.64.64,0,0,0,.42-.12A.36.36,0,0,0,85.06,36.52Z"/><path class="cls-10" d="M308.67,153.36a1.19,1.19,0,1,1,1.18-1.18A1.18,1.18,0,0,1,308.67,153.36Zm0-2a.78.78,0,1,0,.77.78A.78.78,0,0,0,308.67,151.4Z"/><path class="cls-10" d="M308.67,153.66a1.49,1.49,0,1,1,1.49-1.48A1.49,1.49,0,0,1,308.67,153.66Zm0-1.95a.47.47,0,1,0,.47.47A.47.47,0,0,0,308.67,151.71Z"/><path class="cls-10" d="M304,160.89a4,4,0,1,1,4-4A4.06,4.06,0,0,1,304,160.89Zm0-7.68a3.63,3.63,0,1,0,3.63,3.63A3.64,3.64,0,0,0,304,153.21Z"/><path class="cls-10" d="M304,161.19a4.35,4.35,0,1,1,4.34-4.35A4.35,4.35,0,0,1,304,161.19Zm0-7.67a3.33,3.33,0,1,0,3.32,3.32A3.33,3.33,0,0,0,304,153.52Z"/><path class="cls-10" d="M307.58,165.12h-6.67a5.22,5.22,0,0,1-5.22-5.22v-6.67a5.22,5.22,0,0,1,5.22-5.22h6.67a5.22,5.22,0,0,1,5.22,5.22v6.67A5.22,5.22,0,0,1,307.58,165.12Zm-6.67-16.7a4.82,4.82,0,0,0-4.81,4.81v6.67a4.82,4.82,0,0,0,4.81,4.81h6.67a4.82,4.82,0,0,0,4.81-4.81v-6.67a4.82,4.82,0,0,0-4.81-4.81Z"/><path class="cls-10" d="M307.58,165.43h-6.67a5.54,5.54,0,0,1-5.53-5.53v-6.67a5.53,5.53,0,0,1,5.53-5.52h6.67a5.53,5.53,0,0,1,5.53,5.52v6.67A5.54,5.54,0,0,1,307.58,165.43Zm-6.67-16.71a4.52,4.52,0,0,0-4.51,4.51v6.67a4.51,4.51,0,0,0,4.51,4.51h6.67a4.51,4.51,0,0,0,4.51-4.51v-6.67a4.52,4.52,0,0,0-4.51-4.51Z"/><path class="cls-10" d="M267.53,159.74a1,1,0,0,1-.46-.12.94.94,0,0,1-.48-.82v-4.46a.94.94,0,0,1,.48-.83,1,1,0,0,1,1,0l3.53,2.23a.94.94,0,0,1,0,1.59L268,159.59A.94.94,0,0,1,267.53,159.74Zm0-5.93a.58.58,0,0,0-.26.06.53.53,0,0,0-.27.47v4.46a.52.52,0,0,0,.81.44l3.53-2.23a.5.5,0,0,0,.25-.44.52.52,0,0,0-.25-.45h0l-3.53-2.23A.6.6,0,0,0,267.53,153.81Z"/><path class="cls-10" d="M267.53,160a1.15,1.15,0,0,1-.6-.16,1.2,1.2,0,0,1-.65-1.08v-4.46a1.25,1.25,0,0,1,1.91-1.05l3.53,2.23a1.24,1.24,0,0,1,0,2.1l-3.53,2.23A1.3,1.3,0,0,1,267.53,160Zm0-5.93a.2.2,0,0,0-.11,0,.21.21,0,0,0-.12.2v4.46a.21.21,0,0,0,.12.19.24.24,0,0,0,.23,0l3.53-2.23a.23.23,0,0,0,.11-.19.21.21,0,0,0-.11-.19l-3.53-2.23A.19.19,0,0,0,267.53,154.11Z"/><path class="cls-10" d="M272.66,165.2h-6.73a5.27,5.27,0,0,1-5.27-5.27V153.2a5.27,5.27,0,0,1,5.27-5.27h6.73a5.27,5.27,0,0,1,5.27,5.27v6.73A5.27,5.27,0,0,1,272.66,165.2Zm-6.73-16.86a4.87,4.87,0,0,0-4.86,4.86v6.73a4.87,4.87,0,0,0,4.86,4.86h6.73a4.87,4.87,0,0,0,4.86-4.86V153.2a4.87,4.87,0,0,0-4.86-4.86Z"/><path class="cls-10" d="M272.66,165.51h-6.73a5.6,5.6,0,0,1-5.58-5.58V153.2a5.59,5.59,0,0,1,5.58-5.57h6.73a5.58,5.58,0,0,1,5.57,5.57v6.73A5.59,5.59,0,0,1,272.66,165.51Zm-6.73-16.86a4.56,4.56,0,0,0-4.56,4.55v6.73a4.57,4.57,0,0,0,4.56,4.56h6.73a4.56,4.56,0,0,0,4.55-4.56V153.2a4.55,4.55,0,0,0-4.55-4.55Z"/><path class="cls-10" d="M344,165.2h-6.73a5.27,5.27,0,0,1-5.26-5.27V153.2a5.27,5.27,0,0,1,5.26-5.26H344a5.27,5.27,0,0,1,5.27,5.26v6.73A5.28,5.28,0,0,1,344,165.2Zm-6.73-16.85a4.86,4.86,0,0,0-4.85,4.85v6.73a4.85,4.85,0,0,0,4.85,4.85H344a4.85,4.85,0,0,0,4.85-4.85V153.2a4.85,4.85,0,0,0-4.85-4.85Z"/><path class="cls-10" d="M344,165.5h-6.73a5.57,5.57,0,0,1-5.56-5.57V153.2a5.57,5.57,0,0,1,5.56-5.57H344a5.58,5.58,0,0,1,5.57,5.57v6.73A5.58,5.58,0,0,1,344,165.5Zm-6.73-16.85a4.56,4.56,0,0,0-4.55,4.55v6.73a4.56,4.56,0,0,0,4.55,4.55H344a4.55,4.55,0,0,0,4.55-4.55V153.2a4.55,4.55,0,0,0-4.55-4.55Z"/><path class="cls-10" d="M341.19,161.38h-1.65a.32.32,0,0,1-.32-.33v-4.31h-.63a.33.33,0,0,1-.32-.33v-1.36a.32.32,0,0,1,.32-.32h.63v-1.11a1.86,1.86,0,0,1,1.86-1.86h1.56a.32.32,0,0,1,.32.32v1.36a.32.32,0,0,1-.32.32h-.92a.21.21,0,0,0-.21.21v.76h1.11a.35.35,0,0,1,.24.1.33.33,0,0,1,.08.25l-.11,1.36a.33.33,0,0,1-.33.3h-1v4.31A.32.32,0,0,1,341.19,161.38Zm-1.56-.42h1.47v-4.64h1.32l.1-1.18H341.1V154a.62.62,0,0,1,.62-.62h.83v-1.18h-1.47a1.45,1.45,0,0,0-1.45,1.45v1.52h-.94v1.18h.94Z"/><path class="cls-10" d="M341.19,161.6h-1.65a.54.54,0,0,1-.55-.55V157h-.4a.54.54,0,0,1-.54-.55v-1.36a.55.55,0,0,1,.54-.55h.4v-.88a2.1,2.1,0,0,1,2.09-2.09h1.56a.55.55,0,0,1,.55.55v1.36a.55.55,0,0,1-.55.55h-.92v.51h.89a.55.55,0,0,1,.4.18.53.53,0,0,1,.15.42l-.12,1.36a.54.54,0,0,1-.55.5h-.76v4.09A.55.55,0,0,1,341.19,161.6Zm-1.34-.86h1V156.1h1.34l.06-.73h-1.4V154a.85.85,0,0,1,.85-.85h.6v-.72h-1.24a1.23,1.23,0,0,0-1.23,1.22v1.75h-.94v.73h.94Z"/><path class="cls-10" d="M381.18,122.78h-6.63a5.2,5.2,0,0,1-5.2-5.2v-6.64a5.21,5.21,0,0,1,5.2-5.2h6.63a5.21,5.21,0,0,1,5.2,5.2v6.64A5.2,5.2,0,0,1,381.18,122.78Zm-6.63-16.62a4.79,4.79,0,0,0-4.79,4.78v6.64a4.79,4.79,0,0,0,4.79,4.78h6.63a4.79,4.79,0,0,0,4.79-4.78v-6.64a4.79,4.79,0,0,0-4.79-4.78Z"/><path class="cls-10" d="M381.18,123.08h-6.63a5.51,5.51,0,0,1-5.51-5.5v-6.64a5.51,5.51,0,0,1,5.51-5.5h6.63a5.51,5.51,0,0,1,5.5,5.5v6.64A5.51,5.51,0,0,1,381.18,123.08Zm-6.63-16.62a4.49,4.49,0,0,0-4.49,4.48v6.64a4.49,4.49,0,0,0,4.49,4.48h6.63a4.49,4.49,0,0,0,4.48-4.48v-6.64a4.49,4.49,0,0,0-4.48-4.48Z"/><path class="cls-10" d="M377.65,113.77l-.07,0-6.21-3.25a.22.22,0,0,1-.09-.27.16.16,0,0,1,.23-.11l6.14,3.22,6.58-3.22c.08-.05.18,0,.22.11a.22.22,0,0,1-.09.27l-6.64,3.25Z"/><path class="cls-10" d="M377.65,114a.35.35,0,0,1-.2-.05l-6.21-3.25a.49.49,0,0,1-.22-.61.48.48,0,0,1,.26-.28.47.47,0,0,1,.35,0l6,3.16,6.44-3.16a.39.39,0,0,1,.35,0,.45.45,0,0,1,.26.28.51.51,0,0,1-.23.61L377.84,114A.41.41,0,0,1,377.65,114Zm6.7-3.68h0Zm-.12-.11Z"/><path class="cls-10" d="M332.24,123.19a.24.24,0,0,1-.14,0,.19.19,0,0,1-.06-.2l1.09-4.69A8.74,8.74,0,0,1,332,114a8.63,8.63,0,1,1,8.63,8.62,8.54,8.54,0,0,1-3.66-.81l-4.66,1.41Zm8.38-17.45a8.21,8.21,0,0,0-7.09,12.37.21.21,0,0,1,0,.15l-1,4.43,4.4-1.34a.2.2,0,0,1,.15,0,8.22,8.22,0,1,0,3.55-15.63Z"/><path class="cls-10" d="M332.24,123.5a.5.5,0,0,1-.35-.14.52.52,0,0,1-.15-.49l1.07-4.58a8.93,8.93,0,1,1,7.81,4.6,8.77,8.77,0,0,1-3.68-.8ZM340.62,106A7.93,7.93,0,0,0,333.79,118a.48.48,0,0,1,.06.37l-.91,3.91,3.89-1.18a.59.59,0,0,1,.37,0,7.75,7.75,0,0,0,3.42.78,7.92,7.92,0,0,0,0-15.83Z"/><path class="cls-10" d="M342.85,118.27a5.11,5.11,0,0,1-1.72-.35c-.26-.1-.52-.19-.78-.32s-.57-.32-.84-.49l-.22-.13a.42.42,0,0,1-.14-.12h0l0,0,0,0-.12-.09-.53-.5-.05,0a1.29,1.29,0,0,1-.17-.16l-.33-.42-.18-.22-.08-.09a1.84,1.84,0,0,1-.17-.22c-.12-.19-.22-.38-.33-.57l-.09-.16a3.55,3.55,0,0,1-.2-.39q-.21-.54-.42-1.2a.5.5,0,0,1,0-.16s0,0,0-.06a1.85,1.85,0,0,1,.62-1.68,2.9,2.9,0,0,1,.66-.49.84.84,0,0,1,.91.06,1.23,1.23,0,0,1,.34.45c.08.18.15.37.22.56l.15.41c.06.16.12.33.17.51a.79.79,0,0,1-.25.84,2.9,2.9,0,0,0-.38.45s0,0,0,0a3.51,3.51,0,0,0,.68,1,4.58,4.58,0,0,0,1.06.85c.27.17.58.32.87.47l.21.11a4.57,4.57,0,0,1,.42-.47l.19-.2a.8.8,0,0,1,.76-.31,1.59,1.59,0,0,1,.45.15c.34.18.71.37,1.06.59a.73.73,0,0,1,.38.7,1.65,1.65,0,0,1-.49,1.21,2,2,0,0,1-1,.45A3.08,3.08,0,0,1,342.85,118.27Zm-3.52-1.78.06,0,.05,0a.33.33,0,0,0,.06.06l.22.13c.27.16.55.33.83.47a5.18,5.18,0,0,0,.72.3,4.16,4.16,0,0,0,2,.29,1.44,1.44,0,0,0,.83-.35,1.19,1.19,0,0,0,.36-.92.33.33,0,0,0-.19-.33c-.33-.21-.69-.4-1-.58a1.13,1.13,0,0,0-.34-.11c-.12,0-.23,0-.38.19l-.19.2a6,6,0,0,0-.42.46.39.39,0,0,1-.48.1l-.22-.11c-.3-.16-.61-.31-.9-.49a5.11,5.11,0,0,1-1.15-.93,4.05,4.05,0,0,1-.75-1.11.45.45,0,0,1,0-.41,3.53,3.53,0,0,1,.46-.54.38.38,0,0,0,.13-.43,3.71,3.71,0,0,0-.16-.47l-.15-.43c-.07-.17-.13-.35-.2-.52a.85.85,0,0,0-.22-.29.41.41,0,0,0-.45,0,3.2,3.2,0,0,0-.59.42,1.49,1.49,0,0,0-.5,1.15.17.17,0,0,1,0,.1.71.71,0,0,1,0,.14.14.14,0,0,0,0,.09c.14.44.28.83.42,1.19a1.73,1.73,0,0,0,.17.33l.09.16.32.55a1,1,0,0,0,.13.16l.09.11.18.22.33.41.12.12.06,0c.17.17.35.33.53.49l.08.07Zm-.56-2.82h0Z"/><path class="cls-10" d="M342.85,118.52a5.27,5.27,0,0,1-1.8-.36,7.22,7.22,0,0,1-.81-.33c-.29-.16-.58-.32-.85-.49l-.23-.13c-.09-.06-.16-.13-.2-.16l-.17-.14-.59-.54a1.62,1.62,0,0,1-.18-.19l-.34-.42-.25-.3a2.56,2.56,0,0,1-.2-.26c-.12-.18-.23-.38-.34-.58l-.08-.15a3.36,3.36,0,0,1-.22-.42c-.14-.37-.28-.77-.43-1.22a.74.74,0,0,1,0-.19.24.24,0,0,1,0-.08,2.09,2.09,0,0,1,.69-1.9,3.18,3.18,0,0,1,.72-.52,1.06,1.06,0,0,1,1.18.08,1.32,1.32,0,0,1,.42.54c.09.19.16.39.23.58l.15.41c.06.17.13.35.18.53a1,1,0,0,1-.33,1.1,2.67,2.67,0,0,0-.26.3,4.2,4.2,0,0,0,.59.83,4.54,4.54,0,0,0,1,.8c.27.16.57.31.85.46h0l.3-.32.19-.2a1.08,1.08,0,0,1,1-.39,2.21,2.21,0,0,1,.53.18c.35.18.72.38,1.07.6a1,1,0,0,1,.51.93,1.89,1.89,0,0,1-.58,1.39,2.2,2.2,0,0,1-1.18.51A3.19,3.19,0,0,1,342.85,118.52Zm-3.39-2.26.1.07.06.06.23.15c.27.16.54.32.81.46a6.39,6.39,0,0,0,.7.29,4,4,0,0,0,1.89.28,1.29,1.29,0,0,0,.7-.29.92.92,0,0,0,.27-.75s0,0-.06-.09c-.34-.21-.7-.4-1-.57a1.07,1.07,0,0,0-.27-.09s-.07,0-.14.11l-.2.21-.41.45a.65.65,0,0,1-.79.16l-.22-.11c-.31-.16-.62-.32-.92-.5a5.62,5.62,0,0,1-1.2-1,4.46,4.46,0,0,1-.8-1.2.72.72,0,0,1,0-.65,4.72,4.72,0,0,1,.5-.59c.07-.06.08-.09.06-.16s-.1-.29-.15-.43l-.17-.45c-.06-.17-.12-.34-.19-.5a.58.58,0,0,0-.13-.19.15.15,0,0,0-.18,0,2.9,2.9,0,0,0-.53.38,1.25,1.25,0,0,0-.43.89.83.83,0,0,1,0,.15.48.48,0,0,1,0,.17c.14.43.27.82.41,1.17a2.1,2.1,0,0,0,.15.3l.09.16c.11.2.21.37.32.54a.94.94,0,0,0,.09.12l.11.13.18.22.33.41a.6.6,0,0,0,.08.08l.07.06.53.49,0,0Zm-.23.47-.08.13.11-.1Z"/><path class="cls-10" d="M304.35,123.1a.21.21,0,0,1-.15-.07c-.25-.27-6-6.62-6.56-8l-.19-.51a7.22,7.22,0,0,1-.34-2.16A7.14,7.14,0,1,1,311,114.66h0l-.21.56c-.51,1.16-6.05,7.53-6.28,7.8a.24.24,0,0,1-.16.07Zm-.11-17.43a6.73,6.73,0,0,0-6.4,8.75l.18.5c.4,1,4.23,5.34,6.33,7.66,2-2.32,5.68-6.65,6-7.51l.21-.54a6.57,6.57,0,0,0,.35-2.14A6.72,6.72,0,0,0,304.24,105.67Zm6.57,8.93Z"/><path class="cls-10" d="M304.36,123.4h0a.48.48,0,0,1-.37-.17c-1-1.12-6.09-6.74-6.62-8l-.2-.52a7.73,7.73,0,0,1-.35-2.27,7.44,7.44,0,1,1,14.48,2.37l-.22.57c-.53,1.21-5.74,7.21-6.33,7.89a.51.51,0,0,1-.38.18ZM304.24,106a6.42,6.42,0,0,0-6.11,8.36l.18.48c.32.79,3.31,4.3,6,7.31a79,79,0,0,0,5.79-7.17l.2-.53a6.42,6.42,0,0,0-6.09-8.45Z"/><path class="cls-10" d="M304.24,115.07a2.66,2.66,0,1,1,2.66-2.66A2.66,2.66,0,0,1,304.24,115.07Zm0-4.9a2.25,2.25,0,1,0,2.25,2.24A2.24,2.24,0,0,0,304.24,110.17Z"/><path class="cls-10" d="M304.24,115.38a3,3,0,1,1,3-3A3,3,0,0,1,304.24,115.38Zm0-4.91a1.95,1.95,0,1,0,1.95,1.94A1.94,1.94,0,0,0,304.24,110.47Z"/><path class="cls-10" d="M261.35,31.08l0-1a6.39,6.39,0,0,0,4.27-2.29A4.88,4.88,0,0,1,269,26.05,4.7,4.7,0,0,1,273,27.73a7,7,0,0,0,4.3,2.3l-.07,1a7.87,7.87,0,0,1-5-2.64,3.64,3.64,0,0,0-3.08-1.33h-.05a3.76,3.76,0,0,0-2.68,1.32A7.42,7.42,0,0,1,261.35,31.08Z"/><path class="cls-10" d="M269.28,24.79a2.36,2.36,0,0,1-2-2.58,2.34,2.34,0,0,1,2-2.59,2.37,2.37,0,0,1,2.05,2.59A2.37,2.37,0,0,1,269.28,24.79Zm0-4.13c-.54,0-1,.71-1,1.55s.46,1.54,1,1.54,1-.71,1-1.54S269.83,20.66,269.28,20.66Z"/><path class="cls-10" d="M273.45,37.84l-8.36-2.54c-.9-.19-3.07-.82-2.9-2.08a1.63,1.63,0,0,1,1.61-1.39h2a1.64,1.64,0,0,0,1.42-.43,2.94,2.94,0,0,0,.38-2.19l1-.2a4,4,0,0,1-.62,3.08,2.56,2.56,0,0,1-2.23.78h-2a.6.6,0,0,0-.59.49,4.34,4.34,0,0,0,2.14.94l8.4,2.55Z"/><path class="cls-10" d="M265.12,37.84l-.31-1,8.36-2.54c1.06-.24,2.1-.7,2.18-1s-.48-.46-.61-.47h-2a2.55,2.55,0,0,1-2.19-.78A4.08,4.08,0,0,1,269.9,29l1,.2-.51-.1.51.1a2.94,2.94,0,0,0,.38,2.19,1.6,1.6,0,0,0,1.38.43h2.07a1.63,1.63,0,0,1,1.62,1.39c.17,1.26-2,1.89-2.94,2.09Z"/><path class="cls-10" d="M409.44,24A2.58,2.58,0,1,1,412,21.43,2.58,2.58,0,0,1,409.44,24Zm0-4a1.43,1.43,0,1,0,1.43,1.43A1.44,1.44,0,0,0,409.44,20Z"/><path class="cls-11" d="M405.44,36.29a15.22,15.22,0,0,1,1.28-6.42c.8-1.65,1.8-2.44,2.72-2.44s1.92.79,2.72,2.44a15.22,15.22,0,0,1,1.28,6.42c0,.49,0,1-.05,1.43h1.15c0-.46,0-.94,0-1.43a16.27,16.27,0,0,0-1.4-6.91c-.85-1.76-2.14-3.09-3.75-3.09s-2.89,1.33-3.75,3.09a16.27,16.27,0,0,0-1.39,6.91c0,.49,0,1,.05,1.43h1.14C405.46,37.26,405.44,36.78,405.44,36.29Z"/><path class="cls-10" d="M311.32,34.76H297.17a2.7,2.7,0,0,1-2.71-2.7v-9.8a2.71,2.71,0,0,1,2.71-2.71h14.15A2.71,2.71,0,0,1,314,22.26v9.8A2.7,2.7,0,0,1,311.32,34.76ZM297.17,20.64a1.63,1.63,0,0,0-1.62,1.62v9.8a1.62,1.62,0,0,0,1.62,1.61h14.15a1.62,1.62,0,0,0,1.62-1.61v-9.8a1.63,1.63,0,0,0-1.62-1.62Z"/><rect class="cls-10" x="295" y="30.73" width="18.48" height="1.09"/><rect class="cls-10" x="301.21" y="36.82" width="6.08" height="1.09"/><rect class="cls-10" x="304.67" y="34.07" width="1.09" height="3.29"/><rect class="cls-10" x="302.73" y="34.07" width="1.09" height="3.29"/><path class="cls-10" d="M347.78,34.79H333.46c-1.61,0-2.74-1.33-2.74-3.23V22.7h1.1v8.86c0,1.3.64,2.14,1.64,2.14h14.32a1.65,1.65,0,0,0,1.64-1.65V23.13h1.09v8.92A2.74,2.74,0,0,1,347.78,34.79Z"/><rect class="cls-10" x="337.54" y="30.1" width="6.15" height="1.09"/><rect class="cls-10" x="339.09" y="30.65" width="1.09" height="3.82"/><rect class="cls-10" x="341.06" y="30.65" width="1.09" height="3.82"/><path class="cls-10" d="M352.34,23.45H328.89l1.19-2.27a3,3,0,0,1,2.81-1.77h15.46a3,3,0,0,1,2.82,1.79Zm-21.65-1.09h19.85l-.38-.73a1.91,1.91,0,0,0-1.81-1.13H332.89a1.92,1.92,0,0,0-1.82,1.13Z"/><path class="cls-12" d="M342.34,12.08"/><path class="cls-10" d="M383.42,38.06H372.31a2.3,2.3,0,0,1-2.25-2.35l.77-8.25a2.28,2.28,0,0,1,2.24-2.3h9.59a2.29,2.29,0,0,1,2.24,2.35l.76,8.15A2.3,2.3,0,0,1,383.42,38.06ZM373.07,26.25a1.21,1.21,0,0,0-1.15,1.26l-.77,8.25A1.2,1.2,0,0,0,372.31,37h11.11a1.2,1.2,0,0,0,1.15-1.26l-.76-8.15a1.22,1.22,0,0,0-1.15-1.31Z"/><path class="cls-10" d="M380.65,37.84l-.6-15.15a2.35,2.35,0,0,0-2.19-2.5,2.27,2.27,0,0,0-2.18,2.48l-.6,15.17-1.09,0,.6-15.15a3.35,3.35,0,0,1,3.27-3.55,3.44,3.44,0,0,1,3.28,3.57l.6,15.13Z"/><path class="cls-10" d="M276,80.31H262.56a2,2,0,0,1-2-2V65.66a2,2,0,0,1,2-2H276a2,2,0,0,1,2,2V78.27A2,2,0,0,1,276,80.31Zm-13.47-15.5a.85.85,0,0,0-.85.85V78.27a.86.86,0,0,0,.85.86H276a.86.86,0,0,0,.85-.86V65.66a.85.85,0,0,0-.85-.85Z"/><rect class="cls-10" x="261.79" y="67.05" width="16.16" height="1.18"/><rect class="cls-10" x="262.94" y="61.54" width="2.31" height="2.2"/><path class="cls-10" d="M265.85,64.34h-3.51v-3.4h3.51Zm-2.3-1.21h1.1v-1h-1.1Z"/><rect class="cls-10" x="273.33" y="61.54" width="2.31" height="2.2"/><path class="cls-10" d="M276.24,64.34h-3.51v-3.4h3.51Zm-2.31-1.21H275v-1h-1.11Z"/><rect class="cls-13" x="263.42" y="69.7" width="1.35" height="1.23"/><rect class="cls-13" x="263.42" y="73" width="1.35" height="1.23"/><rect class="cls-13" x="263.42" y="76.29" width="1.35" height="1.23"/><rect class="cls-13" x="266.89" y="69.7" width="1.35" height="1.23"/><rect class="cls-13" x="266.89" y="73" width="1.35" height="1.23"/><rect class="cls-13" x="266.89" y="76.29" width="1.35" height="1.23"/><rect class="cls-13" x="270.35" y="69.7" width="1.35" height="1.23"/><rect class="cls-13" x="270.35" y="73" width="1.35" height="1.23"/><rect class="cls-13" x="270.35" y="76.29" width="1.35" height="1.23"/><rect class="cls-13" x="273.81" y="69.7" width="1.35" height="1.23"/><rect class="cls-13" x="273.81" y="73" width="1.35" height="1.23"/><rect class="cls-13" x="273.81" y="76.29" width="1.35" height="1.23"/><path class="cls-10" d="M268.47,124.59a.74.74,0,0,1-.78-.69c0-.25-.09-.5-.13-.76s-.09-.55-.13-.82c0-.12,0-.17-.21-.23a12.22,12.22,0,0,1-1.61-.66c-.22-.1-.28-.07-.4,0s-.51.38-.78.56l-.52.37a.74.74,0,0,1-1-.09q-.56-.57-1.14-1.14a.74.74,0,0,1-.08-1c.15-.21.3-.41.44-.62l.5-.69c.09-.11.09-.15,0-.27a6.54,6.54,0,0,1-.75-1.79c0-.1-.05-.13-.18-.15-.3,0-.59-.09-.89-.15l-.75-.12a.74.74,0,0,1-.67-.79q0-.81,0-1.62a.74.74,0,0,1,.65-.79l.62-.1c.32,0,.64-.11,1-.15s.2-.07.23-.2a6.6,6.6,0,0,1,.7-1.72c.09-.14.09-.2,0-.35s-.37-.51-.56-.77l-.36-.52a.74.74,0,0,1,.08-1q.58-.57,1.14-1.14a.74.74,0,0,1,1-.09l.63.45.71.51a.16.16,0,0,0,.23,0,6.83,6.83,0,0,1,1.81-.76c.1,0,.14-.05.16-.19.05-.33.1-.66.16-1l.1-.58a.74.74,0,0,1,.87-.74H269q.56,0,1.11,0a.74.74,0,0,1,.79.68l.12.77.15.86c0,.08,0,.11.16.16.39.13.8.28,1.32.49a2.47,2.47,0,0,1,.46.23l.1.05c.06,0,.08,0,.17,0l.52-.38.83-.6a.75.75,0,0,1,1.05.09c.37.38.75.76,1.14,1.13a.75.75,0,0,1,.08,1l-.4.56-.54.76c-.11.13-.09.17,0,.28a7.1,7.1,0,0,1,.75,1.8c0,.11.05.12.13.13l.95.16.68.11a.73.73,0,0,1,.71.83v.48c0,.36,0,.71,0,1.07a.77.77,0,0,1-.7.83l-.81.13-.78.12c-.13,0-.16,0-.2.18a6.45,6.45,0,0,1-.72,1.75c-.08.13-.09.17,0,.32l.56.78c.12.18.24.35.37.52a.75.75,0,0,1-.08,1l-1.17,1.16a.72.72,0,0,1-1,.08c-.45-.32-.9-.65-1.36-1l-.11-.06-.1,0a8.6,8.6,0,0,1-1.87.77c-.06,0-.08,0-.1.12-.05.32-.1.64-.16,1l-.11.69a.72.72,0,0,1-.82.69h-1.6Zm-3.08-4.3a1.54,1.54,0,0,1,.69.18,14.4,14.4,0,0,0,1.49.6,1.3,1.3,0,0,1,.93,1.09c0,.27.08.54.13.81s.06.35.08.53h1.15l.08-.48c.05-.31.11-.63.16-.94a1.17,1.17,0,0,1,.89-1,6.76,6.76,0,0,0,1.61-.66,2,2,0,0,1,.34-.14l.33-.13.32.15a1.8,1.8,0,0,1,.36.19c.4.27.79.55,1.18.83l.81-.81-.23-.33-.55-.75a1.28,1.28,0,0,1-.09-1.52,5.63,5.63,0,0,0,.61-1.47,1.23,1.23,0,0,1,1.09-1l.76-.13.6-.09c0-.3,0-.58,0-.87v-.28l-.49-.08-.93-.15a1.18,1.18,0,0,1-1-.92,5.86,5.86,0,0,0-.64-1.53,1.26,1.26,0,0,1,.09-1.48c.18-.24.36-.49.53-.74l.26-.36-.81-.81-.65.47-.51.37a1.2,1.2,0,0,1-1.33.09l-.11-.07a1.82,1.82,0,0,0-.31-.16c-.51-.2-.9-.34-1.27-.46a1.24,1.24,0,0,1-.89-1c0-.29-.09-.57-.14-.85l-.09-.55h-1.15l-.07.42c-.05.32-.11.64-.16,1a1.24,1.24,0,0,1-.94,1.07,6.27,6.27,0,0,0-1.54.64,1.22,1.22,0,0,1-1.42-.07l-.69-.5-.44-.31-.81.81.24.34c.17.24.34.49.53.73a1.29,1.29,0,0,1,.1,1.56,5.36,5.36,0,0,0-.58,1.43,1.26,1.26,0,0,1-1.14,1l-.93.15-.37.07v1.14l.52.09.88.15a1.21,1.21,0,0,1,1.05.94,5.86,5.86,0,0,0,.64,1.51,1.25,1.25,0,0,1-.08,1.46c-.17.22-.33.45-.49.68s-.2.29-.31.43l.81.81.33-.23c.25-.18.51-.35.75-.54A1.35,1.35,0,0,1,265.39,120.29Z"/><path class="cls-10" d="M269.29,111.17a3.51,3.51,0,1,1-3.5,3.51,3.51,3.51,0,0,1,3.5-3.51m0-1.08a4.59,4.59,0,1,0,4.59,4.59,4.59,4.59,0,0,0-4.59-4.59Z"/><path class="cls-10" d="M412.42,78.94a4.66,4.66,0,0,1-3.07-1.13s0,0,0,0v0s0,0,0,0a3.84,3.84,0,0,1,.93-3.46c1.63-1.81,5-2.57,10-2.27a.24.24,0,0,1,.2.11.23.23,0,0,1,0,.24c-2.34,4.05-4.82,6.26-7.36,6.58A4.64,4.64,0,0,1,412.42,78.94Zm-2.66-1.41a4.26,4.26,0,0,0,3.23.91c2.27-.29,4.62-2.37,6.8-6-4.55-.23-7.72.51-9.18,2.12A3.44,3.44,0,0,0,409.76,77.53Z"/><path class="cls-10" d="M412.42,79.21a5,5,0,0,1-3.25-1.2.44.44,0,0,1-.09-.11.49.49,0,0,1-.06-.13,4.12,4.12,0,0,1,1-3.71c1.69-1.87,5.13-2.66,10.21-2.36a.52.52,0,0,1,.41.24.49.49,0,0,1,0,.51c-2.39,4.12-4.93,6.38-7.56,6.72C412.86,79.19,412.64,79.21,412.42,79.21ZM410,77.38a4,4,0,0,0,3,.8c2.1-.27,4.3-2.18,6.37-5.53-4.22-.14-7.17.56-8.53,2.06A3.19,3.19,0,0,0,410,77.38Z"/><path class="cls-10" d="M406.46,78.94a4.4,4.4,0,0,1-.62,0c-2.54-.32-5-2.53-7.37-6.58a.22.22,0,0,1,0-.22.27.27,0,0,1,.22-.13c5-.3,8.35.46,10,2.27a3.87,3.87,0,0,1,.93,3.46l0,0,0,.06A4.73,4.73,0,0,1,406.46,78.94Zm-7.36-6.53c2.18,3.66,4.52,5.74,6.8,6a4.3,4.3,0,0,0,3.23-.91,3.48,3.48,0,0,0-.85-3C406.82,72.92,403.65,72.18,399.1,72.41Zm10.25,5.24h0Z"/><path class="cls-10" d="M406.46,79.21c-.22,0-.44,0-.66,0-2.62-.34-5.17-2.6-7.56-6.72a.5.5,0,0,1,0-.49.55.55,0,0,1,.43-.26c5.08-.31,8.51.49,10.2,2.36a4.06,4.06,0,0,1,1,3.71l-.05.12-.09.12A5,5,0,0,1,406.46,79.21Zm-6.9-6.56c2.07,3.35,4.27,5.26,6.37,5.53a4.08,4.08,0,0,0,3-.8,3.21,3.21,0,0,0-.81-2.67C406.72,73.21,403.78,72.51,399.56,72.65Z"/><path class="cls-10" d="M409.4,78.14h-.07a4.39,4.39,0,0,1-2.88-2.39c-1-2.17-.11-5.24,2.55-9.12a.24.24,0,0,1,.21-.11.25.25,0,0,1,.23.1c2.78,3.81,3.73,6.86,2.84,9.06a4.41,4.41,0,0,1-2.81,2.46h-.07Zm-.17-11c-2.38,3.55-3.18,6.46-2.32,8.4a2.47,2.47,0,0,0,4.89-.06C412.6,73.53,411.71,70.65,409.23,67.16Z"/><path class="cls-10" d="M409.41,78.41h0l-.14,0a4.71,4.71,0,0,1-3.06-2.54c-1-2.26-.14-5.42,2.58-9.38a.5.5,0,0,1,.42-.23.56.56,0,0,1,.45.21c2.84,3.89,3.81,7,2.87,9.32a4.71,4.71,0,0,1-3,2.62Zm-.18-10.78c-2.15,3.33-2.87,6-2.07,7.82a2.21,2.21,0,0,0,4.4,0C412.29,73.58,411.49,70.9,409.23,67.63Z"/><circle class="cls-10" cx="409.44" cy="61.65" r="1.47"/><path class="cls-10" d="M310.56,80.37H295.44V62.07h17.64V77.86A2.51,2.51,0,0,1,310.56,80.37Zm-14.09-1h14.09a1.49,1.49,0,0,0,1.49-1.48V63.1H296.47Z"/><rect class="cls-10" x="309.27" y="61.59" width="1.3" height="2.25"/><path class="cls-10" d="M310.9,64.46h-2V61h2Zm-1.3-1.23h.62v-1h-.62Z"/><rect class="cls-10" x="297.97" y="61.59" width="1.3" height="2.25"/><path class="cls-10" d="M299.61,64.46h-2V61h2Zm-1.3-1.23h.62v-1h-.62Z"/><rect class="cls-10" x="303.62" y="61.59" width="1.3" height="2.25"/><path class="cls-10" d="M305.25,64.46h-2V61h2ZM304,63.23h.62v-1H304Z"/><rect class="cls-10" x="296.28" y="65.72" width="16.61" height="1.03"/><path class="cls-10" d="M306.91,70.17h-8.63a.61.61,0,1,1,0-1.21h8.63a.61.61,0,1,1,0,1.21Z"/><path class="cls-10" d="M304.92,73.49h-6.64a.61.61,0,1,1,0-1.21h6.64a.61.61,0,1,1,0,1.21Z"/><path class="cls-10" d="M303.59,76.81h-5.31a.61.61,0,1,1,0-1.21h5.31a.61.61,0,1,1,0,1.21Z"/><path class="cls-6" d="M309.57,76.37l6.88-7.21-2.63-2.5-6.88,7.2-1.16,3.33a.43.43,0,0,0,.52.49Z"/><path class="cls-10" d="M306.2,78.31a1,1,0,0,1-.71-.3,1,1,0,0,1-.28-1l1.16-3.32a.54.54,0,0,1,.13-.22l6.88-7.21a.6.6,0,0,1,.86,0l2.62,2.51a.58.58,0,0,1,0,.85L310,76.79a.64.64,0,0,1-.22.14l-3.27,1.32A.87.87,0,0,1,306.2,78.31Zm.16-.92Zm-.29-.27Zm1.4-2.93-1,2.75,2.71-1.08,6.37-6.68-1.75-1.67Zm2.1,2.18Z"/><line class="cls-6" x1="306.94" y1="73.86" x2="309.57" y2="76.37"/><path class="cls-10" d="M309.57,77a.63.63,0,0,1-.42-.17l-2.63-2.51a.6.6,0,1,1,.84-.87l2.63,2.5a.61.61,0,0,1,0,.86A.59.59,0,0,1,309.57,77Z"/><path class="cls-10" d="M340.62,80.28a9.75,9.75,0,1,1,9.74-9.75A9.76,9.76,0,0,1,340.62,80.28Zm0-18.19a8.44,8.44,0,1,0,8.43,8.44A8.45,8.45,0,0,0,340.62,62.09Z"/><polygon class="cls-10" points="345.53 71.78 339.56 71.78 339.56 66.03 340.86 66.03 340.86 70.48 345.53 70.48 345.53 71.78"/><g class="cls-14"><path class="cls-10" d="M378.79,80.83H377v-.06c-3-.43-5.91-3-7.25-6.47l-.67.2.24-.75a3.78,3.78,0,0,1-.84-.76l-.09.05-.42-.81h0l-.42-.8.09-.05a3.63,3.63,0,0,1-.09-1.6,2.87,2.87,0,0,1,.66-1.43l-.08-.15.8-.42h0l.21-.11h0v-.14h0c.84-4.26,3.91-7.26,7.83-7.67v0h1.82v0c3.92.41,7,3.4,7.83,7.65h.07v.21l.81.36-.07.16a3,3,0,0,1,.74,1.38,3.79,3.79,0,0,1,0,1.61l.09,0-.37.84h0l-.37.82-.09,0a3.83,3.83,0,0,1-1,.92l.23.76-.66-.2c-1.35,3.47-4.21,6-7.24,6.43Zm-7.34-7.92c1,3.32,3.78,5.83,6.43,5.83s5.39-2.49,6.42-5.81l-.15-.49.33-.11.11-.33.49.15a1.71,1.71,0,0,0,.89-.93h0a1.87,1.87,0,0,0,.15-1.14.72.72,0,0,0-.32-.48h0a.35.35,0,0,0-.14,0h-.12l-.59,0-.17,0v0h0v-.18l-.09-.75c-.5-4-3.22-6.68-6.79-6.68s-6.32,2.71-6.79,6.75l0,.13-.09.79h-.91a.59.59,0,0,0-.2,0h0a.66.66,0,0,0-.28.49,1.86,1.86,0,0,0,.21,1.13h0a1.84,1.84,0,0,0,.88.85l.49-.15.11.34.33.1Z"/></g><path class="cls-10" d="M377.68,73.46h-.91V71.34a1.58,1.58,0,0,0-.5-1.38c-.55-.41-1.6-.36-3.09.14l-.29-.86c.67-.23,2.7-.9,3.92,0a2.42,2.42,0,0,1,.87,2.12Z"/><rect class="cls-10" x="379.72" y="69.03" width="3.15" height="0.91"/><path class="cls-10" d="M377.93,76a4.36,4.36,0,0,1-2.61-.89l.56-.71a3.16,3.16,0,0,0,3.94,0l.57.71A3.87,3.87,0,0,1,377.93,76Z"/><path class="cls-10" d="M74.12,85.44H72.84v-.33h1.28Z"/><path class="cls-10" d="M78.17,83.79h-1v2.82H76.7V83.79h-1v-.34h2.5Z"/><path class="cls-10" d="M79.32,86.66a1,1,0,0,1-.79-.33,1.21,1.21,0,0,1-.28-.85v-.09a1.19,1.19,0,0,1,.29-.84.91.91,0,0,1,.71-.33.87.87,0,0,1,.71.29,1.21,1.21,0,0,1,.24.78v.23H78.69a1,1,0,0,0,.15.57.55.55,0,0,0,.48.22,1.12,1.12,0,0,0,.38-.06.88.88,0,0,0,.28-.17l.17.28a.88.88,0,0,1-.33.2A1.28,1.28,0,0,1,79.32,86.66Zm-.07-2.1a.45.45,0,0,0-.37.17.77.77,0,0,0-.18.44h1.07v0a.67.67,0,0,0-.13-.43A.45.45,0,0,0,79.25,84.56Z"/><path class="cls-10" d="M81.47,85.13l.5-.87h.5l-.76,1.16.78,1.19H82l-.52-.89-.52.89h-.5l.79-1.19-.76-1.16H81Z"/><path class="cls-10" d="M83.51,83.7v.56H84v.32h-.44V86a.3.3,0,0,0,.07.23.25.25,0,0,0,.18.07h.08l.08,0,0,.29a.23.23,0,0,1-.14.06.61.61,0,0,1-.6-.13.68.68,0,0,1-.15-.49V84.58h-.37v-.32h.37V83.7Z"/><path class="cls-10" d="M85.78,86a.3.3,0,0,0-.11-.23,1.11,1.11,0,0,0-.41-.16,1.62,1.62,0,0,1-.63-.25.5.5,0,0,1-.23-.43.61.61,0,0,1,.25-.49,1,1,0,0,1,.63-.2.93.93,0,0,1,.65.22.61.61,0,0,1,.23.5v0h-.41a.35.35,0,0,0-.13-.28.49.49,0,0,0-.34-.12.49.49,0,0,0-.34.1.34.34,0,0,0-.11.24.26.26,0,0,0,.1.22,1.14,1.14,0,0,0,.4.14,1.73,1.73,0,0,1,.65.25.53.53,0,0,1,.23.44.62.62,0,0,1-.26.51,1.2,1.2,0,0,1-1.37,0,.65.65,0,0,1-.24-.53h.41a.39.39,0,0,0,.17.33.66.66,0,0,0,.37.1.64.64,0,0,0,.36-.09A.33.33,0,0,0,85.78,86Z"/><path class="cls-10" d="M74.12,93.23H72.84v-.34h1.28Z"/><path class="cls-10" d="M76.43,94.4H76V91.23h.43Z"/><path class="cls-10" d="M78.09,94.11a.56.56,0,0,0,.35-.13.43.43,0,0,0,.15-.33H79v0a.7.7,0,0,1-.26.54,1,1,0,0,1-.63.23.92.92,0,0,1-.76-.33,1.32,1.32,0,0,1-.27-.84v-.09a1.3,1.3,0,0,1,.27-.84.93.93,0,0,1,.76-.34.88.88,0,0,1,.65.25.81.81,0,0,1,.24.59v0h-.38a.53.53,0,0,0-.14-.37.49.49,0,0,0-.36-.15.5.5,0,0,0-.46.24,1.24,1.24,0,0,0-.14.6v.09a1.2,1.2,0,0,0,.14.59A.49.49,0,0,0,78.09,94.11Z"/><path class="cls-10" d="M79.39,93.2a1.29,1.29,0,0,1,.28-.86,1,1,0,0,1,.77-.34,1,1,0,0,1,.77.34,1.27,1.27,0,0,1,.28.86v0a1.27,1.27,0,0,1-.28.86,1,1,0,0,1-.77.33,1,1,0,0,1-.77-.33,1.29,1.29,0,0,1-.28-.86Zm.43,0a1.13,1.13,0,0,0,.15.61.57.57,0,0,0,.94,0,1.13,1.13,0,0,0,.15-.61v0a1,1,0,0,0-.16-.61.5.5,0,0,0-.46-.25.52.52,0,0,0-.47.25,1.13,1.13,0,0,0-.15.61Z"/><path class="cls-10" d="M82.4,92.05l0,.35a.81.81,0,0,1,.29-.29.78.78,0,0,1,.41-.11.74.74,0,0,1,.58.23.94.94,0,0,1,.21.68V94.4h-.43V92.92a.64.64,0,0,0-.12-.44.46.46,0,0,0-.37-.13.71.71,0,0,0-.34.08.66.66,0,0,0-.22.22V94.4H82V92.05Z"/><path class="cls-10" d="M85.91,93.77a.3.3,0,0,0-.11-.24,1.07,1.07,0,0,0-.4-.15,1.67,1.67,0,0,1-.64-.25.5.5,0,0,1-.22-.43.62.62,0,0,1,.24-.49.92.92,0,0,1,.63-.21,1,1,0,0,1,.65.22.67.67,0,0,1,.24.51h-.42a.38.38,0,0,0-.13-.28.49.49,0,0,0-.34-.12.49.49,0,0,0-.34.1.34.34,0,0,0-.11.25.27.27,0,0,0,.1.21,1,1,0,0,0,.4.14,1.59,1.59,0,0,1,.65.26.51.51,0,0,1,.23.43.65.65,0,0,1-.26.52,1,1,0,0,1-.66.19,1,1,0,0,1-.7-.23.62.62,0,0,1-.25-.53h.41a.41.41,0,0,0,.17.33.67.67,0,0,0,.37.11.55.55,0,0,0,.36-.1A.28.28,0,0,0,85.91,93.77Z"/><path class="cls-10" d="M88.15,94.4v-2h-.36v-.31h.36v-.3a.82.82,0,0,1,.2-.58A.71.71,0,0,1,88.9,91l.15,0,.16,0,0,.32H89a.36.36,0,0,0-.28.11.54.54,0,0,0-.09.33v.3H89v.31h-.43v2Z"/><path class="cls-10" d="M89.34,93.2a1.29,1.29,0,0,1,.28-.86,1,1,0,0,1,1.54,0,1.27,1.27,0,0,1,.28.86v0a1.27,1.27,0,0,1-.28.86,1,1,0,0,1-.77.33,1,1,0,0,1-.77-.33,1.29,1.29,0,0,1-.28-.86Zm.43,0a1.13,1.13,0,0,0,.15.61.53.53,0,0,0,.47.25.52.52,0,0,0,.47-.25,1.13,1.13,0,0,0,.16-.61v0a1.13,1.13,0,0,0-.16-.61.53.53,0,0,0-.47-.25.52.52,0,0,0-.47.25,1.13,1.13,0,0,0-.15.61Z"/><path class="cls-10" d="M91.87,93.2a1.29,1.29,0,0,1,.28-.86,1,1,0,0,1,.77-.34,1,1,0,0,1,.77.34,1.27,1.27,0,0,1,.28.86v0a1.27,1.27,0,0,1-.28.86,1,1,0,0,1-.77.33,1,1,0,0,1-.77-.33,1.29,1.29,0,0,1-.28-.86Zm.43,0a1.13,1.13,0,0,0,.15.61.57.57,0,0,0,.94,0,1.13,1.13,0,0,0,.15-.61v0a1,1,0,0,0-.16-.61.5.5,0,0,0-.46-.25.52.52,0,0,0-.47.25,1.13,1.13,0,0,0-.15.61Z"/><path class="cls-10" d="M95.09,91.48v.57h.45v.31h-.45v1.43a.29.29,0,0,0,.07.23.24.24,0,0,0,.18.07h.08l.08,0,.06.29a.37.37,0,0,1-.14.07l-.19,0a.56.56,0,0,1-.41-.15.67.67,0,0,1-.16-.5V92.36h-.37v-.31h.37v-.57Z"/><path class="cls-10" d="M97,94.44a1,1,0,0,1-.79-.32,1.25,1.25,0,0,1-.29-.85v-.1a1.22,1.22,0,0,1,.3-.84A.91.91,0,0,1,96.9,92a.86.86,0,0,1,.71.3,1.23,1.23,0,0,1,.23.78v.22H96.33a1,1,0,0,0,.16.58.56.56,0,0,0,.48.22,1.12,1.12,0,0,0,.38-.06.88.88,0,0,0,.28-.17l.17.27a1.23,1.23,0,0,1-.34.21A1.4,1.4,0,0,1,97,94.44Zm-.07-2.1a.48.48,0,0,0-.37.17.83.83,0,0,0-.18.44v0h1.06v0a.7.7,0,0,0-.13-.42A.45.45,0,0,0,96.9,92.34Z"/><path class="cls-10" d="M99.43,92.42h-.21a.47.47,0,0,0-.47.31V94.4h-.43V92.05h.39l0,.34a.74.74,0,0,1,.24-.28.58.58,0,0,1,.34-.11h.09l.07,0Z"/><path class="cls-10" d="M102.43,94.4a1.81,1.81,0,0,1,0-.19,1,1,0,0,1,0-.16,1.05,1.05,0,0,1-.31.28.87.87,0,0,1-.41.11.75.75,0,0,1-.56-.19.66.66,0,0,1-.19-.51.61.61,0,0,1,.27-.53,1.25,1.25,0,0,1,.74-.19h.46v-.23a.45.45,0,0,0-.12-.33.52.52,0,0,0-.36-.12.53.53,0,0,0-.34.1.33.33,0,0,0-.12.25H101a.55.55,0,0,1,.24-.47,1.11,1.11,0,0,1,1.31,0,.71.71,0,0,1,.24.58v1.13a2,2,0,0,0,0,.25,1.89,1.89,0,0,0,.05.23Zm-.71-.32a.79.79,0,0,0,.42-.12.56.56,0,0,0,.24-.27v-.38h-.48a.59.59,0,0,0-.41.13.41.41,0,0,0-.16.31.33.33,0,0,0,.1.24A.42.42,0,0,0,101.72,94.08Z"/><path class="cls-10" d="M103.81,92.05l0,.35a.83.83,0,0,1,.3-.29.83.83,0,0,1,1,.12.94.94,0,0,1,.21.68V94.4h-.43V92.92a.64.64,0,0,0-.12-.44.49.49,0,0,0-.38-.13.67.67,0,0,0-.33.08.58.58,0,0,0-.22.22V94.4h-.43V92.05Z"/><path class="cls-10" d="M105.86,93.27a1.59,1.59,0,0,1,.24-.92.8.8,0,0,1,.68-.35.87.87,0,0,1,.37.08.64.64,0,0,1,.27.22V91h.43V94.4h-.33l-.06-.3a.89.89,0,0,1-.29.26.93.93,0,0,1-.39.08.79.79,0,0,1-.67-.31,1.25,1.25,0,0,1-.25-.82Zm.43,0a1,1,0,0,0,.15.57.5.5,0,0,0,.45.22.57.57,0,0,0,.32-.09.61.61,0,0,0,.21-.24v-1.1a.52.52,0,0,0-.21-.23.57.57,0,0,0-.32-.09.48.48,0,0,0-.45.26,1.24,1.24,0,0,0-.15.66Z"/><path class="cls-10" d="M110,92.05l0,.31a.66.66,0,0,1,.29-.26.78.78,0,0,1,.41-.1.72.72,0,0,1,.4.11.68.68,0,0,1,.26.33.82.82,0,0,1,.29-.32.74.74,0,0,1,.42-.12.73.73,0,0,1,.57.25,1.11,1.11,0,0,1,.21.74V94.4h-.43V93a.76.76,0,0,0-.12-.49.43.43,0,0,0-.35-.15.46.46,0,0,0-.36.15.69.69,0,0,0-.16.39h0v1.5H111V93a.82.82,0,0,0-.12-.49.43.43,0,0,0-.35-.15.67.67,0,0,0-.33.08.55.55,0,0,0-.19.23V94.4h-.43V92.05Z"/><path class="cls-10" d="M113.38,93.2a1.35,1.35,0,0,1,.28-.86,1,1,0,0,1,.77-.34,1,1,0,0,1,.77.34,1.28,1.28,0,0,1,.29.86v0a1.28,1.28,0,0,1-.29.86.94.94,0,0,1-.77.33,1,1,0,0,1-.77-.33,1.35,1.35,0,0,1-.28-.86Zm.43,0a1,1,0,0,0,.16.61.5.5,0,0,0,.46.25.52.52,0,0,0,.47-.25,1,1,0,0,0,.16-.61v0a1.13,1.13,0,0,0-.16-.61.52.52,0,0,0-.47-.25.5.5,0,0,0-.46.25,1,1,0,0,0-.16.61Z"/><path class="cls-10" d="M118,93.31a1.31,1.31,0,0,1-.25.82.79.79,0,0,1-.67.31.88.88,0,0,1-.41-.09.72.72,0,0,1-.28-.27l-.07.32H116V91h.43v1.32a.62.62,0,0,1,.27-.24.8.8,0,0,1,.39-.09.77.77,0,0,1,.67.35,1.52,1.52,0,0,1,.25.92Zm-.43,0a1.29,1.29,0,0,0-.15-.66.49.49,0,0,0-.45-.26.55.55,0,0,0-.34.1.61.61,0,0,0-.21.26v1a.71.71,0,0,0,.21.27.62.62,0,0,0,.34.1.52.52,0,0,0,.45-.22,1,1,0,0,0,.15-.57Z"/><path class="cls-10" d="M119,91.45h-.43V91H119Zm0,3h-.43V92.05H119Z"/><path class="cls-10" d="M120.12,94.4h-.43V91h.43Z"/><path class="cls-10" d="M121.75,94.44a1,1,0,0,1-.79-.32,1.25,1.25,0,0,1-.28-.85v-.1a1.26,1.26,0,0,1,.29-.84.92.92,0,0,1,.71-.33.85.85,0,0,1,.71.3,1.17,1.17,0,0,1,.24.78v.22h-1.51a1,1,0,0,0,.15.58.58.58,0,0,0,.48.22,1.08,1.08,0,0,0,.38-.06.78.78,0,0,0,.28-.17l.17.27a1,1,0,0,1-.33.21A1.46,1.46,0,0,1,121.75,94.44Zm-.07-2.1a.5.5,0,0,0-.37.17.9.9,0,0,0-.17.44v0h1.06v0a.64.64,0,0,0-.13-.42A.45.45,0,0,0,121.68,92.34Z"/><path class="cls-10" d="M74.12,101H72.84v-.33h1.28Z"/><path class="cls-10" d="M76,102.18V99h1a1.3,1.3,0,0,1,1.38,1.37v.43a1.33,1.33,0,0,1-.38,1,1.31,1.31,0,0,1-1,.38Zm.43-2.82v2.49H77a.89.89,0,0,0,.7-.29,1.07,1.07,0,0,0,.25-.74v-.44a1.09,1.09,0,0,0-.25-.74.88.88,0,0,0-.7-.28Z"/><path class="cls-10" d="M80.56,101.37H79.37l-.28.81h-.44L79.79,99h.37l1.11,3.16h-.43ZM79.49,101h1L80,99.65h0Z"/><path class="cls-10" d="M82.17,100.81v1.37h-.43V99h1.08a1.2,1.2,0,0,1,.79.23.81.81,0,0,1,.28.67.68.68,0,0,1-.13.42.85.85,0,0,1-.37.29.7.7,0,0,1,.38.28.93.93,0,0,1,.11.47v.29a1.12,1.12,0,0,0,0,.27.4.4,0,0,0,.11.19v.05h-.44a.35.35,0,0,1-.1-.22,1.36,1.36,0,0,1,0-.29v-.29a.56.56,0,0,0-.15-.41.51.51,0,0,0-.4-.16Zm0-.34h.61a.81.81,0,0,0,.52-.13.63.63,0,0,0,0-.84.66.66,0,0,0-.48-.14h-.65Z"/><path class="cls-10" d="M85.28,100.75H85v1.43h-.43V99H85v1.4h.23L86.41,99h.48l-1.28,1.5L87,102.17h-.52Z"/><path class="cls-10" d="M90.07,101.59h0l1-2.57h.54v3.16H91.2V99.81h0l-1,2.37h-.3l-1-2.45h0v2.45H88.5V99h.57Z"/><path class="cls-10" d="M94.78,100.88a1.33,1.33,0,0,1-.36,1,1.21,1.21,0,0,1-.93.39,1.14,1.14,0,0,1-.9-.39,1.37,1.37,0,0,1-.35-1v-.56a1.37,1.37,0,0,1,.35-1,1.14,1.14,0,0,1,.9-.39,1.21,1.21,0,0,1,.93.39,1.33,1.33,0,0,1,.36,1Zm-.43-.56a1.07,1.07,0,0,0-.23-.72.8.8,0,0,0-.63-.27.74.74,0,0,0-.6.27,1.19,1.19,0,0,0-.22.72v.56a1.19,1.19,0,0,0,.22.72.82.82,0,0,0,1.23,0,1,1,0,0,0,.23-.72Z"/><path class="cls-10" d="M95.4,102.18V99h1a1.3,1.3,0,0,1,1.38,1.37v.43a1.33,1.33,0,0,1-.38,1,1.31,1.31,0,0,1-1,.38Zm.43-2.82v2.49h.56a.89.89,0,0,0,.7-.29,1.12,1.12,0,0,0,.25-.74v-.44a1.14,1.14,0,0,0-.25-.74.88.88,0,0,0-.7-.28Z"/><path class="cls-10" d="M100.14,100.72h-1.3v1.13h1.52v.33h-2V99h1.93v.34h-1.5v1h1.3Z"/><path class="cls-10" d="M103.08,102.18V99h1a1.24,1.24,0,0,1,.77.21.76.76,0,0,1,.28.64.61.61,0,0,1-.12.37.86.86,0,0,1-.34.25.75.75,0,0,1,.5.27.9.9,0,0,1-.1,1.19,1.22,1.22,0,0,1-.77.23Zm.43-1.82h.69a.56.56,0,0,0,.39-.13.46.46,0,0,0,.15-.36.48.48,0,0,0-.17-.39.74.74,0,0,0-.46-.12h-.6Zm0,.34v1.15h.82a.65.65,0,0,0,.46-.15.53.53,0,0,0,.16-.41.57.57,0,0,0-.17-.42.65.65,0,0,0-.44-.17h-.83Z"/><path class="cls-10" d="M107.29,102.18l0-.19a.88.88,0,0,1,0-.16.93.93,0,0,1-.31.28.75.75,0,0,1-.41.12A.79.79,0,0,1,106,102a.69.69,0,0,1-.19-.52A.62.62,0,0,1,106,101a1.33,1.33,0,0,1,.74-.19h.46v-.23a.42.42,0,0,0-.12-.32.48.48,0,0,0-.36-.13.53.53,0,0,0-.34.11.32.32,0,0,0-.12.25h-.41a.56.56,0,0,1,.24-.47,1.13,1.13,0,0,1,1.3,0,.73.73,0,0,1,.24.59v1.13c0,.08,0,.16,0,.24a1.55,1.55,0,0,0,0,.23Zm-.71-.31a.74.74,0,0,0,.42-.12.55.55,0,0,0,.24-.27v-.39h-.48a.65.65,0,0,0-.41.13.41.41,0,0,0-.16.31.36.36,0,0,0,.1.25A.42.42,0,0,0,106.58,101.87Z"/><path class="cls-10" d="M109.23,101.89a.48.48,0,0,0,.34-.13.41.41,0,0,0,.15-.32h.39a.67.67,0,0,1-.26.54.91.91,0,0,1-.62.24,1,1,0,0,1-.77-.34,1.28,1.28,0,0,1-.27-.84V101a1.27,1.27,0,0,1,.27-.83.92.92,0,0,1,.77-.34.89.89,0,0,1,.64.24.74.74,0,0,1,.24.6h-.39a.52.52,0,0,0-.14-.36.43.43,0,0,0-.35-.16.5.5,0,0,0-.46.25,1.1,1.1,0,0,0-.15.59v.09a1.21,1.21,0,0,0,.14.6A.51.51,0,0,0,109.23,101.89Z"/><path class="cls-10" d="M111.27,101.1h-.22v1.08h-.43V98.79h.43v2h.22l.7-.93h.51l-.85,1.09.93,1.26h-.51Z"/><path class="cls-10" d="M112.78,101.05a1.56,1.56,0,0,1,.24-.91.78.78,0,0,1,.68-.35.8.8,0,0,1,.39.09.72.72,0,0,1,.29.26l.05-.31h.34v2.36a.91.91,0,0,1-.26.7,1.1,1.1,0,0,1-.76.24,1.8,1.8,0,0,1-.37,0A1.5,1.5,0,0,1,113,103l.06-.34a1.33,1.33,0,0,0,.3.11,1.39,1.39,0,0,0,.35,0,.64.64,0,0,0,.45-.14.58.58,0,0,0,.14-.44v-.26a.71.71,0,0,1-.27.22.87.87,0,0,1-.37.08.85.85,0,0,1-.68-.31,1.33,1.33,0,0,1-.24-.82Zm.43,0a1,1,0,0,0,.15.56.47.47,0,0,0,.44.22.56.56,0,0,0,.54-.34v-1.08a.61.61,0,0,0-.21-.24.57.57,0,0,0-.32-.08.47.47,0,0,0-.45.25,1.29,1.29,0,0,0-.15.66Z"/><path class="cls-10" d="M116.5,100.21h-.22a.47.47,0,0,0-.29.08.67.67,0,0,0-.18.22v1.68h-.42V99.83h.38l0,.34a.85.85,0,0,1,.25-.28.54.54,0,0,1,.33-.1h.17Z"/><path class="cls-10" d="M116.8,101a1.26,1.26,0,0,1,.28-.85,1,1,0,0,1,.77-.34,1,1,0,0,1,.77.33,1.31,1.31,0,0,1,.28.86v0a1.27,1.27,0,0,1-.28.86.93.93,0,0,1-.77.34,1,1,0,0,1-.77-.34,1.27,1.27,0,0,1-.28-.86Zm.43,0a1.08,1.08,0,0,0,.16.62.51.51,0,0,0,.46.24.53.53,0,0,0,.47-.24,1.16,1.16,0,0,0,.16-.62v0a1.15,1.15,0,0,0-.16-.61.55.55,0,0,0-.47-.25.51.51,0,0,0-.46.25,1.07,1.07,0,0,0-.16.61Z"/><path class="cls-10" d="M120.92,101.83a.81.81,0,0,1-.28.3.89.89,0,0,1-.41.1.76.76,0,0,1-.6-.25,1.15,1.15,0,0,1-.21-.76V99.83h.43v1.39a.85.85,0,0,0,.11.52.42.42,0,0,0,.34.14.71.71,0,0,0,.38-.09.65.65,0,0,0,.23-.26v-1.7h.42v2.35H121Z"/><path class="cls-10" d="M122.34,99.83l0,.35a1,1,0,0,1,.29-.29.8.8,0,0,1,.41-.1.73.73,0,0,1,.58.22,1,1,0,0,1,.21.69v1.48h-.42v-1.47a.62.62,0,0,0-.13-.44.46.46,0,0,0-.37-.13.71.71,0,0,0-.34.07.69.69,0,0,0-.22.23v1.74H122V99.83Z"/><path class="cls-10" d="M124.39,101.05a1.56,1.56,0,0,1,.24-.91.77.77,0,0,1,.68-.35.8.8,0,0,1,.36.07.77.77,0,0,1,.28.23v-1.3h.42v3.39h-.32l-.07-.3a.77.77,0,0,1-.28.26.87.87,0,0,1-.4.09.83.83,0,0,1-.67-.31,1.33,1.33,0,0,1-.24-.82Zm.42,0a1,1,0,0,0,.15.57.52.52,0,0,0,.45.21.53.53,0,0,0,.32-.09.73.73,0,0,0,.22-.24v-1.1a.8.8,0,0,0-.22-.23.53.53,0,0,0-.31-.08.49.49,0,0,0-.46.25,1.29,1.29,0,0,0-.15.66Z"/><path class="cls-10" d="M74.12,53.51H72.84v-.34h1.28Z"/><path class="cls-10" d="M78.35,54.68h-.43v-1.4H76.39v1.4H76V51.52h.43v1.42h1.53V51.52h.43Z"/><path class="cls-10" d="M80.26,54.68h-.43V51.91h-.69v-.33l1.12-.12Z"/><path class="cls-10" d="M74.12,61.29H72.84V61h1.28Z"/><path class="cls-10" d="M77.72,61.06H76.39v1.4H76V59.3h2v.34H76.39v1.09h1.33Z"/><path class="cls-10" d="M78.82,59.51h-.43v-.44h.43Zm0,3h-.43V60.11h.43Z"/><path class="cls-10" d="M79.4,61.33a1.56,1.56,0,0,1,.24-.91.77.77,0,0,1,.68-.35.79.79,0,0,1,.68.35l0-.31h.34v2.37a.9.9,0,0,1-.26.69,1.1,1.1,0,0,1-.76.24,1.26,1.26,0,0,1-.37,0,1.5,1.5,0,0,1-.34-.12l.06-.33a1.5,1.5,0,0,0,.3.1,1.37,1.37,0,0,0,.34,0,.65.65,0,0,0,.46-.14.62.62,0,0,0,.14-.43v-.27a.71.71,0,0,1-.27.22.89.89,0,0,1-.38.08.83.83,0,0,1-.67-.31,1.33,1.33,0,0,1-.24-.82Zm.43.05A1.09,1.09,0,0,0,80,62a.52.52,0,0,0,.45.21.58.58,0,0,0,.33-.09.65.65,0,0,0,.21-.25V60.74a.61.61,0,0,0-.21-.24.66.66,0,0,0-.32-.08.49.49,0,0,0-.46.25,1.4,1.4,0,0,0-.14.66Z"/><path class="cls-10" d="M83.5,62.11a.84.84,0,0,1-.29.3.85.85,0,0,1-.4.1.73.73,0,0,1-.6-.25A1.15,1.15,0,0,1,82,61.5V60.11h.42V61.5a.93.93,0,0,0,.11.52.44.44,0,0,0,.35.14.74.74,0,0,0,.38-.09.56.56,0,0,0,.22-.26v-1.7h.43v2.35h-.38Z"/><path class="cls-10" d="M85.64,60.49h-.21a.45.45,0,0,0-.29.08.49.49,0,0,0-.18.22v1.68h-.43V60.11h.39l0,.35a.78.78,0,0,1,.24-.29.57.57,0,0,1,.34-.1h.16Z"/><path class="cls-10" d="M87,62.51a1,1,0,0,1-.79-.33,1.23,1.23,0,0,1-.28-.85v-.09a1.24,1.24,0,0,1,.29-.84.92.92,0,0,1,.71-.33.87.87,0,0,1,.71.29,1.21,1.21,0,0,1,.24.78v.23H86.39a1,1,0,0,0,.15.57.55.55,0,0,0,.48.22,1.08,1.08,0,0,0,.38-.06.78.78,0,0,0,.28-.17l.17.28a.88.88,0,0,1-.33.2A1.24,1.24,0,0,1,87,62.51ZM87,60.41a.46.46,0,0,0-.37.17.83.83,0,0,0-.17.44h1.06v0a.65.65,0,0,0-.13-.43A.45.45,0,0,0,87,60.41Z"/><path class="cls-10" d="M89.74,61.83a.29.29,0,0,0-.1-.23,1.19,1.19,0,0,0-.41-.16,1.67,1.67,0,0,1-.64-.25.49.49,0,0,1-.22-.43.63.63,0,0,1,.24-.49,1,1,0,0,1,.64-.2.91.91,0,0,1,.64.22.59.59,0,0,1,.24.5h-.41a.36.36,0,0,0-.14-.27.57.57,0,0,0-.67,0,.3.3,0,0,0-.11.24.29.29,0,0,0,.09.22,1.14,1.14,0,0,0,.4.13,1.88,1.88,0,0,1,.66.26.52.52,0,0,1,.22.44.61.61,0,0,1-.25.51,1.06,1.06,0,0,1-.66.2,1,1,0,0,1-.71-.23.66.66,0,0,1-.25-.53v0h.41a.37.37,0,0,0,.17.34.64.64,0,0,0,.37.1.58.58,0,0,0,.35-.09A.3.3,0,0,0,89.74,61.83Z"/><path class="cls-10" d="M74.12,69.08H72.84v-.34h1.28Z"/><path class="cls-10" d="M76,70.25V67.08h1a1.29,1.29,0,0,1,.78.22.76.76,0,0,1,.28.64.56.56,0,0,1-.13.37.75.75,0,0,1-.33.24.75.75,0,0,1,.49.27.83.83,0,0,1,.18.53A.82.82,0,0,1,78,70a1.22,1.22,0,0,1-.77.23Zm.43-1.82h.69a.61.61,0,0,0,.39-.13.47.47,0,0,0,.15-.37.44.44,0,0,0-.16-.38.73.73,0,0,0-.47-.13h-.6Zm0,.33v1.15h.82a.7.7,0,0,0,.46-.14.53.53,0,0,0,.16-.41.57.57,0,0,0-.16-.43.7.7,0,0,0-.45-.17h-.83Z"/><path class="cls-10" d="M80.17,70.25c0-.07,0-.14,0-.19a1,1,0,0,1,0-.17,1,1,0,0,1-.32.29.81.81,0,0,1-.41.11.76.76,0,0,1-.56-.19.66.66,0,0,1-.19-.51.61.61,0,0,1,.27-.53,1.25,1.25,0,0,1,.74-.19h.47v-.23a.45.45,0,0,0-.13-.33.49.49,0,0,0-.36-.12.48.48,0,0,0-.33.1.31.31,0,0,0-.13.25h-.41a.55.55,0,0,1,.24-.47,1.09,1.09,0,0,1,1.3,0,.71.71,0,0,1,.24.58v1.13a2,2,0,0,0,0,.25,2.23,2.23,0,0,0,0,.23Zm-.71-.32a.74.74,0,0,0,.42-.12.58.58,0,0,0,.25-.27v-.38h-.48a.62.62,0,0,0-.42.13.4.4,0,0,0-.15.3.33.33,0,0,0,.09.25A.44.44,0,0,0,79.46,69.93Z"/><path class="cls-10" d="M82.11,70a.51.51,0,0,0,.34-.13.43.43,0,0,0,.15-.33H83v0a.71.71,0,0,1-.27.54.91.91,0,0,1-.62.23.94.94,0,0,1-.77-.33,1.32,1.32,0,0,1-.26-.84V69a1.3,1.3,0,0,1,.27-.84.93.93,0,0,1,.76-.34.84.84,0,0,1,.64.25.78.78,0,0,1,.25.59v0H82.6a.49.49,0,0,0-.14-.37.45.45,0,0,0-.35-.15.5.5,0,0,0-.46.24,1.13,1.13,0,0,0-.14.6v.09a1.1,1.1,0,0,0,.14.59A.48.48,0,0,0,82.11,70Z"/><path class="cls-10" d="M84.15,69.16h-.22v1.09h-.42V66.86h.42v2h.22l.7-.92h.52L84.51,69l.93,1.27h-.51Z"/><path class="cls-10" d="M85.66,69.11a1.58,1.58,0,0,1,.25-.91.77.77,0,0,1,.67-.35.87.87,0,0,1,.4.09.86.86,0,0,1,.28.26l0-.3h.34v2.36a.87.87,0,0,1-.26.69,1.09,1.09,0,0,1-.76.25,1.63,1.63,0,0,1-.36,0,1.21,1.21,0,0,1-.35-.13l.07-.33a1.1,1.1,0,0,0,.29.1,1.48,1.48,0,0,0,.35,0,.58.58,0,0,0,.45-.15.56.56,0,0,0,.15-.43V70a.77.77,0,0,1-.28.23.87.87,0,0,1-.37.07.79.79,0,0,1-.67-.31,1.31,1.31,0,0,1-.25-.82Zm.43,0a1,1,0,0,0,.15.57.49.49,0,0,0,.45.21.55.55,0,0,0,.32-.08.76.76,0,0,0,.22-.25V68.53a.73.73,0,0,0-.22-.24.55.55,0,0,0-.32-.09.5.5,0,0,0-.45.25,1.29,1.29,0,0,0-.15.66Z"/><path class="cls-10" d="M89.38,68.27h-.22a.49.49,0,0,0-.28.08.47.47,0,0,0-.18.23v1.68h-.43V67.9h.38l0,.34a.76.76,0,0,1,.25-.28.58.58,0,0,1,.34-.11h.09l.07,0Z"/><path class="cls-10" d="M89.68,69.05a1.3,1.3,0,0,1,.29-.86,1,1,0,0,1,1.53,0,1.28,1.28,0,0,1,.29.86v0a1.35,1.35,0,0,1-.28.86,1,1,0,0,1-.77.33A1,1,0,0,1,90,70a1.3,1.3,0,0,1-.29-.86Zm.43,0a1,1,0,0,0,.16.61.51.51,0,0,0,.47.25.5.5,0,0,0,.46-.25,1,1,0,0,0,.16-.61v0a1,1,0,0,0-.16-.61.52.52,0,0,0-.47-.25.5.5,0,0,0-.46.25,1,1,0,0,0-.16.61Z"/><path class="cls-10" d="M93.8,69.9a.86.86,0,0,1-.28.29.77.77,0,0,1-.4.1.75.75,0,0,1-.6-.24,1.12,1.12,0,0,1-.22-.77V67.9h.43v1.39a.87.87,0,0,0,.11.51.4.4,0,0,0,.35.14.7.7,0,0,0,.37-.09.58.58,0,0,0,.23-.26V67.9h.43v2.35h-.39Z"/><path class="cls-10" d="M95.22,67.9l0,.35a.76.76,0,0,1,.3-.29.75.75,0,0,1,.4-.11.78.78,0,0,1,.59.23.94.94,0,0,1,.21.68v1.49h-.43V68.77a.64.64,0,0,0-.12-.44.5.5,0,0,0-.38-.13.67.67,0,0,0-.33.08.52.52,0,0,0-.22.22v1.75h-.43V67.9Z"/><path class="cls-10" d="M97.27,69.11a1.58,1.58,0,0,1,.24-.91.79.79,0,0,1,.68-.35.87.87,0,0,1,.37.08.8.8,0,0,1,.27.22V66.86h.43v3.39h-.33l-.07-.3a.77.77,0,0,1-.28.26.93.93,0,0,1-.39.08.81.81,0,0,1-.68-.31,1.31,1.31,0,0,1-.24-.82Zm.43,0a1,1,0,0,0,.14.57.52.52,0,0,0,.45.21.58.58,0,0,0,.33-.08.75.75,0,0,0,.21-.25V68.52a.67.67,0,0,0-.21-.23.57.57,0,0,0-.32-.09.51.51,0,0,0-.46.25,1.4,1.4,0,0,0-.14.66Z"/><path class="cls-10" d="M101,69a2.92,2.92,0,0,1,.34-1.46,2,2,0,0,1,.73-.81h0l.08.25a1.72,1.72,0,0,0-.51.74A3.17,3.17,0,0,0,101.4,69v0a3.31,3.31,0,0,0,.22,1.26,2.12,2.12,0,0,0,.52.77l-.08.23h0a1.93,1.93,0,0,1-.73-.8A3,3,0,0,1,101,69Z"/><path class="cls-10" d="M103.64,68.55h.86v.38h-.86v1h-.43v-1h-.88v-.38h.88v-.92h.43Z"/><path class="cls-10" d="M108.11,69.16a1.31,1.31,0,0,1-.24.82.81.81,0,0,1-.67.31.86.86,0,0,1-.41-.09.75.75,0,0,1-.29-.27l-.07.32h-.32V66.86h.42v1.31a.83.83,0,0,1,.66-.32.79.79,0,0,1,.68.35,1.58,1.58,0,0,1,.24.91Zm-.43,0a1.39,1.39,0,0,0-.14-.65.5.5,0,0,0-.46-.26.52.52,0,0,0-.33.1.71.71,0,0,0-.22.26v1a.84.84,0,0,0,.22.27.59.59,0,0,0,.34.09.52.52,0,0,0,.45-.21,1,1,0,0,0,.14-.57Z"/><path class="cls-10" d="M110.08,70.25c0-.07,0-.14,0-.19s0-.11,0-.17a1,1,0,0,1-.31.29.88.88,0,0,1-.42.11.72.72,0,0,1-.55-.19.66.66,0,0,1-.2-.51.6.6,0,0,1,.28-.53,1.23,1.23,0,0,1,.74-.19H110v-.23a.42.42,0,0,0-.13-.33.48.48,0,0,0-.35-.12.53.53,0,0,0-.34.1.34.34,0,0,0-.13.25h-.41a.55.55,0,0,1,.24-.47,1,1,0,0,1,.66-.22.93.93,0,0,1,.64.21.69.69,0,0,1,.25.58v1.13a2,2,0,0,0,0,.25c0,.07,0,.15,0,.23Zm-.71-.32a.79.79,0,0,0,.42-.12.61.61,0,0,0,.24-.27v-.38h-.48a.59.59,0,0,0-.41.13.38.38,0,0,0-.16.3.3.3,0,0,0,.1.25A.4.4,0,0,0,109.37,69.93Z"/><path class="cls-10" d="M112,70a.56.56,0,0,0,.35-.13.43.43,0,0,0,.15-.33h.38v0a.7.7,0,0,1-.26.54,1,1,0,0,1-.63.23.92.92,0,0,1-.76-.33,1.32,1.32,0,0,1-.27-.84V69a1.3,1.3,0,0,1,.27-.84.93.93,0,0,1,.76-.34.88.88,0,0,1,.65.25.81.81,0,0,1,.24.59v0h-.38a.53.53,0,0,0-.14-.37.49.49,0,0,0-.36-.15.5.5,0,0,0-.46.24,1.24,1.24,0,0,0-.14.6v.09a1.2,1.2,0,0,0,.14.59A.49.49,0,0,0,112,70Z"/><path class="cls-10" d="M114.06,69.16h-.22v1.09h-.43V66.86h.43v2h.21l.71-.92h.51L114.42,69l.92,1.27h-.5Z"/><path class="cls-10" d="M115.57,69.11a1.58,1.58,0,0,1,.24-.91.79.79,0,0,1,.68-.35.8.8,0,0,1,.39.09.77.77,0,0,1,.28.26l.06-.3h.34v2.36a.9.9,0,0,1-.26.69,1.1,1.1,0,0,1-.76.25,1.64,1.64,0,0,1-.37,0,1.21,1.21,0,0,1-.35-.13l.07-.33a1.05,1.05,0,0,0,.3.1,1.4,1.4,0,0,0,.34,0,.62.62,0,0,0,.46-.15.6.6,0,0,0,.14-.43V70a.77.77,0,0,1-.28.23.84.84,0,0,1-.37.07.8.8,0,0,1-.67-.31,1.31,1.31,0,0,1-.24-.82Zm.43,0a1,1,0,0,0,.14.57.52.52,0,0,0,.45.21.58.58,0,0,0,.33-.08.87.87,0,0,0,.21-.25V68.53a.7.7,0,0,0-.21-.24.57.57,0,0,0-.32-.09.51.51,0,0,0-.46.25,1.4,1.4,0,0,0-.14.66Z"/><path class="cls-10" d="M119.28,68.27h-.21a.52.52,0,0,0-.29.08.47.47,0,0,0-.18.23v1.68h-.43V67.9h.39l0,.34a.74.74,0,0,1,.24-.28.58.58,0,0,1,.34-.11h.09l.07,0Z"/><path class="cls-10" d="M119.59,69.05a1.29,1.29,0,0,1,.28-.86,1,1,0,0,1,.77-.34,1,1,0,0,1,.77.34,1.27,1.27,0,0,1,.28.86v0a1.29,1.29,0,0,1-.28.86,1.06,1.06,0,0,1-1.54,0,1.29,1.29,0,0,1-.28-.86Zm.42,0a1.13,1.13,0,0,0,.16.61.52.52,0,0,0,.47.25.5.5,0,0,0,.46-.25,1,1,0,0,0,.16-.61v0a1,1,0,0,0-.16-.61.5.5,0,0,0-.46-.25.52.52,0,0,0-.47.25,1.13,1.13,0,0,0-.16.61Z"/><path class="cls-10" d="M123.71,69.9a.89.89,0,0,1-.29.29.74.74,0,0,1-.4.1.75.75,0,0,1-.6-.24,1.18,1.18,0,0,1-.21-.77V67.9h.42v1.39a.87.87,0,0,0,.11.51.41.41,0,0,0,.35.14.74.74,0,0,0,.38-.09.56.56,0,0,0,.22-.26V67.9h.43v2.35h-.38Z"/><path class="cls-10" d="M124.65,69.11a1.58,1.58,0,0,1,.24-.91.79.79,0,0,1,.68-.35.83.83,0,0,1,.36.08.64.64,0,0,1,.27.22V66.86h.43v3.39h-.33l-.06-.3a.86.86,0,0,1-.28.26,1,1,0,0,1-.4.08.8.8,0,0,1-.67-.31,1.31,1.31,0,0,1-.24-.82Zm.42,0a1,1,0,0,0,.15.57.52.52,0,0,0,.45.21.53.53,0,0,0,.32-.08.58.58,0,0,0,.21-.25V68.52a.52.52,0,0,0-.21-.23.55.55,0,0,0-.32-.09.5.5,0,0,0-.45.25,1.29,1.29,0,0,0-.15.66Z"/><path class="cls-10" d="M129.82,70.25c0-.07,0-.14,0-.19a1,1,0,0,1,0-.17,1,1,0,0,1-.31.29.84.84,0,0,1-.41.11.75.75,0,0,1-.56-.19.66.66,0,0,1-.19-.51.61.61,0,0,1,.27-.53,1.25,1.25,0,0,1,.74-.19h.46v-.23a.45.45,0,0,0-.12-.33.52.52,0,0,0-.36-.12.53.53,0,0,0-.34.1.33.33,0,0,0-.12.25h-.41a.55.55,0,0,1,.24-.47,1.09,1.09,0,0,1,1.3,0,.71.71,0,0,1,.24.58v1.13c0,.09,0,.17,0,.25s0,.15,0,.23Zm-.71-.32a.74.74,0,0,0,.42-.12.55.55,0,0,0,.24-.27v-.38h-.48a.59.59,0,0,0-.41.13.41.41,0,0,0-.16.3.34.34,0,0,0,.1.25A.42.42,0,0,0,129.11,69.93Z"/><path class="cls-10" d="M131.42,67.33v.57h.44v.31h-.44v1.43a.29.29,0,0,0,.07.23.21.21,0,0,0,.18.07h.08l.08,0,0,.29a.3.3,0,0,1-.14.07l-.18,0a.57.57,0,0,1-.42-.16.68.68,0,0,1-.15-.49V68.21h-.37V67.9H131v-.57Z"/><path class="cls-10" d="M135.42,67.42a5.21,5.21,0,0,0-.81,1.26,3.36,3.36,0,0,0-.21,1.22v.35H134V69.9a3,3,0,0,1,.26-1.29,6,6,0,0,1,.76-1.19h-1.67v-.34h2.09Z"/><path class="cls-10" d="M136,68.84l.18-1.76h1.59v.38h-1.23l-.1.91a.84.84,0,0,1,.23-.12.78.78,0,0,1,.28,0,.9.9,0,0,1,.69.27,1.15,1.15,0,0,1,.25.77,1.09,1.09,0,0,1-.26.76.92.92,0,0,1-.74.29,1,1,0,0,1-.67-.22.74.74,0,0,1-.26-.64v0h.38a.54.54,0,0,0,.15.41.56.56,0,0,0,.39.14.52.52,0,0,0,.42-.19.86.86,0,0,0,.15-.53.77.77,0,0,0-.15-.49.52.52,0,0,0-.42-.18.71.71,0,0,0-.37.07.5.5,0,0,0-.17.24Z"/><path class="cls-10" d="M138.35,67.69a.63.63,0,0,1,.18-.46A.61.61,0,0,1,139,67a.62.62,0,0,1,.48.19.63.63,0,0,1,.18.46v.17a.63.63,0,0,1-.18.46.6.6,0,0,1-.47.19.62.62,0,0,1-.48-.19.63.63,0,0,1-.18-.46Zm.32.17a.4.4,0,0,0,.09.27.27.27,0,0,0,.25.11.27.27,0,0,0,.24-.11.4.4,0,0,0,.09-.27v-.17a.4.4,0,0,0-.09-.27.29.29,0,0,0-.25-.12.3.3,0,0,0-.25.12.46.46,0,0,0-.08.27Zm.45,2.15-.24-.15,1.55-2.47.23.15Zm.76-.54a.63.63,0,0,1,.18-.46.62.62,0,0,1,.48-.19A.61.61,0,0,1,141,69a.63.63,0,0,1,.18.46v.17a.66.66,0,0,1-.18.47.63.63,0,0,1-.47.18.65.65,0,0,1-.48-.18.66.66,0,0,1-.18-.47Zm.32.17a.45.45,0,0,0,.09.28.34.34,0,0,0,.5,0,.51.51,0,0,0,.08-.28v-.17a.4.4,0,0,0-.09-.27.29.29,0,0,0-.24-.12.29.29,0,0,0-.25.12.4.4,0,0,0-.09.27Z"/><path class="cls-10" d="M142.69,69.05a1.3,1.3,0,0,1,.29-.86,1,1,0,0,1,1.54,0,1.33,1.33,0,0,1,.28.86v0a1.29,1.29,0,0,1-.28.86,1,1,0,0,1-.77.33A1,1,0,0,1,143,70a1.3,1.3,0,0,1-.29-.86Zm.43,0a1.13,1.13,0,0,0,.16.61.51.51,0,0,0,.47.25.5.5,0,0,0,.46-.25,1,1,0,0,0,.16-.61v0a1,1,0,0,0-.16-.61.51.51,0,0,0-.47-.25.5.5,0,0,0-.46.25,1.13,1.13,0,0,0-.16.61Z"/><path class="cls-10" d="M147.33,69.16a1.31,1.31,0,0,1-.25.82.79.79,0,0,1-.67.31.92.92,0,0,1-.38-.07.74.74,0,0,1-.28-.22v1.15h-.43V67.9h.33l.07.3a.77.77,0,0,1,.28-.26.87.87,0,0,1,.4-.09.78.78,0,0,1,.68.35,1.58,1.58,0,0,1,.25.91Zm-.43,0a1.28,1.28,0,0,0-.16-.65.51.51,0,0,0-.46-.26.63.63,0,0,0-.32.08.66.66,0,0,0-.21.23v1.14a.58.58,0,0,0,.21.23.63.63,0,0,0,.32.08.54.54,0,0,0,.46-.22,1,1,0,0,0,.16-.58Z"/><path class="cls-10" d="M149.3,70.25c0-.07,0-.14,0-.19a1,1,0,0,1,0-.17,1.07,1.07,0,0,1-.31.29.88.88,0,0,1-.42.11.76.76,0,0,1-.56-.19.66.66,0,0,1-.19-.51.61.61,0,0,1,.27-.53,1.27,1.27,0,0,1,.74-.19h.47v-.23a.42.42,0,0,0-.13-.33.48.48,0,0,0-.35-.12.51.51,0,0,0-.34.1.31.31,0,0,0-.13.25h-.41a.55.55,0,0,1,.24-.47,1,1,0,0,1,.66-.22.93.93,0,0,1,.64.21.72.72,0,0,1,.25.58v1.13a2,2,0,0,0,0,.25,1.06,1.06,0,0,0,.05.23Zm-.71-.32a.73.73,0,0,0,.41-.12.58.58,0,0,0,.25-.27v-.38h-.48a.64.64,0,0,0-.42.13.4.4,0,0,0-.15.3.3.3,0,0,0,.1.25A.4.4,0,0,0,148.59,69.93Z"/><path class="cls-10" d="M151.23,70a.56.56,0,0,0,.35-.13.45.45,0,0,0,.14-.33h.39v0a.7.7,0,0,1-.26.54,1,1,0,0,1-.63.23.92.92,0,0,1-.76-.33,1.32,1.32,0,0,1-.27-.84V69a1.3,1.3,0,0,1,.27-.84.93.93,0,0,1,.76-.34.84.84,0,0,1,.64.25.78.78,0,0,1,.25.59v0h-.39a.49.49,0,0,0-.14-.37.45.45,0,0,0-.35-.15.5.5,0,0,0-.46.24,1.24,1.24,0,0,0-.14.6v.09a1.1,1.1,0,0,0,.14.59A.48.48,0,0,0,151.23,70Z"/><path class="cls-10" d="M153.09,67.29h-.43v-.43h.43Zm0,3h-.43V67.9h.43Z"/><path class="cls-10" d="M154.34,67.33v.57h.45v.31h-.45v1.43a.29.29,0,0,0,.07.23.23.23,0,0,0,.18.07h.08l.08,0,.06.29a.37.37,0,0,1-.14.07l-.19,0a.53.53,0,0,1-.41-.16.64.64,0,0,1-.16-.49V68.21h-.37V67.9h.37v-.57Z"/><path class="cls-10" d="M156,69.38l.08.29h0l.58-1.77h.48l-1,2.71a1.36,1.36,0,0,1-.26.41.58.58,0,0,1-.45.18l-.13,0-.12,0,0-.34h.19a.29.29,0,0,0,.23-.13,1.71,1.71,0,0,0,.14-.27l.1-.24L155,67.9h.48Z"/><path class="cls-10" d="M158.35,69a3,3,0,0,1-.35,1.47,2,2,0,0,1-.72.8h0l-.09-.23a1.8,1.8,0,0,0,.52-.75,3.26,3.26,0,0,0,.22-1.28v0a3,3,0,0,0-.23-1.27,2,2,0,0,0-.51-.76l.09-.24h0a2.09,2.09,0,0,1,.72.81,2.92,2.92,0,0,1,.35,1.46Z"/><path class="cls-10" d="M107.71,24h-1.29v-.33h1.29Z"/><path class="cls-10" d="M111.49,24.13a1.31,1.31,0,0,1-.25.82.81.81,0,0,1-.67.31,1.12,1.12,0,0,1-.38-.07.85.85,0,0,1-.28-.22v1.15h-.43V22.86h.33l.07.31a.72.72,0,0,1,.29-.26.8.8,0,0,1,.39-.09.75.75,0,0,1,.68.35,1.49,1.49,0,0,1,.25.91Zm-.43-.05a1.22,1.22,0,0,0-.16-.66.5.5,0,0,0-.46-.25.55.55,0,0,0-.32.08.58.58,0,0,0-.21.23v1.14a.56.56,0,0,0,.21.22.55.55,0,0,0,.32.08.52.52,0,0,0,.46-.22.94.94,0,0,0,.16-.57Z"/><path class="cls-10" d="M113.12,23.24h-.22a.44.44,0,0,0-.28.08.49.49,0,0,0-.18.22v1.68H112V22.86h.38l0,.35a.8.8,0,0,1,.25-.29.57.57,0,0,1,.34-.1h.16Z"/><path class="cls-10" d="M114,22.26h-.43v-.44H114Zm0,2.95h-.43V22.86H114Z"/><path class="cls-10" d="M115.07,22.86l0,.31a.89.89,0,0,1,.29-.26.93.93,0,0,1,.42-.09.67.67,0,0,1,.4.11.62.62,0,0,1,.25.32,1,1,0,0,1,.3-.32.82.82,0,0,1,.42-.11.7.7,0,0,1,.57.25,1.11,1.11,0,0,1,.21.74v1.4h-.43V23.8a.78.78,0,0,0-.12-.49.43.43,0,0,0-.36-.14.45.45,0,0,0-.35.15.63.63,0,0,0-.16.38v1.51h-.43V23.8a.71.71,0,0,0-.13-.48.41.41,0,0,0-.35-.15.53.53,0,0,0-.32.08.51.51,0,0,0-.19.22v1.74h-.43V22.86Z"/><path class="cls-10" d="M120,25.21l0-.19c0-.05,0-.1,0-.16a.93.93,0,0,1-.31.28.75.75,0,0,1-.41.12.79.79,0,0,1-.56-.19.69.69,0,0,1-.19-.52.59.59,0,0,1,.27-.52,1.25,1.25,0,0,1,.74-.19H120V23.6a.42.42,0,0,0-.12-.32.51.51,0,0,0-.36-.12.53.53,0,0,0-.34.1.32.32,0,0,0-.12.25h-.41a.56.56,0,0,1,.24-.47,1.13,1.13,0,0,1,1.3,0,.73.73,0,0,1,.24.59v1.13c0,.08,0,.16,0,.24a1.55,1.55,0,0,0,0,.23Zm-.71-.31a.74.74,0,0,0,.42-.12.51.51,0,0,0,.24-.27v-.39h-.48a.65.65,0,0,0-.41.13.41.41,0,0,0-.16.31.36.36,0,0,0,.1.25A.42.42,0,0,0,119.31,24.9Z"/><path class="cls-10" d="M122.13,23.24h-.21a.45.45,0,0,0-.29.08.49.49,0,0,0-.18.22v1.68H121V22.86h.39l0,.35a.78.78,0,0,1,.24-.29.57.57,0,0,1,.34-.1h.16Z"/><path class="cls-10" d="M123.34,24.34l.07.3h0l.58-1.78h.47l-1,2.71a1.27,1.27,0,0,1-.25.42.61.61,0,0,1-.45.17h-.13l-.13,0,0-.34h.19a.26.26,0,0,0,.22-.12,1.17,1.17,0,0,0,.15-.27l.1-.25-.87-2.3h.47Z"/><path class="cls-10" d="M128.28,24.2h0A1,1,0,0,1,128,25a1.21,1.21,0,0,1-.85.3,1.11,1.11,0,0,1-.87-.38,1.4,1.4,0,0,1-.34-1v-.56a1.36,1.36,0,0,1,.34-1,1.08,1.08,0,0,1,.87-.39,1.22,1.22,0,0,1,.85.29.93.93,0,0,1,.31.76h-.41a.72.72,0,0,0-.2-.53.78.78,0,0,0-.55-.19.68.68,0,0,0-.57.29,1.18,1.18,0,0,0-.21.72v.56a1.18,1.18,0,0,0,.21.72.65.65,0,0,0,.57.29.74.74,0,0,0,.55-.19.71.71,0,0,0,.2-.53Z"/><path class="cls-10" d="M131,22.39h-1.05v2.82h-.42V22.39h-1v-.34H131Z"/><path class="cls-10" d="M132.9,24.4h-1.19l-.29.81H131l1.14-3.16h.37l1.11,3.16h-.43ZM131.83,24h.95l-.46-1.36h0Z"/><path class="cls-10" d="M107.71,36.83h-1.29v-.34h1.29Z"/><path class="cls-10" d="M110.85,37.36a.3.3,0,0,0-.11-.23,1,1,0,0,0-.41-.15,1.69,1.69,0,0,1-.63-.25.51.51,0,0,1-.23-.43.63.63,0,0,1,.25-.49.92.92,0,0,1,.63-.21,1,1,0,0,1,.65.22.65.65,0,0,1,.24.51h-.42a.38.38,0,0,0-.13-.28.49.49,0,0,0-.34-.12.49.49,0,0,0-.34.1.34.34,0,0,0-.11.25.24.24,0,0,0,.1.21,1,1,0,0,0,.4.14,1.66,1.66,0,0,1,.65.26.51.51,0,0,1,.23.43.62.62,0,0,1-.26.51,1,1,0,0,1-.66.2,1,1,0,0,1-.71-.23.65.65,0,0,1-.24-.53h.41a.41.41,0,0,0,.17.33.67.67,0,0,0,.37.11.57.57,0,0,0,.36-.1A.29.29,0,0,0,110.85,37.36Z"/><path class="cls-10" d="M112.78,38a1,1,0,0,1-.79-.32,1.25,1.25,0,0,1-.28-.85v-.1a1.24,1.24,0,0,1,.29-.84.92.92,0,0,1,.72-.33.84.84,0,0,1,.7.3,1.17,1.17,0,0,1,.24.78v.22h-1.51a1,1,0,0,0,.15.58.58.58,0,0,0,.48.22,1.08,1.08,0,0,0,.38-.06,1,1,0,0,0,.28-.17l.17.27a1,1,0,0,1-.33.21A1.46,1.46,0,0,1,112.78,38Zm-.06-2.1a.5.5,0,0,0-.38.17.87.87,0,0,0-.17.44v0h1.06v0a.64.64,0,0,0-.13-.42A.45.45,0,0,0,112.72,35.94Z"/><path class="cls-10" d="M115.07,37.71a.56.56,0,0,0,.35-.13.42.42,0,0,0,.14-.33H116v0a.7.7,0,0,1-.26.54,1,1,0,0,1-.63.23.92.92,0,0,1-.76-.33,1.32,1.32,0,0,1-.27-.84v-.09a1.3,1.3,0,0,1,.27-.84.93.93,0,0,1,.76-.34.88.88,0,0,1,.65.25.81.81,0,0,1,.24.59v0h-.39a.49.49,0,0,0-.14-.37.45.45,0,0,0-.35-.15.5.5,0,0,0-.46.24,1.24,1.24,0,0,0-.14.6v.09a1.2,1.2,0,0,0,.14.59A.48.48,0,0,0,115.07,37.71Z"/><path class="cls-10" d="M116.37,36.8a1.29,1.29,0,0,1,.28-.86,1,1,0,0,1,.77-.34,1,1,0,0,1,.77.34,1.27,1.27,0,0,1,.28.86v.05a1.29,1.29,0,0,1-.28.86,1.06,1.06,0,0,1-1.54,0,1.29,1.29,0,0,1-.28-.86Zm.42.05a1.13,1.13,0,0,0,.16.61.52.52,0,0,0,.47.25.5.5,0,0,0,.46-.25,1,1,0,0,0,.16-.61V36.8a1,1,0,0,0-.16-.61.5.5,0,0,0-.46-.25.52.52,0,0,0-.47.25,1.13,1.13,0,0,0-.16.61Z"/><path class="cls-10" d="M119.38,35.65l0,.35a.73.73,0,0,1,.29-.29.77.77,0,0,1,.4-.11.76.76,0,0,1,.59.23.94.94,0,0,1,.21.68V38h-.43V36.52a.64.64,0,0,0-.12-.44A.48.48,0,0,0,120,36a.68.68,0,0,0-.34.08.66.66,0,0,0-.22.22V38H119V35.65Z"/><path class="cls-10" d="M121.42,36.87a1.59,1.59,0,0,1,.25-.92.78.78,0,0,1,.68-.35.83.83,0,0,1,.36.08.64.64,0,0,1,.27.22V34.61h.43V38h-.33l-.06-.3a.8.8,0,0,1-.29.26.93.93,0,0,1-.39.08.79.79,0,0,1-.67-.31,1.31,1.31,0,0,1-.25-.82Zm.43,0a1,1,0,0,0,.15.57.52.52,0,0,0,.45.21.55.55,0,0,0,.32-.08.58.58,0,0,0,.21-.25V36.27a.52.52,0,0,0-.21-.23.55.55,0,0,0-.32-.09.5.5,0,0,0-.45.25,1.3,1.3,0,0,0-.15.67Z"/><path class="cls-10" d="M125.5,38c0-.07,0-.14,0-.19a1,1,0,0,1,0-.17,1.07,1.07,0,0,1-.31.29.88.88,0,0,1-.42.11.76.76,0,0,1-.56-.19.66.66,0,0,1-.19-.51.61.61,0,0,1,.27-.53,1.25,1.25,0,0,1,.74-.19h.47v-.23a.42.42,0,0,0-.13-.33.48.48,0,0,0-.35-.12.51.51,0,0,0-.34.1.31.31,0,0,0-.13.25h-.41a.55.55,0,0,1,.24-.47,1,1,0,0,1,.66-.22.93.93,0,0,1,.64.21.72.72,0,0,1,.25.58v1.13a2,2,0,0,0,0,.25,1.06,1.06,0,0,0,0,.23Zm-.72-.32a.74.74,0,0,0,.42-.12.58.58,0,0,0,.25-.27v-.38H125a.62.62,0,0,0-.42.13.4.4,0,0,0-.15.31.3.3,0,0,0,.1.24A.39.39,0,0,0,124.78,37.68Z"/><path class="cls-10" d="M127.61,36h-.22a.55.55,0,0,0-.29.08.71.71,0,0,0-.18.23V38h-.42V35.65h.38l0,.34a.76.76,0,0,1,.25-.28.55.55,0,0,1,.33-.11h.1l.07,0Z"/><path class="cls-10" d="M128.81,37.13l.08.29h0l.58-1.77H130l-1,2.71a1.36,1.36,0,0,1-.26.41.58.58,0,0,1-.45.18l-.13,0-.12,0,0-.34h.19a.26.26,0,0,0,.22-.13,1.17,1.17,0,0,0,.15-.27l.1-.24-.87-2.3h.48Z"/><path class="cls-10" d="M133.75,37v0a1,1,0,0,1-.32.74,1.19,1.19,0,0,1-.85.3,1.09,1.09,0,0,1-.87-.38,1.36,1.36,0,0,1-.34-1v-.56a1.38,1.38,0,0,1,.34-1,1.12,1.12,0,0,1,.87-.38,1.24,1.24,0,0,1,.86.28,1,1,0,0,1,.31.76h-.42a.66.66,0,0,0-.2-.52.74.74,0,0,0-.55-.19.67.67,0,0,0-.57.28,1.22,1.22,0,0,0-.21.72v.57a1.18,1.18,0,0,0,.21.72.68.68,0,0,0,.57.29.78.78,0,0,0,.55-.19.69.69,0,0,0,.2-.54Z"/><path class="cls-10" d="M136.46,35.17h-1V38H135V35.17h-1v-.34h2.5Z"/><path class="cls-10" d="M138.37,37.18h-1.19l-.28.82h-.44l1.14-3.17H138L139.09,38h-.44Zm-1.07-.36h.95l-.46-1.35h0Z"/><path class="cls-10" d="M74.12,121H72.84v-.33h1.28Z"/><path class="cls-10" d="M76,122.2V119h1a1.29,1.29,0,0,1,.78.21.78.78,0,0,1,.28.64.56.56,0,0,1-.13.37.68.68,0,0,1-.33.24.75.75,0,0,1,.49.27.86.86,0,0,1,.18.54A.79.79,0,0,1,78,122a1.22,1.22,0,0,1-.77.23Zm.43-1.82h.69a.56.56,0,0,0,.39-.13.47.47,0,0,0,.15-.37.44.44,0,0,0-.16-.38.8.8,0,0,0-.47-.13h-.6Zm0,.34v1.14h.82a.65.65,0,0,0,.46-.14.51.51,0,0,0,.16-.41.55.55,0,0,0-.16-.42.61.61,0,0,0-.45-.17h-.83Z"/><path class="cls-10" d="M80.17,122.2l0-.19a.86.86,0,0,1,0-.16,1.1,1.1,0,0,1-.32.28.72.72,0,0,1-.41.11.8.8,0,0,1-.56-.18.69.69,0,0,1-.19-.52.61.61,0,0,1,.27-.53,1.33,1.33,0,0,1,.74-.19h.47v-.23a.45.45,0,0,0-.13-.33.58.58,0,0,0-.69,0,.3.3,0,0,0-.13.25h-.41A.56.56,0,0,1,79,120a1,1,0,0,1,.66-.21.94.94,0,0,1,.64.2.71.71,0,0,1,.24.58v1.14a1.94,1.94,0,0,0,0,.24,1.85,1.85,0,0,0,0,.23Zm-.71-.31a.74.74,0,0,0,.42-.12.55.55,0,0,0,.25-.28v-.38h-.48a.62.62,0,0,0-.42.13.4.4,0,0,0-.15.31.32.32,0,0,0,.09.24A.39.39,0,0,0,79.46,121.89Z"/><path class="cls-10" d="M82.11,121.91a.47.47,0,0,0,.34-.13.42.42,0,0,0,.15-.32H83a.71.71,0,0,1-.27.54.87.87,0,0,1-.62.23.94.94,0,0,1-.77-.33,1.32,1.32,0,0,1-.26-.84V121a1.32,1.32,0,0,1,.27-.84.92.92,0,0,1,.76-.33.88.88,0,0,1,.64.24.79.79,0,0,1,.25.6h-.4a.5.5,0,0,0-.14-.37.45.45,0,0,0-.35-.15.49.49,0,0,0-.46.25,1.1,1.1,0,0,0-.14.59v.09a1.13,1.13,0,0,0,.14.6A.49.49,0,0,0,82.11,121.91Z"/><path class="cls-10" d="M84.15,121.12h-.22v1.08h-.42v-3.39h.42v2h.22l.7-.92h.52l-.86,1.08.93,1.27h-.51Z"/><path class="cls-10" d="M85.66,121.07a1.59,1.59,0,0,1,.25-.92.76.76,0,0,1,.67-.34.87.87,0,0,1,.4.09.77.77,0,0,1,.28.26l0-.31h.34v2.36a.91.91,0,0,1-.26.7,1.08,1.08,0,0,1-.76.24,1.63,1.63,0,0,1-.36-.05,1.21,1.21,0,0,1-.35-.13l.07-.33a1.1,1.1,0,0,0,.29.11,2.21,2.21,0,0,0,.35,0,.62.62,0,0,0,.45-.14.59.59,0,0,0,.15-.44v-.27a.77.77,0,0,1-.28.23.87.87,0,0,1-.37.07.79.79,0,0,1-.67-.31,1.29,1.29,0,0,1-.25-.82Zm.43,0a1,1,0,0,0,.15.57.48.48,0,0,0,.45.22.55.55,0,0,0,.32-.09.67.67,0,0,0,.22-.25v-1.08a.73.73,0,0,0-.22-.24.55.55,0,0,0-.32-.09.49.49,0,0,0-.45.26,1.29,1.29,0,0,0-.15.66Z"/><path class="cls-10" d="M89.38,120.23l-.22,0a.49.49,0,0,0-.28.08.52.52,0,0,0-.18.23v1.68h-.43v-2.35h.38l0,.34a.85.85,0,0,1,.25-.28.57.57,0,0,1,.34-.1h.09l.07,0Z"/><path class="cls-10" d="M89.68,121a1.3,1.3,0,0,1,.29-.86.94.94,0,0,1,.76-.33,1,1,0,0,1,.77.33,1.3,1.3,0,0,1,.29.86v0a1.33,1.33,0,0,1-.28.86,1,1,0,0,1-.77.33,1,1,0,0,1-.77-.33,1.28,1.28,0,0,1-.29-.86Zm.43,0a1.1,1.1,0,0,0,.16.62.52.52,0,0,0,.47.24.51.51,0,0,0,.46-.24,1.1,1.1,0,0,0,.16-.62v0a1.07,1.07,0,0,0-.16-.61.52.52,0,0,0-.47-.25.5.5,0,0,0-.46.25,1.07,1.07,0,0,0-.16.61Z"/><path class="cls-10" d="M93.8,121.85a.78.78,0,0,1-.28.29.77.77,0,0,1-.4.1.75.75,0,0,1-.6-.24,1.11,1.11,0,0,1-.22-.77v-1.38h.43v1.39a.93.93,0,0,0,.11.52.42.42,0,0,0,.35.14.62.62,0,0,0,.37-.1.53.53,0,0,0,.23-.26v-1.69h.43v2.35h-.39Z"/><path class="cls-10" d="M95.22,119.85l0,.35a.83.83,0,0,1,.3-.29.74.74,0,0,1,.4-.1.77.77,0,0,1,.59.22,1,1,0,0,1,.21.69v1.48h-.43v-1.48a.66.66,0,0,0-.12-.44.54.54,0,0,0-.38-.13.67.67,0,0,0-.33.08.58.58,0,0,0-.22.22v1.75h-.43v-2.35Z"/><path class="cls-10" d="M97.27,121.07a1.59,1.59,0,0,1,.24-.92.78.78,0,0,1,.68-.34.87.87,0,0,1,.37.07.93.93,0,0,1,.27.22v-1.29h.43v3.39h-.33l-.07-.3a.77.77,0,0,1-.28.26.93.93,0,0,1-1.07-.23,1.29,1.29,0,0,1-.24-.82Zm.43,0a1,1,0,0,0,.14.57.5.5,0,0,0,.45.22.58.58,0,0,0,.33-.09.83.83,0,0,0,.21-.24v-1.1a.78.78,0,0,0-.21-.23.57.57,0,0,0-.32-.09.5.5,0,0,0-.46.26,1.4,1.4,0,0,0-.14.66Z"/><path class="cls-10" d="M74.12,128.81H72.84v-.33h1.28Z"/><path class="cls-10" d="M76,130v-3.16h1a1.3,1.3,0,0,1,1.38,1.37v.43a1.33,1.33,0,0,1-.38,1,1.31,1.31,0,0,1-1,.38Zm.43-2.82v2.49H77a.89.89,0,0,0,.7-.29,1.07,1.07,0,0,0,.25-.74v-.44a1,1,0,0,0-.25-.73.86.86,0,0,0-.7-.29Z"/><path class="cls-10" d="M80.56,129.17H79.37l-.28.81h-.44l1.14-3.16h.37L81.27,130h-.43Zm-1.07-.36h1L80,127.45h0Z"/><path class="cls-10" d="M82.17,128.61V130h-.43v-3.16h1.08a1.2,1.2,0,0,1,.79.23.82.82,0,0,1,.28.67.71.71,0,0,1-.13.43.83.83,0,0,1-.37.28.7.7,0,0,1,.38.28.93.93,0,0,1,.11.47v.3a1.09,1.09,0,0,0,0,.26.4.4,0,0,0,.11.19v0h-.44a.35.35,0,0,1-.1-.21,1.53,1.53,0,0,1,0-.3v-.29a.56.56,0,0,0-.15-.41.51.51,0,0,0-.4-.16Zm0-.33h.61a.81.81,0,0,0,.52-.14.51.51,0,0,0,.16-.42.54.54,0,0,0-.16-.42.71.71,0,0,0-.48-.14h-.65Z"/><path class="cls-10" d="M85.28,128.55H85V130h-.43v-3.16H85v1.4h.23l1.18-1.4h.48l-1.28,1.5L87,130h-.52Z"/><path class="cls-10" d="M90.07,129.39h0l1-2.57h.54V130H91.2v-2.37h0l-1,2.37h-.3l-1-2.45h0V130H88.5v-3.16h.57Z"/><path class="cls-10" d="M94.78,128.68a1.37,1.37,0,0,1-.36,1,1.24,1.24,0,0,1-.93.38,1.17,1.17,0,0,1-.9-.38,1.41,1.41,0,0,1-.35-1v-.56a1.4,1.4,0,0,1,.35-1,1.14,1.14,0,0,1,.9-.38,1.2,1.2,0,0,1,.93.38,1.35,1.35,0,0,1,.36,1Zm-.43-.56a1,1,0,0,0-.23-.71.78.78,0,0,0-.63-.28.72.72,0,0,0-.6.28,1.13,1.13,0,0,0-.22.71v.56a1.14,1.14,0,0,0,.22.72.72.72,0,0,0,.6.28.75.75,0,0,0,.63-.28,1,1,0,0,0,.23-.72Z"/><path class="cls-10" d="M95.4,130v-3.16h1a1.3,1.3,0,0,1,1.38,1.37v.43a1.33,1.33,0,0,1-.38,1,1.31,1.31,0,0,1-1,.38Zm.43-2.82v2.49h.56a.89.89,0,0,0,.7-.29,1.12,1.12,0,0,0,.25-.74v-.44a1.09,1.09,0,0,0-.25-.73.86.86,0,0,0-.7-.29Z"/><path class="cls-10" d="M100.14,128.52h-1.3v1.13h1.52V130h-2v-3.16h1.93v.34h-1.5v1h1.3Z"/><path class="cls-10" d="M104.18,127.16h-1V130h-.43v-2.82h-1v-.34h2.5Z"/><path class="cls-10" d="M105.33,130a1,1,0,0,1-.79-.32,1.25,1.25,0,0,1-.28-.86v-.09a1.24,1.24,0,0,1,.29-.84.92.92,0,0,1,.71-.33.87.87,0,0,1,.71.29,1.21,1.21,0,0,1,.24.78v.23H104.7a1,1,0,0,0,.15.57.55.55,0,0,0,.48.22,1.08,1.08,0,0,0,.38-.06.78.78,0,0,0,.28-.17l.17.28a1,1,0,0,1-.33.21A1.46,1.46,0,0,1,105.33,130Zm-.07-2.1a.46.46,0,0,0-.37.17.83.83,0,0,0-.17.44h1.06v0a.69.69,0,0,0-.13-.43A.45.45,0,0,0,105.26,127.93Z"/><path class="cls-10" d="M107.48,128.5l.5-.87h.5l-.76,1.17.79,1.18H108l-.52-.88L107,130h-.49l.78-1.18-.76-1.17H107Z"/><path class="cls-10" d="M109.52,127.07v.56H110V128h-.44v1.43a.29.29,0,0,0,.07.23.25.25,0,0,0,.18.07h.08l.08,0,.06.29a.3.3,0,0,1-.14.06l-.19,0a.53.53,0,0,1-.41-.16.64.64,0,0,1-.16-.49V128h-.37v-.32h.37v-.56Z"/><path class="cls-10" d="M111.79,129.35a.3.3,0,0,0-.11-.23,1.11,1.11,0,0,0-.41-.16,1.53,1.53,0,0,1-.63-.25.5.5,0,0,1-.23-.43.64.64,0,0,1,.25-.49,1,1,0,0,1,.63-.2.93.93,0,0,1,.65.22.65.65,0,0,1,.24.5v0h-.41a.37.37,0,0,0-.13-.28.49.49,0,0,0-.34-.12.49.49,0,0,0-.34.1.34.34,0,0,0-.11.24.26.26,0,0,0,.1.22,1.23,1.23,0,0,0,.4.14,1.66,1.66,0,0,1,.65.25.54.54,0,0,1,.23.44.62.62,0,0,1-.26.51,1,1,0,0,1-.66.2,1.06,1.06,0,0,1-.71-.23.65.65,0,0,1-.24-.53h.41a.41.41,0,0,0,.17.33.66.66,0,0,0,.37.1.64.64,0,0,0,.36-.09A.3.3,0,0,0,111.79,129.35Z"/><path class="cls-10" d="M74.12,150.18H72.84v-.34h1.28Z"/><path class="cls-10" d="M76,151.34v-3.16h1a1.23,1.23,0,0,1,.78.22.76.76,0,0,1,.28.64.53.53,0,0,1-.13.36.76.76,0,0,1-.33.25.75.75,0,0,1,.49.27.83.83,0,0,1,.18.53.82.82,0,0,1-.28.67,1.21,1.21,0,0,1-.77.22Zm.43-1.81h.69a.56.56,0,0,0,.39-.14.43.43,0,0,0,.15-.36.44.44,0,0,0-.16-.38.73.73,0,0,0-.47-.13h-.6Zm0,.33V151h.82a.7.7,0,0,0,.46-.14.53.53,0,0,0,.16-.41.57.57,0,0,0-.16-.43.7.7,0,0,0-.45-.17h-.83Z"/><path class="cls-10" d="M80.17,151.34q0-.1,0-.18a1,1,0,0,1,0-.17,1,1,0,0,1-.32.29.81.81,0,0,1-.41.11.76.76,0,0,1-.56-.19.68.68,0,0,1-.19-.52.59.59,0,0,1,.27-.52,1.25,1.25,0,0,1,.74-.19h.47v-.24a.44.44,0,0,0-.13-.32.49.49,0,0,0-.36-.12.48.48,0,0,0-.33.1.3.3,0,0,0-.13.25h-.41v0a.58.58,0,0,1,.24-.47,1.13,1.13,0,0,1,1.3,0,.73.73,0,0,1,.24.59v1.13a1.79,1.79,0,0,0,0,.24,1.57,1.57,0,0,0,0,.23Zm-.71-.31a.74.74,0,0,0,.42-.12.58.58,0,0,0,.25-.27v-.38h-.48a.62.62,0,0,0-.42.13.38.38,0,0,0-.15.3.33.33,0,0,0,.09.25A.44.44,0,0,0,79.46,151Z"/><path class="cls-10" d="M82.11,151.06a.48.48,0,0,0,.34-.14.39.39,0,0,0,.15-.32H83a.68.68,0,0,1-.27.54.88.88,0,0,1-.62.24.92.92,0,0,1-.77-.34,1.28,1.28,0,0,1-.26-.84v-.09a1.27,1.27,0,0,1,.27-.83.9.9,0,0,1,.76-.34.88.88,0,0,1,.64.24.82.82,0,0,1,.25.6h-.4a.48.48,0,0,0-.14-.36.45.45,0,0,0-.35-.15.5.5,0,0,0-.46.24,1.1,1.1,0,0,0-.14.59v.09a1.11,1.11,0,0,0,.14.6A.5.5,0,0,0,82.11,151.06Z"/><path class="cls-10" d="M84.15,150.26h-.22v1.08h-.42V148h.42v2h.22l.7-.93h.52l-.86,1.09.93,1.26h-.51Z"/><path class="cls-10" d="M85.66,150.21a1.56,1.56,0,0,1,.25-.91.77.77,0,0,1,.67-.35.87.87,0,0,1,.4.09.86.86,0,0,1,.28.26l0-.31h.34v2.37a.87.87,0,0,1-.26.69,1.08,1.08,0,0,1-.76.24,1.51,1.51,0,0,1-.71-.17l.07-.33a1.1,1.1,0,0,0,.29.1,1.45,1.45,0,0,0,.35,0,.58.58,0,0,0,.45-.14.56.56,0,0,0,.15-.43v-.27a.74.74,0,0,1-.28.22.87.87,0,0,1-.37.08.79.79,0,0,1-.67-.31,1.31,1.31,0,0,1-.25-.82Zm.43,0a1,1,0,0,0,.15.57.49.49,0,0,0,.45.21A.55.55,0,0,0,87,151a.64.64,0,0,0,.22-.24v-1.09a.61.61,0,0,0-.22-.23.55.55,0,0,0-.32-.09.48.48,0,0,0-.45.25,1.29,1.29,0,0,0-.15.66Z"/><path class="cls-10" d="M89.38,149.37h-.22a.49.49,0,0,0-.28.08.47.47,0,0,0-.18.23v1.67h-.43V149h.38l0,.35a.89.89,0,0,1,.25-.29.57.57,0,0,1,.34-.1h.16Z"/><path class="cls-10" d="M89.68,150.15a1.28,1.28,0,0,1,.29-.86.91.91,0,0,1,.76-.34.93.93,0,0,1,.77.34,1.28,1.28,0,0,1,.29.86v0a1.35,1.35,0,0,1-.28.86,1,1,0,0,1-.77.33.93.93,0,0,1-.77-.34,1.27,1.27,0,0,1-.29-.85Zm.43,0a1.07,1.07,0,0,0,.16.61.56.56,0,0,0,.93,0,1.07,1.07,0,0,0,.16-.61v0a1.1,1.1,0,0,0-.16-.62.53.53,0,0,0-.47-.24.51.51,0,0,0-.46.24,1.1,1.1,0,0,0-.16.62Z"/><path class="cls-10" d="M93.8,151a.86.86,0,0,1-.28.29.77.77,0,0,1-.4.1.73.73,0,0,1-.6-.25,1.08,1.08,0,0,1-.22-.76V149h.43v1.39a.89.89,0,0,0,.11.52.4.4,0,0,0,.35.14.7.7,0,0,0,.37-.09.58.58,0,0,0,.23-.26V149h.43v2.35h-.39Z"/><path class="cls-10" d="M95.22,149l0,.35a.92.92,0,0,1,.3-.29.85.85,0,0,1,.4-.1.81.81,0,0,1,.59.22,1,1,0,0,1,.21.69v1.48h-.43v-1.47a.64.64,0,0,0-.12-.44.5.5,0,0,0-.38-.13.58.58,0,0,0-.33.08.47.47,0,0,0-.22.22v1.74h-.43V149Z"/><path class="cls-10" d="M97.27,150.21a1.56,1.56,0,0,1,.24-.91.79.79,0,0,1,.68-.35.87.87,0,0,1,.37.08.8.8,0,0,1,.27.22V148h.43v3.38h-.33l-.07-.29a.67.67,0,0,1-.28.25.9.9,0,0,1-1.07-.22,1.31,1.31,0,0,1-.24-.82Zm.43,0a1,1,0,0,0,.14.57.52.52,0,0,0,.45.21.67.67,0,0,0,.33-.08.75.75,0,0,0,.21-.25v-1.09a.83.83,0,0,0-.21-.24.66.66,0,0,0-.32-.08.49.49,0,0,0-.46.25,1.4,1.4,0,0,0-.14.66Z"/><path class="cls-10" d="M74.12,158H72.84v-.33h1.28Z"/><path class="cls-10" d="M76,159.13V156h1a1.31,1.31,0,0,1,1,.38,1.33,1.33,0,0,1,.38,1v.43A1.3,1.3,0,0,1,77,159.13Zm.43-2.83v2.49H77a.88.88,0,0,0,.7-.28,1.1,1.1,0,0,0,.25-.75v-.43a1.07,1.07,0,0,0-.25-.74.89.89,0,0,0-.7-.29Z"/><path class="cls-10" d="M80.56,158.31H79.37l-.28.82h-.44L79.79,156h.37l1.11,3.16h-.43ZM79.49,158h1L80,156.6h0Z"/><path class="cls-10" d="M82.17,157.76v1.37h-.43V156h1.08a1.2,1.2,0,0,1,.79.23.81.81,0,0,1,.28.67.68.68,0,0,1-.13.42.85.85,0,0,1-.37.29.68.68,0,0,1,.38.27,1,1,0,0,1,.11.47v.3a1.12,1.12,0,0,0,0,.27.45.45,0,0,0,.11.19v0h-.44a.35.35,0,0,1-.1-.22,1.36,1.36,0,0,1,0-.29v-.29a.6.6,0,0,0-.15-.42.54.54,0,0,0-.4-.15Zm0-.34h.61a.75.75,0,0,0,.52-.14.51.51,0,0,0,.16-.42.53.53,0,0,0-.16-.41.66.66,0,0,0-.48-.15h-.65Z"/><path class="cls-10" d="M85.28,157.7H85v1.43h-.43V156H85v1.4h.23l1.18-1.4h.48l-1.28,1.49L87,159.12h-.52Z"/><path class="cls-10" d="M90.07,158.54h0l1-2.57h.54v3.16H91.2v-2.37h0l-1,2.37h-.3l-1-2.45h0v2.45H88.5V156h.57Z"/><path class="cls-10" d="M94.78,157.83a1.33,1.33,0,0,1-.36,1,1.2,1.2,0,0,1-.93.38,1.14,1.14,0,0,1-.9-.38,1.37,1.37,0,0,1-.35-1v-.56a1.37,1.37,0,0,1,.35-1,1.14,1.14,0,0,1,.9-.39,1.24,1.24,0,0,1,.93.38,1.37,1.37,0,0,1,.36,1Zm-.43-.57a1,1,0,0,0-.23-.71.81.81,0,0,0-.63-.28.75.75,0,0,0-.6.28,1.16,1.16,0,0,0-.22.71v.57a1.19,1.19,0,0,0,.22.72.74.74,0,0,0,.6.27.77.77,0,0,0,.63-.27,1.07,1.07,0,0,0,.23-.72Z"/><path class="cls-10" d="M95.4,159.13V156h1a1.31,1.31,0,0,1,1,.38,1.33,1.33,0,0,1,.38,1v.43a1.3,1.3,0,0,1-1.38,1.37Zm.43-2.83v2.49h.56a.88.88,0,0,0,.7-.28,1.15,1.15,0,0,0,.25-.75v-.43a1.12,1.12,0,0,0-.25-.74.89.89,0,0,0-.7-.29Z"/><path class="cls-10" d="M100.14,157.66h-1.3v1.13h1.52v.34h-2V156h1.93v.33h-1.5v1h1.3Z"/><path class="cls-10" d="M104.18,156.3h-1v2.83h-.43V156.3h-1V156h2.5Z"/><path class="cls-10" d="M105.33,159.17a1,1,0,0,1-.79-.32,1.23,1.23,0,0,1-.28-.85v-.1a1.23,1.23,0,0,1,.29-.83.92.92,0,0,1,.71-.33.84.84,0,0,1,.71.29,1.17,1.17,0,0,1,.24.78V158H104.7a1,1,0,0,0,.15.58.55.55,0,0,0,.48.22,1.08,1.08,0,0,0,.38-.06.78.78,0,0,0,.28-.17l.17.28a.88.88,0,0,1-.33.2A1.25,1.25,0,0,1,105.33,159.17Zm-.07-2.1a.5.5,0,0,0-.37.17.9.9,0,0,0-.17.45h1.06v0a.64.64,0,0,0-.13-.42A.45.45,0,0,0,105.26,157.07Z"/><path class="cls-10" d="M107.48,157.65l.5-.87h.5l-.76,1.16.79,1.19H108l-.52-.89-.52.89h-.49l.78-1.19-.76-1.16H107Z"/><path class="cls-10" d="M109.52,156.21v.57H110v.32h-.44v1.42a.33.33,0,0,0,.07.24.24.24,0,0,0,.18.06h.08l.08,0,.06.3-.14.06a.65.65,0,0,1-.19,0,.56.56,0,0,1-.41-.15.67.67,0,0,1-.16-.5V157.1h-.37v-.32h.37v-.57Z"/><path class="cls-10" d="M111.79,158.5a.28.28,0,0,0-.11-.23,1.11,1.11,0,0,0-.41-.16,1.69,1.69,0,0,1-.63-.25.51.51,0,0,1-.23-.43.64.64,0,0,1,.25-.49.92.92,0,0,1,.63-.2,1,1,0,0,1,.65.21.68.68,0,0,1,.24.51h-.42a.35.35,0,0,0-.13-.27.45.45,0,0,0-.34-.13.55.55,0,0,0-.34.1.34.34,0,0,0-.11.25.24.24,0,0,0,.1.21,1,1,0,0,0,.4.14,1.66,1.66,0,0,1,.65.26.53.53,0,0,1,.23.44.63.63,0,0,1-.26.51,1,1,0,0,1-.66.19,1.06,1.06,0,0,1-.71-.22.66.66,0,0,1-.24-.54h.41a.41.41,0,0,0,.17.33.6.6,0,0,0,.37.11.57.57,0,0,0,.36-.1A.27.27,0,0,0,111.79,158.5Z"/></svg>