<?xml version="1.0" encoding="utf-8"?>
<!-- Generator: Adobe Illustrator 24.2.0, SVG Export Plug-In . SVG Version: 6.00 Build 0)  -->
<svg version="1.1" id="Livello_1" xmlns="http://www.w3.org/2000/svg" xmlns:xlink="http://www.w3.org/1999/xlink" x="0px" y="0px"
	 viewBox="0 0 581.91 563.16" style="enable-background:new 0 0 581.91 563.16;" xml:space="preserve">
<style type="text/css">
	.st0{fill:#E1F2EC;}
	.st1{opacity:0.47;fill:#6275B2;enable-background:new    ;}
	.st2{fill:#444482;}
	.st3{fill:none;stroke:#444482;stroke-width:1.047;stroke-linecap:round;stroke-linejoin:round;stroke-miterlimit:10;}
	.st4{fill:#35AD6B;}
	.st5{opacity:0.47;fill:#767676;enable-background:new    ;}
	.st6{fill:#4B4B4B;}
	.st7{fill:none;stroke:#4B4B4B;stroke-width:1.047;stroke-linecap:round;stroke-linejoin:round;stroke-miterlimit:10;}
	.st8{fill:#828282;}
	.st9{fill:none;stroke:#929FC8;stroke-width:2;stroke-miterlimit:10;}
	.st10{fill:#333338;}
</style>
<rect class="st0" width="581.91" height="563.16"/>
<g>
	<path class="st1" d="M161.34,287.45c0,0,3.02-25.6,41.09-13.56C202.43,273.89,183.2,305.97,161.34,287.45z"/>
	<path class="st1" d="M159.24,287.58c0,0-3.13-25.79-42.58-13.66C116.66,273.92,136.6,306.23,159.24,287.58z"/>
	<path class="st1" d="M159.66,287.45c0,0,25.28-22.35-28.65-51.72C131.02,235.74,123.83,290.46,159.66,287.45z"/>
	<path class="st1" d="M159.63,287.45c0,0-25.28-22.35,28.65-51.72C188.27,235.74,195.46,290.46,159.63,287.45z"/>
	<path class="st2" d="M146.18,274.18c-0.23,0-0.43-0.15-0.5-0.37c-3.36-11.24,1.2-26.63,13.56-45.74c0.19-0.3,0.76-0.3,0.95,0
		c12.24,18.92,16.83,34.21,13.66,45.42c-0.08,0.28-0.36,0.44-0.65,0.36c-0.28-0.08-0.44-0.37-0.36-0.65
		c3.06-10.79-1.36-25.57-13.12-43.95c-11.88,18.55-16.27,33.43-13.04,44.25c0.08,0.28-0.08,0.57-0.35,0.65
		C146.28,274.17,146.23,274.18,146.18,274.18z"/>
	<path class="st3" d="M146.18,273.65"/>
	<path class="st2" d="M159.76,287.94h-0.08c-0.29,0-0.52-0.23-0.52-0.52c0-0.29,0.23-0.52,0.52-0.52c0.29,0,0.56,0.23,0.56,0.52
		C160.24,287.71,160.05,287.94,159.76,287.94z"/>
	<path class="st2" d="M145.36,293.9c-0.94,0-1.92-0.06-2.93-0.2c-12.06-1.67-23.88-13.25-35.13-34.44c-0.08-0.16-0.08-0.35,0.01-0.5
		c0.09-0.15,0.28-0.32,0.46-0.33c23.42-1.53,39.31,2.23,47.26,11.19c0.19,0.22,0.17,0.55-0.04,0.74c-0.22,0.19-0.55,0.17-0.74-0.04
		c-7.64-8.61-23.01-12.28-45.68-10.89c10.98,20.46,22.41,31.64,34,33.24c9.94,1.38,16.34-5.18,16.4-5.25
		c0.14-0.25,0.44-0.32,0.69-0.18c0.25,0.14,0.32,0.48,0.18,0.73l-0.04,0.07C159.49,288.39,154.11,293.9,145.36,293.9z"/>
	<path class="st2" d="M174.14,293.65c-8.75,0-14.12-5.5-14.37-5.76c-0.03-0.03-0.09-0.14-0.12-0.17c-0.14-0.25-0.05-0.57,0.2-0.71
		c0.26-0.14,0.57-0.05,0.71,0.2l0.04,0.07l0,0c0.02,0,6.43,6.52,16.35,5.14c11.58-1.61,23.01-12.79,33.98-33.24
		c-22.6-1.38-37.93,2.25-45.6,10.81c-0.19,0.22-0.53,0.23-0.74,0.04s-0.23-0.52-0.04-0.74c7.98-8.9,23.87-12.63,47.19-11.11
		c0.18,0.01,0.33,0.11,0.42,0.27s0.13,0.41,0.04,0.57c-11.25,21.19-23.07,32.77-35.13,34.44
		C176.06,293.58,175.08,293.65,174.14,293.65z"/>
	<path class="st2" d="M138.8,300.53c-10.88,0-24.16-6.64-39.59-19.8c-0.13-0.11-0.2-0.29-0.18-0.46c0.02-0.18,0.14-0.41,0.31-0.49
		c21.69-10.25,38.09-12.46,48.75-6.58c9.26,5.1,10.49,14.41,10.54,14.81c0.01,0.05,0.01,0.09,0,0.14c-0.01,0.04-0.03,0.16-0.04,0.2
		c-0.15,0.37-3.78,9.03-14.05,11.52C142.7,300.31,140.79,300.53,138.8,300.53z M100.46,280.41c17.71,14.99,32.45,21.19,43.81,18.44
		c9.22-2.23,12.91-9.92,13.32-10.82c-0.16-1-1.71-9.36-10.01-13.93C137.33,268.47,121.48,270.59,100.46,280.41z M158.1,288.14
		L158.1,288.14L158.1,288.14z"/>
	<path class="st2" d="M180.66,300.53c-1.99,0-3.9-0.22-5.73-0.67c-10.27-2.5-13.9-11.16-14.05-11.52c-0.02-0.04-0.03-0.09-0.03-0.13
		l-0.01-0.08c0.05-0.52,1.28-9.83,10.54-14.93c10.66-5.88,27.06-3.66,48.75,6.58c0.16,0.08,0.27,0.23,0.3,0.41
		c0.02,0.17-0.04,0.43-0.17,0.54C204.82,293.89,191.54,300.53,180.66,300.53z M161.88,288.03c0.41,0.92,4.1,8.59,13.31,10.82
		c11.35,2.75,26.09-3.45,43.81-18.44c-21.03-9.83-36.88-11.95-47.13-6.3C163.56,278.69,162.03,287.05,161.88,288.03z"/>
	<circle class="st4" cx="160.46" cy="211.72" r="5.94"/>
	<g>
		<g>
			<path class="st2" d="M118.31,331.43c1.79,2.26,2.69,5.41,2.69,9.43c0,4.26-1.02,7.66-3.07,10.21s-4.94,3.83-8.69,3.83
				c-0.85,0-1.64-0.06-2.38-0.18s-1.69-0.3-2.84-0.53c-1.08-0.24-1.99-0.41-2.74-0.53c-0.74-0.12-1.54-0.18-2.38-0.18l-0.3-0.66
				c0.57-1.08,0.97-2.15,1.19-3.19c0.22-1.05,0.33-2.64,0.33-4.77v-25.2c0-1.18,0.41-1.77,1.22-1.77c0.2,0,0.42,0.07,0.66,0.2v15.31
				c0.98-1.69,2.23-3.01,3.75-3.95c1.52-0.95,3.26-1.42,5.22-1.42C114.07,328.03,116.52,329.17,118.31,331.43z M116.66,349.98
				c1.61-2.26,2.41-5.29,2.41-9.07c0-3.58-0.71-6.37-2.13-8.36s-3.41-2.99-5.98-2.99c-1.72,0-3.27,0.45-4.64,1.34
				s-2.43,2.13-3.19,3.7s-1.14,3.35-1.14,5.35v4.92c0,1.52-0.09,2.86-0.26,4.01c-0.17,1.15-0.47,2.18-0.91,3.09
				c0.81,0.03,1.66,0.15,2.53,0.36c0.88,0.2,1.42,0.32,1.62,0.36c1.05,0.24,1.93,0.41,2.64,0.53s1.44,0.18,2.18,0.18
				C112.76,353.38,115.06,352.25,116.66,349.98z"/>
			<path class="st2" d="M109.23,355.11c-0.85,0-1.66-0.06-2.42-0.18c-0.75-0.12-1.71-0.3-2.85-0.53c-1.07-0.23-1.98-0.41-2.73-0.53
				c-0.73-0.12-1.52-0.17-2.35-0.17h-0.13l-0.4-0.87l0.05-0.09c0.56-1.06,0.96-2.12,1.17-3.14c0.22-1.03,0.33-2.62,0.33-4.72v-25.2
				c0-1.64,0.77-1.98,1.42-1.98c0.24,0,0.49,0.08,0.76,0.23l0.11,0.06v14.7c0.93-1.42,2.08-2.56,3.44-3.4
				c1.55-0.96,3.34-1.45,5.33-1.45c3.16,0,5.69,1.17,7.51,3.48l0,0c1.81,2.29,2.73,5.51,2.73,9.56c0,4.29-1.05,7.77-3.11,10.34
				C116.01,353.8,113.03,355.11,109.23,355.11z M99.02,353.28c0.8,0.01,1.57,0.07,2.28,0.18c0.75,0.12,1.67,0.3,2.75,0.53
				c1.13,0.23,2.08,0.41,2.83,0.53c0.73,0.12,1.52,0.17,2.35,0.17c3.67,0,6.54-1.26,8.53-3.75c2.01-2.5,3.02-5.9,3.02-10.09
				c0-3.95-0.89-7.08-2.64-9.3l0,0c-1.74-2.2-4.16-3.32-7.19-3.32c-1.91,0-3.63,0.47-5.11,1.39c-1.49,0.92-2.73,2.23-3.68,3.88
				l-0.39,0.67v-15.96c-0.16-0.08-0.32-0.12-0.45-0.12c-0.43,0-1.01,0.16-1.01,1.57v25.2c0,2.13-0.11,3.75-0.33,4.81
				c-0.22,1.03-0.61,2.09-1.16,3.16L99.02,353.28z M109.79,353.59c-0.75,0-1.5-0.06-2.22-0.18c-0.7-0.12-1.59-0.3-2.65-0.53
				c-0.19-0.03-0.71-0.14-1.62-0.36c-0.86-0.2-1.7-0.32-2.5-0.35l-0.31-0.01l0.14-0.28c0.43-0.89,0.73-1.91,0.89-3.03
				c0.17-1.13,0.25-2.47,0.25-3.98v-4.92c0-2.02,0.39-3.85,1.16-5.44c0.77-1.6,1.87-2.87,3.27-3.78c1.4-0.91,3-1.38,4.75-1.38
				c2.62,0,4.7,1.04,6.15,3.08c1.44,2.02,2.17,4.88,2.17,8.49c0,3.81-0.82,6.9-2.45,9.19l0,0
				C115.19,352.42,112.82,353.59,109.79,353.59z M101.13,351.77c0.73,0.05,1.49,0.16,2.27,0.34c0.91,0.21,1.42,0.32,1.61,0.35
				c1.06,0.24,1.94,0.42,2.64,0.53c0.7,0.12,1.42,0.17,2.15,0.17c2.89,0,5.14-1.11,6.7-3.31l0,0c1.57-2.22,2.37-5.23,2.37-8.95
				c0-3.52-0.7-6.29-2.09-8.24c-1.37-1.93-3.33-2.9-5.81-2.9c-1.67,0-3.2,0.44-4.53,1.31s-2.38,2.09-3.12,3.62
				c-0.74,1.53-1.12,3.3-1.12,5.26v4.92c0,1.52-0.09,2.88-0.26,4.04C101.78,349.95,101.51,350.91,101.13,351.77z"/>
		</g>
		<g>
			<path class="st2" d="M139.78,352.77c-1.42-1.42-2.13-3.33-2.13-5.73c0-2.47,0.8-4.42,2.41-5.86c1.61-1.44,3.76-2.15,6.46-2.15
				c1.56,0,2.94,0.22,4.16,0.66s2.2,1.05,2.94,1.83v-3.85c0-2.47-0.65-4.44-1.95-5.91s-3.05-2.21-5.25-2.21
				c-2.57,0-4.88,1.08-6.94,3.24c-0.68,0-1.01-0.3-1.01-0.91c0-0.37,0.38-0.87,1.14-1.5c0.76-0.62,1.77-1.17,3.02-1.65
				c1.25-0.47,2.59-0.71,4.01-0.71c2.67,0,4.82,0.88,6.44,2.64s2.43,4.09,2.43,7v15.16c0,1.18-0.41,1.77-1.22,1.77
				c-0.2,0-0.42-0.07-0.66-0.2v-3.24c-0.95,1.15-2.13,2.06-3.55,2.74s-2.94,1.01-4.56,1.01C143.11,354.9,141.2,354.19,139.78,352.77
				z M149.26,352.55c1.28-0.56,2.33-1.34,3.14-2.36c0.81-1.01,1.22-2.18,1.22-3.5v-1.67c0-1.45-0.72-2.56-2.16-3.32
				s-3.17-1.14-5.2-1.14c-2.06,0-3.69,0.59-4.89,1.77s-1.8,2.77-1.8,4.77c0,1.93,0.51,3.46,1.55,4.59c1.03,1.13,2.42,1.7,4.18,1.7
				C146.66,353.38,147.97,353.1,149.26,352.55z"/>
			<path class="st2" d="M145.51,355.11c-2.45,0-4.42-0.74-5.88-2.19l0,0c-1.45-1.45-2.19-3.43-2.19-5.88c0-2.52,0.83-4.54,2.48-6.01
				c1.64-1.46,3.86-2.21,6.6-2.21c1.57,0,2.99,0.23,4.23,0.67c1.05,0.38,1.95,0.9,2.66,1.53v-3.36c0-2.4-0.64-4.34-1.9-5.77
				c-1.25-1.42-2.97-2.14-5.09-2.14c-2.5,0-4.78,1.07-6.8,3.18l-0.06,0.06h-0.09c-0.79,0-1.22-0.4-1.22-1.12
				c0-0.45,0.39-0.97,1.22-1.66c0.78-0.64,1.81-1.2,3.08-1.68c1.27-0.48,2.64-0.72,4.08-0.72c2.72,0,4.93,0.91,6.59,2.7
				c1.65,1.79,2.49,4.19,2.49,7.14v15.16c0,1.64-0.78,1.98-1.43,1.98c-0.24,0-0.49-0.08-0.76-0.23l-0.11-0.06v-2.81
				c-0.9,0.97-1.99,1.77-3.25,2.37C148.72,354.76,147.16,355.11,145.51,355.11z M139.93,352.63c1.37,1.37,3.25,2.07,5.58,2.07
				c1.58,0,3.09-0.33,4.47-0.99s2.55-1.56,3.48-2.68l0.37-0.45v3.7c0.17,0.08,0.31,0.12,0.45,0.12c0.43,0,1.01-0.16,1.01-1.57
				v-15.16c0-2.84-0.8-5.14-2.38-6.85c-1.57-1.7-3.69-2.57-6.29-2.57c-1.39,0-2.71,0.23-3.93,0.7c-1.22,0.46-2.21,1-2.96,1.61
				c-0.93,0.76-1.06,1.16-1.06,1.34c0,0.47,0.22,0.68,0.72,0.7c2.08-2.15,4.44-3.24,7.03-3.24c2.25,0,4.06,0.77,5.4,2.28
				c1.33,1.5,2,3.54,2,6.04v4.37l-0.36-0.37c-0.72-0.75-1.68-1.35-2.86-1.77c-1.19-0.43-2.56-0.65-4.09-0.65
				c-2.64,0-4.77,0.71-6.32,2.1s-2.34,3.31-2.34,5.7C137.86,349.38,138.55,351.25,139.93,352.63L139.93,352.63z M145.3,353.59
				c-1.81,0-3.27-0.59-4.34-1.77c-1.06-1.16-1.6-2.76-1.6-4.73c0-2.04,0.63-3.69,1.86-4.91c1.24-1.22,2.93-1.83,5.04-1.83
				c2.05,0,3.83,0.39,5.29,1.16c1.5,0.8,2.27,1.98,2.27,3.5v1.67c0,1.36-0.43,2.58-1.26,3.63c-0.83,1.04-1.91,1.85-3.22,2.42l0,0
				C148.04,353.3,146.68,353.59,145.3,353.59z M146.27,340.76c-2,0-3.59,0.58-4.75,1.71c-1.15,1.14-1.74,2.69-1.74,4.62
				c0,1.87,0.5,3.36,1.49,4.45c0.99,1.08,2.34,1.63,4.03,1.63c1.32,0,2.62-0.28,3.87-0.82l0,0c1.25-0.54,2.28-1.31,3.07-2.3
				c0.78-0.97,1.17-2.11,1.17-3.37v-1.67c0-1.38-0.67-2.41-2.04-3.14C149.97,341.14,148.25,340.76,146.27,340.76z"/>
		</g>
		<g>
			<path class="st2" d="M197.45,353.38c0,0.34-0.13,0.59-0.38,0.76s-0.62,0.25-1.09,0.25h-17.79l-0.3-0.66
				c0.51-1.01,0.85-2.18,1.04-3.5c0.19-1.32,0.28-3.11,0.28-5.37v-24.38c0-1.18,0.42-1.77,1.27-1.77c0.2,0,0.42,0.07,0.66,0.2v25.96
				c0,3.68-0.3,6.32-0.91,7.91h17.09C197.39,352.98,197.45,353.18,197.45,353.38z"/>
			<path class="st2" d="M195.97,354.6h-17.93l-0.4-0.87l0.05-0.09c0.49-0.99,0.84-2.14,1.02-3.43c0.18-1.3,0.28-3.1,0.28-5.35
				v-24.38c0-1.64,0.8-1.98,1.48-1.98c0.24,0,0.49,0.08,0.76,0.23l0.11,0.06v26.08c0,3.49-0.28,6.07-0.83,7.7h16.92l0.06,0.12
				c0.12,0.23,0.17,0.47,0.17,0.7c0,0.41-0.16,0.73-0.47,0.93C196.89,354.51,196.5,354.6,195.97,354.6z M178.31,354.19h17.66
				c0.43,0,0.76-0.07,0.98-0.22c0.2-0.13,0.29-0.32,0.29-0.59c0-0.13-0.03-0.26-0.08-0.4H179.9l0.11-0.28
				c0.6-1.56,0.9-4.19,0.9-7.83v-25.83c-0.16-0.08-0.32-0.12-0.45-0.12c-0.46,0-1.06,0.16-1.06,1.57v24.38
				c0,2.27-0.09,4.09-0.28,5.4c-0.18,1.3-0.52,2.46-1.01,3.47L178.31,354.19z"/>
		</g>
		<g>
			<path class="st2" d="M216.86,354.4v-24.28c0-1.18,0.41-1.77,1.22-1.77c0.2,0,0.42,0.07,0.66,0.2v24.28
				c0,1.18-0.41,1.77-1.22,1.77C217.32,354.6,217.1,354.53,216.86,354.4z"/>
			<path class="st2" d="M217.52,354.81c-0.24,0-0.49-0.08-0.76-0.23l-0.11-0.06v-24.4c0-1.64,0.77-1.98,1.42-1.98
				c0.24,0,0.5,0.08,0.76,0.23l0.11,0.06v24.4C218.94,354.46,218.17,354.81,217.52,354.81z M217.07,354.27
				c0.16,0.08,0.32,0.12,0.45,0.12c0.43,0,1.01-0.16,1.01-1.57v-24.16c-0.16-0.08-0.32-0.12-0.45-0.12c-0.43,0-1.01,0.16-1.01,1.57
				V354.27z"/>
		</g>
		<g>
			<path class="st2" d="M98.03,409.51c-0.74-0.44-1.12-0.91-1.12-1.42c0-0.61,0.27-0.91,0.81-0.91c0.74,0.98,1.71,1.47,2.89,1.47
				c1.55,0,2.67-0.86,3.35-2.59l1.77-4.56l-8.82-23.17c-0.1-0.2-0.15-0.42-0.15-0.66c0-0.34,0.13-0.62,0.38-0.84
				s0.58-0.33,0.99-0.33l8.52,22.66l8.11-21.5c0.27-0.78,0.71-1.17,1.32-1.17c0.34,0,0.64,0.07,0.91,0.2l-11.25,29.56
				c-1.01,2.6-2.69,3.9-5.02,3.9C99.67,410.17,98.77,409.95,98.03,409.51z"/>
			<path class="st2" d="M100.72,410.38c-1.08,0-2.02-0.23-2.79-0.69c-0.81-0.48-1.22-1.01-1.22-1.6c0-0.72,0.36-1.12,1.02-1.12h0.1
				l0.06,0.08c0.71,0.93,1.6,1.39,2.73,1.39c1.47,0,2.5-0.8,3.15-2.45l1.75-4.49l-8.79-23.09c-0.11-0.21-0.17-0.47-0.17-0.73
				c0-0.4,0.15-0.73,0.45-0.99c0.29-0.25,0.67-0.38,1.13-0.38h0.14l0.05,0.13l8.32,22.14l7.92-20.98c0.3-0.86,0.81-1.3,1.51-1.3
				c0.37,0,0.71,0.08,1,0.22l0.17,0.08l-0.07,0.18l-11.25,29.56C104.88,409.02,103.13,410.38,100.72,410.38z M97.63,407.39
				c-0.26,0.02-0.5,0.15-0.5,0.7c0,0.43,0.34,0.84,1.01,1.24l0,0c0.71,0.42,1.58,0.63,2.58,0.63c2.26,0,3.84-1.23,4.83-3.77
				l11.18-29.37c-0.2-0.07-0.41-0.11-0.65-0.11c-0.51,0-0.88,0.34-1.12,1.03l-8.31,22.02l-8.66-23.04
				c-0.29,0.02-0.52,0.11-0.71,0.27c-0.21,0.18-0.31,0.4-0.31,0.68c0,0.2,0.04,0.39,0.13,0.57l8.86,23.26l-1.81,4.64
				c-0.71,1.8-1.9,2.72-3.54,2.72C99.4,408.86,98.4,408.36,97.63,407.39z"/>
		</g>
		<g>
			<path class="st2" d="M134.15,401.42c-1.64-1.1-2.9-2.66-3.78-4.69s-1.32-4.39-1.32-7.1c0-2.7,0.44-5.07,1.32-7.1
				s2.14-3.59,3.78-4.69s3.56-1.65,5.75-1.65c2.2,0,4.11,0.55,5.75,1.65s2.9,2.66,3.78,4.69s1.32,4.39,1.32,7.1
				c0,2.7-0.44,5.07-1.32,7.1s-2.14,3.59-3.78,4.69s-3.56,1.65-5.75,1.65C137.71,403.07,135.79,402.52,134.15,401.42z
				 M146.42,398.33c1.6-2.15,2.41-5.04,2.41-8.69s-0.8-6.55-2.41-8.69c-1.61-2.15-3.78-3.22-6.52-3.22s-4.91,1.07-6.51,3.22
				c-1.61,2.15-2.41,5.04-2.41,8.69s0.8,6.55,2.41,8.69c1.61,2.15,3.78,3.22,6.51,3.22C142.64,401.55,144.81,400.48,146.42,398.33z"
				/>
			<path class="st2" d="M139.9,403.28c-2.23,0-4.2-0.57-5.87-1.68c-1.66-1.11-2.96-2.72-3.85-4.78c-0.89-2.04-1.34-4.46-1.34-7.18
				s0.45-5.14,1.34-7.18c0.89-2.06,2.19-3.66,3.85-4.78s3.64-1.68,5.87-1.68s4.2,0.57,5.87,1.68c1.66,1.12,2.96,2.72,3.85,4.78
				c0.89,2.05,1.34,4.46,1.34,7.18s-0.45,5.13-1.34,7.18c-0.89,2.06-2.19,3.67-3.85,4.78C144.11,402.71,142.13,403.28,139.9,403.28z
				 M139.9,376.41c-2.14,0-4.04,0.54-5.64,1.61c-1.6,1.07-2.84,2.62-3.7,4.6c-0.86,1.99-1.3,4.35-1.3,7.02
				c0,2.66,0.44,5.02,1.3,7.01c0.86,1.98,2.11,3.53,3.7,4.6l0,0c1.6,1.07,3.49,1.61,5.64,1.61s4.04-0.54,5.64-1.61
				c1.6-1.07,2.84-2.62,3.7-4.6c0.86-1.99,1.3-4.35,1.3-7.01s-0.44-5.02-1.3-7.02c-0.86-1.98-2.11-3.53-3.7-4.6
				C143.95,376.95,142.05,376.41,139.9,376.41z M139.9,401.76c-2.79,0-5.04-1.11-6.68-3.3c-1.62-2.17-2.45-5.14-2.45-8.82
				s0.82-6.65,2.45-8.82c1.64-2.19,3.89-3.3,6.68-3.3s5.04,1.11,6.68,3.3c1.63,2.18,2.45,5.14,2.45,8.82s-0.82,6.64-2.45,8.82l0,0
				C144.95,400.65,142.7,401.76,139.9,401.76z M139.9,377.93c-2.66,0-4.79,1.06-6.35,3.14c-1.57,2.1-2.36,4.98-2.36,8.57
				s0.79,6.47,2.36,8.57c1.56,2.08,3.69,3.14,6.35,3.14s4.79-1.06,6.35-3.14l0,0c1.57-2.1,2.37-4.98,2.37-8.57
				c0-3.58-0.8-6.47-2.37-8.57C144.7,378.99,142.56,377.93,139.9,377.93z"/>
		</g>
		<g>
			<path class="st2" d="M187.36,378.28c-0.58,1.08-0.97,2.15-1.19,3.19c-0.22,1.05-0.33,2.64-0.33,4.77v13.59
				c0,3.11-0.89,5.61-2.69,7.5c-1.79,1.89-4.23,2.84-7.3,2.84c-1.69,0-3.24-0.27-4.64-0.81s-2.51-1.17-3.32-1.88
				c-0.81-0.71-1.22-1.27-1.22-1.67c0-0.61,0.34-0.91,1.01-0.91c1.22,1.28,2.48,2.23,3.78,2.84s2.76,0.91,4.39,0.91
				c2.67,0,4.69-0.78,6.06-2.33s2.05-3.72,2.05-6.49v-4.16c-0.98,1.69-2.23,3.01-3.75,3.95c-1.52,0.95-3.26,1.42-5.22,1.42
				c-2.03,0-3.79-0.49-5.3-1.47c-1.5-0.98-2.67-2.36-3.5-4.13c-0.83-1.77-1.24-3.83-1.24-6.16c0-2.5,0.46-4.74,1.37-6.72
				c0.91-1.98,2.26-3.53,4.03-4.66s3.9-1.7,6.36-1.7c0.84,0,1.64,0.06,2.38,0.18s1.69,0.3,2.84,0.53c1.08,0.24,1.99,0.41,2.74,0.53
				c0.74,0.12,1.54,0.18,2.38,0.18L187.36,378.28z M183.96,386.24c0-1.52,0.08-2.86,0.25-4c0.17-1.15,0.47-2.18,0.91-3.09
				c-0.81-0.03-1.66-0.15-2.53-0.35c-0.88-0.2-1.42-0.32-1.62-0.36c-1.05-0.24-1.93-0.41-2.64-0.53s-1.44-0.18-2.18-0.18
				c-2.94,0-5.22,1.08-6.84,3.24s-2.43,4.94-2.43,8.31c0,3.08,0.72,5.55,2.15,7.43c1.44,1.88,3.42,2.81,5.96,2.81
				c1.72,0,3.27-0.45,4.64-1.34c1.37-0.89,2.43-2.13,3.19-3.7c0.76-1.57,1.14-3.35,1.14-5.35L183.96,386.24L183.96,386.24z"/>
			<path class="st2" d="M175.85,410.38c-1.71,0-3.29-0.28-4.71-0.83c-1.42-0.55-2.56-1.19-3.38-1.91c-0.87-0.76-1.29-1.35-1.29-1.83
				c0-0.72,0.43-1.12,1.22-1.12h0.09l0.06,0.06c1.19,1.26,2.44,2.2,3.71,2.79s2.71,0.89,4.3,0.89c2.6,0,4.58-0.76,5.9-2.26
				c1.33-1.51,2-3.65,2-6.35v-3.43c-0.93,1.42-2.09,2.56-3.44,3.4c-1.55,0.96-3.34,1.45-5.33,1.45c-2.06,0-3.88-0.51-5.41-1.5
				s-2.73-2.41-3.57-4.22c-0.84-1.79-1.26-3.9-1.26-6.25c0-2.52,0.47-4.81,1.39-6.8c0.92-2,2.3-3.6,4.1-4.75s3.98-1.73,6.48-1.73
				c0.85,0,1.66,0.06,2.42,0.18c0.74,0.12,1.67,0.29,2.85,0.53c1.11,0.24,2,0.41,2.73,0.53s1.52,0.17,2.35,0.17h0.13l0.4,0.87
				l-0.05,0.09c-0.56,1.06-0.96,2.12-1.17,3.14c-0.22,1.03-0.33,2.62-0.33,4.72v13.59c0,3.15-0.92,5.72-2.74,7.64
				C181.47,409.4,178.97,410.38,175.85,410.38z M167.6,405.11c-0.5,0.02-0.72,0.24-0.72,0.7c0,0.24,0.2,0.69,1.15,1.52
				c0.79,0.69,1.88,1.31,3.26,1.84c1.37,0.53,2.91,0.8,4.56,0.8c3,0,5.41-0.93,7.15-2.77c1.74-1.84,2.63-4.32,2.63-7.36v-13.59
				c0-2.13,0.11-3.75,0.33-4.81c0.22-1.03,0.61-2.09,1.17-3.16l-0.21-0.45c-0.8-0.01-1.57-0.07-2.28-0.18
				c-0.74-0.12-1.64-0.29-2.75-0.53c-1.17-0.24-2.09-0.41-2.83-0.53c-0.73-0.12-1.52-0.17-2.35-0.17c-2.42,0-4.52,0.56-6.25,1.67
				c-1.73,1.11-3.06,2.65-3.95,4.58c-0.9,1.94-1.35,4.17-1.35,6.63c0,2.29,0.41,4.33,1.22,6.07c0.81,1.73,1.96,3.09,3.42,4.04
				c1.46,0.95,3.21,1.44,5.18,1.44c1.91,0,3.63-0.47,5.11-1.39s2.72-2.23,3.68-3.88l0.39-0.67v4.93c0,2.81-0.71,5.04-2.11,6.63
				s-3.49,2.4-6.21,2.4c-1.65,0-3.15-0.31-4.47-0.93C170.08,407.32,168.81,406.37,167.6,405.11z M174.99,399.73
				c-2.59,0-4.65-0.97-6.12-2.89c-1.46-1.9-2.2-4.45-2.2-7.55c0-3.41,0.83-6.25,2.48-8.44c1.66-2.21,4.01-3.33,7.01-3.33
				c0.75,0,1.49,0.06,2.22,0.18c0.72,0.12,1.61,0.3,2.65,0.53c0.2,0.03,0.73,0.15,1.62,0.36c0.86,0.2,1.7,0.32,2.5,0.35l0.32,0.01
				l-0.14,0.28c-0.43,0.89-0.73,1.91-0.89,3.03c-0.17,1.13-0.25,2.46-0.25,3.97v2.89c0,2.01-0.39,3.84-1.16,5.44
				s-1.87,2.87-3.27,3.78C178.34,399.27,176.74,399.73,174.99,399.73z M176.15,377.93c-2.86,0-5.1,1.06-6.68,3.16
				c-1.59,2.12-2.39,4.87-2.39,8.19c0,3.01,0.71,5.47,2.11,7.3c1.39,1.81,3.34,2.73,5.79,2.73c1.67,0,3.2-0.44,4.53-1.31
				s2.38-2.09,3.12-3.62c0.74-1.54,1.12-3.31,1.12-5.26v-2.89c0-1.53,0.09-2.89,0.25-4.03c0.16-1.05,0.43-2.01,0.8-2.87
				c-0.73-0.05-1.49-0.16-2.27-0.34c-0.87-0.2-1.41-0.32-1.61-0.35c-1.04-0.23-1.92-0.41-2.63-0.53
				C177.6,377.99,176.88,377.93,176.15,377.93z"/>
		</g>
		<g>
			<path class="st2" d="M204.19,400.94c-1.42-1.42-2.13-3.33-2.13-5.73c0-2.47,0.8-4.42,2.41-5.86c1.61-1.44,3.76-2.15,6.46-2.15
				c1.56,0,2.94,0.22,4.16,0.66s2.2,1.05,2.94,1.83v-3.85c0-2.47-0.65-4.44-1.95-5.91s-3.05-2.21-5.25-2.21
				c-2.57,0-4.88,1.08-6.94,3.24c-0.68,0-1.01-0.3-1.01-0.91c0-0.37,0.38-0.87,1.14-1.5c0.76-0.62,1.77-1.17,3.02-1.65
				c1.25-0.47,2.59-0.71,4.01-0.71c2.67,0,4.82,0.88,6.44,2.64s2.43,4.09,2.43,7v15.16c0,1.18-0.41,1.77-1.22,1.77
				c-0.2,0-0.42-0.07-0.66-0.2v-3.24c-0.95,1.15-2.13,2.06-3.55,2.74s-2.94,1.01-4.56,1.01
				C207.52,403.07,205.61,402.36,204.19,400.94z M213.67,400.71c1.28-0.56,2.33-1.34,3.14-2.36c0.81-1.01,1.22-2.18,1.22-3.5v-1.67
				c0-1.45-0.72-2.56-2.16-3.32s-3.17-1.14-5.2-1.14c-2.06,0-3.69,0.59-4.89,1.77s-1.8,2.77-1.8,4.77c0,1.93,0.51,3.46,1.55,4.59
				c1.03,1.13,2.42,1.7,4.18,1.7C211.06,401.55,212.38,401.27,213.67,400.71z"/>
			<path class="st2" d="M209.92,403.28c-2.44,0-4.42-0.74-5.88-2.19l0,0c-1.45-1.45-2.19-3.43-2.19-5.88c0-2.52,0.83-4.54,2.48-6.01
				c1.64-1.46,3.86-2.21,6.6-2.21c1.57,0,2.99,0.23,4.23,0.67c1.05,0.38,1.95,0.9,2.66,1.53v-3.36c0-2.4-0.64-4.34-1.9-5.77
				c-1.25-1.42-2.97-2.14-5.09-2.14c-2.5,0-4.78,1.07-6.8,3.18l-0.06,0.06h-0.09c-0.79,0-1.22-0.4-1.22-1.12
				c0-0.45,0.39-0.97,1.21-1.66c0.78-0.64,1.81-1.2,3.08-1.68c1.27-0.48,2.64-0.72,4.08-0.72c2.72,0,4.93,0.91,6.59,2.7
				c1.65,1.79,2.49,4.19,2.49,7.14v15.16c0,1.64-0.77,1.98-1.42,1.98c-0.24,0-0.49-0.08-0.76-0.23l-0.1-0.06v-2.81
				c-0.9,0.98-1.99,1.77-3.25,2.37C213.13,402.93,211.56,403.28,209.92,403.28z M204.33,400.8c1.38,1.37,3.25,2.07,5.58,2.07
				c1.58,0,3.09-0.33,4.47-0.99s2.55-1.56,3.48-2.68l0.37-0.45v3.7c0.16,0.08,0.31,0.12,0.45,0.12c0.43,0,1.01-0.16,1.01-1.57
				v-15.16c0-2.84-0.8-5.15-2.38-6.86c-1.58-1.7-3.69-2.57-6.29-2.57c-1.39,0-2.71,0.23-3.93,0.7c-1.22,0.46-2.22,1-2.96,1.61
				c-0.92,0.76-1.06,1.16-1.06,1.34c0,0.47,0.22,0.68,0.72,0.7c2.08-2.15,4.44-3.24,7.03-3.24c2.25,0,4.06,0.77,5.4,2.28
				c1.33,1.5,2,3.54,2,6.04v4.37l-0.36-0.37c-0.72-0.75-1.68-1.35-2.86-1.77c-1.19-0.43-2.56-0.65-4.09-0.65
				c-2.64,0-4.77,0.71-6.32,2.1s-2.34,3.31-2.34,5.7C202.27,397.55,202.96,399.42,204.33,400.8L204.33,400.8z M209.71,401.76
				c-1.81,0-3.27-0.59-4.34-1.77c-1.06-1.16-1.6-2.76-1.6-4.73c0-2.04,0.63-3.7,1.86-4.91c1.24-1.22,2.93-1.83,5.04-1.83
				c2.05,0,3.84,0.39,5.29,1.16c1.5,0.8,2.27,1.98,2.27,3.5v1.67c0,1.36-0.43,2.58-1.26,3.63c-0.83,1.04-1.91,1.85-3.22,2.42l0,0
				C212.44,401.47,211.08,401.76,209.71,401.76z M210.68,388.93c-1.99,0-3.59,0.58-4.74,1.71c-1.15,1.14-1.74,2.69-1.74,4.62
				c0,1.87,0.5,3.36,1.49,4.45c0.98,1.08,2.34,1.63,4.03,1.63c1.32,0,2.62-0.28,3.87-0.82l0.08,0.19l-0.08-0.19
				c1.25-0.54,2.28-1.31,3.06-2.3c0.78-0.97,1.17-2.1,1.17-3.37v-1.67c0-1.38-0.67-2.41-2.04-3.14
				C214.38,389.31,212.66,388.93,210.68,388.93z"/>
		</g>
	</g>
	<path class="st4" d="M159.85,258.35c0,0,11.29,13.11,0.08,29.06C159.92,287.4,148.17,274.55,159.85,258.35z"/>
	<path class="st2" d="M155.57,288.39c-3.49,0-8.68-0.84-13.51-4.87c-9.35-7.8-13.24-23.89-11.56-47.82
		c0.01-0.18,0.11-0.34,0.27-0.42c0.16-0.09,0.41-0.12,0.57-0.04c21.13,11.34,32.67,23.21,34.28,35.28
		c1.4,10.48-5.35,17.01-5.64,17.28c-0.03,0.03-0.07,0.06-0.11,0.08c-0.04,0.02-0.15,0.07-0.19,0.09
		C159.53,288,157.94,288.39,155.57,288.39z M159.55,287.45L159.55,287.45L159.55,287.45z M131.49,236.51
		c-1.52,23.15,2.26,38.69,11.23,46.19c7.27,6.08,15.65,4.48,16.61,4.27c0.71-0.72,6.51-6.94,5.25-16.33
		C163.02,259.05,151.88,247.57,131.49,236.51z"/>
	<path class="st2" d="M163.68,288.39c-2.37,0-3.95-0.39-4.11-0.43c-0.04-0.01-0.09-0.03-0.13-0.05l-0.07-0.04
		c-0.39-0.35-7.14-6.88-5.74-17.36c1.61-12.07,13.15-23.94,34.28-35.28c0.16-0.08,0.35-0.08,0.5,0c0.16,0.09,0.33,0.28,0.34,0.46
		c1.67,23.93-2.22,40.02-11.56,47.81C172.36,287.55,167.16,288.39,163.68,288.39z M159.92,286.97c0.99,0.22,9.35,1.8,16.61-4.27
		c8.97-7.5,12.74-23.04,11.23-46.19c-20.4,11.06-31.53,22.54-33.09,34.13C153.41,280.03,159.22,286.26,159.92,286.97z"/>
</g>
<g>
	<path class="st5" d="M414.44,287.45c0,0,3.02-25.6,41.09-13.56C455.53,273.89,436.3,305.97,414.44,287.45z"/>
	<path class="st5" d="M412.34,287.58c0,0-3.13-25.79-42.58-13.66C369.76,273.92,389.7,306.23,412.34,287.58z"/>
	<path class="st5" d="M412.76,287.45c0,0,25.28-22.35-28.65-51.72C384.12,235.74,376.93,290.46,412.76,287.45z"/>
	<path class="st5" d="M412.73,287.45c0,0-25.28-22.35,28.65-51.72C441.37,235.74,448.56,290.46,412.73,287.45z"/>
	<path class="st6" d="M399.28,274.18c-0.23,0-0.43-0.15-0.5-0.37c-3.36-11.24,1.2-26.63,13.56-45.74c0.19-0.3,0.76-0.3,0.95,0
		c12.24,18.92,16.83,34.21,13.66,45.42c-0.08,0.28-0.36,0.44-0.65,0.36c-0.28-0.08-0.44-0.37-0.36-0.65
		c3.06-10.79-1.36-25.57-13.12-43.95c-11.88,18.55-16.27,33.43-13.04,44.25c0.08,0.28-0.08,0.57-0.35,0.65
		C399.38,274.17,399.33,274.18,399.28,274.18z"/>
	<path class="st7" d="M399.28,273.65"/>
	<path class="st6" d="M412.86,287.94h-0.08c-0.29,0-0.52-0.23-0.52-0.52c0-0.29,0.23-0.52,0.52-0.52s0.56,0.23,0.56,0.52
		C413.34,287.71,413.15,287.94,412.86,287.94z"/>
	<path class="st6" d="M398.46,293.9c-0.94,0-1.92-0.06-2.93-0.2c-12.06-1.67-23.88-13.25-35.13-34.44c-0.08-0.16-0.08-0.35,0.01-0.5
		c0.09-0.15,0.28-0.32,0.46-0.33c23.42-1.53,39.31,2.23,47.26,11.19c0.19,0.22,0.17,0.55-0.04,0.74c-0.22,0.19-0.55,0.17-0.74-0.04
		c-7.64-8.61-23.01-12.28-45.68-10.89c10.98,20.46,22.41,31.64,34,33.24c9.94,1.38,16.34-5.18,16.4-5.25
		c0.14-0.25,0.44-0.32,0.69-0.18c0.25,0.14,0.32,0.48,0.18,0.73l-0.04,0.07C412.59,288.39,407.21,293.9,398.46,293.9z"/>
	<path class="st6" d="M427.24,293.65c-8.75,0-14.12-5.5-14.37-5.76c-0.03-0.03-0.09-0.14-0.12-0.17c-0.14-0.25-0.05-0.57,0.2-0.71
		c0.26-0.14,0.57-0.05,0.71,0.2l0.04,0.07l0,0c0.02,0,6.43,6.52,16.35,5.14c11.58-1.61,23.01-12.79,33.98-33.24
		c-22.6-1.38-37.93,2.25-45.6,10.81c-0.19,0.22-0.53,0.23-0.74,0.04s-0.23-0.52-0.04-0.74c7.98-8.9,23.87-12.63,47.19-11.11
		c0.18,0.01,0.33,0.11,0.42,0.27c0.09,0.16,0.13,0.41,0.04,0.57c-11.25,21.19-23.07,32.77-35.13,34.44
		C429.16,293.58,428.18,293.65,427.24,293.65z"/>
	<path class="st6" d="M391.9,300.53c-10.88,0-24.16-6.64-39.59-19.8c-0.13-0.11-0.2-0.29-0.18-0.46c0.02-0.18,0.14-0.41,0.31-0.49
		c21.69-10.25,38.09-12.46,48.75-6.58c9.26,5.1,10.49,14.41,10.54,14.81c0.01,0.05,0.01,0.09,0,0.14c-0.01,0.04-0.03,0.16-0.04,0.2
		c-0.15,0.37-3.78,9.03-14.05,11.52C395.8,300.31,393.89,300.53,391.9,300.53z M353.56,280.41c17.71,14.99,32.45,21.19,43.81,18.44
		c9.22-2.23,12.91-9.92,13.32-10.82c-0.16-1-1.71-9.36-10.01-13.93C390.43,268.47,374.58,270.59,353.56,280.41z M411.2,288.14h0.01
		H411.2z"/>
	<path class="st6" d="M433.76,300.53c-1.99,0-3.9-0.22-5.73-0.67c-10.27-2.5-13.9-11.16-14.05-11.52c-0.02-0.04-0.03-0.09-0.03-0.13
		l-0.01-0.08c0.05-0.52,1.28-9.83,10.54-14.93c10.66-5.88,27.06-3.66,48.75,6.58c0.16,0.08,0.27,0.23,0.3,0.41
		c0.02,0.17-0.04,0.43-0.17,0.54C457.92,293.89,444.64,300.53,433.76,300.53z M414.98,288.03c0.41,0.92,4.1,8.59,13.31,10.82
		c11.35,2.75,26.09-3.45,43.81-18.44c-21.03-9.83-36.88-11.95-47.13-6.3C416.66,278.69,415.13,287.05,414.98,288.03z"/>
	<circle class="st8" cx="413.56" cy="211.72" r="5.94"/>
	<g>
		<g>
			<path class="st6" d="M371.41,331.43c1.79,2.26,2.69,5.41,2.69,9.43c0,4.26-1.02,7.66-3.07,10.21c-2.05,2.55-4.94,3.83-8.69,3.83
				c-0.85,0-1.64-0.06-2.38-0.18s-1.69-0.3-2.84-0.53c-1.08-0.24-1.99-0.41-2.74-0.53c-0.74-0.12-1.54-0.18-2.38-0.18l-0.3-0.66
				c0.57-1.08,0.97-2.15,1.19-3.19c0.22-1.05,0.33-2.64,0.33-4.77v-25.2c0-1.18,0.41-1.77,1.22-1.77c0.2,0,0.42,0.07,0.66,0.2v15.31
				c0.98-1.69,2.23-3.01,3.75-3.95c1.52-0.95,3.26-1.42,5.22-1.42C367.17,328.03,369.62,329.17,371.41,331.43z M369.76,349.98
				c1.61-2.26,2.41-5.29,2.41-9.07c0-3.58-0.71-6.37-2.13-8.36s-3.41-2.99-5.98-2.99c-1.72,0-3.27,0.45-4.64,1.34
				s-2.43,2.13-3.19,3.7s-1.14,3.35-1.14,5.35v4.92c0,1.52-0.09,2.86-0.26,4.01c-0.17,1.15-0.47,2.18-0.91,3.09
				c0.81,0.03,1.66,0.15,2.53,0.36c0.88,0.2,1.42,0.32,1.62,0.36c1.05,0.24,1.93,0.41,2.64,0.53c0.71,0.12,1.44,0.18,2.18,0.18
				C365.86,353.38,368.15,352.25,369.76,349.98z"/>
			<path class="st6" d="M362.33,355.11c-0.85,0-1.66-0.06-2.42-0.18c-0.75-0.12-1.71-0.3-2.85-0.53c-1.07-0.23-1.98-0.41-2.73-0.53
				c-0.73-0.12-1.52-0.17-2.35-0.17h-0.13l-0.4-0.87l0.05-0.09c0.56-1.06,0.96-2.12,1.17-3.14c0.22-1.03,0.33-2.62,0.33-4.72v-25.2
				c0-1.64,0.77-1.98,1.42-1.98c0.24,0,0.49,0.08,0.76,0.23l0.11,0.06v14.7c0.93-1.42,2.08-2.56,3.44-3.4
				c1.55-0.96,3.34-1.45,5.33-1.45c3.16,0,5.69,1.17,7.51,3.48l0,0c1.81,2.29,2.73,5.51,2.73,9.56c0,4.29-1.05,7.77-3.11,10.34
				C369.11,353.8,366.13,355.11,362.33,355.11z M352.12,353.28c0.8,0.01,1.57,0.07,2.28,0.18c0.75,0.12,1.67,0.3,2.75,0.53
				c1.13,0.23,2.08,0.41,2.83,0.53c0.73,0.12,1.52,0.17,2.35,0.17c3.67,0,6.54-1.26,8.53-3.75c2.01-2.5,3.02-5.9,3.02-10.09
				c0-3.95-0.89-7.08-2.64-9.3l0,0c-1.74-2.2-4.16-3.32-7.19-3.32c-1.91,0-3.63,0.47-5.11,1.39c-1.49,0.92-2.73,2.23-3.68,3.88
				l-0.39,0.67v-15.96c-0.16-0.08-0.32-0.12-0.45-0.12c-0.43,0-1.01,0.16-1.01,1.57v25.2c0,2.13-0.11,3.75-0.33,4.81
				c-0.22,1.03-0.61,2.09-1.16,3.16L352.12,353.28z M362.89,353.59c-0.75,0-1.5-0.06-2.22-0.18c-0.7-0.12-1.59-0.3-2.65-0.53
				c-0.19-0.03-0.71-0.14-1.62-0.36c-0.86-0.2-1.7-0.32-2.5-0.35l-0.31-0.01l0.14-0.28c0.43-0.89,0.73-1.91,0.89-3.03
				c0.17-1.13,0.25-2.47,0.25-3.98v-4.92c0-2.02,0.39-3.85,1.16-5.44c0.77-1.6,1.87-2.87,3.27-3.78s3-1.38,4.75-1.38
				c2.63,0,4.7,1.04,6.15,3.08c1.44,2.02,2.17,4.88,2.17,8.49c0,3.81-0.82,6.9-2.45,9.19l0,0
				C368.29,352.42,365.92,353.59,362.89,353.59z M354.23,351.77c0.73,0.05,1.49,0.16,2.27,0.34c0.91,0.21,1.42,0.32,1.61,0.35
				c1.06,0.24,1.94,0.42,2.64,0.53c0.7,0.12,1.42,0.17,2.15,0.17c2.89,0,5.14-1.11,6.7-3.31l0,0c1.57-2.22,2.37-5.23,2.37-8.95
				c0-3.52-0.7-6.29-2.09-8.24c-1.37-1.93-3.33-2.9-5.81-2.9c-1.67,0-3.2,0.44-4.53,1.31s-2.38,2.09-3.12,3.62s-1.12,3.3-1.12,5.26
				v4.92c0,1.52-0.09,2.88-0.26,4.04C354.88,349.95,354.61,350.91,354.23,351.77z"/>
		</g>
		<g>
			<path class="st6" d="M392.88,352.77c-1.42-1.42-2.13-3.33-2.13-5.73c0-2.47,0.8-4.42,2.41-5.86c1.61-1.44,3.76-2.15,6.46-2.15
				c1.56,0,2.94,0.22,4.16,0.66s2.2,1.05,2.94,1.83v-3.85c0-2.47-0.65-4.44-1.95-5.91c-1.3-1.47-3.05-2.21-5.25-2.21
				c-2.57,0-4.88,1.08-6.94,3.24c-0.68,0-1.01-0.3-1.01-0.91c0-0.37,0.38-0.87,1.14-1.5c0.76-0.62,1.77-1.17,3.02-1.65
				s2.59-0.71,4.01-0.71c2.67,0,4.82,0.88,6.44,2.64s2.43,4.09,2.43,7v15.16c0,1.18-0.41,1.77-1.22,1.77c-0.2,0-0.42-0.07-0.66-0.2
				v-3.24c-0.95,1.15-2.13,2.06-3.55,2.74c-1.42,0.68-2.94,1.01-4.56,1.01C396.21,354.9,394.3,354.19,392.88,352.77z M402.36,352.55
				c1.28-0.56,2.33-1.34,3.14-2.36c0.81-1.01,1.22-2.18,1.22-3.5v-1.67c0-1.45-0.72-2.56-2.16-3.32s-3.17-1.14-5.2-1.14
				c-2.06,0-3.69,0.59-4.89,1.77s-1.8,2.77-1.8,4.77c0,1.93,0.51,3.46,1.55,4.59c1.03,1.13,2.42,1.7,4.18,1.7
				C399.76,353.38,401.07,353.1,402.36,352.55z"/>
			<path class="st6" d="M398.61,355.11c-2.45,0-4.42-0.74-5.88-2.19l0,0c-1.45-1.45-2.19-3.43-2.19-5.88c0-2.52,0.83-4.54,2.48-6.01
				c1.64-1.46,3.86-2.21,6.6-2.21c1.57,0,2.99,0.23,4.23,0.67c1.05,0.38,1.95,0.9,2.66,1.53v-3.36c0-2.4-0.64-4.34-1.9-5.77
				c-1.25-1.42-2.97-2.14-5.09-2.14c-2.5,0-4.78,1.07-6.8,3.18l-0.06,0.06h-0.09c-0.79,0-1.22-0.4-1.22-1.12
				c0-0.45,0.39-0.97,1.22-1.66c0.78-0.64,1.81-1.2,3.08-1.68c1.27-0.48,2.64-0.72,4.08-0.72c2.72,0,4.93,0.91,6.59,2.7
				c1.65,1.79,2.49,4.19,2.49,7.14v15.16c0,1.64-0.78,1.98-1.43,1.98c-0.24,0-0.49-0.08-0.76-0.23l-0.11-0.06v-2.81
				c-0.9,0.97-1.99,1.77-3.25,2.37C401.82,354.76,400.26,355.11,398.61,355.11z M393.02,352.63c1.37,1.37,3.25,2.07,5.58,2.07
				c1.58,0,3.09-0.33,4.47-0.99s2.55-1.56,3.48-2.68l0.37-0.45v3.7c0.17,0.08,0.31,0.12,0.45,0.12c0.43,0,1.01-0.16,1.01-1.57
				v-15.16c0-2.84-0.8-5.14-2.38-6.85c-1.57-1.7-3.69-2.57-6.29-2.57c-1.39,0-2.71,0.23-3.93,0.7c-1.22,0.46-2.21,1-2.96,1.61
				c-0.93,0.76-1.06,1.16-1.06,1.34c0,0.47,0.22,0.68,0.72,0.7c2.08-2.15,4.44-3.24,7.03-3.24c2.25,0,4.06,0.77,5.4,2.28
				c1.33,1.5,2,3.54,2,6.04v4.37l-0.36-0.37c-0.72-0.75-1.68-1.35-2.86-1.77c-1.19-0.43-2.56-0.65-4.09-0.65
				c-2.64,0-4.77,0.71-6.32,2.1c-1.55,1.39-2.34,3.31-2.34,5.7C390.96,349.38,391.65,351.25,393.02,352.63L393.02,352.63z
				 M398.4,353.59c-1.81,0-3.27-0.59-4.34-1.77c-1.06-1.16-1.6-2.76-1.6-4.73c0-2.04,0.63-3.69,1.86-4.91
				c1.24-1.22,2.93-1.83,5.04-1.83c2.05,0,3.83,0.39,5.29,1.16c1.5,0.8,2.27,1.98,2.27,3.5v1.67c0,1.36-0.43,2.58-1.26,3.63
				c-0.83,1.04-1.91,1.85-3.22,2.42l0,0C401.13,353.3,399.78,353.59,398.4,353.59z M399.37,340.76c-2,0-3.59,0.58-4.75,1.71
				c-1.15,1.14-1.74,2.69-1.74,4.62c0,1.87,0.5,3.36,1.49,4.45c0.99,1.08,2.34,1.63,4.03,1.63c1.32,0,2.62-0.28,3.87-0.82l0,0
				c1.25-0.54,2.28-1.31,3.07-2.3c0.78-0.97,1.17-2.11,1.17-3.37v-1.67c0-1.38-0.67-2.41-2.04-3.14
				C403.07,341.14,401.35,340.76,399.37,340.76z"/>
		</g>
		<g>
			<path class="st6" d="M450.55,353.38c0,0.34-0.13,0.59-0.38,0.76s-0.62,0.25-1.09,0.25h-17.79l-0.3-0.66
				c0.51-1.01,0.85-2.18,1.04-3.5s0.28-3.11,0.28-5.37v-24.38c0-1.18,0.42-1.77,1.27-1.77c0.2,0,0.42,0.07,0.66,0.2v25.96
				c0,3.68-0.3,6.32-0.91,7.91h17.09C450.49,352.98,450.55,353.18,450.55,353.38z"/>
			<path class="st6" d="M449.07,354.6h-17.93l-0.4-0.87l0.05-0.09c0.49-0.99,0.84-2.14,1.02-3.43c0.18-1.3,0.28-3.1,0.28-5.35
				v-24.38c0-1.64,0.8-1.98,1.48-1.98c0.24,0,0.49,0.08,0.76,0.23l0.11,0.06v26.08c0,3.49-0.28,6.07-0.83,7.7h16.92l0.06,0.12
				c0.12,0.23,0.17,0.47,0.17,0.7c0,0.41-0.16,0.73-0.47,0.93C449.99,354.51,449.6,354.6,449.07,354.6z M431.41,354.19h17.66
				c0.43,0,0.76-0.07,0.98-0.22c0.2-0.13,0.29-0.32,0.29-0.59c0-0.13-0.03-0.26-0.08-0.4H433l0.11-0.28c0.6-1.56,0.9-4.19,0.9-7.83
				v-25.83c-0.16-0.08-0.32-0.12-0.45-0.12c-0.46,0-1.06,0.16-1.06,1.57v24.38c0,2.27-0.09,4.09-0.28,5.4
				c-0.18,1.3-0.52,2.46-1.01,3.47L431.41,354.19z"/>
		</g>
		<g>
			<path class="st6" d="M469.96,354.4v-24.28c0-1.18,0.41-1.77,1.22-1.77c0.2,0,0.42,0.07,0.66,0.2v24.28
				c0,1.18-0.41,1.77-1.22,1.77C470.42,354.6,470.2,354.53,469.96,354.4z"/>
			<path class="st6" d="M470.62,354.81c-0.24,0-0.49-0.08-0.76-0.23l-0.11-0.06v-24.4c0-1.64,0.77-1.98,1.42-1.98
				c0.24,0,0.5,0.08,0.76,0.23l0.11,0.06v24.4C472.04,354.46,471.27,354.81,470.62,354.81z M470.17,354.27
				c0.16,0.08,0.32,0.12,0.45,0.12c0.43,0,1.01-0.16,1.01-1.57v-24.16c-0.16-0.08-0.32-0.12-0.45-0.12c-0.43,0-1.01,0.16-1.01,1.57
				V354.27z"/>
		</g>
		<g>
			<path class="st6" d="M351.13,409.51c-0.74-0.44-1.12-0.91-1.12-1.42c0-0.61,0.27-0.91,0.81-0.91c0.74,0.98,1.71,1.47,2.89,1.47
				c1.55,0,2.67-0.86,3.35-2.59l1.77-4.56l-8.82-23.17c-0.1-0.2-0.15-0.42-0.15-0.66c0-0.34,0.13-0.62,0.38-0.84
				s0.58-0.33,0.99-0.33l8.52,22.66l8.11-21.5c0.27-0.78,0.71-1.17,1.32-1.17c0.34,0,0.64,0.07,0.91,0.2l-11.25,29.56
				c-1.01,2.6-2.69,3.9-5.02,3.9C352.77,410.17,351.87,409.95,351.13,409.51z"/>
			<path class="st6" d="M353.82,410.38c-1.08,0-2.02-0.23-2.79-0.69c-0.81-0.48-1.22-1.01-1.22-1.6c0-0.72,0.36-1.12,1.02-1.12h0.1
				l0.06,0.08c0.71,0.93,1.6,1.39,2.73,1.39c1.47,0,2.5-0.8,3.15-2.45l1.75-4.49l-8.79-23.09c-0.11-0.21-0.17-0.47-0.17-0.73
				c0-0.4,0.15-0.73,0.45-0.99c0.29-0.25,0.67-0.38,1.13-0.38h0.14l0.05,0.13l8.32,22.14l7.92-20.98c0.3-0.86,0.81-1.3,1.51-1.3
				c0.37,0,0.71,0.08,1,0.22l0.17,0.08l-0.07,0.18l-11.25,29.56C357.98,409.02,356.23,410.38,353.82,410.38z M350.73,407.39
				c-0.26,0.02-0.5,0.15-0.5,0.7c0,0.43,0.34,0.84,1.01,1.24l0,0c0.71,0.42,1.58,0.63,2.58,0.63c2.26,0,3.84-1.23,4.83-3.77
				l11.18-29.37c-0.2-0.07-0.41-0.11-0.65-0.11c-0.51,0-0.88,0.34-1.12,1.03l-8.31,22.02l-8.66-23.04
				c-0.29,0.02-0.52,0.11-0.71,0.27c-0.21,0.18-0.31,0.4-0.31,0.68c0,0.2,0.04,0.39,0.13,0.57l8.86,23.26l-1.81,4.64
				c-0.71,1.8-1.9,2.72-3.54,2.72C352.5,408.86,351.5,408.36,350.73,407.39z"/>
		</g>
		<g>
			<path class="st6" d="M387.25,401.42c-1.64-1.1-2.9-2.66-3.78-4.69s-1.32-4.39-1.32-7.1c0-2.7,0.44-5.07,1.32-7.1
				s2.14-3.59,3.78-4.69c1.64-1.1,3.56-1.65,5.75-1.65c2.2,0,4.11,0.55,5.75,1.65s2.9,2.66,3.78,4.69s1.32,4.39,1.32,7.1
				c0,2.7-0.44,5.07-1.32,7.1s-2.14,3.59-3.78,4.69c-1.64,1.1-3.56,1.65-5.75,1.65S388.89,402.52,387.25,401.42z M399.52,398.33
				c1.6-2.15,2.41-5.04,2.41-8.69s-0.8-6.55-2.41-8.69c-1.61-2.15-3.78-3.22-6.52-3.22s-4.91,1.07-6.51,3.22
				c-1.61,2.15-2.41,5.04-2.41,8.69s0.8,6.55,2.41,8.69c1.61,2.15,3.78,3.22,6.51,3.22C395.74,401.55,397.91,400.48,399.52,398.33z"
				/>
			<path class="st6" d="M393,403.28c-2.23,0-4.2-0.57-5.87-1.68c-1.66-1.11-2.96-2.72-3.85-4.78c-0.89-2.04-1.34-4.46-1.34-7.18
				s0.45-5.14,1.34-7.18c0.89-2.06,2.19-3.66,3.85-4.78S390.77,376,393,376s4.2,0.57,5.87,1.68c1.66,1.12,2.96,2.72,3.85,4.78
				c0.89,2.05,1.34,4.46,1.34,7.18s-0.45,5.13-1.34,7.18c-0.89,2.06-2.19,3.67-3.85,4.78S395.23,403.28,393,403.28z M393,376.41
				c-2.14,0-4.04,0.54-5.64,1.61c-1.6,1.07-2.84,2.62-3.7,4.6c-0.86,1.99-1.3,4.35-1.3,7.02c0,2.66,0.44,5.02,1.3,7.01
				c0.86,1.98,2.11,3.53,3.7,4.6l0,0c1.6,1.07,3.49,1.61,5.64,1.61c2.15,0,4.04-0.54,5.64-1.61c1.6-1.07,2.84-2.62,3.7-4.6
				c0.86-1.99,1.3-4.35,1.3-7.01s-0.44-5.02-1.3-7.02c-0.86-1.98-2.11-3.53-3.7-4.6C397.05,376.95,395.15,376.41,393,376.41z
				 M393,401.76c-2.79,0-5.04-1.11-6.68-3.3c-1.62-2.17-2.45-5.14-2.45-8.82s0.82-6.65,2.45-8.82c1.64-2.19,3.89-3.3,6.68-3.3
				c2.79,0,5.04,1.11,6.68,3.3c1.63,2.18,2.45,5.14,2.45,8.82s-0.82,6.64-2.45,8.82l0,0C398.05,400.65,395.8,401.76,393,401.76z
				 M393,377.93c-2.66,0-4.79,1.06-6.35,3.14c-1.57,2.1-2.36,4.98-2.36,8.57s0.79,6.47,2.36,8.57c1.56,2.08,3.69,3.14,6.35,3.14
				s4.79-1.06,6.35-3.14l0,0c1.57-2.1,2.37-4.98,2.37-8.57c0-3.58-0.8-6.47-2.37-8.57C397.8,378.99,395.66,377.93,393,377.93z"/>
		</g>
		<g>
			<path class="st6" d="M440.46,378.28c-0.58,1.08-0.97,2.15-1.19,3.19c-0.22,1.05-0.33,2.64-0.33,4.77v13.59
				c0,3.11-0.89,5.61-2.69,7.5s-4.23,2.84-7.3,2.84c-1.69,0-3.24-0.27-4.64-0.81c-1.4-0.54-2.51-1.17-3.32-1.88
				s-1.22-1.27-1.22-1.67c0-0.61,0.34-0.91,1.01-0.91c1.22,1.28,2.48,2.23,3.78,2.84s2.76,0.91,4.39,0.91
				c2.67,0,4.69-0.78,6.06-2.33s2.05-3.72,2.05-6.49v-4.16c-0.98,1.69-2.23,3.01-3.75,3.95c-1.52,0.95-3.26,1.42-5.22,1.42
				c-2.03,0-3.79-0.49-5.3-1.47c-1.5-0.98-2.67-2.36-3.5-4.13c-0.83-1.77-1.24-3.83-1.24-6.16c0-2.5,0.46-4.74,1.37-6.72
				s2.26-3.53,4.03-4.66s3.9-1.7,6.36-1.7c0.84,0,1.64,0.06,2.38,0.18s1.69,0.3,2.84,0.53c1.08,0.24,1.99,0.41,2.74,0.53
				c0.74,0.12,1.54,0.18,2.38,0.18L440.46,378.28z M437.06,386.24c0-1.52,0.08-2.86,0.25-4c0.17-1.15,0.47-2.18,0.91-3.09
				c-0.81-0.03-1.66-0.15-2.53-0.35c-0.88-0.2-1.42-0.32-1.62-0.36c-1.05-0.24-1.93-0.41-2.64-0.53c-0.71-0.12-1.44-0.18-2.18-0.18
				c-2.94,0-5.22,1.08-6.84,3.24s-2.43,4.94-2.43,8.31c0,3.08,0.72,5.55,2.15,7.43c1.44,1.88,3.42,2.81,5.96,2.81
				c1.72,0,3.27-0.45,4.64-1.34c1.37-0.89,2.43-2.13,3.19-3.7s1.14-3.35,1.14-5.35L437.06,386.24L437.06,386.24z"/>
			<path class="st6" d="M428.95,410.38c-1.71,0-3.29-0.28-4.71-0.83s-2.56-1.19-3.38-1.91c-0.87-0.76-1.29-1.35-1.29-1.83
				c0-0.72,0.43-1.12,1.22-1.12h0.09l0.06,0.06c1.19,1.26,2.44,2.2,3.71,2.79s2.71,0.89,4.3,0.89c2.6,0,4.58-0.76,5.9-2.26
				c1.33-1.51,2-3.65,2-6.35v-3.43c-0.93,1.42-2.09,2.56-3.44,3.4c-1.55,0.96-3.34,1.45-5.33,1.45c-2.06,0-3.88-0.51-5.41-1.5
				s-2.73-2.41-3.57-4.22c-0.84-1.79-1.26-3.9-1.26-6.25c0-2.52,0.47-4.81,1.39-6.8c0.92-2,2.3-3.6,4.1-4.75
				c1.8-1.15,3.98-1.73,6.48-1.73c0.85,0,1.66,0.06,2.42,0.18c0.74,0.12,1.67,0.29,2.85,0.53c1.11,0.24,2,0.41,2.73,0.53
				s1.52,0.17,2.35,0.17h0.13l0.4,0.87l-0.05,0.09c-0.56,1.06-0.96,2.12-1.17,3.14c-0.22,1.03-0.33,2.62-0.33,4.72v13.59
				c0,3.15-0.92,5.72-2.74,7.64C434.57,409.4,432.07,410.38,428.95,410.38z M420.7,405.11c-0.5,0.02-0.72,0.24-0.72,0.7
				c0,0.24,0.2,0.69,1.15,1.52c0.79,0.69,1.88,1.31,3.26,1.84c1.37,0.53,2.91,0.8,4.56,0.8c3,0,5.41-0.93,7.15-2.77
				s2.63-4.32,2.63-7.36v-13.59c0-2.13,0.11-3.75,0.33-4.81c0.22-1.03,0.61-2.09,1.17-3.16l-0.21-0.45
				c-0.8-0.01-1.57-0.07-2.28-0.18c-0.74-0.12-1.64-0.29-2.75-0.53c-1.17-0.24-2.09-0.41-2.83-0.53c-0.73-0.12-1.52-0.17-2.35-0.17
				c-2.42,0-4.52,0.56-6.25,1.67c-1.73,1.11-3.06,2.65-3.95,4.58c-0.9,1.94-1.35,4.17-1.35,6.63c0,2.29,0.41,4.33,1.22,6.07
				c0.81,1.73,1.96,3.09,3.42,4.04c1.46,0.95,3.21,1.44,5.18,1.44c1.91,0,3.63-0.47,5.11-1.39c1.48-0.92,2.72-2.23,3.68-3.88
				l0.39-0.67v4.93c0,2.81-0.71,5.04-2.11,6.63s-3.49,2.4-6.21,2.4c-1.65,0-3.15-0.31-4.47-0.93
				C423.18,407.32,421.91,406.37,420.7,405.11z M428.09,399.73c-2.59,0-4.65-0.97-6.12-2.89c-1.46-1.9-2.2-4.45-2.2-7.55
				c0-3.41,0.83-6.25,2.48-8.44c1.66-2.21,4.01-3.33,7.01-3.33c0.75,0,1.49,0.06,2.22,0.18c0.72,0.12,1.61,0.3,2.65,0.53
				c0.2,0.03,0.73,0.15,1.62,0.36c0.86,0.2,1.7,0.32,2.5,0.35l0.32,0.01l-0.14,0.28c-0.43,0.89-0.73,1.91-0.89,3.03
				c-0.17,1.13-0.25,2.46-0.25,3.97v2.89c0,2.01-0.39,3.84-1.16,5.44s-1.87,2.87-3.27,3.78
				C431.44,399.27,429.84,399.73,428.09,399.73z M429.25,377.93c-2.86,0-5.1,1.06-6.68,3.16c-1.59,2.12-2.39,4.87-2.39,8.19
				c0,3.01,0.71,5.47,2.11,7.3c1.39,1.81,3.34,2.73,5.79,2.73c1.67,0,3.2-0.44,4.53-1.31s2.38-2.09,3.12-3.62
				c0.74-1.54,1.12-3.31,1.12-5.26v-2.89c0-1.53,0.09-2.89,0.25-4.03c0.16-1.05,0.43-2.01,0.8-2.87c-0.73-0.05-1.49-0.16-2.27-0.34
				c-0.87-0.2-1.41-0.32-1.61-0.35c-1.04-0.23-1.92-0.41-2.63-0.53C430.7,377.99,429.98,377.93,429.25,377.93z"/>
		</g>
		<g>
			<path class="st6" d="M457.29,400.94c-1.42-1.42-2.13-3.33-2.13-5.73c0-2.47,0.8-4.42,2.41-5.86c1.61-1.44,3.76-2.15,6.46-2.15
				c1.56,0,2.94,0.22,4.16,0.66s2.2,1.05,2.94,1.83v-3.85c0-2.47-0.65-4.44-1.95-5.91c-1.3-1.47-3.05-2.21-5.25-2.21
				c-2.57,0-4.88,1.08-6.94,3.24c-0.68,0-1.01-0.3-1.01-0.91c0-0.37,0.38-0.87,1.14-1.5c0.76-0.62,1.77-1.17,3.02-1.65
				c1.25-0.47,2.59-0.71,4.01-0.71c2.67,0,4.82,0.88,6.44,2.64s2.43,4.09,2.43,7v15.16c0,1.18-0.41,1.77-1.22,1.77
				c-0.2,0-0.42-0.07-0.66-0.2v-3.24c-0.95,1.15-2.13,2.06-3.55,2.74c-1.42,0.68-2.94,1.01-4.56,1.01
				C460.61,403.07,458.71,402.36,457.29,400.94z M466.77,400.71c1.28-0.56,2.33-1.34,3.14-2.36c0.81-1.01,1.22-2.18,1.22-3.5v-1.67
				c0-1.45-0.72-2.56-2.16-3.32s-3.17-1.14-5.2-1.14c-2.06,0-3.69,0.59-4.89,1.77s-1.8,2.77-1.8,4.77c0,1.93,0.51,3.46,1.55,4.59
				c1.03,1.13,2.42,1.7,4.18,1.7C464.16,401.55,465.48,401.27,466.77,400.71z"/>
			<path class="st6" d="M463.02,403.28c-2.44,0-4.42-0.74-5.88-2.19l0,0c-1.45-1.45-2.19-3.43-2.19-5.88c0-2.52,0.83-4.54,2.48-6.01
				c1.64-1.46,3.86-2.21,6.6-2.21c1.57,0,2.99,0.23,4.23,0.67c1.05,0.38,1.95,0.9,2.66,1.53v-3.36c0-2.4-0.64-4.34-1.9-5.77
				c-1.25-1.42-2.97-2.14-5.09-2.14c-2.5,0-4.78,1.07-6.8,3.18l-0.06,0.06h-0.09c-0.79,0-1.22-0.4-1.22-1.12
				c0-0.45,0.39-0.97,1.21-1.66c0.78-0.64,1.81-1.2,3.08-1.68c1.27-0.48,2.64-0.72,4.08-0.72c2.72,0,4.93,0.91,6.59,2.7
				c1.65,1.79,2.49,4.19,2.49,7.14v15.16c0,1.64-0.77,1.98-1.42,1.98c-0.24,0-0.49-0.08-0.76-0.23l-0.1-0.06v-2.81
				c-0.9,0.98-1.99,1.77-3.25,2.37C466.23,402.93,464.66,403.28,463.02,403.28z M457.43,400.8c1.38,1.37,3.25,2.07,5.58,2.07
				c1.58,0,3.09-0.33,4.47-0.99s2.55-1.56,3.48-2.68l0.37-0.45v3.7c0.16,0.08,0.31,0.12,0.45,0.12c0.43,0,1.01-0.16,1.01-1.57
				v-15.16c0-2.84-0.8-5.15-2.38-6.86c-1.58-1.7-3.69-2.57-6.29-2.57c-1.39,0-2.71,0.23-3.93,0.7c-1.22,0.46-2.22,1-2.96,1.61
				c-0.92,0.76-1.06,1.16-1.06,1.34c0,0.47,0.22,0.68,0.72,0.7c2.08-2.15,4.44-3.24,7.03-3.24c2.25,0,4.06,0.77,5.4,2.28
				c1.33,1.5,2,3.54,2,6.04v4.37l-0.36-0.37c-0.72-0.75-1.68-1.35-2.86-1.77c-1.19-0.43-2.56-0.65-4.09-0.65
				c-2.64,0-4.77,0.71-6.32,2.1c-1.55,1.39-2.34,3.31-2.34,5.7C455.36,397.55,456.06,399.42,457.43,400.8L457.43,400.8z
				 M462.81,401.76c-1.81,0-3.27-0.59-4.34-1.77c-1.06-1.16-1.6-2.76-1.6-4.73c0-2.04,0.63-3.7,1.86-4.91
				c1.24-1.22,2.93-1.83,5.04-1.83c2.05,0,3.84,0.39,5.29,1.16c1.5,0.8,2.27,1.98,2.27,3.5v1.67c0,1.36-0.43,2.58-1.26,3.63
				c-0.83,1.04-1.91,1.85-3.22,2.42l0,0C465.54,401.47,464.18,401.76,462.81,401.76z M463.77,388.93c-1.99,0-3.59,0.58-4.74,1.71
				c-1.15,1.14-1.74,2.69-1.74,4.62c0,1.87,0.5,3.36,1.49,4.45c0.98,1.08,2.34,1.63,4.03,1.63c1.32,0,2.62-0.28,3.87-0.82l0.08,0.19
				l-0.08-0.19c1.25-0.54,2.28-1.31,3.06-2.3c0.78-0.97,1.17-2.1,1.17-3.37v-1.67c0-1.38-0.67-2.41-2.04-3.14
				C467.48,389.31,465.76,388.93,463.77,388.93z"/>
		</g>
	</g>
	<path class="st8" d="M412.95,258.35c0,0,11.29,13.11,0.08,29.06C413.02,287.4,401.27,274.55,412.95,258.35z"/>
	<path class="st6" d="M408.67,288.39c-3.49,0-8.68-0.84-13.51-4.87c-9.35-7.8-13.24-23.89-11.56-47.82
		c0.01-0.18,0.11-0.34,0.27-0.42c0.16-0.09,0.41-0.12,0.57-0.04c21.13,11.34,32.67,23.21,34.28,35.28
		c1.4,10.48-5.35,17.01-5.64,17.28c-0.03,0.03-0.07,0.06-0.11,0.08c-0.04,0.02-0.15,0.07-0.19,0.09
		C412.63,288,411.04,288.39,408.67,288.39z M412.65,287.45h0.01H412.65z M384.59,236.51c-1.52,23.15,2.26,38.69,11.23,46.19
		c7.27,6.08,15.65,4.48,16.61,4.27c0.71-0.72,6.51-6.94,5.25-16.33C416.12,259.05,404.98,247.57,384.59,236.51z"/>
	<path class="st6" d="M416.77,288.39c-2.37,0-3.95-0.39-4.11-0.43c-0.04-0.01-0.09-0.03-0.13-0.05l-0.07-0.04
		c-0.39-0.35-7.14-6.88-5.74-17.36c1.61-12.07,13.15-23.94,34.28-35.28c0.16-0.08,0.35-0.08,0.5,0c0.16,0.09,0.33,0.28,0.34,0.46
		c1.67,23.93-2.22,40.02-11.56,47.81C425.46,287.55,420.26,288.39,416.77,288.39z M413.02,286.97c0.99,0.22,9.35,1.8,16.61-4.27
		c8.97-7.5,12.74-23.04,11.23-46.19c-20.4,11.06-31.53,22.54-33.09,34.13C406.51,280.03,412.32,286.26,413.02,286.97z"/>
</g>
<line class="st9" x1="411.58" y1="444.65" x2="411.58" y2="498.94"/>
<line class="st9" x1="161.49" y1="117.27" x2="161.49" y2="171.56"/>
<g>
	<g>
		<path class="st10" d="M372.81,529.21c-0.3,0.47-0.83,0.91-1.59,1.31c-0.76,0.4-1.73,0.6-2.93,0.6c-1.48,0-2.7-0.49-3.67-1.47
			c-0.97-0.98-1.45-2.24-1.45-3.8v-2.64c0-1.55,0.47-2.82,1.4-3.8s2.13-1.47,3.6-1.47c1.42,0,2.55,0.38,3.38,1.14s1.23,1.72,1.2,2.9
			l-0.02,0.05h-1.66c0-0.78-0.25-1.43-0.76-1.95s-1.22-0.78-2.14-0.78c-0.98,0-1.77,0.37-2.36,1.1c-0.59,0.73-0.9,1.66-0.9,2.79
			v2.65c0,1.14,0.32,2.07,0.95,2.81s1.44,1.1,2.43,1.1c0.76,0,1.35-0.1,1.8-0.29c0.44-0.2,0.77-0.43,0.99-0.7v-2.88h-2.9v-1.35h4.63
			V529.21z"/>
		<path class="st10" d="M377.53,525.39v5.55h-1.73v-12.79h4.38c1.4,0,2.47,0.31,3.21,0.93s1.11,1.52,1.11,2.71
			c0,0.66-0.17,1.23-0.51,1.71c-0.34,0.49-0.84,0.87-1.5,1.16c0.7,0.23,1.21,0.6,1.52,1.11c0.31,0.51,0.46,1.15,0.46,1.9v1.2
			c0,0.4,0.04,0.76,0.13,1.07c0.09,0.31,0.24,0.57,0.46,0.77v0.21h-1.78c-0.23-0.2-0.38-0.49-0.44-0.88s-0.1-0.79-0.1-1.2v-1.17
			c0-0.69-0.2-1.25-0.61-1.67c-0.41-0.42-0.95-0.63-1.63-0.63h-2.97V525.39z M377.53,524.03H380c0.98,0,1.68-0.19,2.11-0.56
			s0.65-0.94,0.65-1.7c0-0.72-0.21-1.28-0.63-1.67s-1.07-0.59-1.96-0.59h-2.65v4.52H377.53z"/>
		<path class="st10" d="M394.24,525h-5.26v4.58h6.15v1.35h-7.88v-12.8h7.79v1.36h-6.06v4.14h5.26V525z"/>
		<path class="st10" d="M401.36,524.64l3.34-6.5h1.98l-4.49,8.3v4.5h-1.72v-4.63l-4.42-8.17h1.98L401.36,524.64z"/>
		<path class="st10" d="M415.25,527.71c0-0.58-0.21-1.07-0.62-1.46s-1.15-0.73-2.2-1c-1.3-0.32-2.32-0.8-3.05-1.42
			c-0.73-0.63-1.09-1.42-1.09-2.36c0-1,0.39-1.84,1.18-2.5c0.79-0.66,1.8-1,3.06-1c1.35,0,2.42,0.38,3.22,1.15
			c0.8,0.76,1.19,1.66,1.17,2.68l-0.03,0.05h-1.65c0-0.73-0.25-1.33-0.76-1.8s-1.16-0.71-1.95-0.71c-0.81,0-1.43,0.2-1.86,0.59
			c-0.43,0.39-0.65,0.9-0.65,1.53c0,0.56,0.24,1.02,0.71,1.39s1.24,0.7,2.3,0.98c1.29,0.33,2.27,0.83,2.94,1.48s1.01,1.45,1.01,2.41
			c0,1.03-0.41,1.86-1.22,2.49s-1.87,0.94-3.18,0.94c-1.24,0-2.33-0.35-3.27-1.04c-0.94-0.69-1.4-1.62-1.38-2.78l0.02-0.05h1.65
			c0,0.8,0.3,1.42,0.91,1.86s1.3,0.66,2.07,0.66c0.82,0,1.47-0.18,1.95-0.55S415.25,528.34,415.25,527.71z"/>
		<path class="st10" d="M428.56,526.84l0.02,0.05c0.02,1.2-0.4,2.21-1.27,3.01c-0.87,0.8-2.01,1.21-3.44,1.21
			c-1.45,0-2.63-0.51-3.54-1.54c-0.91-1.03-1.37-2.33-1.37-3.9v-2.28c0-1.58,0.46-2.88,1.37-3.91s2.09-1.54,3.54-1.54
			s2.6,0.38,3.45,1.16s1.27,1.79,1.25,3.06l-0.02,0.05h-1.66c0-0.9-0.26-1.61-0.79-2.13s-1.27-0.78-2.23-0.78
			c-0.97,0-1.74,0.39-2.31,1.17s-0.86,1.75-0.86,2.9v2.29c0,1.17,0.29,2.14,0.86,2.92c0.57,0.78,1.34,1.17,2.31,1.17
			c0.96,0,1.71-0.26,2.23-0.78c0.52-0.52,0.79-1.23,0.79-2.15h1.67V526.84z"/>
		<path class="st10" d="M437.44,527.64h-4.82l-1.14,3.3h-1.77l4.61-12.8h1.49l4.52,12.8h-1.77L437.44,527.64z M433.12,526.19h3.82
			l-1.86-5.49h-0.05L433.12,526.19z"/>
		<path class="st10" d="M443.94,529.58h6.24v1.35h-7.97v-12.8h1.73V529.58z"/>
		<path class="st10" d="M459.09,525h-5.26v4.58h6.15v1.35h-7.88v-12.8h7.79v1.36h-6.06v4.14h5.26V525z"/>
	</g>
</g>
<g>
	<g>
		<path class="st10" d="M132.12,92.12l0.02,0.05c0.02,1.2-0.4,2.21-1.27,3.01c-0.87,0.8-2.01,1.21-3.44,1.21
			c-1.45,0-2.63-0.51-3.54-1.54c-0.91-1.03-1.37-2.33-1.37-3.9v-2.28c0-1.58,0.46-2.88,1.37-3.91s2.09-1.54,3.54-1.54
			c1.45,0,2.6,0.38,3.45,1.16c0.86,0.77,1.27,1.79,1.25,3.06l-0.02,0.05h-1.66c0-0.9-0.26-1.61-0.79-2.13s-1.27-0.78-2.23-0.78
			c-0.97,0-1.74,0.39-2.31,1.17s-0.86,1.75-0.86,2.9v2.29c0,1.17,0.29,2.14,0.86,2.92s1.34,1.17,2.31,1.17
			c0.96,0,1.71-0.26,2.23-0.78s0.79-1.23,0.79-2.15h1.67V92.12z"/>
		<path class="st10" d="M144.16,90.96c0,1.56-0.49,2.86-1.46,3.89s-2.23,1.55-3.77,1.55c-1.49,0-2.71-0.52-3.64-1.55
			s-1.4-2.33-1.4-3.89v-2.28c0-1.56,0.47-2.86,1.4-3.89c0.93-1.04,2.15-1.56,3.64-1.56c1.55,0,2.8,0.52,3.77,1.55
			s1.46,2.33,1.46,3.9V90.96z M142.43,88.66c0-1.17-0.32-2.13-0.95-2.88s-1.48-1.12-2.55-1.12c-1.01,0-1.81,0.37-2.41,1.12
			s-0.9,1.71-0.9,2.88v2.29c0,1.18,0.3,2.15,0.9,2.9s1.41,1.13,2.41,1.13c1.07,0,1.92-0.37,2.55-1.12s0.94-1.71,0.94-2.9
			L142.43,88.66L142.43,88.66z"/>
		<path class="st10" d="M148.39,94.86h6.24v1.35h-7.97v-12.8h1.73V94.86z"/>
		<path class="st10" d="M165.76,90.96c0,1.56-0.49,2.86-1.46,3.89s-2.23,1.55-3.77,1.55c-1.49,0-2.71-0.52-3.64-1.55
			s-1.4-2.33-1.4-3.89v-2.28c0-1.56,0.47-2.86,1.4-3.89c0.93-1.04,2.15-1.56,3.64-1.56c1.55,0,2.8,0.52,3.77,1.55
			s1.46,2.33,1.46,3.9V90.96z M164.03,88.66c0-1.17-0.32-2.13-0.95-2.88s-1.48-1.12-2.55-1.12c-1.01,0-1.81,0.37-2.41,1.12
			s-0.9,1.71-0.9,2.88v2.29c0,1.18,0.3,2.15,0.9,2.9s1.41,1.13,2.41,1.13c1.07,0,1.92-0.37,2.55-1.12s0.94-1.71,0.94-2.9
			L164.03,88.66L164.03,88.66z"/>
		<path class="st10" d="M177.69,83.42v8.5c0,1.41-0.46,2.5-1.37,3.3c-0.91,0.8-2.09,1.19-3.53,1.19c-1.39,0-2.53-0.4-3.41-1.19
			c-0.88-0.79-1.33-1.89-1.33-3.29v-8.5h1.73v8.5c0,0.98,0.28,1.74,0.84,2.3c0.56,0.55,1.28,0.83,2.17,0.83
			c0.94,0,1.7-0.28,2.29-0.83s0.88-1.32,0.88-2.3v-8.5L177.69,83.42L177.69,83.42z"/>
		<path class="st10" d="M182.17,90.67v5.55h-1.73V83.43h4.38c1.4,0,2.47,0.31,3.21,0.93s1.11,1.52,1.11,2.71
			c0,0.66-0.17,1.23-0.51,1.71c-0.34,0.49-0.84,0.87-1.5,1.16c0.7,0.23,1.21,0.6,1.52,1.11c0.31,0.51,0.46,1.15,0.46,1.9v1.2
			c0,0.4,0.04,0.76,0.13,1.07s0.24,0.57,0.46,0.77v0.21h-1.78c-0.23-0.2-0.38-0.49-0.44-0.88s-0.1-0.79-0.1-1.2v-1.17
			c0-0.69-0.2-1.25-0.61-1.67s-0.95-0.63-1.63-0.63h-2.97V90.67z M182.17,89.31h2.47c0.98,0,1.68-0.19,2.11-0.56
			c0.43-0.37,0.65-0.94,0.65-1.7c0-0.72-0.21-1.28-0.63-1.67c-0.42-0.4-1.07-0.59-1.96-0.59h-2.65v4.52H182.17z"/>
		<path class="st10" d="M198.71,92.99c0-0.58-0.21-1.07-0.62-1.46s-1.15-0.73-2.2-1c-1.3-0.32-2.32-0.8-3.05-1.42
			c-0.73-0.63-1.09-1.42-1.09-2.36c0-1,0.39-1.84,1.18-2.5c0.79-0.66,1.8-1,3.06-1c1.35,0,2.42,0.38,3.22,1.15
			c0.8,0.76,1.19,1.66,1.17,2.68l-0.03,0.05h-1.65c0-0.73-0.25-1.33-0.76-1.8s-1.16-0.71-1.95-0.71c-0.81,0-1.43,0.2-1.86,0.59
			c-0.43,0.39-0.65,0.9-0.65,1.53c0,0.56,0.24,1.02,0.71,1.39c0.47,0.37,1.24,0.7,2.3,0.98c1.29,0.33,2.27,0.83,2.94,1.48
			c0.67,0.65,1.01,1.45,1.01,2.41c0,1.03-0.41,1.86-1.22,2.49c-0.81,0.63-1.87,0.94-3.18,0.94c-1.24,0-2.33-0.35-3.27-1.04
			s-1.4-1.62-1.38-2.78l0.02-0.05h1.65c0,0.8,0.3,1.42,0.91,1.86s1.3,0.66,2.07,0.66c0.82,0,1.47-0.18,1.95-0.55
			C198.47,94.16,198.71,93.62,198.71,92.99z"/>
	</g>
</g>
</svg>
