<?xml version="1.0" encoding="utf-8"?>
<!-- Generator: Adobe Illustrator 24.2.0, SVG Export Plug-In . SVG Version: 6.00 Build 0)  -->
<svg version="1.1" id="Livello_1" xmlns="http://www.w3.org/2000/svg" xmlns:xlink="http://www.w3.org/1999/xlink" x="0px" y="0px"
	 viewBox="0 0 159.8 159.8" style="enable-background:new 0 0 159.8 159.8;" xml:space="preserve">
<style type="text/css">
	.st0{fill:#5FCFB3;}
</style>
<path class="st0" d="M131.9,149.4H29.1c-10,0-18.1-8.1-18.1-18.1V28.5c0-10,8.1-18.1,18.1-18.1h102.9c10,0,18.1,8.1,18.1,18.1v102.9
	C150,141.3,141.9,149.4,131.9,149.4z"/>
<g>
	<path d="M121.7,84.5H39.3c-2.1,0-3.7-2.1-3.7-4.7c0-2.6,1.7-4.7,3.7-4.7h82.4c2.1,0,3.7,2.1,3.7,4.7
		C125.5,82.5,123.8,84.5,121.7,84.5z"/>
	<path d="M121.7,48H39.3c-2.1,0-3.7-2.1-3.7-4.7s1.7-4.7,3.7-4.7h82.4c2.1,0,3.7,2.1,3.7,4.7S123.8,48,121.7,48z"/>
	<path d="M121.7,121.1H39.3c-2.1,0-3.7-2.1-3.7-4.7c0-2.6,1.7-4.7,3.7-4.7h82.4c2.1,0,3.7,2.1,3.7,4.7
		C125.5,119,123.8,121.1,121.7,121.1z"/>
</g>
</svg>
