<?xml version="1.0" encoding="utf-8"?>
<!-- Generator: Adobe Illustrator 24.2.0, SVG Export Plug-In . SVG Version: 6.00 Build 0)  -->
<svg version="1.1" id="Livello_1" xmlns="http://www.w3.org/2000/svg" xmlns:xlink="http://www.w3.org/1999/xlink" x="0px" y="0px"
	 viewBox="0 0 1826.2 795.1" style="enable-background:new 0 0 1826.2 795.1;" xml:space="preserve">
<style type="text/css">
	.st0{fill:#1D1D1B;}
	.st1{fill:none;stroke:#135782;stroke-width:1.1542;stroke-miterlimit:10;}
	.st2{fill:none;stroke:#135782;stroke-miterlimit:10;stroke-dasharray:6,2;}
	.st3{fill:none;stroke:#135782;stroke-miterlimit:10;}
	.st4{fill:none;stroke:#135782;stroke-miterlimit:10;stroke-dasharray:6.254,2.0847;}
	.st5{fill:#135782;}
	.st6{fill:#707C99;}
	.st7{fill:none;stroke:#135782;stroke-miterlimit:10;stroke-dasharray:5,4;}
</style>
<g>
	<g>
		<g>
			<g>
				<path class="st0" d="M1065.8,84.1V70.4h1.6v5.7h5.8v-5.7h1.6v13.7h-1.6v-6.6h-5.8v6.6H1065.8z"/>
				<path class="st0" d="M1077.7,77.2c0-2,0.4-3.6,1.2-4.8c1-1.5,2.4-2.2,4.2-2.2s3.3,0.7,4.3,2.2c0.8,1.2,1.2,2.9,1.2,5.1
					c0,1.2-0.1,2.2-0.4,3c-0.3,1-0.8,1.8-1.6,2.5c-1,0.9-2.1,1.3-3.5,1.3c-1.6,0-2.9-0.6-3.9-1.7
					C1078.2,81.4,1077.7,79.6,1077.7,77.2z M1086.2,73.4c-0.6-1.3-1.6-1.9-3.1-1.9c-1.4,0-2.4,0.5-2.9,1.6c-0.5,0.9-0.7,2.1-0.7,3.8
					c0,2.2,0.3,3.8,0.9,4.7c0.3,0.5,0.7,0.8,1.2,1.1c0.6,0.3,1.1,0.4,1.7,0.4c1.8,0,2.9-0.9,3.3-2.8c0.1-0.6,0.2-1.5,0.2-2.6
					C1086.8,75.8,1086.6,74.3,1086.2,73.4z"/>
				<path class="st0" d="M1091.1,84.1l1.2-13.7h2.4l2.5,9c0.3,0.9,0.4,1.7,0.5,2.4c0.1-0.5,0.3-1.3,0.5-2.2l2.6-9.1h2.4l1.2,13.7
					h-1.6l-0.9-12.4c-0.2,0.8-0.3,1.5-0.5,2.2l-2.9,10.2h-1.4l-2.7-9.7c-0.3-1.1-0.6-2-0.7-2.7l-0.2,2.7l-0.8,9.8H1091.1z"/>
				<path class="st0" d="M1106.9,84.1V70.5h7.5l-0.2,1.3h-5.6v4.5h4.7v1.4h-4.7v5h6v1.4H1106.9z"/>
			</g>
		</g>
		<rect x="1026.3" y="49.3" class="st1" width="126.8" height="57.2"/>
	</g>
	<g>
		<g>
			<g>
				<path class="st0" d="M893.7,84.1V70.4h1.6v12.3h5.4l-0.2,1.4H893.7z"/>
				<path class="st0" d="M902.4,77.2c0-2,0.4-3.6,1.2-4.8c1-1.5,2.4-2.2,4.2-2.2c1.9,0,3.3,0.7,4.3,2.2c0.8,1.2,1.2,2.9,1.2,5.1
					c0,1.2-0.1,2.2-0.4,3c-0.3,1-0.8,1.8-1.6,2.5c-1,0.9-2.1,1.3-3.5,1.3c-1.6,0-2.9-0.6-3.9-1.7C902.9,81.4,902.4,79.6,902.4,77.2z
					 M910.9,73.4c-0.6-1.3-1.6-1.9-3.1-1.9c-1.4,0-2.4,0.5-2.9,1.6c-0.5,0.9-0.7,2.1-0.7,3.8c0,2.2,0.3,3.8,0.9,4.7
					c0.3,0.5,0.7,0.8,1.2,1.1c0.6,0.3,1.1,0.4,1.7,0.4c1.8,0,2.9-0.9,3.3-2.8c0.1-0.6,0.2-1.5,0.2-2.6
					C911.5,75.8,911.3,74.3,910.9,73.4z"/>
				<path class="st0" d="M921.2,70.3c1.5,0,2.7,0.5,3.8,1.4l-0.7,1c-1-0.7-2-1-3-1c-1.7,0-2.9,0.8-3.4,2.3c-0.4,1-0.5,2.2-0.5,3.5
					c0,1.8,0.3,3.2,1,4.2c0.3,0.5,0.8,0.8,1.5,1.1c0.6,0.2,1.2,0.4,1.8,0.4c0.9,0,1.6-0.2,2.2-0.5v-4.2H921l-0.3-1.3h4.6v6.4
					c-1.1,0.7-2.4,1-3.9,1c-2,0-3.5-0.7-4.5-2.1c-0.9-1.3-1.4-2.9-1.4-5c0-2.6,0.7-4.5,2.1-5.8C918.6,70.7,919.8,70.3,921.2,70.3z"
					/>
				<path class="st0" d="M928.4,84.1V70.4h1.6v13.7H928.4z"/>
				<path class="st0" d="M933.6,84.1V70.4h1.9l4.6,8.7c0.2,0.3,0.5,1.1,1,2.2c0.1,0.1,0.1,0.3,0.3,0.7c0-0.3,0-0.6,0-0.8
					c-0.1-1.5-0.1-2.6-0.1-3.3l-0.1-7.4h1.6v13.7H941l-4.4-8.4c-0.4-0.7-0.7-1.3-0.9-1.8c-0.3-0.5-0.5-1-0.6-1.4
					c0.1,1.3,0.2,2.5,0.2,3.7l0.1,7.9H933.6z"/>
			</g>
		</g>
		<rect x="854.3" y="49.3" class="st2" width="126.8" height="57.2"/>
	</g>
	<g>
		<g>
			<path class="st0" d="M558.4,223.5v-13.7h3.2c1.6,0,2.7,0.3,3.5,0.9c0.9,0.7,1.4,1.7,1.4,2.9c0,1.1-0.3,2-1,2.7
				c-0.7,0.7-1.5,1-2.6,1h-0.2c0.5,0.4,0.9,0.9,1.4,1.5l1.1,1.6l2,3h-2.1c-0.4-1-1.3-2.4-2.6-4.1c-0.4-0.5-0.6-0.8-0.7-1
				c-0.4-0.5-0.7-0.8-0.8-0.9c-0.2-0.1-0.5-0.2-0.8-0.2v6.2H558.4z M561.7,211.2h-1.6v5.1h1.5c1.2,0,2-0.2,2.5-0.7
				c0.5-0.5,0.7-1.1,0.7-2.1c0-0.4-0.1-0.9-0.4-1.2c-0.2-0.4-0.6-0.7-1-0.8C562.9,211.3,562.3,211.2,561.7,211.2z"/>
			<path class="st0" d="M569.9,223.5v-13.7h1.6v13.7H569.9z"/>
			<path class="st0" d="M580.1,209.6c1.3,0,2.5,0.4,3.5,1.1l-0.9,1.1c-0.8-0.6-1.7-0.8-2.6-0.8c-1.6,0-2.7,0.8-3.4,2.4
				c-0.4,0.9-0.6,2.1-0.6,3.6c0,1.2,0.1,2.2,0.4,2.9c0.7,1.7,1.9,2.5,3.7,2.5c1,0,1.9-0.3,2.7-0.9l0.9,1.1c-1.1,0.7-2.4,1.1-3.8,1.1
				c-1.8,0-3.3-0.7-4.3-2.2c-0.9-1.3-1.4-2.9-1.4-4.8c0-1.9,0.5-3.5,1.4-4.8C576.9,210.3,578.3,209.6,580.1,209.6z"/>
			<path class="st0" d="M585.9,223.5v-13.6h7.5l-0.2,1.3h-5.6v4.5h4.7v1.4h-4.7v5h6v1.4H585.9z"/>
			<path class="st0" d="M596.2,223.5v-13.7h3.2c1.6,0,2.7,0.3,3.5,0.9c0.9,0.7,1.4,1.7,1.4,2.9c0,1.1-0.3,2-1,2.7
				c-0.7,0.7-1.5,1-2.6,1h-0.2c0.5,0.4,0.9,0.9,1.4,1.5l1.1,1.6l2,3h-2.1c-0.4-1-1.3-2.4-2.6-4.1c-0.4-0.5-0.6-0.8-0.7-1
				c-0.4-0.5-0.7-0.8-0.8-0.9c-0.2-0.1-0.5-0.2-0.8-0.2v6.2H596.2z M599.5,211.2h-1.6v5.1h1.5c1.2,0,2-0.2,2.5-0.7
				c0.5-0.5,0.7-1.1,0.7-2.1c0-0.4-0.1-0.9-0.4-1.2c-0.2-0.4-0.6-0.7-1-0.8C600.7,211.3,600.2,211.2,599.5,211.2z"/>
			<path class="st0" d="M612.6,209.6c1.3,0,2.5,0.4,3.5,1.1l-0.9,1.1c-0.8-0.6-1.7-0.8-2.6-0.8c-1.6,0-2.7,0.8-3.4,2.4
				c-0.4,0.9-0.6,2.1-0.6,3.6c0,1.2,0.1,2.2,0.4,2.9c0.7,1.7,1.9,2.5,3.7,2.5c1,0,1.9-0.3,2.7-0.9l0.9,1.1c-1.1,0.7-2.4,1.1-3.8,1.1
				c-1.8,0-3.3-0.7-4.3-2.2c-0.9-1.3-1.4-2.9-1.4-4.8c0-1.9,0.5-3.5,1.4-4.8C609.3,210.3,610.8,209.6,612.6,209.6z"/>
			<path class="st0" d="M621.2,209.8h2.1l4.5,13.7H626l-1.3-4.2h-5.1l-1.3,4.2h-1.7L621.2,209.8z M621.5,213.2l-1.5,4.7h4.2
				l-2.1-6.7L621.5,213.2z"/>
			<path class="st0" d="M555.9,231.4c1.5,0,2.8,0.4,4.1,1.3l-0.7,1.2c-1.2-0.8-2.3-1.2-3.3-1.2c-0.8,0-1.4,0.2-1.9,0.5
				c-0.5,0.4-0.8,1-0.8,1.7c0,1,0.8,1.8,2.3,2.2l1.6,0.5c1.1,0.4,1.9,0.8,2.4,1.4c0.6,0.7,0.9,1.5,0.9,2.4c0,1.3-0.6,2.4-1.9,3.3
				c-0.8,0.6-1.9,0.8-3.1,0.8c-1.6,0-3.1-0.4-4.4-1.2l0.7-1.3c1.1,0.8,2.3,1.2,3.7,1.2c0.9,0,1.6-0.2,2.2-0.6c0.7-0.5,1-1.1,1-2
				c0-1.2-0.8-2.1-2.5-2.6l-1.4-0.4c-1.2-0.4-2-0.8-2.4-1.2c-0.6-0.6-0.9-1.3-0.9-2.2c0-1.2,0.4-2.2,1.3-2.9
				C553.6,231.8,554.6,231.4,555.9,231.4z"/>
			<path class="st0" d="M563.2,245.4v-13.6h7.5l-0.2,1.3h-5.6v4.5h4.7v1.4h-4.7v5h6v1.4H563.2z"/>
			<path class="st0" d="M573.1,245.4l1.2-13.7h2.4l2.5,9c0.3,0.9,0.4,1.7,0.5,2.4c0.1-0.5,0.3-1.3,0.5-2.2l2.6-9.1h2.4l1.2,13.7
				h-1.6l-0.9-12.4c-0.2,0.8-0.3,1.5-0.5,2.2l-2.9,10.2h-1.4l-2.7-9.7c-0.3-1.1-0.6-2-0.7-2.7l-0.2,2.7l-0.8,9.8H573.1z"/>
			<path class="st0" d="M589,245.4v-13.7h3.8c1.3,0,2.3,0.2,3,0.6c1.2,0.8,1.8,1.9,1.8,3.3c0,1.4-0.4,2.4-1.3,3.3
				c-0.5,0.4-1,0.7-1.5,0.9c-0.4,0.1-1,0.2-1.8,0.2h-2.4v5.5H589z M592.3,233.1h-1.7v5.5h2.3c1,0,1.7-0.3,2.2-0.8s0.7-1.1,0.7-1.9
				c0-1.5-0.6-2.4-1.8-2.7C593.5,233.2,593,233.1,592.3,233.1z"/>
			<path class="st0" d="M600.3,245.4v-13.7h1.6v12.3h5.4l-0.2,1.4H600.3z"/>
			<path class="st0" d="M609.7,245.4v-13.7h1.6v13.7H609.7z"/>
			<path class="st0" d="M619.9,231.6c1.3,0,2.5,0.4,3.5,1.1l-0.9,1.1c-0.8-0.6-1.7-0.8-2.6-0.8c-1.6,0-2.7,0.8-3.4,2.4
				c-0.4,0.9-0.6,2.1-0.6,3.6c0,1.2,0.1,2.2,0.4,2.9c0.7,1.7,1.9,2.5,3.7,2.5c1,0,1.9-0.3,2.7-0.9l0.9,1.1c-1.1,0.7-2.4,1.1-3.8,1.1
				c-1.8,0-3.3-0.7-4.3-2.2c-0.9-1.3-1.4-2.9-1.4-4.8c0-1.9,0.5-3.5,1.4-4.8C616.7,232.3,618.1,231.6,619.9,231.6z"/>
			<path class="st0" d="M625.7,245.4v-13.6h7.5l-0.2,1.3h-5.6v4.5h4.7v1.4h-4.7v5h6v1.4H625.7z"/>
		</g>
	</g>
	<rect x="528.9" y="200.3" class="st3" width="126.8" height="56"/>
	<g>
		<g>
			<g>
				<path class="st0" d="M1546.3,235.8v-13.7h3.8c1.3,0,2.3,0.2,3,0.6c1.2,0.8,1.8,1.9,1.8,3.3c0,1.4-0.4,2.4-1.3,3.3
					c-0.5,0.4-1,0.7-1.5,0.9c-0.4,0.1-1,0.2-1.8,0.2h-2.4v5.5H1546.3z M1549.6,223.4h-1.7v5.5h2.3c1,0,1.7-0.3,2.2-0.8
					s0.7-1.1,0.7-1.9c0-1.5-0.6-2.4-1.8-2.7C1550.8,223.5,1550.2,223.4,1549.6,223.4z"/>
				<path class="st0" d="M1557.6,235.8v-13.7h3.2c1.6,0,2.7,0.3,3.5,0.9c0.9,0.7,1.4,1.7,1.4,2.9c0,1.1-0.3,2-1,2.7
					c-0.7,0.7-1.5,1-2.6,1h-0.2c0.5,0.4,0.9,0.9,1.4,1.5l1.1,1.6l2,3h-2.1c-0.4-1-1.3-2.4-2.6-4.1c-0.4-0.5-0.6-0.8-0.7-1
					c-0.4-0.5-0.7-0.8-0.8-0.9c-0.2-0.1-0.5-0.2-0.8-0.2v6.2H1557.6z M1560.9,223.5h-1.6v5.1h1.5c1.2,0,2-0.2,2.5-0.7
					c0.5-0.5,0.7-1.1,0.7-2.1c0-0.4-0.1-0.9-0.4-1.2c-0.2-0.4-0.6-0.7-1-0.8C1562.1,223.5,1561.6,223.5,1560.9,223.5z"/>
				<path class="st0" d="M1568.4,228.9c0-2,0.4-3.6,1.2-4.8c1-1.5,2.4-2.2,4.2-2.2s3.3,0.7,4.3,2.2c0.8,1.2,1.2,2.9,1.2,5.1
					c0,1.2-0.1,2.2-0.4,3c-0.3,1-0.8,1.8-1.6,2.5c-1,0.9-2.1,1.3-3.5,1.3c-1.6,0-2.9-0.6-3.9-1.7
					C1568.9,233,1568.4,231.2,1568.4,228.9z M1576.9,225c-0.6-1.3-1.6-1.9-3.1-1.9c-1.4,0-2.4,0.5-2.9,1.6c-0.5,0.9-0.7,2.1-0.7,3.8
					c0,2.2,0.3,3.8,0.9,4.7c0.3,0.5,0.7,0.8,1.2,1.1c0.6,0.3,1.1,0.4,1.7,0.4c1.8,0,2.9-0.9,3.3-2.8c0.1-0.6,0.2-1.5,0.2-2.6
					C1577.5,227.4,1577.3,225.9,1576.9,225z"/>
				<path class="st0" d="M1582.2,235.8v-13.6h7.2l-0.3,1.3h-5.3v4.5h4.4v1.3h-4.4v6.5H1582.2z"/>
				<path class="st0" d="M1591.6,235.8v-13.7h1.6v13.7H1591.6z"/>
				<path class="st0" d="M1596.9,235.8v-13.7h1.6v12.3h5.4l-0.2,1.4H1596.9z"/>
				<path class="st0" d="M1605.5,228.9c0-2,0.4-3.6,1.2-4.8c1-1.5,2.4-2.2,4.2-2.2c1.9,0,3.3,0.7,4.3,2.2c0.8,1.2,1.2,2.9,1.2,5.1
					c0,1.2-0.1,2.2-0.4,3c-0.3,1-0.8,1.8-1.6,2.5c-1,0.9-2.1,1.3-3.5,1.3c-1.6,0-2.9-0.6-3.9-1.7
					C1606.1,233,1605.5,231.2,1605.5,228.9z M1614,225c-0.6-1.3-1.6-1.9-3.1-1.9c-1.4,0-2.4,0.5-2.9,1.6c-0.5,0.9-0.7,2.1-0.7,3.8
					c0,2.2,0.3,3.8,0.9,4.7c0.3,0.5,0.7,0.8,1.2,1.1c0.6,0.3,1.1,0.4,1.7,0.4c1.8,0,2.9-0.9,3.3-2.8c0.1-0.6,0.2-1.5,0.2-2.6
					C1614.7,227.4,1614.5,225.9,1614,225z"/>
			</g>
		</g>
		<rect x="1517.6" y="200.3" class="st3" width="126.8" height="57"/>
	</g>
	<g>
		<g>
			<path class="st0" d="M890.1,224.5v-13.7h3.2c1.6,0,2.7,0.3,3.5,0.9c0.9,0.7,1.4,1.7,1.4,2.9c0,1.1-0.3,2-1,2.7
				c-0.7,0.7-1.5,1-2.6,1h-0.2c0.5,0.4,0.9,0.9,1.4,1.5l1.1,1.6l2,3h-2.1c-0.4-1-1.3-2.4-2.6-4.1c-0.4-0.5-0.6-0.8-0.7-1
				c-0.4-0.5-0.7-0.8-0.8-0.9c-0.2-0.1-0.5-0.2-0.8-0.2v6.2H890.1z M893.3,212.2h-1.6v5.1h1.5c1.2,0,2-0.2,2.5-0.7
				c0.5-0.5,0.7-1.1,0.7-2.1c0-0.4-0.1-0.9-0.4-1.2c-0.2-0.4-0.6-0.7-1-0.8C894.6,212.3,894,212.2,893.3,212.2z"/>
			<path class="st0" d="M901.6,224.5v-13.7h1.6v13.7H901.6z"/>
			<path class="st0" d="M911.8,210.6c1.3,0,2.5,0.4,3.5,1.1l-0.9,1.1c-0.8-0.6-1.7-0.8-2.6-0.8c-1.6,0-2.7,0.8-3.4,2.4
				c-0.4,0.9-0.6,2.1-0.6,3.6c0,1.2,0.1,2.2,0.4,2.9c0.7,1.7,1.9,2.5,3.7,2.5c1,0,1.9-0.3,2.7-0.9l0.9,1.1c-1.1,0.7-2.4,1.1-3.8,1.1
				c-1.8,0-3.3-0.7-4.3-2.2c-0.9-1.3-1.4-2.9-1.4-4.8c0-1.9,0.5-3.5,1.4-4.8C908.5,211.3,910,210.6,911.8,210.6z"/>
			<path class="st0" d="M917.6,224.5v-13.6h7.5l-0.2,1.3h-5.6v4.5h4.7v1.4h-4.7v5h6v1.4H917.6z"/>
			<path class="st0" d="M927.9,224.5v-13.7h3.2c1.6,0,2.7,0.3,3.5,0.9c0.9,0.7,1.4,1.7,1.4,2.9c0,1.1-0.3,2-1,2.7
				c-0.7,0.7-1.5,1-2.6,1h-0.2c0.5,0.4,0.9,0.9,1.4,1.5l1.1,1.6l2,3h-2.1c-0.4-1-1.3-2.4-2.6-4.1c-0.4-0.5-0.6-0.8-0.7-1
				c-0.4-0.5-0.7-0.8-0.8-0.9c-0.2-0.1-0.5-0.2-0.8-0.2v6.2H927.9z M931.2,212.2h-1.6v5.1h1.5c1.2,0,2-0.2,2.5-0.7
				c0.5-0.5,0.7-1.1,0.7-2.1c0-0.4-0.1-0.9-0.4-1.2c-0.2-0.4-0.6-0.7-1-0.8C932.4,212.3,931.8,212.2,931.2,212.2z"/>
			<path class="st0" d="M944.3,210.6c1.3,0,2.5,0.4,3.5,1.1l-0.9,1.1c-0.8-0.6-1.7-0.8-2.6-0.8c-1.6,0-2.7,0.8-3.4,2.4
				c-0.4,0.9-0.6,2.1-0.6,3.6c0,1.2,0.1,2.2,0.4,2.9c0.7,1.7,1.9,2.5,3.7,2.5c1,0,1.9-0.3,2.7-0.9l0.9,1.1c-1.1,0.7-2.4,1.1-3.8,1.1
				c-1.8,0-3.3-0.7-4.3-2.2c-0.9-1.3-1.4-2.9-1.4-4.8c0-1.9,0.5-3.5,1.4-4.8C941,211.3,942.5,210.6,944.3,210.6z"/>
			<path class="st0" d="M952.9,210.8h2.1l4.5,13.7h-1.9l-1.3-4.2h-5.1l-1.3,4.2h-1.7L952.9,210.8z M953.2,214.2l-1.5,4.7h4.2
				l-2.1-6.7L953.2,214.2z"/>
			<path class="st0" d="M884,232.7h2.1l4.5,13.7h-1.9l-1.3-4.2h-5.1l-1.3,4.2h-1.7L884,232.7z M884.3,236.2l-1.5,4.7h4.2l-2.1-6.7
				L884.3,236.2z"/>
			<path class="st0" d="M895.7,246.4l-4.6-13.7h1.8l2.9,8.8c0.4,1.2,0.7,2.2,0.8,3.1c0.1-0.7,0.4-1.6,0.8-2.9l2.9-9h1.7l-4.7,13.7
				H895.7z"/>
			<path class="st0" d="M906.8,232.7h2.1l4.5,13.7h-1.9l-1.3-4.2h-5.1l-1.3,4.2h-1.7L906.8,232.7z M907.2,236.2l-1.5,4.7h4.2
				l-2.1-6.7L907.2,236.2z"/>
			<path class="st0" d="M915.3,246.4v-13.7h1.9l4.6,8.7c0.2,0.3,0.5,1.1,1,2.2c0.1,0.1,0.1,0.3,0.3,0.7c0-0.3,0-0.6,0-0.8
				c-0.1-1.5-0.1-2.6-0.1-3.3l-0.1-7.4h1.6v13.7h-1.7l-4.4-8.4c-0.4-0.7-0.7-1.3-0.9-1.8c-0.3-0.5-0.5-1-0.6-1.4
				c0.1,1.3,0.2,2.5,0.2,3.7l0.1,7.9H915.3z"/>
			<path class="st0" d="M926.8,234.2l0.5-1.3h7.8v1.4l-6.5,10.8h1.2h5.4l-0.4,1.4h-8.1v-1.2l5.9-9.6c0.3-0.4,0.6-0.9,0.9-1.3h-1.4
				H926.8z"/>
			<path class="st0" d="M940.4,232.7h2.1l4.5,13.7h-1.9l-1.3-4.2h-5.1l-1.3,4.2h-1.7L940.4,232.7z M940.7,236.2l-1.5,4.7h4.2
				l-2.1-6.7L940.7,236.2z"/>
			<path class="st0" d="M947.6,234.1v-1.4h9.1l-0.1,1.4h-3.7v12.3h-1.6v-12.3H947.6z"/>
			<path class="st0" d="M961.8,232.7h2.1l4.5,13.7h-1.9l-1.3-4.2h-5.1l-1.3,4.2h-1.7L961.8,232.7z M962.2,236.2l-1.5,4.7h4.2
				l-2.1-6.7L962.2,236.2z"/>
		</g>
	</g>
	<rect x="852.1" y="200.3" class="st3" width="143.8" height="56"/>
	<g>
		<g>
			<g>
				<path class="st0" d="M1233.4,232.8v-13.7h1.9l4.6,8.7c0.2,0.3,0.5,1.1,1,2.2c0.1,0.1,0.1,0.3,0.3,0.7c0-0.3,0-0.6,0-0.8
					c-0.1-1.5-0.1-2.6-0.1-3.3l-0.1-7.4h1.6v13.7h-1.7l-4.4-8.4c-0.4-0.7-0.7-1.3-0.9-1.8c-0.3-0.5-0.5-1-0.6-1.4
					c0.1,1.3,0.2,2.5,0.2,3.7l0.1,7.9H1233.4z"/>
				<path class="st0" d="M1246,232.8v-13.6h7.5l-0.2,1.3h-5.6v4.5h4.7v1.4h-4.7v5h6v1.4H1246z"/>
				<path class="st0" d="M1258.3,232.8l-3.2-13.7h1.7l1.7,8c0.1,0.7,0.3,1.6,0.5,2.7l0.2,1.5c0.2-1.2,0.5-2.6,0.8-4l1.8-8.2h1.9
					l1.8,8c0.2,0.9,0.5,2.3,0.8,4.2c0.1-1,0.4-2.5,0.8-4.2l1.7-8h1.6l-3.1,13.7h-2.1l-1.7-7.6c-0.3-1.4-0.6-2.7-0.7-3.9
					c-0.2,1.4-0.5,2.6-0.7,3.8l-1.7,7.7H1258.3z"/>
				<path class="st0" d="M1276.4,218.8c1.5,0,2.8,0.4,4.1,1.3l-0.7,1.2c-1.2-0.8-2.3-1.2-3.3-1.2c-0.8,0-1.4,0.2-1.9,0.5
					c-0.5,0.4-0.8,1-0.8,1.7c0,1,0.8,1.8,2.3,2.2l1.6,0.5c1.1,0.4,1.9,0.8,2.4,1.4c0.6,0.7,0.9,1.5,0.9,2.4c0,1.3-0.6,2.4-1.9,3.3
					c-0.8,0.6-1.9,0.8-3.1,0.8c-1.6,0-3.1-0.4-4.4-1.2l0.7-1.3c1.1,0.8,2.3,1.2,3.7,1.2c0.9,0,1.6-0.2,2.2-0.6c0.7-0.5,1-1.1,1-2
					c0-1.2-0.8-2.1-2.5-2.6l-1.4-0.4c-1.2-0.4-2-0.8-2.4-1.2c-0.6-0.6-0.9-1.3-0.9-2.2c0-1.2,0.4-2.2,1.3-2.9
					C1274.1,219.2,1275.2,218.8,1276.4,218.8z"/>
			</g>
		</g>
		<rect x="1193.4" y="200.3" class="st3" width="126.8" height="55.5"/>
	</g>
	<g>
		<g>
			<line class="st3" x1="981.9" y1="77.9" x2="984.9" y2="77.9"/>
			<line class="st4" x1="987" y1="77.9" x2="1019.3" y2="77.9"/>
			<line class="st3" x1="1020.4" y1="77.9" x2="1023.4" y2="77.9"/>
			<g>
				<path class="st5" d="M1023,77.9c-1-1-1.5-3.1-1.6-4.5c1.4,1.9,3.3,3.6,5.5,4.5c-2.3,0.9-4,2.7-5.5,4.5
					C1021.5,80.9,1021.9,79,1023,77.9z"/>
			</g>
		</g>
	</g>
	<g>
		<g>
			<line class="st3" x1="1091.1" y1="107.7" x2="1091.1" y2="149.2"/>
			<g>
				<path class="st5" d="M1091.1,148.8c1-1,3.1-1.5,4.5-1.6c-1.9,1.4-3.6,3.3-4.5,5.5c-0.9-2.3-2.7-4-4.5-5.5
					C1088,147.3,1089.9,147.7,1091.1,148.8z"/>
			</g>
		</g>
	</g>
	<g>
		<g>
			<polyline class="st3" points="593.1,194.6 593.1,153.7 1580.3,153.7 1580.3,195.6 			"/>
			<g>
				<path class="st5" d="M593.1,194.2c-1-1-3.1-1.5-4.5-1.6c1.9,1.4,3.6,3.3,4.5,5.5c0.9-2.3,2.7-4,4.5-5.5
					C596.1,192.8,594.3,193.1,593.1,194.2z"/>
			</g>
			<g>
				<path class="st5" d="M1580.3,195.2c1-1,3.1-1.5,4.5-1.6c-1.9,1.4-3.6,3.3-4.5,5.5c-0.9-2.3-2.7-4-4.5-5.5
					C1577.3,193.8,1579.1,194.1,1580.3,195.2z"/>
			</g>
		</g>
	</g>
	<g>
		<g>
			<line class="st3" x1="1256.8" y1="153.2" x2="1256.8" y2="194.6"/>
			<g>
				<path class="st5" d="M1256.8,194.2c1-1,3.1-1.5,4.5-1.6c-1.9,1.4-3.6,3.3-4.5,5.5c-0.9-2.3-2.7-4-4.5-5.5
					C1253.8,192.8,1255.7,193.1,1256.8,194.2z"/>
			</g>
		</g>
	</g>
	<g>
		<g>
			<line class="st3" x1="926.6" y1="153.2" x2="926.6" y2="194.6"/>
			<g>
				<path class="st5" d="M926.6,194.2c1-1,3.1-1.5,4.5-1.6c-1.9,1.4-3.6,3.3-4.5,5.5c-0.9-2.3-2.7-4-4.5-5.5
					C923.6,192.8,925.5,193.1,926.6,194.2z"/>
			</g>
		</g>
	</g>
	<g>
		<g>
			<g>
				<g>
					<path class="st0" d="M709.5,732.7v-13.6h2.7c1.1,0,1.9,0,2.3,0.1c0.7,0.1,1.4,0.5,2.1,0.9c1.5,1.1,2.3,3,2.3,5.8
						c0,2.2-0.5,3.9-1.6,5.1c-0.6,0.7-1.3,1.1-1.9,1.4c-0.6,0.2-1.4,0.3-2.4,0.3H709.5z M712.8,720.5h-1.6v10.9h2
						c1.5,0,2.5-0.5,3.1-1.4c0.6-1,0.9-2.3,0.9-3.8c0-2-0.4-3.5-1.2-4.4c-0.4-0.5-0.9-0.9-1.4-1
						C714.1,720.5,713.5,720.5,712.8,720.5z"/>
					<path class="st0" d="M721.1,725.8c0-2,0.4-3.6,1.2-4.8c1-1.5,2.4-2.2,4.2-2.2c1.9,0,3.3,0.7,4.3,2.2c0.8,1.2,1.2,2.9,1.2,5.1
						c0,1.2-0.1,2.2-0.4,3c-0.3,1-0.8,1.8-1.6,2.5c-1,0.9-2.1,1.3-3.5,1.3c-1.6,0-2.9-0.6-3.9-1.7
						C721.6,730,721.1,728.2,721.1,725.8z M729.6,722c-0.6-1.3-1.6-1.9-3.1-1.9c-1.4,0-2.4,0.5-2.9,1.6c-0.5,0.9-0.7,2.1-0.7,3.8
						c0,2.2,0.3,3.8,0.9,4.7c0.3,0.5,0.7,0.8,1.2,1.1c0.6,0.3,1.1,0.4,1.7,0.4c1.8,0,2.9-0.9,3.3-2.8c0.1-0.6,0.2-1.5,0.2-2.6
						C730.3,724.4,730.1,722.9,729.6,722z"/>
					<path class="st0" d="M739.7,718.8c1.3,0,2.5,0.4,3.5,1.1l-0.9,1.1c-0.8-0.6-1.7-0.8-2.6-0.8c-1.6,0-2.7,0.8-3.4,2.4
						c-0.4,0.9-0.6,2.1-0.6,3.6c0,1.2,0.1,2.2,0.4,2.9c0.7,1.7,1.9,2.5,3.7,2.5c1,0,1.9-0.3,2.7-0.9l0.9,1.1
						c-1.1,0.7-2.4,1.1-3.8,1.1c-1.8,0-3.3-0.7-4.3-2.2c-0.9-1.3-1.4-2.9-1.4-4.8c0-1.9,0.5-3.5,1.4-4.8
						C736.5,719.6,737.9,718.8,739.7,718.8z"/>
					<path class="st0" d="M745,728.6V719h1.6v8.8c0,1,0,1.7,0.1,2.1c0.3,1.1,1.2,1.7,2.8,1.7c1.2,0,2-0.3,2.4-0.9
						c0.3-0.5,0.5-1.2,0.5-2.3V719h1.6v9.5c0,0.9,0,1.5-0.1,1.8c-0.1,0.6-0.4,1.1-0.9,1.5c-0.8,0.7-2,1.1-3.6,1.1
						c-2.1,0-3.4-0.7-4.1-2C745.2,730.4,745,729.6,745,728.6z"/>
					<path class="st0" d="M756.7,732.7l1.2-13.7h2.4l2.5,9c0.3,0.9,0.4,1.7,0.5,2.4c0.1-0.5,0.3-1.3,0.5-2.2l2.6-9.1h2.4l1.2,13.7
						h-1.6l-0.9-12.4c-0.2,0.8-0.3,1.5-0.5,2.2l-2.9,10.2h-1.4l-2.7-9.7c-0.3-1.1-0.6-2-0.7-2.7L759,723l-0.8,9.8H756.7z"/>
					<path class="st0" d="M772.4,732.7v-13.6h7.5l-0.2,1.3H774v4.5h4.7v1.4H774v5h6v1.4H772.4z"/>
					<path class="st0" d="M782.4,732.7V719h1.9l4.6,8.7c0.2,0.3,0.5,1.1,1,2.2c0.1,0.1,0.1,0.3,0.3,0.7c0-0.3,0-0.6,0-0.8
						c-0.1-1.5-0.1-2.6-0.1-3.3l-0.1-7.4h1.6v13.7h-1.7l-4.4-8.4c-0.4-0.7-0.7-1.3-0.9-1.8c-0.3-0.5-0.5-1-0.6-1.4
						c0.1,1.3,0.2,2.5,0.2,3.7l0.1,7.9H782.4z"/>
					<path class="st0" d="M793.4,720.4V719h9.1l-0.1,1.4h-3.7v12.3h-1.6v-12.3H793.4z"/>
					<path class="st0" d="M803.9,725.8c0-2,0.4-3.6,1.2-4.8c1-1.5,2.4-2.2,4.2-2.2s3.3,0.7,4.3,2.2c0.8,1.2,1.2,2.9,1.2,5.1
						c0,1.2-0.1,2.2-0.4,3c-0.3,1-0.8,1.8-1.6,2.5c-1,0.9-2.1,1.3-3.5,1.3c-1.6,0-2.9-0.6-3.9-1.7
						C804.4,730,803.9,728.2,803.9,725.8z M812.4,722c-0.6-1.3-1.6-1.9-3.1-1.9c-1.4,0-2.4,0.5-2.9,1.6c-0.5,0.9-0.7,2.1-0.7,3.8
						c0,2.2,0.3,3.8,0.9,4.7c0.3,0.5,0.7,0.8,1.2,1.1c0.6,0.3,1.1,0.4,1.7,0.4c1.8,0,2.9-0.9,3.3-2.8c0.1-0.6,0.2-1.5,0.2-2.6
						C813,724.4,812.8,722.9,812.4,722z"/>
				</g>
			</g>
		</g>
		<rect x="670.5" y="698.9" class="st1" width="182.3" height="55"/>
	</g>
	<g>
		<g>
			<g>
				<path class="st0" d="M1225.5,427.8v-13.7h1.9l4.6,8.7c0.2,0.3,0.5,1.1,1,2.2c0.1,0.1,0.1,0.3,0.3,0.7c0-0.3,0-0.6,0-0.8
					c-0.1-1.5-0.1-2.6-0.1-3.3l-0.1-7.4h1.6v13.7h-1.7l-4.4-8.4c-0.4-0.7-0.7-1.3-0.9-1.8c-0.2-0.5-0.5-1-0.6-1.4
					c0.1,1.3,0.2,2.5,0.2,3.7l0.1,7.9H1225.5z"/>
				<path class="st0" d="M1237.2,420.9c0-2,0.4-3.6,1.2-4.8c1-1.5,2.4-2.2,4.2-2.2c1.9,0,3.3,0.7,4.3,2.2c0.8,1.2,1.2,2.9,1.2,5.1
					c0,1.2-0.1,2.2-0.4,3c-0.3,1-0.8,1.8-1.6,2.5c-1,0.9-2.1,1.3-3.5,1.3c-1.6,0-2.9-0.6-3.9-1.7
					C1237.8,425.1,1237.2,423.2,1237.2,420.9z M1245.8,417.1c-0.6-1.3-1.6-1.9-3.1-1.9c-1.4,0-2.4,0.5-2.9,1.6
					c-0.5,0.9-0.7,2.1-0.7,3.8c0,2.2,0.3,3.8,0.9,4.7c0.3,0.5,0.7,0.8,1.2,1.1c0.6,0.3,1.1,0.4,1.7,0.4c1.8,0,2.9-0.9,3.3-2.8
					c0.1-0.6,0.2-1.5,0.2-2.6C1246.4,419.4,1246.2,418,1245.8,417.1z"/>
				<path class="st0" d="M1249.6,415.5v-1.4h9.1l-0.1,1.4h-3.7v12.3h-1.6v-12.3H1249.6z"/>
				<path class="st0" d="M1260.8,427.8v-13.7h1.6v13.7H1260.8z"/>
				<path class="st0" d="M1264.7,415.6l0.5-1.3h7.8v1.4l-6.5,10.8h1.2h5.4l-0.4,1.4h-8.1v-1.2l5.9-9.6c0.3-0.4,0.6-0.9,0.9-1.3h-1.4
					H1264.7z"/>
				<path class="st0" d="M1275.4,427.8v-13.7h1.6v13.7H1275.4z"/>
				<path class="st0" d="M1280.4,427.8v-13.6h7.5l-0.2,1.3h-5.6v4.5h4.7v1.4h-4.7v5h6v1.4H1280.4z"/>
			</g>
		</g>
	</g>
	<rect x="1196" y="393.6" class="st3" width="121.8" height="55.7"/>
	<polyline class="st3" points="591.4,257.3 591.4,302.3 927.9,302.3 927.9,257.3 	"/>
	<g>
		<g>
			<polyline class="st3" points="1030.3,389 1030.3,347.6 502.1,347.6 502.1,389 			"/>
			<g>
				<path class="st5" d="M1030.3,388.6c-1-1-3.1-1.5-4.5-1.6c1.9,1.4,3.6,3.3,4.5,5.5c0.9-2.3,2.7-4,4.5-5.5
					C1033.3,387.2,1031.4,387.6,1030.3,388.6z"/>
			</g>
			<g>
				<path class="st5" d="M502.1,388.6c1-1,3.1-1.5,4.5-1.6c-1.9,1.4-3.6,3.3-4.5,5.5c-0.9-2.3-2.7-4-4.5-5.5
					C499.1,387.2,501,387.6,502.1,388.6z"/>
			</g>
		</g>
	</g>
	<line class="st3" x1="766.2" y1="348.1" x2="766.2" y2="303.1"/>
	<g>
		<g>
			<polyline class="st3" points="329.2,550.1 329.2,508.6 680.3,508.6 680.3,550.1 			"/>
			<g>
				<path class="st5" d="M329.2,549.7c-1-1-3.1-1.5-4.5-1.6c1.9,1.4,3.6,3.3,4.5,5.5c0.9-2.3,2.7-4,4.5-5.5
					C332.2,548.2,330.3,548.6,329.2,549.7z"/>
			</g>
			<g>
				<path class="st5" d="M680.3,549.7c1-1,3.1-1.5,4.5-1.6c-1.9,1.4-3.6,3.3-4.5,5.5c-0.9-2.3-2.7-4-4.5-5.5
					C677.3,548.2,679.2,548.6,680.3,549.7z"/>
			</g>
		</g>
	</g>
	<g>
		<g>
			<g>
				<g>
					<g>
						<path class="st0" d="M978.4,427.4v-13.7h1.9l4.6,8.7c0.2,0.3,0.5,1.1,1,2.2c0.1,0.1,0.1,0.3,0.3,0.7c0-0.3,0-0.6,0-0.8
							c-0.1-1.5-0.1-2.6-0.1-3.3l-0.1-7.4h1.6v13.7h-1.7l-4.4-8.4c-0.4-0.7-0.7-1.3-0.9-1.8c-0.3-0.5-0.5-1-0.6-1.4
							c0.1,1.3,0.2,2.5,0.2,3.7l0.1,7.9H978.4z"/>
						<path class="st0" d="M990.1,420.5c0-2,0.4-3.6,1.2-4.8c1-1.5,2.4-2.2,4.2-2.2c1.9,0,3.3,0.7,4.3,2.2c0.8,1.2,1.2,2.9,1.2,5.1
							c0,1.2-0.1,2.2-0.4,3c-0.3,1-0.8,1.8-1.6,2.5c-1,0.9-2.1,1.3-3.5,1.3c-1.6,0-2.9-0.6-3.9-1.7
							C990.7,424.7,990.1,422.9,990.1,420.5z M998.6,416.7c-0.6-1.3-1.6-1.9-3.1-1.9c-1.4,0-2.4,0.5-2.9,1.6
							c-0.5,0.9-0.7,2.1-0.7,3.8c0,2.2,0.3,3.8,0.9,4.7c0.3,0.5,0.7,0.8,1.2,1.1c0.6,0.3,1.1,0.4,1.7,0.4c1.8,0,2.9-0.9,3.3-2.8
							c0.1-0.6,0.2-1.5,0.2-2.6C999.3,419.1,999.1,417.6,998.6,416.7z"/>
						<path class="st0" d="M1003.8,427.4v-13.7h3.2c1.6,0,2.7,0.3,3.5,0.9c0.9,0.7,1.4,1.7,1.4,2.9c0,1.1-0.3,2-1,2.7
							c-0.7,0.7-1.5,1-2.6,1h-0.2c0.5,0.4,0.9,0.9,1.4,1.5l1.1,1.6l2,3h-2.1c-0.4-1-1.3-2.4-2.6-4.1c-0.4-0.5-0.6-0.8-0.7-1
							c-0.4-0.5-0.7-0.8-0.8-0.9s-0.5-0.2-0.8-0.2v6.2H1003.8z M1007,415.1h-1.6v5.1h1.5c1.2,0,2-0.2,2.5-0.7
							c0.5-0.5,0.7-1.1,0.7-2.1c0-0.4-0.1-0.9-0.4-1.2c-0.2-0.4-0.6-0.7-1-0.8C1008.3,415.2,1007.7,415.1,1007,415.1z"/>
						<path class="st0" d="M1014.5,427.4l1.2-13.7h2.4l2.5,9c0.3,0.9,0.4,1.7,0.5,2.4c0.1-0.5,0.3-1.3,0.5-2.2l2.6-9.1h2.4l1.2,13.7
							h-1.6l-0.9-12.4c-0.2,0.8-0.3,1.5-0.5,2.2l-2.9,10.2h-1.4l-2.7-9.7c-0.3-1.1-0.6-2-0.7-2.7l-0.2,2.7l-0.8,9.8H1014.5z"/>
						<path class="st0" d="M1033,413.7h2.1l4.5,13.7h-1.9l-1.3-4.2h-5.1l-1.3,4.2h-1.7L1033,413.7z M1033.3,417.2l-1.5,4.7h4.2
							l-2.1-6.7L1033.3,417.2z"/>
						<path class="st0" d="M1040,415.1v-1.4h9.1l-0.1,1.4h-3.7v12.3h-1.6v-12.3H1040z"/>
						<path class="st0" d="M1051.2,427.4v-13.7h1.6v13.7H1051.2z"/>
						<path class="st0" d="M1059.3,427.4l-4.6-13.7h1.8l2.9,8.8c0.4,1.2,0.7,2.2,0.8,3.1c0.1-0.7,0.4-1.6,0.8-2.9l2.9-9h1.7
							l-4.7,13.7H1059.3z"/>
						<path class="st0" d="M1070.3,413.7h2.1l4.5,13.7h-1.9l-1.3-4.2h-5.1l-1.3,4.2h-1.7L1070.3,413.7z M1070.6,417.2l-1.5,4.7h4.2
							l-2.1-6.7L1070.6,417.2z"/>
					</g>
				</g>
			</g>
			<rect x="935.7" y="393.2" class="st1" width="182.3" height="55.7"/>
		</g>
		<g>
			<g>
				<path class="st0" d="M835.2,589.8v-13.7h1.6v12.3h5.4l-0.2,1.4H835.2z"/>
				<path class="st0" d="M844.3,589.8v-13.6h7.5l-0.2,1.3H846v4.5h4.7v1.4H846v5h6v1.4H844.3z"/>
				<path class="st0" d="M859.4,576c1.5,0,2.7,0.5,3.8,1.4l-0.7,1c-1-0.7-2-1-3-1c-1.7,0-2.9,0.8-3.4,2.3c-0.4,1-0.5,2.2-0.5,3.5
					c0,1.8,0.3,3.2,1,4.2c0.3,0.5,0.8,0.8,1.5,1.1c0.6,0.2,1.2,0.4,1.8,0.4c0.9,0,1.6-0.2,2.2-0.5V584h-2.8l-0.3-1.3h4.6v6.4
					c-1.1,0.7-2.4,1-3.9,1c-2,0-3.5-0.7-4.5-2.1c-0.9-1.3-1.4-2.9-1.4-5c0-2.6,0.7-4.5,2.1-5.8C856.8,576.4,858,576,859.4,576z"/>
				<path class="st0" d="M871.3,576c1.5,0,2.7,0.5,3.8,1.4l-0.7,1c-1-0.7-2-1-3-1c-1.7,0-2.9,0.8-3.4,2.3c-0.4,1-0.5,2.2-0.5,3.5
					c0,1.8,0.3,3.2,1,4.2c0.3,0.5,0.8,0.8,1.5,1.1c0.6,0.2,1.2,0.4,1.8,0.4c0.9,0,1.6-0.2,2.2-0.5V584h-2.8l-0.3-1.3h4.6v6.4
					c-1.1,0.7-2.4,1-3.9,1c-2,0-3.5-0.7-4.5-2.1c-0.9-1.3-1.4-2.9-1.4-5c0-2.6,0.7-4.5,2.1-5.8C868.7,576.4,869.9,576,871.3,576z"/>
				<path class="st0" d="M878.3,589.8v-13.7h1.6v13.7H878.3z"/>
			</g>
			<rect x="796" y="555.3" class="st1" width="123.2" height="55.6"/>
			<g>
				<g>
					<path class="st0" d="M1006.8,575.9c1.3,0,2.5,0.4,3.5,1.1l-0.9,1.1c-0.8-0.6-1.7-0.8-2.6-0.8c-1.6,0-2.7,0.8-3.4,2.4
						c-0.4,0.9-0.6,2.1-0.6,3.6c0,1.2,0.1,2.2,0.4,2.9c0.7,1.7,1.9,2.5,3.7,2.5c1,0,1.9-0.3,2.7-0.9l0.9,1.1
						c-1.1,0.7-2.4,1.1-3.8,1.1c-1.8,0-3.3-0.7-4.3-2.2c-0.9-1.3-1.4-2.9-1.4-4.8c0-1.9,0.5-3.5,1.4-4.8
						C1003.5,576.7,1005,575.9,1006.8,575.9z"/>
					<path class="st0" d="M1011.6,582.9c0-2,0.4-3.6,1.2-4.8c1-1.5,2.4-2.2,4.2-2.2c1.9,0,3.3,0.7,4.3,2.2c0.8,1.2,1.2,2.9,1.2,5.1
						c0,1.2-0.1,2.2-0.4,3c-0.3,1-0.8,1.8-1.6,2.5c-1,0.9-2.1,1.3-3.5,1.3c-1.6,0-2.9-0.6-3.9-1.7
						C1012.2,587.1,1011.6,585.3,1011.6,582.9z M1020.2,579.1c-0.6-1.3-1.6-1.9-3.1-1.9c-1.4,0-2.4,0.5-2.9,1.6
						c-0.5,0.9-0.7,2.1-0.7,3.8c0,2.2,0.3,3.8,0.9,4.7c0.3,0.5,0.7,0.8,1.2,1.1c0.6,0.3,1.1,0.4,1.7,0.4c1.8,0,2.9-0.9,3.3-2.8
						c0.1-0.6,0.2-1.5,0.2-2.6C1020.8,581.4,1020.6,580,1020.2,579.1z"/>
					<path class="st0" d="M1025.3,589.8v-13.6h2.7c1.1,0,1.9,0,2.3,0.1c0.7,0.1,1.4,0.5,2.1,0.9c1.5,1.1,2.3,3,2.3,5.8
						c0,2.2-0.5,3.9-1.6,5.1c-0.6,0.7-1.3,1.1-1.9,1.4c-0.6,0.2-1.4,0.3-2.4,0.3H1025.3z M1028.6,577.5h-1.6v10.9h2
						c1.5,0,2.5-0.5,3.1-1.4c0.6-1,0.9-2.3,0.9-3.8c0-2-0.4-3.5-1.2-4.4c-0.4-0.5-0.9-0.9-1.4-1
						C1029.9,577.6,1029.3,577.5,1028.6,577.5z"/>
					<path class="st0" d="M1037.6,589.8v-13.7h1.6v13.7H1037.6z"/>
					<path class="st0" d="M1047.7,575.9c1.3,0,2.5,0.4,3.5,1.1l-0.9,1.1c-0.8-0.6-1.7-0.8-2.6-0.8c-1.6,0-2.7,0.8-3.4,2.4
						c-0.4,0.9-0.6,2.1-0.6,3.6c0,1.2,0.1,2.2,0.4,2.9c0.7,1.7,1.9,2.5,3.7,2.5c1,0,1.9-0.3,2.7-0.9l0.9,1.1
						c-1.1,0.7-2.4,1.1-3.8,1.1c-1.8,0-3.3-0.7-4.3-2.2c-0.9-1.3-1.4-2.9-1.4-4.8c0-1.9,0.5-3.5,1.4-4.8
						C1044.4,576.7,1045.8,575.9,1047.7,575.9z"/>
					<path class="st0" d="M1053.3,589.8v-13.7h1.6v13.7H1053.3z"/>
				</g>
				<rect x="966.4" y="555.3" class="st1" width="123.2" height="55.6"/>
			</g>
			<g>
				<g>
					<path class="st0" d="M1167.7,589.8v-13.7h3.8c1.3,0,2.3,0.2,3,0.6c1.2,0.8,1.8,1.9,1.8,3.3c0,1.4-0.4,2.4-1.3,3.3
						c-0.5,0.4-1,0.7-1.5,0.9c-0.4,0.1-1,0.2-1.8,0.2h-2.4v5.5H1167.7z M1171,577.5h-1.7v5.5h2.3c1,0,1.7-0.3,2.2-0.8
						c0.5-0.5,0.7-1.1,0.7-1.9c0-1.5-0.6-2.4-1.8-2.7C1172.2,577.5,1171.6,577.5,1171,577.5z"/>
					<path class="st0" d="M1178.8,589.8v-13.7h3.2c1.6,0,2.7,0.3,3.5,0.9c0.9,0.7,1.4,1.7,1.4,2.9c0,1.1-0.3,2-1,2.7s-1.5,1-2.6,1
						h-0.2c0.5,0.4,0.9,0.9,1.4,1.5l1.1,1.6l2,3h-2.1c-0.4-1-1.3-2.4-2.6-4.1c-0.4-0.5-0.6-0.8-0.7-1c-0.4-0.5-0.7-0.8-0.8-0.9
						c-0.2-0.1-0.5-0.2-0.8-0.2v6.2H1178.8z M1182.1,577.5h-1.6v5.1h1.5c1.2,0,2-0.2,2.5-0.7c0.5-0.5,0.7-1.1,0.7-2.1
						c0-0.4-0.1-0.9-0.4-1.2c-0.2-0.4-0.6-0.7-1-0.8C1183.3,577.6,1182.7,577.5,1182.1,577.5z"/>
					<path class="st0" d="M1192.9,576.1h2.1l4.5,13.7h-1.9l-1.3-4.2h-5.1l-1.3,4.2h-1.7L1192.9,576.1z M1193.2,579.5l-1.5,4.7h4.2
						l-2.1-6.7L1193.2,579.5z"/>
					<path class="st0" d="M1204.9,575.8c1.5,0,2.8,0.4,4.1,1.3l-0.7,1.2c-1.2-0.8-2.3-1.2-3.3-1.2c-0.8,0-1.4,0.2-1.9,0.5
						c-0.5,0.4-0.8,1-0.8,1.7c0,1,0.8,1.8,2.3,2.2l1.6,0.5c1.1,0.4,1.9,0.8,2.4,1.4c0.6,0.7,0.9,1.5,0.9,2.4c0,1.3-0.6,2.4-1.9,3.3
						c-0.8,0.6-1.9,0.8-3.1,0.8c-1.6,0-3.1-0.4-4.4-1.2l0.7-1.3c1.1,0.8,2.3,1.2,3.7,1.2c0.9,0,1.6-0.2,2.2-0.6c0.7-0.5,1-1.1,1-2
						c0-1.2-0.8-2.1-2.5-2.6l-1.4-0.4c-1.2-0.4-2-0.8-2.4-1.2c-0.6-0.6-0.9-1.3-0.9-2.2c0-1.2,0.4-2.2,1.3-2.9
						C1202.6,576.1,1203.7,575.8,1204.9,575.8z"/>
					<path class="st0" d="M1215.8,575.8c1.5,0,2.8,0.4,4.1,1.3l-0.7,1.2c-1.2-0.8-2.3-1.2-3.3-1.2c-0.8,0-1.4,0.2-1.9,0.5
						c-0.5,0.4-0.8,1-0.8,1.7c0,1,0.8,1.8,2.3,2.2l1.6,0.5c1.1,0.4,1.9,0.8,2.4,1.4c0.6,0.7,0.9,1.5,0.9,2.4c0,1.3-0.6,2.4-1.9,3.3
						c-0.8,0.6-1.9,0.8-3.1,0.8c-1.6,0-3.1-0.4-4.4-1.2l0.7-1.3c1.1,0.8,2.3,1.2,3.7,1.2c0.9,0,1.6-0.2,2.2-0.6c0.7-0.5,1-1.1,1-2
						c0-1.2-0.8-2.1-2.5-2.6l-1.4-0.4c-1.2-0.4-2-0.8-2.4-1.2c-0.6-0.6-0.9-1.3-0.9-2.2c0-1.2,0.4-2.2,1.3-2.9
						C1213.5,576.1,1214.5,575.8,1215.8,575.8z"/>
					<path class="st0" d="M1223,589.8v-13.7h1.6v13.7H1223z"/>
				</g>
				<rect x="1134.5" y="555.3" class="st1" width="123.2" height="55.6"/>
			</g>
		</g>
	</g>
	<g>
		<g>
			<g>
				<g>
					<g>
						<path class="st0" d="M1393.5,427.1v-13.7h1.6v13.7H1393.5z"/>
						<path class="st0" d="M1398.5,427.1v-13.7h1.9l4.6,8.7c0.2,0.3,0.5,1.1,1,2.2c0.1,0.1,0.1,0.3,0.3,0.7c0-0.3,0-0.6,0-0.8
							c-0.1-1.5-0.1-2.6-0.1-3.3l-0.1-7.4h1.6v13.7h-1.7l-4.4-8.4c-0.4-0.7-0.7-1.3-0.9-1.8c-0.2-0.5-0.5-1-0.6-1.4
							c0.1,1.3,0.2,2.5,0.2,3.7l0.1,7.9H1398.5z"/>
						<path class="st0" d="M1410.8,427.1v-13.6h7.2l-0.3,1.3h-5.3v4.5h4.4v1.3h-4.4v6.5H1410.8z"/>
						<path class="st0" d="M1419.2,420.2c0-2,0.4-3.6,1.2-4.8c1-1.5,2.4-2.2,4.2-2.2s3.3,0.7,4.3,2.2c0.8,1.2,1.2,2.9,1.2,5.1
							c0,1.2-0.1,2.2-0.4,3c-0.3,1-0.8,1.8-1.6,2.5c-1,0.9-2.1,1.3-3.5,1.3c-1.6,0-2.9-0.6-3.9-1.7
							C1419.8,424.4,1419.2,422.6,1419.2,420.2z M1427.8,416.4c-0.6-1.3-1.6-1.9-3.1-1.9c-1.4,0-2.4,0.5-2.9,1.6
							c-0.5,0.9-0.7,2.1-0.7,3.8c0,2.2,0.3,3.8,0.9,4.7c0.3,0.5,0.7,0.8,1.2,1.1c0.6,0.3,1.1,0.4,1.7,0.4c1.8,0,2.9-0.9,3.3-2.8
							c0.1-0.6,0.2-1.5,0.2-2.6C1428.4,418.8,1428.2,417.3,1427.8,416.4z"/>
					</g>
				</g>
			</g>
			<rect x="1350.3" y="392.1" class="st1" width="123.2" height="55.6"/>
		</g>
		<g>
			<g>
				<g>
					<g>
						<path class="st0" d="M1559,416.9v-13.7h1.6v12.3h5.4l-0.2,1.4H1559z"/>
						<path class="st0" d="M1568.1,416.9v-13.6h7.5l-0.2,1.3h-5.6v4.5h4.7v1.4h-4.7v5h6v1.4H1568.1z"/>
						<path class="st0" d="M1583.2,403.1c1.5,0,2.7,0.5,3.8,1.4l-0.7,1c-1-0.7-2-1-3-1c-1.7,0-2.9,0.8-3.4,2.3
							c-0.4,1-0.5,2.2-0.5,3.5c0,1.8,0.3,3.2,1,4.2c0.3,0.5,0.8,0.8,1.5,1.1c0.6,0.2,1.2,0.4,1.8,0.4c0.9,0,1.6-0.2,2.2-0.5v-4.2
							h-2.8l-0.3-1.3h4.6v6.4c-1.1,0.7-2.4,1-3.9,1c-2,0-3.5-0.7-4.5-2.1c-0.9-1.3-1.4-2.9-1.4-5c0-2.6,0.7-4.5,2.1-5.8
							C1580.6,403.5,1581.7,403.1,1583.2,403.1z"/>
						<path class="st0" d="M1595.1,403.1c1.5,0,2.7,0.5,3.8,1.4l-0.7,1c-1-0.7-2-1-3-1c-1.7,0-2.9,0.8-3.4,2.3
							c-0.4,1-0.5,2.2-0.5,3.5c0,1.8,0.3,3.2,1,4.2c0.3,0.5,0.8,0.8,1.5,1.1c0.6,0.2,1.2,0.4,1.8,0.4c0.9,0,1.6-0.2,2.2-0.5v-4.2
							h-2.8l-0.3-1.3h4.6v6.4c-1.1,0.7-2.4,1-3.9,1c-2,0-3.5-0.7-4.5-2.1c-0.9-1.3-1.4-2.9-1.4-5c0-2.6,0.7-4.5,2.1-5.8
							C1592.5,403.5,1593.7,403.1,1595.1,403.1z"/>
						<path class="st0" d="M1602.1,416.9v-13.7h1.6v13.7H1602.1z"/>
						<path class="st0" d="M1557.8,438.2v-13.6h2.7c1.1,0,1.9,0,2.3,0.1c0.7,0.1,1.4,0.5,2.1,0.9c1.5,1.1,2.3,3,2.3,5.8
							c0,2.2-0.5,3.9-1.6,5.1c-0.6,0.7-1.3,1.1-1.9,1.4c-0.6,0.2-1.4,0.3-2.4,0.3H1557.8z M1561.1,425.9h-1.6v10.9h2
							c1.5,0,2.5-0.5,3.1-1.4c0.6-1,0.9-2.3,0.9-3.8c0-2-0.4-3.5-1.2-4.4c-0.4-0.5-0.9-0.9-1.4-1
							C1562.5,426,1561.9,425.9,1561.1,425.9z"/>
						<path class="st0" d="M1569.5,431.3c0-2,0.4-3.6,1.2-4.8c1-1.5,2.4-2.2,4.2-2.2s3.3,0.7,4.3,2.2c0.8,1.2,1.2,2.9,1.2,5.1
							c0,1.2-0.1,2.2-0.4,3c-0.3,1-0.8,1.8-1.6,2.5c-1,0.9-2.1,1.3-3.5,1.3c-1.6,0-2.9-0.6-3.9-1.7
							C1570,435.5,1569.5,433.7,1569.5,431.3z M1578,427.5c-0.6-1.3-1.6-1.9-3.1-1.9c-1.4,0-2.4,0.5-2.9,1.6
							c-0.5,0.9-0.7,2.1-0.7,3.8c0,2.2,0.3,3.8,0.9,4.7c0.3,0.5,0.7,0.8,1.2,1.1c0.6,0.3,1.1,0.4,1.7,0.4c1.8,0,2.9-0.9,3.3-2.8
							c0.1-0.6,0.2-1.5,0.2-2.6C1578.6,429.8,1578.4,428.4,1578,427.5z"/>
						<path class="st0" d="M1583.2,438.2v-13.7h3.8c1.3,0,2.3,0.2,3,0.6c1.2,0.8,1.8,1.9,1.8,3.3c0,1.4-0.4,2.4-1.3,3.3
							c-0.5,0.4-1,0.7-1.5,0.9c-0.4,0.1-1,0.2-1.8,0.2h-2.4v5.5H1583.2z M1586.5,425.9h-1.7v5.5h2.3c1,0,1.7-0.3,2.2-0.8
							c0.5-0.5,0.7-1.1,0.7-1.9c0-1.5-0.6-2.4-1.8-2.7C1587.7,425.9,1587.2,425.9,1586.5,425.9z"/>
						<path class="st0" d="M1593.7,431.3c0-2,0.4-3.6,1.2-4.8c1-1.5,2.4-2.2,4.2-2.2c1.9,0,3.3,0.7,4.3,2.2c0.8,1.2,1.2,2.9,1.2,5.1
							c0,1.2-0.1,2.2-0.4,3c-0.3,1-0.8,1.8-1.6,2.5c-1,0.9-2.1,1.3-3.5,1.3c-1.6,0-2.9-0.6-3.9-1.7
							C1594.2,435.5,1593.7,433.7,1593.7,431.3z M1602.2,427.5c-0.6-1.3-1.6-1.9-3.1-1.9c-1.4,0-2.4,0.5-2.9,1.6
							c-0.5,0.9-0.7,2.1-0.7,3.8c0,2.2,0.3,3.8,0.9,4.7c0.3,0.5,0.7,0.8,1.2,1.1c0.6,0.3,1.1,0.4,1.7,0.4c1.8,0,2.9-0.9,3.3-2.8
							c0.1-0.6,0.2-1.5,0.2-2.6C1602.8,429.8,1602.6,428.4,1602.2,427.5z"/>
					</g>
				</g>
			</g>
			<rect x="1519.7" y="392.1" class="st1" width="123.2" height="55.6"/>
		</g>
		<g>
			<g>
				<g>
					<g>
						<path class="st0" d="M1733.6,427.1v-13.6h7.5l-0.2,1.3h-5.6v4.5h4.7v1.4h-4.7v5h6v1.4H1733.6z"/>
						<path class="st0" d="M1747.4,413.1c1.5,0,2.8,0.4,4.1,1.3l-0.7,1.2c-1.2-0.8-2.3-1.2-3.3-1.2c-0.8,0-1.4,0.2-1.9,0.5
							c-0.5,0.4-0.8,1-0.8,1.7c0,1,0.8,1.8,2.3,2.2l1.6,0.5c1.1,0.4,1.9,0.8,2.4,1.4c0.6,0.7,0.9,1.5,0.9,2.4c0,1.3-0.6,2.4-1.9,3.3
							c-0.8,0.6-1.9,0.8-3.1,0.8c-1.6,0-3.1-0.4-4.4-1.2l0.7-1.3c1.1,0.8,2.3,1.2,3.7,1.2c0.9,0,1.6-0.2,2.2-0.6c0.7-0.5,1-1.1,1-2
							c0-1.2-0.8-2.1-2.5-2.6l-1.4-0.4c-1.2-0.4-2-0.8-2.4-1.2c-0.6-0.6-0.9-1.3-0.9-2.2c0-1.2,0.4-2.2,1.3-2.9
							C1745.1,413.5,1746.1,413.1,1747.4,413.1z"/>
						<path class="st0" d="M1759.4,413.2c1.3,0,2.5,0.4,3.5,1.1l-0.9,1.1c-0.8-0.6-1.7-0.8-2.6-0.8c-1.6,0-2.7,0.8-3.4,2.4
							c-0.4,0.9-0.6,2.1-0.6,3.6c0,1.2,0.1,2.2,0.4,2.9c0.7,1.7,1.9,2.5,3.7,2.5c1,0,1.9-0.3,2.7-0.9l0.9,1.1
							c-1.1,0.7-2.4,1.1-3.8,1.1c-1.8,0-3.3-0.7-4.3-2.2c-0.9-1.3-1.4-2.9-1.4-4.8c0-1.9,0.5-3.5,1.4-4.8
							C1756.2,414,1757.6,413.2,1759.4,413.2z"/>
						<path class="st0" d="M1765.1,427.1v-13.7h1.6v13.7H1765.1z"/>
					</g>
				</g>
			</g>
			<rect x="1688.5" y="392.1" class="st1" width="123.2" height="55.6"/>
		</g>
	</g>
	<g>
		<g>
			<line class="st3" x1="500.8" y1="549.8" x2="500.8" y2="452"/>
			<g>
				<path class="st5" d="M500.8,549.4c-1-1-3.1-1.5-4.5-1.6c1.9,1.4,3.6,3.3,4.5,5.5c0.9-2.3,2.7-4,4.5-5.5
					C503.8,547.9,501.9,548.3,500.8,549.4z"/>
			</g>
		</g>
	</g>
	<g>
		<g>
			<polyline class="st3" points="863.5,550.1 863.5,508.6 1199.5,508.6 1199.5,550.1 			"/>
			<g>
				<path class="st5" d="M863.5,549.7c-1-1-3.1-1.5-4.5-1.6c1.9,1.4,3.6,3.3,4.5,5.5c0.9-2.3,2.7-4,4.5-5.5
					C866.5,548.2,864.6,548.6,863.5,549.7z"/>
			</g>
			<g>
				<path class="st5" d="M1199.5,549.7c1-1,3.1-1.5,4.5-1.6c-1.9,1.4-3.6,3.3-4.5,5.5c-0.9-2.3-2.7-4-4.5-5.5
					C1196.5,548.2,1198.4,548.6,1199.5,549.7z"/>
			</g>
		</g>
	</g>
	<g>
		<g>
			<line class="st3" x1="1026.8" y1="549.8" x2="1026.8" y2="449.3"/>
			<g>
				<path class="st5" d="M1026.8,549.4c-1-1-3.1-1.5-4.5-1.6c1.9,1.4,3.6,3.3,4.5,5.5c0.9-2.3,2.7-4,4.5-5.5
					C1029.9,547.9,1028,548.3,1026.8,549.4z"/>
			</g>
		</g>
	</g>
	<g>
		<g>
			<polyline class="st3" points="1407.6,388.4 1407.6,348 1747.2,347 1747.2,387.5 			"/>
			<g>
				<path class="st5" d="M1407.6,388c-1-1-3.1-1.5-4.5-1.6c1.9,1.4,3.6,3.3,4.5,5.5c0.9-2.3,2.7-4,4.5-5.5
					C1410.6,386.6,1408.7,387,1407.6,388z"/>
			</g>
			<g>
				<path class="st5" d="M1747.2,387.1c1-1,3.1-1.5,4.5-1.6c-1.9,1.4-3.6,3.3-4.5,5.5c-0.9-2.3-2.7-4-4.5-5.5
					C1744.2,385.6,1746.1,386,1747.2,387.1z"/>
			</g>
		</g>
	</g>
	<g>
		<g>
			<line class="st3" x1="1581" y1="387.6" x2="1581" y2="257.3"/>
			<g>
				<path class="st5" d="M1581,387.2c-1-1-3.1-1.5-4.5-1.6c1.9,1.4,3.6,3.3,4.5,5.5c0.9-2.3,2.7-4,4.5-5.5
					C1584,385.8,1582.1,386.1,1581,387.2z"/>
			</g>
		</g>
	</g>
	<polyline class="st3" points="326.9,610 326.9,652.4 1197.2,652.4 1197.2,610 	"/>
	<line class="st3" x1="499.5" y1="610" x2="499.5" y2="652.4"/>
	<line class="st3" x1="678.4" y1="610" x2="678.4" y2="652.4"/>
	<line class="st3" x1="863.5" y1="610" x2="863.5" y2="652.4"/>
	<line class="st3" x1="1025.3" y1="610" x2="1025.3" y2="652.4"/>
	<g>
		<g>
			<line class="st3" x1="762.1" y1="652.4" x2="762.1" y2="693.9"/>
			<g>
				<path class="st5" d="M762.1,693.5c1-1,3.1-1.5,4.5-1.6c-1.9,1.4-3.6,3.3-4.5,5.5c-0.9-2.3-2.7-4-4.5-5.5
					C759.1,692.1,760.9,692.5,762.1,693.5z"/>
			</g>
		</g>
	</g>
	<g>
		<g>
			<line class="st3" x1="1256.8" y1="255.7" x2="1256.8" y2="390"/>
			<g>
				<path class="st5" d="M1256.8,389.6c1-1,3.1-1.5,4.5-1.6c-1.9,1.4-3.6,3.3-4.5,5.5c-0.9-2.3-2.7-4-4.5-5.5
					C1253.8,388.2,1255.7,388.5,1256.8,389.6z"/>
			</g>
		</g>
	</g>
	<g>
		<g>
			<polyline class="st3" points="1253.9,449.3 1253.9,511.1 1580.6,511.1 1580.6,456.8 			"/>
			<g>
				<path class="st5" d="M1580.6,457.2c-1,1-3.1,1.5-4.5,1.6c1.9-1.4,3.6-3.3,4.5-5.5c0.9,2.3,2.7,4,4.5,5.5
					C1583.6,458.7,1581.8,458.3,1580.6,457.2z"/>
			</g>
		</g>
	</g>
	<g>
		<g>
			<g>
				<g>
					<g>
						<path class="st0" d="M434.6,413.6c1.5,0,2.7,0.5,3.8,1.4l-0.7,1c-1-0.7-2-1-3-1c-1.7,0-2.9,0.8-3.4,2.3
							c-0.4,1-0.5,2.2-0.5,3.5c0,1.8,0.3,3.2,1,4.2c0.3,0.5,0.8,0.8,1.5,1.1c0.6,0.2,1.2,0.4,1.8,0.4c0.9,0,1.6-0.2,2.2-0.5v-4.2
							h-2.8l-0.3-1.3h4.6v6.4c-1.1,0.7-2.4,1-3.9,1c-2,0-3.5-0.7-4.5-2.1c-0.9-1.3-1.4-2.9-1.4-5c0-2.6,0.7-4.5,2.1-5.8
							C432,414,433.2,413.6,434.6,413.6z"/>
						<path class="st0" d="M441.6,427.4v-13.7h1.6v13.7H441.6z"/>
						<path class="st0" d="M446.5,423.3v-9.6h1.6v8.8c0,1,0,1.7,0.1,2.1c0.3,1.1,1.2,1.7,2.8,1.7c1.2,0,2-0.3,2.4-0.9
							c0.3-0.5,0.5-1.2,0.5-2.3v-9.3h1.6v9.5c0,0.9,0,1.5-0.1,1.8c-0.1,0.6-0.4,1.1-0.9,1.5c-0.8,0.7-2,1.1-3.6,1.1
							c-2.1,0-3.4-0.7-4.1-2C446.6,425.1,446.5,424.3,446.5,423.3z"/>
						<path class="st0" d="M458.7,427.4v-13.7h3.2c1.6,0,2.7,0.3,3.5,0.9c0.9,0.7,1.4,1.7,1.4,2.9c0,1.1-0.3,2-1,2.7
							c-0.7,0.7-1.5,1-2.6,1h-0.2c0.5,0.4,0.9,0.9,1.4,1.5l1.1,1.6l2,3h-2.1c-0.4-1-1.3-2.4-2.6-4.1c-0.4-0.5-0.6-0.8-0.7-1
							c-0.4-0.5-0.7-0.8-0.8-0.9c-0.2-0.1-0.5-0.2-0.8-0.2v6.2H458.7z M461.9,415.1h-1.6v5.1h1.5c1.2,0,2-0.2,2.5-0.7
							c0.5-0.5,0.7-1.1,0.7-2.1c0-0.4-0.1-0.9-0.4-1.2c-0.2-0.4-0.6-0.7-1-0.8C463.1,415.2,462.6,415.1,461.9,415.1z"/>
						<path class="st0" d="M469.9,427.4v-13.7h1.6v13.7H469.9z"/>
						<path class="st0" d="M478.7,413.4c1.5,0,2.8,0.4,4.1,1.3l-0.7,1.2c-1.2-0.8-2.3-1.2-3.3-1.2c-0.8,0-1.4,0.2-1.9,0.5
							c-0.5,0.4-0.8,1-0.8,1.7c0,1,0.8,1.8,2.3,2.2l1.6,0.5c1.1,0.4,1.9,0.8,2.4,1.4c0.6,0.7,0.9,1.5,0.9,2.4c0,1.3-0.6,2.4-1.9,3.3
							c-0.8,0.6-1.9,0.8-3.1,0.8c-1.6,0-3.1-0.4-4.4-1.2l0.7-1.3c1.1,0.8,2.3,1.2,3.7,1.2c0.9,0,1.6-0.2,2.2-0.6c0.7-0.5,1-1.1,1-2
							c0-1.2-0.8-2.1-2.5-2.6l-1.4-0.4c-1.2-0.4-2-0.8-2.4-1.2c-0.6-0.6-0.9-1.3-0.9-2.2c0-1.2,0.4-2.2,1.3-2.9
							C476.4,413.8,477.4,413.4,478.7,413.4z"/>
						<path class="st0" d="M485.9,427.4v-13.7h3.8c1.3,0,2.3,0.2,3,0.6c1.2,0.8,1.8,1.9,1.8,3.3c0,1.4-0.4,2.4-1.3,3.3
							c-0.5,0.4-1,0.7-1.5,0.9c-0.4,0.1-1,0.2-1.8,0.2h-2.4v5.5H485.9z M489.2,415.1h-1.7v5.5h2.3c1,0,1.7-0.3,2.2-0.8
							c0.5-0.5,0.7-1.1,0.7-1.9c0-1.5-0.6-2.4-1.8-2.7C490.4,415.2,489.9,415.1,489.2,415.1z"/>
						<path class="st0" d="M497,427.4v-13.7h3.2c1.6,0,2.7,0.3,3.5,0.9c0.9,0.7,1.4,1.7,1.4,2.9c0,1.1-0.3,2-1,2.7
							c-0.7,0.7-1.5,1-2.6,1h-0.2c0.5,0.4,0.9,0.9,1.4,1.5l1.1,1.6l2,3h-2.1c-0.4-1-1.3-2.4-2.6-4.1c-0.4-0.5-0.6-0.8-0.7-1
							c-0.4-0.5-0.7-0.8-0.8-0.9c-0.2-0.1-0.5-0.2-0.8-0.2v6.2H497z M500.3,415.1h-1.6v5.1h1.5c1.2,0,2-0.2,2.5-0.7
							c0.5-0.5,0.7-1.1,0.7-2.1c0-0.4-0.1-0.9-0.4-1.2c-0.2-0.4-0.6-0.7-1-0.8C501.5,415.2,501,415.1,500.3,415.1z"/>
						<path class="st0" d="M508,423.3v-9.6h1.6v8.8c0,1,0,1.7,0.1,2.1c0.3,1.1,1.2,1.7,2.8,1.7c1.2,0,2-0.3,2.4-0.9
							c0.3-0.5,0.5-1.2,0.5-2.3v-9.3h1.6v9.5c0,0.9,0,1.5-0.1,1.8c-0.1,0.6-0.4,1.1-0.9,1.5c-0.8,0.7-2,1.1-3.6,1.1
							c-2.1,0-3.4-0.7-4.1-2C508.1,425.1,508,424.3,508,423.3z"/>
						<path class="st0" d="M520.2,427.4v-13.6h2.7c1.1,0,1.9,0,2.3,0.1c0.7,0.1,1.4,0.5,2.1,0.9c1.5,1.1,2.3,3,2.3,5.8
							c0,2.2-0.5,3.9-1.6,5.1c-0.6,0.7-1.3,1.1-1.9,1.4c-0.6,0.2-1.4,0.3-2.4,0.3H520.2z M523.4,415.2h-1.6v10.9h2
							c1.5,0,2.5-0.5,3.1-1.4c0.6-1,0.9-2.3,0.9-3.8c0-2-0.4-3.5-1.2-4.4c-0.4-0.5-0.9-0.9-1.4-1
							C524.8,415.3,524.2,415.2,523.4,415.2z"/>
						<path class="st0" d="M532.5,427.4v-13.6h7.5l-0.2,1.3h-5.6v4.5h4.7v1.4h-4.7v5h6v1.4H532.5z"/>
						<path class="st0" d="M542.5,427.4v-13.7h1.9l4.6,8.7c0.2,0.3,0.5,1.1,1,2.2c0.1,0.1,0.1,0.3,0.3,0.7c0-0.3,0-0.6,0-0.8
							c-0.1-1.5-0.1-2.6-0.1-3.3l-0.1-7.4h1.6v13.7h-1.7l-4.4-8.4c-0.4-0.7-0.7-1.3-0.9-1.8c-0.3-0.5-0.5-1-0.6-1.4
							c0.1,1.3,0.2,2.5,0.2,3.7l0.1,7.9H542.5z"/>
						<path class="st0" d="M553.7,415.2l0.5-1.3h7.8v1.4l-6.5,10.8h1.2h5.4l-0.4,1.4h-8.1v-1.2l5.9-9.6c0.3-0.4,0.6-0.9,0.9-1.3
							h-1.4H553.7z"/>
						<path class="st0" d="M567.1,413.7h2.1l4.5,13.7h-1.9l-1.3-4.2h-5.1l-1.3,4.2h-1.7L567.1,413.7z M567.5,417.2l-1.5,4.7h4.2
							l-2.1-6.7L567.5,417.2z"/>
					</g>
				</g>
			</g>
			<rect x="409.6" y="393.2" class="st1" width="182.3" height="55.7"/>
		</g>
		<g>
			<g>
				<g>
					<path class="st0" d="M289,590l1.2-13.7h2.4l2.5,9c0.3,0.9,0.4,1.7,0.5,2.4c0.1-0.5,0.3-1.3,0.5-2.2l2.6-9.1h2.4l1.2,13.7h-1.6
						l-0.9-12.4c-0.2,0.8-0.3,1.5-0.5,2.2l-2.9,10.2h-1.4l-2.7-9.7c-0.3-1.1-0.6-2-0.7-2.7l-0.2,2.7l-0.8,9.8H289z"/>
					<path class="st0" d="M307.5,576.3h2.1l4.5,13.7h-1.9l-1.3-4.2h-5.1l-1.3,4.2h-1.7L307.5,576.3z M307.8,579.7l-1.5,4.7h4.2
						l-2.1-6.7L307.8,579.7z"/>
					<path class="st0" d="M319.6,576c1.5,0,2.8,0.4,4.1,1.3l-0.7,1.2c-1.2-0.8-2.3-1.2-3.3-1.2c-0.8,0-1.4,0.2-1.9,0.5
						c-0.5,0.4-0.8,1-0.8,1.7c0,1,0.8,1.8,2.3,2.2l1.6,0.5c1.1,0.4,1.9,0.8,2.4,1.4c0.6,0.7,0.9,1.5,0.9,2.4c0,1.3-0.6,2.4-1.9,3.3
						c-0.8,0.6-1.9,0.8-3.1,0.8c-1.6,0-3.1-0.4-4.4-1.2l0.7-1.3c1.1,0.8,2.3,1.2,3.7,1.2c0.9,0,1.6-0.2,2.2-0.6c0.7-0.5,1-1.1,1-2
						c0-1.2-0.8-2.1-2.5-2.6l-1.4-0.4c-1.2-0.4-2-0.8-2.4-1.2c-0.6-0.6-0.9-1.3-0.9-2.2c0-1.2,0.4-2.2,1.3-2.9
						C317.3,576.3,318.3,576,319.6,576z"/>
					<path class="st0" d="M330.4,576c1.5,0,2.8,0.4,4.1,1.3l-0.7,1.2c-1.2-0.8-2.3-1.2-3.3-1.2c-0.8,0-1.4,0.2-1.9,0.5
						c-0.5,0.4-0.8,1-0.8,1.7c0,1,0.8,1.8,2.3,2.2l1.6,0.5c1.1,0.4,1.9,0.8,2.4,1.4c0.6,0.7,0.9,1.5,0.9,2.4c0,1.3-0.6,2.4-1.9,3.3
						c-0.8,0.6-1.9,0.8-3.1,0.8c-1.6,0-3.1-0.4-4.4-1.2l0.7-1.3c1.1,0.8,2.3,1.2,3.7,1.2c0.9,0,1.6-0.2,2.2-0.6c0.7-0.5,1-1.1,1-2
						c0-1.2-0.8-2.1-2.5-2.6l-1.4-0.4c-1.2-0.4-2-0.8-2.4-1.2c-0.6-0.6-0.9-1.3-0.9-2.2c0-1.2,0.4-2.2,1.3-2.9
						C328.1,576.3,329.1,576,330.4,576z"/>
					<path class="st0" d="M337.6,590v-13.7h1.6V590H337.6z"/>
					<path class="st0" d="M342.2,590l1.2-13.7h2.4l2.5,9c0.3,0.9,0.4,1.7,0.5,2.4c0.1-0.5,0.3-1.3,0.5-2.2l2.6-9.1h2.4l1.2,13.7
						h-1.6l-0.9-12.4c-0.2,0.8-0.3,1.5-0.5,2.2l-2.9,10.2h-1.4l-2.7-9.7c-0.3-1.1-0.6-2-0.7-2.7l-0.2,2.7l-0.8,9.8H342.2z"/>
					<path class="st0" d="M357.8,590v-13.6h7.5l-0.2,1.3h-5.6v4.5h4.7v1.4h-4.7v5h6v1.4H357.8z"/>
				</g>
				<rect x="265.3" y="555.3" class="st1" width="123.2" height="55.6"/>
			</g>
			<g>
				<g>
					<path class="st0" d="M460.6,576c1.5,0,2.8,0.4,4.1,1.3l-0.7,1.2c-1.2-0.8-2.3-1.2-3.3-1.2c-0.8,0-1.4,0.2-1.9,0.5
						c-0.5,0.4-0.8,1-0.8,1.7c0,1,0.8,1.8,2.3,2.2l1.6,0.5c1.1,0.4,1.9,0.8,2.4,1.4c0.6,0.7,0.9,1.5,0.9,2.4c0,1.3-0.6,2.4-1.9,3.3
						c-0.8,0.6-1.9,0.8-3.1,0.8c-1.6,0-3.1-0.4-4.4-1.2l0.7-1.3c1.1,0.8,2.3,1.2,3.7,1.2c0.9,0,1.6-0.2,2.2-0.6c0.7-0.5,1-1.1,1-2
						c0-1.2-0.8-2.1-2.5-2.6l-1.4-0.4c-1.2-0.4-2-0.8-2.4-1.2c-0.6-0.6-0.9-1.3-0.9-2.2c0-1.2,0.4-2.2,1.3-2.9
						C458.3,576.3,459.3,576,460.6,576z"/>
					<path class="st0" d="M467.7,590v-13.6h7.5l-0.2,1.3h-5.6v4.5h4.7v1.4h-4.7v5h6v1.4H467.7z"/>
					<path class="st0" d="M477.7,590v-13.7h1.9l4.6,8.7c0.2,0.3,0.5,1.1,1,2.2c0.1,0.1,0.1,0.3,0.3,0.7c0-0.3,0-0.6,0-0.8
						c-0.1-1.5-0.1-2.6-0.1-3.3l-0.1-7.4h1.6V590h-1.7l-4.4-8.4c-0.4-0.7-0.7-1.3-0.9-1.8c-0.3-0.5-0.5-1-0.6-1.4
						c0.1,1.3,0.2,2.5,0.2,3.7l0.1,7.9H477.7z"/>
					<path class="st0" d="M488.7,577.7v-1.4h9.1l-0.1,1.4H494V590h-1.6v-12.3H488.7z"/>
					<path class="st0" d="M499.9,590v-13.6h7.5l-0.2,1.3h-5.6v4.5h4.7v1.4h-4.7v5h6v1.4H499.9z"/>
					<path class="st0" d="M509.9,590v-13.7h1.9l4.6,8.7c0.2,0.3,0.5,1.1,1,2.2c0.1,0.1,0.1,0.3,0.3,0.7c0-0.3,0-0.6,0-0.8
						c-0.1-1.5-0.1-2.6-0.1-3.3l-0.1-7.4h1.6V590h-1.7l-4.4-8.4c-0.4-0.7-0.7-1.3-0.9-1.8c-0.3-0.5-0.5-1-0.6-1.4
						c0.1,1.3,0.2,2.5,0.2,3.7l0.1,7.9H509.9z"/>
					<path class="st0" d="M521.2,577.8l0.5-1.3h7.8v1.4l-6.5,10.8h1.2h5.4l-0.4,1.4H521v-1.2l5.9-9.6c0.3-0.4,0.6-0.9,0.9-1.3h-1.4
						H521.2z"/>
					<path class="st0" d="M531.7,590v-13.6h7.5l-0.2,1.3h-5.6v4.5h4.7v1.4h-4.7v5h6v1.4H531.7z"/>
				</g>
				<rect x="435.9" y="555.3" class="st1" width="123.2" height="55.6"/>
			</g>
			<g>
				<rect x="606.5" y="554.9" class="st3" width="143.8" height="56"/>
				<g>
					<path class="st0" d="M613.5,572.9c0-2,0.4-3.6,1.2-4.8c1-1.5,2.4-2.2,4.2-2.2c1.9,0,3.3,0.7,4.3,2.2c0.8,1.2,1.2,2.9,1.2,5.1
						c0,1.2-0.1,2.2-0.4,3c-0.3,1-0.8,1.8-1.6,2.5c-1,0.9-2.1,1.3-3.5,1.3c-1.6,0-2.9-0.6-3.9-1.7C614,577,613.5,575.2,613.5,572.9z
						 M622,569c-0.6-1.3-1.6-1.9-3.1-1.9c-1.4,0-2.4,0.5-2.9,1.6c-0.5,0.9-0.7,2.1-0.7,3.8c0,2.2,0.3,3.8,0.9,4.8
						c0.3,0.5,0.7,0.8,1.2,1.1c0.6,0.3,1.1,0.4,1.7,0.4c1.8,0,2.9-0.9,3.3-2.8c0.1-0.6,0.2-1.5,0.2-2.6
						C622.6,571.4,622.4,569.9,622,569z"/>
					<path class="st0" d="M627.2,579.8v-13.7h3.2c1.6,0,2.7,0.3,3.5,0.9c0.9,0.7,1.4,1.7,1.4,2.9c0,1.1-0.3,2-1,2.7
						c-0.7,0.7-1.5,1-2.6,1h-0.2c0.5,0.4,0.9,0.9,1.4,1.5l1.1,1.6l2,3h-2.1c-0.4-1-1.3-2.4-2.6-4.1c-0.4-0.5-0.6-0.8-0.7-1
						c-0.4-0.5-0.7-0.8-0.9-0.9s-0.5-0.2-0.8-0.2v6.2H627.2z M630.4,567.5h-1.6v5.1h1.5c1.2,0,2-0.2,2.5-0.7
						c0.5-0.5,0.7-1.2,0.7-2.1c0-0.4-0.1-0.9-0.4-1.3c-0.2-0.4-0.6-0.7-1-0.8C631.7,567.5,631.1,567.5,630.4,567.5z"/>
					<path class="st0" d="M638.5,579.8v-13.7h1.6v13.7H638.5z"/>
					<path class="st0" d="M643.6,579.8v-13.6h7.5l-0.2,1.3h-5.6v4.5h4.7v1.4h-4.7v5h6v1.4H643.6z"/>
					<path class="st0" d="M653.7,579.8v-13.7h1.9l4.6,8.7c0.2,0.3,0.5,1.1,1,2.2c0.1,0.1,0.1,0.3,0.3,0.7c0-0.3,0-0.6,0-0.8
						c-0.1-1.5-0.1-2.6-0.1-3.3l-0.1-7.4h1.6v13.7h-1.7l-4.4-8.4c-0.4-0.7-0.7-1.3-0.9-1.8s-0.5-1-0.6-1.4c0.1,1.3,0.2,2.5,0.2,3.7
						l0.1,7.9H653.7z"/>
					<path class="st0" d="M664.7,567.4v-1.4h9.1l-0.1,1.4H670v12.3h-1.6v-12.3H664.7z"/>
					<path class="st0" d="M678.8,566.1h2.1l4.5,13.7h-1.9l-1.3-4.2h-5.1l-1.3,4.2h-1.7L678.8,566.1z M679.1,569.5l-1.5,4.7h4.2
						l-2.1-6.7L679.1,569.5z"/>
					<path class="st0" d="M686.7,579.8l1.2-13.7h2.4l2.5,9c0.3,0.9,0.4,1.7,0.5,2.4c0.1-0.5,0.3-1.3,0.5-2.2l2.6-9.1h2.4l1.2,13.7
						h-1.6l-0.9-12.4c-0.2,0.8-0.3,1.5-0.5,2.2l-2.9,10.2h-1.4l-2.7-9.7c-0.3-1.1-0.6-2-0.7-2.7L689,570l-0.8,9.8H686.7z"/>
					<path class="st0" d="M702.4,579.8v-13.6h7.5l-0.2,1.3h-5.6v4.5h4.7v1.4h-4.7v5h6v1.4H702.4z"/>
					<path class="st0" d="M712.4,579.8v-13.7h1.9l4.6,8.7c0.2,0.3,0.5,1.1,1,2.2c0.1,0.1,0.1,0.3,0.3,0.7c0-0.3,0-0.6,0-0.8
						c-0.1-1.5-0.1-2.6-0.1-3.3l-0.1-7.4h1.6v13.7h-1.7l-4.4-8.4c-0.4-0.7-0.7-1.3-0.9-1.8s-0.5-1-0.6-1.4c0.1,1.3,0.2,2.5,0.2,3.7
						l0.1,7.9H712.4z"/>
					<path class="st0" d="M723.5,567.4v-1.4h9.1l-0.1,1.4h-3.7v12.3h-1.6v-12.3H723.5z"/>
					<path class="st0" d="M734,572.9c0-2,0.4-3.6,1.2-4.8c1-1.5,2.4-2.2,4.2-2.2c1.9,0,3.3,0.7,4.3,2.2c0.8,1.2,1.2,2.9,1.2,5.1
						c0,1.2-0.1,2.2-0.4,3c-0.3,1-0.8,1.8-1.6,2.5c-1,0.9-2.1,1.3-3.5,1.3c-1.6,0-2.9-0.6-3.9-1.7C734.6,577,734,575.2,734,572.9z
						 M742.6,569c-0.6-1.3-1.6-1.9-3.1-1.9c-1.4,0-2.4,0.5-2.9,1.6c-0.5,0.9-0.7,2.1-0.7,3.8c0,2.2,0.3,3.8,0.9,4.8
						c0.3,0.5,0.7,0.8,1.2,1.1c0.6,0.3,1.1,0.4,1.7,0.4c1.8,0,2.9-0.9,3.3-2.8c0.1-0.6,0.2-1.5,0.2-2.6
						C743.2,571.4,743,569.9,742.6,569z"/>
					<path class="st0" d="M649.3,601.8v-13.7h1.6v12.3h5.4l-0.2,1.4H649.3z"/>
					<path class="st0" d="M657.8,594.9c0-2,0.4-3.6,1.2-4.8c1-1.5,2.4-2.2,4.2-2.2c1.9,0,3.3,0.7,4.3,2.2c0.8,1.2,1.2,2.9,1.2,5.1
						c0,1.2-0.1,2.2-0.4,3c-0.3,1-0.8,1.8-1.6,2.5c-1,0.9-2.1,1.3-3.5,1.3c-1.6,0-2.9-0.6-3.9-1.7
						C658.3,599,657.8,597.2,657.8,594.9z M666.3,591c-0.6-1.3-1.6-1.9-3.1-1.9c-1.4,0-2.4,0.5-2.9,1.6c-0.5,0.9-0.7,2.1-0.7,3.8
						c0,2.2,0.3,3.8,0.9,4.8c0.3,0.5,0.7,0.8,1.2,1.1c0.6,0.3,1.1,0.4,1.7,0.4c1.8,0,2.9-0.9,3.3-2.8c0.1-0.6,0.2-1.5,0.2-2.6
						C667,593.4,666.7,591.9,666.3,591z"/>
					<path class="st0" d="M676.4,587.9c1.3,0,2.5,0.4,3.5,1.1l-0.9,1.1c-0.8-0.6-1.7-0.8-2.6-0.8c-1.6,0-2.7,0.8-3.4,2.4
						c-0.4,0.9-0.6,2.1-0.6,3.6c0,1.2,0.1,2.2,0.4,2.9c0.7,1.7,1.9,2.5,3.7,2.5c1,0,1.9-0.3,2.7-0.9l0.9,1.1
						c-1.1,0.7-2.4,1.1-3.8,1.1c-1.8,0-3.3-0.7-4.3-2.2c-0.9-1.3-1.4-2.9-1.4-4.8c0-1.9,0.5-3.5,1.4-4.8
						C673.2,588.6,674.6,587.9,676.4,587.9z"/>
					<path class="st0" d="M684.9,588.1h2.1l4.5,13.7h-1.9l-1.3-4.2h-5.1l-1.3,4.2h-1.7L684.9,588.1z M685.2,591.5l-1.5,4.7h4.2
						l-2.1-6.7L685.2,591.5z"/>
					<path class="st0" d="M693.3,601.8v-13.7h1.6v12.3h5.4l-0.2,1.4H693.3z"/>
					<path class="st0" d="M702.4,601.8v-13.6h7.5l-0.2,1.3h-5.6v4.5h4.7v1.4h-4.7v5h6v1.4H702.4z"/>
				</g>
			</g>
		</g>
	</g>
</g>
<g>
	<path class="st6" d="M14.7,225l3.4-2.3h1.2v8.9h1.8v1.3H16v-1.3h1.8v-7c-0.4,0.2-0.8,0.5-1.3,0.7c-0.1,0.1-0.6,0.3-1.4,0.6
		L14.7,225z"/>
	<path class="st6" d="M22.4,222.4c0-1,0.3-1.9,0.8-2.5c0.5-0.6,1.3-0.9,2.4-0.9c1.1,0,2,0.4,2.6,1.1c0.5,0.6,0.7,1.4,0.7,2.4
		c0,1-0.3,1.8-0.9,2.4c-0.6,0.6-1.4,0.9-2.4,0.9c-1,0-1.8-0.3-2.4-0.9S22.4,223.5,22.4,222.4z M26.6,220.4c-0.3-0.2-0.7-0.3-1.1-0.3
		c-0.7,0-1.2,0.2-1.5,0.6c-0.2,0.3-0.4,0.8-0.4,1.5c0,0.9,0.1,1.5,0.5,1.9c0.3,0.4,0.8,0.6,1.5,0.6c0.8,0,1.3-0.3,1.6-0.9
		c0.2-0.4,0.2-0.8,0.2-1.3C27.5,221.5,27.2,220.7,26.6,220.4z"/>
	<path class="st6" d="M37.6,232.9v-13.7h1.6v12.3h5.4l-0.2,1.4H37.6z"/>
	<path class="st6" d="M46.8,232.9v-13.7h1.6v13.7H46.8z"/>
	<path class="st6" d="M55,232.9l-4.6-13.7h1.8l2.9,8.8c0.4,1.2,0.7,2.2,0.8,3.1c0.1-0.7,0.4-1.6,0.8-2.9l2.9-9h1.7l-4.7,13.7H55z"/>
	<path class="st6" d="M63.2,232.9v-13.6h7.5l-0.2,1.3h-5.6v4.5h4.7v1.4h-4.7v5h6v1.4H63.2z"/>
	<path class="st6" d="M73.3,232.9v-13.7H75v12.3h5.4l-0.2,1.4H73.3z"/>
	<path class="st6" d="M82.5,232.9v-13.7h1.6v12.3h5.4l-0.2,1.4H82.5z"/>
	<path class="st6" d="M90.9,225.9c0-2,0.4-3.6,1.2-4.8c1-1.5,2.4-2.2,4.2-2.2c1.9,0,3.3,0.7,4.3,2.2c0.8,1.2,1.2,2.9,1.2,5.1
		c0,1.2-0.1,2.2-0.4,3c-0.3,1-0.8,1.8-1.6,2.5c-1,0.9-2.1,1.3-3.5,1.3c-1.6,0-2.9-0.6-3.9-1.7C91.5,230.1,90.9,228.3,90.9,225.9z
		 M99.4,222.1c-0.6-1.3-1.6-1.9-3.1-1.9c-1.4,0-2.4,0.5-2.9,1.6c-0.5,0.9-0.7,2.1-0.7,3.8c0,2.2,0.3,3.8,0.9,4.8
		c0.3,0.5,0.7,0.8,1.2,1.1c0.6,0.3,1.1,0.4,1.7,0.4c1.8,0,2.9-0.9,3.3-2.8c0.1-0.6,0.2-1.5,0.2-2.6C100.1,224.5,99.9,223,99.4,222.1
		z"/>
</g>
<g>
	<path class="st6" d="M17.7,424.5h4.2l-0.3,1.3H14v-1.3c0.2-0.1,0.3-0.2,0.5-0.4c0.2-0.2,0.5-0.4,0.9-0.7l2.7-2.3
		c0.7-0.6,1.2-1.3,1.4-1.9c0.1-0.2,0.1-0.4,0.1-0.8c0-1.2-0.7-1.7-2.1-1.7c-0.9,0-1.9,0.4-3,1.2l-0.1,0.1l-0.6-0.8
		c1.4-1.2,2.8-1.9,4.2-1.9c1,0,1.8,0.2,2.5,0.7c0.7,0.5,1.1,1.3,1.1,2.2c0,0.9-0.5,1.9-1.4,2.9c-0.5,0.5-1.4,1.2-2.6,2.1l-1.8,1.3
		c0.2,0,0.6,0,1,0C17.1,424.5,17.5,424.5,17.7,424.5z"/>
	<path class="st6" d="M23.7,415.4c0-1,0.3-1.9,0.8-2.5c0.5-0.6,1.3-0.9,2.4-0.9c1.1,0,2,0.4,2.6,1.1c0.5,0.6,0.7,1.4,0.7,2.4
		s-0.3,1.8-0.9,2.4s-1.4,0.9-2.4,0.9c-1,0-1.8-0.3-2.4-0.9S23.7,416.4,23.7,415.4z M27.9,413.3c-0.3-0.2-0.7-0.3-1.1-0.3
		c-0.7,0-1.2,0.2-1.5,0.6c-0.2,0.3-0.4,0.8-0.4,1.5c0,0.9,0.1,1.5,0.5,1.9c0.3,0.4,0.8,0.6,1.5,0.6c0.8,0,1.3-0.3,1.6-0.9
		c0.2-0.4,0.2-0.8,0.2-1.3C28.8,414.4,28.5,413.7,27.9,413.3z"/>
	<path class="st6" d="M38.9,425.8v-13.7h1.6v12.3h5.4l-0.2,1.4H38.9z"/>
	<path class="st6" d="M48.1,425.8v-13.7h1.6v13.7H48.1z"/>
	<path class="st6" d="M56.3,425.8l-4.6-13.7h1.8l2.9,8.8c0.4,1.2,0.7,2.2,0.8,3.1c0.1-0.7,0.4-1.6,0.8-2.9l2.9-9h1.7l-4.7,13.7H56.3
		z"/>
	<path class="st6" d="M64.5,425.8v-13.6H72l-0.2,1.3h-5.6v4.5h4.7v1.4h-4.7v5h6v1.4H64.5z"/>
	<path class="st6" d="M74.6,425.8v-13.7h1.6v12.3h5.4l-0.2,1.4H74.6z"/>
	<path class="st6" d="M83.8,425.8v-13.7h1.6v12.3h5.4l-0.2,1.4H83.8z"/>
	<path class="st6" d="M92.2,418.9c0-2,0.4-3.6,1.2-4.8c1-1.5,2.4-2.2,4.2-2.2c1.9,0,3.3,0.7,4.3,2.2c0.8,1.2,1.2,2.9,1.2,5.1
		c0,1.2-0.1,2.2-0.4,3c-0.3,1-0.8,1.8-1.6,2.5c-1,0.9-2.1,1.3-3.5,1.3c-1.6,0-2.9-0.6-3.9-1.7C92.8,423.1,92.2,421.2,92.2,418.9z
		 M100.7,415c-0.6-1.3-1.6-1.9-3.1-1.9c-1.4,0-2.4,0.5-2.9,1.6c-0.5,0.9-0.7,2.1-0.7,3.8c0,2.2,0.3,3.8,0.9,4.8
		c0.3,0.5,0.7,0.8,1.2,1.1c0.6,0.3,1.1,0.4,1.7,0.4c1.8,0,2.9-0.9,3.3-2.8c0.1-0.6,0.2-1.5,0.2-2.6C101.4,417.4,101.2,416,100.7,415
		z"/>
</g>
<g>
	<path class="st6" d="M16,583.2h-0.2v-1.1h1.8l0.6-0.1c0.6-0.1,1-0.4,1.3-0.9c0.2-0.3,0.3-0.7,0.3-1.2c0-0.7-0.2-1.2-0.7-1.6
		c-0.5-0.4-1-0.6-1.7-0.6c-0.7,0-1.3,0.1-1.9,0.4l-1.2,0.7l-0.7-0.8c0.8-0.7,1.7-1.2,2.7-1.5c0.5-0.1,0.9-0.2,1.4-0.2
		c1.1,0,1.9,0.3,2.6,0.8c0.8,0.6,1.2,1.4,1.2,2.4c0,1.5-0.8,2.5-2.4,3l0.2,0c0.3,0.1,0.5,0.2,0.9,0.3c0.2,0.1,0.3,0.2,0.5,0.3
		c0.8,0.6,1.2,1.4,1.2,2.4c0,1.3-0.6,2.4-1.9,3.3c-0.4,0.3-0.8,0.5-1.2,0.7c-1,0.4-2.2,0.6-3.7,0.6h-0.3c-0.2,0-0.4,0-0.7-0.1
		l-0.4-1.1c0.2,0,0.5,0,1,0.1c1.9,0,3.3-0.4,4.3-1.4c0.4-0.4,0.7-0.9,0.9-1.4c0.1-0.4,0.2-0.7,0.2-1c0-1.5-0.8-2.3-2.5-2.4
		C17.2,583.2,16.7,583.2,16,583.2z"/>
	<path class="st6" d="M23.7,576.4c0-1,0.3-1.9,0.8-2.5c0.5-0.6,1.3-0.9,2.4-0.9c1.1,0,2,0.4,2.6,1.1c0.5,0.6,0.7,1.4,0.7,2.4
		s-0.3,1.8-0.9,2.4s-1.4,0.9-2.4,0.9c-1,0-1.8-0.3-2.4-0.9S23.7,577.4,23.7,576.4z M27.9,574.4c-0.3-0.2-0.7-0.3-1.1-0.3
		c-0.7,0-1.2,0.2-1.5,0.6c-0.2,0.3-0.4,0.8-0.4,1.5c0,0.9,0.1,1.5,0.5,1.9c0.3,0.4,0.8,0.6,1.5,0.6c0.8,0,1.3-0.3,1.6-0.9
		c0.2-0.4,0.2-0.8,0.2-1.3C28.8,575.4,28.5,574.7,27.9,574.4z"/>
	<path class="st6" d="M38.9,586.8v-13.7h1.6v12.3h5.4l-0.2,1.4H38.9z"/>
	<path class="st6" d="M48.1,586.8v-13.7h1.6v13.7H48.1z"/>
	<path class="st6" d="M56.3,586.8l-4.6-13.7h1.8l2.9,8.8c0.4,1.2,0.7,2.2,0.8,3.1c0.1-0.7,0.4-1.6,0.8-2.9l2.9-9h1.7l-4.7,13.7H56.3
		z"/>
	<path class="st6" d="M64.5,586.8v-13.6H72l-0.2,1.3h-5.6v4.5h4.7v1.4h-4.7v5h6v1.4H64.5z"/>
	<path class="st6" d="M74.6,586.8v-13.7h1.6v12.3h5.4l-0.2,1.4H74.6z"/>
	<path class="st6" d="M83.8,586.8v-13.7h1.6v12.3h5.4l-0.2,1.4H83.8z"/>
	<path class="st6" d="M92.2,579.9c0-2,0.4-3.6,1.2-4.8c1-1.5,2.4-2.2,4.2-2.2c1.9,0,3.3,0.7,4.3,2.2c0.8,1.2,1.2,2.9,1.2,5.1
		c0,1.2-0.1,2.2-0.4,3c-0.3,1-0.8,1.8-1.6,2.5c-1,0.9-2.1,1.3-3.5,1.3c-1.6,0-2.9-0.6-3.9-1.7C92.8,584.1,92.2,582.3,92.2,579.9z
		 M100.7,576.1c-0.6-1.3-1.6-1.9-3.1-1.9c-1.4,0-2.4,0.5-2.9,1.6c-0.5,0.9-0.7,2.1-0.7,3.8c0,2.2,0.3,3.8,0.9,4.8
		c0.3,0.5,0.7,0.8,1.2,1.1c0.6,0.3,1.1,0.4,1.7,0.4c1.8,0,2.9-0.9,3.3-2.8c0.1-0.6,0.2-1.5,0.2-2.6
		C101.4,578.4,101.2,577,100.7,576.1z"/>
</g>
<g>
	<path class="st6" d="M13.3,730.1l4.6-9h1.7l-3.8,7.5c-0.1,0.2-0.3,0.5-0.6,1.1c-0.1,0.2-0.2,0.3-0.3,0.5c0.3,0,0.6,0,0.8,0h3.6
		v-0.6l0-1.8l0.2-2.8l1.2-0.4v5.6h0.7h1v1.2h-1.1h-0.5v0.6v2.9l-1.5,0.5v-4h-0.8h-5.2V730.1z"/>
	<path class="st6" d="M23.7,721.1c0-1,0.3-1.9,0.8-2.5c0.5-0.6,1.3-0.9,2.4-0.9c1.1,0,2,0.4,2.6,1.1c0.5,0.6,0.7,1.4,0.7,2.4
		s-0.3,1.8-0.9,2.4s-1.4,0.9-2.4,0.9c-1,0-1.8-0.3-2.4-0.9S23.7,722.1,23.7,721.1z M27.9,719c-0.3-0.2-0.7-0.3-1.1-0.3
		c-0.7,0-1.2,0.2-1.5,0.6c-0.2,0.3-0.4,0.8-0.4,1.5c0,0.9,0.1,1.5,0.5,1.9c0.3,0.4,0.8,0.6,1.5,0.6c0.8,0,1.3-0.3,1.6-0.9
		c0.2-0.4,0.2-0.8,0.2-1.3C28.8,720.1,28.5,719.4,27.9,719z"/>
	<path class="st6" d="M38.9,731.5v-13.7h1.6v12.3h5.4l-0.2,1.4H38.9z"/>
	<path class="st6" d="M48.1,731.5v-13.7h1.6v13.7H48.1z"/>
	<path class="st6" d="M56.3,731.5l-4.6-13.7h1.8l2.9,8.8c0.4,1.2,0.7,2.2,0.8,3.1c0.1-0.7,0.4-1.6,0.8-2.9l2.9-9h1.7l-4.7,13.7H56.3
		z"/>
	<path class="st6" d="M64.5,731.5v-13.6H72l-0.2,1.3h-5.6v4.5h4.7v1.4h-4.7v5h6v1.4H64.5z"/>
	<path class="st6" d="M74.6,731.5v-13.7h1.6v12.3h5.4l-0.2,1.4H74.6z"/>
	<path class="st6" d="M83.8,731.5v-13.7h1.6v12.3h5.4l-0.2,1.4H83.8z"/>
	<path class="st6" d="M92.2,724.5c0-2,0.4-3.6,1.2-4.8c1-1.5,2.4-2.2,4.2-2.2c1.9,0,3.3,0.7,4.3,2.2c0.8,1.2,1.2,2.9,1.2,5.1
		c0,1.2-0.1,2.2-0.4,3c-0.3,1-0.8,1.8-1.6,2.5c-1,0.9-2.1,1.3-3.5,1.3c-1.6,0-2.9-0.6-3.9-1.7C92.8,728.7,92.2,726.9,92.2,724.5z
		 M100.7,720.7c-0.6-1.3-1.6-1.9-3.1-1.9c-1.4,0-2.4,0.5-2.9,1.6c-0.5,0.9-0.7,2.1-0.7,3.8c0,2.2,0.3,3.8,0.9,4.8
		c0.3,0.5,0.7,0.8,1.2,1.1c0.6,0.3,1.1,0.4,1.7,0.4c1.8,0,2.9-0.9,3.3-2.8c0.1-0.6,0.2-1.5,0.2-2.6
		C101.4,723.1,101.2,721.6,100.7,720.7z"/>
</g>
<line class="st7" x1="121.2" y1="225.7" x2="509.1" y2="225.7"/>
<line class="st7" x1="121.2" y1="418.4" x2="389.6" y2="418.4"/>
<line class="st7" x1="121.2" y1="581.6" x2="245.4" y2="581.6"/>
<line class="st7" x1="121.2" y1="724.5" x2="647.5" y2="724.5"/>
</svg>
