<svg id="Livello_1" data-name="Livello 1" xmlns="http://www.w3.org/2000/svg" xmlns:xlink="http://www.w3.org/1999/xlink" viewBox="0 0 259.57 179.83">
  <defs>
    <style>
      .cls-1, .cls-17, .cls-18, .cls-7 {
        fill: #fff;
      }

      .cls-2 {
        fill: none;
      }

      .cls-21, .cls-3 {
        fill: #b88989;
      }

      .cls-13, .cls-14, .cls-19, .cls-4, .cls-6 {
        fill: #0e0303;
      }

      .cls-4, .cls-6, .cls-9 {
        fill-opacity: 0.87;
      }

      .cls-19, .cls-21, .cls-4, .cls-7 {
        fill-rule: evenodd;
      }

      .cls-5 {
        clip-path: url(#clip-path);
      }

      .cls-13, .cls-8 {
        opacity: 0.87;
      }

      .cls-10 {
        mask: url(#mask);
      }

      .cls-11 {
        mask: url(#mask-2);
      }

      .cls-12 {
        fill: #f2e8e7;
      }

      .cls-15, .cls-17, .cls-18 {
        font-size: 7.6px;
      }

      .cls-15, .cls-16 {
        fill: #895150;
      }

      .cls-15, .cls-17 {
        font-family: Roboto-Bold, Roboto;
        font-weight: 700;
      }

      .cls-18 {
        font-family: Roboto-Medium, Roboto;
        font-weight: 500;
      }

      .cls-20 {
        fill: #393939;
      }
    </style>
    <clipPath id="clip-path" transform="translate(-17.09 -20.56)">
      <rect class="cls-2" x="223.2" y="46.75" width="22.14" height="22.14"/>
    </clipPath>
    <mask id="mask" x="2.12" y="163.93" width="12.31" height="12.31" maskUnits="userSpaceOnUse">
      <g transform="translate(-17.09 -20.56)">
        <g id="path-30-inside-1">
          <path class="cls-1" d="M25.79,185.47a4.91,4.91,0,0,1,0,9.82,4.61,4.61,0,0,1-2.81-.94l-.19-.14-.22.09-1.32.57.63-1.26.11-.23-.14-.21a5,5,0,0,1-.85-2.79A4.86,4.86,0,0,1,25.79,185.47Zm0-.43a5.27,5.27,0,0,0-5.21,5.34,5.43,5.43,0,0,0,.93,3l-1.15,2.3,2.37-1a5,5,0,0,0,3.06,1,5.34,5.34,0,0,0,0-10.68Z"/>
        </g>
      </g>
    </mask>
    <mask id="mask-2" x="51.81" y="160.98" width="10.19" height="12.18" maskUnits="userSpaceOnUse">
      <g transform="translate(-17.09 -20.56)">
        <g id="path-42-inside-2">
          <path class="cls-1" d="M74.3,182.79c2.21,0,3.55,1.38,3.55,3.18,0,2.9-3.91,3.62-3.49,6.5h-.82c-.51-3.09,3.39-4,3.39-6.42a2.38,2.38,0,0,0-2.69-2.43,4.05,4.05,0,0,0-3,1.33l-.59-.56A4.88,4.88,0,0,1,74.3,182.79Zm0-.48a5.38,5.38,0,0,0-4,1.73l-.35.36.36.35.6.56.34.32.33-.34a3.61,3.61,0,0,1,2.63-1.18c1.39,0,2.21.72,2.21,1.94,0,.91-.69,1.58-1.48,2.37-1,1-2.22,2.19-1.9,4.14l.07.4h1.78l-.08-.56c-.18-1.23.61-2,1.53-2.9a4.94,4.94,0,0,0,2-3.53A3.7,3.7,0,0,0,74.3,182.31Z"/>
        </g>
      </g>
    </mask>
  </defs>
  <g>
    <line class="cls-3" y1="62.51" x2="259.57" y2="62.51"/>
    <rect class="cls-3" y="62.13" width="259.57" height="0.76"/>
  </g>
  <g>
    <line class="cls-3" y1="119.47" x2="259.57" y2="119.47"/>
    <rect class="cls-3" y="119.09" width="259.57" height="0.76"/>
  </g>
  <g>
    <path class="cls-4" d="M214.23,47.52H192.09v19h0V74l4.58-4.35h17.56Z" transform="translate(-17.09 -20.56)"/>
    <path class="cls-1" d="M197.63,58.92a1.11,1.11,0,1,1,1.1,1.1A1.08,1.08,0,0,1,197.63,58.92Z" transform="translate(-17.09 -20.56)"/>
    <path class="cls-1" d="M201.86,58.92A1.11,1.11,0,1,1,203,60,1.08,1.08,0,0,1,201.86,58.92Z" transform="translate(-17.09 -20.56)"/>
    <path class="cls-1" d="M206.1,58.92a1.1,1.1,0,1,1,1.1,1.1A1.08,1.08,0,0,1,206.1,58.92Z" transform="translate(-17.09 -20.56)"/>
  </g>
  <g class="cls-5">
    <g>
      <rect class="cls-6" x="206.11" y="26.18" width="22.14" height="22.14"/>
      <path class="cls-1" d="M228.92,56.31l4.91-4.64a.64.64,0,0,1,.89,0l4.9,4.64a.56.56,0,0,1,0,.84.66.66,0,0,1-.89,0l-3.9-3.69V64a.56.56,0,0,1-1.11,0V53.46l-3.91,3.69a.62.62,0,0,1-.44.18.63.63,0,0,1-.45-.18A.58.58,0,0,1,228.92,56.31Z" transform="translate(-17.09 -20.56)"/>
    </g>
  </g>
  <g>
    <g>
      <rect class="cls-6" x="236.83" y="26.18" width="22.14" height="22.14"/>
      <path class="cls-7" d="M270.52,54a.7.7,0,0,0-.8-.6l-3,.43h-3.47l-3-.42a.71.71,0,0,0-.8.6.7.7,0,0,0,.6.8l2.94.41v4.41l-1.24,4.58a.85.85,0,1,0,1.64.44l1.33-4.92v0h.46v0l1.33,4.92a.85.85,0,1,0,1.64-.44L267,59.67h0V55.18l2.94-.42A.71.71,0,0,0,270.52,54Z" transform="translate(-17.09 -20.56)"/>
    </g>
    <ellipse class="cls-1" cx="247.9" cy="31.31" rx="1.19" ry="1.18"/>
  </g>
  <g>
    <path class="cls-8" d="M225.47,171.49a.23.23,0,0,1-.23-.16l-2.09-5.83a.25.25,0,0,1,.14-.31l2.46-1.06a.21.21,0,0,1,.19,0,.25.25,0,0,1,.13.14l2.08,5.83a.25.25,0,0,1-.08.27.22.22,0,0,1-.27,0l-1.48-.84-.63,1.78a.22.22,0,0,1-.22.16Zm-1.79-5.94,1.78,5,.5-1.42a.22.22,0,0,1,.14-.14.26.26,0,0,1,.21,0l1.16.67-1.77-5Z" transform="translate(-17.09 -20.56)"/>
    <path class="cls-8" d="M222.05,171.49h0a.25.25,0,0,1-.23-.16l-.62-1.78-1.48.84a.24.24,0,0,1-.28,0,.24.24,0,0,1-.07-.27l2.08-5.83a.25.25,0,0,1,.13-.14.21.21,0,0,1,.19,0l2.46,1.06a.25.25,0,0,1,.13.31l-2.08,5.83A.25.25,0,0,1,222.05,171.49Zm-.72-2.54.08,0a.23.23,0,0,1,.15.14l.49,1.42,1.78-5-2-.88-1.77,5,1.17-.67Z" transform="translate(-17.09 -20.56)"/>
    <g>
      <path class="cls-1" d="M229.45,161.79c0,.42-.68.76-.76,1.15s.36,1,.19,1.35-.92.38-1.17.7-.1,1-.41,1.3-1-.06-1.36.12-.53.91-.92,1-.86-.5-1.27-.5-.88.58-1.27.5-.57-.83-.92-1-1.05.14-1.36-.12-.16-1-.41-1.3-1-.33-1.17-.7.28-1,.19-1.35-.76-.73-.76-1.15.68-.75.76-1.14-.37-1-.19-1.36.92-.37,1.17-.69.1-1,.41-1.31,1,.07,1.36-.11.54-.91.93-1,.86.49,1.27.49.87-.58,1.27-.5.57.83.92,1,1-.13,1.36.12.15,1,.4,1.31,1,.33,1.18.69-.28,1-.2,1.36S229.45,161.38,229.45,161.79Z" transform="translate(-17.09 -20.56)"/>
      <path class="cls-8" d="M224.94,167.66a1.42,1.42,0,0,1-.71-.29,1.12,1.12,0,0,0-.48-.22,1.09,1.09,0,0,0-.47.22,1.17,1.17,0,0,1-.85.27c-.32-.07-.5-.37-.67-.63a1.2,1.2,0,0,0-.31-.39,1.39,1.39,0,0,0-.51,0,.89.89,0,0,1-1.21-1,1.31,1.31,0,0,0-.13-.51,1.25,1.25,0,0,0-.45-.23,1.21,1.21,0,0,1-.75-.5,1.18,1.18,0,0,1,.07-.9,1.23,1.23,0,0,0,.11-.51,1.4,1.4,0,0,0-.31-.4.92.92,0,0,1,0-1.59,1.4,1.4,0,0,0,.31-.4,1.17,1.17,0,0,0-.11-.53,1.18,1.18,0,0,1-.07-.88c.13-.29.46-.4.75-.51a1,1,0,0,0,.45-.23,1.21,1.21,0,0,0,.13-.5,1.19,1.19,0,0,1,.32-.85,1.27,1.27,0,0,1,.9-.13,1.07,1.07,0,0,0,.51,0,1.21,1.21,0,0,0,.32-.39c.16-.26.35-.56.66-.62a1.1,1.1,0,0,1,.85.27,1.24,1.24,0,0,0,.47.21,1.14,1.14,0,0,0,.47-.22,1.16,1.16,0,0,1,.85-.27c.32.07.5.37.67.63a1.08,1.08,0,0,0,.31.39,1.21,1.21,0,0,0,.51,0,1.2,1.2,0,0,1,.89.14,1.23,1.23,0,0,1,.32.84,1.22,1.22,0,0,0,.12.5,1,1,0,0,0,.46.23,1.25,1.25,0,0,1,.75.51,1.23,1.23,0,0,1-.08.9,1.2,1.2,0,0,0-.1.51,1.05,1.05,0,0,0,.31.41,1.23,1.23,0,0,1,.45.78,1.27,1.27,0,0,1-.46.8,1.27,1.27,0,0,0-.31.4,1.11,1.11,0,0,0,.11.52,1.26,1.26,0,0,1,.07.89,1.21,1.21,0,0,1-.75.5,1.25,1.25,0,0,0-.45.23,1.31,1.31,0,0,0-.13.51,1.2,1.2,0,0,1-.32.84,1.15,1.15,0,0,1-.89.13,1.2,1.2,0,0,0-.51,0c-.11,0-.22.24-.32.4s-.35.55-.66.62Zm-3.69-1.55a.91.91,0,0,1,.41.08,1.39,1.39,0,0,1,.51.56c.11.19.25.39.37.42A1,1,0,0,0,223,167a1.41,1.41,0,0,1,.73-.3,1.57,1.57,0,0,1,.74.3c.17.11.37.24.48.21s.24-.23.35-.41a1.44,1.44,0,0,1,.52-.57,1.53,1.53,0,0,1,.77-.06.93.93,0,0,0,.54,0,1,1,0,0,0,.14-.53,1.41,1.41,0,0,1,.23-.74,1.37,1.37,0,0,1,.67-.39c.2-.07.42-.15.47-.26s0-.32-.09-.52a1.46,1.46,0,0,1-.12-.79,1.55,1.55,0,0,1,.43-.63c.15-.16.32-.33.32-.46s-.16-.29-.31-.44a1.43,1.43,0,0,1-.43-.65,1.36,1.36,0,0,1,.12-.76,1,1,0,0,0,.09-.54c0-.11-.28-.19-.47-.26a1.36,1.36,0,0,1-.67-.39,1.44,1.44,0,0,1-.23-.74c0-.21-.05-.46-.15-.53s-.32,0-.53,0a1.36,1.36,0,0,1-.78-.06,1.44,1.44,0,0,1-.5-.56c-.12-.19-.25-.39-.37-.42s-.31.1-.49.21a1.36,1.36,0,0,1-.72.29,1.4,1.4,0,0,1-.72-.28c-.18-.12-.38-.24-.49-.21s-.25.23-.36.4a1.4,1.4,0,0,1-.52.58,1.42,1.42,0,0,1-.77,0,1.05,1.05,0,0,0-.55,0c-.09.07-.12.31-.14.53a1.54,1.54,0,0,1-.23.74,1.45,1.45,0,0,1-.67.39c-.2.07-.42.15-.47.26s0,.32.09.52a1.46,1.46,0,0,1,.12.79,1.55,1.55,0,0,1-.43.63c-.15.15-.33.33-.33.45s.18.31.33.46a1.55,1.55,0,0,1,.43.63,1.6,1.6,0,0,1-.12.77c-.07.2-.15.43-.09.54s.27.19.47.26a1.37,1.37,0,0,1,.67.39,1.5,1.5,0,0,1,.23.74,1,1,0,0,0,.14.53.93.93,0,0,0,.54,0Z" transform="translate(-17.09 -20.56)"/>
    </g>
    <path class="cls-8" d="M223.76,165.61a3.82,3.82,0,1,1,3.76-3.82A3.8,3.8,0,0,1,223.76,165.61Zm0-7.15a3.33,3.33,0,1,0,3.28,3.33A3.32,3.32,0,0,0,223.76,158.46Z" transform="translate(-17.09 -20.56)"/>
  </g>
  <g>
    <g>
      <path class="cls-9" d="M244.69,166.22a.16.16,0,0,1-.06-.08,5.83,5.83,0,0,1,1-6.17,5.74,5.74,0,0,1,8.09-.59.26.26,0,0,1,0,.36.26.26,0,0,1-.36,0,5.23,5.23,0,0,0-7.37.54,5.31,5.31,0,0,0-.93,5.61.27.27,0,0,1-.14.34A.23.23,0,0,1,244.69,166.22Z" transform="translate(-17.09 -20.56)"/>
      <path d="M244.85,166.35a.32.32,0,0,1-.2-.08h0a.28.28,0,0,1-.08-.11,5.88,5.88,0,0,1,1-6.23,5.8,5.8,0,0,1,8.17-.6.33.33,0,0,1-.43.49,5.15,5.15,0,0,0-7.27.53,5.25,5.25,0,0,0-.93,5.54.33.33,0,0,1-.16.43A.32.32,0,0,1,244.85,166.35Zm-.12-.18a.17.17,0,0,0,.21,0,.2.2,0,0,0,.1-.26,5.35,5.35,0,0,1,.94-5.67,5.3,5.3,0,0,1,7.46-.55.19.19,0,0,0,.26-.29,5.68,5.68,0,0,0-8,.58,5.78,5.78,0,0,0-1,6.1.09.09,0,0,0,0,.06Z" transform="translate(-17.09 -20.56)"/>
    </g>
    <g>
      <path class="cls-9" d="M251.81,160.54a.25.25,0,0,1-.08-.14.26.26,0,0,1,.2-.31l1.89-.41-.37-1.88a.27.27,0,0,1,.21-.31.25.25,0,0,1,.3.2l.41,2.13a.28.28,0,0,1,0,.2.26.26,0,0,1-.16.11l-2.14.47A.28.28,0,0,1,251.81,160.54Z" transform="translate(-17.09 -20.56)"/>
      <path d="M252,160.67a.33.33,0,0,1-.22-.08h0a.32.32,0,0,1-.1-.18.33.33,0,0,1,.25-.38l1.82-.4-.35-1.82a.33.33,0,0,1,.25-.38.32.32,0,0,1,.38.24l.41,2.14a.28.28,0,0,1-.05.24.3.3,0,0,1-.2.14l-2.14.47Zm1.72-3.12h0a.21.21,0,0,0-.16.24l.38,1.94-1.94.42a.21.21,0,0,0-.16.24.17.17,0,0,0,.06.1h0a.21.21,0,0,0,.17,0l2.13-.47a.18.18,0,0,0,.13-.09.21.21,0,0,0,0-.15l-.41-2.13A.19.19,0,0,0,253.71,157.55Z" transform="translate(-17.09 -20.56)"/>
    </g>
    <g>
      <path class="cls-9" d="M246,168a.26.26,0,0,1,0-.36.26.26,0,0,1,.36,0,5.24,5.24,0,0,0,7.37-.54,5.31,5.31,0,0,0,.93-5.61.27.27,0,0,1,.14-.34.24.24,0,0,1,.33.12,5.83,5.83,0,0,1-1,6.17A5.75,5.75,0,0,1,246,168Z" transform="translate(-17.09 -20.56)"/>
      <path d="M249.67,169.49a5.6,5.6,0,0,1-3.73-1.41h0a.34.34,0,0,1,0-.46.33.33,0,0,1,.23-.1.33.33,0,0,1,.23.07,5.17,5.17,0,0,0,7.27-.53,5.24,5.24,0,0,0,.92-5.55.33.33,0,0,1,.17-.42.31.31,0,0,1,.42.16,6,6,0,0,1-5,8.22ZM246,168a5.46,5.46,0,0,0,4.08,1.36,5.82,5.82,0,0,0,4.93-8,.17.17,0,0,0-.1-.1.16.16,0,0,0-.15,0,.19.19,0,0,0-.1.25,5.37,5.37,0,0,1-.94,5.68,5.31,5.31,0,0,1-7.46.55.15.15,0,0,0-.13-.05.17.17,0,0,0-.14.07.19.19,0,0,0,0,.27Z" transform="translate(-17.09 -20.56)"/>
    </g>
    <g>
      <path class="cls-9" d="M245.84,169.86a.29.29,0,0,1-.08-.13l-.41-2.14a.26.26,0,0,1,.21-.31l2.14-.47a.26.26,0,0,1,.3.2.27.27,0,0,1-.21.31l-1.88.41.36,1.88a.26.26,0,0,1-.2.31A.24.24,0,0,1,245.84,169.86Z" transform="translate(-17.09 -20.56)"/>
      <path d="M246,170a.32.32,0,0,1-.2-.08h0a.32.32,0,0,1-.1-.17l-.41-2.14a.33.33,0,0,1,.25-.38l2.14-.47a.34.34,0,0,1,.24,0,.34.34,0,0,1,.14.21.33.33,0,0,1-.25.38l-1.83.4.36,1.82a.33.33,0,0,1-.26.38Zm-.12-.17a.21.21,0,0,0,.17,0,.2.2,0,0,0,.16-.24l-.37-1.94,1.94-.42a.21.21,0,0,0,.16-.24.27.27,0,0,0-.09-.12.17.17,0,0,0-.14,0l-2.14.47a.21.21,0,0,0-.16.24l.42,2.13a.14.14,0,0,0,0,.11Z" transform="translate(-17.09 -20.56)"/>
    </g>
  </g>
  <g>
    <g>
      <path class="cls-9" d="M273.94,159.23h-1.49a.94.94,0,0,1-.93-.94v-.86a.94.94,0,0,1,.93-.94h1.49a.93.93,0,0,1,.93.94v.86A.93.93,0,0,1,273.94,159.23Zm-1.49-2.41a.61.61,0,0,0-.61.61v.86a.61.61,0,0,0,.61.61h1.49a.61.61,0,0,0,.61-.61v-.86a.61.61,0,0,0-.61-.61Z" transform="translate(-17.09 -20.56)"/>
      <path d="M273.94,159.3h-1.49a1,1,0,0,1-1-1v-.86a1,1,0,0,1,1-1h1.49a1,1,0,0,1,1,1v.86A1,1,0,0,1,273.94,159.3Zm-1.49-2.74a.87.87,0,0,0-.86.87v.86a.87.87,0,0,0,.86.87h1.49a.86.86,0,0,0,.86-.87v-.86a.86.86,0,0,0-.86-.87Zm1.49,2.42h-1.49a.69.69,0,0,1-.68-.69v-.86a.69.69,0,0,1,.68-.68h1.49a.68.68,0,0,1,.68.68v.86A.68.68,0,0,1,273.94,159Zm-1.49-2.09a.54.54,0,0,0-.53.54v.86a.54.54,0,0,0,.53.54h1.49a.54.54,0,0,0,.54-.54v-.86a.54.54,0,0,0-.54-.54Z" transform="translate(-17.09 -20.56)"/>
    </g>
    <g>
      <path class="cls-9" d="M275,170.92h-3.76a1.16,1.16,0,0,1-1.15-1.16v-2.35a.53.53,0,0,1,.53-.53h5a.53.53,0,0,1,.53.53v2.35A1.16,1.16,0,0,1,275,170.92Zm-4.38-3.72a.2.2,0,0,0-.2.2v2.35a.83.83,0,0,0,.83.84H275a.84.84,0,0,0,.84-.84V167.4a.21.21,0,0,0-.21-.2Z" transform="translate(-17.09 -20.56)"/>
      <path d="M275,171h-3.76a1.23,1.23,0,0,1-1.22-1.23v-2.35a.61.61,0,0,1,.6-.61h5a.61.61,0,0,1,.61.61v2.35A1.24,1.24,0,0,1,275,171Zm-4.38-4a.46.46,0,0,0-.45.46v2.35a1.08,1.08,0,0,0,1.07,1.09H275a1.09,1.09,0,0,0,1.08-1.09v-2.35a.47.47,0,0,0-.46-.46Zm4.38,3.72h-3.75a.91.91,0,0,1-.9-.92V167.4a.28.28,0,0,1,.27-.28h5a.29.29,0,0,1,.28.28v2.35A.92.92,0,0,1,275,170.67Zm-4.38-3.4a.13.13,0,0,0-.13.13v2.35a.76.76,0,0,0,.76.77H275a.76.76,0,0,0,.76-.77V167.4a.13.13,0,0,0-.13-.13Z" transform="translate(-17.09 -20.56)"/>
    </g>
    <g>
      <path class="cls-9" d="M275.51,167.2h-4.75a.67.67,0,0,1-.66-.67v-1.21a.67.67,0,0,1,.66-.66h4.75a.66.66,0,0,1,.65.66v1.21A.66.66,0,0,1,275.51,167.2ZM270.76,165a.33.33,0,0,0-.33.33v1.22a.33.33,0,0,0,.33.33h4.75a.33.33,0,0,0,.33-.33v-1.22a.33.33,0,0,0-.33-.33Z" transform="translate(-17.09 -20.56)"/>
      <path d="M275.51,167.27h-4.75a.74.74,0,0,1-.73-.74v-1.21a.74.74,0,0,1,.73-.74h4.75a.74.74,0,0,1,.73.74v1.21A.74.74,0,0,1,275.51,167.27Zm-4.75-2.54a.58.58,0,0,0-.58.59v1.21a.58.58,0,0,0,.58.59h4.75a.58.58,0,0,0,.58-.59v-1.21a.58.58,0,0,0-.58-.59Zm4.75,2.2h-4.75a.4.4,0,0,1-.4-.4v-1.22a.4.4,0,0,1,.4-.4h4.75a.4.4,0,0,1,.4.4v1.22A.4.4,0,0,1,275.51,166.93Zm-4.75-1.88a.26.26,0,0,0-.26.26v1.22a.26.26,0,0,0,.26.26h4.75a.26.26,0,0,0,.26-.26v-1.22a.26.26,0,0,0-.26-.26Z" transform="translate(-17.09 -20.56)"/>
    </g>
    <g>
      <path class="cls-9" d="M275.51,165h-4.75a.67.67,0,0,1-.66-.67V163.1a.67.67,0,0,1,.66-.66h4.75a.66.66,0,0,1,.65.66v1.21A.66.66,0,0,1,275.51,165Zm-4.75-2.22a.33.33,0,0,0-.33.33v1.22a.33.33,0,0,0,.33.33h4.75a.33.33,0,0,0,.33-.33v-1.22a.33.33,0,0,0-.33-.33Z" transform="translate(-17.09 -20.56)"/>
      <path d="M275.51,165.05h-4.75a.74.74,0,0,1-.73-.74V163.1a.74.74,0,0,1,.73-.74h4.75a.74.74,0,0,1,.73.74v1.21A.74.74,0,0,1,275.51,165.05Zm-4.75-2.54a.58.58,0,0,0-.58.59v1.21a.58.58,0,0,0,.58.59h4.75a.58.58,0,0,0,.58-.59V163.1a.58.58,0,0,0-.58-.59Zm4.75,2.2h-4.75a.4.4,0,0,1-.4-.4v-1.22a.4.4,0,0,1,.4-.4h4.75a.4.4,0,0,1,.4.4v1.22A.4.4,0,0,1,275.51,164.71Zm-4.75-1.88a.26.26,0,0,0-.26.26v1.22a.26.26,0,0,0,.26.26h4.75a.26.26,0,0,0,.26-.26v-1.22a.26.26,0,0,0-.26-.26Z" transform="translate(-17.09 -20.56)"/>
    </g>
    <g>
      <path class="cls-9" d="M275.53,162.79h-4.76a.52.52,0,0,1-.52-.52l0-1.4.11-.14,1.79-1.83h2.23l1.7,1.88v1.48A.5.5,0,0,1,275.53,162.79Zm-5-1.8,0,1.28a.2.2,0,0,0,.2.2h4.76a.22.22,0,0,0,.2-.2v-1.36l-1.53-1.68h-2L270.56,161Z" transform="translate(-17.09 -20.56)"/>
      <path d="M275.53,162.87h-4.76a.6.6,0,0,1-.6-.6l0-1.42.13-.16,1.81-1.86h2.29l1.75,1.92v1.51a.61.61,0,0,1-.17.43A.6.6,0,0,1,275.53,162.87Zm-5.25-2,0,1.36a.45.45,0,0,0,.45.46h4.76a.44.44,0,0,0,.31-.13.44.44,0,0,0,.13-.33v-1.45L274.31,159h-2.17l-1.76,1.8Zm5.25,1.64h-4.76a.27.27,0,0,1-.27-.27l0-1.3,0-.05,1.71-1.76h2l1.57,1.72v1.39A.28.28,0,0,1,275.53,162.54ZM270.61,161l0,1.26a.13.13,0,0,0,.13.13h4.76a.13.13,0,0,0,.12-.12v-1.33l-1.48-1.64h-1.9Z" transform="translate(-17.09 -20.56)"/>
    </g>
  </g>
  <g>
    <path class="cls-9" d="M25.79,185.47a4.91,4.91,0,0,1,0,9.82,4.61,4.61,0,0,1-2.81-.94l-.19-.14-.22.09-1.32.57.63-1.26.11-.23-.14-.21a5,5,0,0,1-.85-2.79A4.86,4.86,0,0,1,25.79,185.47Zm0-.43a5.27,5.27,0,0,0-5.21,5.34,5.43,5.43,0,0,0,.93,3l-1.15,2.3,2.37-1a5,5,0,0,0,3.06,1,5.34,5.34,0,0,0,0-10.68Z" transform="translate(-17.09 -20.56)"/>
    <g class="cls-10">
      <path class="cls-9" d="M23,194.35l-.33.43h0Zm-.19-.14.33-.43-.25-.19-.29.12Zm-.22.09-.21-.5h0Zm-1.32.57-.48-.24L20.11,196l1.36-.6Zm.63-1.26.48.24h0Zm.11-.23.49.24.13-.28-.17-.26Zm-.14-.21.45-.3h0Zm-.34.25.48.24.14-.28-.17-.26Zm-1.15,2.3-.48-.24-.66,1.32,1.35-.58Zm2.37-1,.33-.43-.26-.19-.28.13ZM31,190.38h0ZM25.79,186A4.32,4.32,0,0,1,30,190.38h1.08a5.39,5.39,0,0,0-5.32-5.45ZM30,190.38a4.32,4.32,0,0,1-4.24,4.37v1.08a5.38,5.38,0,0,0,5.32-5.45Zm-4.24,4.37a4.1,4.1,0,0,1-2.49-.83l-.65.86a5.12,5.12,0,0,0,3.14,1.05Zm-2.48-.83-.19-.14-.66.86.19.14Zm-.73-.21-.22.09.42,1,.22-.09Zm-.23.09-1.31.58.43,1,1.32-.58Zm-.61,1.32.62-1.27-1-.48-.62,1.26Zm.63-1.27.11-.23-1-.48-.12.24Zm.07-.77-.14-.21-.9.6.14.21Zm-.14-.21a4.45,4.45,0,0,1-.75-2.49H20.46a5.54,5.54,0,0,0,.94,3.09Zm-.75-2.49A4.31,4.31,0,0,1,25.79,186v-1.08a5.4,5.4,0,0,0-5.33,5.45Zm4.24-5.88A5.82,5.82,0,0,0,20,190.38h1.09a4.73,4.73,0,0,1,4.66-4.8ZM20,190.38a6,6,0,0,0,1,3.34l.9-.6a4.84,4.84,0,0,1-.83-2.74Zm1,2.8-1.14,2.3,1,.49L22,193.66Zm-.45,3,2.37-1-.42-1-2.37,1Zm1.84-1.08a5.61,5.61,0,0,0,3.38,1.13v-1.09a4.48,4.48,0,0,1-2.73-.91Zm3.38,1.13a5.82,5.82,0,0,0,5.74-5.89H30.45a4.73,4.73,0,0,1-4.66,4.8Zm5.74-5.89a5.82,5.82,0,0,0-5.74-5.88v1.08a4.73,4.73,0,0,1,4.66,4.8Z" transform="translate(-17.09 -20.56)"/>
    </g>
    <path class="cls-9" d="M23.19,190.39a.48.48,0,1,1,.47.51A.48.48,0,0,1,23.19,190.39Z" transform="translate(-17.09 -20.56)"/>
    <path class="cls-8" d="M23.66,190.9a.48.48,0,1,1,.48-.51A.48.48,0,0,1,23.66,190.9Zm-.05-.51a.22.22,0,0,0,.11,0,.11.11,0,0,0-.11,0Z" transform="translate(-17.09 -20.56)"/>
    <path class="cls-9" d="M25.2,190.39a.48.48,0,1,1,.95,0,.48.48,0,1,1-.95,0Z" transform="translate(-17.09 -20.56)"/>
    <path class="cls-8" d="M25.68,190.9a.48.48,0,1,1,.47-.51A.48.48,0,0,1,25.68,190.9Zm.06-.5Zm-.12,0s.08,0,.1,0a.09.09,0,0,0-.1,0Z" transform="translate(-17.09 -20.56)"/>
    <path class="cls-9" d="M27.2,190.39a.49.49,0,0,1,.48-.53.52.52,0,1,1-.48.53Z" transform="translate(-17.09 -20.56)"/>
    <path class="cls-8" d="M27.68,190.9a.49.49,0,0,1-.48-.51.48.48,0,1,1,1,0A.49.49,0,0,1,27.68,190.9Zm-.05-.51s.08,0,.1,0a.11.11,0,0,0-.11,0Zm.11,0Z" transform="translate(-17.09 -20.56)"/>
  </g>
  <g>
    <path d="M55.52,194.71H44.91a.62.62,0,0,1-.62-.62v-6.87a.63.63,0,0,1,.62-.63H55.52a.63.63,0,0,1,.63.63v6.87A.63.63,0,0,1,55.52,194.71Zm-10.61-7.65a.16.16,0,0,0-.16.16v6.87a.16.16,0,0,0,.16.15H55.52a.16.16,0,0,0,.16-.15v-6.87a.16.16,0,0,0-.16-.16Z" transform="translate(-17.09 -20.56)"/>
    <polygon points="33.12 170.35 28.34 167.98 28.54 167.56 33.12 169.83 37.7 167.56 37.91 167.98 33.12 170.35"/>
  </g>
  <g>
    <g class="cls-11">
      <path d="M74.36,192.47v.76h.88l-.13-.87Zm-.82,0-.75.13.11.63h.64ZM71.27,185l-.52.55.56.52.52-.55Zm-.59-.56-.55-.52-.53.55.56.53Zm-.35-.35-.55-.53h0Zm-.35.36-.55-.52-.53.55.55.52Zm.36.35-.52.55h0Zm.6.56-.52.55h0Zm.34.32-.52.55.55.51.51-.53Zm.33-.34.54.53h0ZM75,188.42l.53.54h0Zm-1.9,4.14.75-.13h0Zm.07.4-.75.13.1.63h.65Zm1.78,0v.76h.87l-.12-.86Zm-.08-.56.75-.11h0Zm1.53-2.9-.53-.55h0Zm2-3.53h0Zm-4-2.42a3,3,0,0,1,2.09.71,2.31,2.31,0,0,1,.7,1.71h1.52a3.77,3.77,0,0,0-1.19-2.82A4.49,4.49,0,0,0,74.3,182ZM77.09,186c0,1.08-.7,1.76-1.67,2.72s-2.08,2-1.81,3.89l1.5-.22c-.15-1,.41-1.65,1.37-2.59s2.13-2,2.13-3.8Zm-2.73,5.74h-.82v1.52h.82Zm-.07.64c-.19-1.14.39-1.88,1.29-2.79a13.58,13.58,0,0,0,1.35-1.45,3.36,3.36,0,0,0,.76-2.06H76.17a1.89,1.89,0,0,1-.45,1.15,13.88,13.88,0,0,1-1.22,1.29,4.58,4.58,0,0,0-1.71,4.11Zm3.4-6.3a3.11,3.11,0,0,0-.87-2.24,3.5,3.5,0,0,0-2.58-.95v1.52a2,2,0,0,1,1.5.49,1.65,1.65,0,0,1,.43,1.18Zm-3.45-3.19a4.79,4.79,0,0,0-3.52,1.57l1.11,1a3.23,3.23,0,0,1,2.41-1.09Zm-2.45,1.53-.59-.55-1,1.11.59.55Zm-.56.52a4.11,4.11,0,0,1,3.07-1.36V182a5.64,5.64,0,0,0-4.17,1.84Zm3.07-3.36a6.15,6.15,0,0,0-4.52,2l1.09,1.05a4.67,4.67,0,0,1,3.43-1.5Zm-4.52,2-.35.37,1.1,1.05.35-.37ZM69.45,185l.37.35,1-1.1-.36-.35Zm.37.36.6.55,1-1.11-.59-.55Zm.6.55.34.32,1-1.11-.35-.32Zm1.4.3.33-.34-1.08-1.06-.33.34Zm.34-.35a2.88,2.88,0,0,1,2.08-.95v-1.51a4.4,4.4,0,0,0-3.18,1.41Zm2.08-.95a1.63,1.63,0,0,1,1.12.33,1.08,1.08,0,0,1,.33.86h1.52a2.58,2.58,0,0,0-.84-2,3.16,3.16,0,0,0-2.13-.7Zm1.45,1.19a1.38,1.38,0,0,1-.3.79,10,10,0,0,1-1,1L75.51,189a11,11,0,0,0,1.12-1.24,2.83,2.83,0,0,0,.58-1.67Zm-1.25,1.83c-1,1-2.51,2.43-2.12,4.8l1.5-.25c-.25-1.51.61-2.41,1.68-3.47Zm-2.12,4.8.07.41,1.5-.25-.07-.41Zm.82,1h.4V192.2h-.4Zm.4,0h.82V192.2h-.82Zm.82,0h.56V192.2h-.56Zm1.31-.86-.08-.57-1.5.21.08.57Zm-.08-.57c-.11-.79.33-1.29,1.31-2.25L75.83,189c-.84.83-2,1.88-1.74,3.55ZM76.9,190A5.62,5.62,0,0,0,79.09,186H77.57c0,1.25-.78,2.06-1.73,3ZM79.09,186a4.2,4.2,0,0,0-1.38-3.19,5,5,0,0,0-3.41-1.22v1.51a3.5,3.5,0,0,1,2.39.83,2.73,2.73,0,0,1,.88,2.08Z" transform="translate(-17.09 -20.56)"/>
    </g>
    <path class="cls-9" d="M74.26,196.72a1,1,0,1,0-1-1A1,1,0,0,0,74.26,196.72Z" transform="translate(-17.09 -20.56)"/>
  </g>
  <g>
    <path class="cls-8" d="M30.71,171.59H20.5l-.76-7.22,0-.05a21.06,21.06,0,0,0,.64-8.17l0-.32h2.41v.44a2.35,2.35,0,0,0,0,.26c0,4.86.9,7.25,2.74,7.31h.26c1.83-.06,2.73-2.45,2.73-7.31,0-.09,0-.18,0-.27v-.43h2.41l-.05.32a20.72,20.72,0,0,0,.65,8.17v.05ZM21,171H30.2l.69-6.59a21.48,21.48,0,0,1-.68-8H29v.13c0,5.23-1.08,7.8-3.29,7.88h-.28c-2.22-.08-3.3-2.65-3.3-7.88v-.13H21a21.56,21.56,0,0,1-.68,8Z" transform="translate(-17.09 -20.56)"/>
    <rect class="cls-8" x="3.7" y="148.14" width="9.74" height="0.76"/>
  </g>
  <g>
    <g>
      <path class="cls-1" d="M114.9,165.2l2.52-7.52-4.19-1.57L110.92,163l-4.17,1.23a2.36,2.36,0,0,0-1.54,2.89,2.2,2.2,0,0,0,2.73,1.63l5.91-1.86A2.33,2.33,0,0,0,114.9,165.2Z" transform="translate(-17.09 -20.56)"/>
      <path class="cls-8" d="M107.34,169.15a2.37,2.37,0,0,1-1.18-.31,2.63,2.63,0,0,1-1.23-1.62,2.66,2.66,0,0,1,1.74-3.23l4-1.19,2.36-7.06,4.71,1.77-2.59,7.75a2.61,2.61,0,0,1-1.18,1.9l-.06,0L108,169.05A2.35,2.35,0,0,1,107.34,169.15Zm6.07-12.67-2.27,6.79-4.31,1.26a2.08,2.08,0,0,0-1.34,2.55,2,2,0,0,0,1,1.26,1.81,1.81,0,0,0,1.42.17l5.87-1.85a2.07,2.07,0,0,0,.89-1.49v-.06l2.43-7.26Z" transform="translate(-17.09 -20.56)"/>
    </g>
    <path class="cls-12" d="M106.78,164.14a4.67,4.67,0,0,1,1,4.81Z" transform="translate(-17.09 -20.56)"/>
    <path class="cls-8" d="M107.94,169l-.36-.12a4.43,4.43,0,0,0-.93-4.61l.26-.28A4.9,4.9,0,0,1,107.94,169Z" transform="translate(-17.09 -20.56)"/>
    <rect class="cls-8" x="114.61" y="156.37" width="0.38" height="4.47" transform="translate(-91 190.24) rotate(-69.57)"/>
    <g>
      <path class="cls-1" d="M116.76,167.54l2.52-7.52-4.19-1.56-2.31,6.92-4.17,1.23a2.36,2.36,0,0,0-1.54,2.89,2.22,2.22,0,0,0,2.73,1.63l5.91-1.86A2.33,2.33,0,0,0,116.76,167.54Z" transform="translate(-17.09 -20.56)"/>
      <path class="cls-8" d="M109.21,171.5a2.39,2.39,0,0,1-1.19-.32,2.53,2.53,0,0,1-1.22-1.61,2.65,2.65,0,0,1,1.73-3.24l4-1.18,2.36-7.06,4.72,1.76L117,167.6a2.63,2.63,0,0,1-1.17,1.91l-.07,0-5.91,1.86A2.33,2.33,0,0,1,109.21,171.5Zm6.06-12.67L113,165.61l-4.31,1.27a2.07,2.07,0,0,0-1.34,2.54,2,2,0,0,0,1,1.27,1.85,1.85,0,0,0,1.42.16l5.87-1.85a2,2,0,0,0,.89-1.49v-.06l2.43-7.25Z" transform="translate(-17.09 -20.56)"/>
    </g>
    <path class="cls-12" d="M108.64,166.49a4.67,4.67,0,0,1,1,4.81Z" transform="translate(-17.09 -20.56)"/>
    <path class="cls-8" d="M109.8,171.36l-.36-.12a4.5,4.5,0,0,0-.93-4.61l.26-.28A4.9,4.9,0,0,1,109.8,171.36Z" transform="translate(-17.09 -20.56)"/>
    <rect class="cls-8" x="116.27" y="158.25" width="0.76" height="4.48" transform="translate(-91.62 193) rotate(-69.5)"/>
  </g>
  <g>
    <path class="cls-2" d="M82,171.3V156.11h1.77v2.22h2.35l3.16,5.38-2.48,3.52.07,4.07Z" transform="translate(-17.09 -20.56)"/>
    <polygon class="cls-8" points="70.68 151.02 65.14 151.02 65.14 150.45 70.11 150.45 70.11 147.17 70.68 147.17 70.68 151.02"/>
    <path class="cls-8" d="M87,168.38l-2.7-2.53L87.4,163l.39.42-2.65,2.48L87,167.6l.43-.4c2.45-1.91,3.14-2.67,1.6-5.9s-2.54-3.16-2.55-3.16l-.06,0H83.61V156.4H82.24v-.57h1.94v1.76h2.16c.35-.1,1.51-.09,3.21,3.46s.9,4.52-1.74,6.58Z" transform="translate(-17.09 -20.56)"/>
    <path class="cls-2" d="M77.4,167.9v3.4h4.94V156.12H80.68v1.76H78.19s-1.09-.5-2.91,3.3c-1.61,3.37-.83,4.29,1.66,6.24l.63.58,2.28-2.14L77,163.16" transform="translate(-17.09 -20.56)"/>
    <path class="cls-8" d="M82.62,171.58H77.11V168l-.36-.34c-2.62-2-3.39-3.07-1.72-6.56s2.86-3.56,3.21-3.46H80.4v-1.77h2.22ZM77.68,171h4.37V156.4H81v1.77l-2.89,0h0c-.11,0-1,.07-2.52,3.17s-.85,4,1.58,5.88l.45.42,1.87-1.75-2.66-2.49.39-.41,3.1,2.9-2.59,2.43Z" transform="translate(-17.09 -20.56)"/>
    <rect class="cls-8" x="87.42" y="161.17" width="1.89" height="0.76" transform="translate(-73.81 27.58) rotate(-23.31)"/>
    <rect class="cls-8" x="86.45" y="159.31" width="1.89" height="0.76" transform="translate(-73.15 27.05) rotate(-23.31)"/>
    <rect class="cls-8" x="76.92" y="158.75" width="0.76" height="1.89" transform="translate(-117.04 146.95) rotate(-66.7)"/>
    <rect class="cls-8" x="75.96" y="160.61" width="0.76" height="1.89" transform="translate(-119.33 147.18) rotate(-66.7)"/>
  </g>
  <g>
    <rect class="cls-1" x="116.95" y="140.12" width="13.82" height="9.06" rx="1.52"/>
    <path class="cls-8" d="M146.35,169.65H135.57a1.43,1.43,0,0,1-1.43-1.43v-6a1.43,1.43,0,0,1,1.43-1.43h10.78a1.43,1.43,0,0,1,1.43,1.43v6A1.43,1.43,0,0,1,146.35,169.65Zm-10.78-8.31a.87.87,0,0,0-.86.86v6a.87.87,0,0,0,.86.86h10.78a.87.87,0,0,0,.86-.86v-6a.87.87,0,0,0-.86-.86Z" transform="translate(-17.09 -20.56)"/>
    <path class="cls-8" d="M141,160.6l-.32-.08c-1.2-.31-3.23-1-3.38-1.86-.05-.34.15-.65.59-.93a1.32,1.32,0,0,1,1.22-.16c.88.34,1.52,1.68,1.8,2.72Zm-2.34-2.74a1.07,1.07,0,0,0-.56.19c-.31.19-.45.38-.42.55.07.45,1.15,1,2.77,1.47-.26-.79-.78-1.88-1.48-2.15A.85.85,0,0,0,138.63,157.86Z" transform="translate(-17.09 -20.56)"/>
    <path class="cls-8" d="M141,160.6l.08-.31c.28-1,.93-2.38,1.81-2.72a1.3,1.3,0,0,1,1.21.16c.44.28.64.6.59.93-.14.9-2.18,1.55-3.38,1.86Zm2.33-2.74a.89.89,0,0,0-.31.06c-.69.27-1.22,1.36-1.48,2.14,1.63-.45,2.7-1,2.77-1.46,0-.17-.11-.36-.41-.55A1,1,0,0,0,143.29,157.86Z" transform="translate(-17.09 -20.56)"/>
    <rect class="cls-8" x="137.98" y="162.03" width="4.01" height="0.38" transform="translate(-87.25 183.53) rotate(-60.48)"/>
    <rect class="cls-8" x="141.75" y="160.22" width="0.38" height="4.01" transform="translate(-78.61 70.47) rotate(-29.53)"/>
    <rect class="cls-8" x="116.95" y="146.01" width="13.16" height="0.76"/>
  </g>
  <g>
    <path class="cls-8" d="M59.73,169.91h-4l-2.94-5.76-2.94,5.76h-4l0-.31c0-.38.8-9.42,2.38-12l.08-.14h8.88l.08.14c1.58,2.54,2.35,11.58,2.38,12Zm-3.63-.57h3c-.14-1.6-.89-8.93-2.18-11.27H48.69c-1.3,2.34-2,9.67-2.19,11.27h3l3.29-6.44Z" transform="translate(-17.09 -20.56)"/>
    <rect class="cls-8" x="31.04" y="138.68" width="9.34" height="0.76"/>
  </g>
  <g>
    <path class="cls-9" d="M170.43,164.74h-1v1.78h-.57v-4.39h1.43a1.65,1.65,0,0,1,1.12.34,1.22,1.22,0,0,1,.39,1,1.2,1.2,0,0,1-.22.72,1.26,1.26,0,0,1-.6.45l1,1.87v0h-.61Zm-1-.47h.87a1,1,0,0,0,.68-.22.76.76,0,0,0,.25-.6.78.78,0,0,0-.24-.62,1,1,0,0,0-.69-.23h-.87Z" transform="translate(-17.09 -20.56)"/>
    <path class="cls-8" d="M166.55,162.38a.32.32,0,0,1-.14,0,.29.29,0,0,1-.11-.39l3.13-5.43a.69.69,0,0,1,1.16,0l2.94,5.09a.28.28,0,1,1-.49.29l-2.94-5.1c0-.08-.12-.08-.17,0l-3.13,5.43A.3.3,0,0,1,166.55,162.38Z" transform="translate(-17.09 -20.56)"/>
    <path class="cls-9" d="M174,160l-.35-.08-.39,1.71-1.69-.51-.1.34,2,.63Z" transform="translate(-17.09 -20.56)"/>
    <path class="cls-8" d="M177.07,169.76h-6.26a.29.29,0,0,1,0-.57h6.26a.1.1,0,0,0,.09-.05.11.11,0,0,0,0-.1l-3.33-5.77a.28.28,0,0,1,.1-.39.29.29,0,0,1,.39.1l3.33,5.78a.67.67,0,0,1,0,.67A.65.65,0,0,1,177.07,169.76Z" transform="translate(-17.09 -20.56)"/>
    <path class="cls-9" d="M172,170.93l.25-.26L171,169.48l1.29-1.2L172,168l-1.57,1.46Z" transform="translate(-17.09 -20.56)"/>
    <path class="cls-8" d="M169.37,169.76H163a.66.66,0,0,1-.58-.33.67.67,0,0,1,0-.67l3.08-5.33a.29.29,0,0,1,.39-.11.29.29,0,0,1,.11.39L162.87,169a.09.09,0,0,0,0,.1.08.08,0,0,0,.08.05h6.42a.29.29,0,1,1,0,.57Z" transform="translate(-17.09 -20.56)"/>
    <path class="cls-9" d="M163.84,163.86l.11.34,1.68-.51.39,1.71.35-.08-.48-2.09Z" transform="translate(-17.09 -20.56)"/>
  </g>
  <g>
    <path class="cls-8" d="M217.54,193.61H204.63a1.42,1.42,0,0,1-1.42-1.42v-6.11a1.41,1.41,0,0,1,1.42-1.42h12.91a1.42,1.42,0,0,1,1.43,1.42v6.11A1.43,1.43,0,0,1,217.54,193.61Zm-12.91-8.39a.87.87,0,0,0-.86.86v6.11a.86.86,0,0,0,.86.85h12.91a.86.86,0,0,0,.86-.85v-6.11a.87.87,0,0,0-.86-.86Z" transform="translate(-17.09 -20.56)"/>
    <rect class="cls-8" x="186.46" y="169.92" width="15.19" height="0.76"/>
  </g>
  <g>
    <path class="cls-8" d="M133.48,196.26H122.85a1.43,1.43,0,0,1-1.42-1.43v-9.36a1.43,1.43,0,0,1,1.42-1.43h10.63a1.43,1.43,0,0,1,1.43,1.43v9.36A1.43,1.43,0,0,1,133.48,196.26Zm-10.63-11.65a.85.85,0,0,0-.85.86v9.36a.86.86,0,0,0,.85.86h10.63a.86.86,0,0,0,.86-.86v-9.36a.85.85,0,0,0-.86-.86Z" transform="translate(-17.09 -20.56)"/>
    <rect class="cls-8" x="104.39" y="165.93" width="13.2" height="0.76"/>
    <rect class="cls-9" x="106.06" y="161.73" width="1.82" height="1.74"/>
    <rect class="cls-9" x="114.26" y="161.73" width="1.82" height="1.74"/>
    <path class="cls-8" d="M124.79,189.55h-1.45v-1.28h1.45Zm-1.07-.38h.69v-.52h-.69Z" transform="translate(-17.09 -20.56)"/>
    <path class="cls-8" d="M124.79,192h-1.45v-1.28h1.45Zm-1.07-.38h.69v-.52h-.69Z" transform="translate(-17.09 -20.56)"/>
    <path class="cls-8" d="M124.79,194.51h-1.45v-1.28h1.45Zm-1.07-.38h.69v-.52h-.69Z" transform="translate(-17.09 -20.56)"/>
    <path class="cls-8" d="M127.52,189.55h-1.44v-1.28h1.44Zm-1.06-.38h.68v-.52h-.68Z" transform="translate(-17.09 -20.56)"/>
    <path class="cls-8" d="M127.52,192h-1.44v-1.28h1.44Zm-1.06-.38h.68v-.52h-.68Z" transform="translate(-17.09 -20.56)"/>
    <path class="cls-8" d="M127.52,194.51h-1.44v-1.28h1.44Zm-1.06-.38h.68v-.52h-.68Z" transform="translate(-17.09 -20.56)"/>
    <path class="cls-8" d="M130.26,189.55h-1.45v-1.28h1.45Zm-1.07-.38h.69v-.52h-.69Z" transform="translate(-17.09 -20.56)"/>
    <path class="cls-8" d="M130.26,192h-1.45v-1.28h1.45Zm-1.07-.38h.69v-.52h-.69Z" transform="translate(-17.09 -20.56)"/>
    <path class="cls-8" d="M130.26,194.51h-1.45v-1.28h1.45Zm-1.07-.38h.69v-.52h-.69Z" transform="translate(-17.09 -20.56)"/>
    <path class="cls-8" d="M133,189.55h-1.44v-1.28H133Zm-1.06-.38h.68v-.52h-.68Z" transform="translate(-17.09 -20.56)"/>
    <path class="cls-8" d="M133,192h-1.44v-1.28H133Zm-1.06-.38h.68v-.52h-.68Z" transform="translate(-17.09 -20.56)"/>
    <path class="cls-8" d="M133,194.51h-1.44v-1.28H133Zm-1.06-.38h.68v-.52h-.68Z" transform="translate(-17.09 -20.56)"/>
  </g>
  <g>
    <rect class="cls-9" x="161.6" y="161.73" width="1.82" height="1.65"/>
    <rect class="cls-9" x="169.81" y="161.73" width="1.82" height="1.65"/>
    <g>
      <path class="cls-8" d="M189,196.26H178.39a1.43,1.43,0,0,1-1.42-1.43v-9.36a1.43,1.43,0,0,1,1.42-1.43H189a1.43,1.43,0,0,1,1.42,1.43v9.36A1.43,1.43,0,0,1,189,196.26Zm-10.64-11.65a.86.86,0,0,0-.85.86v9.36a.86.86,0,0,0,.85.86H189a.86.86,0,0,0,.85-.86v-9.36a.86.86,0,0,0-.85-.86Z" transform="translate(-17.09 -20.56)"/>
      <rect class="cls-8" x="159.93" y="165.93" width="13.23" height="0.76"/>
      <polygon class="cls-8" points="165.9 173.11 163.33 170.89 163.82 170.32 165.87 172.09 169.39 168.7 169.92 169.25 165.9 173.11"/>
    </g>
  </g>
  <g>
    <path d="M164.21,193H149.14a1.48,1.48,0,0,1-1.48-1.48v-6.74a1.47,1.47,0,0,1,1.48-1.47h9.73V186h2.88l2.46,2.8Zm-15.07-9.12a.91.91,0,0,0-.91.9v6.74a.91.91,0,0,0,.91.91h14.5v-3.19H158.3v-5.36Zm9.73,4.79h4.5l-1.88-2.13h-2.62Z" transform="translate(-17.09 -20.56)"/>
    <g>
      <circle class="cls-1" cx="135.41" cy="172.18" r="1.9"/>
      <path d="M152.5,191.6a1.14,1.14,0,1,1-1.13,1.14,1.14,1.14,0,0,1,1.13-1.14m0-.76a1.9,1.9,0,1,0,1.9,1.9,1.9,1.9,0,0,0-1.9-1.9Z" transform="translate(-17.09 -20.56)"/>
    </g>
    <g>
      <circle class="cls-1" cx="143.01" cy="172.18" r="1.9"/>
      <path d="M160.1,191.6a1.14,1.14,0,1,1-1.14,1.14,1.14,1.14,0,0,1,1.14-1.14m0-.76a1.9,1.9,0,1,0,1.9,1.9,1.9,1.9,0,0,0-1.9-1.9Z" transform="translate(-17.09 -20.56)"/>
    </g>
  </g>
  <g>
    <path class="cls-13" d="M268.3,192.53h-6a1.78,1.78,0,0,1-1.72-1.83v-4.58H270v4.58A1.78,1.78,0,0,1,268.3,192.53Zm-7.16-5.84v4a1.21,1.21,0,0,0,1.15,1.26h6a1.21,1.21,0,0,0,1.14-1.26v-4Z" transform="translate(-17.09 -20.56)"/>
    <path class="cls-13" d="M267.6,188.89H267v-2.76a1.77,1.77,0,1,0-3.48,0v2.76H263v-2.76a2.33,2.33,0,1,1,4.62,0Z" transform="translate(-17.09 -20.56)"/>
    <g>
      <path class="cls-1" d="M272.39,199.05l-.34-.44c-.41-.53-1-1.27-1.51-2.12a20.66,20.66,0,0,1-1.49-2.74,7.16,7.16,0,0,1-.65-2.66,4,4,0,1,1,8,0,7,7,0,0,1-.66,2.66,18.59,18.59,0,0,1-1.49,2.74c-.54.85-1.09,1.59-1.5,2.12Zm-2-8a2,2,0,1,0,2-2.1A2.07,2.07,0,0,0,270.36,191.09Z" transform="translate(-17.09 -20.56)"/>
      <path class="cls-14" d="M272.39,199.5l-.22-.27-.35-.44c-.37-.49-.94-1.25-1.52-2.15a20.6,20.6,0,0,1-1.51-2.78,7.32,7.32,0,0,1-.68-2.77,4.28,4.28,0,1,1,8.56,0,7.32,7.32,0,0,1-.68,2.77,19.68,19.68,0,0,1-1.52,2.78c-.45.71-1,1.44-1.51,2.15l-.35.44Zm0-12.33a3.82,3.82,0,0,0-3.71,3.92,6.55,6.55,0,0,0,.64,2.54,18.4,18.4,0,0,0,1.46,2.71c.57.87,1.12,1.62,1.49,2.1l.12.15.11-.15c.55-.7,1.05-1.41,1.49-2.1a17.63,17.63,0,0,0,1.47-2.71,6.74,6.74,0,0,0,.64-2.54A3.83,3.83,0,0,0,272.39,187.17Zm0,6.32a2.4,2.4,0,1,1,2.31-2.4A2.36,2.36,0,0,1,272.39,193.49Zm0-4.22a1.83,1.83,0,1,0,1.74,1.82A1.79,1.79,0,0,0,272.39,189.27Z" transform="translate(-17.09 -20.56)"/>
    </g>
  </g>
  <g>
    <polygon points="223.56 174.14 214.63 174.14 214.63 162.04 221.76 162.04 224.81 165.09 224.81 169.2 224.24 169.2 224.24 165.32 221.52 162.61 215.19 162.61 215.19 173.57 223.56 173.57 223.56 174.14"/>
    <polygon points="224.52 165.75 221.1 165.75 221.1 162.32 221.54 162.32 221.54 165.31 224.52 165.31 224.52 165.75"/>
    <g>
      <path class="cls-1" d="M243.54,199.93l-.34-.43c-.41-.53-1-1.27-1.51-2.12a20.17,20.17,0,0,1-1.49-2.75,7.12,7.12,0,0,1-.65-2.65,4,4,0,1,1,8,0,7,7,0,0,1-.66,2.65,18.2,18.2,0,0,1-1.49,2.75c-.54.85-1.09,1.59-1.5,2.12Zm-2-8a2,2,0,1,0,2-2.11A2.08,2.08,0,0,0,241.51,192Z" transform="translate(-17.09 -20.56)"/>
      <path class="cls-14" d="M243.54,200.39l-.22-.28-.35-.44c-.55-.71-1.06-1.43-1.52-2.14a19.08,19.08,0,0,1-1.51-2.79,7.24,7.24,0,0,1-.68-2.76,4.29,4.29,0,1,1,8.56,0,7.24,7.24,0,0,1-.68,2.76,19.21,19.21,0,0,1-1.52,2.79c-.45.71-1,1.43-1.51,2.14l-.35.44Zm0-12.34a3.83,3.83,0,0,0-3.71,3.93,6.55,6.55,0,0,0,.64,2.54,18.34,18.34,0,0,0,1.46,2.7c.44.69,1,1.42,1.49,2.11l.12.15.11-.15c.55-.71,1-1.41,1.49-2.11a17.57,17.57,0,0,0,1.47-2.7,6.78,6.78,0,0,0,.64-2.54A3.84,3.84,0,0,0,243.54,188.05Zm0,6.32a2.39,2.39,0,1,1,2.31-2.39A2.35,2.35,0,0,1,243.54,194.37Zm0-4.21a1.82,1.82,0,1,0,1.74,1.82A1.79,1.79,0,0,0,243.54,190.16Z" transform="translate(-17.09 -20.56)"/>
    </g>
  </g>
  <g>
    <g>
      <path class="cls-14" d="M108.29,194.78h-6.13a.38.38,0,0,1,0-.76h6.13a.38.38,0,0,1,0,.76Z" transform="translate(-17.09 -20.56)"/>
      <path class="cls-14" d="M108.29,190.27h-3.43a.38.38,0,1,1,0-.76h3.43a.38.38,0,0,1,0,.76Z" transform="translate(-17.09 -20.56)"/>
      <path class="cls-14" d="M108.29,185.76h-6.13a.38.38,0,1,1,0-.76h6.13a.38.38,0,1,1,0,.76Z" transform="translate(-17.09 -20.56)"/>
    </g>
    <g>
      <path class="cls-1" d="M97.27,185.29l1.25,2.53a.4.4,0,0,0,.31.22l2.79.4a.41.41,0,0,1,.22.7l-2,2a.4.4,0,0,0-.11.36l.47,2.78a.41.41,0,0,1-.59.43l-2.5-1.32a.4.4,0,0,0-.37,0l-2.5,1.32a.41.41,0,0,1-.59-.43l.47-2.78a.4.4,0,0,0-.11-.36l-2-2a.41.41,0,0,1,.22-.7L95,188a.4.4,0,0,0,.31-.22l1.25-2.53A.4.4,0,0,1,97.27,185.29Z" transform="translate(-17.09 -20.56)"/>
      <path class="cls-14" d="M97,185.49h0m0,.09L98.11,188a.88.88,0,0,0,.65.47l2.69.39-2,1.9a.86.86,0,0,0-.24.76l.46,2.69L97.31,193a.87.87,0,0,0-.81,0l-2.41,1.28.46-2.7a.86.86,0,0,0-.24-.76l-2-1.9,2.69-.39a.88.88,0,0,0,.65-.47l1.2-2.44m0-.52a.4.4,0,0,0-.36.23l-1.25,2.53A.4.4,0,0,1,95,188l-2.79.4a.41.41,0,0,0-.22.7l2,2a.4.4,0,0,1,.11.36l-.47,2.78a.4.4,0,0,0,.4.47.43.43,0,0,0,.19,0l2.5-1.32a.37.37,0,0,1,.18,0,.38.38,0,0,1,.19,0l2.5,1.32a.43.43,0,0,0,.19,0,.4.4,0,0,0,.4-.47l-.47-2.78a.4.4,0,0,1,.11-.36l2-2a.41.41,0,0,0-.22-.7l-2.79-.4a.4.4,0,0,1-.31-.22l-1.25-2.53a.4.4,0,0,0-.37-.23Z" transform="translate(-17.09 -20.56)"/>
    </g>
  </g>
  <g>
    <text class="cls-15" transform="translate(0 87.84)">Button</text>
    <g>
      <path class="cls-16" d="M55.68,111.18H45.8V101.3h9.88Zm-9.12-.76h8.36v-8.36H46.56Z" transform="translate(-17.09 -20.56)"/>
      <rect class="cls-16" x="50.36" y="100.33" width="0.76" height="11.82" transform="translate(-77.36 46.43) rotate(-45)"/>
      <rect class="cls-16" x="44.83" y="105.86" width="11.82" height="0.76" transform="translate(-77.36 46.43) rotate(-45)"/>
    </g>
  </g>
  <g>
    <rect class="cls-16" x="63.77" y="74.28" width="84.31" height="22.79"/>
    <g>
      <text class="cls-17" transform="translate(99.07 87.84)">Button</text>
      <g>
        <path class="cls-1" d="M109.93,111.18h-9.87V101.3h9.87Zm-9.11-.76h8.35v-8.36h-8.35Z" transform="translate(-17.09 -20.56)"/>
        <rect class="cls-1" x="104.62" y="100.33" width="0.76" height="11.82" transform="translate(-61.47 84.8) rotate(-45)"/>
        <rect class="cls-1" x="99.09" y="105.86" width="11.82" height="0.76" transform="translate(-61.47 84.8) rotate(-45)"/>
      </g>
    </g>
  </g>
  <g>
    <rect class="cls-3" x="174.12" y="74.28" width="84.31" height="22.79"/>
    <g>
      <text class="cls-18" transform="translate(209.42 87.84)">Button</text>
      <g>
        <path class="cls-1" d="M220.28,111.18h-9.87V101.3h9.87Zm-9.11-.76h8.35v-8.36h-8.35Z" transform="translate(-17.09 -20.56)"/>
        <rect class="cls-1" x="214.96" y="100.33" width="0.76" height="11.82" transform="translate(-29.14 162.82) rotate(-45)"/>
        <rect class="cls-1" x="209.44" y="105.86" width="11.82" height="0.76" transform="translate(-29.14 162.82) rotate(-45)"/>
      </g>
    </g>
  </g>
  <g>
    <path d="M22.55,127.86a5,5,0,0,1,.8-2.75l.16.09a5.21,5.21,0,0,0,0,5.32l-.16.09A5,5,0,0,1,22.55,127.86Z" transform="translate(-17.09 -20.56)"/>
    <path d="M24,127.54c0-1.27.69-2.07,1.71-2.07a1.39,1.39,0,0,1,1,.48l-.16.19a1.14,1.14,0,0,0-.88-.41c-.87,0-1.42.7-1.42,1.81s.54,1.83,1.4,1.83a1.28,1.28,0,0,0,1-.5l.17.18a1.5,1.5,0,0,1-1.19.57C24.73,129.62,24,128.81,24,127.54Z" transform="translate(-17.09 -20.56)"/>
    <path d="M28.46,125.79H27.19v-.24H30v.24H28.74v3.76h-.28Z" transform="translate(-17.09 -20.56)"/>
    <path d="M31.41,125.55h.28l1.41,4h-.3l-.8-2.36c-.16-.47-.3-.89-.44-1.38h0c-.14.49-.28.91-.44,1.38l-.81,2.36H30Zm-.77,2.39h1.8v.23h-1.8Z" transform="translate(-17.09 -20.56)"/>
    <path d="M34.91,125.18h.27v1.91a1.45,1.45,0,0,1,1-.53c.6,0,.88.37.88,1.12v1.87H36.8v-1.84c0-.62-.19-.91-.66-.91s-.6.18-1,.55v2.2h-.27Z" transform="translate(-17.09 -20.56)"/>
    <path d="M37.88,128.09a1.33,1.33,0,1,1,1.31,1.53A1.37,1.37,0,0,1,37.88,128.09Zm2.33,0c0-.76-.43-1.29-1-1.29s-1,.53-1,1.29.44,1.29,1,1.29S40.21,128.86,40.21,128.09Z" transform="translate(-17.09 -20.56)"/>
    <path d="M41.37,126.63h.23l0,.45h0a1.39,1.39,0,0,1,.92-.52.75.75,0,0,1,.81.59,1.45,1.45,0,0,1,1-.59c.58,0,.87.37.87,1.12v1.87H45v-1.84c0-.62-.2-.91-.65-.91a1.25,1.25,0,0,0-.87.55v2.2h-.27v-1.84c0-.62-.21-.91-.66-.91a1.27,1.27,0,0,0-.87.55v2.2h-.27Z" transform="translate(-17.09 -20.56)"/>
    <path d="M46.06,128.09a1.39,1.39,0,0,1,1.27-1.53c.69,0,1.12.49,1.12,1.35a.86.86,0,0,1,0,.22H46.34a1.14,1.14,0,0,0,1.1,1.26,1.35,1.35,0,0,0,.78-.26l.11.2a1.55,1.55,0,0,1-.92.29A1.38,1.38,0,0,1,46.06,128.09Zm2.14-.18c0-.75-.34-1.12-.86-1.12a1.09,1.09,0,0,0-1,1.12Z" transform="translate(-17.09 -20.56)"/>
    <path d="M48.88,130.52a5.21,5.21,0,0,0,0-5.32l.16-.09a5.13,5.13,0,0,1,0,5.5Z" transform="translate(-17.09 -20.56)"/>
  </g>
  <g>
    <path d="M106.14,127.86a5,5,0,0,1,.8-2.75l.16.09a5.21,5.21,0,0,0,0,5.32l-.16.09A5,5,0,0,1,106.14,127.86Z" transform="translate(-17.09 -20.56)"/>
    <path d="M107.63,127.54c0-1.27.69-2.07,1.71-2.07a1.39,1.39,0,0,1,1,.48l-.16.19a1.14,1.14,0,0,0-.88-.41c-.87,0-1.42.7-1.42,1.81s.54,1.83,1.4,1.83a1.28,1.28,0,0,0,1-.5l.17.18a1.5,1.5,0,0,1-1.19.57C108.32,129.62,107.63,128.81,107.63,127.54Z" transform="translate(-17.09 -20.56)"/>
    <path d="M112.05,125.79h-1.27v-.24h2.82v.24h-1.27v3.76h-.28Z" transform="translate(-17.09 -20.56)"/>
    <path d="M115,125.55h.28l1.41,4h-.3l-.8-2.36c-.16-.47-.3-.89-.44-1.38h0c-.14.49-.28.91-.44,1.38l-.81,2.36h-.28Zm-.77,2.39H116v.23h-1.8Z" transform="translate(-17.09 -20.56)"/>
    <path d="M118.5,126.63h.23l0,.37h0a1.68,1.68,0,0,1,1-.44c.79,0,1.17.58,1.17,1.49s-.6,1.57-1.28,1.57a1.5,1.5,0,0,1-.88-.36v1.61h-.27Zm2.15,1.42c0-.72-.26-1.25-.93-1.25a1.53,1.53,0,0,0-1,.48V129a1.43,1.43,0,0,0,.86.37C120.22,129.38,120.65,128.84,120.65,128.05Z" transform="translate(-17.09 -20.56)"/>
    <path d="M121.81,126.63H122l0,.55h0a1,1,0,0,1,.83-.62.61.61,0,0,1,.29.06l-.06.24a.81.81,0,0,0-.27,0c-.26,0-.57.2-.79.75v2h-.27Z" transform="translate(-17.09 -20.56)"/>
    <path d="M123.63,125.69a.23.23,0,0,1,.25-.24.23.23,0,0,1,.24.24.24.24,0,0,1-.24.24A.24.24,0,0,1,123.63,125.69Zm.11.94H124v2.92h-.26Z" transform="translate(-17.09 -20.56)"/>
    <path d="M125.13,126.63h.22l0,.45h0a1.35,1.35,0,0,1,.92-.52.74.74,0,0,1,.8.59,1.47,1.47,0,0,1,1-.59c.58,0,.87.37.87,1.12v1.87h-.26v-1.84c0-.62-.21-.91-.66-.91a1.25,1.25,0,0,0-.87.55v2.2h-.27v-1.84c0-.62-.21-.91-.65-.91a1.29,1.29,0,0,0-.88.55v2.2h-.26Z" transform="translate(-17.09 -20.56)"/>
    <path d="M129.85,128.82c0-.65.59-.95,1.88-1.1,0-.45-.11-.93-.68-.93a1.56,1.56,0,0,0-.93.35l-.13-.2a1.94,1.94,0,0,1,1.09-.38c.69,0,.92.5.92,1.12v1.87h-.23l0-.38h0a1.72,1.72,0,0,1-1,.45A.77.77,0,0,1,129.85,128.82Zm1.88.1v-1c-1.19.13-1.6.41-1.6.88a.54.54,0,0,0,.61.58A1.51,1.51,0,0,0,131.73,128.92Z" transform="translate(-17.09 -20.56)"/>
    <path d="M133,126.63h.23l0,.55h0a1,1,0,0,1,.83-.62.56.56,0,0,1,.29.06l-.06.24a.75.75,0,0,0-.26,0c-.26,0-.58.2-.8.75v2H133Z" transform="translate(-17.09 -20.56)"/>
    <path d="M134.87,125.69a.24.24,0,1,1,.48,0,.24.24,0,0,1-.48,0Zm.1.94h.27v2.92H135Z" transform="translate(-17.09 -20.56)"/>
    <path d="M136.12,128.09a1.38,1.38,0,0,1,1.27-1.53c.69,0,1.11.49,1.11,1.35a1.7,1.7,0,0,1,0,.22h-2.1a1.14,1.14,0,0,0,1.1,1.26,1.33,1.33,0,0,0,.78-.26l.11.2a1.55,1.55,0,0,1-.92.29A1.38,1.38,0,0,1,136.12,128.09Zm2.13-.18c0-.75-.34-1.12-.86-1.12a1.09,1.09,0,0,0-1,1.12Z" transform="translate(-17.09 -20.56)"/>
    <path d="M138.93,130.52a5.21,5.21,0,0,0,0-5.32l.17-.09a5.13,5.13,0,0,1,0,5.5Z" transform="translate(-17.09 -20.56)"/>
  </g>
  <g>
    <path d="M213.36,127.86a5,5,0,0,1,.8-2.75l.16.09a5.27,5.27,0,0,0,0,5.32l-.16.09A5,5,0,0,1,213.36,127.86Z" transform="translate(-17.09 -20.56)"/>
    <path d="M214.85,127.54c0-1.27.7-2.07,1.71-2.07a1.43,1.43,0,0,1,1.05.48l-.17.19a1.13,1.13,0,0,0-.87-.41c-.88,0-1.42.7-1.42,1.81s.53,1.83,1.39,1.83a1.3,1.3,0,0,0,1-.5l.16.18a1.5,1.5,0,0,1-1.19.57C215.54,129.62,214.85,128.81,214.85,127.54Z" transform="translate(-17.09 -20.56)"/>
    <path d="M219.27,125.79H218v-.24h2.83v.24h-1.28v3.76h-.28Z" transform="translate(-17.09 -20.56)"/>
    <path d="M222.22,125.55h.28l1.41,4h-.3l-.8-2.36c-.16-.47-.3-.89-.44-1.38h0c-.14.49-.29.91-.45,1.38l-.81,2.36h-.28Zm-.77,2.39h1.8v.23h-1.8Z" transform="translate(-17.09 -20.56)"/>
    <path d="M225.36,129.22l.16-.2a1.34,1.34,0,0,0,.93.37c.45,0,.69-.27.69-.57s-.37-.53-.71-.65-.93-.34-.93-.83.33-.78.94-.78a1.37,1.37,0,0,1,.83.3l-.14.19a1.17,1.17,0,0,0-.7-.26c-.45,0-.66.26-.66.53s.35.46.69.59.95.32.95.89a.87.87,0,0,1-1,.82A1.68,1.68,0,0,1,225.36,129.22Z" transform="translate(-17.09 -20.56)"/>
    <path d="M227.94,128.09a1.39,1.39,0,0,1,1.27-1.53c.69,0,1.12.49,1.12,1.35a.86.86,0,0,1,0,.22h-2.09a1.14,1.14,0,0,0,1.1,1.26,1.35,1.35,0,0,0,.78-.26l.11.2a1.55,1.55,0,0,1-.92.29A1.38,1.38,0,0,1,227.94,128.09Zm2.14-.18c0-.75-.34-1.12-.86-1.12a1.09,1.09,0,0,0-1,1.12Z" transform="translate(-17.09 -20.56)"/>
    <path d="M230.88,128.09a1.38,1.38,0,0,1,1.33-1.53,1.16,1.16,0,0,1,.85.36l-.16.19a1,1,0,0,0-.69-.31,1.15,1.15,0,0,0-1.05,1.29c0,.77.42,1.29,1.05,1.29a1.18,1.18,0,0,0,.78-.33l.14.19a1.4,1.4,0,0,1-.93.38A1.35,1.35,0,0,1,230.88,128.09Z" transform="translate(-17.09 -20.56)"/>
    <path d="M233.5,128.09a1.33,1.33,0,1,1,1.31,1.53A1.37,1.37,0,0,1,233.5,128.09Zm2.34,0c0-.76-.44-1.29-1-1.29s-1,.53-1,1.29.44,1.29,1,1.29S235.84,128.86,235.84,128.09Z" transform="translate(-17.09 -20.56)"/>
    <path d="M237,126.63h.22l0,.45h0a1.43,1.43,0,0,1,1-.52c.6,0,.88.37.88,1.12v1.87h-.27v-1.84c0-.62-.19-.91-.66-.91s-.6.18-.95.55v2.2H237Z" transform="translate(-17.09 -20.56)"/>
    <path d="M240,128.09a1.38,1.38,0,0,1,1.29-1.53,1.32,1.32,0,0,1,.88.36v-1.74h.26v4.37h-.22l0-.38h0a1.36,1.36,0,0,1-.95.45C240.46,129.62,240,129.08,240,128.09Zm2.16.81v-1.73a1.25,1.25,0,0,0-.85-.37,1.16,1.16,0,0,0-1,1.29c0,.78.34,1.29,1,1.29A1.33,1.33,0,0,0,242.15,128.9Z" transform="translate(-17.09 -20.56)"/>
    <path d="M243.33,128.82c0-.65.58-.95,1.88-1.1,0-.45-.12-.93-.69-.93a1.61,1.61,0,0,0-.93.35l-.12-.2a1.9,1.9,0,0,1,1.08-.38c.69,0,.93.5.93,1.12v1.87h-.23l0-.38h0a1.75,1.75,0,0,1-1,.45A.76.76,0,0,1,243.33,128.82Zm1.88.1v-1c-1.2.13-1.61.41-1.61.88a.55.55,0,0,0,.62.58A1.53,1.53,0,0,0,245.21,128.92Z" transform="translate(-17.09 -20.56)"/>
    <path d="M246.52,126.63h.23l0,.55h0a1,1,0,0,1,.83-.62.61.61,0,0,1,.29.06l-.06.24a.81.81,0,0,0-.27,0c-.26,0-.57.2-.79.75v2h-.27Z" transform="translate(-17.09 -20.56)"/>
    <path d="M248.34,125.69a.23.23,0,0,1,.24-.24.23.23,0,0,1,.25.24.24.24,0,0,1-.25.24A.24.24,0,0,1,248.34,125.69Zm.1.94h.27v2.92h-.27Z" transform="translate(-17.09 -20.56)"/>
    <path d="M249.59,128.09a1.39,1.39,0,0,1,1.27-1.53c.69,0,1.12.49,1.12,1.35a.86.86,0,0,1,0,.22h-2.09a1.14,1.14,0,0,0,1.09,1.26,1.36,1.36,0,0,0,.79-.26l.11.2a1.55,1.55,0,0,1-.92.29A1.38,1.38,0,0,1,249.59,128.09Zm2.14-.18c0-.75-.34-1.12-.86-1.12a1.09,1.09,0,0,0-1,1.12Z" transform="translate(-17.09 -20.56)"/>
    <path d="M252.41,130.52a5.21,5.21,0,0,0,0-5.32l.16-.09a5.13,5.13,0,0,1,0,5.5Z" transform="translate(-17.09 -20.56)"/>
  </g>
  <g>
    <path class="cls-14" d="M197.49,162.72a2.28,2.28,0,1,1,2.28-2.27A2.27,2.27,0,0,1,197.49,162.72Zm0-4a1.71,1.71,0,1,0,1.71,1.71A1.71,1.71,0,0,0,197.49,158.74Z" transform="translate(-17.09 -20.56)"/>
    <path class="cls-14" d="M201.41,169.24h-7.26a2,2,0,0,1-1.88-2.64l.58-1.7a2,2,0,0,1,1.89-1.35h6.08a2,2,0,0,1,1.88,1.35l.59,1.7a2,2,0,0,1-.26,1.81A2,2,0,0,1,201.41,169.24ZM193.12,165l.27.09-.58,1.71a1.36,1.36,0,0,0,.18,1.28,1.4,1.4,0,0,0,1.16.6h7.26a1.43,1.43,0,0,0,1.34-1.88l-.59-1.71a1.42,1.42,0,0,0-1.34-1h-6.08a1.43,1.43,0,0,0-1.35,1Z" transform="translate(-17.09 -20.56)"/>
  </g>
  <path class="cls-3" d="M111.48,64.52H100.9V53.44h10.58Zm-10.39-.19h10.2V53.63h-10.2Z" transform="translate(-17.09 -20.56)"/>
  <path class="cls-3" d="M135,64.77H122.91V53.2H135Zm-11.87-.19h11.68V53.39H123.1Z" transform="translate(-17.09 -20.56)"/>
  <path class="cls-3" d="M158.72,64.77H146.66V53.2h12.06Zm-11.87-.19h11.68V53.39H146.85Z" transform="translate(-17.09 -20.56)"/>
  <path class="cls-3" d="M88.47,64.77H76.41V53.2H88.47ZM76.6,64.58H88.28V53.39H76.6Z" transform="translate(-17.09 -20.56)"/>
  <path class="cls-3" d="M30.1,64.77H24.47V53.2H30.1Zm-5.44-.19h5.25V53.39H24.66Z" transform="translate(-17.09 -20.56)"/>
  <path class="cls-16" d="M28,55.82H26.85a1,1,0,0,1-1-1v-.64a.94.94,0,0,1,1-.95H28a.94.94,0,0,1,1,.95v.64A1,1,0,0,1,28,55.82ZM26.85,54a.22.22,0,0,0-.22.22v.64a.21.21,0,0,0,.22.21H28a.21.21,0,0,0,.22-.21v-.64A.22.22,0,0,0,28,54Z" transform="translate(-17.09 -20.56)"/>
  <path class="cls-16" d="M28.78,64.55H25.94a1.12,1.12,0,0,1-1.12-1.12V61.68a.65.65,0,0,1,.65-.65h3.78a.65.65,0,0,1,.65.65v1.75A1.12,1.12,0,0,1,28.78,64.55Zm-3.22-2.78v1.66a.38.38,0,0,0,.38.38h2.84a.38.38,0,0,0,.38-.38V61.77Z" transform="translate(-17.09 -20.56)"/>
  <path class="cls-16" d="M29.16,61.77h-3.6a.74.74,0,0,1-.74-.74v-.92a.74.74,0,0,1,.74-.74h3.6a.74.74,0,0,1,.74.74V61A.74.74,0,0,1,29.16,61.77Zm-3.6-1.66h0V61h3.6v-.92Z" transform="translate(-17.09 -20.56)"/>
  <path class="cls-16" d="M29.16,60.11h-3.6a.74.74,0,0,1-.74-.74v-.91a.75.75,0,0,1,.74-.75h3.6a.75.75,0,0,1,.74.75v.91A.74.74,0,0,1,29.16,60.11Zm-3.6-1.66h0v.91h3.6v-.91Z" transform="translate(-17.09 -20.56)"/>
  <path class="cls-16" d="M29.18,58.48H25.57a.64.64,0,0,1-.64-.64l0-1.12.14-.18,1.44-1.46h1.9l1.43,1.55v1.21A.64.64,0,0,1,29.18,58.48Zm-3.51-.66h0Zm0-.08h3.41v-.82l-1-1.1H26.79L25.65,57Z" transform="translate(-17.09 -20.56)"/>
  <path class="cls-16" d="M32.3,59.14l.31-2.83h3v.81H33.39l-.16,1.34a1.74,1.74,0,0,1,.88-.22,1.56,1.56,0,0,1,1.25.51,2,2,0,0,1,.45,1.39,1.86,1.86,0,0,1-.49,1.36A1.82,1.82,0,0,1,34,62a1.89,1.89,0,0,1-1.28-.44,1.59,1.59,0,0,1-.55-1.16H33a.94.94,0,0,0,.29.63.88.88,0,0,0,.63.22.8.8,0,0,0,.67-.31,1.33,1.33,0,0,0,.24-.84,1.21,1.21,0,0,0-.26-.81,1,1,0,0,0-.74-.3,1.11,1.11,0,0,0-.43.07,1.15,1.15,0,0,0-.39.26Zm4.44,4.06-.5-.3a2.46,2.46,0,0,0,.3-.62,1.54,1.54,0,0,0,.09-.52V61h.85v.68a1.78,1.78,0,0,1-.21.82A1.87,1.87,0,0,1,36.74,63.2Zm2.63-4.51H40a1,1,0,0,0,.68-.22.81.81,0,0,0,.26-.64.85.85,0,0,0-.22-.62A.83.83,0,0,0,40,57a.92.92,0,0,0-.62.22.75.75,0,0,0-.24.57h-.94a1.45,1.45,0,0,1,.22-.79,1.6,1.6,0,0,1,.65-.55,2.11,2.11,0,0,1,.92-.2,1.94,1.94,0,0,1,1.32.42,1.49,1.49,0,0,1,.48,1.18,1.19,1.19,0,0,1-.24.71,1.54,1.54,0,0,1-.62.51,1.35,1.35,0,0,1,.7.49,1.4,1.4,0,0,1,.25.82,1.51,1.51,0,0,1-.53,1.2,2.28,2.28,0,0,1-2.69,0,1.45,1.45,0,0,1-.52-1.15h.94a.79.79,0,0,0,.25.6,1,1,0,0,0,.67.23,1,1,0,0,0,.69-.23.87.87,0,0,0,.25-.67.9.9,0,0,0-.26-.69,1.14,1.14,0,0,0-.78-.24h-.56ZM46,59.93h.7v.75H46v1.25H45V60.68H42.59l0-.57L45,56.31h1Zm-2.41,0H45V57.58L45,57.7Zm7.28-2.14a1.33,1.33,0,0,1-.21.74A1.49,1.49,0,0,1,50,59a1.63,1.63,0,0,1,.67.56,1.43,1.43,0,0,1,.24.81,1.47,1.47,0,0,1-.5,1.18,2,2,0,0,1-1.34.43,2,2,0,0,1-1.34-.44,1.45,1.45,0,0,1-.5-1.17,1.43,1.43,0,0,1,.24-.81,1.55,1.55,0,0,1,.67-.56,1.49,1.49,0,0,1-.58-.5,1.33,1.33,0,0,1-.21-.74,1.46,1.46,0,0,1,.47-1.14,1.78,1.78,0,0,1,1.25-.42,1.81,1.81,0,0,1,1.26.42A1.49,1.49,0,0,1,50.83,57.79ZM50,60.35a.9.9,0,0,0-.25-.67,1,1,0,0,0-1.31,0,1.06,1.06,0,0,0,0,1.33.9.9,0,0,0,.67.25.86.86,0,0,0,.66-.24A.9.9,0,0,0,50,60.35Zm-.12-2.53a.88.88,0,0,0-.21-.6.72.72,0,0,0-.57-.24.75.75,0,0,0-.57.23.85.85,0,0,0-.21.61.88.88,0,0,0,.21.62.82.82,0,0,0,1.14,0A.88.88,0,0,0,49.89,57.82ZM52,63.2l-.51-.3a3,3,0,0,0,.31-.62,2.27,2.27,0,0,0,.09-.52V61h.84v.68a1.78,1.78,0,0,1-.21.82A2.12,2.12,0,0,1,52,63.2Zm2.63-4.51h.57a1.06,1.06,0,0,0,.69-.22.8.8,0,0,0,.25-.64.77.77,0,0,0-.85-.85,1,1,0,0,0-.63.22.75.75,0,0,0-.24.57h-.94a1.46,1.46,0,0,1,.23-.79,1.57,1.57,0,0,1,.64-.55,2.14,2.14,0,0,1,.92-.2,2,2,0,0,1,1.33.42,1.49,1.49,0,0,1,.48,1.18,1.19,1.19,0,0,1-.24.71,1.5,1.5,0,0,1-.63.51,1.28,1.28,0,0,1,1,1.31,1.5,1.5,0,0,1-.52,1.2,2.29,2.29,0,0,1-2.7,0,1.45,1.45,0,0,1-.51-1.15h.94a.81.81,0,0,0,.24.6,1,1,0,0,0,.68.23A1,1,0,0,0,56,61a1,1,0,0,0,0-1.36,1.1,1.1,0,0,0-.78-.24h-.55Zm6,3.24h-.93V57.42l-1.38.47v-.8l2.19-.8h.12Zm5.7-5.1L64,61.93H63l2.25-4.87H62.37v-.75h3.89Z" transform="translate(-17.09 -20.56)"/>
  <path class="cls-14" d="M105.89,58a2.23,2.23,0,1,1,2.23-2.23A2.22,2.22,0,0,1,105.89,58Zm0-3.47a1.24,1.24,0,1,0,1.24,1.24A1.25,1.25,0,0,0,105.89,54.51Z" transform="translate(-17.09 -20.56)"/>
  <path class="cls-14" d="M109.3,64.41H103a2,2,0,0,1-1.87-2.63l.51-1.48A2,2,0,0,1,103.49,59h5.29a2,2,0,0,1,1.88,1.34l.51,1.48a2,2,0,0,1-1.87,2.63ZM103.49,60a1,1,0,0,0-.94.67L102,62.11a1,1,0,0,0,.13.89,1,1,0,0,0,.81.42h6.32a1,1,0,0,0,.8-.42,1,1,0,0,0,.13-.89l-.51-1.49a1,1,0,0,0-.94-.67Z" transform="translate(-17.09 -20.56)"/>
  <path class="cls-19" d="M84.28,56.07a3.72,3.72,0,1,1-5.26,0A3.72,3.72,0,0,1,84.28,56.07Zm1.17,5.41a4.73,4.73,0,1,0-.67.73l3.1,2.39.61-.78Z" transform="translate(-17.09 -20.56)"/>
  <path class="cls-14" d="M128.62,64.39l-4.46-5.18A3.87,3.87,0,0,1,123,56.1a3.4,3.4,0,0,1,2.31-2.9,2.75,2.75,0,0,1,3.16,1,4.24,4.24,0,0,1,.31.4,4.9,4.9,0,0,1,.43-.47,3.06,3.06,0,0,1,3.31-.93,3.41,3.41,0,0,1,2.32,2.9,3.92,3.92,0,0,1-1.24,3.14ZM126.2,54a1.53,1.53,0,0,0-.58.11,2.41,2.41,0,0,0-1.68,2.06,2.93,2.93,0,0,0,.92,2.32l0,0,3.76,4.37,4.21-4.38a2.92,2.92,0,0,0,.94-2.35,2.39,2.39,0,0,0-1.68-2.06,2.18,2.18,0,0,0-2.27.7,5.39,5.39,0,0,0-.74.94l-.46.75-.4-.79a5,5,0,0,0-.58-.9A2,2,0,0,0,126.2,54Z" transform="translate(-17.09 -20.56)"/>
  <g>
    <path class="cls-20" d="M156.37,64.42H149A2.32,2.32,0,0,1,146.75,62V56.27h11.87V62A2.32,2.32,0,0,1,156.37,64.42Zm-8.63-7.16V62a1.34,1.34,0,0,0,1.26,1.4h7.37a1.34,1.34,0,0,0,1.26-1.4V57.26Z" transform="translate(-17.09 -20.56)"/>
    <path class="cls-14" d="M155.67,59.82h-1V56.43a2,2,0,1,0-4,0v3.39h-1V56.43a3,3,0,1,1,6,0Z" transform="translate(-17.09 -20.56)"/>
  </g>
  <path class="cls-3" d="M28,23.36H26.85a1,1,0,0,1-1-.95v-.65a1,1,0,0,1,1-1H28a1,1,0,0,1,1,1v.65A1,1,0,0,1,28,23.36Zm-1.12-1.81a.21.21,0,0,0-.22.21v.65a.21.21,0,0,0,.22.21H28a.21.21,0,0,0,.22-.21v-.65a.21.21,0,0,0-.22-.21Z" transform="translate(-17.09 -20.56)"/>
  <path class="cls-3" d="M28.78,32.09H25.94A1.12,1.12,0,0,1,24.82,31V29.22a.65.65,0,0,1,.65-.65h3.78a.65.65,0,0,1,.65.65V31A1.12,1.12,0,0,1,28.78,32.09Zm-3.22-2.78V31a.38.38,0,0,0,.38.38h2.84a.38.38,0,0,0,.38-.38V29.31Z" transform="translate(-17.09 -20.56)"/>
  <path class="cls-3" d="M29.16,29.31h-3.6a.75.75,0,0,1-.74-.75v-.91a.74.74,0,0,1,.74-.74h3.6a.74.74,0,0,1,.74.74v.91A.75.75,0,0,1,29.16,29.31Zm-3.6-1.66h0v.91h3.6v-.92Z" transform="translate(-17.09 -20.56)"/>
  <path class="cls-3" d="M29.16,27.65h-3.6a.74.74,0,0,1-.74-.74V26a.74.74,0,0,1,.74-.74h3.6a.74.74,0,0,1,.74.74v.92A.74.74,0,0,1,29.16,27.65ZM25.56,26h0v.92h3.6V26Z" transform="translate(-17.09 -20.56)"/>
  <path class="cls-3" d="M29.18,26H25.57a.64.64,0,0,1-.64-.64l0-1.12.14-.18,1.44-1.46h1.9l1.43,1.55v1.21A.64.64,0,0,1,29.18,26Zm-3.51-.66Zm0-.09h3.41v-.81l-1-1.1H26.79l-1.14,1.15Z" transform="translate(-17.09 -20.56)"/>
  <path class="cls-3" d="M32.3,26.68l.31-2.84h3v.82H33.39L33.23,26a1.74,1.74,0,0,1,.88-.22,1.56,1.56,0,0,1,1.25.51,2,2,0,0,1,.45,1.38A1.87,1.87,0,0,1,35.32,29a1.82,1.82,0,0,1-1.36.51,1.89,1.89,0,0,1-1.28-.44A1.59,1.59,0,0,1,32.13,28H33a.94.94,0,0,0,.29.63.88.88,0,0,0,.63.22.8.8,0,0,0,.67-.31,1.35,1.35,0,0,0,.24-.84,1.18,1.18,0,0,0-.26-.81.92.92,0,0,0-.74-.31,1.33,1.33,0,0,0-.43.07,1.2,1.2,0,0,0-.39.27Zm4.44,4.06-.5-.3a2.46,2.46,0,0,0,.3-.62,1.6,1.6,0,0,0,.09-.53v-.73h.85v.68a1.78,1.78,0,0,1-.21.82A2,2,0,0,1,36.74,30.74Zm2.63-4.51H40a1,1,0,0,0,.68-.23.77.77,0,0,0,.26-.63.89.89,0,0,0-.22-.63,1,1,0,0,0-1.26,0,.73.73,0,0,0-.24.57h-.94a1.45,1.45,0,0,1,.22-.79A1.53,1.53,0,0,1,39.1,24a2,2,0,0,1,.92-.2,1.94,1.94,0,0,1,1.32.42,1.48,1.48,0,0,1,.48,1.18,1.19,1.19,0,0,1-.24.71,1.51,1.51,0,0,1-.62.5,1.43,1.43,0,0,1,.7.5,1.39,1.39,0,0,1,.25.81,1.51,1.51,0,0,1-.53,1.21,2,2,0,0,1-1.36.45,2.06,2.06,0,0,1-1.33-.43A1.46,1.46,0,0,1,38.17,28h.94a.79.79,0,0,0,.25.61,1,1,0,0,0,.67.23,1,1,0,0,0,.69-.23.88.88,0,0,0,.25-.68.9.9,0,0,0-.26-.68,1.14,1.14,0,0,0-.78-.24h-.56ZM46,27.47h.7v.75H46v1.25H45V28.22H42.59l0-.57L45,23.84h1Zm-2.41,0H45V25.12l-.07.12Zm7.28-2.14a1.36,1.36,0,0,1-.21.74,1.49,1.49,0,0,1-.58.5,1.63,1.63,0,0,1,.67.56,1.43,1.43,0,0,1,.24.81,1.49,1.49,0,0,1-.5,1.18,2,2,0,0,1-1.34.43,2,2,0,0,1-1.34-.44,1.45,1.45,0,0,1-.5-1.17,1.4,1.4,0,0,1,.24-.81,1.55,1.55,0,0,1,.67-.56,1.49,1.49,0,0,1-.58-.5,1.36,1.36,0,0,1-.21-.74,1.46,1.46,0,0,1,.47-1.14,1.78,1.78,0,0,1,1.25-.42,1.81,1.81,0,0,1,1.26.42A1.49,1.49,0,0,1,50.83,25.33ZM50,27.89a.9.9,0,0,0-.25-.67,1,1,0,0,0-1.31,0,1,1,0,0,0-.24.68.93.93,0,0,0,.23.66.9.9,0,0,0,.67.25.86.86,0,0,0,.66-.24A.9.9,0,0,0,50,27.89Zm-.12-2.53a.88.88,0,0,0-.21-.6.72.72,0,0,0-.57-.24.75.75,0,0,0-.57.23.85.85,0,0,0-.21.61.88.88,0,0,0,.21.62.82.82,0,0,0,1.14,0A.88.88,0,0,0,49.89,25.36ZM52,30.74l-.51-.3a3,3,0,0,0,.31-.62,2.35,2.35,0,0,0,.09-.53v-.73h.84v.68a1.78,1.78,0,0,1-.21.82A2.23,2.23,0,0,1,52,30.74Zm2.63-4.51h.57a1,1,0,0,0,.69-.23.77.77,0,0,0,.25-.63.76.76,0,0,0-.85-.85.9.9,0,0,0-.63.22.73.73,0,0,0-.24.57h-.94a1.46,1.46,0,0,1,.23-.79,1.5,1.5,0,0,1,.64-.55,2,2,0,0,1,.92-.2,2,2,0,0,1,1.33.42,1.48,1.48,0,0,1,.48,1.18,1.19,1.19,0,0,1-.24.71,1.48,1.48,0,0,1-.63.5,1.46,1.46,0,0,1,.71.5,1.38,1.38,0,0,1,.24.81,1.5,1.5,0,0,1-.52,1.21,2,2,0,0,1-1.37.45,2.06,2.06,0,0,1-1.33-.43A1.45,1.45,0,0,1,53.41,28h.94a.82.82,0,0,0,.24.61,1,1,0,0,0,.68.23,1,1,0,0,0,.68-.23.88.88,0,0,0,.26-.68.87.87,0,0,0-.27-.68,1.1,1.1,0,0,0-.78-.24h-.55Zm6,3.24h-.93V25l-1.38.47v-.79l2.19-.81h.12Zm5.7-5.1L64,29.47H63l2.25-4.87H62.37v-.76h3.89Z" transform="translate(-17.09 -20.56)"/>
  <path class="cls-3" d="M105.89,25.51a2.23,2.23,0,1,1,2.23-2.22A2.22,2.22,0,0,1,105.89,25.51Zm0-3.46a1.24,1.24,0,1,0,1.24,1.24A1.25,1.25,0,0,0,105.89,22.05Z" transform="translate(-17.09 -20.56)"/>
  <path class="cls-3" d="M109.3,31.94H103a2,2,0,0,1-1.87-2.62l.51-1.48a2,2,0,0,1,1.87-1.34h5.29a2,2,0,0,1,1.88,1.34l.51,1.48a2,2,0,0,1-1.87,2.62Zm-5.81-4.45a1,1,0,0,0-.94.67L102,29.64a1,1,0,0,0,.13.9A1,1,0,0,0,103,31h6.32a1,1,0,0,0,.8-.41,1,1,0,0,0,.13-.9l-.51-1.48a1,1,0,0,0-.94-.67Z" transform="translate(-17.09 -20.56)"/>
  <path class="cls-21" d="M84.28,23.61a3.72,3.72,0,1,1-5.26,0A3.72,3.72,0,0,1,84.28,23.61ZM85.45,29a4.73,4.73,0,1,0-.67.73l3.1,2.39.61-.78Z" transform="translate(-17.09 -20.56)"/>
  <path class="cls-3" d="M128.62,31.93l-4.46-5.18a3.87,3.87,0,0,1-1.2-3.11,3.39,3.39,0,0,1,2.31-2.9,2.75,2.75,0,0,1,3.16,1,4.24,4.24,0,0,1,.31.4,4.9,4.9,0,0,1,.43-.47,3.06,3.06,0,0,1,3.31-.93,3.4,3.4,0,0,1,2.32,2.9,3.92,3.92,0,0,1-1.24,3.14ZM126.2,21.56a1.53,1.53,0,0,0-.58.11,2.41,2.41,0,0,0-1.68,2.06,2.93,2.93,0,0,0,.92,2.32l0,0,3.76,4.37,4.21-4.38a3,3,0,0,0,.94-2.35,2.39,2.39,0,0,0-1.68-2.06,2.18,2.18,0,0,0-2.27.7,5.39,5.39,0,0,0-.74.94l-.46.75-.4-.79a5,5,0,0,0-.58-.9A2,2,0,0,0,126.2,21.56Z" transform="translate(-17.09 -20.56)"/>
  <g>
    <path class="cls-3" d="M156.37,32H149a2.32,2.32,0,0,1-2.25-2.39V23.81h11.87v5.76A2.32,2.32,0,0,1,156.37,32Zm-8.63-7.16v4.77A1.34,1.34,0,0,0,149,31h7.37a1.34,1.34,0,0,0,1.26-1.4V24.8Z" transform="translate(-17.09 -20.56)"/>
    <path class="cls-3" d="M155.67,27.36h-1V24a2,2,0,1,0-4,0v3.39h-1V24a3,3,0,1,1,6,0Z" transform="translate(-17.09 -20.56)"/>
  </g>
  <path class="cls-3" d="M164.65,70.7H140.72V46.77h23.93Zm-23.74-.19h23.55V47H140.91Z" transform="translate(-17.09 -20.56)"/>
  <path class="cls-3" d="M140.91,70.7H117V46.77h23.94Zm-23.75-.19h23.56V47H117.16Z" transform="translate(-17.09 -20.56)"/>
  <path class="cls-3" d="M117.16,70.7H93.23V46.77h23.93Zm-23.74-.19H117V47H93.42Z" transform="translate(-17.09 -20.56)"/>
  <path class="cls-3" d="M93.42,70.7H69.49V46.77H93.42Zm-23.74-.19H93.23V47H69.68Z" transform="translate(-17.09 -20.56)"/>
  <path class="cls-3" d="M69.68,70.7H18.53V46.77H69.68Zm-51-.19H69.49V47H18.72Z" transform="translate(-17.09 -20.56)"/>
  <rect class="cls-3" x="1.78" y="32.63" width="145.16" height="0.19"/>
  <rect class="cls-3" x="2.06" y="44.01" width="145.16" height="0.19"/>
  <g>
    <path d="M166.19,26.63a5,5,0,0,1,.81-2.75l.16.09a5,5,0,0,0-.73,2.66,5,5,0,0,0,.73,2.65l-.16.1A5.05,5.05,0,0,1,166.19,26.63Z" transform="translate(-17.09 -20.56)"/>
    <path d="M167.92,24h.26v1.91a1.41,1.41,0,0,1,1-.53c.6,0,.88.36.88,1.12v1.87h-.27V26.48c0-.62-.19-.91-.66-.91s-.6.18-1,.55v2.2h-.26Z" transform="translate(-17.09 -20.56)"/>
    <path d="M170.88,26.86a1.33,1.33,0,1,1,2.62,0,1.33,1.33,0,1,1-2.62,0Zm2.33,0c0-.76-.43-1.3-1-1.3s-1,.54-1,1.3.44,1.29,1,1.29S173.21,27.63,173.21,26.86Z" transform="translate(-17.09 -20.56)"/>
    <path d="M173.88,25.4h.29l.66,1.83c.09.28.2.57.29.83h0c.09-.26.2-.55.29-.83l.66-1.83h.27l-1.08,2.92H175Z" transform="translate(-17.09 -20.56)"/>
    <path d="M176.75,26.86A1.39,1.39,0,0,1,178,25.33c.69,0,1.11.49,1.11,1.35a1.48,1.48,0,0,1,0,.21H177a1.14,1.14,0,0,0,1.1,1.27,1.35,1.35,0,0,0,.78-.26l.11.2a1.55,1.55,0,0,1-.92.29A1.38,1.38,0,0,1,176.75,26.86Zm2.14-.19c0-.74-.34-1.11-.86-1.11a1.09,1.09,0,0,0-1,1.11Z" transform="translate(-17.09 -20.56)"/>
    <path d="M179.93,25.4h.23l0,.54h0a1,1,0,0,1,.83-.61.56.56,0,0,1,.29.06l-.06.24a.58.58,0,0,0-.26-.05c-.26,0-.58.2-.8.75v2h-.27Z" transform="translate(-17.09 -20.56)"/>
    <path d="M181.5,29.28a5,5,0,0,0,.72-2.65A5,5,0,0,0,181.5,24l.16-.09a5.13,5.13,0,0,1,0,5.5Z" transform="translate(-17.09 -20.56)"/>
  </g>
</svg>
