<?xml version="1.0" encoding="utf-8"?>
<!-- Generator: Adobe Illustrator 24.2.0, SVG Export Plug-In . SVG Version: 6.00 Build 0)  -->
<svg version="1.1" id="Livello_1" xmlns="http://www.w3.org/2000/svg" xmlns:xlink="http://www.w3.org/1999/xlink" x="0px" y="0px"
	 viewBox="0 0 354.9 223.8" style="enable-background:new 0 0 354.9 223.8;" xml:space="preserve">
<style type="text/css">
	.st0{fill:#ADADAD;}
	.st1{fill:none;stroke:#000000;stroke-width:9.880000e-02;stroke-miterlimit:10;}
	.st2{clip-path:url(#SVGID_2_);}
	.st3{fill:none;stroke:#1D1D1B;stroke-width:0.1549;stroke-miterlimit:10;}
	.st4{fill:none;stroke:#1D1D1B;stroke-width:0.1619;stroke-miterlimit:10;}
	.st5{fill:none;stroke:#1D1D1B;stroke-width:0.1607;stroke-miterlimit:10;}
</style>
<g>
	<g>
		<path class="st0" d="M218.2,25.9L218.2,25.9l1.7-4h0.5v4.6H220v-3.8h0l-1.6,3.9H218l-1.7-3.9h0v3.9H216v-4.6h0.5L218.2,25.9z"/>
		<path class="st0" d="M224.9,24.6c0,0.6-0.2,1.1-0.5,1.4c-0.3,0.4-0.8,0.5-1.3,0.5s-1-0.2-1.3-0.5c-0.3-0.4-0.5-0.8-0.5-1.4v-0.8
			c0-0.6,0.2-1.1,0.5-1.4c0.3-0.4,0.8-0.5,1.3-0.5c0.6,0,1,0.2,1.3,0.5c0.3,0.4,0.5,0.8,0.5,1.4V24.6L224.9,24.6z M224.5,23.8
			c0-0.5-0.1-0.9-0.4-1.2s-0.6-0.5-1-0.5c-0.4,0-0.8,0.1-1,0.5c-0.3,0.3-0.4,0.7-0.4,1.2v0.8c0,0.5,0.1,0.9,0.4,1.2
			c0.2,0.3,0.6,0.5,1,0.5c0.4,0,0.8-0.1,1-0.5s0.4-0.7,0.4-1.2L224.5,23.8L224.5,23.8z"/>
		<path class="st0" d="M225.9,26.5v-4.6h1.3c0.5,0,0.8,0.1,1.1,0.3c0.3,0.2,0.4,0.5,0.4,0.9c0,0.2-0.1,0.4-0.2,0.6s-0.3,0.3-0.5,0.4
			c0.3,0,0.5,0.2,0.7,0.4c0.2,0.2,0.3,0.5,0.3,0.8c0,0.4-0.1,0.7-0.4,0.9c-0.3,0.2-0.6,0.3-1.1,0.3
			C227.5,26.5,225.9,26.5,225.9,26.5z M226.2,23.9h1.1c0.3,0,0.6-0.1,0.7-0.2c0.2-0.1,0.3-0.4,0.3-0.6c0-0.3-0.1-0.5-0.3-0.6
			c-0.2-0.1-0.5-0.2-0.8-0.2h-1V23.9L226.2,23.9z M226.2,24.3v1.9h1.3c0.3,0,0.6-0.1,0.8-0.3c0.2-0.2,0.3-0.4,0.3-0.7
			c0-0.3-0.1-0.5-0.3-0.7c-0.2-0.2-0.4-0.3-0.8-0.3h-0.1C227.5,24.3,226.2,24.3,226.2,24.3z"/>
		<path class="st0" d="M230.3,26.5h-0.4v-4.6h0.4V26.5z"/>
		<path class="st0" d="M231.9,26.1h2.4v0.3h-2.7v-4.6h0.4L231.9,26.1L231.9,26.1z"/>
		<path class="st0" d="M237.5,24.2h-2.1v1.9h2.4v0.3h-2.8v-4.6h2.7v0.3h-2.4v1.7h2.1V24.2z"/>
	</g>
</g>
<path class="st1" d="M341.9,167.3"/>
<path class="st1" d="M294,167.3"/>
<g>
	<g>
		<path class="st0" d="M91.6,26.5v-4.6H93c0.6,0,1,0.2,1.4,0.6c0.4,0.4,0.6,0.9,0.6,1.4v0.6c0,0.6-0.2,1.1-0.6,1.4
			c-0.4,0.4-0.8,0.6-1.4,0.6L91.6,26.5L91.6,26.5z M92,22.2v3.9h1c0.4,0,0.8-0.2,1.1-0.5c0.3-0.3,0.4-0.7,0.4-1.2v-0.6
			c0-0.5-0.2-0.9-0.4-1.2c-0.3-0.3-0.7-0.5-1.1-0.5L92,22.2L92,22.2z"/>
		<path class="st0" d="M98.4,24.2h-2.1v1.9h2.4v0.3h-2.8v-4.6h2.7v0.3h-2.4v1.7h2.1V24.2z"/>
		<path class="st0" d="M102.1,25.4c0-0.2-0.1-0.4-0.3-0.6c-0.2-0.2-0.5-0.3-0.9-0.4c-0.5-0.1-0.9-0.3-1.1-0.5s-0.4-0.5-0.4-0.8
			c0-0.4,0.1-0.6,0.4-0.9c0.3-0.2,0.7-0.3,1.1-0.3c0.5,0,0.8,0.1,1.1,0.4c0.3,0.3,0.4,0.6,0.4,1l0,0h-0.3c0-0.3-0.1-0.5-0.3-0.8
			s-0.5-0.3-0.8-0.3c-0.4,0-0.6,0.1-0.8,0.3s-0.3,0.4-0.3,0.6c0,0.2,0.1,0.4,0.3,0.6s0.5,0.3,1,0.4c0.5,0.1,0.8,0.3,1.1,0.5
			c0.3,0.2,0.4,0.5,0.4,0.8c0,0.4-0.2,0.6-0.4,0.9c-0.3,0.2-0.7,0.3-1.1,0.3s-0.8-0.1-1.2-0.3c-0.3-0.2-0.5-0.6-0.5-1l0,0h0.3
			c0,0.4,0.1,0.6,0.4,0.8c0.3,0.2,0.6,0.3,0.9,0.3c0.3,0,0.6-0.1,0.9-0.2C102,25.8,102.1,25.6,102.1,25.4z"/>
		<path class="st0" d="M104.3,24.3h-0.5v2.2h-0.4v-4.6h0.4V24h0.5l1.8-2.1h0.4l0,0l-1.9,2.2l2.1,2.4l0,0h-0.4L104.3,24.3z"/>
		<path class="st0" d="M110.5,22.2h-1.6v4.3h-0.4v-4.3h-1.6v-0.3h3.5L110.5,22.2C110.4,22.2,110.5,22.2,110.5,22.2z"/>
		<path class="st0" d="M114.5,24.6c0,0.6-0.2,1.1-0.5,1.4s-0.8,0.5-1.3,0.5s-1-0.2-1.3-0.5c-0.3-0.4-0.5-0.8-0.5-1.4v-0.8
			c0-0.6,0.2-1.1,0.5-1.4c0.3-0.4,0.8-0.5,1.3-0.5c0.6,0,1,0.2,1.3,0.5c0.3,0.4,0.5,0.8,0.5,1.4L114.5,24.6L114.5,24.6z M114.1,23.8
			c0-0.5-0.1-0.9-0.4-1.2c-0.3-0.3-0.6-0.5-1-0.5s-0.8,0.1-1,0.5c-0.2,0.3-0.4,0.7-0.4,1.2v0.8c0,0.5,0.1,0.9,0.4,1.2
			c0.3,0.3,0.6,0.5,1,0.5c0.4,0,0.8-0.1,1-0.5c0.3-0.3,0.4-0.7,0.4-1.2L114.1,23.8L114.1,23.8z"/>
		<path class="st0" d="M115.8,24.6v1.9h-0.4v-4.6h1.6c0.5,0,0.8,0.1,1.1,0.4s0.4,0.6,0.4,1c0,0.4-0.1,0.7-0.4,1
			c-0.3,0.2-0.6,0.4-1.1,0.4H115.8z M115.8,24.2h1.2c0.4,0,0.7-0.1,0.8-0.3c0.2-0.2,0.3-0.4,0.3-0.7c0-0.3-0.1-0.5-0.3-0.7
			c-0.2-0.2-0.5-0.3-0.8-0.3h-1.2V24.2z"/>
	</g>
</g>
<image style="overflow:visible;" width="236" height="837" xlink:href="../../../../Pictures/girlfriend wire5.png"  transform="matrix(0.1972 0 0 0.1972 250.3753 31.8964)">
</image>
<image style="overflow:visible;" width="235" height="767" xlink:href="../../../../Pictures/girlfriend wire6.png"  transform="matrix(0.1972 0 0 0.1972 303.5304 31.4423)">
</image>
<g>
	<defs>
		<rect id="SVGID_1_" x="194.3" y="29.5" width="50.4" height="182.9"/>
	</defs>
	<clipPath id="SVGID_2_">
		<use xlink:href="#SVGID_1_"  style="overflow:visible;"/>
	</clipPath>
	<g class="st2">
		
			<image style="overflow:visible;" width="237" height="812" xlink:href="../../../../Pictures/girlfriend wire4b.png"  transform="matrix(0.1972 0 0 0.1972 196.0385 194.5401)">
		</image>
		
			<image style="overflow:visible;" width="237" height="830" xlink:href="../../../../Pictures/girlfriend wire4a.png"  transform="matrix(0.1972 0 0 0.1972 196.0385 31.6924)">
		</image>
	</g>
</g>
<rect x="302.5" y="31.4" class="st3" width="47.2" height="151.3"/>
<rect x="250.5" y="31.4" class="st4" width="47.4" height="164.5"/>
<rect x="196" y="31.4" class="st5" width="46.7" height="164.5"/>
</svg>
