<?xml version="1.0" encoding="utf-8"?>
<!-- Generator: Adobe Illustrator 24.2.0, SVG Export Plug-In . SVG Version: 6.00 Build 0)  -->
<svg version="1.1" id="Livello_1" xmlns="http://www.w3.org/2000/svg" xmlns:xlink="http://www.w3.org/1999/xlink" x="0px" y="0px"
	 viewBox="0 0 321.7 250.2" style="enable-background:new 0 0 321.7 250.2;" xml:space="preserve">
<style type="text/css">
	.st0{fill:#0E0303;fill-opacity:0.87;}
	.st1{fill:#6D5C5C;}
	.st2{fill:#895150;}
	.st3{fill:#592523;}
	.st4{fill:#B88989;}
	.st5{fill:#F2EBEB;}
	.st6{fill:#FFFFFF;}
	.st7{fill:#DDD3D3;}
</style>
<g>
	<path d="M195.9,117.1h1c0.9,0,1.4,0.3,1.4,1.1c0,0.8-0.5,1.1-1.4,1.1h-0.7v1.7h-0.3V117.1z M196.9,119.1c0.8,0,1.2-0.3,1.2-0.9
		c0-0.6-0.4-0.8-1.2-0.8h-0.6v1.7H196.9z"/>
	<path d="M199.1,119.9v-1.8h0.3v1.8c0,0.6,0.2,0.9,0.6,0.9c0.3,0,0.6-0.2,0.9-0.6v-2.1h0.3v2.8h-0.2l0-0.5h0c-0.3,0.3-0.6,0.5-1,0.5
		C199.4,121,199.1,120.7,199.1,119.9z"/>
	<path d="M202.2,120.6v-3.8h0.3v3.9c0,0.1,0.1,0.2,0.1,0.2c0,0,0,0,0.1,0l0,0.2c-0.1,0-0.1,0-0.2,0
		C202.3,121,202.2,120.9,202.2,120.6z"/>
	<path d="M203.3,120.6l0.1-0.2c0.2,0.2,0.5,0.4,0.9,0.4c0.4,0,0.7-0.3,0.7-0.6c0-0.4-0.4-0.5-0.7-0.6c-0.4-0.2-0.9-0.3-0.9-0.8
		c0-0.4,0.3-0.7,0.9-0.7c0.3,0,0.6,0.1,0.8,0.3l-0.1,0.2c-0.2-0.1-0.4-0.3-0.7-0.3c-0.4,0-0.6,0.3-0.6,0.5c0,0.3,0.3,0.4,0.7,0.6
		c0.4,0.2,0.9,0.3,0.9,0.9c0,0.4-0.3,0.8-0.9,0.8C203.9,121,203.5,120.8,203.3,120.6z"/>
	<path d="M205.8,120.2c0-0.6,0.6-0.9,1.8-1.1c0-0.4-0.1-0.9-0.7-0.9c-0.4,0-0.7,0.2-0.9,0.3l-0.1-0.2c0.2-0.1,0.6-0.4,1-0.4
		c0.7,0,0.9,0.5,0.9,1.1v1.8h-0.2l0-0.4h0c-0.3,0.2-0.6,0.4-1,0.4C206.1,121,205.8,120.8,205.8,120.2z M207.6,120.3v-1
		c-1.2,0.1-1.5,0.4-1.5,0.8c0,0.4,0.3,0.6,0.6,0.6C207,120.8,207.2,120.6,207.6,120.3z"/>
	<path d="M208.9,118.1h0.2l0,0.4h0c0.3-0.3,0.6-0.5,1-0.5c0.6,0,0.8,0.4,0.8,1.1v1.8h-0.3v-1.8c0-0.6-0.2-0.9-0.6-0.9
		c-0.3,0-0.6,0.2-0.9,0.5v2.1h-0.3V118.1z"/>
	<path d="M212,120.2v-1.8h-0.4v-0.2l0.4,0l0-0.8h0.2v0.8h0.8v0.2h-0.8v1.8c0,0.4,0.1,0.6,0.5,0.6c0.1,0,0.3,0,0.4-0.1l0.1,0.2
		c-0.2,0.1-0.3,0.1-0.5,0.1C212.2,121,212,120.7,212,120.2z"/>
	<path d="M213.7,117.2c0-0.1,0.1-0.2,0.2-0.2c0.1,0,0.2,0.1,0.2,0.2c0,0.1-0.1,0.2-0.2,0.2C213.8,117.5,213.7,117.4,213.7,117.2z
		 M213.8,118.1h0.3v2.8h-0.3V118.1z"/>
	<path d="M216.3,118.1h0.2l0,0.4h0c0.3-0.2,0.6-0.4,1-0.4c0.8,0,1.1,0.6,1.1,1.4c0,1-0.6,1.5-1.2,1.5c-0.3,0-0.6-0.1-0.8-0.3l0,0.5
		v1h-0.3V118.1z M218.4,119.5c0-0.7-0.2-1.2-0.9-1.2c-0.3,0-0.6,0.2-0.9,0.5v1.7c0.3,0.3,0.6,0.4,0.8,0.4
		C218,120.8,218.4,120.3,218.4,119.5z"/>
	<path d="M219.5,118.1h0.2l0,0.5h0c0.2-0.3,0.5-0.6,0.8-0.6c0.1,0,0.2,0,0.3,0.1l-0.1,0.2c-0.1,0-0.1,0-0.3,0
		c-0.3,0-0.6,0.2-0.8,0.7v1.9h-0.3V118.1z"/>
	<path d="M221.2,117.2c0-0.1,0.1-0.2,0.2-0.2c0.1,0,0.2,0.1,0.2,0.2c0,0.1-0.1,0.2-0.2,0.2C221.3,117.5,221.2,117.4,221.2,117.2z
		 M221.3,118.1h0.3v2.8h-0.3V118.1z"/>
	<path d="M222.7,118.1h0.2l0,0.4h0c0.3-0.3,0.6-0.5,0.9-0.5c0.5,0,0.7,0.2,0.8,0.6c0.3-0.4,0.6-0.6,1-0.6c0.6,0,0.8,0.4,0.8,1.1v1.8
		h-0.3v-1.8c0-0.6-0.2-0.9-0.6-0.9c-0.3,0-0.5,0.2-0.8,0.5v2.1h-0.3v-1.8c0-0.6-0.2-0.9-0.6-0.9c-0.3,0-0.5,0.2-0.8,0.5v2.1h-0.3
		V118.1z"/>
	<path d="M227.2,120.2c0-0.6,0.6-0.9,1.8-1.1c0-0.4-0.1-0.9-0.7-0.9c-0.4,0-0.7,0.2-0.9,0.3l-0.1-0.2c0.2-0.1,0.6-0.4,1-0.4
		c0.7,0,0.9,0.5,0.9,1.1v1.8h-0.2l0-0.4h0c-0.3,0.2-0.6,0.4-1,0.4C227.6,121,227.2,120.8,227.2,120.2z M229,120.3v-1
		c-1.2,0.1-1.5,0.4-1.5,0.8c0,0.4,0.3,0.6,0.6,0.6C228.4,120.8,228.7,120.6,229,120.3z"/>
	<path d="M230.3,118.1h0.2l0,0.5h0c0.2-0.3,0.5-0.6,0.8-0.6c0.1,0,0.2,0,0.3,0.1l-0.1,0.2c-0.1,0-0.1,0-0.3,0
		c-0.3,0-0.6,0.2-0.8,0.7v1.9h-0.3V118.1z"/>
	<path d="M232.1,117.2c0-0.1,0.1-0.2,0.2-0.2c0.1,0,0.2,0.1,0.2,0.2c0,0.1-0.1,0.2-0.2,0.2C232.2,117.5,232.1,117.4,232.1,117.2z
		 M232.2,118.1h0.3v2.8h-0.3V118.1z"/>
	<path d="M234.6,119.3c0-1,0.3-1.9,0.8-2.6l0.2,0.1c-0.5,0.7-0.7,1.6-0.7,2.6s0.2,1.8,0.7,2.6l-0.2,0.1
		C234.9,121.2,234.6,120.3,234.6,119.3z"/>
	<path d="M237,119.1H236v-0.2h1.1v-1.2h0.2v1.2h1.1v0.2h-1.1v1.2H237V119.1z"/>
	<path d="M240,119.5c0-0.9,0.6-1.5,1.3-1.5c0.7,0,1.3,0.5,1.3,1.5c0,0.9-0.6,1.5-1.3,1.5C240.6,121,240,120.5,240,119.5z
		 M242.3,119.5c0-0.7-0.4-1.3-1-1.3c-0.6,0-1,0.5-1,1.3s0.4,1.2,1,1.2C241.9,120.8,242.3,120.3,242.3,119.5z"/>
	<path d="M243.4,118.1h0.2l0,0.4h0c0.3-0.3,0.6-0.5,1-0.5c0.6,0,0.8,0.4,0.8,1.1v1.8h-0.3v-1.8c0-0.6-0.2-0.9-0.6-0.9
		c-0.3,0-0.6,0.2-0.9,0.5v2.1h-0.3V118.1z"/>
	<path d="M247.7,118.1h0.2l0,0.4h0c0.3-0.2,0.6-0.4,1-0.4c0.8,0,1.1,0.6,1.1,1.4c0,1-0.6,1.5-1.2,1.5c-0.3,0-0.6-0.1-0.8-0.3l0,0.5
		v1h-0.3V118.1z M249.8,119.5c0-0.7-0.2-1.2-0.9-1.2c-0.3,0-0.6,0.2-0.9,0.5v1.7c0.3,0.3,0.6,0.4,0.8,0.4
		C249.4,120.8,249.8,120.3,249.8,119.5z"/>
	<path d="M250.9,118.1h0.2l0,0.5h0c0.2-0.3,0.5-0.6,0.8-0.6c0.1,0,0.2,0,0.3,0.1l-0.1,0.2c-0.1,0-0.1,0-0.3,0
		c-0.3,0-0.6,0.2-0.8,0.7v1.9h-0.3V118.1z"/>
	<path d="M252.4,119.5c0-0.9,0.6-1.5,1.2-1.5c0.7,0,1.1,0.5,1.1,1.3c0,0.1,0,0.1,0,0.2h-2c0,0.7,0.4,1.2,1.1,1.2
		c0.3,0,0.5-0.1,0.8-0.2l0.1,0.2c-0.2,0.1-0.5,0.3-0.9,0.3C253,121,252.4,120.5,252.4,119.5z M254.5,119.4c0-0.7-0.3-1.1-0.8-1.1
		c-0.5,0-0.9,0.4-1,1.1H254.5z"/>
	<path d="M255.2,120.6l0.2-0.2c0.2,0.2,0.5,0.4,0.9,0.4c0.4,0,0.7-0.3,0.7-0.6c0-0.4-0.4-0.5-0.7-0.6c-0.4-0.2-0.9-0.3-0.9-0.8
		c0-0.4,0.3-0.7,0.9-0.7c0.3,0,0.6,0.1,0.8,0.3l-0.1,0.2c-0.2-0.1-0.4-0.3-0.7-0.3c-0.4,0-0.6,0.3-0.6,0.5c0,0.3,0.3,0.4,0.7,0.6
		c0.4,0.2,0.9,0.3,0.9,0.9c0,0.4-0.3,0.8-0.9,0.8C255.8,121,255.4,120.8,255.2,120.6z"/>
	<path d="M257.5,120.6l0.1-0.2c0.2,0.2,0.5,0.4,0.9,0.4c0.4,0,0.7-0.3,0.7-0.6c0-0.4-0.4-0.5-0.7-0.6c-0.4-0.2-0.9-0.3-0.9-0.8
		c0-0.4,0.3-0.7,0.9-0.7c0.3,0,0.6,0.1,0.8,0.3l-0.1,0.2c-0.2-0.1-0.4-0.3-0.7-0.3c-0.4,0-0.6,0.3-0.6,0.5c0,0.3,0.3,0.4,0.7,0.6
		c0.4,0.2,0.9,0.3,0.9,0.9c0,0.4-0.3,0.8-0.9,0.8C258.1,121,257.8,120.8,257.5,120.6z"/>
	<path d="M261.2,119.5c0-0.9,0.6-1.5,1.3-1.5c0.4,0,0.6,0.2,0.8,0.3l-0.2,0.2c-0.2-0.2-0.4-0.3-0.7-0.3c-0.6,0-1,0.5-1,1.3
		s0.4,1.2,1,1.2c0.3,0,0.6-0.1,0.8-0.3l0.1,0.2c-0.2,0.2-0.5,0.4-0.9,0.4C261.7,121,261.2,120.5,261.2,119.5z"/>
	<path d="M263.7,119.5c0-0.9,0.6-1.5,1.3-1.5c0.7,0,1.3,0.5,1.3,1.5c0,0.9-0.6,1.5-1.3,1.5C264.3,121,263.7,120.5,263.7,119.5z
		 M266,119.5c0-0.7-0.4-1.3-1-1.3c-0.6,0-1,0.5-1,1.3s0.4,1.2,1,1.2C265.5,120.8,266,120.3,266,119.5z"/>
	<path d="M267.1,120.6v-3.8h0.3v3.9c0,0.1,0.1,0.2,0.1,0.2c0,0,0,0,0.1,0l0,0.2c-0.1,0-0.1,0-0.2,0
		C267.2,121,267.1,120.9,267.1,120.6z"/>
	<path d="M268.2,119.5c0-0.9,0.6-1.5,1.3-1.5c0.7,0,1.3,0.5,1.3,1.5c0,0.9-0.6,1.5-1.3,1.5C268.8,121,268.2,120.5,268.2,119.5z
		 M270.5,119.5c0-0.7-0.4-1.3-1-1.3c-0.6,0-1,0.5-1,1.3s0.4,1.2,1,1.2C270,120.8,270.5,120.3,270.5,119.5z"/>
	<path d="M271.6,118.1h0.2l0,0.5h0c0.2-0.3,0.5-0.6,0.8-0.6c0.1,0,0.2,0,0.3,0.1l-0.1,0.2c-0.1,0-0.1,0-0.3,0
		c-0.3,0-0.6,0.2-0.8,0.7v1.9h-0.3V118.1z"/>
	<path d="M273.1,121.9c0.5-0.7,0.7-1.6,0.7-2.6s-0.2-1.8-0.7-2.6l0.2-0.1c0.5,0.8,0.8,1.6,0.8,2.6c0,1-0.3,1.9-0.8,2.6L273.1,121.9z
		"/>
	<path d="M195.9,125.9h0.3v3.9h-0.3V125.9z"/>
	<path d="M197.1,128.3c0-0.9,0.6-1.5,1.3-1.5c0.4,0,0.6,0.2,0.8,0.3l-0.2,0.2c-0.2-0.2-0.4-0.3-0.7-0.3c-0.6,0-1,0.5-1,1.3
		s0.4,1.2,1,1.2c0.3,0,0.6-0.1,0.8-0.3l0.1,0.2c-0.2,0.2-0.5,0.4-0.9,0.4C197.6,129.8,197.1,129.2,197.1,128.3z"/>
	<path d="M199.6,128.3c0-0.9,0.6-1.5,1.3-1.5c0.7,0,1.3,0.5,1.3,1.5c0,0.9-0.6,1.5-1.3,1.5C200.2,129.8,199.6,129.2,199.6,128.3z
		 M201.9,128.3c0-0.7-0.4-1.3-1-1.3c-0.6,0-1,0.5-1,1.3s0.4,1.2,1,1.2C201.4,129.6,201.9,129.1,201.9,128.3z"/>
	<path d="M203,126.9h0.2l0,0.4h0c0.3-0.3,0.6-0.5,1-0.5c0.6,0,0.8,0.4,0.8,1.1v1.8h-0.3V128c0-0.6-0.2-0.9-0.6-0.9
		c-0.3,0-0.6,0.2-0.9,0.5v2.1H203V126.9z"/>
	<path d="M205.9,129c0-0.6,0.6-0.9,1.8-1.1c0-0.4-0.1-0.9-0.7-0.9c-0.4,0-0.7,0.2-0.9,0.3l-0.1-0.2c0.2-0.1,0.6-0.4,1-0.4
		c0.7,0,0.9,0.5,0.9,1.1v1.8h-0.2l0-0.4h0c-0.3,0.2-0.6,0.4-1,0.4C206.3,129.8,205.9,129.5,205.9,129z M207.7,129.1v-1
		c-1.2,0.1-1.5,0.4-1.5,0.8c0,0.4,0.3,0.6,0.6,0.6C207.1,129.6,207.4,129.4,207.7,129.1z"/>
	<path d="M209.9,127.8c0-1.2,0.7-2,1.7-2c0.5,0,0.8,0.2,1.1,0.5l-0.2,0.2c-0.2-0.2-0.5-0.4-0.9-0.4c-0.9,0-1.4,0.7-1.4,1.7
		c0,1.1,0.5,1.8,1.4,1.8c0.3,0,0.7-0.1,0.9-0.3v-1.2h-0.9v-0.2h1.2v1.5c-0.2,0.3-0.6,0.4-1.1,0.4C210.6,129.8,209.9,129,209.9,127.8
		z"/>
	<path d="M213.6,126c0-0.1,0.1-0.2,0.2-0.2c0.1,0,0.2,0.1,0.2,0.2c0,0.1-0.1,0.2-0.2,0.2C213.7,126.2,213.6,126.1,213.6,126z
		 M213.7,126.9h0.3v2.8h-0.3V126.9z"/>
	<path d="M215,126.9h0.2l0,0.5h0c0.2-0.3,0.5-0.6,0.8-0.6c0.1,0,0.2,0,0.3,0.1l-0.1,0.2c-0.1,0-0.1,0-0.3,0c-0.3,0-0.6,0.2-0.8,0.7
		v1.9H215V126.9z"/>
	<path d="M216.9,129.3v-3.8h0.3v3.9c0,0.1,0.1,0.2,0.1,0.2c0,0,0,0,0.1,0l0,0.2c-0.1,0-0.1,0-0.2,0
		C217,129.8,216.9,129.6,216.9,129.3z"/>
	<path d="M217.9,126.9l0.4,0h0.9v0.2h-1.3V126.9z M218.3,126.3c0-0.6,0.3-0.8,0.7-0.8c0.1,0,0.3,0,0.4,0.1l-0.1,0.2
		c-0.1-0.1-0.2-0.1-0.3-0.1c-0.3,0-0.4,0.2-0.4,0.6v3.4h-0.3V126.3z"/>
	<path d="M219.8,126.9h0.2l0,0.5h0c0.2-0.3,0.5-0.6,0.8-0.6c0.1,0,0.2,0,0.3,0.1l-0.1,0.2c-0.1,0-0.1,0-0.3,0
		c-0.3,0-0.6,0.2-0.8,0.7v1.9h-0.3V126.9z"/>
	<path d="M221.6,126c0-0.1,0.1-0.2,0.2-0.2c0.1,0,0.2,0.1,0.2,0.2c0,0.1-0.1,0.2-0.2,0.2C221.7,126.2,221.6,126.1,221.6,126z
		 M221.7,126.9h0.3v2.8h-0.3V126.9z"/>
	<path d="M222.8,128.3c0-0.9,0.6-1.5,1.2-1.5c0.7,0,1.1,0.5,1.1,1.3c0,0.1,0,0.1,0,0.2h-2c0,0.7,0.4,1.2,1.1,1.2
		c0.3,0,0.5-0.1,0.8-0.2l0.1,0.2c-0.2,0.1-0.5,0.3-0.9,0.3C223.3,129.8,222.8,129.2,222.8,128.3z M224.8,128.1
		c0-0.7-0.3-1.1-0.8-1.1c-0.5,0-0.9,0.4-1,1.1H224.8z"/>
	<path d="M225.8,126.9h0.2l0,0.4h0c0.3-0.3,0.6-0.5,1-0.5c0.6,0,0.8,0.4,0.8,1.1v1.8h-0.3V128c0-0.6-0.2-0.9-0.6-0.9
		c-0.3,0-0.6,0.2-0.9,0.5v2.1h-0.3V126.9z"/>
	<path d="M228.7,128.3c0-0.9,0.6-1.5,1.2-1.5c0.3,0,0.6,0.1,0.8,0.3l0-0.5v-1.2h0.3v4.2h-0.2l0-0.4h0c-0.2,0.2-0.5,0.4-0.9,0.4
		C229.2,129.8,228.7,129.3,228.7,128.3z M230.8,129.1v-1.7c-0.3-0.3-0.5-0.4-0.8-0.4c-0.6,0-1,0.5-1,1.3c0,0.7,0.3,1.2,0.9,1.2
		C230.2,129.6,230.5,129.4,230.8,129.1z"/>
	<path d="M233.3,125.9h0.3v3.9h-0.3V125.9z"/>
	<path d="M234.7,126.9h0.2l0,0.4h0c0.3-0.3,0.6-0.5,0.9-0.5c0.5,0,0.7,0.2,0.8,0.6c0.3-0.4,0.6-0.6,1-0.6c0.6,0,0.8,0.4,0.8,1.1v1.8
		h-0.3V128c0-0.6-0.2-0.9-0.6-0.9c-0.3,0-0.5,0.2-0.8,0.5v2.1h-0.3V128c0-0.6-0.2-0.9-0.6-0.9c-0.3,0-0.5,0.2-0.8,0.5v2.1h-0.3
		V126.9z"/>
	<path d="M239.4,126.9h0.2l0,0.4h0c0.3-0.2,0.6-0.4,1-0.4c0.8,0,1.1,0.6,1.1,1.4c0,1-0.6,1.5-1.2,1.5c-0.3,0-0.6-0.1-0.8-0.3l0,0.5
		v1h-0.3V126.9z M241.5,128.3c0-0.7-0.2-1.2-0.9-1.2c-0.3,0-0.6,0.2-0.9,0.5v1.7c0.3,0.3,0.6,0.4,0.8,0.4
		C241.1,129.6,241.5,129,241.5,128.3z"/>
	<path d="M242.3,129c0-0.6,0.6-0.9,1.8-1.1c0-0.4-0.1-0.9-0.7-0.9c-0.4,0-0.7,0.2-0.9,0.3l-0.1-0.2c0.2-0.1,0.6-0.4,1-0.4
		c0.7,0,0.9,0.5,0.9,1.1v1.8h-0.2l0-0.4h0c-0.3,0.2-0.6,0.4-1,0.4C242.7,129.8,242.3,129.5,242.3,129z M244.1,129.1v-1
		c-1.2,0.1-1.5,0.4-1.5,0.8c0,0.4,0.3,0.6,0.6,0.6C243.5,129.6,243.8,129.4,244.1,129.1z"/>
	<path d="M245.2,128.3c0-0.9,0.6-1.5,1.3-1.5c0.4,0,0.6,0.2,0.8,0.3l-0.2,0.2c-0.2-0.2-0.4-0.3-0.7-0.3c-0.6,0-1,0.5-1,1.3
		s0.4,1.2,1,1.2c0.3,0,0.6-0.1,0.8-0.3l0.1,0.2c-0.2,0.2-0.5,0.4-0.9,0.4C245.7,129.8,245.2,129.2,245.2,128.3z"/>
	<path d="M248,128.9v-1.8h-0.4v-0.2l0.4,0l0-0.8h0.2v0.8h0.8v0.2h-0.8v1.8c0,0.4,0.1,0.6,0.5,0.6c0.1,0,0.3,0,0.4-0.1l0.1,0.2
		c-0.2,0.1-0.3,0.1-0.5,0.1C248.2,129.8,248,129.4,248,128.9z"/>
	<path d="M195.6,138l0.2-0.2c0.3,0.3,0.7,0.5,1.1,0.5c0.6,0,1-0.3,1-0.8c0-0.5-0.3-0.6-0.7-0.8l-0.6-0.3c-0.3-0.1-0.8-0.4-0.8-1
		c0-0.6,0.5-1,1.1-1c0.5,0,0.8,0.2,1.1,0.5l-0.2,0.2c-0.2-0.2-0.5-0.4-0.9-0.4c-0.5,0-0.9,0.3-0.9,0.7c0,0.5,0.4,0.6,0.7,0.7
		l0.6,0.3c0.4,0.2,0.8,0.4,0.8,1c0,0.6-0.5,1-1.2,1C196.4,138.6,196,138.3,195.6,138z"/>
	<path d="M198.7,137.1c0-0.9,0.6-1.5,1.2-1.5c0.7,0,1.1,0.5,1.1,1.3c0,0.1,0,0.1,0,0.2h-2c0,0.7,0.4,1.2,1.1,1.2
		c0.3,0,0.5-0.1,0.8-0.2l0.1,0.2c-0.2,0.1-0.5,0.3-0.9,0.3C199.3,138.6,198.7,138,198.7,137.1z M200.8,136.9c0-0.7-0.3-1.1-0.8-1.1
		c-0.5,0-0.9,0.4-1,1.1H200.8z"/>
	<path d="M201.4,138.4l1.7-2.4h-1.5v-0.2h1.8v0.1l-1.7,2.4h1.7v0.2h-2.1V138.4z"/>
	<path d="M204.1,134.8c0-0.1,0.1-0.2,0.2-0.2c0.1,0,0.2,0.1,0.2,0.2c0,0.1-0.1,0.2-0.2,0.2C204.2,135,204.1,134.9,204.1,134.8z
		 M204.2,135.7h0.3v2.8h-0.3V135.7z"/>
	<path d="M205.3,137.1c0-0.9,0.6-1.5,1.3-1.5c0.7,0,1.3,0.5,1.3,1.5c0,0.9-0.6,1.5-1.3,1.5C205.9,138.6,205.3,138,205.3,137.1z
		 M207.5,137.1c0-0.7-0.4-1.3-1-1.3c-0.6,0-1,0.5-1,1.3s0.4,1.2,1,1.2C207.1,138.3,207.5,137.8,207.5,137.1z"/>
	<path d="M208.6,135.7h0.2l0,0.4h0c0.3-0.3,0.6-0.5,1-0.5c0.6,0,0.8,0.4,0.8,1.1v1.8h-0.3v-1.8c0-0.6-0.2-0.9-0.6-0.9
		c-0.3,0-0.6,0.2-0.9,0.5v2.1h-0.3V135.7z"/>
	<path d="M211.5,137.1c0-0.9,0.6-1.5,1.2-1.5c0.7,0,1.1,0.5,1.1,1.3c0,0.1,0,0.1,0,0.2h-2c0,0.7,0.4,1.2,1.1,1.2
		c0.3,0,0.5-0.1,0.8-0.2l0.1,0.2c-0.2,0.1-0.5,0.3-0.9,0.3C212.1,138.6,211.5,138,211.5,137.1z M213.6,136.9c0-0.7-0.3-1.1-0.8-1.1
		c-0.5,0-0.9,0.4-1,1.1H213.6z"/>
	<path d="M215.5,138l0.2-0.2c0.3,0.3,0.7,0.5,1.1,0.5c0.6,0,1-0.3,1-0.8c0-0.5-0.3-0.6-0.7-0.8l-0.6-0.3c-0.3-0.1-0.8-0.4-0.8-1
		c0-0.6,0.5-1,1.1-1c0.5,0,0.8,0.2,1.1,0.5l-0.2,0.2c-0.2-0.2-0.5-0.4-0.9-0.4c-0.5,0-0.9,0.3-0.9,0.7c0,0.5,0.4,0.6,0.7,0.7
		l0.6,0.3c0.4,0.2,0.8,0.4,0.8,1c0,0.6-0.5,1-1.2,1C216.2,138.6,215.8,138.3,215.5,138z"/>
	<path d="M218.6,137.1c0-0.9,0.6-1.5,1.3-1.5c0.7,0,1.3,0.5,1.3,1.5c0,0.9-0.6,1.5-1.3,1.5C219.2,138.6,218.6,138,218.6,137.1z
		 M220.8,137.1c0-0.7-0.4-1.3-1-1.3c-0.6,0-1,0.5-1,1.3s0.4,1.2,1,1.2C220.4,138.3,220.8,137.8,220.8,137.1z"/>
	<path d="M221.7,137.1c0-0.9,0.6-1.5,1.3-1.5c0.4,0,0.6,0.2,0.8,0.3l-0.2,0.2c-0.2-0.2-0.4-0.3-0.7-0.3c-0.6,0-1,0.5-1,1.3
		s0.4,1.2,1,1.2c0.3,0,0.6-0.1,0.8-0.3l0.1,0.2c-0.2,0.2-0.5,0.4-0.9,0.4C222.3,138.6,221.7,138,221.7,137.1z"/>
	<path d="M224.5,134.8c0-0.1,0.1-0.2,0.2-0.2c0.1,0,0.2,0.1,0.2,0.2c0,0.1-0.1,0.2-0.2,0.2C224.6,135,224.5,134.9,224.5,134.8z
		 M224.6,135.7h0.3v2.8h-0.3V135.7z"/>
	<path d="M225.7,137.8c0-0.6,0.6-0.9,1.8-1.1c0-0.4-0.1-0.9-0.7-0.9c-0.4,0-0.7,0.2-0.9,0.3l-0.1-0.2c0.2-0.1,0.6-0.4,1-0.4
		c0.7,0,0.9,0.5,0.9,1.1v1.8h-0.2l0-0.4h0c-0.3,0.2-0.6,0.4-1,0.4C226.1,138.6,225.7,138.3,225.7,137.8z M227.5,137.9v-1
		c-1.2,0.1-1.5,0.4-1.5,0.8c0,0.4,0.3,0.6,0.6,0.6C226.9,138.3,227.2,138.2,227.5,137.9z"/>
	<path d="M228.8,138.1v-3.8h0.3v3.9c0,0.1,0.1,0.2,0.1,0.2c0,0,0,0,0.1,0l0,0.2c-0.1,0-0.1,0-0.2,0
		C228.9,138.6,228.8,138.4,228.8,138.1z"/>
	<path d="M231.1,137.1c0-0.9,0.6-1.5,1.2-1.5c0.7,0,1.1,0.5,1.1,1.3c0,0.1,0,0.1,0,0.2h-2c0,0.7,0.4,1.2,1.1,1.2
		c0.3,0,0.5-0.1,0.8-0.2l0.1,0.2c-0.2,0.1-0.5,0.3-0.9,0.3C231.7,138.6,231.1,138,231.1,137.1z M233.2,136.9c0-0.7-0.3-1.1-0.8-1.1
		c-0.5,0-0.9,0.4-1,1.1H233.2z"/>
	<path d="M235.4,134.6h0.3l1.6,2.7l0.4,0.8h0c0-0.4,0-0.8,0-1.1v-2.4h0.3v3.9h-0.3l-1.6-2.7l-0.4-0.8h0c0,0.4,0,0.7,0,1.1v2.4h-0.3
		V134.6z"/>
	<path d="M238.8,137.1c0-0.9,0.6-1.5,1.2-1.5c0.7,0,1.1,0.5,1.1,1.3c0,0.1,0,0.1,0,0.2h-2c0,0.7,0.4,1.2,1.1,1.2
		c0.3,0,0.5-0.1,0.8-0.2l0.1,0.2c-0.2,0.1-0.5,0.3-0.9,0.3C239.4,138.6,238.8,138,238.8,137.1z M240.9,136.9c0-0.7-0.3-1.1-0.8-1.1
		c-0.5,0-0.9,0.4-1,1.1H240.9z"/>
	<path d="M241.6,135.7h0.3l0.5,1.8c0.1,0.3,0.1,0.5,0.2,0.8h0c0.1-0.3,0.1-0.5,0.2-0.8l0.5-1.8h0.3l0.5,1.8c0.1,0.3,0.1,0.5,0.2,0.8
		h0c0.1-0.3,0.1-0.5,0.2-0.8l0.5-1.8h0.3l-0.8,2.8h-0.3l-0.5-1.7c-0.1-0.3-0.1-0.5-0.2-0.8h0c-0.1,0.3-0.1,0.5-0.2,0.8l-0.5,1.7
		h-0.3L241.6,135.7z"/>
	<path d="M245.6,138.2l0.1-0.2c0.2,0.2,0.5,0.4,0.9,0.4c0.4,0,0.7-0.3,0.7-0.6c0-0.4-0.4-0.5-0.7-0.6c-0.4-0.2-0.9-0.3-0.9-0.8
		c0-0.4,0.3-0.7,0.9-0.7c0.3,0,0.6,0.1,0.8,0.3l-0.1,0.2c-0.2-0.1-0.4-0.3-0.7-0.3c-0.4,0-0.6,0.3-0.6,0.5c0,0.3,0.3,0.4,0.7,0.6
		c0.4,0.2,0.9,0.3,0.9,0.9c0,0.4-0.3,0.8-0.9,0.8C246.2,138.6,245.9,138.4,245.6,138.2z"/>
	<path d="M248.3,138.1v-3.8h0.3v3.9c0,0.1,0.1,0.2,0.1,0.2c0,0,0,0,0.1,0l0,0.2c-0.1,0-0.1,0-0.2,0
		C248.4,138.6,248.3,138.4,248.3,138.1z"/>
	<path d="M249.5,137.1c0-0.9,0.6-1.5,1.2-1.5c0.7,0,1.1,0.5,1.1,1.3c0,0.1,0,0.1,0,0.2h-2c0,0.7,0.4,1.2,1.1,1.2
		c0.3,0,0.5-0.1,0.8-0.2l0.1,0.2c-0.2,0.1-0.5,0.3-0.9,0.3C250.1,138.6,249.5,138,249.5,137.1z M251.5,136.9c0-0.7-0.3-1.1-0.8-1.1
		c-0.5,0-0.9,0.4-1,1.1H251.5z"/>
	<path d="M252.6,137.7v-1.8h-0.4v-0.2l0.4,0l0-0.8h0.2v0.8h0.8v0.2h-0.8v1.8c0,0.4,0.1,0.6,0.5,0.6c0.1,0,0.3,0,0.4-0.1l0.1,0.2
		c-0.2,0.1-0.3,0.1-0.5,0.1C252.7,138.6,252.6,138.2,252.6,137.7z"/>
	<path d="M254.3,137.7v-1.8h-0.4v-0.2l0.4,0l0-0.8h0.2v0.8h0.8v0.2h-0.8v1.8c0,0.4,0.1,0.6,0.5,0.6c0.1,0,0.3,0,0.4-0.1l0.1,0.2
		c-0.2,0.1-0.3,0.1-0.5,0.1C254.4,138.6,254.3,138.2,254.3,137.7z"/>
	<path d="M255.7,137.1c0-0.9,0.6-1.5,1.2-1.5c0.7,0,1.1,0.5,1.1,1.3c0,0.1,0,0.1,0,0.2h-2c0,0.7,0.4,1.2,1.1,1.2
		c0.3,0,0.5-0.1,0.8-0.2l0.1,0.2c-0.2,0.1-0.5,0.3-0.9,0.3C256.3,138.6,255.7,138,255.7,137.1z M257.8,136.9c0-0.7-0.3-1.1-0.8-1.1
		c-0.5,0-0.9,0.4-1,1.1H257.8z"/>
	<path d="M258.8,135.7h0.2l0,0.5h0c0.2-0.3,0.5-0.6,0.8-0.6c0.1,0,0.2,0,0.3,0.1l-0.1,0.2c-0.1,0-0.1,0-0.3,0
		c-0.3,0-0.6,0.2-0.8,0.7v1.9h-0.3V135.7z"/>
</g>
<g>
	<path d="M195.9,148.5h1c0.9,0,1.4,0.3,1.4,1.1c0,0.8-0.5,1.1-1.4,1.1h-0.7v1.7h-0.3V148.5z M196.9,150.5c0.8,0,1.2-0.3,1.2-0.9
		c0-0.6-0.4-0.8-1.2-0.8h-0.6v1.7H196.9z"/>
	<path d="M199.1,151.4v-1.8h0.3v1.8c0,0.6,0.2,0.9,0.6,0.9c0.3,0,0.6-0.2,0.9-0.6v-2.1h0.3v2.8h-0.2l0-0.5h0c-0.3,0.3-0.6,0.5-1,0.5
		C199.4,152.5,199.1,152.1,199.1,151.4z"/>
	<path d="M202.2,152v-3.8h0.3v3.9c0,0.1,0.1,0.2,0.1,0.2c0,0,0,0,0.1,0l0,0.2c-0.1,0-0.1,0-0.2,0C202.3,152.5,202.2,152.3,202.2,152
		z"/>
	<path d="M203.3,152.1l0.1-0.2c0.2,0.2,0.5,0.4,0.9,0.4c0.4,0,0.7-0.3,0.7-0.6c0-0.4-0.4-0.5-0.7-0.6c-0.4-0.2-0.9-0.3-0.9-0.8
		c0-0.4,0.3-0.7,0.9-0.7c0.3,0,0.6,0.1,0.8,0.3L205,150c-0.2-0.1-0.4-0.3-0.7-0.3c-0.4,0-0.6,0.3-0.6,0.5c0,0.3,0.3,0.4,0.7,0.6
		c0.4,0.2,0.9,0.3,0.9,0.9c0,0.4-0.3,0.8-0.9,0.8C203.9,152.5,203.5,152.3,203.3,152.1z"/>
	<path d="M205.8,151.7c0-0.6,0.6-0.9,1.8-1.1c0-0.4-0.1-0.9-0.7-0.9c-0.4,0-0.7,0.2-0.9,0.3l-0.1-0.2c0.2-0.1,0.6-0.4,1-0.4
		c0.7,0,0.9,0.5,0.9,1.1v1.8h-0.2l0-0.4h0c-0.3,0.2-0.6,0.4-1,0.4C206.1,152.5,205.8,152.2,205.8,151.7z M207.6,151.8v-1
		c-1.2,0.1-1.5,0.4-1.5,0.8c0,0.4,0.3,0.6,0.6,0.6C207,152.2,207.2,152.1,207.6,151.8z"/>
	<path d="M208.9,149.6h0.2l0,0.4h0c0.3-0.3,0.6-0.5,1-0.5c0.6,0,0.8,0.4,0.8,1.1v1.8h-0.3v-1.8c0-0.6-0.2-0.9-0.6-0.9
		c-0.3,0-0.6,0.2-0.9,0.5v2.1h-0.3V149.6z"/>
	<path d="M212,151.6v-1.8h-0.4v-0.2l0.4,0l0-0.8h0.2v0.8h0.8v0.2h-0.8v1.8c0,0.4,0.1,0.6,0.5,0.6c0.1,0,0.3,0,0.4-0.1l0.1,0.2
		c-0.2,0.1-0.3,0.1-0.5,0.1C212.2,152.5,212,152.1,212,151.6z"/>
	<path d="M213.7,148.7c0-0.1,0.1-0.2,0.2-0.2c0.1,0,0.2,0.1,0.2,0.2c0,0.1-0.1,0.2-0.2,0.2C213.8,148.9,213.7,148.8,213.7,148.7z
		 M213.8,149.6h0.3v2.8h-0.3V149.6z"/>
	<path d="M216,152.1l0.1-0.2c0.2,0.2,0.5,0.4,0.9,0.4c0.4,0,0.7-0.3,0.7-0.6c0-0.4-0.4-0.5-0.7-0.6c-0.4-0.2-0.9-0.3-0.9-0.8
		c0-0.4,0.3-0.7,0.9-0.7c0.3,0,0.6,0.1,0.8,0.3l-0.1,0.2c-0.2-0.1-0.4-0.3-0.7-0.3c-0.4,0-0.6,0.3-0.6,0.5c0,0.3,0.3,0.4,0.7,0.6
		c0.4,0.2,0.9,0.3,0.9,0.9c0,0.4-0.3,0.8-0.9,0.8C216.6,152.5,216.2,152.3,216,152.1z"/>
	<path d="M218.4,151c0-0.9,0.6-1.5,1.2-1.5c0.7,0,1.1,0.5,1.1,1.3c0,0.1,0,0.1,0,0.2h-2c0,0.7,0.4,1.2,1.1,1.2
		c0.3,0,0.5-0.1,0.8-0.2l0.1,0.2c-0.2,0.1-0.5,0.3-0.9,0.3C219,152.5,218.4,151.9,218.4,151z M220.5,150.8c0-0.7-0.3-1.1-0.8-1.1
		c-0.5,0-0.9,0.4-1,1.1H220.5z"/>
	<path d="M221.3,151c0-0.9,0.6-1.5,1.3-1.5c0.4,0,0.6,0.2,0.8,0.3l-0.2,0.2c-0.2-0.2-0.4-0.3-0.7-0.3c-0.6,0-1,0.5-1,1.3
		s0.4,1.2,1,1.2c0.3,0,0.6-0.1,0.8-0.3l0.1,0.2c-0.2,0.2-0.5,0.4-0.9,0.4C221.8,152.5,221.3,151.9,221.3,151z"/>
	<path d="M223.8,151c0-0.9,0.6-1.5,1.3-1.5c0.7,0,1.3,0.5,1.3,1.5c0,0.9-0.6,1.5-1.3,1.5C224.4,152.5,223.8,151.9,223.8,151z
		 M226,151c0-0.7-0.4-1.3-1-1.3c-0.6,0-1,0.5-1,1.3s0.4,1.2,1,1.2C225.6,152.2,226,151.7,226,151z"/>
	<path d="M227.2,149.6h0.2l0,0.4h0c0.3-0.3,0.6-0.5,1-0.5c0.6,0,0.8,0.4,0.8,1.1v1.8H229v-1.8c0-0.6-0.2-0.9-0.6-0.9
		c-0.3,0-0.6,0.2-0.9,0.5v2.1h-0.3V149.6z"/>
	<path d="M230,151c0-0.9,0.6-1.5,1.2-1.5c0.3,0,0.6,0.1,0.8,0.3l0-0.5v-1.2h0.3v4.2h-0.2l0-0.4h0c-0.2,0.2-0.5,0.4-0.9,0.4
		C230.5,152.5,230,151.9,230,151z M232.1,151.8v-1.7c-0.3-0.3-0.5-0.4-0.8-0.4c-0.6,0-1,0.5-1,1.3c0,0.7,0.3,1.2,0.9,1.2
		C231.5,152.2,231.8,152.1,232.1,151.8z"/>
	<path d="M233.3,151.7c0-0.6,0.6-0.9,1.8-1.1c0-0.4-0.1-0.9-0.7-0.9c-0.4,0-0.7,0.2-0.9,0.3l-0.1-0.2c0.2-0.1,0.6-0.4,1-0.4
		c0.7,0,0.9,0.5,0.9,1.1v1.8h-0.2l0-0.4h0c-0.3,0.2-0.6,0.4-1,0.4C233.6,152.5,233.3,152.2,233.3,151.7z M235.1,151.8v-1
		c-1.2,0.1-1.5,0.4-1.5,0.8c0,0.4,0.3,0.6,0.6,0.6C234.4,152.2,234.7,152.1,235.1,151.8z"/>
	<path d="M236.3,149.6h0.2l0,0.5h0c0.2-0.3,0.5-0.6,0.8-0.6c0.1,0,0.2,0,0.3,0.1l-0.1,0.2c-0.1,0-0.1,0-0.3,0
		c-0.3,0-0.6,0.2-0.8,0.7v1.9h-0.3V149.6z"/>
	<path d="M238.1,148.7c0-0.1,0.1-0.2,0.2-0.2c0.1,0,0.2,0.1,0.2,0.2c0,0.1-0.1,0.2-0.2,0.2C238.2,148.9,238.1,148.8,238.1,148.7z
		 M238.2,149.6h0.3v2.8h-0.3V149.6z"/>
	<path d="M195.9,157.3h0.4l0.8,2.3c0.1,0.3,0.2,0.6,0.3,0.9h0c0.1-0.3,0.2-0.6,0.3-0.9l0.8-2.3h0.4v3.9h-0.3v-2.5c0-0.3,0-0.7,0-1h0
		l-0.3,0.9l-0.8,2.3h-0.2l-0.8-2.3l-0.3-0.9h0c0,0.3,0,0.7,0,1v2.5h-0.2V157.3z"/>
	<path d="M199.8,159.8c0-0.9,0.6-1.5,1.3-1.5c0.7,0,1.3,0.5,1.3,1.5c0,0.9-0.6,1.5-1.3,1.5C200.4,161.2,199.8,160.7,199.8,159.8z
		 M202.1,159.8c0-0.7-0.4-1.3-1-1.3c-0.6,0-1,0.5-1,1.3s0.4,1.2,1,1.2C201.6,161,202.1,160.5,202.1,159.8z"/>
	<path d="M203.1,160.2v-1.8h0.3v1.8c0,0.6,0.2,0.9,0.6,0.9c0.3,0,0.6-0.2,0.9-0.6v-2.1h0.3v2.8H205l0-0.5h0c-0.3,0.3-0.6,0.5-1,0.5
		C203.4,161.2,203.1,160.9,203.1,160.2z"/>
	<path d="M205.9,160.9l0.1-0.2c0.2,0.2,0.5,0.4,0.9,0.4c0.4,0,0.7-0.3,0.7-0.6c0-0.4-0.4-0.5-0.7-0.6c-0.4-0.2-0.9-0.3-0.9-0.8
		c0-0.4,0.3-0.7,0.9-0.7c0.3,0,0.6,0.1,0.8,0.3l-0.1,0.2c-0.2-0.1-0.4-0.3-0.7-0.3c-0.4,0-0.6,0.3-0.6,0.5c0,0.3,0.3,0.4,0.7,0.6
		c0.4,0.2,0.9,0.3,0.9,0.9c0,0.4-0.3,0.8-0.9,0.8C206.5,161.2,206.2,161.1,205.9,160.9z"/>
	<path d="M208.4,159.8c0-0.9,0.6-1.5,1.2-1.5c0.7,0,1.1,0.5,1.1,1.3c0,0.1,0,0.1,0,0.2h-2c0,0.7,0.4,1.2,1.1,1.2
		c0.3,0,0.5-0.1,0.8-0.2l0.1,0.2c-0.2,0.1-0.5,0.3-0.9,0.3C209,161.2,208.4,160.7,208.4,159.8z M210.5,159.6c0-0.7-0.3-1.1-0.8-1.1
		c-0.5,0-0.9,0.4-1,1.1H210.5z"/>
	<path d="M212.6,157h0.3v1.2l0,0.6c0.3-0.3,0.6-0.5,1-0.5c0.6,0,0.8,0.4,0.8,1.1v1.8h-0.3v-1.8c0-0.6-0.2-0.9-0.6-0.9
		c-0.3,0-0.6,0.2-0.9,0.5v2.1h-0.3V157z"/>
	<path d="M215.5,159.8c0-0.9,0.6-1.5,1.3-1.5c0.7,0,1.3,0.5,1.3,1.5c0,0.9-0.6,1.5-1.3,1.5C216.1,161.2,215.5,160.7,215.5,159.8z
		 M217.7,159.8c0-0.7-0.4-1.3-1-1.3c-0.6,0-1,0.5-1,1.3s0.4,1.2,1,1.2C217.3,161,217.7,160.5,217.7,159.8z"/>
	<path d="M218.4,158.4h0.3l0.6,1.8c0.1,0.3,0.2,0.6,0.3,0.8h0c0.1-0.3,0.2-0.5,0.3-0.8l0.6-1.8h0.3l-1,2.8h-0.3L218.4,158.4z"/>
	<path d="M221.2,159.8c0-0.9,0.6-1.5,1.2-1.5c0.7,0,1.1,0.5,1.1,1.3c0,0.1,0,0.1,0,0.2h-2c0,0.7,0.4,1.2,1.1,1.2
		c0.3,0,0.5-0.1,0.8-0.2l0.1,0.2c-0.2,0.1-0.5,0.3-0.9,0.3C221.7,161.2,221.2,160.7,221.2,159.8z M223.2,159.6
		c0-0.7-0.3-1.1-0.8-1.1c-0.5,0-0.9,0.4-1,1.1H223.2z"/>
	<path d="M224.2,158.4h0.2l0,0.5h0c0.2-0.3,0.5-0.6,0.8-0.6c0.1,0,0.2,0,0.3,0.1l-0.1,0.2c-0.1,0-0.1,0-0.3,0
		c-0.3,0-0.6,0.2-0.8,0.7v1.9h-0.3V158.4z"/>
	<path d="M226.9,160.9l0.1-0.2c0.2,0.2,0.5,0.4,0.9,0.4c0.4,0,0.7-0.3,0.7-0.6c0-0.4-0.4-0.5-0.7-0.6c-0.4-0.2-0.9-0.3-0.9-0.8
		c0-0.4,0.3-0.7,0.9-0.7c0.3,0,0.6,0.1,0.8,0.3l-0.1,0.2c-0.2-0.1-0.4-0.3-0.7-0.3c-0.4,0-0.6,0.3-0.6,0.5c0,0.3,0.3,0.4,0.7,0.6
		c0.4,0.2,0.9,0.3,0.9,0.9c0,0.4-0.3,0.8-0.9,0.8C227.5,161.2,227.1,161.1,226.9,160.9z"/>
	<path d="M229.6,160.2v-1.8h0.3v1.8c0,0.6,0.2,0.9,0.6,0.9c0.3,0,0.6-0.2,0.9-0.6v-2.1h0.3v2.8h-0.2l0-0.5h0c-0.3,0.3-0.6,0.5-1,0.5
		C229.8,161.2,229.6,160.9,229.6,160.2z"/>
	<path d="M233.8,157.5c0-0.1,0.1-0.2,0.2-0.2c0.1,0,0.2,0.1,0.2,0.2c0,0.1-0.1,0.2-0.2,0.2C233.9,157.7,233.8,157.6,233.8,157.5z
		 M233.9,158.4h0.3v2.8h-0.3V158.4z"/>
	<path d="M235,159.8c0-0.9,0.6-1.5,1.3-1.5c0.4,0,0.6,0.2,0.8,0.3l-0.2,0.2c-0.2-0.2-0.4-0.3-0.7-0.3c-0.6,0-1,0.5-1,1.3
		s0.4,1.2,1,1.2c0.3,0,0.6-0.1,0.8-0.3l0.1,0.2c-0.2,0.2-0.5,0.4-0.9,0.4C235.5,161.2,235,160.7,235,159.8z"/>
	<path d="M237.5,159.8c0-0.9,0.6-1.5,1.3-1.5c0.7,0,1.3,0.5,1.3,1.5c0,0.9-0.6,1.5-1.3,1.5C238.1,161.2,237.5,160.7,237.5,159.8z
		 M239.8,159.8c0-0.7-0.4-1.3-1-1.3c-0.6,0-1,0.5-1,1.3s0.4,1.2,1,1.2C239.3,161,239.8,160.5,239.8,159.8z"/>
	<path d="M240.9,158.4h0.2l0,0.4h0c0.3-0.3,0.6-0.5,1-0.5c0.6,0,0.8,0.4,0.8,1.1v1.8h-0.3v-1.8c0-0.6-0.2-0.9-0.6-0.9
		c-0.3,0-0.6,0.2-0.9,0.5v2.1h-0.3V158.4z"/>
	<path d="M243.8,159.8c0-0.9,0.6-1.5,1.2-1.5c0.7,0,1.1,0.5,1.1,1.3c0,0.1,0,0.1,0,0.2h-2c0,0.7,0.4,1.2,1.1,1.2
		c0.3,0,0.5-0.1,0.8-0.2l0.1,0.2c-0.2,0.1-0.5,0.3-0.9,0.3C244.3,161.2,243.8,160.7,243.8,159.8z M245.8,159.6
		c0-0.7-0.3-1.1-0.8-1.1c-0.5,0-0.9,0.4-1,1.1H245.8z"/>
	<path d="M247.7,159.8c0-0.9,0.6-1.5,1.2-1.5c0.7,0,1.1,0.5,1.1,1.3c0,0.1,0,0.1,0,0.2h-2c0,0.7,0.4,1.2,1.1,1.2
		c0.3,0,0.5-0.1,0.8-0.2l0.1,0.2c-0.2,0.1-0.5,0.3-0.9,0.3C248.3,161.2,247.7,160.7,247.7,159.8z M249.8,159.6
		c0-0.7-0.3-1.1-0.8-1.1c-0.5,0-0.9,0.4-1,1.1H249.8z"/>
	<path d="M252,158.4h0.2l0,0.4h0c0.3-0.3,0.6-0.5,0.9-0.5c0.5,0,0.7,0.2,0.8,0.6c0.3-0.4,0.6-0.6,1-0.6c0.6,0,0.8,0.4,0.8,1.1v1.8
		h-0.3v-1.8c0-0.6-0.2-0.9-0.6-0.9c-0.3,0-0.5,0.2-0.8,0.5v2.1h-0.3v-1.8c0-0.6-0.2-0.9-0.6-0.9c-0.3,0-0.5,0.2-0.8,0.5v2.1H252
		V158.4z"/>
	<path d="M256.5,159.8c0-0.9,0.6-1.5,1.2-1.5c0.7,0,1.1,0.5,1.1,1.3c0,0.1,0,0.1,0,0.2h-2c0,0.7,0.4,1.2,1.1,1.2
		c0.3,0,0.5-0.1,0.8-0.2l0.1,0.2c-0.2,0.1-0.5,0.3-0.9,0.3C257.1,161.2,256.5,160.7,256.5,159.8z M258.6,159.6
		c0-0.7-0.3-1.1-0.8-1.1c-0.5,0-0.9,0.4-1,1.1H258.6z"/>
	<path d="M259.6,158.4h0.2l0,0.4h0c0.3-0.3,0.6-0.5,1-0.5c0.6,0,0.8,0.4,0.8,1.1v1.8h-0.3v-1.8c0-0.6-0.2-0.9-0.6-0.9
		c-0.3,0-0.6,0.2-0.9,0.5v2.1h-0.3V158.4z"/>
	<path d="M262.6,160.2v-1.8h0.3v1.8c0,0.6,0.2,0.9,0.6,0.9c0.3,0,0.6-0.2,0.9-0.6v-2.1h0.3v2.8h-0.2l0-0.5h0c-0.3,0.3-0.6,0.5-1,0.5
		C262.9,161.2,262.6,160.9,262.6,160.2z"/>
	<path d="M195.7,168c0-1.2,0.7-2,1.6-2c0.5,0,0.8,0.2,1,0.5l-0.2,0.2c-0.2-0.2-0.5-0.4-0.8-0.4c-0.8,0-1.4,0.7-1.4,1.7
		c0,1.1,0.5,1.8,1.3,1.8c0.4,0,0.7-0.2,1-0.5l0.2,0.2c-0.3,0.3-0.6,0.6-1.1,0.6C196.4,170,195.7,169.2,195.7,168z"/>
	<path d="M199.1,168.9v-1.8h0.3v1.8c0,0.6,0.2,0.9,0.6,0.9c0.3,0,0.6-0.2,0.9-0.6v-2.1h0.3v2.8H201l0-0.5h0c-0.3,0.3-0.6,0.5-1,0.5
		C199.4,170,199.1,169.7,199.1,168.9z"/>
	<path d="M201.9,169.6l0.1-0.2c0.2,0.2,0.5,0.4,0.9,0.4c0.4,0,0.7-0.3,0.7-0.6c0-0.4-0.4-0.5-0.7-0.6c-0.4-0.2-0.9-0.3-0.9-0.8
		c0-0.4,0.3-0.7,0.9-0.7c0.3,0,0.6,0.1,0.8,0.3l-0.1,0.2c-0.2-0.1-0.4-0.3-0.7-0.3c-0.4,0-0.6,0.3-0.6,0.5c0,0.3,0.3,0.4,0.7,0.6
		c0.4,0.2,0.9,0.3,0.9,0.9c0,0.4-0.3,0.8-0.9,0.8C202.5,170,202.2,169.8,201.9,169.6z"/>
	<path d="M204.6,169.2v-1.8h-0.4v-0.2l0.4,0l0-0.8h0.2v0.8h0.8v0.2h-0.8v1.8c0,0.4,0.1,0.6,0.5,0.6c0.1,0,0.3,0,0.4-0.1l0.1,0.2
		c-0.2,0.1-0.3,0.1-0.5,0.1C204.7,170,204.6,169.7,204.6,169.2z"/>
	<path d="M206,168.6c0-0.9,0.6-1.5,1.3-1.5c0.7,0,1.3,0.5,1.3,1.5c0,0.9-0.6,1.5-1.3,1.5C206.6,170,206,169.5,206,168.6z
		 M208.3,168.6c0-0.7-0.4-1.3-1-1.3c-0.6,0-1,0.5-1,1.3s0.4,1.2,1,1.2C207.9,169.8,208.3,169.3,208.3,168.6z"/>
	<path d="M209.4,167.1h0.2l0,0.4h0c0.3-0.3,0.6-0.5,0.9-0.5c0.5,0,0.7,0.2,0.8,0.6c0.3-0.4,0.6-0.6,1-0.6c0.6,0,0.8,0.4,0.8,1.1v1.8
		h-0.3v-1.8c0-0.6-0.2-0.9-0.6-0.9c-0.3,0-0.5,0.2-0.8,0.5v2.1h-0.3v-1.8c0-0.6-0.2-0.9-0.6-0.9c-0.3,0-0.5,0.2-0.8,0.5v2.1h-0.3
		V167.1z"/>
	<path d="M213.9,168.6c0-0.9,0.6-1.5,1.2-1.5c0.7,0,1.1,0.5,1.1,1.3c0,0.1,0,0.1,0,0.2h-2c0,0.7,0.4,1.2,1.1,1.2
		c0.3,0,0.5-0.1,0.8-0.2l0.1,0.2c-0.2,0.1-0.5,0.3-0.9,0.3C214.5,170,213.9,169.5,213.9,168.6z M216,168.4c0-0.7-0.3-1.1-0.8-1.1
		c-0.5,0-0.9,0.4-1,1.1H216z"/>
	<path d="M217,167.1h0.2l0,0.5h0c0.2-0.3,0.5-0.6,0.8-0.6c0.1,0,0.2,0,0.3,0.1l-0.1,0.2c-0.1,0-0.1,0-0.3,0c-0.3,0-0.6,0.2-0.8,0.7
		v1.9H217V167.1z"/>
	<path d="M220,167.1h0.2l0,0.5h0c0.2-0.3,0.5-0.6,0.8-0.6c0.1,0,0.2,0,0.3,0.1l-0.1,0.2c-0.1,0-0.1,0-0.3,0c-0.3,0-0.6,0.2-0.8,0.7
		v1.9H220V167.1z"/>
	<path d="M221.6,168.6c0-0.9,0.6-1.5,1.2-1.5c0.7,0,1.1,0.5,1.1,1.3c0,0.1,0,0.1,0,0.2h-2c0,0.7,0.4,1.2,1.1,1.2
		c0.3,0,0.5-0.1,0.8-0.2l0.1,0.2c-0.2,0.1-0.5,0.3-0.9,0.3C222.1,170,221.6,169.5,221.6,168.6z M223.6,168.4c0-0.7-0.3-1.1-0.8-1.1
		c-0.5,0-0.9,0.4-1,1.1H223.6z"/>
	<path d="M224.2,167.1h0.3l0.6,1.8c0.1,0.3,0.2,0.6,0.3,0.8h0c0.1-0.3,0.2-0.5,0.3-0.8l0.6-1.8h0.3l-1,2.8h-0.3L224.2,167.1z"/>
	<path d="M227.1,166.2c0-0.1,0.1-0.2,0.2-0.2c0.1,0,0.2,0.1,0.2,0.2c0,0.1-0.1,0.2-0.2,0.2C227.2,166.5,227.1,166.4,227.1,166.2z
		 M227.2,167.1h0.3v2.8h-0.3V167.1z"/>
	<path d="M228.3,168.6c0-0.9,0.6-1.5,1.2-1.5c0.7,0,1.1,0.5,1.1,1.3c0,0.1,0,0.1,0,0.2h-2c0,0.7,0.4,1.2,1.1,1.2
		c0.3,0,0.5-0.1,0.8-0.2l0.1,0.2c-0.2,0.1-0.5,0.3-0.9,0.3C228.9,170,228.3,169.5,228.3,168.6z M230.4,168.4c0-0.7-0.3-1.1-0.8-1.1
		c-0.5,0-0.9,0.4-1,1.1H230.4z"/>
	<path d="M231.1,167.1h0.3l0.5,1.8c0.1,0.3,0.1,0.5,0.2,0.8h0c0.1-0.3,0.1-0.5,0.2-0.8l0.5-1.8h0.3l0.5,1.8c0.1,0.3,0.1,0.5,0.2,0.8
		h0c0.1-0.3,0.1-0.5,0.2-0.8l0.5-1.8h0.3L234,170h-0.3l-0.5-1.7c-0.1-0.3-0.1-0.5-0.2-0.8h0c-0.1,0.3-0.1,0.5-0.2,0.8l-0.5,1.7h-0.3
		L231.1,167.1z"/>
	<path d="M236.6,168.3c0-1,0.3-1.9,0.8-2.6l0.2,0.1c-0.5,0.7-0.7,1.6-0.7,2.6c0,0.9,0.2,1.8,0.7,2.6l-0.2,0.1
		C236.9,170.2,236.6,169.4,236.6,168.3z"/>
	<path d="M237.9,169.5l0.1-0.2c0.2,0.2,0.5,0.5,1,0.5c0.5,0,0.9-0.4,0.9-1c0-0.6-0.4-1-0.9-1c-0.3,0-0.5,0.1-0.7,0.2l-0.2-0.1
		l0.1-1.7h1.7v0.2h-1.5l-0.1,1.3c0.2-0.1,0.4-0.2,0.7-0.2c0.6,0,1.1,0.4,1.1,1.2c0,0.8-0.6,1.2-1.2,1.2
		C238.5,170,238.1,169.8,237.9,169.5z"/>
	<path d="M240.8,168.1c0-1.2,0.4-1.9,1.1-1.9s1.1,0.7,1.1,1.9s-0.4,2-1.1,2S240.8,169.3,240.8,168.1z M242.8,168.1
		c0-1.1-0.3-1.7-0.9-1.7c-0.5,0-0.9,0.6-0.9,1.7c0,1.1,0.3,1.7,0.9,1.7C242.5,169.8,242.8,169.2,242.8,168.1z"/>
	<path d="M243.6,167.2c0-0.8,0.3-1.2,0.8-1.2c0.5,0,0.8,0.4,0.8,1.2c0,0.8-0.3,1.2-0.8,1.2C243.9,168.4,243.6,168,243.6,167.2z
		 M245,167.2c0-0.7-0.2-1-0.6-1c-0.4,0-0.6,0.4-0.6,1s0.2,1,0.6,1C244.8,168.3,245,167.9,245,167.2z M246.7,166h0.2l-2.2,4h-0.2
		L246.7,166z M246.2,168.8c0-0.8,0.3-1.2,0.8-1.2s0.8,0.4,0.8,1.2c0,0.8-0.3,1.2-0.8,1.2S246.2,169.6,246.2,168.8z M247.6,168.8
		c0-0.7-0.2-1-0.6-1c-0.4,0-0.6,0.4-0.6,1c0,0.7,0.2,1,0.6,1C247.4,169.8,247.6,169.5,247.6,168.8z"/>
	<path d="M249.5,168.6c0-0.9,0.6-1.5,1.3-1.5c0.7,0,1.3,0.5,1.3,1.5c0,0.9-0.6,1.5-1.3,1.5C250.1,170,249.5,169.5,249.5,168.6z
		 M251.8,168.6c0-0.7-0.4-1.3-1-1.3c-0.6,0-1,0.5-1,1.3s0.4,1.2,1,1.2C251.4,169.8,251.8,169.3,251.8,168.6z"/>
	<path d="M252.9,167.1h0.2l0,0.4h0c0.3-0.2,0.6-0.4,1-0.4c0.8,0,1.1,0.6,1.1,1.4c0,1-0.6,1.5-1.2,1.5c-0.3,0-0.6-0.1-0.8-0.3l0,0.5
		v1h-0.3V167.1z M255,168.5c0-0.7-0.2-1.2-0.9-1.2c-0.3,0-0.6,0.2-0.9,0.5v1.7c0.3,0.3,0.6,0.4,0.8,0.4
		C254.6,169.8,255,169.3,255,168.5z"/>
	<path d="M255.8,169.3c0-0.6,0.6-0.9,1.8-1.1c0-0.4-0.1-0.9-0.7-0.9c-0.4,0-0.7,0.2-0.9,0.3l-0.1-0.2c0.2-0.1,0.6-0.4,1-0.4
		c0.7,0,0.9,0.5,0.9,1.1v1.8h-0.2l0-0.4h0c-0.3,0.2-0.6,0.4-1,0.4C256.2,170,255.8,169.8,255.8,169.3z M257.6,169.3v-1
		c-1.2,0.1-1.5,0.4-1.5,0.8c0,0.4,0.3,0.6,0.6,0.6C257,169.8,257.3,169.6,257.6,169.3z"/>
	<path d="M258.6,168.6c0-0.9,0.6-1.5,1.3-1.5c0.4,0,0.6,0.2,0.8,0.3l-0.2,0.2c-0.2-0.2-0.4-0.3-0.7-0.3c-0.6,0-1,0.5-1,1.3
		s0.4,1.2,1,1.2c0.3,0,0.6-0.1,0.8-0.3l0.1,0.2c-0.2,0.2-0.5,0.4-0.9,0.4C259.2,170,258.6,169.5,258.6,168.6z"/>
	<path d="M261.4,166.2c0-0.1,0.1-0.2,0.2-0.2c0.1,0,0.2,0.1,0.2,0.2c0,0.1-0.1,0.2-0.2,0.2C261.5,166.5,261.4,166.4,261.4,166.2z
		 M261.5,167.1h0.3v2.8h-0.3V167.1z"/>
	<path d="M262.9,169.2v-1.8h-0.4v-0.2l0.4,0l0-0.8h0.2v0.8h0.8v0.2h-0.8v1.8c0,0.4,0.1,0.6,0.5,0.6c0.1,0,0.3,0,0.4-0.1l0.1,0.2
		c-0.2,0.1-0.3,0.1-0.5,0.1C263.1,170,262.9,169.7,262.9,169.2z"/>
	<path d="M264.3,169.3c0-0.6,0.6-0.9,1.8-1.1c0-0.4-0.1-0.9-0.7-0.9c-0.4,0-0.7,0.2-0.9,0.3l-0.1-0.2c0.2-0.1,0.6-0.4,1-0.4
		c0.7,0,0.9,0.5,0.9,1.1v1.8h-0.2l0-0.4h0c-0.3,0.2-0.6,0.4-1,0.4C264.7,170,264.3,169.8,264.3,169.3z M266.1,169.3v-1
		c-1.2,0.1-1.5,0.4-1.5,0.8c0,0.4,0.3,0.6,0.6,0.6C265.5,169.8,265.8,169.6,266.1,169.3z M264.8,165.7l0.2-0.2l0.8,0.9l-0.1,0.1
		L264.8,165.7z"/>
	<path d="M267.1,170.9c0.5-0.7,0.7-1.6,0.7-2.6c0-0.9-0.2-1.8-0.7-2.6l0.2-0.1c0.5,0.8,0.8,1.6,0.8,2.6c0,1-0.3,1.9-0.8,2.6
		L267.1,170.9z"/>
	<path d="M195.9,174.9h0.3v1.7h2.1v-1.7h0.3v3.9h-0.3v-1.9h-2.1v1.9h-0.3V174.9z"/>
	<path d="M199.3,179.9l0.1-0.2c0.1,0,0.2,0,0.2,0c0.3,0,0.6-0.3,0.7-0.7l0.1-0.2l-1.2-2.9h0.3l0.7,1.8c0.1,0.2,0.2,0.5,0.3,0.8h0
		c0.1-0.2,0.2-0.5,0.3-0.8l0.6-1.8h0.3l-1.1,3.2c-0.2,0.5-0.4,0.9-0.9,0.9C199.4,180,199.3,180,199.3,179.9z"/>
	<path d="M202.2,175.9h0.2l0,0.4h0c0.3-0.2,0.6-0.4,1-0.4c0.8,0,1.1,0.6,1.1,1.4c0,1-0.6,1.5-1.2,1.5c-0.3,0-0.6-0.1-0.8-0.3l0,0.5
		v1h-0.3V175.9z M204.3,177.3c0-0.7-0.2-1.2-0.9-1.2c-0.3,0-0.6,0.2-0.9,0.5v1.7c0.3,0.3,0.6,0.4,0.8,0.4
		C203.9,178.6,204.3,178,204.3,177.3z"/>
	<path d="M205.2,177.3c0-0.9,0.6-1.5,1.2-1.5c0.7,0,1.1,0.5,1.1,1.3c0,0.1,0,0.1,0,0.2h-2c0,0.7,0.4,1.2,1.1,1.2
		c0.3,0,0.5-0.1,0.8-0.2l0.1,0.2c-0.2,0.1-0.5,0.3-0.9,0.3C205.7,178.8,205.2,178.2,205.2,177.3z M207.2,177.1
		c0-0.7-0.3-1.1-0.8-1.1c-0.5,0-0.9,0.4-1,1.1H207.2z"/>
	<path d="M208.2,175.9h0.2l0,0.5h0c0.2-0.3,0.5-0.6,0.8-0.6c0.1,0,0.2,0,0.3,0.1l-0.1,0.2c-0.1,0-0.1,0-0.3,0
		c-0.3,0-0.6,0.2-0.8,0.7v1.9h-0.3V175.9z"/>
	<path d="M210.1,178.4v-3.8h0.3v3.9c0,0.1,0.1,0.2,0.1,0.2c0,0,0,0,0.1,0l0,0.2c-0.1,0-0.1,0-0.2,0
		C210.2,178.8,210.1,178.7,210.1,178.4z"/>
	<path d="M211.4,175c0-0.1,0.1-0.2,0.2-0.2c0.1,0,0.2,0.1,0.2,0.2c0,0.1-0.1,0.2-0.2,0.2C211.5,175.2,211.4,175.1,211.4,175z
		 M211.5,175.9h0.3v2.8h-0.3V175.9z"/>
	<path d="M212.8,175.9h0.2l0,0.4h0c0.3-0.3,0.6-0.5,1-0.5c0.6,0,0.8,0.4,0.8,1.1v1.8h-0.3V177c0-0.6-0.2-0.9-0.6-0.9
		c-0.3,0-0.6,0.2-0.9,0.5v2.1h-0.3V175.9z"/>
	<path d="M215.9,174.5h0.3v3.1h0l1.4-1.7h0.3L217,177l1.1,1.7h-0.3l-0.9-1.5l-0.6,0.7v0.8h-0.3V174.5z"/>
</g>
<g>
	<path d="M196.8,46.4h-1.2v-0.2h2.7v0.2H197V50h-0.3V46.4z"/>
	<path d="M198.4,48.6c0-0.9,0.6-1.5,1.2-1.5c0.7,0,1.1,0.5,1.1,1.3c0,0.1,0,0.1,0,0.2h-2c0,0.7,0.4,1.2,1.1,1.2
		c0.3,0,0.5-0.1,0.8-0.2l0.1,0.2c-0.2,0.1-0.5,0.3-0.9,0.3C199,50.1,198.4,49.5,198.4,48.6z M200.5,48.4c0-0.7-0.3-1.1-0.8-1.1
		c-0.5,0-0.9,0.4-1,1.1H200.5z"/>
	<path d="M201.1,49.7l0.1-0.2c0.2,0.2,0.5,0.4,0.9,0.4c0.4,0,0.7-0.3,0.7-0.6c0-0.4-0.4-0.5-0.7-0.6c-0.4-0.2-0.9-0.3-0.9-0.8
		c0-0.4,0.3-0.7,0.9-0.7c0.3,0,0.6,0.1,0.8,0.3l-0.1,0.2c-0.2-0.1-0.4-0.3-0.7-0.3c-0.4,0-0.6,0.3-0.6,0.5c0,0.3,0.3,0.4,0.7,0.6
		c0.4,0.2,0.9,0.3,0.9,0.9c0,0.4-0.3,0.8-0.9,0.8C201.7,50.1,201.4,49.9,201.1,49.7z"/>
	<path d="M203.8,49.2v-1.8h-0.4v-0.2l0.4,0l0-0.8h0.2v0.8h0.8v0.2H204v1.8c0,0.4,0.1,0.6,0.5,0.6c0.1,0,0.3,0,0.4-0.1l0.1,0.2
		c-0.2,0.1-0.3,0.1-0.5,0.1C203.9,50.1,203.8,49.7,203.8,49.2z"/>
	<path d="M205.4,46.3c0-0.1,0.1-0.2,0.2-0.2s0.2,0.1,0.2,0.2c0,0.1-0.1,0.2-0.2,0.2S205.4,46.4,205.4,46.3z M205.5,47.2h0.3V50h-0.3
		V47.2z"/>
	<path d="M208,47.2h0.2l0,0.4h0c0.3-0.2,0.6-0.4,1-0.4c0.8,0,1.1,0.6,1.1,1.4c0,1-0.6,1.5-1.2,1.5c-0.3,0-0.6-0.1-0.8-0.3l0,0.5v1
		H208V47.2z M210.1,48.5c0-0.7-0.2-1.2-0.9-1.2c-0.3,0-0.6,0.2-0.9,0.5v1.7c0.3,0.3,0.6,0.4,0.8,0.4
		C209.7,49.8,210.1,49.3,210.1,48.5z"/>
	<path d="M211.2,47.2h0.2l0,0.5h0c0.2-0.3,0.5-0.6,0.8-0.6c0.1,0,0.2,0,0.3,0.1l-0.1,0.2c-0.1,0-0.1,0-0.3,0c-0.3,0-0.6,0.2-0.8,0.7
		V50h-0.3V47.2z"/>
	<path d="M213,46.3c0-0.1,0.1-0.2,0.2-0.2c0.1,0,0.2,0.1,0.2,0.2c0,0.1-0.1,0.2-0.2,0.2C213.1,46.5,213,46.4,213,46.3z M213.1,47.2
		h0.3V50h-0.3V47.2z"/>
	<path d="M214.4,47.2h0.2l0,0.4h0c0.3-0.3,0.6-0.5,1-0.5c0.6,0,0.8,0.4,0.8,1.1V50h-0.3v-1.8c0-0.6-0.2-0.9-0.6-0.9
		c-0.3,0-0.6,0.2-0.9,0.5V50h-0.3V47.2z"/>
	<path d="M217.3,48.6c0-0.9,0.6-1.5,1.3-1.5c0.4,0,0.6,0.2,0.8,0.3l-0.2,0.2c-0.2-0.2-0.4-0.3-0.7-0.3c-0.6,0-1,0.5-1,1.3
		s0.4,1.2,1,1.2c0.3,0,0.6-0.1,0.8-0.3l0.1,0.2c-0.2,0.2-0.5,0.4-0.9,0.4C217.9,50.1,217.3,49.5,217.3,48.6z"/>
	<path d="M220.1,46.3c0-0.1,0.1-0.2,0.2-0.2c0.1,0,0.2,0.1,0.2,0.2c0,0.1-0.1,0.2-0.2,0.2C220.2,46.5,220.1,46.4,220.1,46.3z
		 M220.2,47.2h0.3V50h-0.3V47.2z"/>
	<path d="M221.5,47.2h0.2l0,0.4h0c0.3-0.2,0.6-0.4,1-0.4c0.8,0,1.1,0.6,1.1,1.4c0,1-0.6,1.5-1.2,1.5c-0.3,0-0.6-0.1-0.8-0.3l0,0.5v1
		h-0.3V47.2z M223.6,48.5c0-0.7-0.2-1.2-0.9-1.2c-0.3,0-0.6,0.2-0.9,0.5v1.7c0.3,0.3,0.6,0.4,0.8,0.4
		C223.2,49.8,223.6,49.3,223.6,48.5z"/>
	<path d="M224.4,49.3c0-0.6,0.6-0.9,1.8-1.1c0-0.4-0.1-0.9-0.7-0.9c-0.4,0-0.7,0.2-0.9,0.3l-0.1-0.2c0.2-0.1,0.6-0.4,1-0.4
		c0.7,0,0.9,0.5,0.9,1.1V50h-0.2l0-0.4h0c-0.3,0.2-0.6,0.4-1,0.4C224.8,50.1,224.4,49.8,224.4,49.3z M226.2,49.4v-1
		c-1.2,0.1-1.5,0.4-1.5,0.8c0,0.4,0.3,0.6,0.6,0.6C225.6,49.8,225.9,49.7,226.2,49.4z"/>
	<path d="M227.5,49.6v-3.8h0.3v3.9c0,0.1,0.1,0.2,0.1,0.2c0,0,0,0,0.1,0l0,0.2c-0.1,0-0.1,0-0.2,0C227.6,50.1,227.5,49.9,227.5,49.6
		z"/>
	<path d="M228.8,46.3c0-0.1,0.1-0.2,0.2-0.2c0.1,0,0.2,0.1,0.2,0.2c0,0.1-0.1,0.2-0.2,0.2C228.9,46.5,228.8,46.4,228.8,46.3z
		 M228.9,47.2h0.3V50h-0.3V47.2z"/>
	<path d="M231.3,48.4c0-1,0.3-1.9,0.8-2.6l0.2,0.1c-0.5,0.7-0.7,1.6-0.7,2.6s0.2,1.8,0.7,2.6l-0.2,0.1
		C231.6,50.2,231.3,49.4,231.3,48.4z"/>
	<path d="M232.7,49c0-0.5,0.4-0.9,0.7-1.1v0c-0.3-0.2-0.5-0.5-0.5-0.9c0-0.5,0.4-0.9,1-0.9c0.6,0,1,0.4,1,1c0,0.4-0.3,0.8-0.5,1v0
		c0.3,0.2,0.7,0.4,0.7,1c0,0.5-0.5,1-1.1,1C233.2,50.1,232.7,49.6,232.7,49z M234.8,49.1c0-0.6-0.6-0.8-1.1-1
		c-0.4,0.2-0.7,0.5-0.7,0.9c0,0.5,0.4,0.8,0.9,0.8C234.4,49.8,234.8,49.5,234.8,49.1z M234.7,47.2c0-0.4-0.3-0.8-0.8-0.8
		c-0.4,0-0.7,0.3-0.7,0.7c0,0.5,0.5,0.7,1,0.9C234.5,47.8,234.7,47.5,234.7,47.2z"/>
	<path d="M237.5,46.5h-2v-0.2h2.3v0.2c-0.9,1.2-1.1,2.1-1.2,3.6h-0.3C236.4,48.5,236.7,47.5,237.5,46.5z"/>
	<path d="M238.3,47.3c0-0.8,0.3-1.2,0.8-1.2c0.5,0,0.8,0.4,0.8,1.2c0,0.8-0.3,1.2-0.8,1.2C238.6,48.5,238.3,48,238.3,47.3z
		 M239.7,47.3c0-0.7-0.2-1-0.6-1c-0.4,0-0.6,0.4-0.6,1c0,0.7,0.2,1,0.6,1C239.5,48.3,239.7,47.9,239.7,47.3z M241.4,46.1h0.2l-2.2,4
		h-0.2L241.4,46.1z M240.9,48.8c0-0.8,0.3-1.2,0.8-1.2c0.5,0,0.8,0.4,0.8,1.2c0,0.8-0.3,1.2-0.8,1.2
		C241.2,50.1,240.9,49.6,240.9,48.8z M242.3,48.8c0-0.7-0.2-1-0.6-1c-0.4,0-0.6,0.4-0.6,1c0,0.7,0.2,1,0.6,1
		C242.1,49.9,242.3,49.5,242.3,48.8z"/>
	<path d="M244.3,48.6c0-0.9,0.6-1.5,1.3-1.5c0.7,0,1.3,0.5,1.3,1.5c0,0.9-0.6,1.5-1.3,1.5C244.8,50.1,244.3,49.5,244.3,48.6z
		 M246.5,48.6c0-0.7-0.4-1.3-1-1.3c-0.6,0-1,0.5-1,1.3s0.4,1.2,1,1.2C246.1,49.8,246.5,49.3,246.5,48.6z"/>
	<path d="M247.6,47.2h0.2l0,0.4h0c0.3-0.2,0.6-0.4,1-0.4c0.8,0,1.1,0.6,1.1,1.4c0,1-0.6,1.5-1.2,1.5c-0.3,0-0.6-0.1-0.8-0.3l0,0.5v1
		h-0.3V47.2z M249.7,48.5c0-0.7-0.2-1.2-0.9-1.2c-0.3,0-0.6,0.2-0.9,0.5v1.7c0.3,0.3,0.6,0.4,0.8,0.4
		C249.3,49.8,249.7,49.3,249.7,48.5z"/>
	<path d="M250.5,49.3c0-0.6,0.6-0.9,1.8-1.1c0-0.4-0.1-0.9-0.7-0.9c-0.4,0-0.7,0.2-0.9,0.3l-0.1-0.2c0.2-0.1,0.6-0.4,1-0.4
		c0.7,0,0.9,0.5,0.9,1.1V50h-0.2l0-0.4h0c-0.3,0.2-0.6,0.4-1,0.4C250.9,50.1,250.5,49.8,250.5,49.3z M252.3,49.4v-1
		c-1.2,0.1-1.5,0.4-1.5,0.8c0,0.4,0.3,0.6,0.6,0.6C251.7,49.8,252,49.7,252.3,49.4z"/>
	<path d="M253.4,48.6c0-0.9,0.6-1.5,1.3-1.5c0.4,0,0.6,0.2,0.8,0.3l-0.2,0.2c-0.2-0.2-0.4-0.3-0.7-0.3c-0.6,0-1,0.5-1,1.3
		s0.4,1.2,1,1.2c0.3,0,0.6-0.1,0.8-0.3l0.1,0.2c-0.2,0.2-0.5,0.4-0.9,0.4C253.9,50.1,253.4,49.5,253.4,48.6z"/>
	<path d="M256.1,46.3c0-0.1,0.1-0.2,0.2-0.2c0.1,0,0.2,0.1,0.2,0.2c0,0.1-0.1,0.2-0.2,0.2C256.2,46.5,256.1,46.4,256.1,46.3z
		 M256.2,47.2h0.3V50h-0.3V47.2z"/>
	<path d="M257.6,49.2v-1.8h-0.4v-0.2l0.4,0l0-0.8h0.2v0.8h0.8v0.2h-0.8v1.8c0,0.4,0.1,0.6,0.5,0.6c0.1,0,0.3,0,0.4-0.1l0.1,0.2
		c-0.2,0.1-0.3,0.1-0.5,0.1C257.8,50.1,257.6,49.7,257.6,49.2z"/>
	<path d="M259.1,49.3c0-0.6,0.6-0.9,1.8-1.1c0-0.4-0.1-0.9-0.7-0.9c-0.4,0-0.7,0.2-0.9,0.3l-0.1-0.2c0.2-0.1,0.6-0.4,1-0.4
		c0.7,0,0.9,0.5,0.9,1.1V50h-0.2l0-0.4h0c-0.3,0.2-0.6,0.4-1,0.4C259.4,50.1,259.1,49.8,259.1,49.3z M260.9,49.4v-1
		c-1.2,0.1-1.5,0.4-1.5,0.8c0,0.4,0.3,0.6,0.6,0.6C260.2,49.8,260.5,49.7,260.9,49.4z M259.5,45.7l0.2-0.2l0.8,0.9l-0.1,0.1
		L259.5,45.7z"/>
	<path d="M261.8,50.9c0.5-0.7,0.7-1.6,0.7-2.6s-0.2-1.8-0.7-2.6l0.2-0.1c0.5,0.8,0.8,1.6,0.8,2.6s-0.3,1.9-0.8,2.6L261.8,50.9z"/>
	<path d="M195.9,54.9h0.3v3.9h-0.3V54.9z"/>
	<path d="M197.1,57.4c0-0.9,0.6-1.5,1.3-1.5c0.4,0,0.6,0.2,0.8,0.3l-0.2,0.2c-0.2-0.2-0.4-0.3-0.7-0.3c-0.6,0-1,0.5-1,1.3
		s0.4,1.2,1,1.2c0.3,0,0.6-0.1,0.8-0.3l0.1,0.2c-0.2,0.2-0.5,0.4-0.9,0.4C197.6,58.8,197.1,58.3,197.1,57.4z"/>
	<path d="M199.6,57.4c0-0.9,0.6-1.5,1.3-1.5c0.7,0,1.3,0.5,1.3,1.5c0,0.9-0.6,1.5-1.3,1.5C200.2,58.8,199.6,58.3,199.6,57.4z
		 M201.9,57.4c0-0.7-0.4-1.3-1-1.3c-0.6,0-1,0.5-1,1.3s0.4,1.2,1,1.2C201.4,58.6,201.9,58.1,201.9,57.4z"/>
	<path d="M203,56h0.2l0,0.4h0c0.3-0.3,0.6-0.5,1-0.5c0.6,0,0.8,0.4,0.8,1.1v1.8h-0.3V57c0-0.6-0.2-0.9-0.6-0.9
		c-0.3,0-0.6,0.2-0.9,0.5v2.1H203V56z"/>
	<path d="M205.9,57.4c0-0.9,0.6-1.5,1.2-1.5c0.7,0,1.1,0.5,1.1,1.3c0,0.1,0,0.1,0,0.2h-2c0,0.7,0.4,1.2,1.1,1.2
		c0.3,0,0.5-0.1,0.8-0.2l0.1,0.2c-0.2,0.1-0.5,0.3-0.9,0.3C206.4,58.8,205.9,58.3,205.9,57.4z M207.9,57.2c0-0.7-0.3-1.1-0.8-1.1
		c-0.5,0-0.9,0.4-1,1.1H207.9z"/>
	<path d="M210.1,57.1c0-1,0.3-1.9,0.8-2.6l0.2,0.1c-0.5,0.7-0.7,1.6-0.7,2.6s0.2,1.8,0.7,2.6l-0.2,0.1
		C210.4,59,210.1,58.2,210.1,57.1z"/>
	<path d="M211.5,57.4c0-0.9,0.6-1.5,1.2-1.5c0.7,0,1.1,0.5,1.1,1.3c0,0.1,0,0.1,0,0.2h-2c0,0.7,0.4,1.2,1.1,1.2
		c0.3,0,0.5-0.1,0.8-0.2l0.1,0.2c-0.2,0.1-0.5,0.3-0.9,0.3C212.1,58.8,211.5,58.3,211.5,57.4z M213.5,57.2c0-0.7-0.3-1.1-0.8-1.1
		c-0.5,0-0.9,0.4-1,1.1H213.5z"/>
	<path d="M214.2,58.4l0.1-0.2c0.2,0.2,0.5,0.4,0.9,0.4c0.4,0,0.7-0.3,0.7-0.6c0-0.4-0.4-0.5-0.7-0.6c-0.4-0.2-0.9-0.3-0.9-0.8
		c0-0.4,0.3-0.7,0.9-0.7c0.3,0,0.6,0.1,0.8,0.3l-0.1,0.2c-0.2-0.1-0.4-0.3-0.7-0.3c-0.4,0-0.6,0.3-0.6,0.5c0,0.3,0.3,0.4,0.7,0.6
		c0.4,0.2,0.9,0.3,0.9,0.9c0,0.4-0.3,0.8-0.9,0.8C214.8,58.8,214.4,58.7,214.2,58.4z"/>
	<path d="M216.7,57.4c0-0.9,0.6-1.5,1.3-1.5c0.4,0,0.6,0.2,0.8,0.3l-0.2,0.2c-0.2-0.2-0.4-0.3-0.7-0.3c-0.6,0-1,0.5-1,1.3
		s0.4,1.2,1,1.2c0.3,0,0.6-0.1,0.8-0.3l0.1,0.2c-0.2,0.2-0.5,0.4-0.9,0.4C217.2,58.8,216.7,58.3,216.7,57.4z"/>
	<path d="M219.5,58.4v-3.8h0.3v3.9c0,0.1,0.1,0.2,0.1,0.2c0,0,0,0,0.1,0l0,0.2c-0.1,0-0.1,0-0.2,0C219.7,58.8,219.5,58.7,219.5,58.4
		z"/>
	<path d="M220.9,57.8V56h0.3v1.8c0,0.6,0.2,0.9,0.6,0.9c0.3,0,0.6-0.2,0.9-0.6V56h0.3v2.8h-0.2l0-0.5h0c-0.3,0.3-0.6,0.5-1,0.5
		C221.2,58.8,220.9,58.5,220.9,57.8z"/>
	<path d="M223.7,58.4l0.1-0.2c0.2,0.2,0.5,0.4,0.9,0.4c0.4,0,0.7-0.3,0.7-0.6c0-0.4-0.4-0.5-0.7-0.6c-0.4-0.2-0.9-0.3-0.9-0.8
		c0-0.4,0.3-0.7,0.9-0.7c0.3,0,0.6,0.1,0.8,0.3l-0.1,0.2c-0.2-0.1-0.4-0.3-0.7-0.3c-0.4,0-0.6,0.3-0.6,0.5c0,0.3,0.3,0.4,0.7,0.6
		c0.4,0.2,0.9,0.3,0.9,0.9c0,0.4-0.3,0.8-0.9,0.8C224.3,58.8,223.9,58.7,223.7,58.4z"/>
	<path d="M226.2,58.1c0-0.6,0.6-0.9,1.8-1.1c0-0.4-0.1-0.9-0.7-0.9c-0.4,0-0.7,0.2-0.9,0.3l-0.1-0.2c0.2-0.1,0.6-0.4,1-0.4
		c0.7,0,0.9,0.5,0.9,1.1v1.8H228l0-0.4h0c-0.3,0.2-0.6,0.4-1,0.4C226.6,58.8,226.2,58.6,226.2,58.1z M228,58.2v-1
		c-1.2,0.1-1.5,0.4-1.5,0.8c0,0.4,0.3,0.6,0.6,0.6C227.4,58.6,227.7,58.5,228,58.2z"/>
	<path d="M230.2,56.8c0-1.2,0.7-2,1.7-2c0.5,0,0.8,0.2,1.1,0.5l-0.2,0.2c-0.2-0.2-0.5-0.4-0.9-0.4c-0.9,0-1.4,0.7-1.4,1.7
		c0,1.1,0.5,1.8,1.4,1.8c0.3,0,0.7-0.1,0.9-0.3v-1.2h-0.9v-0.2h1.2v1.5c-0.2,0.3-0.6,0.4-1.1,0.4C230.9,58.8,230.2,58.1,230.2,56.8z
		"/>
	<path d="M233.9,55c0-0.1,0.1-0.2,0.2-0.2c0.1,0,0.2,0.1,0.2,0.2c0,0.1-0.1,0.2-0.2,0.2C234,55.3,233.9,55.2,233.9,55z M234,56h0.3
		v2.8H234V56z"/>
	<path d="M235.3,56h0.2l0,0.5h0c0.2-0.3,0.5-0.6,0.8-0.6c0.1,0,0.2,0,0.3,0.1l-0.1,0.2c-0.1,0-0.1,0-0.3,0c-0.3,0-0.6,0.2-0.8,0.7
		v1.9h-0.3V56z"/>
	<path d="M237.2,58.4v-3.8h0.3v3.9c0,0.1,0.1,0.2,0.1,0.2c0,0,0,0,0.1,0l0,0.2c-0.1,0-0.1,0-0.2,0C237.3,58.8,237.2,58.7,237.2,58.4
		z"/>
	<path d="M238.2,56l0.4,0h0.9v0.2h-1.3V56z M238.6,55.3c0-0.6,0.3-0.8,0.7-0.8c0.1,0,0.3,0,0.4,0.1l-0.1,0.2
		c-0.1-0.1-0.2-0.1-0.3-0.1c-0.3,0-0.4,0.2-0.4,0.6v3.4h-0.3V55.3z"/>
	<path d="M240.1,56h0.2l0,0.5h0c0.2-0.3,0.5-0.6,0.8-0.6c0.1,0,0.2,0,0.3,0.1l-0.1,0.2c-0.1,0-0.1,0-0.3,0c-0.3,0-0.6,0.2-0.8,0.7
		v1.9h-0.3V56z"/>
	<path d="M241.9,55c0-0.1,0.1-0.2,0.2-0.2c0.1,0,0.2,0.1,0.2,0.2c0,0.1-0.1,0.2-0.2,0.2C242,55.3,241.9,55.2,241.9,55z M242,56h0.3
		v2.8H242V56z"/>
	<path d="M243.1,57.4c0-0.9,0.6-1.5,1.2-1.5c0.7,0,1.1,0.5,1.1,1.3c0,0.1,0,0.1,0,0.2h-2c0,0.7,0.4,1.2,1.1,1.2
		c0.3,0,0.5-0.1,0.8-0.2l0.1,0.2c-0.2,0.1-0.5,0.3-0.9,0.3C243.6,58.8,243.1,58.3,243.1,57.4z M245.1,57.2c0-0.7-0.3-1.1-0.8-1.1
		c-0.5,0-0.9,0.4-1,1.1H245.1z"/>
	<path d="M246.1,56h0.2l0,0.4h0c0.3-0.3,0.6-0.5,1-0.5c0.6,0,0.8,0.4,0.8,1.1v1.8h-0.3V57c0-0.6-0.2-0.9-0.6-0.9
		c-0.3,0-0.6,0.2-0.9,0.5v2.1h-0.3V56z"/>
	<path d="M249,57.4c0-0.9,0.6-1.5,1.2-1.5c0.3,0,0.6,0.1,0.8,0.3l0-0.5v-1.2h0.3v4.2h-0.2l0-0.4h0c-0.2,0.2-0.5,0.4-0.9,0.4
		C249.5,58.8,249,58.3,249,57.4z M251.1,58.1v-1.7c-0.3-0.3-0.5-0.4-0.8-0.4c-0.6,0-1,0.5-1,1.2c0,0.7,0.3,1.2,0.9,1.2
		C250.5,58.6,250.8,58.4,251.1,58.1z"/>
	<path d="M253.6,54.9h0.3v3.9h-0.3V54.9z"/>
	<path d="M255,56h0.2l0,0.4h0c0.3-0.3,0.6-0.5,0.9-0.5c0.5,0,0.7,0.2,0.8,0.6c0.3-0.4,0.6-0.6,1-0.6c0.6,0,0.8,0.4,0.8,1.1v1.8h-0.3
		V57c0-0.6-0.2-0.9-0.6-0.9c-0.3,0-0.5,0.2-0.8,0.5v2.1h-0.3V57c0-0.6-0.2-0.9-0.6-0.9c-0.3,0-0.5,0.2-0.8,0.5v2.1H255V56z"/>
	<path d="M259.7,56h0.2l0,0.4h0c0.3-0.2,0.6-0.4,1-0.4c0.8,0,1.1,0.6,1.1,1.4c0,1-0.6,1.5-1.2,1.5c-0.3,0-0.6-0.1-0.8-0.3l0,0.5v1
		h-0.3V56z M261.8,57.3c0-0.7-0.2-1.2-0.9-1.2c-0.3,0-0.6,0.2-0.9,0.5v1.7c0.3,0.3,0.6,0.4,0.8,0.4
		C261.4,58.6,261.8,58.1,261.8,57.3z"/>
	<path d="M262.6,58.1c0-0.6,0.6-0.9,1.8-1.1c0-0.4-0.1-0.9-0.7-0.9c-0.4,0-0.7,0.2-0.9,0.3l-0.1-0.2c0.2-0.1,0.6-0.4,1-0.4
		c0.7,0,0.9,0.5,0.9,1.1v1.8h-0.2l0-0.4h0c-0.3,0.2-0.6,0.4-1,0.4C263,58.8,262.6,58.6,262.6,58.1z M264.5,58.2v-1
		c-1.2,0.1-1.5,0.4-1.5,0.8c0,0.4,0.3,0.6,0.6,0.6C263.8,58.6,264.1,58.5,264.5,58.2z"/>
	<path d="M265.5,57.4c0-0.9,0.6-1.5,1.3-1.5c0.4,0,0.6,0.2,0.8,0.3l-0.2,0.2c-0.2-0.2-0.4-0.3-0.7-0.3c-0.6,0-1,0.5-1,1.3
		s0.4,1.2,1,1.2c0.3,0,0.6-0.1,0.8-0.3l0.1,0.2c-0.2,0.2-0.5,0.4-0.9,0.4C266,58.8,265.5,58.3,265.5,57.4z"/>
	<path d="M268.4,58v-1.8h-0.4V56l0.4,0l0-0.8h0.2V56h0.8v0.2h-0.8V58c0,0.4,0.1,0.6,0.5,0.6c0.1,0,0.3,0,0.4-0.1l0.1,0.2
		c-0.2,0.1-0.3,0.1-0.5,0.1C268.5,58.8,268.4,58.5,268.4,58z"/>
	<path d="M269.8,59.7c0.5-0.7,0.7-1.6,0.7-2.6s-0.2-1.8-0.7-2.6l0.2-0.1c0.5,0.8,0.8,1.6,0.8,2.6s-0.3,1.9-0.8,2.6L269.8,59.7z"/>
</g>
<g>
	<path d="M196.8,77.1h-1.2v-0.2h2.7v0.2h-1.2v3.6h-0.3V77.1z"/>
	<path d="M198.4,79.3c0-0.9,0.6-1.5,1.2-1.5c0.7,0,1.1,0.5,1.1,1.3c0,0.1,0,0.1,0,0.2h-2c0,0.7,0.4,1.2,1.1,1.2
		c0.3,0,0.5-0.1,0.8-0.2l0.1,0.2c-0.2,0.1-0.5,0.3-0.9,0.3C199,80.8,198.4,80.2,198.4,79.3z M200.5,79.1c0-0.7-0.3-1.1-0.8-1.1
		c-0.5,0-0.9,0.4-1,1.1H200.5z"/>
	<path d="M201.2,80.4l0.1-0.2c0.2,0.2,0.5,0.4,0.9,0.4c0.4,0,0.7-0.3,0.7-0.6c0-0.4-0.4-0.5-0.7-0.6c-0.4-0.2-0.9-0.3-0.9-0.8
		c0-0.4,0.3-0.7,0.9-0.7c0.3,0,0.6,0.1,0.8,0.3l-0.1,0.2c-0.2-0.1-0.4-0.3-0.7-0.3c-0.4,0-0.6,0.3-0.6,0.5c0,0.3,0.3,0.4,0.7,0.6
		c0.4,0.2,0.9,0.3,0.9,0.9c0,0.4-0.3,0.8-0.9,0.8C201.8,80.8,201.4,80.6,201.2,80.4z"/>
	<path d="M203.8,79.9v-1.8h-0.4v-0.2l0.4,0l0-0.8h0.2v0.8h0.8v0.2h-0.8V80c0,0.4,0.1,0.6,0.5,0.6c0.1,0,0.3,0,0.4-0.1l0.1,0.2
		c-0.2,0.1-0.3,0.1-0.5,0.1C204,80.8,203.8,80.4,203.8,79.9z"/>
	<path d="M205.5,77c0-0.1,0.1-0.2,0.2-0.2s0.2,0.1,0.2,0.2c0,0.1-0.1,0.2-0.2,0.2S205.5,77.1,205.5,77z M205.6,77.9h0.3v2.8h-0.3
		V77.9z"/>
	<path d="M208.1,79.1c0-1,0.3-1.9,0.8-2.6l0.2,0.1c-0.5,0.7-0.7,1.6-0.7,2.6s0.2,1.8,0.7,2.6l-0.2,0.1
		C208.4,81,208.1,80.1,208.1,79.1z"/>
	<path d="M210.5,78.9h-1.1v-0.2h1.1v-1.2h0.2v1.2h1.1v0.2h-1.1v1.2h-0.2V78.9z"/>
	<path d="M213.7,77.9h0.2l0,0.4h0c0.3-0.2,0.6-0.4,1-0.4c0.8,0,1.1,0.6,1.1,1.4c0,1-0.6,1.5-1.2,1.5c-0.3,0-0.6-0.1-0.8-0.3l0,0.5v1
		h-0.3V77.9z M215.8,79.3c0-0.7-0.2-1.2-0.9-1.2c-0.3,0-0.6,0.2-0.9,0.5v1.7c0.3,0.3,0.6,0.4,0.8,0.4
		C215.4,80.5,215.8,80,215.8,79.3z"/>
	<path d="M216.9,80.3v-3.8h0.3v3.9c0,0.1,0.1,0.2,0.1,0.2c0,0,0,0,0.1,0l0,0.2c-0.1,0-0.1,0-0.2,0C217,80.8,216.9,80.6,216.9,80.3z"
		/>
	<path d="M218.1,80c0-0.6,0.6-0.9,1.8-1.1c0-0.4-0.1-0.9-0.7-0.9c-0.4,0-0.7,0.2-0.9,0.3l-0.1-0.2c0.2-0.1,0.6-0.4,1-0.4
		c0.7,0,0.9,0.5,0.9,1.1v1.8h-0.2l0-0.4h0c-0.3,0.2-0.6,0.4-1,0.4C218.4,80.8,218.1,80.5,218.1,80z M219.9,80.1v-1
		c-1.2,0.1-1.5,0.4-1.5,0.8c0,0.4,0.3,0.6,0.6,0.6C219.2,80.6,219.5,80.4,219.9,80.1z"/>
	<path d="M220.9,79.3c0-0.9,0.6-1.5,1.3-1.5c0.4,0,0.6,0.2,0.8,0.3l-0.2,0.2c-0.2-0.2-0.4-0.3-0.7-0.3c-0.6,0-1,0.5-1,1.3
		s0.4,1.2,1,1.2c0.3,0,0.6-0.1,0.8-0.3l0.1,0.2c-0.2,0.2-0.5,0.4-0.9,0.4C221.5,80.8,220.9,80.2,220.9,79.3z"/>
	<path d="M223.4,79.3c0-0.9,0.6-1.5,1.2-1.5c0.7,0,1.1,0.5,1.1,1.3c0,0.1,0,0.1,0,0.2h-2c0,0.7,0.4,1.2,1.1,1.2
		c0.3,0,0.5-0.1,0.8-0.2l0.1,0.2c-0.2,0.1-0.5,0.3-0.9,0.3C224,80.8,223.4,80.2,223.4,79.3z M225.5,79.1c0-0.7-0.3-1.1-0.8-1.1
		c-0.5,0-0.9,0.4-1,1.1H225.5z"/>
	<path d="M226.5,76.5h0.3v1.2l0,0.6c0.3-0.3,0.6-0.5,1-0.5c0.6,0,0.8,0.4,0.8,1.1v1.8h-0.3v-1.8c0-0.6-0.2-0.9-0.6-0.9
		c-0.3,0-0.6,0.2-0.9,0.5v2.1h-0.3V76.5z"/>
	<path d="M229.3,79.3c0-0.9,0.6-1.5,1.3-1.5c0.7,0,1.3,0.5,1.3,1.5c0,0.9-0.6,1.5-1.3,1.5C229.9,80.8,229.3,80.2,229.3,79.3z
		 M231.6,79.3c0-0.7-0.4-1.3-1-1.3c-0.6,0-1,0.5-1,1.3s0.4,1.2,1,1.2C231.2,80.6,231.6,80,231.6,79.3z"/>
	<path d="M232.7,80.3v-3.8h0.3v3.9c0,0.1,0.1,0.2,0.1,0.2c0,0,0,0,0.1,0l0,0.2c-0.1,0-0.1,0-0.2,0C232.8,80.8,232.7,80.6,232.7,80.3
		z"/>
	<path d="M233.9,79.3c0-0.9,0.6-1.5,1.2-1.5c0.3,0,0.6,0.1,0.8,0.3l0-0.5v-1.2h0.3v4.2H236l0-0.4h0c-0.2,0.2-0.5,0.4-0.9,0.4
		C234.3,80.8,233.9,80.3,233.9,79.3z M235.9,80.1v-1.7c-0.3-0.3-0.5-0.4-0.8-0.4c-0.6,0-1,0.5-1,1.2c0,0.7,0.3,1.2,0.9,1.2
		C235.4,80.5,235.6,80.4,235.9,80.1z"/>
	<path d="M237,79.3c0-0.9,0.6-1.5,1.2-1.5c0.7,0,1.1,0.5,1.1,1.3c0,0.1,0,0.1,0,0.2h-2c0,0.7,0.4,1.2,1.1,1.2c0.3,0,0.5-0.1,0.8-0.2
		l0.1,0.2c-0.2,0.1-0.5,0.3-0.9,0.3C237.6,80.8,237,80.2,237,79.3z M239.1,79.1c0-0.7-0.3-1.1-0.8-1.1c-0.5,0-0.9,0.4-1,1.1H239.1z"
		/>
	<path d="M240.1,77.9h0.2l0,0.5h0c0.2-0.3,0.5-0.6,0.8-0.6c0.1,0,0.2,0,0.3,0.1l-0.1,0.2c-0.1,0-0.1,0-0.3,0c-0.3,0-0.6,0.2-0.8,0.7
		v1.9h-0.3V77.9z"/>
	<path d="M242.8,79.8c0-0.5,0.4-0.9,0.7-1.1v0c-0.3-0.2-0.5-0.5-0.5-0.9c0-0.5,0.4-0.9,1-0.9c0.6,0,1,0.4,1,1c0,0.4-0.3,0.8-0.5,1v0
		c0.3,0.2,0.7,0.4,0.7,1c0,0.5-0.5,1-1.1,1C243.3,80.8,242.8,80.3,242.8,79.8z M244.9,79.8c0-0.6-0.6-0.8-1.1-1
		c-0.4,0.2-0.7,0.5-0.7,0.9c0,0.5,0.4,0.8,0.9,0.8C244.5,80.6,244.9,80.2,244.9,79.8z M244.8,77.9c0-0.4-0.3-0.8-0.8-0.8
		c-0.4,0-0.7,0.3-0.7,0.7c0,0.5,0.5,0.7,1,0.9C244.6,78.5,244.8,78.2,244.8,77.9z"/>
	<path d="M245.7,78.8c0-1.2,0.4-1.9,1.1-1.9c0.7,0,1.1,0.7,1.1,1.9s-0.4,2-1.1,2C246.1,80.8,245.7,80.1,245.7,78.8z M247.6,78.8
		c0-1.1-0.3-1.7-0.9-1.7c-0.5,0-0.9,0.6-0.9,1.7c0,1.1,0.3,1.7,0.9,1.7C247.3,80.6,247.6,80,247.6,78.8z"/>
	<path d="M248.4,78c0-0.8,0.3-1.2,0.8-1.2c0.5,0,0.8,0.4,0.8,1.2c0,0.8-0.3,1.2-0.8,1.2C248.7,79.2,248.4,78.8,248.4,78z M249.9,78
		c0-0.7-0.2-1-0.6-1c-0.4,0-0.6,0.4-0.6,1c0,0.7,0.2,1,0.6,1C249.6,79,249.9,78.6,249.9,78z M251.5,76.8h0.2l-2.2,4h-0.2L251.5,76.8
		z M251,79.6c0-0.8,0.3-1.2,0.8-1.2c0.5,0,0.8,0.4,0.8,1.2c0,0.8-0.3,1.2-0.8,1.2C251.3,80.8,251,80.3,251,79.6z M252.4,79.6
		c0-0.7-0.2-1-0.6-1c-0.4,0-0.6,0.4-0.6,1c0,0.7,0.2,1,0.6,1C252.2,80.6,252.4,80.2,252.4,79.6z"/>
	<path d="M254.4,79.3c0-0.9,0.6-1.5,1.3-1.5c0.7,0,1.3,0.5,1.3,1.5c0,0.9-0.6,1.5-1.3,1.5C255,80.8,254.4,80.2,254.4,79.3z
		 M256.6,79.3c0-0.7-0.4-1.3-1-1.3c-0.6,0-1,0.5-1,1.3s0.4,1.2,1,1.2C256.2,80.6,256.6,80,256.6,79.3z"/>
	<path d="M257.7,77.9h0.2l0,0.4h0c0.3-0.2,0.6-0.4,1-0.4c0.8,0,1.1,0.6,1.1,1.4c0,1-0.6,1.5-1.2,1.5c-0.3,0-0.6-0.1-0.8-0.3l0,0.5v1
		h-0.3V77.9z M259.8,79.3c0-0.7-0.2-1.2-0.9-1.2c-0.3,0-0.6,0.2-0.9,0.5v1.7c0.3,0.3,0.6,0.4,0.8,0.4
		C259.4,80.5,259.8,80,259.8,79.3z"/>
	<path d="M260.6,80c0-0.6,0.6-0.9,1.8-1.1c0-0.4-0.1-0.9-0.7-0.9c-0.4,0-0.7,0.2-0.9,0.3l-0.1-0.2c0.2-0.1,0.6-0.4,1-0.4
		c0.7,0,0.9,0.5,0.9,1.1v1.8h-0.2l0-0.4h0c-0.3,0.2-0.6,0.4-1,0.4C261,80.8,260.6,80.5,260.6,80z M262.5,80.1v-1
		c-1.2,0.1-1.5,0.4-1.5,0.8c0,0.4,0.3,0.6,0.6,0.6C261.8,80.6,262.1,80.4,262.5,80.1z"/>
	<path d="M263.5,79.3c0-0.9,0.6-1.5,1.3-1.5c0.4,0,0.6,0.2,0.8,0.3l-0.2,0.2c-0.2-0.2-0.4-0.3-0.7-0.3c-0.6,0-1,0.5-1,1.3
		s0.4,1.2,1,1.2c0.3,0,0.6-0.1,0.8-0.3l0.1,0.2c-0.2,0.2-0.5,0.4-0.9,0.4C264,80.8,263.5,80.2,263.5,79.3z"/>
	<path d="M266.2,77c0-0.1,0.1-0.2,0.2-0.2c0.1,0,0.2,0.1,0.2,0.2c0,0.1-0.1,0.2-0.2,0.2C266.4,77.2,266.2,77.1,266.2,77z
		 M266.3,77.9h0.3v2.8h-0.3V77.9z"/>
	<path d="M267.7,79.9v-1.8h-0.4v-0.2l0.4,0l0-0.8h0.2v0.8h0.8v0.2H268V80c0,0.4,0.1,0.6,0.5,0.6c0.1,0,0.3,0,0.4-0.1l0.1,0.2
		c-0.2,0.1-0.3,0.1-0.5,0.1C267.9,80.8,267.7,80.4,267.7,79.9z"/>
	<path d="M269.2,80c0-0.6,0.6-0.9,1.8-1.1c0-0.4-0.1-0.9-0.7-0.9c-0.4,0-0.7,0.2-0.9,0.3l-0.1-0.2c0.2-0.1,0.6-0.4,1-0.4
		c0.7,0,0.9,0.5,0.9,1.1v1.8H271l0-0.4h0c-0.3,0.2-0.6,0.4-1,0.4C269.5,80.8,269.2,80.5,269.2,80z M271,80.1v-1
		c-1.2,0.1-1.5,0.4-1.5,0.8c0,0.4,0.3,0.6,0.6,0.6C270.4,80.6,270.6,80.4,271,80.1z M269.7,76.5l0.2-0.2l0.8,0.9l-0.1,0.1
		L269.7,76.5z"/>
	<path d="M271.9,81.6c0.5-0.7,0.7-1.6,0.7-2.6s-0.2-1.8-0.7-2.6l0.2-0.1c0.5,0.8,0.8,1.6,0.8,2.6s-0.3,1.9-0.8,2.6L271.9,81.6z"/>
	<path d="M195.4,85.6h0.3l0.7,2.3c0.1,0.5,0.2,0.8,0.4,1.3h0c0.2-0.5,0.3-0.8,0.4-1.3l0.7-2.3h0.3l-1.3,3.9h-0.3L195.4,85.6z"/>
	<path d="M198.7,85.8c0-0.1,0.1-0.2,0.2-0.2c0.1,0,0.2,0.1,0.2,0.2c0,0.1-0.1,0.2-0.2,0.2C198.8,86,198.7,85.9,198.7,85.8z
		 M198.8,86.7h0.3v2.8h-0.3V86.7z"/>
	<path d="M199.8,89.2L200,89c0.2,0.2,0.5,0.4,0.9,0.4c0.4,0,0.7-0.3,0.7-0.6c0-0.4-0.4-0.5-0.7-0.6c-0.4-0.2-0.9-0.3-0.9-0.8
		c0-0.4,0.3-0.7,0.9-0.7c0.3,0,0.6,0.1,0.8,0.3l-0.1,0.2c-0.2-0.1-0.4-0.3-0.7-0.3c-0.4,0-0.6,0.3-0.6,0.5c0,0.3,0.3,0.4,0.7,0.6
		c0.4,0.2,0.9,0.3,0.9,0.9c0,0.4-0.3,0.8-0.9,0.8C200.4,89.6,200.1,89.4,199.8,89.2z"/>
	<path d="M202.5,88.5v-1.8h0.3v1.8c0,0.6,0.2,0.9,0.6,0.9c0.3,0,0.6-0.2,0.9-0.6v-2.1h0.3v2.8h-0.2l0-0.5h0c-0.3,0.3-0.6,0.5-1,0.5
		C202.8,89.6,202.5,89.2,202.5,88.5z"/>
	<path d="M205.4,88.8c0-0.6,0.6-0.9,1.8-1.1c0-0.4-0.1-0.9-0.7-0.9c-0.4,0-0.7,0.2-0.9,0.3l-0.1-0.2c0.2-0.1,0.6-0.4,1-0.4
		c0.7,0,0.9,0.5,0.9,1.1v1.8h-0.2l0-0.4h0c-0.3,0.2-0.6,0.4-1,0.4C205.8,89.6,205.4,89.3,205.4,88.8z M207.3,88.9v-1
		c-1.2,0.1-1.5,0.4-1.5,0.8c0,0.4,0.3,0.6,0.6,0.6C206.6,89.3,206.9,89.2,207.3,88.9z"/>
	<path d="M208.5,89.1v-3.8h0.3v3.9c0,0.1,0.1,0.2,0.1,0.2c0,0,0,0,0.1,0l0,0.2c-0.1,0-0.1,0-0.2,0C208.6,89.6,208.5,89.4,208.5,89.1
		z"/>
	<path d="M209.8,85.8c0-0.1,0.1-0.2,0.2-0.2c0.1,0,0.2,0.1,0.2,0.2c0,0.1-0.1,0.2-0.2,0.2C209.9,86,209.8,85.9,209.8,85.8z
		 M209.9,86.7h0.3v2.8h-0.3V86.7z"/>
	<path d="M210.9,89.3l1.7-2.4H211v-0.2h1.8v0.1l-1.7,2.4h1.7v0.2h-2.1V89.3z"/>
	<path d="M213.2,89.3l1.7-2.4h-1.5v-0.2h1.8v0.1l-1.7,2.4h1.7v0.2h-2.1V89.3z"/>
	<path d="M215.6,88.8c0-0.6,0.6-0.9,1.8-1.1c0-0.4-0.1-0.9-0.7-0.9c-0.4,0-0.7,0.2-0.9,0.3l-0.1-0.2c0.2-0.1,0.6-0.4,1-0.4
		c0.7,0,0.9,0.5,0.9,1.1v1.8h-0.2l0-0.4h0c-0.3,0.2-0.6,0.4-1,0.4C216,89.6,215.6,89.3,215.6,88.8z M217.4,88.9v-1
		c-1.2,0.1-1.5,0.4-1.5,0.8c0,0.4,0.3,0.6,0.6,0.6C216.8,89.3,217.1,89.2,217.4,88.9z"/>
	<path d="M219.6,90.1c0-0.2,0.2-0.5,0.4-0.7v0c-0.1-0.1-0.2-0.2-0.2-0.5c0-0.3,0.2-0.4,0.3-0.5v0c-0.2-0.2-0.4-0.4-0.4-0.8
		c0-0.6,0.4-1,1-1c0.2,0,0.3,0,0.4,0.1h1v0.2h-0.7c0.2,0.2,0.3,0.4,0.3,0.7c0,0.6-0.4,1-1,1c-0.2,0-0.3,0-0.5-0.1
		c-0.1,0.1-0.2,0.2-0.2,0.4c0,0.2,0.1,0.4,0.5,0.4h0.6c0.6,0,0.9,0.2,0.9,0.6c0,0.5-0.5,0.9-1.3,0.9
		C220.1,90.8,219.6,90.5,219.6,90.1z M221.8,89.9c0-0.3-0.2-0.4-0.6-0.4h-0.6c-0.1,0-0.2,0-0.3,0c-0.3,0.2-0.4,0.4-0.4,0.6
		c0,0.4,0.3,0.6,0.9,0.6C221.4,90.6,221.8,90.3,221.8,89.9z M221.5,87.6c0-0.5-0.3-0.8-0.7-0.8c-0.4,0-0.7,0.3-0.7,0.8
		c0,0.5,0.3,0.8,0.7,0.8S221.5,88.1,221.5,87.6z"/>
	<path d="M222.7,86.7h0.2l0,0.5h0c0.2-0.3,0.5-0.6,0.8-0.6c0.1,0,0.2,0,0.3,0.1l-0.1,0.2c-0.1,0-0.1,0-0.3,0c-0.3,0-0.6,0.2-0.8,0.7
		v1.9h-0.3V86.7z"/>
	<path d="M224.5,85.8c0-0.1,0.1-0.2,0.2-0.2c0.1,0,0.2,0.1,0.2,0.2c0,0.1-0.1,0.2-0.2,0.2C224.6,86,224.5,85.9,224.5,85.8z
		 M224.6,86.7h0.3v2.8h-0.3V86.7z"/>
	<path d="M225.7,90.1c0-0.2,0.2-0.5,0.4-0.7v0c-0.1-0.1-0.2-0.2-0.2-0.5c0-0.3,0.2-0.4,0.3-0.5v0c-0.2-0.2-0.4-0.4-0.4-0.8
		c0-0.6,0.4-1,1-1c0.2,0,0.3,0,0.4,0.1h1v0.2h-0.7c0.2,0.2,0.3,0.4,0.3,0.7c0,0.6-0.4,1-1,1c-0.2,0-0.3,0-0.5-0.1
		c-0.1,0.1-0.2,0.2-0.2,0.4c0,0.2,0.1,0.4,0.5,0.4h0.6c0.6,0,0.9,0.2,0.9,0.6c0,0.5-0.5,0.9-1.3,0.9
		C226.1,90.8,225.7,90.5,225.7,90.1z M227.9,89.9c0-0.3-0.2-0.4-0.7-0.4h-0.6c-0.1,0-0.2,0-0.3,0c-0.3,0.2-0.4,0.4-0.4,0.6
		c0,0.4,0.3,0.6,0.9,0.6C227.5,90.6,227.9,90.3,227.9,89.9z M227.5,87.6c0-0.5-0.3-0.8-0.7-0.8s-0.7,0.3-0.7,0.8
		c0,0.5,0.3,0.8,0.7,0.8S227.5,88.1,227.5,87.6z"/>
	<path d="M228.7,89.1v-3.8h0.3v3.9c0,0.1,0.1,0.2,0.1,0.2c0,0,0,0,0.1,0l0,0.2c-0.1,0-0.1,0-0.2,0C228.9,89.6,228.7,89.4,228.7,89.1
		z"/>
	<path d="M230,85.8c0-0.1,0.1-0.2,0.2-0.2c0.1,0,0.2,0.1,0.2,0.2c0,0.1-0.1,0.2-0.2,0.2C230.1,86,230,85.9,230,85.8z M230.1,86.7
		h0.3v2.8h-0.3V86.7z"/>
	<path d="M231.3,88.8c0-0.6,0.6-0.9,1.8-1.1c0-0.4-0.1-0.9-0.7-0.9c-0.4,0-0.7,0.2-0.9,0.3l-0.1-0.2c0.2-0.1,0.6-0.4,1-0.4
		c0.7,0,0.9,0.5,0.9,1.1v1.8h-0.2l0-0.4h0c-0.3,0.2-0.6,0.4-1,0.4C231.6,89.6,231.3,89.3,231.3,88.8z M233.1,88.9v-1
		c-1.2,0.1-1.5,0.4-1.5,0.8c0,0.4,0.3,0.6,0.6,0.6C232.5,89.3,232.7,89.2,233.1,88.9z"/>
	<path d="M235.2,89.3c1.2-1.2,1.8-1.9,1.8-2.6c0-0.5-0.3-0.8-0.8-0.8c-0.3,0-0.6,0.2-0.9,0.5l-0.2-0.2c0.3-0.3,0.6-0.6,1.1-0.6
		c0.7,0,1.1,0.4,1.1,1c0,0.7-0.7,1.5-1.7,2.6c0.2,0,0.4,0,0.6,0h1.3v0.2h-2.3V89.3z"/>
	<path d="M240.8,85.3h0.2l-1.8,5.1H239L240.8,85.3z"/>
	<path d="M244,86.8c0-0.2,0-0.5,0-0.6h0c-0.1,0.2-0.2,0.3-0.3,0.5l-1.1,1.5h2.2v0.2h-2.5v-0.2l1.7-2.5h0.2v3.7H244V86.8z"/>
	<path d="M246.6,85.8c0-0.1,0.1-0.2,0.2-0.2c0.1,0,0.2,0.1,0.2,0.2c0,0.1-0.1,0.2-0.2,0.2C246.7,86,246.6,85.9,246.6,85.8z
		 M246.7,86.7h0.3v2.8h-0.3V86.7z"/>
	<path d="M248.1,86.7h0.2l0,0.4h0c0.3-0.3,0.6-0.5,0.9-0.5c0.5,0,0.7,0.2,0.8,0.6c0.3-0.4,0.6-0.6,1-0.6c0.6,0,0.8,0.4,0.8,1.1v1.8
		h-0.3v-1.8c0-0.6-0.2-0.9-0.6-0.9c-0.3,0-0.5,0.2-0.8,0.5v2.1h-0.3v-1.8c0-0.6-0.2-0.9-0.6-0.9c-0.3,0-0.5,0.2-0.8,0.5v2.1h-0.3
		V86.7z"/>
	<path d="M252.8,86.7h0.2l0,0.4h0c0.3-0.3,0.6-0.5,0.9-0.5c0.5,0,0.7,0.2,0.8,0.6c0.3-0.4,0.6-0.6,1-0.6c0.6,0,0.8,0.4,0.8,1.1v1.8
		h-0.3v-1.8c0-0.6-0.2-0.9-0.6-0.9c-0.3,0-0.5,0.2-0.8,0.5v2.1h-0.3v-1.8c0-0.6-0.2-0.9-0.6-0.9c-0.3,0-0.5,0.2-0.8,0.5v2.1h-0.3
		V86.7z"/>
	<path d="M257.4,88.8c0-0.6,0.6-0.9,1.8-1.1c0-0.4-0.1-0.9-0.7-0.9c-0.4,0-0.7,0.2-0.9,0.3l-0.1-0.2c0.2-0.1,0.6-0.4,1-0.4
		c0.7,0,0.9,0.5,0.9,1.1v1.8h-0.2l0-0.4h0c-0.3,0.2-0.6,0.4-1,0.4C257.7,89.6,257.4,89.3,257.4,88.8z M259.2,88.9v-1
		c-1.2,0.1-1.5,0.4-1.5,0.8c0,0.4,0.3,0.6,0.6,0.6C258.5,89.3,258.8,89.2,259.2,88.9z"/>
	<path d="M260.2,90.1c0-0.2,0.2-0.5,0.4-0.7v0c-0.1-0.1-0.2-0.2-0.2-0.5c0-0.3,0.2-0.4,0.3-0.5v0c-0.2-0.2-0.4-0.4-0.4-0.8
		c0-0.6,0.4-1,1-1c0.2,0,0.3,0,0.4,0.1h1v0.2H262c0.2,0.2,0.3,0.4,0.3,0.7c0,0.6-0.4,1-1,1c-0.2,0-0.3,0-0.5-0.1
		c-0.1,0.1-0.2,0.2-0.2,0.4c0,0.2,0.1,0.4,0.5,0.4h0.6c0.6,0,0.9,0.2,0.9,0.6c0,0.5-0.5,0.9-1.3,0.9
		C260.6,90.8,260.2,90.5,260.2,90.1z M262.4,89.9c0-0.3-0.2-0.4-0.6-0.4h-0.6c-0.1,0-0.2,0-0.3,0c-0.3,0.2-0.4,0.4-0.4,0.6
		c0,0.4,0.3,0.6,0.9,0.6C262,90.6,262.4,90.3,262.4,89.9z M262,87.6c0-0.5-0.3-0.8-0.7-0.8s-0.7,0.3-0.7,0.8c0,0.5,0.3,0.8,0.7,0.8
		S262,88.1,262,87.6z"/>
	<path d="M263.2,85.8c0-0.1,0.1-0.2,0.2-0.2c0.1,0,0.2,0.1,0.2,0.2c0,0.1-0.1,0.2-0.2,0.2C263.3,86,263.2,85.9,263.2,85.8z
		 M263.3,86.7h0.3v2.8h-0.3V86.7z"/>
	<path d="M264.6,86.7h0.2l0,0.4h0c0.3-0.3,0.6-0.5,1-0.5c0.6,0,0.8,0.4,0.8,1.1v1.8h-0.3v-1.8c0-0.6-0.2-0.9-0.6-0.9
		c-0.3,0-0.6,0.2-0.9,0.5v2.1h-0.3V86.7z"/>
	<path d="M267.6,85.8c0-0.1,0.1-0.2,0.2-0.2c0.1,0,0.2,0.1,0.2,0.2c0,0.1-0.1,0.2-0.2,0.2C267.8,86,267.6,85.9,267.6,85.8z
		 M267.7,86.7h0.3v2.8h-0.3V86.7z"/>
	<path d="M270.2,87.9c0-1,0.3-1.9,0.8-2.6l0.2,0.1c-0.5,0.7-0.7,1.6-0.7,2.6s0.2,1.8,0.7,2.6l-0.2,0.1
		C270.5,89.7,270.2,88.9,270.2,87.9z"/>
	<path d="M271.5,89.1l0.1-0.2c0.2,0.2,0.5,0.5,1,0.5c0.5,0,0.9-0.4,0.9-1c0-0.6-0.4-1-0.9-1c-0.3,0-0.5,0.1-0.7,0.2l-0.2-0.1
		l0.1-1.7h1.7V86h-1.5l-0.1,1.3c0.2-0.1,0.4-0.2,0.7-0.2c0.6,0,1.1,0.4,1.1,1.2c0,0.8-0.6,1.2-1.2,1.2
		C272.1,89.6,271.7,89.3,271.5,89.1z"/>
	<path d="M274.4,87.6c0-1.2,0.4-1.9,1.1-1.9c0.7,0,1.1,0.7,1.1,1.9s-0.4,2-1.1,2C274.8,89.6,274.4,88.8,274.4,87.6z M276.4,87.6
		c0-1.1-0.3-1.7-0.9-1.7c-0.5,0-0.9,0.6-0.9,1.7c0,1.1,0.3,1.7,0.9,1.7C276.1,89.3,276.4,88.7,276.4,87.6z"/>
	<path d="M277.2,86.8c0-0.8,0.3-1.2,0.8-1.2c0.5,0,0.8,0.4,0.8,1.2c0,0.8-0.3,1.2-0.8,1.2C277.5,88,277.2,87.5,277.2,86.8z
		 M278.6,86.8c0-0.7-0.2-1-0.6-1s-0.6,0.4-0.6,1c0,0.7,0.2,1,0.6,1S278.6,87.4,278.6,86.8z M280.3,85.6h0.2l-2.2,4h-0.2L280.3,85.6z
		 M279.8,88.3c0-0.8,0.3-1.2,0.8-1.2c0.5,0,0.8,0.4,0.8,1.2c0,0.8-0.3,1.2-0.8,1.2C280.1,89.6,279.8,89.1,279.8,88.3z M281.2,88.3
		c0-0.7-0.2-1-0.6-1c-0.4,0-0.6,0.4-0.6,1c0,0.7,0.2,1,0.6,1C281,89.4,281.2,89,281.2,88.3z"/>
	<path d="M283.1,88.1c0-0.9,0.6-1.5,1.3-1.5c0.7,0,1.3,0.5,1.3,1.5c0,0.9-0.6,1.5-1.3,1.5C283.7,89.6,283.1,89,283.1,88.1z
		 M285.4,88.1c0-0.7-0.4-1.3-1-1.3c-0.6,0-1,0.5-1,1.3s0.4,1.2,1,1.2C285,89.3,285.4,88.8,285.4,88.1z"/>
	<path d="M286.5,86.7h0.2l0,0.4h0c0.3-0.2,0.6-0.4,1-0.4c0.8,0,1.1,0.6,1.1,1.4c0,1-0.6,1.5-1.2,1.5c-0.3,0-0.6-0.1-0.8-0.3l0,0.5v1
		h-0.3V86.7z M288.6,88c0-0.7-0.2-1.2-0.9-1.2c-0.3,0-0.6,0.2-0.9,0.5V89c0.3,0.3,0.6,0.4,0.8,0.4C288.2,89.3,288.6,88.8,288.6,88z"
		/>
	<path d="M289.4,88.8c0-0.6,0.6-0.9,1.8-1.1c0-0.4-0.1-0.9-0.7-0.9c-0.4,0-0.7,0.2-0.9,0.3l-0.1-0.2c0.2-0.1,0.6-0.4,1-0.4
		c0.7,0,0.9,0.5,0.9,1.1v1.8h-0.2l0-0.4h0c-0.3,0.2-0.6,0.4-1,0.4C289.8,89.6,289.4,89.3,289.4,88.8z M291.2,88.9v-1
		c-1.2,0.1-1.5,0.4-1.5,0.8c0,0.4,0.3,0.6,0.6,0.6C290.6,89.3,290.9,89.2,291.2,88.9z"/>
	<path d="M292.2,88.1c0-0.9,0.6-1.5,1.3-1.5c0.4,0,0.6,0.2,0.8,0.3l-0.2,0.2c-0.2-0.2-0.4-0.3-0.7-0.3c-0.6,0-1,0.5-1,1.3
		s0.4,1.2,1,1.2c0.3,0,0.6-0.1,0.8-0.3l0.1,0.2c-0.2,0.2-0.5,0.4-0.9,0.4C292.8,89.6,292.2,89,292.2,88.1z"/>
	<path d="M295,85.8c0-0.1,0.1-0.2,0.2-0.2c0.1,0,0.2,0.1,0.2,0.2c0,0.1-0.1,0.2-0.2,0.2C295.1,86,295,85.9,295,85.8z M295.1,86.7
		h0.3v2.8h-0.3V86.7z"/>
	<path d="M296.5,88.7v-1.8h-0.4v-0.2l0.4,0l0-0.8h0.2v0.8h0.8v0.2h-0.8v1.8c0,0.4,0.1,0.6,0.5,0.6c0.1,0,0.3,0,0.4-0.1l0.1,0.2
		c-0.2,0.1-0.3,0.1-0.5,0.1C296.7,89.6,296.5,89.2,296.5,88.7z"/>
	<path d="M297.9,88.8c0-0.6,0.6-0.9,1.8-1.1c0-0.4-0.1-0.9-0.7-0.9c-0.4,0-0.7,0.2-0.9,0.3l-0.1-0.2c0.2-0.1,0.6-0.4,1-0.4
		c0.7,0,0.9,0.5,0.9,1.1v1.8h-0.2l0-0.4h0c-0.3,0.2-0.6,0.4-1,0.4C298.3,89.6,297.9,89.3,297.9,88.8z M299.7,88.9v-1
		c-1.2,0.1-1.5,0.4-1.5,0.8c0,0.4,0.3,0.6,0.6,0.6C299.1,89.3,299.4,89.2,299.7,88.9z M298.4,85.2l0.2-0.2l0.8,0.9l-0.1,0.1
		L298.4,85.2z"/>
	<path d="M300.7,90.4c0.5-0.7,0.7-1.6,0.7-2.6s-0.2-1.8-0.7-2.6l0.2-0.1c0.5,0.8,0.8,1.6,0.8,2.6s-0.3,1.9-0.8,2.6L300.7,90.4z"/>
	<path d="M196.8,94.6h-1.2v-0.2h2.7v0.2h-1.2v3.6h-0.3V94.6z"/>
	<path d="M198.7,97.3v-1.8h0.3v1.8c0,0.6,0.2,0.9,0.6,0.9c0.3,0,0.6-0.2,0.9-0.6v-2.1h0.3v2.8h-0.2l0-0.5h0c-0.3,0.3-0.6,0.5-1,0.5
		C199,98.3,198.7,98,198.7,97.3z"/>
	<path d="M201.8,95.5h0.2l0,0.4h0c0.3-0.3,0.6-0.5,0.9-0.5c0.5,0,0.7,0.2,0.8,0.6c0.3-0.4,0.6-0.6,1-0.6c0.6,0,0.8,0.4,0.8,1.1v1.8
		h-0.3v-1.8c0-0.6-0.2-0.9-0.6-0.9c-0.3,0-0.5,0.2-0.8,0.5v2.1h-0.3v-1.8c0-0.6-0.2-0.9-0.6-0.9c-0.3,0-0.5,0.2-0.8,0.5v2.1h-0.3
		V95.5z"/>
	<path d="M206.8,98L206.8,98l0,0.3h-0.2v-4.2h0.3v1.2l0,0.5c0.3-0.2,0.6-0.4,1-0.4c0.8,0,1.1,0.6,1.1,1.4c0,1-0.6,1.5-1.2,1.5
		C207.4,98.3,207.1,98.2,206.8,98z M208.7,96.8c0-0.7-0.2-1.2-0.9-1.2c-0.3,0-0.6,0.2-0.9,0.5v1.7c0.3,0.3,0.6,0.4,0.8,0.4
		C208.2,98.1,208.7,97.6,208.7,96.8z"/>
	<path d="M210.9,97.3v-1.8h0.3v1.8c0,0.6,0.2,0.9,0.6,0.9c0.3,0,0.6-0.2,0.9-0.6v-2.1h0.3v2.8h-0.2l0-0.5h0c-0.3,0.3-0.6,0.5-1,0.5
		C211.2,98.3,210.9,98,210.9,97.3z"/>
	<path d="M214,95.5h0.2l0,0.4h0c0.3-0.2,0.6-0.4,1-0.4c0.8,0,1.1,0.6,1.1,1.4c0,1-0.6,1.5-1.2,1.5c-0.3,0-0.6-0.1-0.8-0.3l0,0.5v1
		H214V95.5z M216.1,96.8c0-0.7-0.2-1.2-0.9-1.2c-0.3,0-0.6,0.2-0.9,0.5v1.7c0.3,0.3,0.6,0.4,0.8,0.4
		C215.7,98.1,216.1,97.6,216.1,96.8z"/>
	<path d="M219.7,94.1h0.2l-1.8,5.1h-0.2L219.7,94.1z"/>
	<path d="M222.5,94.6h-1.2v-0.2h2.7v0.2h-1.2v3.6h-0.3V94.6z"/>
	<path d="M224.4,97.3v-1.8h0.3v1.8c0,0.6,0.2,0.9,0.6,0.9c0.3,0,0.6-0.2,0.9-0.6v-2.1h0.3v2.8h-0.2l0-0.5h0c-0.3,0.3-0.6,0.5-1,0.5
		C224.6,98.3,224.4,98,224.4,97.3z"/>
	<path d="M227.5,95.5h0.2l0,0.4h0c0.3-0.3,0.6-0.5,0.9-0.5c0.5,0,0.7,0.2,0.8,0.6c0.3-0.4,0.6-0.6,1-0.6c0.6,0,0.8,0.4,0.8,1.1v1.8
		H231v-1.8c0-0.6-0.2-0.9-0.6-0.9c-0.3,0-0.5,0.2-0.8,0.5v2.1h-0.3v-1.8c0-0.6-0.2-0.9-0.6-0.9c-0.3,0-0.5,0.2-0.8,0.5v2.1h-0.3
		V95.5z"/>
	<path d="M232.5,98L232.5,98l0,0.3h-0.2v-4.2h0.3v1.2l0,0.5c0.3-0.2,0.6-0.4,1-0.4c0.8,0,1.1,0.6,1.1,1.4c0,1-0.6,1.5-1.2,1.5
		C233.1,98.3,232.8,98.2,232.5,98z M234.3,96.8c0-0.7-0.2-1.2-0.9-1.2c-0.3,0-0.6,0.2-0.9,0.5v1.7c0.3,0.3,0.6,0.4,0.8,0.4
		C233.9,98.1,234.3,97.6,234.3,96.8z"/>
	<path d="M236.4,96.9c0-0.9,0.6-1.5,1.2-1.5c0.3,0,0.6,0.1,0.8,0.3l0-0.5v-1.2h0.3v4.2h-0.2l0-0.4h0c-0.2,0.2-0.5,0.4-0.9,0.4
		C236.8,98.3,236.4,97.8,236.4,96.9z M238.4,97.6V96c-0.3-0.3-0.5-0.4-0.8-0.4c-0.6,0-1,0.5-1,1.2c0,0.7,0.3,1.2,0.9,1.2
		C237.9,98.1,238.1,97.9,238.4,97.6z"/>
	<path d="M239.5,96.9c0-0.9,0.6-1.5,1.3-1.5c0.7,0,1.3,0.5,1.3,1.5c0,0.9-0.6,1.5-1.3,1.5C240.1,98.3,239.5,97.8,239.5,96.9z
		 M241.8,96.9c0-0.7-0.4-1.3-1-1.3c-0.6,0-1,0.5-1,1.3s0.4,1.2,1,1.2C241.4,98.1,241.8,97.6,241.8,96.9z"/>
	<path d="M242.5,95.5h0.3l0.5,1.8c0.1,0.3,0.1,0.5,0.2,0.8h0c0.1-0.3,0.1-0.5,0.2-0.8l0.5-1.8h0.3l0.5,1.8c0.1,0.3,0.1,0.5,0.2,0.8
		h0c0.1-0.3,0.1-0.5,0.2-0.8l0.5-1.8h0.3l-0.8,2.8h-0.3l-0.5-1.7c-0.1-0.3-0.1-0.5-0.2-0.8h0c-0.1,0.3-0.1,0.5-0.2,0.8l-0.5,1.7
		h-0.3L242.5,95.5z"/>
	<path d="M246.9,95.5h0.2l0,0.4h0c0.3-0.3,0.6-0.5,1-0.5c0.6,0,0.8,0.4,0.8,1.1v1.8h-0.3v-1.8c0-0.6-0.2-0.9-0.6-0.9
		c-0.3,0-0.6,0.2-0.9,0.5v2.1h-0.3V95.5z"/>
</g>
<g>
	<path d="M195.3,191.7l0.2-0.2c0.3,0.3,0.7,0.5,1.1,0.5c0.6,0,1-0.3,1-0.8c0-0.5-0.3-0.6-0.7-0.8l-0.6-0.3c-0.3-0.1-0.8-0.4-0.8-1
		c0-0.6,0.5-1,1.1-1c0.5,0,0.8,0.2,1.1,0.5l-0.2,0.2c-0.2-0.2-0.5-0.4-0.9-0.4c-0.5,0-0.9,0.3-0.9,0.7c0,0.5,0.4,0.6,0.7,0.7
		l0.6,0.3c0.4,0.2,0.8,0.4,0.8,1c0,0.6-0.5,1-1.2,1C196.1,192.3,195.6,192.1,195.3,191.7z"/>
	<path d="M198.6,191.9v-3.8h0.3v3.9c0,0.1,0.1,0.2,0.1,0.2c0,0,0,0,0.1,0l0,0.2c-0.1,0-0.1,0-0.2,0
		C198.8,192.3,198.6,192.2,198.6,191.9z"/>
	<path d="M199.9,188.5c0-0.1,0.1-0.2,0.2-0.2c0.1,0,0.2,0.1,0.2,0.2c0,0.1-0.1,0.2-0.2,0.2C200,188.8,199.9,188.7,199.9,188.5z
		 M200,189.5h0.3v2.8H200V189.5z"/>
	<path d="M201.1,190.9c0-0.9,0.6-1.5,1.2-1.5c0.3,0,0.6,0.1,0.8,0.3l0-0.5v-1.2h0.3v4.2h-0.2l0-0.4h0c-0.2,0.2-0.5,0.4-0.9,0.4
		C201.6,192.3,201.1,191.8,201.1,190.9z M203.2,191.6V190c-0.3-0.3-0.5-0.4-0.8-0.4c-0.6,0-1,0.5-1,1.3c0,0.7,0.3,1.2,0.9,1.2
		C202.6,192.1,202.9,191.9,203.2,191.6z"/>
	<path d="M204.3,190.9c0-0.9,0.6-1.5,1.2-1.5c0.7,0,1.1,0.5,1.1,1.3c0,0.1,0,0.1,0,0.2h-2c0,0.7,0.4,1.2,1.1,1.2
		c0.3,0,0.5-0.1,0.8-0.2l0.1,0.2c-0.2,0.1-0.5,0.3-0.9,0.3C204.9,192.3,204.3,191.8,204.3,190.9z M206.4,190.7
		c0-0.7-0.3-1.1-0.8-1.1c-0.5,0-0.9,0.4-1,1.1H206.4z"/>
	<path d="M207.4,189.5h0.2l0,0.5h0c0.2-0.3,0.5-0.6,0.8-0.6c0.1,0,0.2,0,0.3,0.1l-0.1,0.2c-0.1,0-0.1,0-0.3,0
		c-0.3,0-0.6,0.2-0.8,0.7v1.9h-0.3V189.5z"/>
	<path d="M210.4,188.1h0.3v1.2l0,0.6c0.3-0.3,0.6-0.5,1-0.5c0.6,0,0.8,0.4,0.8,1.1v1.8h-0.3v-1.8c0-0.6-0.2-0.9-0.6-0.9
		c-0.3,0-0.6,0.2-0.9,0.5v2.1h-0.3V188.1z"/>
	<path d="M213.3,190.9c0-0.9,0.6-1.5,1.3-1.5c0.7,0,1.3,0.5,1.3,1.5c0,0.9-0.6,1.5-1.3,1.5C213.8,192.3,213.3,191.8,213.3,190.9z
		 M215.5,190.9c0-0.7-0.4-1.3-1-1.3c-0.6,0-1,0.5-1,1.3s0.4,1.2,1,1.2C215.1,192.1,215.5,191.6,215.5,190.9z"/>
	<path d="M216.6,189.5h0.2l0,0.4h0c0.3-0.3,0.6-0.5,0.9-0.5c0.5,0,0.7,0.2,0.8,0.6c0.3-0.4,0.6-0.6,1-0.6c0.6,0,0.8,0.4,0.8,1.1v1.8
		h-0.3v-1.8c0-0.6-0.2-0.9-0.6-0.9c-0.3,0-0.5,0.2-0.8,0.5v2.1h-0.3v-1.8c0-0.6-0.2-0.9-0.6-0.9c-0.3,0-0.5,0.2-0.8,0.5v2.1h-0.3
		V189.5z"/>
	<path d="M221.1,190.9c0-0.9,0.6-1.5,1.2-1.5c0.7,0,1.1,0.5,1.1,1.3c0,0.1,0,0.1,0,0.2h-2c0,0.7,0.4,1.2,1.1,1.2
		c0.3,0,0.5-0.1,0.8-0.2l0.1,0.2c-0.2,0.1-0.5,0.3-0.9,0.3C221.7,192.3,221.1,191.8,221.1,190.9z M223.2,190.7
		c0-0.7-0.3-1.1-0.8-1.1c-0.5,0-0.9,0.4-1,1.1H223.2z"/>
	<path d="M195.4,199.1c0-1.2,0.7-2,1.6-2c0.9,0,1.6,0.8,1.6,2c0,1.2-0.7,2-1.6,2C196,201.1,195.4,200.3,195.4,199.1z M198.3,199.1
		c0-1.1-0.5-1.7-1.3-1.7c-0.8,0-1.3,0.7-1.3,1.7c0,1.1,0.5,1.8,1.3,1.8C197.7,200.9,198.3,200.2,198.3,199.1z"/>
	<path d="M199.4,198.2h0.2l0,0.5h0c0.2-0.3,0.5-0.6,0.8-0.6c0.1,0,0.2,0,0.3,0.1l-0.1,0.2c-0.1,0-0.1,0-0.3,0
		c-0.3,0-0.6,0.2-0.8,0.7v1.9h-0.3V198.2z"/>
	<path d="M201,199.6c0-0.9,0.6-1.5,1.2-1.5c0.3,0,0.6,0.1,0.8,0.3l0-0.5v-1.2h0.3v4.2h-0.2l0-0.4h0c-0.2,0.2-0.5,0.4-0.9,0.4
		C201.4,201.1,201,200.6,201,199.6z M203.1,200.4v-1.7c-0.3-0.3-0.5-0.4-0.8-0.4c-0.6,0-1,0.5-1,1.3c0,0.7,0.3,1.2,0.9,1.2
		C202.5,200.9,202.8,200.7,203.1,200.4z"/>
	<path d="M204.2,199.6c0-0.9,0.6-1.5,1.2-1.5c0.7,0,1.1,0.5,1.1,1.3c0,0.1,0,0.1,0,0.2h-2c0,0.7,0.4,1.2,1.1,1.2
		c0.3,0,0.5-0.1,0.8-0.2l0.1,0.2c-0.2,0.1-0.5,0.3-0.9,0.3C204.7,201.1,204.2,200.6,204.2,199.6z M206.2,199.5
		c0-0.7-0.3-1.1-0.8-1.1c-0.5,0-0.9,0.4-1,1.1H206.2z"/>
	<path d="M207.2,198.2h0.2l0,0.5h0c0.2-0.3,0.5-0.6,0.8-0.6c0.1,0,0.2,0,0.3,0.1l-0.1,0.2c-0.1,0-0.1,0-0.3,0
		c-0.3,0-0.6,0.2-0.8,0.7v1.9h-0.3V198.2z"/>
	<path d="M209.9,200.7l0.1-0.2c0.2,0.2,0.5,0.4,0.9,0.4c0.4,0,0.7-0.3,0.7-0.6c0-0.4-0.4-0.5-0.7-0.6c-0.4-0.2-0.9-0.3-0.9-0.8
		c0-0.4,0.3-0.7,0.9-0.7c0.3,0,0.6,0.1,0.8,0.3l-0.1,0.2c-0.2-0.1-0.4-0.3-0.7-0.3c-0.4,0-0.6,0.3-0.6,0.5c0,0.3,0.3,0.4,0.7,0.6
		c0.4,0.2,0.9,0.3,0.9,0.9c0,0.4-0.3,0.8-0.9,0.8C210.5,201.1,210.1,200.9,209.9,200.7z"/>
	<path d="M212.6,200v-1.8h0.3v1.8c0,0.6,0.2,0.9,0.6,0.9c0.3,0,0.6-0.2,0.9-0.6v-2.1h0.3v2.8h-0.2l0-0.5h0c-0.3,0.3-0.6,0.5-1,0.5
		C212.8,201.1,212.6,200.8,212.6,200z"/>
	<path d="M215.7,198.2h0.2l0,0.4h0c0.3-0.3,0.6-0.5,0.9-0.5c0.5,0,0.7,0.2,0.8,0.6c0.3-0.4,0.6-0.6,1-0.6c0.6,0,0.8,0.4,0.8,1.1v1.8
		h-0.3v-1.8c0-0.6-0.2-0.9-0.6-0.9c-0.3,0-0.5,0.2-0.8,0.5v2.1h-0.3v-1.8c0-0.6-0.2-0.9-0.6-0.9c-0.3,0-0.5,0.2-0.8,0.5v2.1h-0.3
		V198.2z"/>
	<path d="M220.5,198.2h0.2l0,0.4h0c0.3-0.3,0.6-0.5,0.9-0.5c0.5,0,0.7,0.2,0.8,0.6c0.3-0.4,0.6-0.6,1-0.6c0.6,0,0.8,0.4,0.8,1.1v1.8
		h-0.3v-1.8c0-0.6-0.2-0.9-0.6-0.9c-0.3,0-0.5,0.2-0.8,0.5v2.1h-0.3v-1.8c0-0.6-0.2-0.9-0.6-0.9c-0.3,0-0.5,0.2-0.8,0.5v2.1h-0.3
		V198.2z"/>
	<path d="M225,200.3c0-0.6,0.6-0.9,1.8-1.1c0-0.4-0.1-0.9-0.7-0.9c-0.4,0-0.7,0.2-0.9,0.3l-0.1-0.2c0.2-0.1,0.6-0.4,1-0.4
		c0.7,0,0.9,0.5,0.9,1.1v1.8h-0.2l0-0.4h0c-0.3,0.2-0.6,0.4-1,0.4C225.4,201.1,225,200.9,225,200.3z M226.8,200.4v-1
		c-1.2,0.1-1.5,0.4-1.5,0.8c0,0.4,0.3,0.6,0.6,0.6C226.2,200.9,226.5,200.7,226.8,200.4z"/>
	<path d="M228.1,198.2h0.2l0,0.5h0c0.2-0.3,0.5-0.6,0.8-0.6c0.1,0,0.2,0,0.3,0.1l-0.1,0.2c-0.1,0-0.1,0-0.3,0
		c-0.3,0-0.6,0.2-0.8,0.7v1.9h-0.3V198.2z"/>
	<path d="M229.8,202.3l0.1-0.2c0.1,0,0.2,0,0.2,0c0.3,0,0.6-0.3,0.7-0.7l0.1-0.2l-1.2-2.9h0.3l0.7,1.8c0.1,0.2,0.2,0.5,0.3,0.8h0
		c0.1-0.2,0.2-0.5,0.3-0.8l0.6-1.8h0.3l-1.1,3.2c-0.2,0.5-0.4,0.9-0.9,0.9C229.9,202.3,229.8,202.3,229.8,202.3z"/>
	<path d="M195.6,206h1c0.9,0,1.4,0.3,1.4,1.1c0,0.8-0.5,1.1-1.4,1.1h-0.7v1.7h-0.3V206z M196.6,207.9c0.8,0,1.2-0.3,1.2-0.9
		c0-0.6-0.4-0.8-1.2-0.8h-0.6v1.7H196.6z"/>
	<path d="M198.8,207h0.2l0,0.5h0c0.2-0.3,0.5-0.6,0.8-0.6c0.1,0,0.2,0,0.3,0.1l-0.1,0.2c-0.1,0-0.1,0-0.3,0c-0.3,0-0.6,0.2-0.8,0.7
		v1.9h-0.3V207z"/>
	<path d="M200.4,208.4c0-0.9,0.6-1.5,1.2-1.5c0.7,0,1.1,0.5,1.1,1.3c0,0.1,0,0.1,0,0.2h-2c0,0.7,0.4,1.2,1.1,1.2
		c0.3,0,0.5-0.1,0.8-0.2l0.1,0.2c-0.2,0.1-0.5,0.3-0.9,0.3C201,209.9,200.4,209.3,200.4,208.4z M202.4,208.2c0-0.7-0.3-1.1-0.8-1.1
		c-0.5,0-0.9,0.4-1,1.1H202.4z"/>
	<path d="M203.1,209.5l0.1-0.2c0.2,0.2,0.5,0.4,0.9,0.4c0.4,0,0.7-0.3,0.7-0.6c0-0.4-0.4-0.5-0.7-0.6c-0.4-0.2-0.9-0.3-0.9-0.8
		c0-0.4,0.3-0.7,0.9-0.7c0.3,0,0.6,0.1,0.8,0.3l-0.1,0.2c-0.2-0.1-0.4-0.3-0.7-0.3c-0.4,0-0.6,0.3-0.6,0.5c0,0.3,0.3,0.4,0.7,0.6
		c0.4,0.2,0.9,0.3,0.9,0.9c0,0.4-0.3,0.8-0.9,0.8C203.7,209.9,203.3,209.7,203.1,209.5z"/>
	<path d="M205.5,209.5l0.1-0.2c0.2,0.2,0.5,0.4,0.9,0.4c0.4,0,0.7-0.3,0.7-0.6c0-0.4-0.4-0.5-0.7-0.6c-0.4-0.2-0.9-0.3-0.9-0.8
		c0-0.4,0.3-0.7,0.9-0.7c0.3,0,0.6,0.1,0.8,0.3l-0.1,0.2c-0.2-0.1-0.4-0.3-0.7-0.3c-0.4,0-0.6,0.3-0.6,0.5c0,0.3,0.3,0.4,0.7,0.6
		c0.4,0.2,0.9,0.3,0.9,0.9c0,0.4-0.3,0.8-0.9,0.8C206.1,209.9,205.7,209.7,205.5,209.5z"/>
	<path d="M209.3,207h0.2l0,0.5h0c0.2-0.3,0.5-0.6,0.8-0.6c0.1,0,0.2,0,0.3,0.1l-0.1,0.2c-0.1,0-0.1,0-0.3,0c-0.3,0-0.6,0.2-0.8,0.7
		v1.9h-0.3V207z"/>
	<path d="M210.9,208.4c0-0.9,0.6-1.5,1.2-1.5c0.7,0,1.1,0.5,1.1,1.3c0,0.1,0,0.1,0,0.2h-2c0,0.7,0.4,1.2,1.1,1.2
		c0.3,0,0.5-0.1,0.8-0.2l0.1,0.2c-0.2,0.1-0.5,0.3-0.9,0.3C211.5,209.9,210.9,209.3,210.9,208.4z M213,208.2c0-0.7-0.3-1.1-0.8-1.1
		c-0.5,0-0.9,0.4-1,1.1H213z"/>
	<path d="M213.6,207h0.3l0.6,1.8c0.1,0.3,0.2,0.6,0.3,0.8h0c0.1-0.3,0.2-0.5,0.3-0.8l0.6-1.8h0.3l-1,2.8h-0.3L213.6,207z"/>
	<path d="M216.5,206.1c0-0.1,0.1-0.2,0.2-0.2c0.1,0,0.2,0.1,0.2,0.2c0,0.1-0.1,0.2-0.2,0.2C216.6,206.3,216.5,206.2,216.5,206.1z
		 M216.6,207h0.3v2.8h-0.3V207z"/>
	<path d="M217.7,208.4c0-0.9,0.6-1.5,1.2-1.5c0.7,0,1.1,0.5,1.1,1.3c0,0.1,0,0.1,0,0.2h-2c0,0.7,0.4,1.2,1.1,1.2
		c0.3,0,0.5-0.1,0.8-0.2l0.1,0.2c-0.2,0.1-0.5,0.3-0.9,0.3C218.3,209.9,217.7,209.3,217.7,208.4z M219.7,208.2
		c0-0.7-0.3-1.1-0.8-1.1c-0.5,0-0.9,0.4-1,1.1H219.7z"/>
	<path d="M220.4,207h0.3l0.5,1.8c0.1,0.3,0.1,0.5,0.2,0.8h0c0.1-0.3,0.1-0.5,0.2-0.8l0.5-1.8h0.3l0.5,1.8c0.1,0.3,0.1,0.5,0.2,0.8h0
		c0.1-0.3,0.1-0.5,0.2-0.8l0.5-1.8h0.3l-0.8,2.8H223l-0.5-1.7c-0.1-0.3-0.1-0.5-0.2-0.8h0c-0.1,0.3-0.1,0.5-0.2,0.8l-0.5,1.7h-0.3
		L220.4,207z"/>
</g>
<rect x="39" y="34.8" class="st0" width="140.4" height="35.1"/>
<rect x="39" y="70" class="st1" width="140.4" height="35.1"/>
<rect x="39" y="110.9" class="st2" width="140.4" height="35.1"/>
<rect x="141.4" y="110.9" class="st3" width="37.9" height="35.1"/>
<rect x="39" y="146" class="st4" width="140.4" height="35.1"/>
<rect x="39" y="181.1" class="st5" width="140.4" height="35.1"/>
<g>
	<path d="M99.2,199.3h-0.7l-0.2,1.2h-0.4l0.2-1.2h-0.7v-0.4h0.8l0.2-1h-0.7v-0.4h0.8l0.2-1.2h0.4l-0.2,1.2h0.7l0.2-1.2h0.4l-0.2,1.2
		h0.6v0.4h-0.6l-0.2,1h0.6v0.4h-0.7l-0.2,1.2H99L99.2,199.3z M98.6,198.9h0.7l0.2-1h-0.7L98.6,198.9z"/>
	<path d="M103.7,198.6h-1.8v1.8h-0.6v-4.2h2.6v0.4h-2v1.4h1.8V198.6z"/>
	<path d="M107.1,200.4h-2.6V200l1.3-1.6c0.2-0.3,0.4-0.5,0.5-0.7c0.1-0.2,0.1-0.3,0.1-0.5c0-0.2-0.1-0.4-0.2-0.5
		c-0.1-0.1-0.3-0.2-0.5-0.2c-0.2,0-0.4,0.1-0.6,0.2c-0.1,0.2-0.2,0.3-0.2,0.6h-0.5l0,0c0-0.3,0.1-0.6,0.3-0.9c0.2-0.2,0.6-0.4,1-0.4
		c0.4,0,0.7,0.1,0.9,0.3c0.2,0.2,0.3,0.5,0.3,0.8c0,0.2-0.1,0.4-0.2,0.6c-0.1,0.2-0.3,0.5-0.6,0.8l-1,1.2l0,0h1.9V200.4z"/>
	<path d="M110.1,198.5h-1.7v1.5h2v0.4h-2.6v-4.2h2.5v0.4h-2v1.3h1.7V198.5z"/>
	<path d="M111.1,200.4v-4.2h1.4c0.4,0,0.8,0.1,1,0.3c0.2,0.2,0.4,0.5,0.4,0.8c0,0.2-0.1,0.3-0.2,0.5c-0.1,0.1-0.3,0.3-0.4,0.3
		c0.3,0,0.5,0.2,0.6,0.4c0.2,0.2,0.2,0.4,0.2,0.7c0,0.4-0.1,0.7-0.4,0.9c-0.2,0.2-0.6,0.3-1,0.3H111.1z M111.7,198h0.9
		c0.2,0,0.4-0.1,0.5-0.2c0.1-0.1,0.2-0.3,0.2-0.5c0-0.2-0.1-0.4-0.2-0.5c-0.1-0.1-0.3-0.2-0.6-0.2h-0.8V198z M111.7,198.5v1.5h1.1
		c0.3,0,0.5-0.1,0.6-0.2c0.1-0.1,0.2-0.3,0.2-0.5c0-0.2-0.1-0.4-0.2-0.6c-0.1-0.1-0.3-0.2-0.6-0.2h0H111.7z"/>
	<path d="M117.1,198.5h-1.7v1.5h2v0.4h-2.6v-4.2h2.5v0.4h-2v1.3h1.7V198.5z"/>
	<path d="M118,200.4v-4.2h1.4c0.4,0,0.8,0.1,1,0.3c0.2,0.2,0.4,0.5,0.4,0.8c0,0.2-0.1,0.3-0.2,0.5c-0.1,0.1-0.3,0.3-0.4,0.3
		c0.3,0,0.5,0.2,0.6,0.4c0.2,0.2,0.2,0.4,0.2,0.7c0,0.4-0.1,0.7-0.4,0.9c-0.2,0.2-0.6,0.3-1,0.3H118z M118.6,198h0.9
		c0.2,0,0.4-0.1,0.5-0.2c0.1-0.1,0.2-0.3,0.2-0.5c0-0.2-0.1-0.4-0.2-0.5c-0.1-0.1-0.3-0.2-0.6-0.2h-0.8V198z M118.6,198.5v1.5h1.1
		c0.3,0,0.5-0.1,0.6-0.2c0.1-0.1,0.2-0.3,0.2-0.5c0-0.2-0.1-0.4-0.2-0.6c-0.1-0.1-0.3-0.2-0.6-0.2h0H118.6z"/>
</g>
<g>
	<path d="M99.4,164.9h-0.7l-0.2,1.2H98l0.2-1.2h-0.7v-0.4h0.8l0.2-1h-0.7v-0.4h0.8l0.2-1.2h0.4l-0.2,1.2h0.7l0.2-1.2h0.4l-0.2,1.2
		h0.6v0.4h-0.6l-0.2,1h0.6v0.4h-0.7l-0.2,1.2h-0.4L99.4,164.9z M98.7,164.5h0.7l0.2-1h-0.7L98.7,164.5z"/>
	<path d="M101.5,166v-4.2h1.4c0.4,0,0.8,0.1,1,0.3c0.2,0.2,0.4,0.5,0.4,0.8c0,0.2-0.1,0.3-0.2,0.5c-0.1,0.1-0.3,0.3-0.4,0.3
		c0.3,0,0.5,0.2,0.6,0.4c0.2,0.2,0.2,0.4,0.2,0.7c0,0.4-0.1,0.7-0.4,0.9c-0.2,0.2-0.6,0.3-1,0.3H101.5z M102,163.7h0.9
		c0.2,0,0.4-0.1,0.5-0.2c0.1-0.1,0.2-0.3,0.2-0.5c0-0.2-0.1-0.4-0.2-0.5c-0.1-0.1-0.3-0.2-0.6-0.2H102V163.7z M102,164.1v1.5h1.1
		c0.3,0,0.5-0.1,0.6-0.2c0.1-0.1,0.2-0.3,0.2-0.5c0-0.2-0.1-0.4-0.2-0.6c-0.1-0.1-0.3-0.2-0.6-0.2h0H102z"/>
	<path d="M107.6,162.9c0,0.2-0.1,0.4-0.2,0.6c-0.1,0.2-0.3,0.3-0.5,0.4c0.2,0.1,0.4,0.2,0.6,0.4c0.1,0.2,0.2,0.4,0.2,0.6
		c0,0.4-0.1,0.7-0.4,0.9c-0.2,0.2-0.6,0.3-1,0.3c-0.4,0-0.7-0.1-1-0.3c-0.3-0.2-0.4-0.5-0.4-0.9c0-0.2,0.1-0.4,0.2-0.6
		c0.1-0.2,0.3-0.3,0.6-0.4c-0.2-0.1-0.4-0.2-0.5-0.4c-0.1-0.2-0.2-0.4-0.2-0.6c0-0.4,0.1-0.6,0.4-0.8c0.2-0.2,0.5-0.3,0.9-0.3
		c0.4,0,0.6,0.1,0.9,0.3C107.5,162.3,107.6,162.6,107.6,162.9z M107.1,164.9c0-0.2-0.1-0.4-0.2-0.6c-0.1-0.1-0.3-0.2-0.5-0.2
		c-0.2,0-0.4,0.1-0.6,0.2s-0.2,0.3-0.2,0.6c0,0.2,0.1,0.4,0.2,0.6c0.2,0.1,0.4,0.2,0.6,0.2c0.2,0,0.4-0.1,0.5-0.2
		S107.1,165.1,107.1,164.9z M107,163c0-0.2-0.1-0.4-0.2-0.5c-0.1-0.1-0.3-0.2-0.5-0.2c-0.2,0-0.4,0.1-0.5,0.2
		c-0.1,0.1-0.2,0.3-0.2,0.5c0,0.2,0.1,0.4,0.2,0.5c0.1,0.1,0.3,0.2,0.5,0.2c0.2,0,0.3-0.1,0.5-0.2C106.9,163.3,107,163.2,107,163z"
		/>
	<path d="M110.9,162.9c0,0.2-0.1,0.4-0.2,0.6c-0.1,0.2-0.3,0.3-0.5,0.4c0.2,0.1,0.4,0.2,0.6,0.4c0.1,0.2,0.2,0.4,0.2,0.6
		c0,0.4-0.1,0.7-0.4,0.9c-0.2,0.2-0.6,0.3-1,0.3c-0.4,0-0.7-0.1-1-0.3c-0.3-0.2-0.4-0.5-0.4-0.9c0-0.2,0.1-0.4,0.2-0.6
		c0.1-0.2,0.3-0.3,0.6-0.4c-0.2-0.1-0.4-0.2-0.5-0.4c-0.1-0.2-0.2-0.4-0.2-0.6c0-0.4,0.1-0.6,0.4-0.8c0.2-0.2,0.5-0.3,0.9-0.3
		c0.4,0,0.6,0.1,0.9,0.3C110.8,162.3,110.9,162.6,110.9,162.9z M110.4,164.9c0-0.2-0.1-0.4-0.2-0.6c-0.1-0.1-0.3-0.2-0.5-0.2
		c-0.2,0-0.4,0.1-0.6,0.2c-0.2,0.1-0.2,0.3-0.2,0.6c0,0.2,0.1,0.4,0.2,0.6c0.2,0.1,0.4,0.2,0.6,0.2c0.2,0,0.4-0.1,0.5-0.2
		C110.3,165.3,110.4,165.1,110.4,164.9z M110.3,163c0-0.2-0.1-0.4-0.2-0.5c-0.1-0.1-0.3-0.2-0.5-0.2c-0.2,0-0.4,0.1-0.5,0.2
		c-0.1,0.1-0.2,0.3-0.2,0.5c0,0.2,0.1,0.4,0.2,0.5c0.1,0.1,0.3,0.2,0.5,0.2c0.2,0,0.3-0.1,0.5-0.2
		C110.2,163.3,110.3,163.2,110.3,163z"/>
	<path d="M112.7,165.7c0.3,0,0.5-0.1,0.7-0.3c0.2-0.2,0.3-0.5,0.3-0.8v-0.4c-0.1,0.1-0.2,0.2-0.3,0.3c-0.1,0.1-0.3,0.1-0.4,0.1
		c-0.4,0-0.7-0.1-0.9-0.4c-0.2-0.2-0.3-0.6-0.3-1c0-0.4,0.1-0.8,0.4-1c0.2-0.3,0.5-0.4,0.9-0.4c0.4,0,0.7,0.1,1,0.4
		c0.3,0.3,0.4,0.6,0.4,1.1v1.3c0,0.5-0.1,0.9-0.4,1.1s-0.6,0.4-1.1,0.4c-0.1,0-0.3,0-0.5,0c-0.2,0-0.3-0.1-0.4-0.1l0.1-0.4
		c0.1,0.1,0.2,0.1,0.4,0.1C112.4,165.6,112.5,165.7,112.7,165.7z M112.8,164.2c0.2,0,0.4,0,0.5-0.1c0.1-0.1,0.2-0.2,0.3-0.3v-0.5
		c0-0.3-0.1-0.6-0.2-0.7c-0.1-0.2-0.3-0.3-0.6-0.3c-0.2,0-0.4,0.1-0.5,0.3c-0.1,0.2-0.2,0.4-0.2,0.7c0,0.3,0.1,0.5,0.2,0.7
		S112.6,164.2,112.8,164.2z"/>
	<path d="M117.5,162.9c0,0.2-0.1,0.4-0.2,0.6c-0.1,0.2-0.3,0.3-0.5,0.4c0.2,0.1,0.4,0.2,0.6,0.4c0.1,0.2,0.2,0.4,0.2,0.6
		c0,0.4-0.1,0.7-0.4,0.9c-0.2,0.2-0.6,0.3-1,0.3c-0.4,0-0.7-0.1-1-0.3c-0.3-0.2-0.4-0.5-0.4-0.9c0-0.2,0.1-0.4,0.2-0.6
		c0.1-0.2,0.3-0.3,0.6-0.4c-0.2-0.1-0.4-0.2-0.5-0.4c-0.1-0.2-0.2-0.4-0.2-0.6c0-0.4,0.1-0.6,0.4-0.8c0.2-0.2,0.5-0.3,0.9-0.3
		c0.4,0,0.6,0.1,0.9,0.3C117.3,162.3,117.5,162.6,117.5,162.9z M117,164.9c0-0.2-0.1-0.4-0.2-0.6c-0.1-0.1-0.3-0.2-0.5-0.2
		c-0.2,0-0.4,0.1-0.6,0.2s-0.2,0.3-0.2,0.6c0,0.2,0.1,0.4,0.2,0.6c0.2,0.1,0.4,0.2,0.6,0.2c0.2,0,0.4-0.1,0.5-0.2
		S117,165.1,117,164.9z M116.9,163c0-0.2-0.1-0.4-0.2-0.5c-0.1-0.1-0.3-0.2-0.5-0.2c-0.2,0-0.4,0.1-0.5,0.2
		c-0.1,0.1-0.2,0.3-0.2,0.5c0,0.2,0.1,0.4,0.2,0.5c0.1,0.1,0.3,0.2,0.5,0.2c0.2,0,0.3-0.1,0.5-0.2
		C116.8,163.3,116.9,163.2,116.9,163z"/>
	<path d="M119.3,165.7c0.3,0,0.5-0.1,0.7-0.3c0.2-0.2,0.3-0.5,0.3-0.8v-0.4c-0.1,0.1-0.2,0.2-0.3,0.3c-0.1,0.1-0.3,0.1-0.4,0.1
		c-0.4,0-0.7-0.1-0.9-0.4c-0.2-0.2-0.3-0.6-0.3-1c0-0.4,0.1-0.8,0.4-1c0.2-0.3,0.5-0.4,0.9-0.4c0.4,0,0.7,0.1,1,0.4
		c0.3,0.3,0.4,0.6,0.4,1.1v1.3c0,0.5-0.1,0.9-0.4,1.1s-0.6,0.4-1.1,0.4c-0.1,0-0.3,0-0.5,0c-0.2,0-0.3-0.1-0.4-0.1l0.1-0.4
		c0.1,0.1,0.2,0.1,0.4,0.1C119,165.6,119.1,165.7,119.3,165.7z M119.4,164.2c0.2,0,0.4,0,0.5-0.1c0.1-0.1,0.2-0.2,0.3-0.3v-0.5
		c0-0.3-0.1-0.6-0.2-0.7c-0.1-0.2-0.3-0.3-0.6-0.3c-0.2,0-0.4,0.1-0.5,0.3c-0.1,0.2-0.2,0.4-0.2,0.7c0,0.3,0.1,0.5,0.2,0.7
		S119.2,164.2,119.4,164.2z"/>
</g>
<g>
	<path class="st6" d="M99.6,129.8h-0.7l-0.2,1.2h-0.4l0.2-1.2h-0.7v-0.4h0.8l0.2-1H98V128h0.8l0.2-1.2h0.4l-0.2,1.2h0.7l0.2-1.2h0.4
		l-0.2,1.2h0.6v0.4h-0.6l-0.2,1h0.6v0.4H100l-0.2,1.2h-0.4L99.6,129.8z M98.9,129.4h0.7l0.2-1h-0.7L98.9,129.4z"/>
	<path class="st6" d="M104.1,127.8c0,0.2-0.1,0.4-0.2,0.6c-0.1,0.2-0.3,0.3-0.5,0.4c0.2,0.1,0.4,0.2,0.6,0.4
		c0.1,0.2,0.2,0.4,0.2,0.6c0,0.4-0.1,0.7-0.4,0.9s-0.6,0.3-1,0.3c-0.4,0-0.7-0.1-1-0.3c-0.3-0.2-0.4-0.5-0.4-0.9
		c0-0.2,0.1-0.4,0.2-0.6c0.1-0.2,0.3-0.3,0.6-0.4c-0.2-0.1-0.4-0.2-0.5-0.4c-0.1-0.2-0.2-0.4-0.2-0.6c0-0.4,0.1-0.6,0.4-0.8
		c0.2-0.2,0.5-0.3,0.9-0.3c0.4,0,0.6,0.1,0.9,0.3C104,127.2,104.1,127.5,104.1,127.8z M103.6,129.8c0-0.2-0.1-0.4-0.2-0.6
		c-0.1-0.1-0.3-0.2-0.5-0.2c-0.2,0-0.4,0.1-0.6,0.2c-0.2,0.1-0.2,0.3-0.2,0.6c0,0.2,0.1,0.4,0.2,0.6c0.2,0.1,0.4,0.2,0.6,0.2
		c0.2,0,0.4-0.1,0.5-0.2C103.5,130.2,103.6,130,103.6,129.8z M103.5,127.8c0-0.2-0.1-0.4-0.2-0.5c-0.1-0.1-0.3-0.2-0.5-0.2
		c-0.2,0-0.4,0.1-0.5,0.2c-0.1,0.1-0.2,0.3-0.2,0.5c0,0.2,0.1,0.4,0.2,0.5c0.1,0.1,0.3,0.2,0.5,0.2c0.2,0,0.3-0.1,0.5-0.2
		C103.4,128.2,103.5,128.1,103.5,127.8z"/>
	<path class="st6" d="M105.9,130.6c0.3,0,0.5-0.1,0.7-0.3c0.2-0.2,0.3-0.5,0.3-0.8v-0.4c-0.1,0.1-0.2,0.2-0.3,0.3
		c-0.1,0.1-0.3,0.1-0.4,0.1c-0.4,0-0.7-0.1-0.9-0.4c-0.2-0.2-0.3-0.6-0.3-1c0-0.4,0.1-0.8,0.4-1c0.2-0.3,0.5-0.4,0.9-0.4
		c0.4,0,0.7,0.1,1,0.4s0.4,0.6,0.4,1.1v1.3c0,0.5-0.1,0.9-0.4,1.1c-0.3,0.3-0.6,0.4-1.1,0.4c-0.1,0-0.3,0-0.5,0
		c-0.2,0-0.3-0.1-0.4-0.1l0.1-0.4c0.1,0.1,0.2,0.1,0.4,0.1C105.6,130.5,105.7,130.6,105.9,130.6z M106,129.1c0.2,0,0.4,0,0.5-0.1
		c0.1-0.1,0.2-0.2,0.3-0.3v-0.5c0-0.3-0.1-0.6-0.2-0.7c-0.1-0.2-0.3-0.3-0.6-0.3c-0.2,0-0.4,0.1-0.5,0.3c-0.1,0.2-0.2,0.4-0.2,0.7
		c0,0.3,0.1,0.5,0.2,0.7C105.6,129,105.8,129.1,106,129.1z"/>
	<path class="st6" d="M108.3,129.1l0.2-2.3h2.1v0.5H109l-0.1,1.2c0.1-0.1,0.2-0.1,0.3-0.2s0.2-0.1,0.4-0.1c0.4,0,0.7,0.1,0.9,0.4
		c0.2,0.2,0.3,0.6,0.3,1c0,0.4-0.1,0.8-0.3,1c-0.2,0.3-0.6,0.4-1,0.4c-0.4,0-0.6-0.1-0.9-0.3c-0.2-0.2-0.3-0.5-0.3-0.8l0,0h0.5
		c0,0.2,0.1,0.4,0.2,0.5c0.1,0.1,0.3,0.2,0.5,0.2c0.2,0,0.4-0.1,0.6-0.3c0.1-0.2,0.2-0.4,0.2-0.7c0-0.3-0.1-0.5-0.2-0.6
		c-0.1-0.2-0.3-0.2-0.6-0.2c-0.2,0-0.4,0-0.5,0.1c-0.1,0.1-0.2,0.2-0.2,0.3L108.3,129.1z"/>
	<path class="st6" d="M113.1,130.9h-0.6v-3.6l-0.9,0v-0.4l1.5-0.2V130.9z"/>
	<path class="st6" d="M114.9,129.1l0.2-2.3h2.1v0.5h-1.6l-0.1,1.2c0.1-0.1,0.2-0.1,0.3-0.2s0.2-0.1,0.4-0.1c0.4,0,0.7,0.1,0.9,0.4
		c0.2,0.2,0.3,0.6,0.3,1c0,0.4-0.1,0.8-0.3,1c-0.2,0.3-0.6,0.4-1,0.4c-0.4,0-0.6-0.1-0.9-0.3s-0.3-0.5-0.3-0.8l0,0h0.5
		c0,0.2,0.1,0.4,0.2,0.5c0.1,0.1,0.3,0.2,0.5,0.2c0.2,0,0.4-0.1,0.6-0.3c0.1-0.2,0.2-0.4,0.2-0.7c0-0.3-0.1-0.5-0.2-0.6
		c-0.1-0.2-0.3-0.2-0.6-0.2c-0.2,0-0.4,0-0.5,0.1c-0.1,0.1-0.2,0.2-0.2,0.3L114.9,129.1z"/>
	<path class="st6" d="M120.6,129.5c0,0.5-0.1,0.8-0.4,1.1c-0.2,0.3-0.6,0.4-1,0.4c-0.4,0-0.7-0.1-1-0.4c-0.2-0.3-0.4-0.6-0.4-1.1
		v-1.2c0-0.5,0.1-0.8,0.4-1.1c0.2-0.3,0.6-0.4,1-0.4c0.4,0,0.7,0.1,1,0.4c0.2,0.3,0.4,0.6,0.4,1.1V129.5z M120.1,128.1
		c0-0.3-0.1-0.5-0.2-0.7c-0.1-0.2-0.3-0.3-0.6-0.3c-0.2,0-0.4,0.1-0.6,0.3c-0.1,0.2-0.2,0.4-0.2,0.7v1.5c0,0.3,0.1,0.5,0.2,0.7
		c0.1,0.2,0.3,0.3,0.6,0.3c0.2,0,0.4-0.1,0.6-0.3c0.1-0.2,0.2-0.4,0.2-0.7V128.1z"/>
</g>
<g>
	<path class="st6" d="M98.8,88.8h-0.7L97.9,90h-0.4l0.2-1.2H97v-0.4h0.8l0.2-1h-0.7V87H98l0.2-1.2h0.4L98.4,87h0.7l0.2-1.2h0.4
		L99.6,87h0.6v0.4h-0.6l-0.2,1h0.6v0.4h-0.7L99,90h-0.4L98.8,88.8z M98.2,88.4h0.7l0.2-1h-0.7L98.2,88.4z"/>
	<path class="st6" d="M102.3,85.7c0.2,0,0.3,0,0.5,0c0.2,0,0.3,0.1,0.4,0.1l-0.1,0.4c-0.1,0-0.2-0.1-0.3-0.1s-0.3,0-0.4,0
		c-0.3,0-0.5,0.1-0.6,0.3s-0.2,0.5-0.2,0.8v0.3c0.1-0.1,0.3-0.2,0.4-0.3c0.2-0.1,0.3-0.1,0.5-0.1c0.4,0,0.6,0.1,0.9,0.4
		s0.3,0.6,0.3,0.9c0,0.4-0.1,0.8-0.4,1c-0.2,0.3-0.5,0.4-0.9,0.4c-0.4,0-0.7-0.1-1-0.4c-0.3-0.3-0.4-0.7-0.4-1.2v-1
		c0-0.5,0.1-0.9,0.4-1.2S101.9,85.7,102.3,85.7z M102.1,87.7c-0.2,0-0.3,0-0.5,0.1c-0.1,0.1-0.2,0.2-0.3,0.3v0.3
		c0,0.4,0.1,0.6,0.2,0.8c0.2,0.2,0.3,0.3,0.6,0.3c0.2,0,0.4-0.1,0.5-0.3c0.1-0.2,0.2-0.4,0.2-0.7c0-0.3-0.1-0.5-0.2-0.6
		C102.6,87.8,102.4,87.7,102.1,87.7z"/>
	<path class="st6" d="M104.2,90v-4.2h1.3c0.5,0,1,0.2,1.3,0.5c0.3,0.3,0.5,0.8,0.5,1.3v0.6c0,0.5-0.2,1-0.5,1.3
		c-0.3,0.3-0.8,0.5-1.3,0.5H104.2z M104.8,86.2v3.3h0.7c0.4,0,0.7-0.1,0.9-0.4c0.2-0.3,0.3-0.6,0.3-1v-0.6c0-0.4-0.1-0.7-0.3-1
		c-0.2-0.3-0.5-0.4-0.9-0.4H104.8z"/>
	<path class="st6" d="M108.2,88.1l0.2-2.3h2.1v0.5h-1.6l-0.1,1.2c0.1-0.1,0.2-0.1,0.3-0.2c0.1,0,0.2-0.1,0.4-0.1
		c0.4,0,0.7,0.1,0.9,0.4c0.2,0.2,0.3,0.6,0.3,1c0,0.4-0.1,0.8-0.3,1c-0.2,0.3-0.6,0.4-1,0.4c-0.4,0-0.6-0.1-0.9-0.3
		c-0.2-0.2-0.3-0.5-0.3-0.8l0,0h0.5c0,0.2,0.1,0.4,0.2,0.5c0.1,0.1,0.3,0.2,0.5,0.2c0.2,0,0.4-0.1,0.6-0.3c0.1-0.2,0.2-0.4,0.2-0.7
		c0-0.3-0.1-0.5-0.2-0.6c-0.1-0.2-0.3-0.2-0.6-0.2c-0.2,0-0.4,0-0.5,0.1c-0.1,0.1-0.2,0.2-0.2,0.3L108.2,88.1z"/>
	<path class="st6" d="M114.4,88.6L114.4,88.6c0,0.4-0.1,0.7-0.4,1c-0.3,0.3-0.7,0.4-1.1,0.4c-0.5,0-0.9-0.2-1.2-0.5
		c-0.3-0.3-0.4-0.8-0.4-1.3v-0.7c0-0.5,0.1-0.9,0.4-1.3c0.3-0.3,0.7-0.5,1.2-0.5c0.5,0,0.8,0.1,1.1,0.4c0.3,0.3,0.4,0.6,0.4,1l0,0
		h-0.5c0-0.3-0.1-0.5-0.3-0.7c-0.2-0.2-0.4-0.3-0.7-0.3c-0.3,0-0.6,0.1-0.8,0.4c-0.2,0.3-0.3,0.6-0.3,0.9v0.7c0,0.4,0.1,0.7,0.3,0.9
		c0.2,0.3,0.4,0.4,0.8,0.4c0.3,0,0.6-0.1,0.7-0.3c0.2-0.2,0.3-0.4,0.3-0.7H114.4z"/>
	<path class="st6" d="M115.2,88.1l0.2-2.3h2.1v0.5h-1.6l-0.1,1.2c0.1-0.1,0.2-0.1,0.3-0.2c0.1,0,0.2-0.1,0.4-0.1
		c0.4,0,0.7,0.1,0.9,0.4c0.2,0.2,0.3,0.6,0.3,1c0,0.4-0.1,0.8-0.3,1c-0.2,0.3-0.6,0.4-1,0.4c-0.4,0-0.6-0.1-0.9-0.3
		c-0.2-0.2-0.3-0.5-0.3-0.8l0,0h0.5c0,0.2,0.1,0.4,0.2,0.5c0.1,0.1,0.3,0.2,0.5,0.2c0.2,0,0.4-0.1,0.6-0.3c0.1-0.2,0.2-0.4,0.2-0.7
		c0-0.3-0.1-0.5-0.2-0.6c-0.1-0.2-0.3-0.2-0.6-0.2c-0.2,0-0.4,0-0.5,0.1c-0.1,0.1-0.2,0.2-0.2,0.3L115.2,88.1z"/>
	<path class="st6" d="M121.4,88.6L121.4,88.6c0,0.4-0.1,0.7-0.4,1c-0.3,0.3-0.7,0.4-1.1,0.4c-0.5,0-0.9-0.2-1.2-0.5
		c-0.3-0.3-0.4-0.8-0.4-1.3v-0.7c0-0.5,0.1-0.9,0.4-1.3c0.3-0.3,0.7-0.5,1.2-0.5c0.5,0,0.8,0.1,1.1,0.4c0.3,0.3,0.4,0.6,0.4,1l0,0
		h-0.5c0-0.3-0.1-0.5-0.3-0.7c-0.2-0.2-0.4-0.3-0.7-0.3c-0.3,0-0.6,0.1-0.8,0.4c-0.2,0.3-0.3,0.6-0.3,0.9v0.7c0,0.4,0.1,0.7,0.3,0.9
		c0.2,0.3,0.4,0.4,0.8,0.4c0.3,0,0.6-0.1,0.7-0.3c0.2-0.2,0.3-0.4,0.3-0.7H121.4z"/>
</g>
<g>
	<path class="st6" d="M99.6,53h-0.7l-0.2,1.2h-0.4l0.2-1.2h-0.7v-0.4h0.8l0.2-1H98v-0.4h0.8L99,50h0.4l-0.2,1.2h0.7l0.2-1.2h0.4
		l-0.2,1.2h0.6v0.4h-0.6l-0.2,1h0.6V53H100l-0.2,1.2h-0.4L99.6,53z M99,52.6h0.7l0.2-1h-0.7L99,52.6z"/>
	<path class="st6" d="M104.2,52.7c0,0.5-0.1,0.8-0.4,1.1c-0.2,0.3-0.6,0.4-1,0.4c-0.4,0-0.7-0.1-1-0.4c-0.2-0.3-0.4-0.6-0.4-1.1
		v-1.2c0-0.5,0.1-0.8,0.4-1.1c0.2-0.3,0.6-0.4,1-0.4c0.4,0,0.7,0.1,1,0.4c0.2,0.3,0.4,0.6,0.4,1.1V52.7z M103.6,51.3
		c0-0.3-0.1-0.5-0.2-0.7c-0.1-0.2-0.3-0.3-0.6-0.3c-0.2,0-0.4,0.1-0.6,0.3s-0.2,0.4-0.2,0.7v1.5c0,0.3,0.1,0.5,0.2,0.7
		s0.3,0.3,0.6,0.3c0.2,0,0.4-0.1,0.6-0.3c0.1-0.2,0.2-0.4,0.2-0.7V51.3z"/>
	<path class="st6" d="M107.3,52.2h-1.7v1.5h2v0.4H105V50h2.5v0.4h-2v1.3h1.7V52.2z"/>
	<path class="st6" d="M110.7,52.7c0,0.5-0.1,0.8-0.4,1.1c-0.2,0.3-0.6,0.4-1,0.4c-0.4,0-0.7-0.1-1-0.4c-0.2-0.3-0.4-0.6-0.4-1.1
		v-1.2c0-0.5,0.1-0.8,0.4-1.1c0.2-0.3,0.6-0.4,1-0.4c0.4,0,0.7,0.1,1,0.4c0.2,0.3,0.4,0.6,0.4,1.1V52.7z M110.1,51.3
		c0-0.3-0.1-0.5-0.2-0.7c-0.1-0.2-0.3-0.3-0.6-0.3c-0.2,0-0.4,0.1-0.6,0.3s-0.2,0.4-0.2,0.7v1.5c0,0.3,0.1,0.5,0.2,0.7
		c0.1,0.2,0.3,0.3,0.6,0.3c0.2,0,0.4-0.1,0.6-0.3c0.1-0.2,0.2-0.4,0.2-0.7V51.3z"/>
	<path class="st6" d="M112.7,51.8c0.3,0,0.4-0.1,0.5-0.2c0.1-0.1,0.2-0.3,0.2-0.5c0-0.2-0.1-0.4-0.2-0.5c-0.1-0.1-0.3-0.2-0.5-0.2
		c-0.2,0-0.4,0.1-0.5,0.2c-0.1,0.1-0.2,0.3-0.2,0.5h-0.5l0,0c0-0.3,0.1-0.6,0.4-0.8c0.2-0.2,0.6-0.3,0.9-0.3c0.4,0,0.7,0.1,0.9,0.3
		c0.2,0.2,0.3,0.5,0.3,0.9c0,0.2-0.1,0.4-0.2,0.5c-0.1,0.2-0.2,0.3-0.4,0.4c0.2,0.1,0.4,0.2,0.5,0.4c0.1,0.2,0.2,0.4,0.2,0.6
		c0,0.4-0.1,0.7-0.4,0.9c-0.2,0.2-0.6,0.3-0.9,0.3c-0.4,0-0.7-0.1-0.9-0.3c-0.3-0.2-0.4-0.5-0.4-0.8l0,0h0.5c0,0.2,0.1,0.4,0.2,0.5
		s0.3,0.2,0.6,0.2c0.2,0,0.4-0.1,0.5-0.2c0.1-0.1,0.2-0.3,0.2-0.6c0-0.3-0.1-0.5-0.2-0.6c-0.1-0.1-0.3-0.2-0.6-0.2h-0.5v-0.4H112.7z
		"/>
	<path class="st6" d="M117.3,52.7c0,0.5-0.1,0.8-0.4,1.1c-0.2,0.3-0.6,0.4-1,0.4c-0.4,0-0.7-0.1-1-0.4c-0.2-0.3-0.4-0.6-0.4-1.1
		v-1.2c0-0.5,0.1-0.8,0.4-1.1c0.2-0.3,0.6-0.4,1-0.4c0.4,0,0.7,0.1,1,0.4c0.2,0.3,0.4,0.6,0.4,1.1V52.7z M116.7,51.3
		c0-0.3-0.1-0.5-0.2-0.7c-0.1-0.2-0.3-0.3-0.6-0.3c-0.2,0-0.4,0.1-0.6,0.3c-0.1,0.2-0.2,0.4-0.2,0.7v1.5c0,0.3,0.1,0.5,0.2,0.7
		c0.1,0.2,0.3,0.3,0.6,0.3c0.2,0,0.4-0.1,0.6-0.3c0.1-0.2,0.2-0.4,0.2-0.7V51.3z"/>
	<path class="st6" d="M119.3,51.8c0.3,0,0.4-0.1,0.5-0.2c0.1-0.1,0.2-0.3,0.2-0.5c0-0.2-0.1-0.4-0.2-0.5c-0.1-0.1-0.3-0.2-0.5-0.2
		c-0.2,0-0.4,0.1-0.5,0.2c-0.1,0.1-0.2,0.3-0.2,0.5H118l0,0c0-0.3,0.1-0.6,0.4-0.8c0.2-0.2,0.6-0.3,0.9-0.3c0.4,0,0.7,0.1,0.9,0.3
		c0.2,0.2,0.3,0.5,0.3,0.9c0,0.2-0.1,0.4-0.2,0.5c-0.1,0.2-0.2,0.3-0.4,0.4c0.2,0.1,0.4,0.2,0.5,0.4c0.1,0.2,0.2,0.4,0.2,0.6
		c0,0.4-0.1,0.7-0.4,0.9c-0.2,0.2-0.6,0.3-0.9,0.3c-0.4,0-0.7-0.1-0.9-0.3c-0.3-0.2-0.4-0.5-0.4-0.8l0,0h0.5c0,0.2,0.1,0.4,0.2,0.5
		c0.1,0.1,0.3,0.2,0.6,0.2c0.2,0,0.4-0.1,0.5-0.2c0.1-0.1,0.2-0.3,0.2-0.6c0-0.3-0.1-0.5-0.2-0.6c-0.1-0.1-0.3-0.2-0.6-0.2h-0.5
		v-0.4H119.3z"/>
</g>
<g>
	<path class="st6" d="M150.8,129.8H150l-0.2,1.2h-0.4l0.2-1.2h-0.7v-0.4h0.8l0.2-1h-0.7V128h0.8l0.2-1.2h0.4l-0.2,1.2h0.7l0.2-1.2
		h0.4l-0.2,1.2h0.6v0.4h-0.6l-0.2,1h0.6v0.4h-0.7l-0.2,1.2h-0.4L150.8,129.8z M150.1,129.4h0.7l0.2-1h-0.7L150.1,129.4z"/>
	<path class="st6" d="M152.9,129.1l0.2-2.3h2.1v0.5h-1.6l-0.1,1.2c0.1-0.1,0.2-0.1,0.3-0.2s0.2-0.1,0.4-0.1c0.4,0,0.7,0.1,0.9,0.4
		c0.2,0.2,0.3,0.6,0.3,1c0,0.4-0.1,0.8-0.3,1c-0.2,0.3-0.6,0.4-1,0.4c-0.4,0-0.6-0.1-0.9-0.3c-0.2-0.2-0.3-0.5-0.3-0.8l0,0h0.5
		c0,0.2,0.1,0.4,0.2,0.5c0.1,0.1,0.3,0.2,0.5,0.2c0.2,0,0.4-0.1,0.6-0.3c0.1-0.2,0.2-0.4,0.2-0.7c0-0.3-0.1-0.5-0.2-0.6
		c-0.1-0.2-0.3-0.2-0.6-0.2c-0.2,0-0.4,0-0.5,0.1c-0.1,0.1-0.2,0.2-0.2,0.3L152.9,129.1z"/>
	<path class="st6" d="M157.1,130.6c0.3,0,0.5-0.1,0.7-0.3c0.2-0.2,0.3-0.5,0.3-0.8v-0.4c-0.1,0.1-0.2,0.2-0.3,0.3
		c-0.1,0.1-0.3,0.1-0.4,0.1c-0.4,0-0.7-0.1-0.9-0.4c-0.2-0.2-0.3-0.6-0.3-1c0-0.4,0.1-0.8,0.4-1c0.2-0.3,0.5-0.4,0.9-0.4
		c0.4,0,0.7,0.1,1,0.4s0.4,0.6,0.4,1.1v1.3c0,0.5-0.1,0.9-0.4,1.1s-0.6,0.4-1.1,0.4c-0.1,0-0.3,0-0.5,0c-0.2,0-0.3-0.1-0.4-0.1
		l0.1-0.4c0.1,0.1,0.2,0.1,0.4,0.1C156.8,130.5,156.9,130.6,157.1,130.6z M157.2,129.1c0.2,0,0.4,0,0.5-0.1c0.1-0.1,0.2-0.2,0.3-0.3
		v-0.5c0-0.3-0.1-0.6-0.2-0.7c-0.1-0.2-0.3-0.3-0.6-0.3c-0.2,0-0.4,0.1-0.5,0.3c-0.1,0.2-0.2,0.4-0.2,0.7c0,0.3,0.1,0.5,0.2,0.7
		C156.8,129,157,129.1,157.2,129.1z"/>
	<path class="st6" d="M162,130.9h-2.6v-0.4l1.3-1.6c0.2-0.3,0.4-0.5,0.5-0.7c0.1-0.2,0.1-0.3,0.1-0.5c0-0.2-0.1-0.4-0.2-0.5
		c-0.1-0.1-0.3-0.2-0.5-0.2c-0.2,0-0.4,0.1-0.6,0.2c-0.1,0.2-0.2,0.3-0.2,0.6h-0.5l0,0c0-0.3,0.1-0.6,0.3-0.9c0.2-0.2,0.6-0.4,1-0.4
		c0.4,0,0.7,0.1,0.9,0.3c0.2,0.2,0.3,0.5,0.3,0.8c0,0.2-0.1,0.4-0.2,0.6c-0.1,0.2-0.3,0.5-0.6,0.8l-1,1.2l0,0h1.9V130.9z"/>
	<path class="st6" d="M162.8,129.1l0.2-2.3h2.1v0.5h-1.6l-0.1,1.2c0.1-0.1,0.2-0.1,0.3-0.2s0.2-0.1,0.4-0.1c0.4,0,0.7,0.1,0.9,0.4
		c0.2,0.2,0.3,0.6,0.3,1c0,0.4-0.1,0.8-0.3,1c-0.2,0.3-0.6,0.4-1,0.4c-0.4,0-0.6-0.1-0.9-0.3c-0.2-0.2-0.3-0.5-0.3-0.8l0,0h0.5
		c0,0.2,0.1,0.4,0.2,0.5c0.1,0.1,0.3,0.2,0.5,0.2c0.2,0,0.4-0.1,0.6-0.3c0.1-0.2,0.2-0.4,0.2-0.7c0-0.3-0.1-0.5-0.2-0.6
		c-0.1-0.2-0.3-0.2-0.6-0.2c-0.2,0-0.4,0-0.5,0.1c-0.1,0.1-0.2,0.2-0.2,0.3L162.8,129.1z"/>
	<path class="st6" d="M168.6,130.9H166v-0.4l1.3-1.6c0.2-0.3,0.4-0.5,0.5-0.7c0.1-0.2,0.1-0.3,0.1-0.5c0-0.2-0.1-0.4-0.2-0.5
		c-0.1-0.1-0.3-0.2-0.5-0.2c-0.2,0-0.4,0.1-0.6,0.2c-0.1,0.2-0.2,0.3-0.2,0.6H166l0,0c0-0.3,0.1-0.6,0.3-0.9c0.2-0.2,0.6-0.4,1-0.4
		c0.4,0,0.7,0.1,0.9,0.3c0.2,0.2,0.3,0.5,0.3,0.8c0,0.2-0.1,0.4-0.2,0.6c-0.1,0.2-0.3,0.5-0.6,0.8l-1,1.2l0,0h1.9V130.9z"/>
	<path class="st6" d="M170.5,128.6c0.3,0,0.4-0.1,0.5-0.2c0.1-0.1,0.2-0.3,0.2-0.5c0-0.2-0.1-0.4-0.2-0.5c-0.1-0.1-0.3-0.2-0.5-0.2
		c-0.2,0-0.4,0.1-0.5,0.2c-0.1,0.1-0.2,0.3-0.2,0.5h-0.5l0,0c0-0.3,0.1-0.6,0.4-0.8c0.2-0.2,0.6-0.3,0.9-0.3c0.4,0,0.7,0.1,0.9,0.3
		c0.2,0.2,0.3,0.5,0.3,0.9c0,0.2-0.1,0.4-0.2,0.5c-0.1,0.2-0.2,0.3-0.4,0.4c0.2,0.1,0.4,0.2,0.5,0.4c0.1,0.2,0.2,0.4,0.2,0.6
		c0,0.4-0.1,0.7-0.4,0.9c-0.2,0.2-0.6,0.3-0.9,0.3c-0.4,0-0.7-0.1-0.9-0.3c-0.3-0.2-0.4-0.5-0.4-0.8l0,0h0.5c0,0.2,0.1,0.4,0.2,0.5
		c0.1,0.1,0.3,0.2,0.6,0.2c0.2,0,0.4-0.1,0.5-0.2s0.2-0.3,0.2-0.6c0-0.3-0.1-0.5-0.2-0.6c-0.1-0.1-0.3-0.2-0.6-0.2H170v-0.4H170.5z"
		/>
</g>
<g>
	<path class="st6" d="M46.7,53.5l0.1,0.5l0,0l0.1-0.5l0.7-2.7h0.6l0.7,2.7L49,54h0l0.1-0.6l0.6-2.7h0.6l-1,4.2h-0.5L47.9,52
		l-0.1-0.4h0L47.8,52L47,54.9h-0.5l-1-4.2h0.6L46.7,53.5z"/>
</g>
<g>
	<path class="st6" d="M46.7,88.6l0.1,0.5l0,0l0.1-0.5l0.7-2.7h0.6l0.7,2.7l0.1,0.6h0l0.1-0.6l0.6-2.7h0.6l-1,4.2h-0.5l-0.8-2.9
		l-0.1-0.4h0l-0.1,0.4L47,90h-0.5l-1-4.2h0.6L46.7,88.6z"/>
</g>
<g>
	<path class="st6" d="M46.7,129.6l0.1,0.5l0,0l0.1-0.5l0.7-2.7h0.6l0.7,2.7l0.1,0.6h0l0.1-0.6l0.6-2.7h0.6l-1,4.2h-0.5l-0.8-2.9
		l-0.1-0.4h0l-0.1,0.4L47,131h-0.5l-1-4.2h0.6L46.7,129.6z"/>
</g>
<g>
	<path class="st6" d="M46.7,164.7l0.1,0.5l0,0l0.1-0.5l0.7-2.7h0.6l0.7,2.7l0.1,0.6h0l0.1-0.6l0.6-2.7h0.6l-1,4.2h-0.5l-0.8-2.9
		l-0.1-0.4h0l-0.1,0.4l-0.8,2.9h-0.5l-1-4.2h0.6L46.7,164.7z"/>
</g>
<g>
	<path d="M168.9,165.3v-4h1.3c0.4,0,0.7,0.1,1,0.3c0.2,0.2,0.4,0.4,0.4,0.8c0,0.2-0.1,0.3-0.2,0.5c-0.1,0.1-0.2,0.2-0.4,0.3
		c0.3,0,0.5,0.1,0.6,0.3c0.2,0.2,0.2,0.4,0.2,0.7c0,0.4-0.1,0.6-0.4,0.8s-0.6,0.3-1,0.3H168.9z M169.4,163h0.9
		c0.2,0,0.4-0.1,0.5-0.2c0.1-0.1,0.2-0.3,0.2-0.5c0-0.2-0.1-0.4-0.2-0.5c-0.1-0.1-0.3-0.2-0.6-0.2h-0.8V163z M169.4,163.4v1.4h1
		c0.2,0,0.4-0.1,0.6-0.2s0.2-0.3,0.2-0.5c0-0.2-0.1-0.4-0.2-0.5c-0.1-0.1-0.3-0.2-0.6-0.2h0H169.4z"/>
</g>
<g>
	<path d="M168.9,199.7v-4h1.3c0.4,0,0.7,0.1,1,0.3c0.2,0.2,0.4,0.4,0.4,0.8c0,0.2-0.1,0.3-0.2,0.5c-0.1,0.1-0.2,0.2-0.4,0.3
		c0.3,0,0.5,0.1,0.6,0.3c0.2,0.2,0.2,0.4,0.2,0.7c0,0.4-0.1,0.6-0.4,0.8c-0.2,0.2-0.6,0.3-1,0.3H168.9z M169.4,197.4h0.9
		c0.2,0,0.4-0.1,0.5-0.2c0.1-0.1,0.2-0.3,0.2-0.5c0-0.2-0.1-0.4-0.2-0.5c-0.1-0.1-0.3-0.2-0.6-0.2h-0.8V197.4z M169.4,197.8v1.4h1
		c0.2,0,0.4-0.1,0.6-0.2s0.2-0.3,0.2-0.5c0-0.2-0.1-0.4-0.2-0.5c-0.1-0.1-0.3-0.2-0.6-0.2h0H169.4z"/>
</g>
<circle class="st0" cx="191.4" cy="48.4" r="1.1"/>
<circle class="st0" cx="191.4" cy="57.2" r="1.1"/>
<circle class="st1" cx="191.4" cy="79.1" r="1.1"/>
<circle class="st1" cx="191.4" cy="87.9" r="1.1"/>
<circle class="st1" cx="191.4" cy="96.7" r="1.1"/>
<circle class="st2" cx="191.4" cy="128.1" r="1.1"/>
<circle class="st2" cx="191.4" cy="119.3" r="1.1"/>
<circle class="st2" cx="191.4" cy="136.9" r="1.1"/>
<circle class="st4" cx="191.4" cy="159.6" r="1.1"/>
<circle class="st4" cx="191.4" cy="150.8" r="1.1"/>
<circle class="st4" cx="191.4" cy="168.3" r="1.1"/>
<circle class="st4" cx="191.4" cy="177.1" r="1.1"/>
<circle class="st7" cx="191.4" cy="190.3" r="1.1"/>
<circle class="st7" cx="191.4" cy="199.1" r="1.1"/>
<circle class="st7" cx="191.4" cy="207.8" r="1.1"/>
<g>
	<g>
		<path d="M241.1,199.3c0-1,0.3-1.9,0.8-2.6l0.2,0.1c-0.5,0.7-0.7,1.6-0.7,2.6c0,0.9,0.2,1.8,0.7,2.6l-0.2,0.1
			C241.4,201.2,241.1,200.3,241.1,199.3z"/>
		<path d="M243,200.7L243,200.7l0,0.3h-0.2v-4.2h0.3v1.2l0,0.5c0.3-0.2,0.6-0.4,1-0.4c0.8,0,1.1,0.6,1.1,1.4c0,1-0.6,1.5-1.2,1.5
			C243.6,201,243.3,200.9,243,200.7z M244.8,199.5c0-0.7-0.2-1.2-0.9-1.2c-0.3,0-0.6,0.2-0.9,0.5v1.7c0.3,0.3,0.6,0.4,0.8,0.4
			C244.4,200.8,244.8,200.3,244.8,199.5z"/>
		<path d="M245.6,200.2c0-0.6,0.6-0.9,1.8-1.1c0-0.4-0.1-0.9-0.7-0.9c-0.4,0-0.7,0.2-0.9,0.3l-0.1-0.2c0.2-0.1,0.6-0.4,1-0.4
			c0.7,0,0.9,0.5,0.9,1.1v1.8h-0.2l0-0.4h0c-0.3,0.2-0.6,0.4-1,0.4C246,201,245.6,200.8,245.6,200.2z M247.5,200.3v-1
			c-1.2,0.1-1.5,0.4-1.5,0.8c0,0.4,0.3,0.6,0.6,0.6C246.8,200.8,247.1,200.6,247.5,200.3z"/>
		<path d="M248.5,199.5c0-0.9,0.6-1.5,1.3-1.5c0.4,0,0.6,0.2,0.8,0.3l-0.2,0.2c-0.2-0.2-0.4-0.3-0.7-0.3c-0.6,0-1,0.5-1,1.3
			c0,0.7,0.4,1.2,1,1.2c0.3,0,0.6-0.1,0.8-0.3l0.1,0.2c-0.2,0.2-0.5,0.4-0.9,0.4C249,201,248.5,200.5,248.5,199.5z"/>
		<path d="M251.3,196.7h0.3v3.1h0l1.4-1.7h0.3l-0.9,1.1l1.1,1.7h-0.3l-0.9-1.5l-0.6,0.7v0.8h-0.3V196.7z"/>
		<path d="M253.8,201.5c0-0.2,0.2-0.5,0.4-0.7v0c-0.1-0.1-0.2-0.2-0.2-0.5c0-0.3,0.2-0.4,0.3-0.5v0c-0.2-0.2-0.4-0.4-0.4-0.8
			c0-0.6,0.4-1,1-1c0.2,0,0.3,0,0.4,0.1h1v0.2h-0.7c0.2,0.2,0.3,0.4,0.3,0.7c0,0.6-0.4,1-1,1c-0.2,0-0.3,0-0.5-0.1
			c-0.1,0.1-0.2,0.2-0.2,0.4c0,0.2,0.1,0.4,0.5,0.4h0.6c0.6,0,0.9,0.2,0.9,0.6c0,0.5-0.5,0.9-1.3,0.9
			C254.2,202.3,253.8,202,253.8,201.5z M256,201.4c0-0.3-0.2-0.4-0.6-0.4h-0.6c-0.1,0-0.2,0-0.3,0c-0.3,0.2-0.4,0.4-0.4,0.6
			c0,0.4,0.3,0.6,0.9,0.6C255.6,202.1,256,201.7,256,201.4z M255.6,199.1c0-0.5-0.3-0.8-0.7-0.8s-0.7,0.3-0.7,0.8
			c0,0.5,0.3,0.8,0.7,0.8S255.6,199.5,255.6,199.1z"/>
		<path d="M256.9,198.1h0.2l0,0.5h0c0.2-0.3,0.5-0.6,0.8-0.6c0.1,0,0.2,0,0.3,0.1l-0.1,0.2c-0.1,0-0.1,0-0.3,0
			c-0.3,0-0.6,0.2-0.8,0.7v1.9h-0.3V198.1z"/>
		<path d="M258.4,199.5c0-0.9,0.6-1.5,1.3-1.5c0.7,0,1.3,0.5,1.3,1.5c0,0.9-0.6,1.5-1.3,1.5C259,201,258.4,200.5,258.4,199.5z
			 M260.7,199.5c0-0.7-0.4-1.3-1-1.3c-0.6,0-1,0.5-1,1.3c0,0.7,0.4,1.2,1,1.2C260.2,200.8,260.7,200.3,260.7,199.5z"/>
		<path d="M261.7,199.9v-1.8h0.3v1.8c0,0.6,0.2,0.9,0.6,0.9c0.3,0,0.6-0.2,0.9-0.6v-2.1h0.3v2.8h-0.2l0-0.5h0
			c-0.3,0.3-0.6,0.5-1,0.5C262,201,261.7,200.7,261.7,199.9z"/>
		<path d="M264.6,199.5c0-0.9,0.6-1.5,1.2-1.5c0.3,0,0.6,0.1,0.8,0.3l0-0.5v-1.2h0.3v4.2h-0.2l0-0.4h0c-0.2,0.2-0.5,0.4-0.9,0.4
			C265.1,201,264.6,200.5,264.6,199.5z M266.7,200.3v-1.7c-0.3-0.3-0.5-0.4-0.8-0.4c-0.6,0-1,0.5-1,1.2c0,0.7,0.3,1.2,0.9,1.2
			C266.2,200.8,266.4,200.6,266.7,200.3z"/>
		<path d="M267.7,201.9c0.5-0.7,0.7-1.6,0.7-2.6c0-0.9-0.2-1.8-0.7-2.6l0.2-0.1c0.5,0.8,0.8,1.6,0.8,2.6s-0.3,1.9-0.8,2.6
			L267.7,201.9z"/>
	</g>
</g>
<polygon class="st7" points="237.4,210.2 233.4,210.2 233.4,209.4 236.7,209.4 236.7,188.4 233.4,188.4 233.4,187.7 237.4,187.7 "/>
<g>
	<path class="st2" d="M24.2,131.7l1.3-2.3l-2.4-1.1l0.5-1.6l2.5,0.5l0.3-2.6h1.7l0.3,2.6l2.5-0.5l0.5,1.6l-2.4,1.1l1.3,2.3l-1.4,1
		l-1.8-2l-1.8,2L24.2,131.7z"/>
</g>
</svg>
