<?xml version="1.0" encoding="utf-8"?>
<!-- Generator: Adobe Illustrator 24.2.0, SVG Export Plug-In . SVG Version: 6.00 Build 0)  -->
<svg version="1.1" id="Livello_1" xmlns="http://www.w3.org/2000/svg" xmlns:xlink="http://www.w3.org/1999/xlink" x="0px" y="0px"
	 viewBox="0 0 1056.8 290" style="enable-background:new 0 0 1056.8 290;" xml:space="preserve">
<style type="text/css">
	.st0{fill:#CECECE;}
	.st1{fill:none;stroke:#000000;stroke-width:0.1736;stroke-miterlimit:10;}
	.st2{fill:#6B6B6A;}
	.st3{clip-path:url(#SVGID_2_);}
	.st4{fill:none;stroke:#1D1D1B;stroke-width:0.3014;stroke-miterlimit:10;}
</style>
<rect class="st0" width="1056.8" height="334.7"/>
<path class="st1" d="M870.9,266"/>
<path class="st1" d="M786.7,266"/>
<image style="overflow:visible;" width="898" height="522" xlink:href="../../../../Pictures/girlfriend wire2.png"  transform="matrix(0.3812 0 0 0.3812 372.2014 41.0654)">
</image>
<image style="overflow:visible;" width="898" height="650" xlink:href="../../../../Pictures/girlfriend wire.png"  transform="matrix(0.383 0 0 0.383 9.4534 41.0654)">
</image>
<g>
	<g>
		<path class="st2" d="M737.1,21.2L737.1,21.2l4.1-9.5h1.1v10.8h-0.9v-9.1h0l-3.9,9.1h-0.6l-4-9.3h0v9.3h-0.9V11.7h1.2L737.1,21.2z"
			/>
		<path class="st2" d="M753,18c0,1.4-0.4,2.5-1.2,3.4c-0.8,0.9-1.8,1.3-3.1,1.3s-2.3-0.4-3-1.3c-0.8-0.9-1.1-2-1.1-3.4v-1.8
			c0-1.4,0.4-2.5,1.1-3.4c0.8-0.9,1.8-1.3,3-1.3c1.3,0,2.3,0.4,3.1,1.3c0.8,0.9,1.2,2,1.2,3.4V18L753,18z M752.1,16.2
			c0-1.2-0.3-2.1-0.9-2.8c-0.6-0.7-1.4-1.1-2.5-1.1s-1.8,0.4-2.4,1.1c-0.6,0.7-0.9,1.7-0.9,2.8V18c0,1.2,0.3,2.1,0.9,2.8
			c0.6,0.7,1.4,1.1,2.4,1.1c1.1,0,1.9-0.4,2.5-1.1c0.6-0.7,0.9-1.7,0.9-2.8L752.1,16.2L752.1,16.2z"/>
		<path class="st2" d="M755.3,22.5V11.7h3.2c1.1,0,2,0.2,2.6,0.7c0.6,0.5,0.9,1.2,0.9,2.1c0,0.5-0.1,1-0.5,1.4
			c-0.3,0.4-0.7,0.7-1.2,0.9c0.7,0.1,1.3,0.4,1.7,0.9c0.4,0.5,0.6,1.1,0.6,1.8c0,1-0.3,1.7-0.9,2.2c-0.6,0.5-1.5,0.8-2.5,0.8
			C759.2,22.5,755.3,22.5,755.3,22.5z M756.2,16.5h2.6c0.8,0,1.3-0.2,1.7-0.5c0.4-0.3,0.6-0.9,0.6-1.5c0-0.7-0.2-1.2-0.7-1.5
			c-0.5-0.3-1.1-0.5-2-0.5h-2.3V16.5L756.2,16.5z M756.2,17.3v4.5h3c0.8,0,1.4-0.2,1.9-0.6c0.5-0.4,0.7-0.9,0.7-1.7
			c0-0.6-0.2-1.2-0.7-1.6c-0.5-0.4-1-0.6-1.8-0.6h-0.1C759.2,17.3,756.2,17.3,756.2,17.3z"/>
		<path class="st2" d="M765.8,22.5h-0.9V11.7h0.9V22.5z"/>
		<path class="st2" d="M769.7,21.7h5.6v0.8h-6.5V11.7h0.9L769.7,21.7L769.7,21.7z"/>
		<path class="st2" d="M783,17.2h-4.9v4.5h5.6v0.8h-6.5V11.7h6.5v0.8h-5.6v4.1h4.9V17.2z"/>
	</g>
</g>
<g>
	<g>
		<path class="st2" d="M9.5,22.5V11.7h3.3c1.3,0,2.4,0.5,3.3,1.3c0.9,0.9,1.3,2,1.3,3.4v1.4c0,1.4-0.4,2.5-1.3,3.4
			c-0.9,0.9-2,1.3-3.3,1.3L9.5,22.5L9.5,22.5z M10.3,12.4v9.3h2.4c1.1,0,2-0.4,2.7-1.1c0.7-0.8,1-1.7,1-2.8v-1.4
			c0-1.1-0.4-2.1-1-2.8c-0.7-0.8-1.6-1.1-2.7-1.1L10.3,12.4L10.3,12.4z"/>
		<path class="st2" d="M25.4,17.2h-4.9v4.5h5.6v0.8h-6.5V11.7h6.5v0.8h-5.6v4.1h4.9V17.2z"/>
		<path class="st2" d="M34.2,19.9c0-0.5-0.2-1-0.7-1.4c-0.5-0.4-1.2-0.7-2.3-1c-1.2-0.3-2-0.7-2.6-1.2c-0.6-0.5-0.9-1.1-0.9-1.9
			c0-0.8,0.3-1.5,1-2c0.7-0.5,1.5-0.8,2.6-0.8c1.1,0,2,0.3,2.7,0.9c0.7,0.6,1,1.4,1,2.3l0,0h-0.8c0-0.7-0.3-1.3-0.8-1.8
			c-0.5-0.5-1.2-0.7-2-0.7c-0.9,0-1.5,0.2-2,0.6c-0.5,0.4-0.7,0.9-0.7,1.5c0,0.5,0.2,1,0.6,1.4s1.2,0.7,2.3,1c1.1,0.3,2,0.7,2.6,1.2
			c0.6,0.5,0.9,1.1,0.9,1.9c0,0.9-0.4,1.5-1,2c-0.7,0.5-1.6,0.8-2.7,0.8s-2-0.3-2.8-0.8c-0.8-0.5-1.2-1.4-1.2-2.4l0,0h0.8
			c0,0.8,0.3,1.5,0.9,1.9c0.6,0.4,1.4,0.6,2.2,0.6c0.8,0,1.5-0.2,2-0.6C33.9,21,34.2,20.5,34.2,19.9z"/>
		<path class="st2" d="M39.4,17.4h-1.2v5.1h-0.9V11.7h0.9v5h1.2l4.3-5h1l0,0l-4.5,5.2l5,5.6l0,0H44L39.4,17.4z"/>
		<path class="st2" d="M54.1,12.4h-3.7v10.1h-0.9V12.4h-3.8v-0.8H54L54.1,12.4C54,12.4,54.1,12.4,54.1,12.4z"/>
		<path class="st2" d="M63.5,18c0,1.4-0.4,2.5-1.2,3.4c-0.8,0.9-1.8,1.3-3.1,1.3s-2.3-0.4-3.1-1.3c-0.8-0.9-1.1-2-1.1-3.4v-1.8
			c0-1.4,0.4-2.5,1.1-3.4c0.8-0.9,1.8-1.3,3-1.3c1.3,0,2.3,0.4,3.1,1.3c0.8,0.9,1.2,2,1.2,3.4L63.5,18L63.5,18z M62.6,16.2
			c0-1.2-0.3-2.1-0.9-2.8c-0.6-0.7-1.4-1.1-2.5-1.1c-1,0-1.8,0.4-2.4,1.1C56.3,14,56,15,56,16.2V18c0,1.2,0.3,2.1,0.9,2.8
			c0.6,0.7,1.4,1.1,2.4,1.1c1.1,0,1.9-0.4,2.5-1.1c0.6-0.7,0.9-1.7,0.9-2.8L62.6,16.2L62.6,16.2z"/>
		<path class="st2" d="M66.7,18v4.5h-0.9V11.7h3.7c1.1,0,2,0.3,2.6,0.9c0.6,0.6,0.9,1.4,0.9,2.3c0,1-0.3,1.7-0.9,2.3
			c-0.6,0.6-1.5,0.9-2.6,0.9H66.7z M66.7,17.2h2.8c0.9,0,1.6-0.2,2-0.7c0.5-0.5,0.7-1,0.7-1.7c0-0.7-0.2-1.3-0.7-1.7
			c-0.5-0.5-1.1-0.7-2-0.7h-2.8V17.2z"/>
	</g>
</g>
<image style="overflow:visible;" width="236" height="837" xlink:href="../../../../Pictures/girlfriend wire5.png"  transform="matrix(0.3838 0 0 0.3838 844.2314 41.1763)">
</image>
<image style="overflow:visible;" width="235" height="767" xlink:href="../../../../Pictures/girlfriend wire6.png"  transform="matrix(0.3838 0 0 0.3838 956.6934 40.2925)">
</image>
<g>
	<defs>
		<rect id="SVGID_1_" x="728" y="36.5" width="98.1" height="356.1"/>
	</defs>
	<clipPath id="SVGID_2_">
		<use xlink:href="#SVGID_1_"  style="overflow:visible;"/>
	</clipPath>
	<g class="st3">
		
			<image style="overflow:visible;" width="237" height="812" xlink:href="../../../../Pictures/girlfriend wire4b.png"  transform="matrix(0.3838 0 0 0.3838 731.4692 357.7489)">
		</image>
		
			<image style="overflow:visible;" width="237" height="830" xlink:href="../../../../Pictures/girlfriend wire4a.png"  transform="matrix(0.3838 0 0 0.3838 731.4692 40.7793)">
		</image>
	</g>
</g>
<polyline class="st4" points="954.7,40.3 1046.7,40.3 1046.7,334.7 954.7,334.7 "/>
</svg>
