<?xml version="1.0" encoding="utf-8"?>
<!-- Generator: Adobe Illustrator 24.2.0, SVG Export Plug-In . SVG Version: 6.00 Build 0)  -->
<svg version="1.1" id="Layer_1" xmlns="http://www.w3.org/2000/svg" xmlns:xlink="http://www.w3.org/1999/xlink" x="0px" y="0px"
	 viewBox="0 0 12 12" style="enable-background:new 0 0 12 12;" xml:space="preserve">
<style type="text/css">
	.st0{fill:#FFFFFF;}
</style>
<path class="st0" d="M10.5,0.5H1c-0.6,0-1,0.5-1,1V11c0,0.6,0.5,1,1,1h9.4c0.6,0,1-0.5,1-1V1.6C11.5,1,11,0.5,10.5,0.5z M3.6,10.4
	c0,0.2-0.1,0.3-0.3,0.3H2c-0.2,0-0.3-0.1-0.3-0.3V5c0-0.2,0.1-0.3,0.3-0.3h1.3c0.2,0,0.3,0.1,0.3,0.3V10.4z M2.6,4.2
	C1.9,4.2,1.4,3.7,1.4,3s0.5-1.2,1.2-1.2S3.8,2.3,3.8,3S3.3,4.2,2.6,4.2z M10.3,10.5c0,0.2-0.1,0.3-0.3,0.3H8.6
	c-0.2,0-0.3-0.1-0.3-0.3V7.9c0-0.4,0.1-1.7-1-1.7c-0.9,0-1,0.9-1.1,1.3v2.9c0,0.2-0.1,0.3-0.3,0.3H4.7c-0.2,0-0.3-0.1-0.3-0.3V5
	c0-0.2,0.1-0.3,0.3-0.3H6c0.2,0,0.3,0.1,0.3,0.3v0.5C6.6,5,7.1,4.6,8.1,4.6c2.2,0,2.2,2.1,2.2,3.2L10.3,10.5L10.3,10.5z"/>
</svg>
