<?xml version="1.0" encoding="utf-8"?>
<!-- Generator: Adobe Illustrator 24.2.0, SVG Export Plug-In . SVG Version: 6.00 Build 0)  -->
<svg version="1.1" id="Livello_1" xmlns="http://www.w3.org/2000/svg" xmlns:xlink="http://www.w3.org/1999/xlink" x="0px" y="0px"
	 viewBox="0 0 88.09 52.89" style="enable-background:new 0 0 88.09 52.89;" xml:space="preserve">
<style type="text/css">
	.st0{clip-path:url(#SVGID_2_);}
	.st1{fill:url(#SVGID_3_);}
	.st2{fill:url(#SVGID_4_);}
	.st3{fill:#00924A;}
	.st4{fill:#252C67;}
	.st5{fill:#32BAA6;}
	.st6{fill:#914A9B;}
	.st7{fill:#654B9E;}
	.st8{fill:#009748;}
	.st9{fill:#01443C;}
	.st10{fill:#6ABC45;}
	.st11{fill:none;stroke:#FCFCEC;stroke-width:0.0773;stroke-miterlimit:10;}
	.st12{fill:#CA4999;}
	.st13{fill:#FBF17C;}
	.st14{fill:#173963;}
	.st15{fill:#F7B2AC;}
	.st16{fill:#0A1427;}
	.st17{fill:#231F20;}
	.st18{clip-path:url(#SVGID_6_);}
	.st19{fill:url(#SVGID_7_);}
	.st20{fill:url(#SVGID_8_);}
	.st21{fill:none;stroke:#FCFCEC;stroke-width:0.079;stroke-miterlimit:10;}
</style>
<g>
	<defs>
		<path id="SVGID_1_" d="M-21.35,34.44h-4.24V13.88c0,0-0.01-4.72-4.12-4.72h-7.79v9.07h-3.9V9.15h-5.36v20.93h-4.81V4.34h22.14
			c0,0,7.32-0.1,8.11,7.92L-21.35,34.44z"/>
	</defs>
	<clipPath id="SVGID_2_">
		<use xlink:href="#SVGID_1_"  style="overflow:visible;"/>
	</clipPath>
	<g class="st0">
		<linearGradient id="SVGID_3_" gradientUnits="userSpaceOnUse" x1="-36.0969" y1="34.5512" x2="-36.0969" y2="3.0257">
			<stop  offset="0" style="stop-color:#0552A1"/>
			<stop  offset="0.4277" style="stop-color:#61CCF5"/>
			<stop  offset="1" style="stop-color:#00A84E"/>
		</linearGradient>
		<rect x="-51.93" y="3.03" class="st1" width="31.67" height="31.53"/>
		<linearGradient id="SVGID_4_" gradientUnits="userSpaceOnUse" x1="-51.8946" y1="34.5861" x2="-20.2993" y2="2.9908">
			<stop  offset="0" style="stop-color:#0B1437"/>
			<stop  offset="0.0872" style="stop-color:#0C183A"/>
			<stop  offset="0.1707" style="stop-color:#112341"/>
			<stop  offset="0.2526" style="stop-color:#18374F"/>
			<stop  offset="0.3337" style="stop-color:#225261"/>
			<stop  offset="0.4141" style="stop-color:#2E7579"/>
			<stop  offset="0.493" style="stop-color:#3E9F96"/>
			<stop  offset="0.5434" style="stop-color:#49BEAB"/>
			<stop  offset="0.6936" style="stop-color:#D5EFFB"/>
			<stop  offset="0.8786" style="stop-color:#12B26A"/>
		</linearGradient>
		<rect x="-51.93" y="3.03" class="st2" width="31.67" height="31.53"/>
	</g>
	<g class="st0">
		<path class="st3" d="M-62.87,27.86c1.7,0.15,3.17,0.95,4.77,1.41c1.44,0.41,2.87,0.84,4.37,1.17c1.49,0.33,3.05,0.56,4.66,0.53
			c0.48-0.01,0.98,0.08,1.49,0.06c1.36-0.04,2.64-0.3,4.04-0.62c1.13-0.27,2.03-0.99,3.01-1.56c0.62-0.36,1.23-0.76,1.79-1.23
			c0.57-0.48,1.07-0.99,1.55-1.73c0.02-0.03,0.04-0.06,0.05-0.09l0.03-0.08c0-0.02-0.01-0.01-0.01-0.02l-0.12-0.09
			c-0.05-0.03-0.09-0.06-0.13-0.08c-0.01-0.05-0.13,0.06-0.15,0.09c-0.58,0.63-1.09,1.08-1.64,1.54c-0.54,0.46-1.1,0.88-1.68,1.26
			c-1.59,1.07-3.37,1.78-5.23,1.99c-0.21,0.02-0.4,0.14-0.6,0.17c-1.44,0.2-2.84,0.13-4.24,0.08c-2.52-0.1-4.87-0.85-7.15-1.53
			c-1.59-0.48-3.08-1.2-4.79-1.33c-0.01,0-0.02,0.01-0.02,0.03C-62.89,27.85-62.88,27.86-62.87,27.86z"/>
		<path class="st3" d="M-62.4,26.86c1.67,0.14,3.09,0.91,4.64,1.36c2.76,0.78,5.57,1.7,8.62,1.65c0.46-0.01,0.92,0.08,1.4,0.07
			c1.27-0.03,2.47-0.27,3.78-0.55c1.05-0.23,1.88-0.92,2.79-1.44c1.16-0.67,2.25-1.42,3.06-2.67c0.07-0.08,0.08-0.26-0.04-0.3
			c-0.05-0.03-0.09-0.07-0.14-0.06c-0.07,0.03-0.11,0.04-0.15,0.09c-0.51,0.52-0.98,0.94-1.49,1.36c-0.5,0.41-1.01,0.8-1.54,1.15
			c-1.47,0.98-3.11,1.64-4.85,1.82c-0.2,0.01-0.37,0.14-0.56,0.16c-1.35,0.18-2.66,0.11-3.98,0.06c-2.39-0.09-4.64-0.82-6.84-1.48
			c-1.54-0.46-2.98-1.17-4.66-1.28c-0.01,0-0.02,0.01-0.02,0.03C-62.41,26.84-62.41,26.85-62.4,26.86z"/>
		<path class="st3" d="M-61.92,25.85c1.64,0.12,3.02,0.88,4.51,1.31c2.67,0.75,5.36,1.63,8.21,1.6c0.43-0.01,0.86,0.09,1.31,0.08
			c1.19-0.02,2.3-0.24,3.51-0.48c0.98-0.2,1.73-0.85,2.57-1.32c1.06-0.6,2.09-1.3,2.78-2.4c0.06-0.07,0.04-0.2-0.05-0.28
			c-0.1-0.06-0.22-0.06-0.28,0c-0.88,0.85-1.78,1.58-2.75,2.24c-1.34,0.89-2.85,1.5-4.47,1.65c-0.18,0.01-0.34,0.13-0.52,0.16
			c-1.25,0.16-2.48,0.08-3.73,0.04c-2.25-0.09-4.41-0.79-6.54-1.42c-1.49-0.44-2.89-1.13-4.54-1.23c-0.01,0-0.02,0.01-0.02,0.03
			C-61.94,25.84-61.93,25.85-61.92,25.85z"/>
		<path class="st3" d="M-61.45,24.85c1.6,0.1,2.94,0.85,4.39,1.26c2.58,0.72,5.14,1.57,7.81,1.54c0.4-0.01,0.81,0.09,1.22,0.09
			c1.11,0,2.13-0.21,3.25-0.41c0.9-0.17,1.58-0.78,2.35-1.2c0.97-0.53,1.92-1.18,2.51-2.12c0.06-0.06,0.02-0.17-0.08-0.24
			c-0.1-0.07-0.21-0.09-0.26-0.03c-0.77,0.7-1.59,1.38-2.47,1.96c-1.22,0.81-2.6,1.36-4.09,1.48c-0.17,0.01-0.32,0.12-0.48,0.15
			c-1.16,0.15-2.31,0.06-3.48,0.02c-2.12-0.08-4.18-0.76-6.24-1.37c-1.44-0.43-2.8-1.1-4.41-1.18c-0.01,0-0.02,0.01-0.02,0.03
			C-61.46,24.83-61.46,24.84-61.45,24.85z"/>
		<path class="st3" d="M-60.97,23.85c1.57,0.09,2.87,0.81,4.26,1.2c2.49,0.69,4.92,1.51,7.41,1.49c0.37-0.01,0.75,0.09,1.13,0.1
			c1.02,0.01,1.96-0.18,2.98-0.34c0.83-0.14,1.44-0.71,2.13-1.08c0.87-0.46,1.76-1.05,2.23-1.86c0.05-0.05,0-0.14-0.09-0.22
			c-0.1-0.07-0.2-0.1-0.24-0.06c-0.66,0.56-1.41,1.18-2.19,1.7c-1.09,0.72-2.34,1.22-3.71,1.32c-0.15,0.01-0.29,0.12-0.44,0.14
			c-1.06,0.13-2.13,0.04-3.23,0.01c-1.99-0.08-3.95-0.73-5.94-1.31c-1.38-0.41-2.7-1.06-4.28-1.13c-0.01,0-0.02,0.01-0.02,0.03
			C-60.99,23.83-60.98,23.84-60.97,23.85z"/>
		<path class="st3" d="M-60.49,22.84c1.54,0.07,2.79,0.78,4.14,1.15c2.4,0.66,4.71,1.44,7.01,1.43c0.34,0,0.69,0.1,1.04,0.11
			c0.94,0.02,1.79-0.15,2.72-0.28c0.75-0.12,1.29-0.65,1.91-0.97c0.4-0.2,0.78-0.43,1.13-0.69c0.34-0.26,0.66-0.59,0.83-0.91
			c0.04-0.04-0.02-0.12-0.11-0.19c-0.09-0.07-0.19-0.11-0.22-0.08c-0.56,0.43-1.23,0.98-1.92,1.44c-0.96,0.64-2.08,1.09-3.33,1.16
			c-0.14,0-0.26,0.11-0.4,0.13c-0.97,0.11-1.95,0.02-2.98-0.01c-1.86-0.07-3.72-0.7-5.64-1.26c-1.33-0.39-2.61-1.03-4.16-1.07
			c-0.01,0-0.02,0.01-0.02,0.03C-60.51,22.83-60.5,22.84-60.49,22.84z"/>
	</g>
	<g class="st0">
		<path class="st4" d="M-24.39,36.57c-0.2-0.03-1.37-0.21-3.23-0.66c-1.86-0.46-4.42-1.21-7.29-2.48c-2.87-1.26-6.05-3.05-9.1-5.37
			c-3.06-2.31-5.99-5.14-8.56-8.22c-5.17-6.16-8.79-13.24-10.98-18.67c-2.2-5.45-3.05-9.29-3.08-9.4c0.21,0.5,0.4,0.87,0.61,1.3
			c0.21,0.41,0.42,0.81,0.63,1.21c0.43,0.79,0.87,1.57,1.32,2.34c1.47,4.6,3.36,9.07,5.68,13.33c2.33,4.26,5.1,8.32,8.41,11.98
			c3.3,3.66,7.16,6.9,11.5,9.42C-34.14,33.86-29.34,35.63-24.39,36.57z"/>
		<path class="st4" d="M-31.18,33.4c-0.29-0.11-3.54-1.1-7.74-3.58c-2.09-1.23-4.4-2.84-6.65-4.79c-2.25-1.94-4.45-4.22-6.42-6.65
			c-3.97-4.85-6.99-10.31-8.9-14.51c-1.92-4.21-2.84-7.14-2.85-7.14c0.73,1.22,1.49,2.41,2.27,3.57
			c2.73,7.09,6.46,13.87,11.48,19.73c2.51,2.92,5.34,5.59,8.5,7.86C-38.32,30.17-34.85,32.04-31.18,33.4z"/>
		<path class="st4" d="M-36.1,29.87c-0.21-0.11-2.58-1.25-5.63-3.47c-3.06-2.2-6.7-5.59-9.72-9.44c-3.05-3.83-5.51-8.05-7.13-11.3
			c-1.62-3.25-2.48-5.51-2.49-5.51c0.63,0.92,1.27,1.83,1.93,2.71c2.38,5.5,5.42,10.75,9.23,15.41
			C-46.09,22.93-41.45,26.98-36.1,29.87z"/>
		<path class="st4" d="M-38.7,27.07c-0.16-0.1-1.91-1.15-4.2-3c-2.29-1.84-5.06-4.55-7.45-7.55c-2.41-2.99-4.45-6.24-5.83-8.74
			c-1.38-2.5-2.16-4.24-2.17-4.24c0.54,0.7,1.08,1.38,1.64,2.05c2.08,4.24,4.59,8.29,7.58,11.95C-46.14,21.2-42.66,24.47-38.7,27.07
			z"/>
		<path class="st4" d="M-40.51,24.63c-0.12-0.09-1.42-1-3.15-2.52c-1.73-1.52-3.86-3.68-5.75-6.03c-1.9-2.34-3.57-4.85-4.72-6.78
			c-1.16-1.93-1.84-3.27-1.84-3.27c0.45,0.53,0.9,1.05,1.37,1.56C-51.07,14.13-46.41,20.13-40.51,24.63z"/>
		<path class="st4" d="M-41.43,22.93c-0.09-0.07-1.08-0.83-2.42-2.06c-1.34-1.22-3-2.93-4.51-4.76c-3.06-3.64-5.42-7.77-5.42-7.77
			c0.37,0.4,0.75,0.79,1.14,1.18C-49.64,14.58-45.92,19.21-41.43,22.93z"/>
	</g>
	<g class="st0">
		<path class="st5" d="M-30.51-7.21c0.52,3.16-0.73,6.14-2,8.77c-1.15,2.41-2.95,4.42-5.16,5.59c-2.21,1.19-4.76,1.55-7.36,1.4
			c-0.79-0.04-1.56-0.36-2.34-0.57c-2.1-0.57-4.11-1.24-6.06-2.43c-1.54-0.94-3.32-1.31-4.85-2.31c-1.9-1.26-3.67-2.72-5.55-3.86
			c-0.12-0.11-0.32-0.04-0.46,0.14c-0.15,0.17-0.2,0.38-0.07,0.5c1.6,1.65,3.58,3.01,5.61,4.12c2.84,1.55,5.68,2.81,8.65,3.98
			c0.34,0.14,0.72,0.07,1.06,0.15c2.35,0.63,4.76,1.08,7.09,0.65c2.07-0.38,4.01-1.13,5.68-2.37c1.67-1.23,3.05-2.93,4.01-4.87
			c1.33-2.66,2.44-5.71,1.87-8.89c-0.01-0.02-0.03-0.04-0.06-0.03C-30.49-7.24-30.5-7.22-30.51-7.21z"/>
		<path class="st5" d="M-29.28-6.92c0.5,3.24-0.77,6.33-2.13,9.11c-1.22,2.54-3.18,4.74-5.63,6.05c-2.45,1.33-5.27,1.73-8.05,1.57
			c-0.85-0.04-1.67-0.36-2.49-0.59c-2.22-0.59-4.31-1.29-6.33-2.51c-1.6-0.96-3.41-1.35-4.99-2.38c-1.95-1.29-3.75-2.77-5.7-3.96
			c-0.12-0.11-0.33-0.05-0.48,0.12c-0.15,0.17-0.18,0.39-0.05,0.51c1.66,1.7,3.68,3.08,5.76,4.22c2.9,1.59,5.83,2.88,8.93,4.1
			c0.35,0.15,0.75,0.08,1.1,0.16c2.47,0.65,5.03,1.13,7.57,0.67c2.25-0.4,4.42-1.24,6.26-2.61c1.84-1.36,3.32-3.2,4.34-5.25
			c1.42-2.82,2.55-5.98,2-9.23c-0.01-0.02-0.03-0.04-0.06-0.03C-29.26-6.95-29.28-6.94-29.28-6.92z"/>
		<path class="st5" d="M-28.06-6.63c0.48,3.32-0.82,6.51-2.27,9.45c-1.3,2.67-3.4,5.07-6.09,6.51c-2.68,1.47-5.78,1.91-8.74,1.73
			c-0.91-0.05-1.77-0.37-2.65-0.61c-2.34-0.61-4.51-1.34-6.61-2.59c-1.65-0.99-3.51-1.4-5.13-2.45c-2-1.32-3.84-2.82-5.85-4.06
			c-0.13-0.12-0.35-0.06-0.5,0.1c-0.15,0.17-0.16,0.41-0.03,0.53c1.73,1.75,3.78,3.14,5.91,4.32c2.97,1.62,5.98,2.96,9.21,4.22
			c0.37,0.15,0.78,0.08,1.15,0.18c2.58,0.68,5.3,1.18,8.05,0.69c2.44-0.43,4.83-1.35,6.83-2.85c2-1.48,3.59-3.46,4.68-5.63
			c1.5-2.97,2.67-6.24,2.14-9.57c-0.01-0.02-0.03-0.04-0.06-0.03C-28.04-6.67-28.06-6.65-28.06-6.63z"/>
		<path class="st5" d="M-26.84-6.34c0.46,3.39-0.87,6.7-2.4,9.79c-1.37,2.81-3.62,5.39-6.55,6.97c-1.45,0.79-3.03,1.34-4.63,1.63
			c-1.6,0.3-3.22,0.36-4.8,0.27c-0.96-0.05-1.88-0.38-2.8-0.62c-2.46-0.63-4.71-1.39-6.88-2.67c-1.71-1.01-3.61-1.44-5.26-2.51
			c-2.06-1.35-3.92-2.86-6-4.16c-0.13-0.12-0.37-0.08-0.52,0.09c-0.14,0.17-0.14,0.42-0.01,0.54c1.8,1.81,3.87,3.21,6.06,4.43
			c3.04,1.66,6.12,3.04,9.49,4.34c0.38,0.15,0.82,0.09,1.2,0.19c2.69,0.71,5.56,1.23,8.52,0.71c2.63-0.45,5.24-1.46,7.4-3.09
			c2.17-1.61,3.86-3.73,5.01-6c1.59-3.12,2.78-6.5,2.27-9.91c-0.01-0.02-0.03-0.04-0.06-0.03C-26.82-6.38-26.83-6.36-26.84-6.34z"/>
		<path class="st5" d="M-25.61-6.06c0.44,3.47-0.92,6.89-2.54,10.13c-0.73,1.48-1.68,2.9-2.86,4.17c-1.17,1.28-2.58,2.4-4.15,3.26
			c-1.57,0.86-3.28,1.45-5,1.77c-1.72,0.32-3.45,0.39-5.12,0.3c-1.02-0.05-1.99-0.39-2.95-0.64c-2.58-0.66-4.91-1.45-7.15-2.75
			c-1.76-1.03-3.71-1.49-5.4-2.58c-2.11-1.38-4-2.91-6.14-4.26c-0.14-0.13-0.38-0.09-0.55,0.07c-0.14,0.18-0.13,0.43,0.01,0.56
			c1.86,1.86,3.97,3.28,6.21,4.53c3.11,1.7,6.27,3.12,9.77,4.46c0.4,0.16,0.85,0.1,1.25,0.2c2.81,0.73,5.83,1.28,9,0.73
			c2.81-0.47,5.65-1.58,7.98-3.33c2.34-1.73,4.13-4,5.34-6.38c1.68-3.28,2.9-6.76,2.4-10.25c-0.01-0.02-0.03-0.04-0.06-0.03
			C-25.59-6.1-25.61-6.08-25.61-6.06z"/>
	</g>
	<g class="st0">
		<path class="st6" d="M-37.45,33.57c-0.12-0.15-1.15-1.89-2.84-4.22c-1.69-2.33-4.08-5.24-6.83-7.5c-1.37-1.13-2.82-2.1-4.22-2.79
			c-1.4-0.69-2.75-1.1-3.89-1.26c-1.13-0.17-2.05-0.11-2.61-0.02c-0.28,0.05-0.48,0.1-0.59,0.13c-0.04,0.01-0.11,0.04-0.06,0.02
			l-0.13,0.05c0.29-0.51,0.94-0.99,1.65-1.38c2.05,0.02,4.14,0.7,6.04,1.75c1.92,1.05,3.68,2.46,5.29,4.05
			C-42.41,25.59-39.76,29.48-37.45,33.57z"/>
		<path class="st6" d="M-38.2,29.87c-0.1-0.12-1.01-1.48-2.47-3.32c-1.46-1.84-3.51-4.13-5.84-6c-1.16-0.94-2.38-1.77-3.58-2.41
			c-1.2-0.65-2.36-1.1-3.38-1.39c-2.04-0.57-3.4-0.44-3.4-0.46c0.6-0.31,1.26-0.56,1.97-0.75c1.82,0.35,3.57,1.08,5.17,2.03
			c1.61,0.95,3.09,2.13,4.46,3.42C-42.54,23.59-40.24,26.65-38.2,29.87z"/>
		<path class="st6" d="M-38.87,26.71c-0.17-0.16-3.18-4.35-7.14-7.43c-1.96-1.55-4.14-2.77-5.88-3.39
			c-1.74-0.64-2.97-0.76-2.96-0.77c0.58-0.15,1.18-0.26,1.8-0.34c3.08,0.96,5.75,2.77,8.07,4.87
			C-42.65,21.75-40.66,24.17-38.87,26.71z"/>
		<path class="st6" d="M-39.17,24.51c-0.14-0.14-2.72-3.43-6-6.01c-1.62-1.3-3.4-2.39-4.83-3.04c-1.42-0.67-2.44-0.94-2.44-0.95
			c0.51-0.04,1.02-0.06,1.55-0.06c2.48,1.08,4.64,2.63,6.57,4.36C-42.39,20.55-40.7,22.48-39.17,24.51z"/>
		<path class="st6" d="M-39.41,22.65c-0.12-0.11-2.32-2.72-5.02-4.86c-1.33-1.08-2.78-2.02-3.93-2.64
			c-1.15-0.62-1.97-0.95-1.97-0.95c0.42,0.01,0.85,0.04,1.28,0.08C-45.11,16.4-42.04,19.44-39.41,22.65z"/>
		<path class="st6" d="M-39.5,21.37c-0.1-0.09-1.95-2.17-4.13-3.94c-1.08-0.89-2.24-1.71-3.15-2.27c-0.91-0.56-1.56-0.89-1.55-0.89
			c0.34,0.04,0.69,0.1,1.03,0.15C-44.21,16.35-41.69,18.79-39.5,21.37z"/>
	</g>
	<g class="st0">
		<path class="st7" d="M-24.57-3.88c-0.24,3.02-1.58,5.92-2.98,8.63c-2.52,4.95-6.44,9.05-10.81,12.48
			c-0.66,0.52-1.41,0.94-2.13,1.39c-1.93,1.23-3.8,2.35-5.94,3.27c-1.69,0.72-3.21,1.69-4.94,2.31c-2.15,0.77-4.37,1.37-6.44,1.97
			c-0.15,0.03-0.24,0.14-0.2,0.25c0.01,0.12,0.11,0.2,0.27,0.17c2.19-0.32,4.47-1.05,6.6-1.92c2.97-1.22,5.76-2.65,8.59-4.22
			c0.32-0.18,0.58-0.45,0.88-0.64c2.11-1.36,4.15-2.78,5.97-4.51c3.26-3.08,6.22-6.54,8.28-10.51c1.42-2.72,2.69-5.66,2.91-8.69
			c0-0.02-0.01-0.03-0.03-0.03C-24.56-3.92-24.57-3.9-24.57-3.88z"/>
		<path class="st7" d="M-23.49-3.63c-0.26,3.09-1.62,6.08-3.06,8.86c-2.59,5.08-6.6,9.31-11.07,12.83
			c-0.68,0.54-1.44,0.96-2.18,1.43c-1.97,1.27-3.88,2.42-6.06,3.35c-1.73,0.74-3.28,1.73-5.04,2.37c-2.2,0.79-4.45,1.4-6.61,2.03
			c-0.16,0.03-0.27,0.15-0.25,0.26c0.02,0.12,0.15,0.19,0.32,0.16c2.29-0.35,4.59-1.09,6.77-1.98c3.03-1.25,5.88-2.71,8.77-4.33
			c0.33-0.18,0.59-0.45,0.9-0.65c2.16-1.39,4.24-2.85,6.1-4.63c3.34-3.16,6.37-6.72,8.48-10.8c1.46-2.79,2.76-5.81,2.98-8.92
			c0-0.02-0.01-0.03-0.03-0.03C-23.47-3.67-23.49-3.65-23.49-3.63z"/>
		<path class="st7" d="M-22.41-3.38c-0.27,3.16-1.67,6.23-3.13,9.08c-2.65,5.21-6.76,9.57-11.33,13.17
			c-0.69,0.55-1.47,0.99-2.22,1.47c-2.02,1.3-3.96,2.48-6.18,3.44c-1.76,0.76-3.34,1.76-5.14,2.42c-2.25,0.81-4.53,1.44-6.77,2.09
			c-0.17,0.03-0.29,0.15-0.27,0.27c0.02,0.12,0.17,0.19,0.34,0.16c2.37-0.38,4.71-1.13,6.94-2.05c3.09-1.28,5.99-2.77,8.94-4.43
			c0.34-0.19,0.61-0.46,0.92-0.67c2.2-1.42,4.32-2.93,6.23-4.75c3.42-3.24,6.52-6.9,8.68-11.09c1.49-2.87,2.82-5.97,3.06-9.14
			c0-0.02-0.01-0.03-0.03-0.03C-22.39-3.42-22.4-3.4-22.41-3.38z"/>
		<path class="st7" d="M-21.32-3.14c-0.29,3.24-1.71,6.38-3.21,9.31c-1.35,2.66-3.09,5.14-5.06,7.38c-1.97,2.25-4.19,4.28-6.53,6.14
			c-0.71,0.57-1.5,1.01-2.27,1.51c-2.06,1.34-4.04,2.54-6.31,3.53c-1.79,0.79-3.41,1.8-5.24,2.48c-2.29,0.83-4.61,1.48-6.93,2.16
			c-0.18,0.03-0.3,0.16-0.29,0.28c0.02,0.12,0.18,0.19,0.36,0.15c2.46-0.4,4.82-1.18,7.1-2.11c3.15-1.3,6.11-2.83,9.11-4.53
			c0.34-0.19,0.62-0.47,0.94-0.68c2.25-1.46,4.41-3,6.36-4.87c3.49-3.32,6.67-7.08,8.88-11.38c1.53-2.95,2.88-6.12,3.14-9.37
			c0-0.02-0.01-0.03-0.03-0.03C-21.3-3.18-21.32-3.16-21.32-3.14z"/>
		<path class="st7" d="M-20.23-2.9c-0.3,3.31-1.75,6.53-3.29,9.54c-1.39,2.73-3.16,5.27-5.17,7.58c-2.02,2.31-4.28,4.39-6.67,6.3
			c-0.72,0.58-1.53,1.04-2.31,1.55c-2.1,1.37-4.12,2.6-6.43,3.62c-1.83,0.81-3.47,1.84-5.34,2.53c-2.34,0.85-4.69,1.51-7.09,2.22
			c-0.18,0.03-0.32,0.16-0.3,0.28c0.02,0.12,0.18,0.18,0.37,0.15c2.53-0.43,4.93-1.22,7.26-2.17c3.21-1.33,6.22-2.89,9.29-4.64
			c0.35-0.2,0.63-0.48,0.96-0.7c2.29-1.49,4.5-3.07,6.5-4.99c3.57-3.41,6.82-7.27,9.08-11.68c1.56-3.02,2.94-6.28,3.22-9.59
			c0-0.02-0.01-0.04-0.03-0.03C-20.22-2.94-20.23-2.92-20.23-2.9z"/>
		<path class="st7" d="M-19.15-2.66c-0.32,3.38-1.79,6.68-3.36,9.76c-1.42,2.8-3.22,5.4-5.29,7.77c-2.06,2.37-4.37,4.5-6.81,6.45
			c-0.74,0.59-1.56,1.07-2.36,1.59c-2.14,1.4-4.2,2.66-6.55,3.71c-1.86,0.83-3.54,1.88-5.44,2.59c-2.39,0.88-4.77,1.55-7.25,2.28
			c-0.19,0.04-0.33,0.16-0.32,0.28c0.02,0.12,0.19,0.18,0.38,0.14c2.61-0.45,5.04-1.26,7.41-2.24c3.27-1.36,6.34-2.95,9.46-4.74
			c0.36-0.2,0.64-0.49,0.98-0.71c2.34-1.53,4.59-3.15,6.63-5.11c3.65-3.49,6.96-7.45,9.27-11.97c1.6-3.1,3-6.44,3.29-9.82
			c0-0.02-0.01-0.04-0.03-0.03C-19.13-2.7-19.14-2.68-19.15-2.66z"/>
	</g>
	<g class="st0">
		<path class="st8" d="M-72.48,33.26c4.16,0.09,8.55,0.22,12.82-0.32c3.84-0.48,7.66-1.34,11.3-2.78c3.64-1.43,7.08-3.44,10.06-6.01
			c0.9-0.78,1.81-1.56,2.65-2.43c2.26-2.33,4.07-4.84,5.73-7.66c1.32-2.25,2.21-4.61,3.07-7.03c1.07-3.04,1.88-6.12,2.17-9.38
			c0.03-0.24,0-0.46-0.06-0.5c-0.06,0-0.12,0.2-0.15,0.43c-0.44,3.25-1.2,6.36-2.23,9.41c-1.43,4.2-3.42,8.14-6.22,11.69
			c-0.32,0.4-0.6,0.82-0.92,1.2c-2.25,2.69-4.89,4.99-7.82,6.93c-2.63,1.74-5.51,3.09-8.49,4.07c-2.98,0.98-6.06,1.61-9.15,1.99
			c-4.28,0.52-8.66,0.42-12.81,0.35c-0.03,0-0.04,0.01-0.03,0.02C-72.53,33.26-72.5,33.26-72.48,33.26z"/>
		<path class="st8" d="M-72.52,32.7c4.13,0.09,8.48,0.23,12.7-0.3c3.8-0.47,7.57-1.31,11.16-2.72c3.59-1.39,6.98-3.36,9.93-5.89
			c0.89-0.76,1.78-1.53,2.62-2.38c2.24-2.29,4.02-4.76,5.67-7.53c1.31-2.22,2.2-4.55,3.05-6.94c1.06-3,1.87-6.06,2.17-9.25
			c0.03-0.24,0-0.44-0.06-0.47c-0.06-0.01-0.12,0.17-0.15,0.4c-0.44,3.18-1.2,6.27-2.22,9.27c-1.42,4.15-3.4,8.03-6.16,11.52
			c-0.31,0.39-0.59,0.81-0.91,1.18c-2.23,2.65-4.83,4.89-7.71,6.79c-2.59,1.71-5.43,3.03-8.37,3.99c-2.94,0.96-5.98,1.58-9.04,1.95
			c-4.23,0.51-8.57,0.4-12.7,0.33c-0.03,0-0.04,0.01-0.03,0.02C-72.58,32.69-72.55,32.7-72.52,32.7z"/>
		<path class="st8" d="M-72.57,32.14c4.1,0.09,8.41,0.24,12.59-0.27c3.76-0.46,7.48-1.28,11.02-2.65c3.54-1.36,6.88-3.29,9.78-5.77
			c0.88-0.75,1.76-1.5,2.58-2.33c2.21-2.24,3.98-4.67,5.61-7.4c1.3-2.19,2.18-4.48,3.03-6.84c1.06-2.96,1.86-5.99,2.16-9.12
			c0.03-0.23,0-0.43-0.06-0.45c-0.06-0.01-0.12,0.16-0.15,0.39c-0.44,3.12-1.2,6.18-2.22,9.14c-1.41,4.09-3.37,7.92-6.11,11.34
			c-0.31,0.39-0.58,0.79-0.89,1.16c-2.2,2.6-4.76,4.8-7.61,6.66c-2.56,1.67-5.36,2.96-8.26,3.9c-2.9,0.94-5.91,1.54-8.93,1.9
			c-4.18,0.5-8.49,0.39-12.58,0.31c-0.03,0-0.04,0.01-0.03,0.02C-72.62,32.13-72.6,32.14-72.57,32.14z"/>
		<path class="st8" d="M-72.61,31.58c4.07,0.09,8.35,0.24,12.47-0.25c3.72-0.44,7.39-1.25,10.88-2.59c3.49-1.33,6.78-3.22,9.65-5.64
			c0.87-0.73,1.73-1.47,2.55-2.29c2.18-2.2,3.93-4.58,5.55-7.27c1.29-2.15,2.16-4.42,3-6.74c1.05-2.92,1.85-5.92,2.16-8.99
			c0.03-0.22,0-0.42-0.06-0.44c-0.06-0.01-0.12,0.15-0.15,0.38c-0.45,3.06-1.2,6.09-2.21,9.02c-1.41,4.04-3.35,7.81-6.05,11.17
			c-0.31,0.38-0.57,0.78-0.88,1.14c-2.17,2.55-4.7,4.7-7.5,6.53c-5.05,3.29-11,4.99-16.96,5.67c-4.14,0.49-8.4,0.37-12.47,0.29
			c-0.03,0-0.04,0.01-0.03,0.02C-72.67,31.57-72.64,31.58-72.61,31.58z"/>
		<path class="st8" d="M-72.66,31.02c4.04,0.09,8.28,0.25,12.36-0.23c3.68-0.43,7.31-1.22,10.75-2.53c3.44-1.3,6.68-3.15,9.51-5.52
			c0.85-0.72,1.71-1.44,2.51-2.24c2.15-2.16,3.88-4.5,5.48-7.15c1.27-2.12,2.14-4.35,2.98-6.65c1.05-2.88,1.84-5.85,2.15-8.87
			c0.03-0.22,0-0.41-0.06-0.43c-0.06-0.01-0.12,0.15-0.15,0.37c-0.45,3.01-1.2,6.01-2.21,8.89c-1.4,3.98-3.32,7.7-5.99,11
			c-0.31,0.37-0.57,0.77-0.87,1.12c-2.15,2.5-4.63,4.61-7.4,6.4c-4.97,3.22-10.84,4.88-16.73,5.55c-4.09,0.47-8.32,0.35-12.36,0.27
			c-0.03,0-0.04,0.01-0.03,0.02C-72.71,31.01-72.68,31.01-72.66,31.02z"/>
		<path class="st8" d="M-72.7,30.45c4.01,0.1,8.21,0.26,12.25-0.22c3.64-0.42,7.22-1.19,10.61-2.47c3.39-1.28,6.58-3.08,9.36-5.4
			c0.84-0.7,1.68-1.41,2.48-2.19c2.12-2.12,3.83-4.41,5.42-7.02c1.26-2.08,2.12-4.29,2.95-6.55c1.04-2.84,1.83-5.77,2.14-8.75
			c0.03-0.22,0-0.4-0.06-0.42c-0.06-0.01-0.12,0.14-0.15,0.36c-0.45,2.95-1.2,5.93-2.2,8.77c-1.39,3.93-3.29,7.59-5.93,10.83
			c-0.3,0.37-0.56,0.75-0.86,1.1c-2.12,2.46-4.57,4.52-7.29,6.27c-4.9,3.15-10.67,4.78-16.51,5.42c-4.05,0.46-8.24,0.33-12.25,0.25
			c-0.03,0-0.04,0.01-0.03,0.02C-72.75,30.45-72.72,30.45-72.7,30.45z"/>
	</g>
	<g class="st0">
		<path class="st9" d="M-65.73,40.12c4.42,0.12,9.07,0.3,13.6-0.05c8.15-0.62,16.3-2.37,23.82-5.84c1.14-0.52,2.28-1.03,3.41-1.61
			c3.02-1.57,5.74-3.33,8.52-5.37c2.21-1.63,4.11-3.5,6.03-5.42c2.4-2.43,4.61-4.99,6.41-7.98c0.14-0.22,0.21-0.44,0.18-0.51
			c-0.06-0.02-0.2,0.14-0.34,0.35c-1.92,2.92-4.11,5.53-6.48,7.99c-3.28,3.38-6.88,6.29-10.95,8.75c-0.46,0.28-0.89,0.59-1.34,0.86
			c-3.19,1.87-6.5,3.37-9.96,4.68c-6.2,2.34-12.78,3.56-19.34,4.04c-4.54,0.34-9.18,0.19-13.6,0.09c-0.03,0-0.04,0.01-0.03,0.01
			C-65.79,40.11-65.76,40.12-65.73,40.12z"/>
		<path class="st9" d="M-65.78,39.56c4.39,0.12,9.01,0.31,13.51-0.04c8.09-0.61,16.18-2.33,23.63-5.75
			c1.13-0.52,2.26-1.01,3.38-1.59c3-1.55,5.69-3.29,8.45-5.3c2.19-1.61,4.08-3.46,5.98-5.36c2.38-2.4,4.58-4.94,6.35-7.87
			c0.14-0.21,0.21-0.43,0.16-0.47c-0.05-0.03-0.19,0.11-0.32,0.32c-1.89,2.85-4.07,5.44-6.42,7.87c-3.26,3.34-6.83,6.22-10.86,8.65
			c-0.46,0.27-0.88,0.58-1.33,0.84c-3.16,1.84-6.45,3.33-9.87,4.62c-6.15,2.31-12.68,3.51-19.19,3.98
			c-4.51,0.33-9.12,0.18-13.51,0.07c-0.03,0-0.04,0.01-0.03,0.02C-65.84,39.55-65.81,39.56-65.78,39.56z"/>
		<path class="st9" d="M-65.83,39c4.36,0.12,8.95,0.32,13.42-0.02c8.03-0.59,16.05-2.29,23.44-5.66c1.12-0.51,2.24-1,3.35-1.57
			c2.97-1.53,5.65-3.24,8.38-5.24c2.18-1.59,4.05-3.42,5.94-5.3c2.36-2.37,4.55-4.89,6.3-7.75c0.13-0.21,0.2-0.41,0.16-0.46
			c-0.05-0.03-0.19,0.1-0.32,0.31c-1.87,2.79-4.03,5.36-6.36,7.76c-3.23,3.3-6.77,6.15-10.78,8.55c-0.46,0.27-0.88,0.58-1.32,0.83
			c-3.14,1.82-6.39,3.29-9.79,4.56c-6.1,2.28-12.58,3.45-19.04,3.92c-4.48,0.32-9.05,0.16-13.42,0.06c-0.03,0-0.04,0.01-0.03,0.01
			C-65.89,38.99-65.86,39-65.83,39z"/>
		<path class="st9" d="M-65.88,38.44c4.34,0.12,8.9,0.32,13.33,0c7.97-0.58,15.92-2.25,23.26-5.58c1.11-0.51,2.22-0.99,3.32-1.55
			c2.95-1.51,5.6-3.2,8.31-5.17c2.16-1.57,4.02-3.38,5.89-5.24c2.34-2.34,4.52-4.83,6.24-7.65c0.13-0.2,0.2-0.4,0.15-0.45
			c-0.05-0.03-0.18,0.09-0.31,0.29c-1.84,2.73-4,5.28-6.3,7.65c-3.2,3.26-6.72,6.08-10.69,8.44c-0.45,0.26-0.87,0.57-1.31,0.82
			c-3.11,1.8-6.34,3.24-9.71,4.5c-6.05,2.25-12.47,3.4-18.89,3.85c-4.44,0.31-8.99,0.15-13.33,0.04c-0.03,0-0.04,0.01-0.03,0.02
			C-65.94,38.43-65.91,38.43-65.88,38.44z"/>
		<path class="st9" d="M-65.93,37.87c4.31,0.12,8.84,0.33,13.24,0.01c7.92-0.56,15.8-2.2,23.07-5.49c1.1-0.5,2.2-0.97,3.3-1.53
			c2.92-1.49,5.55-3.16,8.25-5.11c2.14-1.56,3.98-3.34,5.84-5.18c2.32-2.31,4.48-4.78,6.18-7.54c0.13-0.2,0.19-0.39,0.15-0.44
			c-0.05-0.03-0.18,0.09-0.31,0.28c-1.82,2.68-3.96,5.21-6.25,7.54c-3.18,3.22-6.67,6.01-10.6,8.34c-0.45,0.26-0.86,0.56-1.3,0.81
			c-3.08,1.78-6.29,3.2-9.63,4.44c-6,2.22-12.37,3.35-18.74,3.79c-4.41,0.31-8.93,0.14-13.24,0.03c-0.03,0-0.04,0.01-0.03,0.02
			C-65.99,37.86-65.96,37.87-65.93,37.87z"/>
		<path class="st9" d="M-65.98,37.31c4.29,0.12,8.78,0.34,13.15,0.03c7.86-0.55,15.67-2.16,22.88-5.41
			c1.09-0.49,2.19-0.96,3.27-1.51c2.9-1.47,5.5-3.12,8.18-5.04c2.13-1.54,3.95-3.3,5.79-5.12c2.3-2.28,4.45-4.73,6.13-7.43
			c0.13-0.19,0.19-0.38,0.15-0.43c-0.05-0.03-0.18,0.08-0.31,0.28c-1.8,2.63-3.92,5.13-6.19,7.43c-3.15,3.19-6.61,5.93-10.51,8.24
			c-0.44,0.26-0.86,0.55-1.29,0.81c-3.06,1.75-6.23,3.16-9.55,4.38c-5.95,2.19-12.26,3.3-18.59,3.73c-4.38,0.3-8.87,0.12-13.15,0.01
			c-0.03,0-0.04,0.01-0.03,0.02C-66.04,37.3-66.01,37.31-65.98,37.31z"/>
	</g>
	<g class="st0">
		<path class="st10" d="M-62.62,14.14c3.64-0.52,7.47,0,11.16,0.55c6.69,0.98,13.12,3.27,19.27,6.1c0.93,0.43,1.81,0.98,2.71,1.48
			c2.44,1.35,4.72,2.66,6.99,4.32c1.8,1.31,3.71,2.34,5.44,3.72c2.14,1.73,4.18,3.6,6.11,5.36c0.13,0.14,0.29,0.18,0.37,0.08
			c0.1-0.07,0.09-0.22-0.04-0.36c-1.76-2.01-3.94-3.87-6.16-5.53c-3.1-2.31-6.28-4.34-9.62-6.39c-0.38-0.24-0.8-0.37-1.18-0.57
			c-2.67-1.46-5.33-2.83-8.18-3.92c-5.09-1.96-10.33-3.62-15.72-4.43c-3.7-0.57-7.55-1.01-11.18-0.46
			c-0.02,0.01-0.03,0.02-0.02,0.03C-62.67,14.13-62.64,14.14-62.62,14.14z"/>
		<path class="st10" d="M-62.67,13.03c3.69-0.52,7.57,0,11.31,0.55c6.78,0.98,13.31,3.3,19.54,6.16c0.95,0.43,1.83,0.99,2.75,1.5
			c2.47,1.36,4.79,2.69,7.09,4.36c1.83,1.33,3.76,2.37,5.52,3.77c2.18,1.76,4.24,3.64,6.24,5.46c0.13,0.15,0.31,0.19,0.4,0.12
			c0.09-0.08,0.06-0.25-0.07-0.4c-1.83-2.08-4.03-3.94-6.29-5.63c-3.14-2.34-6.37-4.4-9.76-6.47c-0.38-0.24-0.81-0.37-1.2-0.58
			c-2.7-1.47-5.41-2.86-8.3-3.96c-5.16-1.98-10.48-3.66-15.94-4.48c-3.76-0.57-7.66-1.02-11.34-0.46c-0.02,0.01-0.03,0.02-0.02,0.03
			C-62.72,13.02-62.7,13.03-62.67,13.03z"/>
		<path class="st10" d="M-62.73,11.92c3.74-0.53,7.68,0,11.47,0.55c6.88,0.99,13.5,3.33,19.82,6.22c0.96,0.44,1.86,1,2.79,1.51
			c2.51,1.38,4.86,2.72,7.2,4.41c1.86,1.34,3.81,2.4,5.6,3.81c2.22,1.78,4.3,3.68,6.37,5.56c0.14,0.15,0.32,0.21,0.42,0.13
			c0.09-0.08,0.05-0.26-0.09-0.41c-1.9-2.13-4.12-4.01-6.42-5.72c-3.19-2.37-6.46-4.45-9.9-6.54c-0.39-0.24-0.82-0.38-1.21-0.59
			c-2.74-1.49-5.48-2.89-8.41-4c-5.23-2-10.63-3.69-16.16-4.52c-3.81-0.58-7.76-1.02-11.5-0.47c-0.02,0.01-0.04,0.02-0.02,0.03
			C-62.77,11.91-62.75,11.92-62.73,11.92z"/>
		<path class="st10" d="M-62.78,10.8c3.79-0.53,7.78,0,11.63,0.56c6.97,1,13.69,3.36,20.09,6.28c0.97,0.44,1.88,1.01,2.83,1.53
			c2.54,1.39,4.92,2.75,7.3,4.46c1.88,1.36,3.87,2.43,5.67,3.86c2.26,1.81,4.36,3.72,6.49,5.65c0.14,0.15,0.34,0.22,0.43,0.14
			c0.09-0.08,0.05-0.27-0.1-0.42c-1.96-2.19-4.21-4.08-6.54-5.82c-3.24-2.4-6.55-4.51-10.03-6.62c-0.39-0.24-0.83-0.38-1.23-0.59
			c-2.78-1.51-5.56-2.92-8.53-4.05c-5.31-2.02-10.77-3.73-16.39-4.57c-3.86-0.58-7.87-1.03-11.66-0.47
			c-0.02,0.01-0.04,0.02-0.02,0.03C-62.83,10.8-62.81,10.8-62.78,10.8z"/>
		<path class="st10" d="M-62.84,9.69c3.83-0.53,7.89,0,11.78,0.56c7.07,1.01,13.88,3.39,20.37,6.34c0.99,0.45,1.91,1.02,2.87,1.54
			c2.58,1.4,4.99,2.78,7.4,4.5c1.91,1.37,3.92,2.45,5.75,3.91c2.29,1.83,4.43,3.76,6.62,5.74c0.15,0.16,0.35,0.23,0.44,0.15
			c0.09-0.08,0.04-0.27-0.11-0.43c-2.02-2.23-4.3-4.14-6.67-5.91c-3.29-2.43-6.64-4.56-10.17-6.69c-0.4-0.25-0.85-0.39-1.25-0.6
			c-2.82-1.52-5.64-2.95-8.64-4.09c-5.38-2.04-10.92-3.77-16.61-4.61c-3.92-0.59-7.98-1.03-11.81-0.47
			c-0.02,0.01-0.04,0.02-0.02,0.03C-62.89,9.69-62.87,9.69-62.84,9.69z"/>
		<path class="st10" d="M-62.9,8.58c3.88-0.53,7.99-0.01,11.94,0.56c7.16,1.02,14.07,3.42,20.64,6.4c1,0.45,1.94,1.03,2.91,1.56
			c2.61,1.42,5.06,2.8,7.5,4.55c1.94,1.39,3.97,2.48,5.83,3.95c2.33,1.85,4.49,3.8,6.74,5.82c0.15,0.16,0.36,0.23,0.45,0.16
			c0.09-0.08,0.04-0.27-0.12-0.44c-2.08-2.28-4.38-4.21-6.79-5.99c-3.33-2.46-6.73-4.61-10.31-6.76c-0.41-0.25-0.86-0.39-1.26-0.61
			c-2.85-1.54-5.71-2.98-8.76-4.13C-39.57,11.59-45.2,9.85-50.96,9c-3.97-0.59-8.09-1.04-11.97-0.48c-0.03,0.01-0.04,0.02-0.02,0.03
			C-62.95,8.57-62.93,8.58-62.9,8.58z"/>
	</g>
	<g class="st0">
		<g>
			<path class="st11" d="M-63.02,13.93"/>
		</g>
	</g>
	<g class="st0">
		<path class="st12" d="M-57.99,23.3c1.43,0.97,3,1.86,4.68,2.48c1.68,0.62,3.48,0.97,5.25,0.99c3.19,0.04,6.26-0.76,9.09-1.92
			c2.84-1.17,5.47-2.7,7.95-4.44c0.75-0.53,1.51-1.02,2.26-1.58c1.99-1.48,3.76-3.02,5.64-4.66c1.49-1.32,2.75-2.76,4.12-4.18
			c1.71-1.78,3.36-3.56,4.85-5.55c0.12-0.14,0.18-0.3,0.14-0.35c-0.05-0.04-0.18,0.05-0.29,0.19c-1.61,1.9-3.24,3.74-4.92,5.55
			c-2.32,2.5-4.7,4.83-7.39,7c-0.31,0.25-0.57,0.52-0.87,0.77c-2.09,1.69-4.26,3.21-6.57,4.64c-2.07,1.28-4.28,2.38-6.63,3.18
			c-2.34,0.8-4.84,1.31-7.39,1.27c-1.76-0.03-3.55-0.37-5.23-0.98c-1.68-0.61-3.25-1.48-4.68-2.45c-0.02-0.01-0.03-0.01-0.03,0
			C-58.03,23.27-58.01,23.28-57.99,23.3z"/>
		<path class="st12" d="M-57.7,22.82c1.39,0.95,2.89,1.81,4.52,2.41c1.62,0.61,3.35,0.95,5.06,0.98c3.09,0.05,6.08-0.71,8.87-1.84
			c2.79-1.14,5.4-2.65,7.85-4.37c0.74-0.52,1.5-1.01,2.24-1.56c1.98-1.47,3.74-2.99,5.61-4.62c1.49-1.31,2.74-2.75,4.1-4.15
			c1.7-1.77,3.34-3.54,4.82-5.5c0.12-0.14,0.17-0.29,0.13-0.34c-0.05-0.04-0.17,0.04-0.28,0.18c-1.6,1.88-3.23,3.71-4.89,5.51
			c-2.31,2.48-4.68,4.8-7.35,6.95c-0.3,0.24-0.57,0.52-0.86,0.76c-2.08,1.68-4.23,3.18-6.52,4.59c-2.05,1.26-4.23,2.34-6.53,3.12
			c-2.3,0.78-4.73,1.26-7.2,1.21c-1.7-0.03-3.43-0.37-5.04-0.97c-1.62-0.6-3.13-1.44-4.52-2.39c-0.02-0.01-0.03-0.01-0.03,0
			C-57.74,22.79-57.72,22.8-57.7,22.82z"/>
		<path class="st12" d="M-57.41,22.34c1.35,0.92,2.8,1.76,4.36,2.34c1.56,0.59,3.22,0.93,4.87,0.96c2.98,0.06,5.9-0.67,8.64-1.77
			c2.74-1.11,5.32-2.6,7.75-4.29c0.73-0.52,1.49-1,2.22-1.54c1.96-1.45,3.71-2.96,5.57-4.58c1.48-1.3,2.73-2.73,4.08-4.12
			c1.69-1.75,3.33-3.52,4.8-5.46c0.11-0.14,0.17-0.29,0.13-0.33c-0.05-0.04-0.17,0.04-0.28,0.17c-1.59,1.86-3.21,3.69-4.87,5.47
			c-2.3,2.46-4.66,4.76-7.31,6.9c-0.3,0.24-0.57,0.52-0.86,0.75c-2.06,1.66-4.2,3.15-6.46,4.53c-2.03,1.24-4.17,2.3-6.43,3.05
			c-2.25,0.76-4.62,1.21-7,1.15c-1.65-0.04-3.3-0.37-4.85-0.96c-1.56-0.58-3.01-1.4-4.35-2.32c-0.02-0.01-0.03-0.01-0.03,0
			C-57.44,22.31-57.43,22.33-57.41,22.34z"/>
		<path class="st12" d="M-57.11,21.86c1.31,0.9,2.7,1.7,4.2,2.28c1.49,0.58,3.09,0.91,4.68,0.95c2.87,0.07,5.73-0.62,8.41-1.69
			c2.69-1.08,5.25-2.54,7.65-4.22c0.73-0.51,1.48-0.99,2.2-1.52c1.95-1.44,3.69-2.93,5.53-4.54c1.47-1.29,2.71-2.71,4.06-4.1
			c1.68-1.74,3.32-3.5,4.77-5.43c0.11-0.14,0.17-0.28,0.13-0.33c-0.05-0.04-0.17,0.03-0.28,0.17c-1.58,1.84-3.19,3.66-4.84,5.43
			c-2.29,2.45-4.63,4.73-7.27,6.85c-0.3,0.24-0.56,0.51-0.85,0.75c-2.05,1.64-4.17,3.11-6.4,4.48c-2,1.22-4.12,2.26-6.33,2.99
			c-2.21,0.73-4.51,1.16-6.81,1.09c-1.59-0.05-3.17-0.37-4.66-0.94c-1.49-0.56-2.89-1.36-4.19-2.25c-0.02-0.01-0.03-0.01-0.03,0
			C-57.14,21.83-57.13,21.85-57.11,21.86z"/>
		<path class="st12" d="M-56.81,21.39c1.26,0.87,2.6,1.65,4.04,2.21c1.43,0.56,2.96,0.89,4.49,0.93c2.76,0.08,5.54-0.57,8.18-1.62
			c2.64-1.05,5.17-2.49,7.55-4.14c0.72-0.5,1.46-0.97,2.18-1.5c1.93-1.42,3.66-2.9,5.5-4.5c1.46-1.28,2.7-2.69,4.03-4.07
			c1.68-1.73,3.3-3.48,4.75-5.39c0.11-0.13,0.17-0.28,0.13-0.33c-0.04-0.04-0.16,0.03-0.28,0.17c-1.57,1.82-3.18,3.63-4.82,5.39
			c-2.27,2.43-4.61,4.7-7.23,6.8c-0.3,0.24-0.56,0.51-0.85,0.74c-2.03,1.63-4.13,3.08-6.34,4.42c-1.98,1.2-4.06,2.21-6.22,2.93
			c-2.16,0.71-4.4,1.11-6.61,1.04c-1.53-0.05-3.05-0.37-4.47-0.93c-1.43-0.55-2.77-1.32-4.04-2.18c-0.02-0.01-0.03-0.01-0.03,0
			C-56.84,21.36-56.83,21.38-56.81,21.39z"/>
		<path class="st12" d="M-56.51,20.92c1.22,0.84,2.51,1.6,3.88,2.14c1.37,0.54,2.83,0.86,4.29,0.91c2.65,0.09,5.36-0.53,7.95-1.55
			c2.59-1.02,5.09-2.43,7.44-4.07c0.71-0.49,1.45-0.96,2.17-1.48c1.92-1.41,3.63-2.87,5.46-4.46c1.45-1.27,2.68-2.67,4.01-4.04
			c1.67-1.72,3.29-3.46,4.72-5.35c0.11-0.13,0.16-0.28,0.13-0.32c-0.05-0.04-0.16,0.03-0.27,0.16c-1.56,1.8-3.16,3.61-4.79,5.35
			c-2.26,2.42-4.59,4.67-7.19,6.74c-0.3,0.23-0.55,0.5-0.84,0.73c-2.02,1.61-4.1,3.04-6.28,4.37c-3.89,2.34-8.26,4-12.53,3.85
			c-1.47-0.06-2.92-0.38-4.28-0.91c-1.37-0.53-2.65-1.27-3.88-2.11c-0.02-0.01-0.03-0.01-0.03,0
			C-56.54,20.9-56.52,20.91-56.51,20.92z"/>
	</g>
	<g class="st0">
		<path class="st13" d="M-54.46,16.71c0.68,0.63,1.4,1.13,2.15,1.75l2.11,1.74c1.5,1.22,2.82,2.31,4.42,3.44
			c0.32,0.22,3.35,2.52,6.53,4.3c1.59,0.89,3.21,1.63,4.44,2c0.61,0.19,1.11,0.29,1.43,0.31c0.16,0.01,0.27,0.01,0.33,0
			c0.01,0,0.03,0,0.03-0.01c-0.05,0,0.03-0.01,0.04-0.01c0.05-0.01,0.08-0.02,0.09-0.02c0.01-0.01-0.08-0.01-0.14-0.01
			c0.02,0-0.06-0.01-0.12-0.02c-0.14-0.02-0.37-0.05-0.61-0.11c-0.48-0.11-1-0.28-1.05-0.3c-0.48-0.19-1.33-0.54-2.36-1.05
			c-1.03-0.51-2.21-1.18-3.36-1.89c-2.3-1.42-4.45-2.99-5.09-3.43c-2.38-1.64-4.39-3.18-6.67-4.99c-0.75-0.6-1.47-1.08-2.16-1.71
			c-0.02-0.01-0.03-0.02-0.04-0.02C-54.48,16.68-54.48,16.69-54.46,16.71z"/>
		<path class="st13" d="M-54.91,17.23c0.69,0.64,1.4,1.14,2.16,1.76l2.12,1.75c1.51,1.23,2.83,2.32,4.44,3.46
			c0.32,0.22,3.37,2.54,6.61,4.34c1.61,0.91,3.28,1.67,4.56,2.06c0.64,0.2,1.18,0.3,1.55,0.34c0.38,0.03,0.52,0,0.58-0.03
			c0.01-0.01-0.05-0.01-0.12-0.01l-0.19-0.02c-0.18-0.02-0.43-0.06-0.7-0.12c-0.53-0.12-1.07-0.3-1.12-0.32
			c-0.5-0.19-1.39-0.56-2.44-1.08c-1.05-0.52-2.26-1.21-3.42-1.93c-2.33-1.44-4.49-3.02-5.14-3.47c-2.4-1.66-4.42-3.2-6.71-5.02
			c-0.75-0.6-1.48-1.09-2.17-1.72c-0.02-0.01-0.03-0.02-0.04-0.02S-54.93,17.22-54.91,17.23z"/>
		<path class="st13" d="M-55.36,17.75c0.69,0.64,1.41,1.14,2.17,1.76l2.13,1.76c1.52,1.23,2.85,2.33,4.47,3.48
			c0.33,0.22,3.39,2.55,6.68,4.39c1.64,0.92,3.34,1.7,4.68,2.11c1.34,0.43,2.33,0.42,2.34,0.34c0.02-0.01-0.57-0.02-1.14-0.16
			c-0.57-0.13-1.14-0.32-1.19-0.34c-0.53-0.2-1.45-0.58-2.52-1.12c-1.08-0.54-2.3-1.23-3.48-1.96c-2.36-1.46-4.54-3.05-5.2-3.5
			c-2.41-1.67-4.44-3.22-6.75-5.05c-0.76-0.6-1.48-1.09-2.17-1.73c-0.02-0.01-0.03-0.02-0.04-0.02
			C-55.38,17.72-55.38,17.74-55.36,17.75z"/>
		<path class="st13" d="M-55.81,18.27c0.69,0.64,1.41,1.15,2.18,1.77l2.14,1.77c1.53,1.24,2.87,2.34,4.5,3.5
			c0.33,0.22,3.41,2.57,6.75,4.43c1.67,0.93,3.4,1.73,4.81,2.16c0.7,0.22,1.32,0.34,1.78,0.39c0.45,0.05,0.83,0.01,0.76-0.02
			c0-0.01,0-0.01-0.06-0.01c-0.11,0-0.2-0.01-0.33-0.02c-0.25-0.02-0.57-0.08-0.88-0.15c-0.62-0.14-1.21-0.34-1.27-0.36
			c-0.55-0.21-1.51-0.6-2.61-1.15c-1.1-0.55-2.35-1.25-3.54-1.99c-2.39-1.47-4.58-3.08-5.25-3.53c-2.43-1.68-4.47-3.24-6.78-5.08
			c-0.76-0.61-1.49-1.1-2.18-1.74c-0.02-0.01-0.03-0.02-0.04-0.02C-55.83,18.24-55.83,18.26-55.81,18.27z"/>
		<path class="st13" d="M-56.26,18.79c0.69,0.64,1.42,1.15,2.19,1.78l2.15,1.78c1.54,1.25,2.88,2.36,4.53,3.52
			c0.33,0.23,3.43,2.59,6.82,4.48c1.69,0.95,3.46,1.77,4.93,2.22c0.73,0.23,1.39,0.36,1.9,0.42c0.26,0.03,0.48,0.03,0.65,0.03
			l0.12-0.01c0.1-0.01,0.05-0.01,0.07-0.01c0-0.01,0-0.01,0-0.02c-0.01-0.01,0.02-0.01-0.03-0.01c-0.15,0-0.25-0.01-0.41-0.02
			c-0.29-0.03-0.64-0.08-0.97-0.16c-0.66-0.15-1.28-0.35-1.34-0.38c-0.58-0.22-1.56-0.62-2.69-1.18c-1.13-0.56-2.39-1.27-3.6-2.02
			c-2.42-1.49-4.63-3.11-5.3-3.57c-2.45-1.69-4.5-3.26-6.82-5.11c-0.76-0.61-1.5-1.1-2.19-1.74c-0.02-0.01-0.03-0.02-0.04-0.02
			C-56.28,18.76-56.28,18.78-56.26,18.79z"/>
	</g>
	<g class="st0">
		<path class="st14" d="M-28.5,17.83c-0.14-0.06-1.68-0.81-3.8-2.42c-2.11-1.59-4.74-4.01-7.19-6.62
			c-4.94-5.21-9.12-11.04-9.09-11.01c0.73,0.44,1.48,0.88,2.23,1.31c2.56,3.62,5.3,7.13,8.25,10.4c1.47,1.63,3,3.19,4.6,4.62
			C-31.9,15.54-30.23,16.85-28.5,17.83z"/>
		<path class="st14" d="M-37.08,12.95c-0.09-0.07-0.99-0.9-2.24-2.18c-1.25-1.27-2.84-2.99-4.35-4.76
			c-3.05-3.53-5.76-7.26-5.75-7.25l1.44,0.86C-44.68,4.31-41.09,8.87-37.08,12.95z"/>
		<path class="st14" d="M-29.32,20.83c-0.17-0.07-2.01-0.9-4.31-2.61c-2.32-1.68-5.09-4.2-7.64-6.88C-46.4,6-50.68,0.08-50.68,0.08
			c0.76,0.46,1.52,0.92,2.29,1.36c2.65,3.69,5.47,7.27,8.55,10.63c1.55,1.68,3.16,3.29,4.89,4.79
			C-33.23,18.35-31.39,19.75-29.32,20.83z"/>
		<path class="st14" d="M-39.22,15.38c-0.09-0.08-1.04-0.95-2.34-2.27c-1.3-1.32-2.94-3.09-4.5-4.91c-3.13-3.62-5.92-7.44-5.92-7.45
			l1.47,0.9C-47.09,6.46-43.43,11.11-39.22,15.38z"/>
		<path class="st14" d="M-31.83,23.34c-0.2-0.09-2.25-1.17-4.68-3.06c-2.45-1.88-5.31-4.56-7.92-7.36
			c-5.25-5.59-9.56-11.63-9.6-11.71c0.8,0.55,1.56,1,2.34,1.47c2.69,3.81,5.56,7.49,8.72,11.01c1.59,1.76,3.25,3.47,5.06,5.1
			C-36.09,20.43-34.15,22-31.83,23.34z"/>
	</g>
	<g class="st0">
		<path class="st15" d="M-30.85,34.18c1.04-0.67,1.9-1.44,2.92-2.24l2.88-2.23c2.01-1.61,3.79-3.03,5.71-4.82
			c0.39-0.35,4.17-3.73,7.57-7.32c3.44-3.56,6.47-7.34,6.34-7.45c0-0.07-1.92,2.23-2.03,2.33c-1.02,1.07-3.58,3.85-6.18,6.43
			c-2.59,2.6-5.22,4.99-5.98,5.72c-2.8,2.67-5.34,4.88-8.36,7.29c-1,0.79-1.84,1.58-2.87,2.25c-0.02,0.01-0.04,0.03-0.03,0.05
			C-30.89,34.2-30.87,34.2-30.85,34.18z"/>
		<path class="st15" d="M-30.3,34.96c1.05-0.68,1.91-1.46,2.95-2.26l2.9-2.25c2.03-1.62,3.82-3.06,5.75-4.85
			c0.39-0.35,4.2-3.75,7.63-7.37c3.46-3.59,6.51-7.39,6.4-7.52c-0.01-0.06-1.95,2.27-2.06,2.37c-1.03,1.08-3.6,3.88-6.23,6.48
			c-2.61,2.61-5.25,5.03-6.02,5.76c-2.82,2.69-5.38,4.92-8.43,7.35c-1.01,0.8-1.86,1.59-2.9,2.27c-0.02,0.02-0.04,0.04-0.03,0.05
			C-30.35,34.98-30.32,34.98-30.3,34.96z"/>
		<path class="st15" d="M-29.75,35.74c1.06-0.68,1.93-1.47,2.97-2.28l2.92-2.27c2.05-1.63,3.84-3.08,5.79-4.89
			c0.39-0.35,4.23-3.78,7.68-7.43c3.48-3.61,6.56-7.44,6.46-7.59c-0.02-0.04-1.97,2.3-2.09,2.4c-1.04,1.09-3.63,3.91-6.27,6.52
			c-2.63,2.63-5.29,5.06-6.06,5.8c-2.84,2.71-5.42,4.95-8.49,7.4c-1.02,0.8-1.88,1.6-2.93,2.29c-0.02,0.01-0.04,0.04-0.03,0.05
			C-29.8,35.76-29.78,35.76-29.75,35.74z"/>
		<path class="st15" d="M-29.2,36.53c1.07-0.69,1.95-1.48,3-2.3l2.95-2.29c2.06-1.65,3.87-3.11,5.84-4.93
			c0.4-0.36,4.26-3.81,7.73-7.48c3.51-3.64,6.6-7.49,6.52-7.66c-0.03-0.03-2,2.33-2.12,2.44c-1.05,1.1-3.66,3.94-6.31,6.57
			c-2.64,2.65-5.32,5.1-6.1,5.84c-2.86,2.73-5.46,4.99-8.56,7.46c-1.03,0.81-1.89,1.61-2.96,2.31c-0.02,0.01-0.04,0.04-0.03,0.05
			C-29.25,36.55-29.23,36.54-29.2,36.53z"/>
		<path class="st15" d="M-28.65,37.31c1.08-0.7,1.97-1.49,3.03-2.32l2.97-2.31c2.08-1.66,3.9-3.13,5.88-4.96
			c0.4-0.36,4.28-3.83,7.78-7.53c3.53-3.66,6.65-7.54,6.58-7.74c-0.04-0.01-2.03,2.37-2.15,2.47c-1.06,1.11-3.68,3.97-6.36,6.62
			c-2.66,2.67-5.36,5.13-6.14,5.88c-2.88,2.75-5.5,5.02-8.63,7.52c-1.03,0.82-1.91,1.63-2.98,2.33c-0.02,0.02-0.04,0.04-0.03,0.05
			C-28.7,37.33-28.68,37.33-28.65,37.31z"/>
	</g>
</g>
<g>
	<g>
		<g>
			<g>
				<path class="st16" d="M-99.64,34.38v-4.23h9.98c0,0,5.19-0.27,5.19-4.1V4.32h4.78v22c0,0,0.14,8.06-9.16,8.06H-99.64z"/>
			</g>
			<path class="st16" d="M-55.64,34.36v-4.21h-10.47c0,0-4.69-0.01-4.69-4.1V18.3h9.84v-3.87h-9.84V9.1h15.17V4.32h-19.95v22
				c0,0-0.1,7.28,7.87,8.06L-55.64,34.36z"/>
		</g>
	</g>
</g>
<path class="st17" d="M-51.63,38.1h0.82v4.96c0,0.59,0.01,0.95,0.03,1.1c0.04,0.32,0.14,0.59,0.28,0.81
	c0.15,0.22,0.38,0.4,0.69,0.55c0.31,0.15,0.62,0.22,0.93,0.22c0.27,0,0.53-0.06,0.78-0.17c0.25-0.12,0.46-0.28,0.63-0.48
	c0.17-0.2,0.29-0.45,0.37-0.74c0.06-0.21,0.08-0.64,0.08-1.28V38.1h0.82v4.96c0,0.73-0.07,1.33-0.22,1.78
	c-0.14,0.45-0.43,0.85-0.86,1.18c-0.43,0.34-0.95,0.5-1.56,0.5c-0.66,0-1.23-0.16-1.7-0.47c-0.47-0.32-0.79-0.74-0.95-1.26
	c-0.1-0.32-0.15-0.9-0.15-1.73V38.1z"/>
<path class="st17" d="M-44.6,38.1h0.96l1.97,3.2l1.98-3.2h0.95l-2.45,3.97l2.61,4.25h-0.96l-2.13-3.47l-2.14,3.47h-0.96l2.62-4.24
	L-44.6,38.1z"/>
<path class="st17" d="M-29.49,38.1h0.82v4.96c0,0.59,0.01,0.95,0.03,1.1c0.04,0.32,0.14,0.59,0.28,0.81
	c0.15,0.22,0.38,0.4,0.69,0.55c0.31,0.15,0.62,0.22,0.93,0.22c0.27,0,0.53-0.06,0.78-0.17c0.25-0.12,0.46-0.28,0.63-0.48
	c0.17-0.2,0.29-0.45,0.37-0.74c0.06-0.21,0.08-0.64,0.08-1.28V38.1h0.82v4.96c0,0.73-0.07,1.33-0.22,1.78
	c-0.14,0.45-0.43,0.85-0.86,1.18c-0.43,0.34-0.95,0.5-1.56,0.5c-0.66,0-1.23-0.16-1.7-0.47c-0.47-0.32-0.79-0.74-0.95-1.26
	c-0.1-0.32-0.15-0.9-0.15-1.73V38.1z"/>
<path class="st17" d="M-22.15,38.1h0.82v8.22h-0.82V38.1z"/>
<path class="st5" d="M-34.62,38.1h0.82v8.22h-0.82V38.1z"/>
<g>
	<defs>
		<path id="SVGID_5_" d="M84,35.74h-4.34V14.73c0,0-0.01-4.83-4.22-4.83h-7.96v9.27H63.5V9.9h-5.48v21.4H53.1V4.98h22.63
			c0,0,7.48-0.1,8.29,8.1L84,35.74z"/>
	</defs>
	<clipPath id="SVGID_6_">
		<use xlink:href="#SVGID_5_"  style="overflow:visible;"/>
	</clipPath>
	<g class="st18">
		<linearGradient id="SVGID_7_" gradientUnits="userSpaceOnUse" x1="68.9308" y1="35.8565" x2="68.9308" y2="3.6371">
			<stop  offset="0" style="stop-color:#0552A1"/>
			<stop  offset="0.4277" style="stop-color:#61CCF5"/>
			<stop  offset="1" style="stop-color:#00A84E"/>
		</linearGradient>
		<rect x="52.75" y="3.64" class="st19" width="32.36" height="32.22"/>
		<linearGradient id="SVGID_8_" gradientUnits="userSpaceOnUse" x1="52.7854" y1="35.8922" x2="85.0762" y2="3.6014">
			<stop  offset="0" style="stop-color:#0B1437"/>
			<stop  offset="0.0872" style="stop-color:#0C183A"/>
			<stop  offset="0.1707" style="stop-color:#112341"/>
			<stop  offset="0.2526" style="stop-color:#18374F"/>
			<stop  offset="0.3337" style="stop-color:#225261"/>
			<stop  offset="0.4141" style="stop-color:#2E7579"/>
			<stop  offset="0.493" style="stop-color:#3E9F96"/>
			<stop  offset="0.5434" style="stop-color:#49BEAB"/>
			<stop  offset="0.6936" style="stop-color:#D5EFFB"/>
			<stop  offset="0.8786" style="stop-color:#12B26A"/>
		</linearGradient>
		<rect x="52.75" y="3.64" class="st20" width="32.36" height="32.22"/>
	</g>
	<g class="st18">
		<path class="st3" d="M41.57,29.02c1.74,0.16,3.24,0.97,4.87,1.44c1.47,0.42,2.94,0.86,4.47,1.2c1.53,0.34,3.12,0.57,4.76,0.54
			c0.5-0.01,1,0.08,1.52,0.07c1.39-0.04,2.7-0.31,4.13-0.64c1.15-0.27,2.07-1.01,3.08-1.59c0.64-0.37,1.26-0.78,1.83-1.26
			c0.58-0.49,1.09-1.01,1.58-1.77c0.02-0.03,0.04-0.06,0.05-0.09l0.03-0.08c0.01-0.02-0.01-0.01-0.01-0.02l-0.12-0.09
			c-0.05-0.04-0.1-0.07-0.13-0.09c-0.01-0.05-0.13,0.06-0.16,0.09c-0.59,0.64-1.11,1.1-1.67,1.58c-0.56,0.47-1.12,0.9-1.71,1.29
			c-1.63,1.09-3.44,1.82-5.35,2.03c-0.22,0.02-0.41,0.15-0.62,0.18c-1.47,0.21-2.91,0.13-4.33,0.08c-2.58-0.1-4.97-0.87-7.31-1.57
			c-1.62-0.49-3.14-1.23-4.9-1.36c-0.01,0-0.02,0.01-0.03,0.03C41.55,29,41.56,29.01,41.57,29.02z"/>
		<path class="st3" d="M42.05,27.99c1.71,0.14,3.16,0.93,4.74,1.39c2.82,0.8,5.7,1.73,8.81,1.69c0.47-0.01,0.94,0.08,1.43,0.07
			c1.3-0.03,2.52-0.28,3.86-0.56c1.08-0.24,1.92-0.94,2.85-1.47c1.18-0.68,2.3-1.46,3.13-2.73c0.07-0.08,0.08-0.26-0.04-0.3
			c-0.05-0.03-0.09-0.07-0.15-0.06c-0.08,0.04-0.11,0.04-0.15,0.09c-0.52,0.54-1.01,0.96-1.52,1.39c-0.51,0.42-1.03,0.82-1.58,1.18
			c-1.5,1-3.18,1.68-4.96,1.86c-0.2,0.02-0.38,0.14-0.58,0.17c-1.38,0.19-2.72,0.11-4.07,0.06c-2.44-0.1-4.74-0.84-6.99-1.51
			c-1.57-0.47-3.05-1.19-4.77-1.3c-0.01,0-0.02,0.01-0.02,0.03C42.03,27.98,42.04,27.99,42.05,27.99z"/>
		<path class="st3" d="M42.53,26.97c1.67,0.12,3.08,0.9,4.61,1.33c2.73,0.77,5.47,1.67,8.39,1.63c0.44-0.01,0.88,0.09,1.34,0.08
			c1.22-0.02,2.35-0.24,3.59-0.49c1-0.21,1.77-0.86,2.63-1.35c1.08-0.61,2.14-1.33,2.84-2.45c0.07-0.07,0.04-0.2-0.05-0.28
			c-0.1-0.06-0.23-0.06-0.29,0c-0.9,0.87-1.81,1.62-2.81,2.28c-1.37,0.91-2.92,1.53-4.57,1.68c-0.19,0.01-0.35,0.13-0.53,0.16
			c-1.28,0.17-2.54,0.08-3.81,0.04c-2.3-0.09-4.5-0.81-6.68-1.46c-1.52-0.45-2.95-1.15-4.64-1.25c-0.01,0-0.02,0.01-0.02,0.03
			C42.52,26.95,42.53,26.96,42.53,26.97z"/>
		<path class="st3" d="M43.02,25.94c1.64,0.11,3,0.86,4.48,1.28c2.63,0.74,5.25,1.61,7.98,1.58c0.41-0.01,0.82,0.09,1.24,0.09
			c1.13-0.01,2.17-0.21,3.32-0.42c0.92-0.18,1.62-0.8,2.4-1.23c0.99-0.54,1.96-1.2,2.56-2.17c0.06-0.06,0.02-0.17-0.08-0.25
			c-0.1-0.07-0.21-0.09-0.26-0.03c-0.79,0.72-1.63,1.41-2.52,2c-1.24,0.83-2.65,1.39-4.18,1.51c-0.17,0.01-0.32,0.13-0.49,0.15
			c-1.18,0.15-2.36,0.06-3.55,0.02c-2.17-0.09-4.27-0.78-6.37-1.4c-1.47-0.44-2.86-1.12-4.51-1.2c-0.01,0-0.02,0.01-0.02,0.03
			C43,25.93,43.01,25.94,43.02,25.94z"/>
		<path class="st3" d="M43.51,24.92c1.6,0.09,2.93,0.83,4.35,1.23c2.54,0.71,5.03,1.54,7.57,1.52c0.38-0.01,0.76,0.09,1.15,0.1
			c1.05,0.01,2-0.18,3.05-0.35c0.84-0.15,1.47-0.73,2.17-1.11c0.89-0.47,1.79-1.08,2.28-1.9c0.05-0.05,0-0.15-0.1-0.22
			c-0.1-0.07-0.2-0.1-0.25-0.06c-0.68,0.57-1.44,1.2-2.24,1.73c-1.11,0.74-2.39,1.25-3.79,1.35c-0.16,0.01-0.3,0.12-0.45,0.14
			c-1.09,0.13-2.18,0.04-3.3,0.01c-2.03-0.08-4.04-0.75-6.07-1.34c-1.41-0.42-2.76-1.08-4.38-1.15c-0.01,0-0.02,0.01-0.02,0.03
			C43.49,24.9,43.5,24.91,43.51,24.92z"/>
		<path class="st3" d="M44,23.89c1.57,0.07,2.85,0.8,4.23,1.18c2.45,0.68,4.81,1.48,7.16,1.46c0.35,0,0.71,0.1,1.06,0.11
			c0.96,0.02,1.83-0.15,2.78-0.29c0.77-0.12,1.32-0.66,1.95-0.99c0.4-0.21,0.8-0.44,1.15-0.71c0.35-0.27,0.67-0.6,0.85-0.93
			c0.04-0.04-0.02-0.13-0.11-0.2c-0.1-0.07-0.19-0.11-0.23-0.08c-0.57,0.44-1.26,1.01-1.96,1.47c-0.98,0.65-2.13,1.11-3.4,1.18
			c-0.14,0-0.27,0.12-0.41,0.13c-0.99,0.12-1.99,0.02-3.04-0.01c-1.9-0.07-3.81-0.71-5.76-1.28c-1.36-0.4-2.67-1.05-4.25-1.1
			c-0.01,0-0.02,0.01-0.02,0.03C43.98,23.88,43.99,23.89,44,23.89z"/>
	</g>
	<g class="st18">
		<path class="st4" d="M80.89,37.92c-0.21-0.04-1.4-0.21-3.31-0.68c-1.9-0.47-4.51-1.24-7.45-2.53c-2.94-1.29-6.18-3.12-9.3-5.49
			c-3.13-2.36-6.13-5.25-8.75-8.4C46.8,14.53,43.1,7.29,40.87,1.74c-2.25-5.57-3.12-9.49-3.15-9.61c0.21,0.51,0.41,0.89,0.63,1.32
			c0.21,0.42,0.43,0.83,0.64,1.23c0.44,0.81,0.89,1.6,1.35,2.39c1.5,4.7,3.43,9.27,5.81,13.63c2.38,4.35,5.22,8.51,8.6,12.24
			c3.38,3.74,7.32,7.05,11.76,9.62C70.93,35.15,75.84,36.96,80.89,37.92z"/>
		<path class="st4" d="M73.96,34.68c-0.29-0.12-3.62-1.13-7.91-3.66c-2.14-1.26-4.49-2.91-6.79-4.9c-2.3-1.99-4.55-4.31-6.56-6.79
			C48.64,14.37,45.55,8.8,43.6,4.51c-1.96-4.3-2.9-7.3-2.91-7.29c0.74,1.24,1.52,2.46,2.32,3.64c2.79,7.25,6.6,14.18,11.73,20.16
			c2.56,2.98,5.46,5.71,8.69,8.04C66.65,31.38,70.2,33.29,73.96,34.68z"/>
		<path class="st4" d="M68.93,31.07c-0.22-0.12-2.64-1.27-5.76-3.54c-3.13-2.24-6.85-5.71-9.93-9.65
			c-3.12-3.92-5.63-8.23-7.28-11.55C44.3,3,43.43,0.69,43.42,0.69c0.64,0.94,1.3,1.87,1.97,2.77c2.43,5.62,5.54,10.98,9.43,15.75
			C58.72,23.98,63.46,28.12,68.93,31.07z"/>
		<path class="st4" d="M66.27,28.21c-0.16-0.1-1.95-1.17-4.29-3.07c-2.34-1.88-5.17-4.65-7.62-7.72c-2.46-3.06-4.54-6.37-5.96-8.93
			C47,5.93,46.2,4.16,46.19,4.16c0.55,0.71,1.11,1.41,1.68,2.1c2.13,4.34,4.69,8.47,7.74,12.22C58.67,22.21,62.23,25.55,66.27,28.21
			z"/>
		<path class="st4" d="M64.42,25.71c-0.12-0.09-1.45-1.02-3.22-2.58c-1.77-1.55-3.94-3.76-5.87-6.16c-1.94-2.39-3.65-4.96-4.83-6.93
			c-1.18-1.98-1.88-3.34-1.88-3.34c0.46,0.54,0.92,1.07,1.4,1.59C53.63,14.99,58.39,21.12,64.42,25.71z"/>
		<path class="st4" d="M63.48,23.98c-0.1-0.07-1.11-0.85-2.47-2.11c-1.37-1.25-3.06-3-4.61-4.87c-3.13-3.72-5.54-7.94-5.54-7.94
			c0.38,0.41,0.77,0.81,1.16,1.21C55.09,15.44,58.9,20.18,63.48,23.98z"/>
	</g>
	<g class="st18">
		<path class="st5" d="M74.64-6.82c0.53,3.23-0.74,6.28-2.04,8.96c-1.17,2.46-3.02,4.51-5.28,5.72c-2.26,1.22-4.86,1.59-7.52,1.43
			c-0.81-0.04-1.6-0.36-2.39-0.58c-2.14-0.58-4.2-1.27-6.19-2.48c-1.57-0.96-3.39-1.34-4.96-2.36c-1.94-1.29-3.75-2.78-5.68-3.95
			c-0.12-0.11-0.32-0.04-0.47,0.14c-0.15,0.17-0.2,0.39-0.07,0.51c1.63,1.69,3.66,3.07,5.74,4.21c2.9,1.58,5.81,2.87,8.84,4.07
			C54.96,8.99,55.36,8.91,55.7,9c2.41,0.64,4.86,1.1,7.25,0.66c2.11-0.38,4.1-1.15,5.81-2.42c1.71-1.26,3.12-2.99,4.1-4.98
			c1.36-2.72,2.49-5.84,1.91-9.08c-0.01-0.02-0.04-0.04-0.06-0.03C74.66-6.86,74.65-6.84,74.64-6.82z"/>
		<path class="st5" d="M75.89-6.53c0.51,3.31-0.79,6.47-2.18,9.31c-1.25,2.6-3.25,4.85-5.75,6.19c-2.5,1.36-5.39,1.77-8.23,1.6
			c-0.87-0.04-1.7-0.37-2.55-0.6c-2.27-0.6-4.4-1.32-6.47-2.57c-1.63-0.98-3.49-1.38-5.1-2.43c-1.99-1.32-3.84-2.83-5.83-4.05
			c-0.12-0.12-0.34-0.05-0.49,0.12c-0.15,0.18-0.18,0.4-0.05,0.52c1.7,1.74,3.76,3.14,5.89,4.32c2.97,1.62,5.96,2.95,9.13,4.19
			c0.36,0.15,0.77,0.08,1.13,0.17c2.52,0.67,5.14,1.15,7.73,0.68c2.3-0.41,4.52-1.27,6.39-2.67C71.4,6.88,72.91,5,73.96,2.9
			c1.45-2.88,2.61-6.11,2.04-9.43C76-6.55,75.97-6.56,75.94-6.56C75.92-6.56,75.9-6.55,75.89-6.53z"/>
		<path class="st5" d="M77.15-6.23c0.49,3.39-0.84,6.66-2.32,9.66c-1.33,2.73-3.48,5.18-6.22,6.66c-2.74,1.51-5.91,1.95-8.93,1.77
			c-0.93-0.05-1.81-0.38-2.7-0.62c-2.39-0.63-4.61-1.37-6.75-2.65c-1.69-1.01-3.59-1.43-5.24-2.5C42.93,4.74,41.06,3.21,39,1.94
			c-0.13-0.12-0.36-0.07-0.51,0.11c-0.15,0.18-0.17,0.41-0.03,0.54C40.23,4.38,42.32,5.8,44.5,7c3.04,1.66,6.11,3.03,9.42,4.31
			c0.38,0.15,0.8,0.09,1.18,0.18c2.64,0.69,5.41,1.2,8.22,0.71c2.49-0.43,4.94-1.38,6.98-2.91c2.05-1.52,3.67-3.54,4.78-5.75
			c1.54-3.03,2.72-6.38,2.18-9.78c-0.01-0.02-0.03-0.04-0.06-0.03C77.17-6.27,77.15-6.25,77.15-6.23z"/>
		<path class="st5" d="M78.4-5.94c0.47,3.47-0.89,6.85-2.45,10.01c-1.4,2.87-3.7,5.51-6.69,7.13c-1.48,0.81-3.1,1.37-4.74,1.66
			c-1.64,0.3-3.29,0.37-4.9,0.28c-0.98-0.05-1.92-0.39-2.86-0.64c-2.51-0.65-4.82-1.43-7.03-2.73c-1.74-1.03-3.69-1.48-5.38-2.57
			c-2.1-1.38-4.01-2.93-6.13-4.25c-0.13-0.12-0.37-0.08-0.53,0.09c-0.15,0.18-0.15,0.43-0.01,0.56c1.83,1.84,3.96,3.28,6.2,4.52
			c3.11,1.7,6.26,3.11,9.7,4.43c0.39,0.16,0.83,0.09,1.23,0.19c2.75,0.72,5.69,1.26,8.71,0.73c2.68-0.46,5.35-1.5,7.56-3.16
			c2.22-1.64,3.94-3.81,5.12-6.13c1.63-3.19,2.84-6.65,2.32-10.12c-0.01-0.02-0.03-0.04-0.06-0.03C78.42-5.98,78.4-5.96,78.4-5.94z"
			/>
		<path class="st5" d="M79.65-5.64c0.45,3.55-0.94,7.04-2.59,10.36c-0.75,1.51-1.72,2.96-2.92,4.27c-1.2,1.31-2.64,2.45-4.24,3.33
			c-1.6,0.88-3.35,1.48-5.11,1.81c-1.76,0.33-3.52,0.4-5.23,0.31c-1.04-0.05-2.03-0.4-3.01-0.65c-2.64-0.67-5.02-1.48-7.31-2.81
			c-1.8-1.06-3.79-1.52-5.52-2.64c-2.16-1.41-4.09-2.98-6.28-4.36c-0.14-0.13-0.39-0.09-0.56,0.07c-0.14,0.18-0.13,0.44,0.01,0.57
			c1.9,1.9,4.06,3.36,6.35,4.63c3.18,1.74,6.41,3.19,9.99,4.55c0.41,0.16,0.87,0.1,1.27,0.21c2.87,0.75,5.96,1.31,9.2,0.75
			c2.87-0.48,5.77-1.61,8.15-3.4c2.39-1.77,4.22-4.08,5.46-6.52c1.71-3.35,2.96-6.91,2.46-10.47c-0.01-0.02-0.03-0.04-0.06-0.03
			C79.67-5.68,79.65-5.67,79.65-5.64z"/>
	</g>
	<g class="st18">
		<path class="st6" d="M67.55,34.85c-0.12-0.15-1.18-1.93-2.91-4.32c-1.72-2.38-4.17-5.35-6.99-7.67c-1.4-1.16-2.88-2.15-4.32-2.85
			c-1.43-0.71-2.81-1.12-3.97-1.29c-1.16-0.18-2.09-0.12-2.67-0.02c-0.29,0.05-0.49,0.1-0.6,0.13c-0.04,0.01-0.11,0.04-0.06,0.02
			l-0.13,0.05c0.3-0.52,0.96-1.01,1.69-1.41c2.09,0.03,4.23,0.72,6.18,1.79c1.96,1.07,3.76,2.51,5.41,4.14
			C62.48,26.69,65.19,30.68,67.55,34.85z"/>
		<path class="st6" d="M66.78,31.07c-0.1-0.12-1.03-1.51-2.53-3.39c-1.49-1.88-3.59-4.22-5.97-6.13c-1.19-0.96-2.44-1.8-3.66-2.46
			c-1.22-0.66-2.42-1.13-3.45-1.42c-2.08-0.58-3.48-0.45-3.47-0.47c0.61-0.31,1.29-0.57,2.01-0.77c1.86,0.35,3.64,1.1,5.29,2.07
			c1.64,0.97,3.16,2.17,4.56,3.5C62.35,24.65,64.7,27.78,66.78,31.07z"/>
		<path class="st6" d="M66.1,27.84c-0.18-0.17-3.25-4.44-7.29-7.59c-2-1.59-4.23-2.83-6.01-3.46c-1.77-0.65-3.03-0.78-3.03-0.79
			c0.59-0.15,1.21-0.27,1.84-0.35c3.15,0.98,5.88,2.84,8.25,4.97C62.23,22.78,64.27,25.25,66.1,27.84z"/>
		<path class="st6" d="M65.8,25.59c-0.15-0.14-2.78-3.51-6.13-6.14c-1.66-1.33-3.48-2.44-4.93-3.11c-1.45-0.68-2.5-0.96-2.49-0.97
			c0.52-0.04,1.05-0.06,1.58-0.06c2.53,1.11,4.75,2.69,6.71,4.45C62.5,21.55,64.22,23.52,65.8,25.59z"/>
		<path class="st6" d="M65.54,23.7c-0.12-0.12-2.37-2.78-5.13-4.96c-1.36-1.1-2.85-2.07-4.02-2.7c-1.17-0.64-2.01-0.97-2.01-0.97
			c0.43,0.01,0.87,0.04,1.3,0.09C59.72,17.31,62.86,20.41,65.54,23.7z"/>
		<path class="st6" d="M65.46,22.39c-0.1-0.09-1.99-2.22-4.22-4.03c-1.11-0.91-2.29-1.74-3.22-2.32c-0.93-0.58-1.59-0.91-1.59-0.91
			c0.35,0.04,0.7,0.1,1.05,0.16C60.64,17.26,63.21,19.75,65.46,22.39z"/>
	</g>
	<g class="st18">
		<path class="st7" d="M80.71-3.42c-0.25,3.09-1.62,6.05-3.04,8.82c-2.58,5.05-6.58,9.25-11.05,12.76
			c-0.68,0.54-1.44,0.96-2.18,1.43c-1.97,1.26-3.88,2.41-6.07,3.34c-1.73,0.74-3.28,1.72-5.04,2.36c-2.2,0.78-4.47,1.4-6.58,2.01
			c-0.16,0.03-0.25,0.14-0.21,0.26c0.01,0.12,0.11,0.21,0.28,0.18c2.24-0.33,4.57-1.07,6.75-1.96c3.04-1.24,5.89-2.7,8.78-4.32
			c0.33-0.18,0.59-0.46,0.9-0.65c2.16-1.39,4.24-2.84,6.1-4.61c3.33-3.15,6.36-6.68,8.46-10.74c1.45-2.78,2.75-5.78,2.97-8.88
			c0-0.02-0.01-0.03-0.03-0.03C80.72-3.46,80.71-3.44,80.71-3.42z"/>
		<path class="st7" d="M81.81-3.17C81.55,0,80.15,3.04,78.69,5.89C76.05,11.08,71.95,15.4,67.38,19c-0.69,0.55-1.47,0.98-2.23,1.47
			c-2.02,1.3-3.97,2.47-6.19,3.43c-1.77,0.76-3.35,1.76-5.15,2.42c-2.25,0.81-4.55,1.43-6.75,2.07c-0.16,0.03-0.27,0.15-0.26,0.27
			c0.02,0.12,0.16,0.2,0.32,0.17c2.34-0.36,4.69-1.12,6.92-2.02c3.1-1.27,6.01-2.77,8.96-4.42c0.34-0.19,0.61-0.46,0.92-0.67
			c2.21-1.42,4.33-2.92,6.24-4.73c3.41-3.23,6.51-6.87,8.67-11.04c1.49-2.86,2.82-5.94,3.05-9.11c0-0.02-0.01-0.03-0.03-0.03
			C81.83-3.2,81.82-3.18,81.81-3.17z"/>
		<path class="st7" d="M82.92-2.91c-0.28,3.23-1.71,6.36-3.2,9.28c-2.71,5.33-6.9,9.78-11.58,13.46c-0.71,0.56-1.5,1.01-2.27,1.51
			c-2.06,1.33-4.05,2.53-6.32,3.52c-1.8,0.78-3.42,1.8-5.25,2.47c-2.3,0.83-4.63,1.47-6.92,2.14c-0.17,0.03-0.29,0.16-0.28,0.28
			c0.02,0.12,0.17,0.19,0.35,0.16c2.43-0.38,4.81-1.16,7.09-2.09c3.16-1.3,6.12-2.83,9.14-4.53c0.35-0.19,0.62-0.48,0.94-0.68
			c2.25-1.46,4.42-2.99,6.37-4.85c3.49-3.31,6.66-7.05,8.87-11.33c1.53-2.93,2.88-6.1,3.13-9.34c0-0.02-0.01-0.03-0.03-0.03
			C82.94-2.95,82.93-2.93,82.92-2.91z"/>
		<path class="st7" d="M84.03-2.66c-0.29,3.31-1.75,6.52-3.28,9.52c-1.38,2.72-3.15,5.25-5.17,7.55c-2.02,2.3-4.28,4.37-6.67,6.27
			c-0.72,0.58-1.53,1.04-2.32,1.55c-2.1,1.36-4.13,2.59-6.44,3.61c-1.83,0.8-3.48,1.84-5.35,2.53c-2.34,0.85-4.71,1.51-7.09,2.2
			c-0.18,0.03-0.31,0.16-0.3,0.28c0.02,0.12,0.18,0.19,0.36,0.16c2.51-0.41,4.93-1.2,7.26-2.16c3.22-1.33,6.24-2.89,9.31-4.63
			c0.35-0.19,0.63-0.48,0.96-0.7c2.3-1.49,4.51-3.07,6.5-4.97c3.57-3.4,6.82-7.24,9.08-11.63c1.56-3.01,2.94-6.26,3.21-9.57
			c0-0.02-0.01-0.04-0.03-0.03C84.05-2.7,84.04-2.68,84.03-2.66z"/>
		<path class="st7" d="M85.14-2.42c-0.31,3.38-1.79,6.67-3.36,9.75c-1.42,2.79-3.22,5.39-5.29,7.74c-2.06,2.36-4.37,4.49-6.81,6.43
			c-0.74,0.59-1.56,1.06-2.36,1.59c-2.14,1.4-4.21,2.66-6.57,3.7c-1.87,0.82-3.55,1.88-5.45,2.59c-2.39,0.87-4.79,1.55-7.25,2.27
			c-0.19,0.03-0.32,0.16-0.31,0.29c0.02,0.12,0.19,0.19,0.38,0.15c2.59-0.44,5.04-1.24,7.42-2.22c3.28-1.36,6.36-2.96,9.49-4.74
			c0.36-0.2,0.64-0.49,0.98-0.71c2.34-1.53,4.6-3.14,6.64-5.1c3.65-3.48,6.97-7.43,9.28-11.93c1.6-3.09,3.01-6.42,3.29-9.81
			c0-0.02-0.01-0.04-0.03-0.03C85.16-2.46,85.15-2.44,85.14-2.42z"/>
		<path class="st7" d="M86.25-2.18c-0.33,3.45-1.83,6.83-3.44,9.98c-1.45,2.86-3.3,5.52-5.4,7.94c-2.11,2.42-4.47,4.6-6.96,6.6
			c-0.75,0.61-1.59,1.09-2.41,1.63c-2.19,1.43-4.29,2.72-6.69,3.79c-1.9,0.84-3.62,1.92-5.56,2.64c-2.44,0.9-4.87,1.59-7.41,2.33
			c-0.19,0.04-0.34,0.17-0.32,0.29c0.02,0.12,0.19,0.19,0.39,0.15c2.67-0.46,5.15-1.28,7.58-2.28c3.34-1.39,6.48-3.02,9.67-4.85
			c0.37-0.21,0.66-0.5,1-0.73c2.39-1.56,4.69-3.22,6.77-5.22c3.73-3.56,7.12-7.62,9.48-12.24c1.63-3.16,3.07-6.58,3.37-10.04
			c0-0.02-0.01-0.04-0.03-0.03C86.27-2.22,86.26-2.2,86.25-2.18z"/>
	</g>
	<g class="st18">
		<path class="st8" d="M31.75,34.54c4.25,0.09,8.74,0.22,13.1-0.32c3.92-0.49,7.83-1.37,11.55-2.84c3.72-1.46,7.24-3.51,10.29-6.15
			c0.92-0.8,1.84-1.59,2.71-2.48c2.31-2.38,4.16-4.95,5.86-7.83c1.35-2.3,2.26-4.71,3.14-7.19c1.09-3.11,1.92-6.26,2.22-9.59
			c0.03-0.25,0-0.47-0.06-0.51c-0.06,0-0.13,0.2-0.15,0.44c-0.45,3.32-1.23,6.5-2.28,9.61c-1.46,4.29-3.49,8.32-6.35,11.94
			c-0.33,0.41-0.61,0.84-0.94,1.23c-2.3,2.75-4.99,5.1-7.99,7.08c-2.69,1.78-5.63,3.16-8.68,4.16c-3.05,1.01-6.19,1.65-9.35,2.03
			c-4.37,0.53-8.85,0.43-13.09,0.36c-0.03,0-0.04,0.01-0.03,0.02C31.7,34.53,31.72,34.54,31.75,34.54z"/>
		<path class="st8" d="M31.7,33.97c4.22,0.09,8.67,0.23,12.98-0.3c3.88-0.48,7.74-1.34,11.4-2.78c3.67-1.42,7.13-3.44,10.14-6.02
			c0.91-0.78,1.82-1.56,2.68-2.43c2.29-2.34,4.11-4.86,5.8-7.69c1.34-2.27,2.24-4.65,3.12-7.09c1.09-3.07,1.91-6.19,2.22-9.45
			c0.03-0.24,0-0.45-0.06-0.48c-0.06-0.01-0.13,0.17-0.15,0.41c-0.45,3.25-1.23,6.41-2.27,9.48c-1.45,4.24-3.47,8.21-6.3,11.77
			c-0.32,0.4-0.6,0.82-0.93,1.21c-2.28,2.71-4.93,5-7.88,6.94c-2.65,1.74-5.55,3.09-8.56,4.07c-3.01,0.99-6.12,1.61-9.24,1.99
			c-4.32,0.52-8.76,0.41-12.98,0.34c-0.03,0-0.04,0.01-0.03,0.02C31.65,33.96,31.68,33.96,31.7,33.97z"/>
		<path class="st8" d="M31.66,33.39c4.19,0.09,8.6,0.24,12.86-0.28c3.84-0.47,7.65-1.31,11.26-2.71c3.62-1.39,7.03-3.36,10-5.89
			c0.9-0.76,1.8-1.53,2.64-2.38c2.26-2.29,4.06-4.77,5.74-7.56c1.33-2.23,2.22-4.58,3.09-6.99c1.08-3.02,1.9-6.12,2.21-9.32
			c0.03-0.23,0-0.44-0.06-0.46c-0.06-0.01-0.13,0.16-0.16,0.4c-0.45,3.19-1.23,6.32-2.27,9.35c-1.45,4.18-3.45,8.09-6.24,11.59
			c-0.32,0.39-0.6,0.81-0.91,1.19c-2.25,2.66-4.87,4.9-7.78,6.81c-2.61,1.71-5.47,3.03-8.44,3.99c-2.97,0.96-6.04,1.57-9.12,1.94
			c-4.28,0.51-8.67,0.39-12.86,0.32c-0.03,0-0.04,0.01-0.03,0.02C31.6,33.38,31.63,33.39,31.66,33.39z"/>
		<path class="st8" d="M31.61,32.82c4.16,0.09,8.53,0.25,12.75-0.26c3.8-0.45,7.56-1.28,11.12-2.65c3.57-1.36,6.93-3.29,9.86-5.77
			c0.89-0.75,1.77-1.5,2.6-2.34c2.23-2.25,4.01-4.68,5.67-7.43c1.31-2.2,2.2-4.52,3.07-6.89c1.08-2.98,1.89-6.05,2.2-9.19
			c0.03-0.23,0-0.43-0.06-0.45c-0.06-0.01-0.13,0.16-0.16,0.38c-0.46,3.13-1.23,6.23-2.26,9.21c-1.44,4.13-3.42,7.98-6.18,11.42
			c-0.32,0.39-0.59,0.8-0.9,1.17c-2.22,2.61-4.8,4.81-7.67,6.67c-5.16,3.37-11.24,5.1-17.33,5.8c-4.23,0.5-8.59,0.38-12.74,0.3
			c-0.03,0-0.04,0.01-0.03,0.02C31.56,32.81,31.58,32.82,31.61,32.82z"/>
		<path class="st8" d="M31.57,32.24c4.13,0.1,8.46,0.26,12.63-0.24c3.76-0.44,7.47-1.25,10.98-2.59c3.52-1.33,6.83-3.22,9.71-5.64
			c0.87-0.73,1.75-1.47,2.57-2.29c2.2-2.21,3.96-4.6,5.6-7.3c1.3-2.16,2.19-4.45,3.04-6.79c1.07-2.94,1.88-5.98,2.2-9.06
			c0.03-0.23,0-0.42-0.06-0.44c-0.06-0.01-0.13,0.15-0.16,0.37c-0.46,3.07-1.23,6.14-2.25,9.09c-1.43,4.07-3.39,7.87-6.12,11.24
			c-0.31,0.38-0.58,0.78-0.89,1.15c-2.19,2.56-4.74,4.72-7.56,6.54c-5.08,3.29-11.07,4.99-17.1,5.67
			c-4.18,0.48-8.51,0.36-12.63,0.28c-0.03,0-0.04,0.01-0.03,0.02C31.51,32.24,31.54,32.24,31.57,32.24z"/>
		<path class="st8" d="M31.52,31.67c4.1,0.1,8.39,0.26,12.52-0.22c3.72-0.43,7.38-1.22,10.84-2.53c3.46-1.3,6.73-3.14,9.57-5.52
			c0.86-0.72,1.72-1.44,2.53-2.24c2.17-2.16,3.91-4.51,5.54-7.17c1.29-2.13,2.17-4.38,3.02-6.7c1.06-2.9,1.87-5.9,2.19-8.94
			c0.03-0.22,0-0.41-0.06-0.43c-0.06-0.01-0.13,0.15-0.16,0.37c-0.46,3.02-1.23,6.06-2.25,8.96c-1.42,4.02-3.37,7.76-6.06,11.06
			c-0.31,0.38-0.58,0.77-0.88,1.13c-2.17,2.51-4.67,4.62-7.45,6.41c-5.01,3.22-10.91,4.88-16.87,5.54
			c-4.14,0.47-8.42,0.34-12.51,0.26c-0.03,0-0.04,0.01-0.03,0.02C31.47,31.66,31.5,31.67,31.52,31.67z"/>
	</g>
	<g class="st18">
		<path class="st9" d="M38.65,41.55c4.51,0.12,9.27,0.31,13.9-0.05c8.33-0.64,16.66-2.42,24.34-5.97c1.16-0.53,2.33-1.05,3.48-1.65
			c3.09-1.61,5.86-3.4,8.71-5.49c2.26-1.67,4.2-3.57,6.16-5.54c2.46-2.49,4.72-5.1,6.55-8.16c0.14-0.22,0.22-0.45,0.18-0.52
			c-0.06-0.02-0.21,0.14-0.35,0.36c-1.96,2.99-4.2,5.65-6.62,8.16c-3.35,3.45-7.03,6.43-11.19,8.94c-0.47,0.28-0.91,0.6-1.37,0.87
			c-3.26,1.91-6.64,3.45-10.17,4.78c-6.34,2.39-13.06,3.64-19.76,4.13c-4.64,0.35-9.38,0.19-13.89,0.09c-0.03,0-0.04,0.01-0.03,0.02
			C38.59,41.54,38.62,41.55,38.65,41.55z"/>
		<path class="st9" d="M38.59,40.98c4.49,0.12,9.21,0.32,13.8-0.04c8.27-0.62,16.53-2.38,24.15-5.88c1.15-0.53,2.31-1.04,3.46-1.62
			c3.06-1.59,5.82-3.36,8.64-5.42c2.24-1.65,4.17-3.53,6.12-5.48c2.44-2.45,4.68-5.05,6.49-8.04c0.14-0.22,0.21-0.44,0.17-0.48
			c-0.05-0.03-0.19,0.11-0.33,0.33c-1.93,2.92-4.16,5.56-6.56,8.04c-3.33,3.41-6.98,6.36-11.1,8.84c-0.47,0.28-0.9,0.6-1.36,0.86
			c-3.23,1.88-6.59,3.4-10.09,4.72c-6.29,2.36-12.96,3.58-19.61,4.07c-4.61,0.34-9.32,0.18-13.8,0.07c-0.03,0-0.04,0.01-0.03,0.02
			C38.53,40.97,38.56,40.97,38.59,40.98z"/>
		<path class="st9" d="M38.54,40.4c4.46,0.12,9.15,0.32,13.71-0.02c8.21-0.6,16.4-2.34,23.96-5.79c1.14-0.52,2.29-1.02,3.43-1.6
			c3.04-1.57,5.77-3.32,8.57-5.35c2.23-1.63,4.14-3.49,6.07-5.42c2.42-2.42,4.65-4.99,6.44-7.93c0.14-0.21,0.2-0.42,0.16-0.47
			c-0.05-0.03-0.19,0.1-0.33,0.31c-1.91,2.85-4.12,5.48-6.5,7.93c-3.3,3.37-6.92,6.28-11.01,8.73c-0.47,0.27-0.9,0.59-1.35,0.85
			c-3.21,1.86-6.54,3.36-10.01,4.66c-6.24,2.33-12.85,3.53-19.46,4c-4.57,0.33-9.25,0.17-13.71,0.06c-0.03,0-0.04,0.01-0.03,0.02
			C38.48,40.39,38.51,40.4,38.54,40.4z"/>
		<path class="st9" d="M38.49,39.83c4.43,0.12,9.09,0.33,13.62,0c8.15-0.59,16.27-2.3,23.77-5.7c1.13-0.52,2.27-1.01,3.4-1.58
			c3.01-1.55,5.72-3.27,8.5-5.29c2.21-1.61,4.1-3.45,6.02-5.35c2.39-2.39,4.62-4.94,6.38-7.81c0.14-0.21,0.2-0.41,0.16-0.46
			c-0.05-0.03-0.19,0.1-0.32,0.3c-1.88,2.79-4.08,5.4-6.44,7.82c-3.27,3.33-6.87,6.21-10.92,8.63c-0.46,0.27-0.89,0.58-1.34,0.84
			c-3.18,1.84-6.48,3.32-9.92,4.6c-6.18,2.3-12.75,3.48-19.3,3.94c-4.54,0.32-9.19,0.15-13.62,0.04c-0.03,0-0.04,0.01-0.03,0.02
			C38.43,39.82,38.46,39.82,38.49,39.83z"/>
		<path class="st9" d="M38.44,39.25c4.41,0.13,9.04,0.34,13.53,0.01c8.09-0.58,16.15-2.25,23.58-5.61c1.12-0.51,2.25-0.99,3.37-1.56
			c2.99-1.52,5.67-3.23,8.43-5.22c2.19-1.59,4.07-3.41,5.97-5.29c2.38-2.36,4.58-4.89,6.32-7.7c0.13-0.2,0.2-0.4,0.15-0.45
			c-0.05-0.03-0.18,0.09-0.32,0.29c-1.86,2.74-4.05,5.32-6.38,7.71c-3.25,3.29-6.81,6.14-10.84,8.53c-0.46,0.27-0.88,0.57-1.33,0.83
			c-3.15,1.81-6.43,3.27-9.84,4.54c-6.13,2.27-12.64,3.43-19.15,3.87c-4.51,0.31-9.12,0.14-13.53,0.03c-0.03,0-0.04,0.01-0.03,0.02
			C38.38,39.24,38.41,39.25,38.44,39.25z"/>
		<path class="st9" d="M38.39,38.68c4.38,0.13,8.98,0.34,13.44,0.03c8.03-0.56,16.02-2.21,23.39-5.53c1.11-0.5,2.23-0.98,3.34-1.54
			c2.96-1.5,5.62-3.19,8.36-5.15c2.17-1.57,4.04-3.37,5.92-5.23c2.36-2.33,4.54-4.83,6.26-7.6c0.13-0.2,0.19-0.39,0.15-0.44
			c-0.05-0.03-0.18,0.09-0.31,0.28c-1.84,2.69-4.01,5.24-6.33,7.6c-3.22,3.26-6.76,6.07-10.75,8.42c-0.45,0.27-0.87,0.57-1.32,0.82
			c-3.13,1.79-6.37,3.23-9.76,4.47c-6.08,2.23-12.53,3.38-18.99,3.81c-4.47,0.31-9.06,0.13-13.44,0.01c-0.03,0-0.04,0.01-0.03,0.02
			C38.33,38.67,38.36,38.67,38.39,38.68z"/>
	</g>
	<g class="st18">
		<path class="st10" d="M41.82,15c3.72-0.53,7.63,0,11.4,0.56c6.84,1,13.41,3.34,19.69,6.23c0.95,0.44,1.85,1,2.77,1.52
			c2.49,1.38,4.83,2.72,7.15,4.41c1.84,1.34,3.79,2.39,5.56,3.8c2.19,1.77,4.27,3.68,6.25,5.48c0.13,0.14,0.3,0.18,0.38,0.09
			c0.1-0.07,0.1-0.22-0.04-0.37c-1.8-2.06-4.03-3.95-6.29-5.65c-3.17-2.36-6.42-4.44-9.83-6.53c-0.39-0.24-0.82-0.38-1.21-0.58
			c-2.72-1.49-5.45-2.89-8.36-4.01c-5.2-2-10.56-3.7-16.06-4.53c-3.79-0.58-7.72-1.03-11.43-0.47c-0.02,0.01-0.04,0.02-0.02,0.04
			C41.77,14.99,41.8,15,41.82,15z"/>
		<path class="st10" d="M41.77,13.86c3.77-0.54,7.74,0,11.56,0.56c6.93,1.01,13.61,3.38,19.97,6.3c0.97,0.44,1.87,1.01,2.81,1.53
			c2.52,1.39,4.9,2.75,7.25,4.46c1.87,1.36,3.84,2.42,5.64,3.85c2.23,1.79,4.33,3.72,6.38,5.58c0.14,0.15,0.32,0.2,0.41,0.12
			c0.09-0.08,0.07-0.26-0.07-0.41c-1.87-2.12-4.12-4.03-6.43-5.75c-3.21-2.39-6.51-4.49-9.97-6.61c-0.39-0.24-0.83-0.38-1.22-0.59
			c-2.76-1.51-5.53-2.92-8.48-4.05c-5.28-2.02-10.71-3.74-16.29-4.58c-3.84-0.58-7.82-1.04-11.59-0.47
			c-0.02,0.01-0.04,0.02-0.02,0.04C41.72,13.85,41.75,13.86,41.77,13.86z"/>
		<path class="st10" d="M41.72,12.72c3.82-0.54,7.85,0,11.72,0.56c7.03,1.01,13.8,3.41,20.26,6.36c0.98,0.45,1.9,1.02,2.85,1.55
			c2.56,1.41,4.96,2.78,7.35,4.51c1.9,1.37,3.9,2.45,5.72,3.9c2.27,1.82,4.39,3.76,6.51,5.68c0.14,0.15,0.33,0.21,0.43,0.14
			c0.09-0.08,0.05-0.27-0.09-0.42c-1.94-2.18-4.21-4.1-6.56-5.85c-3.26-2.42-6.6-4.55-10.11-6.69c-0.4-0.25-0.84-0.38-1.24-0.6
			c-2.8-1.52-5.6-2.95-8.6-4.09c-5.35-2.05-10.86-3.78-16.52-4.62c-3.89-0.59-7.93-1.05-11.75-0.48c-0.02,0.01-0.04,0.02-0.02,0.03
			C41.67,12.72,41.69,12.72,41.72,12.72z"/>
		<path class="st10" d="M41.66,11.59c3.87-0.54,7.95,0,11.88,0.57c7.13,1.02,13.99,3.43,20.54,6.42c0.99,0.45,1.92,1.03,2.89,1.56
			c2.6,1.42,5.03,2.81,7.46,4.56c1.92,1.39,3.95,2.48,5.8,3.95c2.31,1.84,4.46,3.8,6.64,5.77c0.15,0.16,0.34,0.22,0.44,0.15
			c0.09-0.08,0.05-0.27-0.1-0.43c-2.01-2.23-4.3-4.17-6.69-5.94c-3.31-2.45-6.69-4.6-10.26-6.76c-0.4-0.25-0.85-0.39-1.26-0.61
			c-2.84-1.54-5.68-2.98-8.71-4.13c-5.42-2.07-11.01-3.81-16.75-4.67c-3.95-0.59-8.04-1.05-11.91-0.48
			c-0.02,0.01-0.04,0.02-0.02,0.04C41.61,11.58,41.63,11.59,41.66,11.59z"/>
		<path class="st10" d="M41.6,10.45c3.92-0.54,8.06,0,12.04,0.57c7.22,1.03,14.18,3.46,20.82,6.48c1.01,0.45,1.95,1.04,2.93,1.58
			c2.63,1.44,5.1,2.84,7.56,4.6c1.95,1.4,4.01,2.51,5.88,3.99c2.34,1.87,4.52,3.84,6.76,5.86c0.15,0.16,0.35,0.23,0.45,0.16
			c0.09-0.08,0.04-0.28-0.11-0.44c-2.07-2.28-4.39-4.24-6.81-6.04c-3.36-2.48-6.79-4.66-10.4-6.84c-0.41-0.25-0.86-0.39-1.27-0.61
			c-2.88-1.56-5.76-3.01-8.83-4.18c-5.5-2.09-11.16-3.85-16.98-4.71c-4-0.6-8.15-1.05-12.07-0.48c-0.03,0.01-0.04,0.02-0.02,0.04
			C41.55,10.44,41.57,10.45,41.6,10.45z"/>
		<path class="st10" d="M41.53,9.31c3.97-0.54,8.17-0.01,12.21,0.57c7.32,1.04,14.38,3.49,21.1,6.54c1.02,0.46,1.98,1.05,2.97,1.59
			c2.67,1.45,5.17,2.87,7.66,4.65c1.98,1.42,4.06,2.54,5.96,4.04c2.38,1.89,4.59,3.89,6.88,5.95c0.16,0.17,0.36,0.24,0.46,0.16
			c0.09-0.08,0.04-0.28-0.12-0.45c-2.13-2.33-4.48-4.3-6.94-6.13c-3.41-2.51-6.88-4.71-10.54-6.91c-0.41-0.25-0.88-0.4-1.29-0.62
			c-2.92-1.57-5.84-3.04-8.95-4.22c-5.57-2.11-11.31-3.89-17.21-4.75c-4.06-0.6-8.26-1.06-12.23-0.49
			c-0.03,0.01-0.04,0.02-0.02,0.04C41.48,9.31,41.51,9.31,41.53,9.31z"/>
	</g>
	<g class="st18">
		<g>
			<path class="st21" d="M41.41,14.78"/>
		</g>
	</g>
	<g class="st18">
		<path class="st12" d="M46.55,24.36c1.47,1,3.06,1.9,4.79,2.53c1.72,0.64,3.56,0.99,5.36,1.01c3.26,0.04,6.39-0.78,9.29-1.96
			c2.9-1.19,5.59-2.76,8.12-4.54c0.76-0.54,1.55-1.05,2.31-1.61c2.03-1.52,3.85-3.08,5.77-4.77c1.53-1.34,2.82-2.83,4.21-4.27
			c1.75-1.82,3.43-3.64,4.96-5.67c0.12-0.14,0.18-0.3,0.14-0.36c-0.05-0.04-0.18,0.05-0.3,0.19c-1.65,1.94-3.32,3.83-5.03,5.67
			c-2.37,2.55-4.81,4.93-7.56,7.16c-0.31,0.25-0.59,0.54-0.89,0.78c-2.14,1.73-4.36,3.28-6.72,4.74c-2.12,1.3-4.38,2.43-6.77,3.25
			c-2.39,0.82-4.94,1.34-7.55,1.3c-1.8-0.03-3.63-0.38-5.35-1c-1.72-0.63-3.32-1.52-4.78-2.51c-0.02-0.01-0.03-0.01-0.03,0
			C46.52,24.32,46.54,24.34,46.55,24.36z"/>
		<path class="st12" d="M46.85,23.86c1.42,0.97,2.96,1.85,4.62,2.46c1.66,0.62,3.43,0.97,5.17,1c3.15,0.05,6.22-0.73,9.06-1.88
			c2.85-1.16,5.52-2.71,8.02-4.46c0.76-0.53,1.54-1.03,2.29-1.59c2.02-1.5,3.82-3.05,5.73-4.73c1.52-1.33,2.8-2.81,4.19-4.24
			c1.74-1.8,3.42-3.62,4.93-5.63c0.12-0.14,0.18-0.3,0.14-0.35c-0.05-0.04-0.17,0.04-0.29,0.18c-1.64,1.92-3.3,3.8-5,5.63
			c-2.36,2.53-4.78,4.9-7.51,7.1c-0.31,0.25-0.58,0.53-0.88,0.78c-2.12,1.71-4.33,3.25-6.66,4.69c-2.1,1.28-4.32,2.39-6.67,3.19
			c-2.35,0.8-4.83,1.29-7.36,1.23c-1.74-0.03-3.5-0.38-5.15-0.99c-1.66-0.61-3.19-1.47-4.61-2.44c-0.02-0.01-0.03-0.01-0.03,0
			C46.82,23.83,46.83,23.85,46.85,23.86z"/>
		<path class="st12" d="M47.15,23.38c1.38,0.94,2.86,1.79,4.45,2.4c1.59,0.61,3.29,0.96,4.97,0.99c3.04,0.06,6.03-0.68,8.83-1.8
			c2.8-1.13,5.44-2.65,7.92-4.39c0.75-0.53,1.52-1.02,2.27-1.57c2.01-1.48,3.79-3.03,5.69-4.68c1.51-1.32,2.79-2.79,4.17-4.21
			c1.73-1.79,3.4-3.6,4.9-5.58c0.12-0.14,0.17-0.29,0.13-0.34c-0.05-0.04-0.17,0.04-0.29,0.18c-1.62,1.9-3.28,3.77-4.97,5.59
			c-2.35,2.52-4.76,4.87-7.47,7.05c-0.31,0.25-0.58,0.53-0.88,0.77c-2.11,1.7-4.29,3.21-6.6,4.63c-2.07,1.26-4.27,2.35-6.57,3.12
			c-2.3,0.77-4.72,1.24-7.16,1.18c-1.68-0.04-3.37-0.38-4.96-0.98c-1.59-0.59-3.07-1.43-4.45-2.37c-0.02-0.01-0.03-0.01-0.03,0
			C47.12,23.35,47.13,23.36,47.15,23.38z"/>
		<path class="st12" d="M47.45,22.89c1.33,0.92,2.76,1.74,4.29,2.33c1.53,0.59,3.16,0.93,4.78,0.97c2.93,0.07,5.85-0.63,8.6-1.73
			c2.75-1.1,5.36-2.6,7.82-4.31c0.74-0.52,1.51-1.01,2.25-1.55c1.99-1.47,3.77-3,5.66-4.64c1.5-1.31,2.77-2.77,4.15-4.19
			c1.72-1.78,3.39-3.58,4.88-5.54c0.12-0.14,0.17-0.29,0.13-0.34c-0.05-0.04-0.17,0.03-0.28,0.17c-1.61,1.88-3.26,3.74-4.95,5.55
			c-2.34,2.5-4.74,4.84-7.43,7c-0.31,0.24-0.57,0.52-0.87,0.76c-2.09,1.68-4.26,3.18-6.54,4.58c-2.05,1.24-4.21,2.3-6.47,3.06
			c-2.25,0.75-4.61,1.19-6.96,1.12c-1.62-0.05-3.24-0.38-4.77-0.96c-1.53-0.58-2.95-1.39-4.29-2.3c-0.02-0.01-0.03-0.01-0.03,0
			C47.42,22.86,47.44,22.88,47.45,22.89z"/>
		<path class="st12" d="M47.76,22.41c1.29,0.89,2.66,1.69,4.13,2.26c1.46,0.58,3.02,0.91,4.58,0.95c2.82,0.08,5.67-0.58,8.36-1.66
			c2.7-1.08,5.28-2.54,7.71-4.23c0.74-0.51,1.49-1,2.23-1.54c1.97-1.45,3.74-2.97,5.62-4.6c1.49-1.3,2.76-2.75,4.12-4.16
			c1.71-1.77,3.38-3.56,4.85-5.5c0.12-0.14,0.17-0.29,0.13-0.33c-0.05-0.04-0.17,0.03-0.28,0.17c-1.6,1.86-3.24,3.71-4.92,5.51
			c-2.32,2.49-4.71,4.81-7.39,6.95c-0.31,0.24-0.57,0.52-0.86,0.75c-2.08,1.66-4.23,3.15-6.48,4.52c-2.02,1.23-4.15,2.26-6.36,2.99
			c-2.21,0.73-4.49,1.14-6.75,1.06c-1.56-0.05-3.11-0.38-4.57-0.95c-1.46-0.56-2.83-1.35-4.12-2.23c-0.02-0.01-0.03-0.01-0.03,0
			C47.73,22.38,47.74,22.39,47.76,22.41z"/>
		<path class="st12" d="M48.07,21.93c1.25,0.86,2.56,1.63,3.96,2.18c1.4,0.55,2.89,0.88,4.39,0.93c2.71,0.09,5.48-0.54,8.12-1.58
			c2.65-1.05,5.2-2.49,7.61-4.16c0.73-0.51,1.48-0.98,2.21-1.52c1.96-1.44,3.71-2.94,5.58-4.56c1.49-1.29,2.74-2.73,4.1-4.13
			c1.7-1.75,3.36-3.54,4.83-5.47C89,3.5,89.05,3.35,89.01,3.31c-0.05-0.04-0.17,0.03-0.28,0.17c-1.59,1.84-3.23,3.69-4.9,5.47
			c-2.31,2.47-4.69,4.77-7.35,6.89c-0.3,0.24-0.57,0.51-0.86,0.75c-2.06,1.65-4.19,3.11-6.42,4.46c-3.98,2.4-8.44,4.09-12.8,3.93
			c-1.5-0.06-2.98-0.38-4.38-0.93c-1.4-0.55-2.71-1.3-3.96-2.16c-0.02-0.01-0.03-0.01-0.03,0C48.04,21.9,48.06,21.92,48.07,21.93z"
			/>
	</g>
	<g class="st18">
		<path class="st13" d="M50.17,17.62c0.7,0.65,1.43,1.16,2.2,1.79l2.16,1.78c1.54,1.25,2.88,2.36,4.51,3.52
			c0.33,0.22,3.42,2.58,6.68,4.39c1.62,0.91,3.29,1.67,4.53,2.05c0.62,0.19,1.14,0.29,1.46,0.32c0.16,0.01,0.28,0.01,0.34,0
			c0.01,0,0.03-0.01,0.03-0.01c-0.05,0,0.03-0.01,0.04-0.01c0.05-0.01,0.08-0.02,0.09-0.02c0.01-0.01-0.08-0.01-0.15-0.01
			c0.02,0-0.06-0.01-0.12-0.02c-0.14-0.02-0.38-0.06-0.62-0.11c-0.49-0.11-1.03-0.29-1.07-0.31c-0.49-0.19-1.36-0.55-2.41-1.07
			c-1.05-0.52-2.26-1.21-3.43-1.93c-2.35-1.45-4.55-3.06-5.21-3.51c-2.43-1.68-4.49-3.25-6.82-5.1c-0.77-0.61-1.5-1.11-2.2-1.75
			c-0.02-0.01-0.03-0.02-0.04-0.02C50.14,17.59,50.15,17.61,50.17,17.62z"/>
		<path class="st13" d="M49.71,18.15c0.7,0.65,1.43,1.16,2.21,1.8l2.17,1.79c1.54,1.26,2.9,2.37,4.54,3.54
			c0.33,0.23,3.44,2.59,6.75,4.44c1.65,0.93,3.35,1.7,4.66,2.1c0.65,0.2,1.21,0.31,1.58,0.35c0.39,0.04,0.53,0,0.6-0.03
			c0.01-0.01-0.05-0.01-0.12-0.01l-0.19-0.02c-0.18-0.02-0.44-0.06-0.71-0.12c-0.54-0.12-1.1-0.31-1.15-0.33
			c-0.51-0.2-1.42-0.57-2.49-1.11c-1.07-0.54-2.31-1.23-3.5-1.97c-2.38-1.47-4.59-3.09-5.26-3.54c-2.45-1.69-4.51-3.27-6.86-5.13
			c-0.77-0.62-1.51-1.11-2.21-1.76c-0.02-0.01-0.03-0.02-0.04-0.02C49.68,18.12,49.69,18.14,49.71,18.15z"/>
		<path class="st13" d="M49.25,18.69c0.7,0.65,1.44,1.17,2.22,1.8l2.18,1.8c1.55,1.26,2.91,2.38,4.57,3.56
			c0.33,0.23,3.46,2.61,6.82,4.48c1.68,0.94,3.41,1.74,4.79,2.16c1.37,0.44,2.38,0.43,2.39,0.34c0.02-0.01-0.59-0.02-1.16-0.17
			c-0.58-0.13-1.17-0.33-1.22-0.35c-0.54-0.21-1.48-0.59-2.58-1.14c-1.1-0.55-2.35-1.26-3.56-2c-2.42-1.49-4.64-3.12-5.31-3.58
			c-2.47-1.71-4.54-3.29-6.89-5.16c-0.77-0.62-1.52-1.12-2.22-1.77c-0.02-0.01-0.03-0.02-0.04-0.02
			C49.22,18.66,49.23,18.67,49.25,18.69z"/>
		<path class="st13" d="M48.79,19.22c0.71,0.66,1.45,1.17,2.23,1.81l2.19,1.81c1.56,1.27,2.93,2.4,4.6,3.58
			c0.34,0.23,3.48,2.63,6.9,4.53c1.7,0.95,3.48,1.77,4.91,2.21c0.72,0.22,1.35,0.35,1.82,0.4c0.46,0.05,0.85,0.01,0.78-0.02
			c0-0.01,0-0.01-0.06-0.01c-0.11,0-0.21-0.01-0.34-0.02c-0.26-0.03-0.58-0.08-0.9-0.15c-0.63-0.14-1.24-0.34-1.29-0.37
			c-0.56-0.21-1.54-0.61-2.66-1.17c-1.13-0.56-2.4-1.28-3.62-2.03c-2.45-1.51-4.69-3.15-5.36-3.61c-2.49-1.72-4.57-3.32-6.93-5.19
			c-0.78-0.62-1.52-1.12-2.23-1.78c-0.02-0.01-0.03-0.02-0.04-0.02C48.76,19.19,48.77,19.2,48.79,19.22z"/>
		<path class="st13" d="M48.33,19.75c0.71,0.66,1.45,1.18,2.24,1.82l2.2,1.82c1.57,1.27,2.94,2.41,4.63,3.6
			c0.34,0.23,3.5,2.64,6.97,4.58c1.73,0.97,3.54,1.81,5.04,2.26c0.75,0.23,1.42,0.37,1.94,0.43c0.26,0.03,0.49,0.03,0.67,0.03
			l0.13-0.01c0.11-0.01,0.05-0.01,0.07-0.01c0-0.01,0-0.01,0-0.02c-0.01-0.01,0.02-0.01-0.04-0.01c-0.15,0-0.26-0.01-0.42-0.02
			c-0.3-0.03-0.65-0.09-0.99-0.16c-0.68-0.15-1.31-0.36-1.37-0.39c-0.59-0.22-1.6-0.63-2.75-1.21c-1.15-0.57-2.45-1.3-3.68-2.07
			c-2.48-1.53-4.73-3.18-5.41-3.65c-2.5-1.73-4.6-3.34-6.97-5.22c-0.78-0.62-1.53-1.13-2.24-1.78c-0.02-0.01-0.03-0.02-0.04-0.02
			C48.3,19.72,48.31,19.74,48.33,19.75z"/>
	</g>
	<g class="st18">
		<path class="st14" d="M76.69,18.77c-0.15-0.06-1.72-0.83-3.88-2.48c-2.16-1.62-4.85-4.1-7.35-6.76
			c-5.04-5.32-9.32-11.29-9.29-11.26c0.75,0.45,1.52,0.9,2.28,1.34c2.61,3.7,5.42,7.29,8.43,10.62c1.51,1.66,3.07,3.26,4.7,4.73
			C73.22,16.42,74.93,17.76,76.69,18.77z"/>
		<path class="st14" d="M67.92,13.78c-0.09-0.08-1.01-0.92-2.29-2.23c-1.28-1.3-2.9-3.06-4.45-4.87c-3.11-3.61-5.89-7.42-5.88-7.41
			l1.47,0.88C60.16,4.95,63.83,9.61,67.92,13.78z"/>
		<path class="st14" d="M75.86,21.84c-0.18-0.07-2.05-0.92-4.41-2.67c-2.37-1.72-5.2-4.29-7.81-7.03
			C58.4,6.68,54.02,0.62,54.03,0.63c0.78,0.47,1.56,0.94,2.34,1.39c2.7,3.77,5.59,7.43,8.74,10.86c1.58,1.71,3.23,3.36,4.99,4.9
			C71.87,19.3,73.74,20.73,75.86,21.84z"/>
		<path class="st14" d="M65.74,16.26c-0.1-0.08-1.06-0.97-2.39-2.32c-1.33-1.35-3-3.16-4.6-5.02c-3.2-3.7-6.05-7.6-6.05-7.61
			l1.51,0.92C57.69,7.15,61.44,11.9,65.74,16.26z"/>
		<path class="st14" d="M73.29,24.4c-0.2-0.09-2.3-1.19-4.78-3.13c-2.51-1.92-5.43-4.66-8.09-7.52C55.05,8.04,50.65,1.87,50.6,1.78
			c0.82,0.56,1.59,1.02,2.39,1.51c2.75,3.9,5.68,7.66,8.92,11.26c1.62,1.8,3.32,3.55,5.17,5.22C68.94,21.43,70.93,23.03,73.29,24.4z
			"/>
	</g>
	<g class="st18">
		<path class="st15" d="M74.29,35.48c1.06-0.68,1.94-1.47,2.98-2.28l2.94-2.28c2.06-1.64,3.87-3.1,5.83-4.92
			c0.4-0.36,4.26-3.81,7.74-7.48c3.51-3.64,6.61-7.51,6.47-7.61c0-0.08-1.96,2.28-2.08,2.38c-1.04,1.09-3.66,3.93-6.32,6.57
			c-2.65,2.65-5.33,5.1-6.11,5.84c-2.86,2.73-5.46,4.99-8.54,7.45c-1.02,0.81-1.88,1.61-2.94,2.3c-0.02,0.02-0.04,0.04-0.03,0.05
			C74.25,35.5,74.27,35.49,74.29,35.48z"/>
		<path class="st15" d="M74.86,36.28c1.07-0.69,1.96-1.49,3.01-2.3l2.96-2.3c2.08-1.66,3.9-3.12,5.88-4.96
			c0.4-0.36,4.29-3.83,7.79-7.54c3.54-3.67,6.66-7.56,6.54-7.69c-0.01-0.06-1.99,2.32-2.11,2.42c-1.05,1.1-3.68,3.96-6.36,6.62
			c-2.67,2.67-5.37,5.14-6.15,5.88c-2.88,2.75-5.5,5.03-8.61,7.51c-1.03,0.82-1.9,1.62-2.97,2.32c-0.02,0.02-0.04,0.04-0.03,0.05
			C74.81,36.3,74.83,36.29,74.86,36.28z"/>
		<path class="st15" d="M75.42,37.07c1.08-0.7,1.97-1.5,3.04-2.33l2.99-2.32c2.09-1.67,3.93-3.15,5.92-5
			c0.4-0.36,4.32-3.86,7.85-7.59c3.56-3.69,6.7-7.61,6.6-7.76c-0.02-0.04-2.02,2.35-2.14,2.45c-1.06,1.11-3.71,3.99-6.41,6.67
			c-2.68,2.69-5.41,5.17-6.19,5.92c-2.9,2.77-5.54,5.06-8.68,7.57c-1.04,0.82-1.92,1.64-2.99,2.34c-0.02,0.02-0.04,0.04-0.03,0.05
			C75.37,37.1,75.39,37.09,75.42,37.07z"/>
		<path class="st15" d="M75.98,37.87c1.09-0.71,1.99-1.51,3.07-2.35l3.01-2.34c2.11-1.68,3.96-3.17,5.96-5.04
			c0.4-0.37,4.35-3.89,7.9-7.64c3.59-3.72,6.75-7.66,6.66-7.83c-0.03-0.03-2.05,2.39-2.17,2.49c-1.07,1.12-3.74,4.02-6.45,6.72
			c-2.7,2.71-5.44,5.21-6.24,5.96c-2.92,2.79-5.58,5.1-8.75,7.63c-1.05,0.83-1.93,1.65-3.02,2.36c-0.02,0.02-0.04,0.04-0.03,0.05
			C75.93,37.9,75.95,37.89,75.98,37.87z"/>
		<path class="st15" d="M76.54,38.67c1.1-0.71,2.01-1.53,3.1-2.37l3.04-2.36c2.13-1.7,3.99-3.2,6.01-5.07
			c0.41-0.37,4.38-3.92,7.95-7.69c3.61-3.74,6.79-7.71,6.73-7.91c-0.05-0.01-2.07,2.42-2.2,2.53c-1.08,1.13-3.76,4.05-6.5,6.77
			c-2.72,2.73-5.48,5.24-6.28,6c-2.95,2.81-5.62,5.14-8.82,7.68c-1.06,0.84-1.95,1.66-3.05,2.38c-0.02,0.02-0.04,0.04-0.03,0.05
			C76.49,38.7,76.51,38.69,76.54,38.67z"/>
	</g>
</g>
<g>
	<g>
		<g>
			<g>
				<path class="st16" d="M3.99,35.68v-4.33h10.2c0,0,5.31-0.28,5.31-4.19V4.96h4.89v22.48c0,0,0.14,8.24-9.36,8.24H3.99z"/>
			</g>
			<path class="st16" d="M48.96,35.66v-4.31H38.26c0,0-4.8-0.01-4.8-4.19v-7.91h10.06V15.3H33.46V9.85h15.5V4.96H28.57v22.48
				c0,0-0.1,7.44,8.05,8.24L48.96,35.66z"/>
		</g>
	</g>
</g>
<path class="st5" d="M70.44,40.55h0.84v8.4h-0.84V40.55z"/>
<g>
	<path class="st16" d="M52.86,40.84h1.52v5.13c0,0.44,0.04,0.76,0.12,0.94c0.08,0.18,0.21,0.33,0.38,0.44
		c0.18,0.11,0.39,0.16,0.65,0.16c0.27,0,0.5-0.06,0.69-0.18c0.19-0.12,0.33-0.28,0.4-0.47c0.07-0.19,0.11-0.55,0.11-1.08v-4.95h1.52
		v4.73c0,0.8-0.05,1.35-0.13,1.66c-0.09,0.31-0.26,0.61-0.52,0.9c-0.25,0.29-0.55,0.5-0.88,0.64c-0.33,0.14-0.72,0.21-1.16,0.21
		c-0.58,0-1.08-0.13-1.5-0.4c-0.43-0.26-0.73-0.6-0.91-0.99c-0.18-0.4-0.28-1.07-0.28-2.02V40.84z"/>
	<path class="st16" d="M59.86,40.84h1.7l1.67,2.55l1.67-2.55h1.7l-2.52,3.85l2.68,4.09h-1.7l-1.83-2.79l-1.83,2.79H59.7l2.69-4.09
		L59.86,40.84z"/>
	<path class="st16" d="M75.19,40.84h1.52v5.13c0,0.44,0.04,0.76,0.12,0.94c0.08,0.18,0.21,0.33,0.38,0.44
		c0.18,0.11,0.39,0.16,0.65,0.16c0.27,0,0.5-0.06,0.69-0.18c0.19-0.12,0.33-0.28,0.4-0.47c0.07-0.19,0.11-0.55,0.11-1.08v-4.95h1.52
		v4.73c0,0.8-0.05,1.35-0.13,1.66c-0.09,0.31-0.26,0.61-0.52,0.9c-0.25,0.29-0.55,0.5-0.88,0.64c-0.33,0.14-0.72,0.21-1.16,0.21
		c-0.58,0-1.08-0.13-1.5-0.4c-0.43-0.26-0.73-0.6-0.91-0.99c-0.18-0.4-0.28-1.07-0.28-2.02V40.84z"/>
	<path class="st16" d="M82.6,40.84h1.5v7.94h-1.5V40.84z"/>
</g>
</svg>
